<?xml version="1.0" encoding="utf-8" standalone="no"?>
<!DOCTYPE svg PUBLIC "-//W3C//DTD SVG 1.1//EN"
  "http://www.w3.org/Graphics/SVG/1.1/DTD/svg11.dtd">
<svg xmlns:xlink="http://www.w3.org/1999/xlink" width="846.274531pt" height="370.537812pt" viewBox="0 0 846.274531 370.537812" xmlns="http://www.w3.org/2000/svg" version="1.1">
 <metadata>
  <rdf:RDF xmlns:dc="http://purl.org/dc/elements/1.1/" xmlns:cc="http://creativecommons.org/ns#" xmlns:rdf="http://www.w3.org/1999/02/22-rdf-syntax-ns#">
   <cc:Work>
    <dc:type rdf:resource="http://purl.org/dc/dcmitype/StillImage"/>
    <dc:date>2026-01-30T14:57:17.557395</dc:date>
    <dc:format>image/svg+xml</dc:format>
    <dc:creator>
     <cc:Agent>
      <dc:title>Matplotlib v3.10.7, https://matplotlib.org/</dc:title>
     </cc:Agent>
    </dc:creator>
   </cc:Work>
  </rdf:RDF>
 </metadata>
 <defs>
  <style type="text/css">*{stroke-linejoin: round; stroke-linecap: butt}</style>
 </defs>
 <g id="figure_1">
  <g id="patch_1">
   <path d="M 0 370.537812 
L 846.274531 370.537812 
L 846.274531 0 
L 0 0 
z
" style="fill: #ffffff"/>
  </g>
  <g id="axes_1">
   <g id="patch_2">
    <path d="M 57.874531 320.4 
L 397.526705 320.4 
L 397.526705 43.2 
L 57.874531 43.2 
z
" style="fill: #ffffff"/>
   </g>
   <g id="matplotlib.axis_1">
    <g id="xtick_1">
     <g id="line2d_1">
      <defs>
       <path id="mf1190092e8" d="M 0 0 
L 0 3.5 
" style="stroke: #000000; stroke-width: 0.8"/>
      </defs>
      <g>
       <use xlink:href="#mf1190092e8" x="73.313266" y="320.4" style="stroke: #000000; stroke-width: 0.8"/>
      </g>
     </g>
     <g id="text_1">
      <!-- 0 -->
      <g transform="translate(68.541391 338.797656) scale(0.15 -0.15)">
       <defs>
        <path id="DejaVuSans-30" d="M 2034 4250 
Q 1547 4250 1301 3770 
Q 1056 3291 1056 2328 
Q 1056 1369 1301 889 
Q 1547 409 2034 409 
Q 2525 409 2770 889 
Q 3016 1369 3016 2328 
Q 3016 3291 2770 3770 
Q 2525 4250 2034 4250 
z
M 2034 4750 
Q 2819 4750 3233 4129 
Q 3647 3509 3647 2328 
Q 3647 1150 3233 529 
Q 2819 -91 2034 -91 
Q 1250 -91 836 529 
Q 422 1150 422 2328 
Q 422 3509 836 4129 
Q 1250 4750 2034 4750 
z
" transform="scale(0.015625)"/>
       </defs>
       <use xlink:href="#DejaVuSans-30"/>
      </g>
     </g>
    </g>
    <g id="xtick_2">
     <g id="line2d_2">
      <g>
       <use xlink:href="#mf1190092e8" x="161.53461" y="320.4" style="stroke: #000000; stroke-width: 0.8"/>
      </g>
     </g>
     <g id="text_2">
      <!-- 2 -->
      <g transform="translate(156.762735 338.797656) scale(0.15 -0.15)">
       <defs>
        <path id="DejaVuSans-32" d="M 1228 531 
L 3431 531 
L 3431 0 
L 469 0 
L 469 531 
Q 828 903 1448 1529 
Q 2069 2156 2228 2338 
Q 2531 2678 2651 2914 
Q 2772 3150 2772 3378 
Q 2772 3750 2511 3984 
Q 2250 4219 1831 4219 
Q 1534 4219 1204 4116 
Q 875 4013 500 3803 
L 500 4441 
Q 881 4594 1212 4672 
Q 1544 4750 1819 4750 
Q 2544 4750 2975 4387 
Q 3406 4025 3406 3419 
Q 3406 3131 3298 2873 
Q 3191 2616 2906 2266 
Q 2828 2175 2409 1742 
Q 1991 1309 1228 531 
z
" transform="scale(0.015625)"/>
       </defs>
       <use xlink:href="#DejaVuSans-32"/>
      </g>
     </g>
    </g>
    <g id="xtick_3">
     <g id="line2d_3">
      <g>
       <use xlink:href="#mf1190092e8" x="249.755954" y="320.4" style="stroke: #000000; stroke-width: 0.8"/>
      </g>
     </g>
     <g id="text_3">
      <!-- 4 -->
      <g transform="translate(244.984079 338.797656) scale(0.15 -0.15)">
       <defs>
        <path id="DejaVuSans-34" d="M 2419 4116 
L 825 1625 
L 2419 1625 
L 2419 4116 
z
M 2253 4666 
L 3047 4666 
L 3047 1625 
L 3713 1625 
L 3713 1100 
L 3047 1100 
L 3047 0 
L 2419 0 
L 2419 1100 
L 313 1100 
L 313 1709 
L 2253 4666 
z
" transform="scale(0.015625)"/>
       </defs>
       <use xlink:href="#DejaVuSans-34"/>
      </g>
     </g>
    </g>
    <g id="xtick_4">
     <g id="line2d_4">
      <g>
       <use xlink:href="#mf1190092e8" x="337.977298" y="320.4" style="stroke: #000000; stroke-width: 0.8"/>
      </g>
     </g>
     <g id="text_4">
      <!-- 6 -->
      <g transform="translate(333.205423 338.797656) scale(0.15 -0.15)">
       <defs>
        <path id="DejaVuSans-36" d="M 2113 2584 
Q 1688 2584 1439 2293 
Q 1191 2003 1191 1497 
Q 1191 994 1439 701 
Q 1688 409 2113 409 
Q 2538 409 2786 701 
Q 3034 994 3034 1497 
Q 3034 2003 2786 2293 
Q 2538 2584 2113 2584 
z
M 3366 4563 
L 3366 3988 
Q 3128 4100 2886 4159 
Q 2644 4219 2406 4219 
Q 1781 4219 1451 3797 
Q 1122 3375 1075 2522 
Q 1259 2794 1537 2939 
Q 1816 3084 2150 3084 
Q 2853 3084 3261 2657 
Q 3669 2231 3669 1497 
Q 3669 778 3244 343 
Q 2819 -91 2113 -91 
Q 1303 -91 875 529 
Q 447 1150 447 2328 
Q 447 3434 972 4092 
Q 1497 4750 2381 4750 
Q 2619 4750 2861 4703 
Q 3103 4656 3366 4563 
z
" transform="scale(0.015625)"/>
       </defs>
       <use xlink:href="#DejaVuSans-36"/>
      </g>
     </g>
    </g>
    <g id="text_5">
     <!-- time [week] -->
     <g transform="translate(166.961868 359.594375) scale(0.18 -0.18)">
      <defs>
       <path id="DejaVuSans-Bold-74" d="M 1759 4494 
L 1759 3500 
L 2913 3500 
L 2913 2700 
L 1759 2700 
L 1759 1216 
Q 1759 972 1856 886 
Q 1953 800 2241 800 
L 2816 800 
L 2816 0 
L 1856 0 
Q 1194 0 917 276 
Q 641 553 641 1216 
L 641 2700 
L 84 2700 
L 84 3500 
L 641 3500 
L 641 4494 
L 1759 4494 
z
" transform="scale(0.015625)"/>
       <path id="DejaVuSans-Bold-69" d="M 538 3500 
L 1656 3500 
L 1656 0 
L 538 0 
L 538 3500 
z
M 538 4863 
L 1656 4863 
L 1656 3950 
L 538 3950 
L 538 4863 
z
" transform="scale(0.015625)"/>
       <path id="DejaVuSans-Bold-6d" d="M 3781 2919 
Q 3994 3244 4286 3414 
Q 4578 3584 4928 3584 
Q 5531 3584 5847 3212 
Q 6163 2841 6163 2131 
L 6163 0 
L 5038 0 
L 5038 1825 
Q 5041 1866 5042 1909 
Q 5044 1953 5044 2034 
Q 5044 2406 4934 2573 
Q 4825 2741 4581 2741 
Q 4263 2741 4089 2478 
Q 3916 2216 3909 1719 
L 3909 0 
L 2784 0 
L 2784 1825 
Q 2784 2406 2684 2573 
Q 2584 2741 2328 2741 
Q 2006 2741 1831 2477 
Q 1656 2213 1656 1722 
L 1656 0 
L 531 0 
L 531 3500 
L 1656 3500 
L 1656 2988 
Q 1863 3284 2130 3434 
Q 2397 3584 2719 3584 
Q 3081 3584 3359 3409 
Q 3638 3234 3781 2919 
z
" transform="scale(0.015625)"/>
       <path id="DejaVuSans-Bold-65" d="M 4031 1759 
L 4031 1441 
L 1416 1441 
Q 1456 1047 1700 850 
Q 1944 653 2381 653 
Q 2734 653 3104 758 
Q 3475 863 3866 1075 
L 3866 213 
Q 3469 63 3072 -14 
Q 2675 -91 2278 -91 
Q 1328 -91 801 392 
Q 275 875 275 1747 
Q 275 2603 792 3093 
Q 1309 3584 2216 3584 
Q 3041 3584 3536 3087 
Q 4031 2591 4031 1759 
z
M 2881 2131 
Q 2881 2450 2695 2645 
Q 2509 2841 2209 2841 
Q 1884 2841 1681 2658 
Q 1478 2475 1428 2131 
L 2881 2131 
z
" transform="scale(0.015625)"/>
       <path id="DejaVuSans-Bold-20" transform="scale(0.015625)"/>
       <path id="DejaVuSans-Bold-5b" d="M 550 4863 
L 2491 4863 
L 2491 4159 
L 1613 4159 
L 1613 -141 
L 2491 -141 
L 2491 -844 
L 550 -844 
L 550 4863 
z
" transform="scale(0.015625)"/>
       <path id="DejaVuSans-Bold-77" d="M 225 3500 
L 1313 3500 
L 1900 1088 
L 2491 3500 
L 3425 3500 
L 4013 1113 
L 4603 3500 
L 5691 3500 
L 4769 0 
L 3547 0 
L 2956 2406 
L 2369 0 
L 1147 0 
L 225 3500 
z
" transform="scale(0.015625)"/>
       <path id="DejaVuSans-Bold-6b" d="M 538 4863 
L 1656 4863 
L 1656 2216 
L 2944 3500 
L 4244 3500 
L 2534 1894 
L 4378 0 
L 3022 0 
L 1656 1459 
L 1656 0 
L 538 0 
L 538 4863 
z
" transform="scale(0.015625)"/>
       <path id="DejaVuSans-Bold-5d" d="M 2375 -844 
L 434 -844 
L 434 -141 
L 1313 -141 
L 1313 4159 
L 434 4159 
L 434 4863 
L 2375 4863 
L 2375 -844 
z
" transform="scale(0.015625)"/>
      </defs>
      <use xlink:href="#DejaVuSans-Bold-74"/>
      <use xlink:href="#DejaVuSans-Bold-69" transform="translate(47.802734 0)"/>
      <use xlink:href="#DejaVuSans-Bold-6d" transform="translate(82.080078 0)"/>
      <use xlink:href="#DejaVuSans-Bold-65" transform="translate(186.279297 0)"/>
      <use xlink:href="#DejaVuSans-Bold-20" transform="translate(254.101562 0)"/>
      <use xlink:href="#DejaVuSans-Bold-5b" transform="translate(288.916016 0)"/>
      <use xlink:href="#DejaVuSans-Bold-77" transform="translate(334.619141 0)"/>
      <use xlink:href="#DejaVuSans-Bold-65" transform="translate(427.001953 0)"/>
      <use xlink:href="#DejaVuSans-Bold-65" transform="translate(494.824219 0)"/>
      <use xlink:href="#DejaVuSans-Bold-6b" transform="translate(562.646484 0)"/>
      <use xlink:href="#DejaVuSans-Bold-5d" transform="translate(629.150391 0)"/>
     </g>
    </g>
   </g>
   <g id="matplotlib.axis_2">
    <g id="ytick_1">
     <g id="line2d_5">
      <defs>
       <path id="m60aa0a4275" d="M 0 0 
L -3.5 0 
" style="stroke: #000000; stroke-width: 0.8"/>
      </defs>
      <g>
       <use xlink:href="#m60aa0a4275" x="57.874531" y="316.350204" style="stroke: #000000; stroke-width: 0.8"/>
      </g>
     </g>
     <g id="text_6">
      <!-- −4 -->
      <g transform="translate(28.76125 322.049032) scale(0.15 -0.15)">
       <defs>
        <path id="DejaVuSans-2212" d="M 678 2272 
L 4684 2272 
L 4684 1741 
L 678 1741 
L 678 2272 
z
" transform="scale(0.015625)"/>
       </defs>
       <use xlink:href="#DejaVuSans-2212"/>
       <use xlink:href="#DejaVuSans-34" transform="translate(83.789062 0)"/>
      </g>
     </g>
    </g>
    <g id="ytick_2">
     <g id="line2d_6">
      <g>
       <use xlink:href="#m60aa0a4275" x="57.874531" y="256.237284" style="stroke: #000000; stroke-width: 0.8"/>
      </g>
     </g>
     <g id="text_7">
      <!-- −3 -->
      <g transform="translate(28.76125 261.936112) scale(0.15 -0.15)">
       <defs>
        <path id="DejaVuSans-33" d="M 2597 2516 
Q 3050 2419 3304 2112 
Q 3559 1806 3559 1356 
Q 3559 666 3084 287 
Q 2609 -91 1734 -91 
Q 1441 -91 1130 -33 
Q 819 25 488 141 
L 488 750 
Q 750 597 1062 519 
Q 1375 441 1716 441 
Q 2309 441 2620 675 
Q 2931 909 2931 1356 
Q 2931 1769 2642 2001 
Q 2353 2234 1838 2234 
L 1294 2234 
L 1294 2753 
L 1863 2753 
Q 2328 2753 2575 2939 
Q 2822 3125 2822 3475 
Q 2822 3834 2567 4026 
Q 2313 4219 1838 4219 
Q 1578 4219 1281 4162 
Q 984 4106 628 3988 
L 628 4550 
Q 988 4650 1302 4700 
Q 1616 4750 1894 4750 
Q 2613 4750 3031 4423 
Q 3450 4097 3450 3541 
Q 3450 3153 3228 2886 
Q 3006 2619 2597 2516 
z
" transform="scale(0.015625)"/>
       </defs>
       <use xlink:href="#DejaVuSans-2212"/>
       <use xlink:href="#DejaVuSans-33" transform="translate(83.789062 0)"/>
      </g>
     </g>
    </g>
    <g id="ytick_3">
     <g id="line2d_7">
      <g>
       <use xlink:href="#m60aa0a4275" x="57.874531" y="196.124364" style="stroke: #000000; stroke-width: 0.8"/>
      </g>
     </g>
     <g id="text_8">
      <!-- −2 -->
      <g transform="translate(28.76125 201.823192) scale(0.15 -0.15)">
       <use xlink:href="#DejaVuSans-2212"/>
       <use xlink:href="#DejaVuSans-32" transform="translate(83.789062 0)"/>
      </g>
     </g>
    </g>
    <g id="ytick_4">
     <g id="line2d_8">
      <g>
       <use xlink:href="#m60aa0a4275" x="57.874531" y="136.011443" style="stroke: #000000; stroke-width: 0.8"/>
      </g>
     </g>
     <g id="text_9">
      <!-- −1 -->
      <g transform="translate(28.76125 141.710272) scale(0.15 -0.15)">
       <defs>
        <path id="DejaVuSans-31" d="M 794 531 
L 1825 531 
L 1825 4091 
L 703 3866 
L 703 4441 
L 1819 4666 
L 2450 4666 
L 2450 531 
L 3481 531 
L 3481 0 
L 794 0 
L 794 531 
z
" transform="scale(0.015625)"/>
       </defs>
       <use xlink:href="#DejaVuSans-2212"/>
       <use xlink:href="#DejaVuSans-31" transform="translate(83.789062 0)"/>
      </g>
     </g>
    </g>
    <g id="ytick_5">
     <g id="line2d_9">
      <g>
       <use xlink:href="#m60aa0a4275" x="57.874531" y="75.898523" style="stroke: #000000; stroke-width: 0.8"/>
      </g>
     </g>
     <g id="text_10">
      <!-- 0 -->
      <g transform="translate(41.330781 81.597351) scale(0.15 -0.15)">
       <use xlink:href="#DejaVuSans-30"/>
      </g>
     </g>
    </g>
    <g id="text_11">
     <!-- FPG change [mM] -->
     <g transform="translate(20.877187 271.528594) rotate(-90) scale(0.18 -0.18)">
      <defs>
       <path id="DejaVuSans-Bold-46" d="M 588 4666 
L 3834 4666 
L 3834 3756 
L 1791 3756 
L 1791 2888 
L 3713 2888 
L 3713 1978 
L 1791 1978 
L 1791 0 
L 588 0 
L 588 4666 
z
" transform="scale(0.015625)"/>
       <path id="DejaVuSans-Bold-50" d="M 588 4666 
L 2584 4666 
Q 3475 4666 3951 4270 
Q 4428 3875 4428 3144 
Q 4428 2409 3951 2014 
Q 3475 1619 2584 1619 
L 1791 1619 
L 1791 0 
L 588 0 
L 588 4666 
z
M 1791 3794 
L 1791 2491 
L 2456 2491 
Q 2806 2491 2997 2661 
Q 3188 2831 3188 3144 
Q 3188 3456 2997 3625 
Q 2806 3794 2456 3794 
L 1791 3794 
z
" transform="scale(0.015625)"/>
       <path id="DejaVuSans-Bold-47" d="M 4781 347 
Q 4331 128 3847 18 
Q 3363 -91 2847 -91 
Q 1681 -91 1000 561 
Q 319 1213 319 2328 
Q 319 3456 1012 4103 
Q 1706 4750 2913 4750 
Q 3378 4750 3804 4662 
Q 4231 4575 4609 4403 
L 4609 3438 
Q 4219 3659 3833 3768 
Q 3447 3878 3059 3878 
Q 2341 3878 1952 3476 
Q 1563 3075 1563 2328 
Q 1563 1588 1938 1184 
Q 2313 781 3003 781 
Q 3191 781 3352 804 
Q 3513 828 3641 878 
L 3641 1784 
L 2906 1784 
L 2906 2591 
L 4781 2591 
L 4781 347 
z
" transform="scale(0.015625)"/>
       <path id="DejaVuSans-Bold-63" d="M 3366 3391 
L 3366 2478 
Q 3138 2634 2908 2709 
Q 2678 2784 2431 2784 
Q 1963 2784 1702 2511 
Q 1441 2238 1441 1747 
Q 1441 1256 1702 982 
Q 1963 709 2431 709 
Q 2694 709 2930 787 
Q 3166 866 3366 1019 
L 3366 103 
Q 3103 6 2833 -42 
Q 2563 -91 2291 -91 
Q 1344 -91 809 395 
Q 275 881 275 1747 
Q 275 2613 809 3098 
Q 1344 3584 2291 3584 
Q 2566 3584 2833 3536 
Q 3100 3488 3366 3391 
z
" transform="scale(0.015625)"/>
       <path id="DejaVuSans-Bold-68" d="M 4056 2131 
L 4056 0 
L 2931 0 
L 2931 347 
L 2931 1625 
Q 2931 2084 2911 2256 
Q 2891 2428 2841 2509 
Q 2775 2619 2662 2680 
Q 2550 2741 2406 2741 
Q 2056 2741 1856 2470 
Q 1656 2200 1656 1722 
L 1656 0 
L 538 0 
L 538 4863 
L 1656 4863 
L 1656 2988 
Q 1909 3294 2193 3439 
Q 2478 3584 2822 3584 
Q 3428 3584 3742 3212 
Q 4056 2841 4056 2131 
z
" transform="scale(0.015625)"/>
       <path id="DejaVuSans-Bold-61" d="M 2106 1575 
Q 1756 1575 1579 1456 
Q 1403 1338 1403 1106 
Q 1403 894 1545 773 
Q 1688 653 1941 653 
Q 2256 653 2472 879 
Q 2688 1106 2688 1447 
L 2688 1575 
L 2106 1575 
z
M 3816 1997 
L 3816 0 
L 2688 0 
L 2688 519 
Q 2463 200 2181 54 
Q 1900 -91 1497 -91 
Q 953 -91 614 226 
Q 275 544 275 1050 
Q 275 1666 698 1953 
Q 1122 2241 2028 2241 
L 2688 2241 
L 2688 2328 
Q 2688 2594 2478 2717 
Q 2269 2841 1825 2841 
Q 1466 2841 1156 2769 
Q 847 2697 581 2553 
L 581 3406 
Q 941 3494 1303 3539 
Q 1666 3584 2028 3584 
Q 2975 3584 3395 3211 
Q 3816 2838 3816 1997 
z
" transform="scale(0.015625)"/>
       <path id="DejaVuSans-Bold-6e" d="M 4056 2131 
L 4056 0 
L 2931 0 
L 2931 347 
L 2931 1631 
Q 2931 2084 2911 2256 
Q 2891 2428 2841 2509 
Q 2775 2619 2662 2680 
Q 2550 2741 2406 2741 
Q 2056 2741 1856 2470 
Q 1656 2200 1656 1722 
L 1656 0 
L 538 0 
L 538 3500 
L 1656 3500 
L 1656 2988 
Q 1909 3294 2193 3439 
Q 2478 3584 2822 3584 
Q 3428 3584 3742 3212 
Q 4056 2841 4056 2131 
z
" transform="scale(0.015625)"/>
       <path id="DejaVuSans-Bold-67" d="M 2919 594 
Q 2688 288 2409 144 
Q 2131 0 1766 0 
Q 1125 0 706 504 
Q 288 1009 288 1791 
Q 288 2575 706 3076 
Q 1125 3578 1766 3578 
Q 2131 3578 2409 3434 
Q 2688 3291 2919 2981 
L 2919 3500 
L 4044 3500 
L 4044 353 
Q 4044 -491 3511 -936 
Q 2978 -1381 1966 -1381 
Q 1638 -1381 1331 -1331 
Q 1025 -1281 716 -1178 
L 716 -306 
Q 1009 -475 1290 -558 
Q 1572 -641 1856 -641 
Q 2406 -641 2662 -400 
Q 2919 -159 2919 353 
L 2919 594 
z
M 2181 2772 
Q 1834 2772 1640 2515 
Q 1447 2259 1447 1791 
Q 1447 1309 1634 1061 
Q 1822 813 2181 813 
Q 2531 813 2725 1069 
Q 2919 1325 2919 1791 
Q 2919 2259 2725 2515 
Q 2531 2772 2181 2772 
z
" transform="scale(0.015625)"/>
       <path id="DejaVuSans-Bold-4d" d="M 588 4666 
L 2119 4666 
L 3181 2169 
L 4250 4666 
L 5778 4666 
L 5778 0 
L 4641 0 
L 4641 3413 
L 3566 897 
L 2803 897 
L 1728 3413 
L 1728 0 
L 588 0 
L 588 4666 
z
" transform="scale(0.015625)"/>
      </defs>
      <use xlink:href="#DejaVuSans-Bold-46"/>
      <use xlink:href="#DejaVuSans-Bold-50" transform="translate(68.310547 0)"/>
      <use xlink:href="#DejaVuSans-Bold-47" transform="translate(141.601562 0)"/>
      <use xlink:href="#DejaVuSans-Bold-20" transform="translate(223.681641 0)"/>
      <use xlink:href="#DejaVuSans-Bold-63" transform="translate(258.496094 0)"/>
      <use xlink:href="#DejaVuSans-Bold-68" transform="translate(317.773438 0)"/>
      <use xlink:href="#DejaVuSans-Bold-61" transform="translate(388.964844 0)"/>
      <use xlink:href="#DejaVuSans-Bold-6e" transform="translate(456.445312 0)"/>
      <use xlink:href="#DejaVuSans-Bold-67" transform="translate(527.636719 0)"/>
      <use xlink:href="#DejaVuSans-Bold-65" transform="translate(599.21875 0)"/>
      <use xlink:href="#DejaVuSans-Bold-20" transform="translate(667.041016 0)"/>
      <use xlink:href="#DejaVuSans-Bold-5b" transform="translate(701.855469 0)"/>
      <use xlink:href="#DejaVuSans-Bold-6d" transform="translate(747.558594 0)"/>
      <use xlink:href="#DejaVuSans-Bold-4d" transform="translate(851.757812 0)"/>
      <use xlink:href="#DejaVuSans-Bold-5d" transform="translate(951.269531 0)"/>
     </g>
    </g>
   </g>
   <g id="LineCollection_1">
    <path clip-path="url(#pc76ac32b94)" style="fill: none; stroke: #000000"/>
    <path d="M 92.21784 181.986349 
L 92.21784 73.117315 
" clip-path="url(#pc76ac32b94)" style="fill: none; stroke: #000000"/>
    <path d="M 224.549856 189.084421 
L 224.549856 82.142244 
" clip-path="url(#pc76ac32b94)" style="fill: none; stroke: #000000"/>
    <path d="M 256.057479 164.669078 
L 256.057479 55.8 
" clip-path="url(#pc76ac32b94)" style="fill: none; stroke: #000000"/>
   </g>
   <g id="LineCollection_2">
    <path clip-path="url(#pc76ac32b94)" style="fill: none; stroke: #1f77b4"/>
    <path d="M 92.21784 217.968813 
L 92.21784 105.806911 
" clip-path="url(#pc76ac32b94)" style="fill: none; stroke: #1f77b4"/>
    <path d="M 224.549856 227.224642 
L 224.549856 115.062693 
" clip-path="url(#pc76ac32b94)" style="fill: none; stroke: #1f77b4"/>
    <path d="M 256.057479 191.074304 
L 256.057479 81.943805 
" clip-path="url(#pc76ac32b94)" style="fill: none; stroke: #1f77b4"/>
   </g>
   <g id="LineCollection_3">
    <path clip-path="url(#pc76ac32b94)" style="fill: none; stroke: #2ca02c"/>
    <path d="M 92.21784 189.099043 
L 92.21784 77.947593 
" clip-path="url(#pc76ac32b94)" style="fill: none; stroke: #2ca02c"/>
    <path d="M 224.549856 261.331161 
L 224.549856 153.211068 
" clip-path="url(#pc76ac32b94)" style="fill: none; stroke: #2ca02c"/>
    <path d="M 256.057479 244.817641 
L 256.057479 135.687142 
" clip-path="url(#pc76ac32b94)" style="fill: none; stroke: #2ca02c"/>
   </g>
   <g id="LineCollection_4">
    <path clip-path="url(#pc76ac32b94)" style="fill: none; stroke: #d62728"/>
    <path d="M 92.21784 212.420933 
L 92.21784 108.36904 
" clip-path="url(#pc76ac32b94)" style="fill: none; stroke: #d62728"/>
    <path d="M 224.549856 274.110331 
L 224.549856 169.095011 
" clip-path="url(#pc76ac32b94)" style="fill: none; stroke: #d62728"/>
    <path d="M 256.057479 253.759561 
L 256.057479 145.854 
" clip-path="url(#pc76ac32b94)" style="fill: none; stroke: #d62728"/>
   </g>
   <g id="line2d_10">
    <path d="M 73.313266 75.898523 
L 382.08797 75.898523 
L 382.08797 75.898523 
" clip-path="url(#pc76ac32b94)" style="fill: none; stroke: #000000; stroke-width: 2; stroke-linecap: square"/>
   </g>
   <g id="line2d_11">
    <path d="M 73.313266 75.898523 
L 92.21784 127.551832 
L 224.549856 135.613332 
L 256.057479 110.234539 
" clip-path="url(#pc76ac32b94)" style="fill: none; stroke-dasharray: 3.7,1.6; stroke-dashoffset: 0; stroke: #000000"/>
    <defs>
     <path id="m41e9bf529a" d="M -3 3 
L 3 3 
L 3 -3 
L -3 -3 
z
" style="stroke: #000000; stroke-linejoin: miter"/>
    </defs>
    <g clip-path="url(#pc76ac32b94)">
     <use xlink:href="#m41e9bf529a" x="73.313266" y="75.898523" style="stroke: #000000; stroke-linejoin: miter"/>
     <use xlink:href="#m41e9bf529a" x="92.21784" y="127.551832" style="stroke: #000000; stroke-linejoin: miter"/>
     <use xlink:href="#m41e9bf529a" x="224.549856" y="135.613332" style="stroke: #000000; stroke-linejoin: miter"/>
     <use xlink:href="#m41e9bf529a" x="256.057479" y="110.234539" style="stroke: #000000; stroke-linejoin: miter"/>
    </g>
   </g>
   <g id="line2d_12">
    <path d="M 73.313266 75.898523 
L 74.813029 76.009112 
L 76.577456 76.369421 
L 78.78299 77.058174 
L 81.958958 78.306524 
L 91.883859 82.34547 
L 95.942041 83.683428 
L 100.000223 84.787008 
L 104.278958 85.716035 
L 108.910579 86.489652 
L 114.115638 87.12824 
L 119.541251 87.794371 
L 121.614452 88.41769 
L 124.481646 89.530602 
L 136.612081 94.492528 
L 140.626152 95.760469 
L 144.684334 96.807967 
L 149.007179 97.691063 
L 153.727021 98.425351 
L 159.108523 99.031945 
L 163.519591 99.556587 
L 165.636903 100.15381 
L 168.548207 101.227904 
L 180.899195 106.037384 
L 185.001488 107.260621 
L 189.192002 108.274174 
L 193.647179 109.119018 
L 198.587575 109.823441 
L 204.233741 110.39634 
L 207.45382 110.771474 
L 209.571132 111.323577 
L 212.438326 112.318804 
L 225.583306 117.164353 
L 229.77382 118.321278 
L 234.052555 119.27101 
L 238.684176 120.068056 
L 243.845124 120.725432 
L 249.844176 121.257636 
L 251.608602 121.510086 
L 253.770025 122.053659 
L 256.769551 123.05622 
L 269.252871 127.467279 
L 273.531606 128.615065 
L 277.898563 129.554929 
L 282.618405 130.3396 
L 287.867575 130.982517 
L 293.998958 131.502414 
L 295.807496 131.756663 
L 298.05714 132.308126 
L 301.233108 133.336454 
L 312.701883 137.230269 
L 317.06884 138.379823 
L 321.524017 139.320479 
L 326.28797 140.096566 
L 331.625361 140.735754 
L 337.800855 141.245464 
L 339.785836 141.484769 
L 342.079591 142.010634 
L 345.29967 143.00041 
L 356.944887 146.763973 
L 361.400065 147.873035 
L 365.987575 148.782477 
L 370.92797 149.530218 
L 376.485915 150.139838 
L 382.08797 150.566792 
L 382.08797 150.566792 
" clip-path="url(#pc76ac32b94)" style="fill: none; stroke: #1f77b4; stroke-width: 2; stroke-linecap: square"/>
   </g>
   <g id="line2d_13">
    <path d="M 73.313266 75.898523 
L 92.21784 161.887862 
L 224.549856 171.143668 
L 256.057479 136.509055 
" clip-path="url(#pc76ac32b94)" style="fill: none; stroke-dasharray: 3.7,1.6; stroke-dashoffset: 0; stroke: #1f77b4"/>
    <defs>
     <path id="m9d767d8857" d="M -3 3 
L 3 3 
L 3 -3 
L -3 -3 
z
" style="stroke: #000000; stroke-linejoin: miter"/>
    </defs>
    <g clip-path="url(#pc76ac32b94)">
     <use xlink:href="#m9d767d8857" x="73.313266" y="75.898523" style="fill: #1f77b4; stroke: #000000; stroke-linejoin: miter"/>
     <use xlink:href="#m9d767d8857" x="92.21784" y="161.887862" style="fill: #1f77b4; stroke: #000000; stroke-linejoin: miter"/>
     <use xlink:href="#m9d767d8857" x="224.549856" y="171.143668" style="fill: #1f77b4; stroke: #000000; stroke-linejoin: miter"/>
     <use xlink:href="#m9d767d8857" x="256.057479" y="136.509055" style="fill: #1f77b4; stroke: #000000; stroke-linejoin: miter"/>
    </g>
   </g>
   <g id="line2d_14">
    <path d="M 73.313266 75.898523 
L 74.327812 76.014497 
L 75.430579 76.370024 
L 76.709788 77.019701 
L 78.297772 78.089719 
L 80.370974 79.775072 
L 83.899828 82.983049 
L 88.928444 87.496684 
L 92.104413 90.041854 
L 95.059828 92.129814 
L 97.971132 93.915198 
L 100.926547 95.464863 
L 103.970183 96.808309 
L 107.190262 97.983652 
L 110.630895 99.000332 
L 114.380302 99.874823 
L 118.967812 100.917698 
L 120.291132 101.620508 
L 121.923227 102.75069 
L 124.12876 104.571911 
L 128.407496 108.468969 
L 132.59801 112.155744 
L 135.773978 114.653106 
L 138.729393 116.695778 
L 141.640697 118.438739 
L 144.596112 119.949085 
L 147.683859 121.273933 
L 150.948049 122.427539 
L 154.432792 123.42057 
L 158.270421 124.279031 
L 163.210816 125.356112 
L 164.622357 126.084914 
L 166.386784 127.264728 
L 168.812871 129.180249 
L 178.649551 137.226609 
L 181.737298 139.320293 
L 184.736824 141.084842 
L 187.736349 142.592871 
L 190.868207 143.916222 
L 194.132397 145.053983 
L 197.661251 146.046785 
L 201.54299 146.903304 
L 207.586152 148.173628 
L 209.085915 148.942527 
L 210.982674 150.177389 
L 213.761646 152.27928 
L 221.436903 158.20103 
L 224.656982 160.342424 
L 227.744729 162.130592 
L 230.832476 163.660726 
L 234.008444 164.984099 
L 237.316745 166.121919 
L 240.889709 167.113619 
L 244.815559 167.967622 
L 249.182515 168.686178 
L 250.991053 169.050186 
L 252.402594 169.615764 
L 254.122911 170.555272 
L 256.460776 172.107185 
L 261.401172 175.740503 
L 265.547575 178.640168 
L 268.855875 180.68464 
L 272.031844 182.386118 
L 275.207812 183.834205 
L 278.472002 185.078151 
L 281.956745 186.16438 
L 285.706152 187.095804 
L 289.852555 187.891332 
L 295.851606 188.994178 
L 297.483701 189.734281 
L 299.556903 190.932909 
L 302.821093 193.112242 
L 309.173029 197.3681 
L 312.613662 199.380191 
L 315.877851 201.032219 
L 319.142041 202.434169 
L 322.494452 203.632686 
L 326.067417 204.672383 
L 329.949156 205.566406 
L 334.227891 206.320694 
L 339.918168 207.291266 
L 341.594373 207.995748 
L 343.755796 209.16322 
L 347.196428 211.310794 
L 353.283701 215.102379 
L 356.812555 217.020199 
L 360.164966 218.589856 
L 363.517377 219.914646 
L 367.00212 221.052561 
L 370.707417 222.028255 
L 374.765598 222.864562 
L 379.308998 223.569671 
L 382.08797 223.904739 
L 382.08797 223.904739 
" clip-path="url(#pc76ac32b94)" style="fill: none; stroke: #2ca02c; stroke-width: 2; stroke-linecap: square"/>
   </g>
   <g id="line2d_15">
    <path d="M 73.313266 75.898523 
L 92.21784 133.523318 
L 224.549856 207.271115 
L 256.057479 190.252391 
" clip-path="url(#pc76ac32b94)" style="fill: none; stroke-dasharray: 3.7,1.6; stroke-dashoffset: 0; stroke: #2ca02c"/>
    <defs>
     <path id="m939cbac510" d="M -3 3 
L 3 3 
L 3 -3 
L -3 -3 
z
" style="stroke: #000000; stroke-linejoin: miter"/>
    </defs>
    <g clip-path="url(#pc76ac32b94)">
     <use xlink:href="#m939cbac510" x="73.313266" y="75.898523" style="fill: #2ca02c; stroke: #000000; stroke-linejoin: miter"/>
     <use xlink:href="#m939cbac510" x="92.21784" y="133.523318" style="fill: #2ca02c; stroke: #000000; stroke-linejoin: miter"/>
     <use xlink:href="#m939cbac510" x="224.549856" y="207.271115" style="fill: #2ca02c; stroke: #000000; stroke-linejoin: miter"/>
     <use xlink:href="#m939cbac510" x="256.057479" y="190.252391" style="fill: #2ca02c; stroke: #000000; stroke-linejoin: miter"/>
    </g>
   </g>
   <g id="line2d_16">
    <path d="M 73.313266 75.898523 
L 74.063148 76.014947 
L 74.85714 76.368809 
L 75.783464 77.037306 
L 76.886231 78.128973 
L 78.209551 79.769842 
L 79.929867 82.284875 
L 82.444176 86.402449 
L 89.457772 98.071595 
L 92.236745 102.170575 
L 94.795164 105.561114 
L 97.265361 108.475869 
L 99.735559 111.047937 
L 102.205757 113.298039 
L 104.720065 115.285051 
L 107.278484 117.024176 
L 109.925124 118.557423 
L 112.748207 119.933193 
L 115.747733 121.143421 
L 118.482594 122.249366 
L 119.49714 123.052257 
L 120.688128 124.289566 
L 122.187891 126.186735 
L 124.216982 129.146349 
L 127.966389 135.101573 
L 132.068681 141.465816 
L 134.935875 145.509189 
L 137.582515 148.862012 
L 140.096824 151.694458 
L 142.567021 154.14995 
L 145.08133 156.335488 
L 147.595638 158.230206 
L 150.198168 159.915617 
L 152.933029 161.4193 
L 155.800223 162.739973 
L 158.843859 163.897376 
L 162.946152 165.421339 
L 164.093029 166.312081 
L 165.46046 167.672317 
L 167.224887 169.763785 
L 169.827417 173.235872 
L 176.752792 182.61414 
L 179.619986 186.049503 
L 182.310737 188.929925 
L 184.913266 191.39144 
L 187.471685 193.511031 
L 190.074215 195.382618 
L 192.764966 197.043545 
L 195.543938 198.498767 
L 198.499353 199.793527 
L 201.631211 200.922481 
L 205.071844 201.921847 
L 206.659828 202.444963 
L 207.762594 203.10344 
L 209.085915 204.160439 
L 210.76212 205.801467 
L 213.099986 208.432359 
L 222.230895 219.014627 
L 225.098089 221.838522 
L 227.83295 224.220188 
L 230.523701 226.2696 
L 233.258563 228.071276 
L 236.037535 229.63687 
L 238.94884 231.021881 
L 242.036587 232.242585 
L 245.344887 233.309342 
L 248.961962 234.238949 
L 250.858721 234.780092 
L 252.049709 235.421675 
L 253.505361 236.471793 
L 255.35801 238.102277 
L 258.092871 240.83948 
L 265.106468 247.962606 
L 268.150104 250.679199 
L 271.017298 252.944137 
L 273.840381 254.891141 
L 276.663464 256.570576 
L 279.574768 258.04571 
L 282.618405 259.339786 
L 285.882594 260.483352 
L 289.411448 261.479614 
L 293.293187 262.339433 
L 295.013504 262.782246 
L 296.292713 263.394639 
L 297.880697 264.418443 
L 299.909788 266.010175 
L 303.173978 268.893834 
L 308.776033 273.827222 
L 311.996112 276.350362 
L 314.995638 278.422154 
L 317.951053 280.194548 
L 320.950579 281.733711 
L 324.038326 283.069216 
L 327.302515 284.238995 
L 330.831369 285.264229 
L 334.668998 286.144927 
L 339.785836 287.283827 
L 341.285598 288.030846 
L 343.182357 289.235764 
L 345.917219 291.261311 
L 354.077693 297.443881 
L 357.341883 299.56056 
L 360.473741 301.32675 
L 363.605598 302.837513 
L 366.825677 304.144267 
L 370.222199 305.282047 
L 373.883385 306.271316 
L 377.897456 307.121736 
L 382.08797 307.8 
L 382.08797 307.8 
" clip-path="url(#pc76ac32b94)" style="fill: none; stroke: #d62728; stroke-width: 2; stroke-linecap: square"/>
   </g>
   <g id="line2d_17">
    <path d="M 73.313266 75.898523 
L 92.21784 160.394987 
L 224.549856 221.602671 
L 256.057479 199.806781 
" clip-path="url(#pc76ac32b94)" style="fill: none; stroke-dasharray: 3.7,1.6; stroke-dashoffset: 0; stroke: #d62728"/>
    <defs>
     <path id="m4515565852" d="M -3 3 
L 3 3 
L 3 -3 
L -3 -3 
z
" style="stroke: #000000; stroke-linejoin: miter"/>
    </defs>
    <g clip-path="url(#pc76ac32b94)">
     <use xlink:href="#m4515565852" x="73.313266" y="75.898523" style="fill: #d62728; stroke: #000000; stroke-linejoin: miter"/>
     <use xlink:href="#m4515565852" x="92.21784" y="160.394987" style="fill: #d62728; stroke: #000000; stroke-linejoin: miter"/>
     <use xlink:href="#m4515565852" x="224.549856" y="221.602671" style="fill: #d62728; stroke: #000000; stroke-linejoin: miter"/>
     <use xlink:href="#m4515565852" x="256.057479" y="199.806781" style="fill: #d62728; stroke: #000000; stroke-linejoin: miter"/>
    </g>
   </g>
   <g id="patch_3">
    <path d="M 57.874531 320.4 
L 57.874531 43.2 
" style="fill: none; stroke: #000000; stroke-width: 0.8; stroke-linejoin: miter; stroke-linecap: square"/>
   </g>
   <g id="patch_4">
    <path d="M 397.526705 320.4 
L 397.526705 43.2 
" style="fill: none; stroke: #000000; stroke-width: 0.8; stroke-linejoin: miter; stroke-linecap: square"/>
   </g>
   <g id="patch_5">
    <path d="M 57.874531 320.4 
L 397.526705 320.4 
" style="fill: none; stroke: #000000; stroke-width: 0.8; stroke-linejoin: miter; stroke-linecap: square"/>
   </g>
   <g id="patch_6">
    <path d="M 57.874531 43.2 
L 397.526705 43.2 
" style="fill: none; stroke: #000000; stroke-width: 0.8; stroke-linejoin: miter; stroke-linecap: square"/>
   </g>
   <g id="legend_1">
    <g id="patch_7">
     <path d="M 64.874531 315.4 
L 206.032344 315.4 
Q 208.032344 315.4 208.032344 313.4 
L 208.032344 196.975 
Q 208.032344 194.975 206.032344 194.975 
L 64.874531 194.975 
Q 62.874531 194.975 62.874531 196.975 
L 62.874531 313.4 
Q 62.874531 315.4 64.874531 315.4 
z
" style="fill: #ffffff; opacity: 0.8; stroke: #cccccc; stroke-linejoin: miter"/>
    </g>
    <g id="line2d_18">
     <path d="M 66.874531 203.073438 
L 86.874531 203.073438 
" style="fill: none; stroke: #000000; stroke-width: 2; stroke-linecap: square"/>
    </g>
    <g id="line2d_19"/>
    <g id="text_12">
     <!-- DULPLAM -->
     <g transform="translate(94.874531 206.573438) scale(0.1 -0.1)">
      <defs>
       <path id="DejaVuSans-44" d="M 1259 4147 
L 1259 519 
L 2022 519 
Q 2988 519 3436 956 
Q 3884 1394 3884 2338 
Q 3884 3275 3436 3711 
Q 2988 4147 2022 4147 
L 1259 4147 
z
M 628 4666 
L 1925 4666 
Q 3281 4666 3915 4102 
Q 4550 3538 4550 2338 
Q 4550 1131 3912 565 
Q 3275 0 1925 0 
L 628 0 
L 628 4666 
z
" transform="scale(0.015625)"/>
       <path id="DejaVuSans-55" d="M 556 4666 
L 1191 4666 
L 1191 1831 
Q 1191 1081 1462 751 
Q 1734 422 2344 422 
Q 2950 422 3222 751 
Q 3494 1081 3494 1831 
L 3494 4666 
L 4128 4666 
L 4128 1753 
Q 4128 841 3676 375 
Q 3225 -91 2344 -91 
Q 1459 -91 1007 375 
Q 556 841 556 1753 
L 556 4666 
z
" transform="scale(0.015625)"/>
       <path id="DejaVuSans-4c" d="M 628 4666 
L 1259 4666 
L 1259 531 
L 3531 531 
L 3531 0 
L 628 0 
L 628 4666 
z
" transform="scale(0.015625)"/>
       <path id="DejaVuSans-50" d="M 1259 4147 
L 1259 2394 
L 2053 2394 
Q 2494 2394 2734 2622 
Q 2975 2850 2975 3272 
Q 2975 3691 2734 3919 
Q 2494 4147 2053 4147 
L 1259 4147 
z
M 628 4666 
L 2053 4666 
Q 2838 4666 3239 4311 
Q 3641 3956 3641 3272 
Q 3641 2581 3239 2228 
Q 2838 1875 2053 1875 
L 1259 1875 
L 1259 0 
L 628 0 
L 628 4666 
z
" transform="scale(0.015625)"/>
       <path id="DejaVuSans-41" d="M 2188 4044 
L 1331 1722 
L 3047 1722 
L 2188 4044 
z
M 1831 4666 
L 2547 4666 
L 4325 0 
L 3669 0 
L 3244 1197 
L 1141 1197 
L 716 0 
L 50 0 
L 1831 4666 
z
" transform="scale(0.015625)"/>
       <path id="DejaVuSans-4d" d="M 628 4666 
L 1569 4666 
L 2759 1491 
L 3956 4666 
L 4897 4666 
L 4897 0 
L 4281 0 
L 4281 4097 
L 3078 897 
L 2444 897 
L 1241 4097 
L 1241 0 
L 628 0 
L 628 4666 
z
" transform="scale(0.015625)"/>
      </defs>
      <use xlink:href="#DejaVuSans-44"/>
      <use xlink:href="#DejaVuSans-55" transform="translate(77.001953 0)"/>
      <use xlink:href="#DejaVuSans-4c" transform="translate(150.195312 0)"/>
      <use xlink:href="#DejaVuSans-50" transform="translate(205.908203 0)"/>
      <use xlink:href="#DejaVuSans-4c" transform="translate(266.210938 0)"/>
      <use xlink:href="#DejaVuSans-41" transform="translate(324.173828 0)"/>
      <use xlink:href="#DejaVuSans-4d" transform="translate(392.582031 0)"/>
     </g>
    </g>
    <g id="LineCollection_5">
     <path d="M 76.874531 222.751563 
L 76.874531 212.751563 
" style="fill: none; stroke: #000000"/>
    </g>
    <g id="line2d_20">
     <path d="M 66.874531 217.751563 
L 86.874531 217.751563 
" style="fill: none; stroke-dasharray: 3.7,1.6; stroke-dashoffset: 0; stroke: #000000"/>
    </g>
    <g id="line2d_21">
     <g>
      <use xlink:href="#m41e9bf529a" x="76.874531" y="217.751563" style="stroke: #000000; stroke-linejoin: miter"/>
     </g>
    </g>
    <g id="text_13">
     <!-- DULPLAM±SD (n=10) -->
     <g transform="translate(94.874531 221.251563) scale(0.1 -0.1)">
      <defs>
       <path id="DejaVuSans-b1" d="M 2944 4013 
L 2944 2803 
L 4684 2803 
L 4684 2272 
L 2944 2272 
L 2944 1063 
L 2419 1063 
L 2419 2272 
L 678 2272 
L 678 2803 
L 2419 2803 
L 2419 4013 
L 2944 4013 
z
M 678 531 
L 4684 531 
L 4684 0 
L 678 0 
L 678 531 
z
" transform="scale(0.015625)"/>
       <path id="DejaVuSans-53" d="M 3425 4513 
L 3425 3897 
Q 3066 4069 2747 4153 
Q 2428 4238 2131 4238 
Q 1616 4238 1336 4038 
Q 1056 3838 1056 3469 
Q 1056 3159 1242 3001 
Q 1428 2844 1947 2747 
L 2328 2669 
Q 3034 2534 3370 2195 
Q 3706 1856 3706 1288 
Q 3706 609 3251 259 
Q 2797 -91 1919 -91 
Q 1588 -91 1214 -16 
Q 841 59 441 206 
L 441 856 
Q 825 641 1194 531 
Q 1563 422 1919 422 
Q 2459 422 2753 634 
Q 3047 847 3047 1241 
Q 3047 1584 2836 1778 
Q 2625 1972 2144 2069 
L 1759 2144 
Q 1053 2284 737 2584 
Q 422 2884 422 3419 
Q 422 4038 858 4394 
Q 1294 4750 2059 4750 
Q 2388 4750 2728 4690 
Q 3069 4631 3425 4513 
z
" transform="scale(0.015625)"/>
       <path id="DejaVuSans-20" transform="scale(0.015625)"/>
       <path id="DejaVuSans-28" d="M 1984 4856 
Q 1566 4138 1362 3434 
Q 1159 2731 1159 2009 
Q 1159 1288 1364 580 
Q 1569 -128 1984 -844 
L 1484 -844 
Q 1016 -109 783 600 
Q 550 1309 550 2009 
Q 550 2706 781 3412 
Q 1013 4119 1484 4856 
L 1984 4856 
z
" transform="scale(0.015625)"/>
       <path id="DejaVuSans-6e" d="M 3513 2113 
L 3513 0 
L 2938 0 
L 2938 2094 
Q 2938 2591 2744 2837 
Q 2550 3084 2163 3084 
Q 1697 3084 1428 2787 
Q 1159 2491 1159 1978 
L 1159 0 
L 581 0 
L 581 3500 
L 1159 3500 
L 1159 2956 
Q 1366 3272 1645 3428 
Q 1925 3584 2291 3584 
Q 2894 3584 3203 3211 
Q 3513 2838 3513 2113 
z
" transform="scale(0.015625)"/>
       <path id="DejaVuSans-3d" d="M 678 2906 
L 4684 2906 
L 4684 2381 
L 678 2381 
L 678 2906 
z
M 678 1631 
L 4684 1631 
L 4684 1100 
L 678 1100 
L 678 1631 
z
" transform="scale(0.015625)"/>
       <path id="DejaVuSans-29" d="M 513 4856 
L 1013 4856 
Q 1481 4119 1714 3412 
Q 1947 2706 1947 2009 
Q 1947 1309 1714 600 
Q 1481 -109 1013 -844 
L 513 -844 
Q 928 -128 1133 580 
Q 1338 1288 1338 2009 
Q 1338 2731 1133 3434 
Q 928 4138 513 4856 
z
" transform="scale(0.015625)"/>
      </defs>
      <use xlink:href="#DejaVuSans-44"/>
      <use xlink:href="#DejaVuSans-55" transform="translate(77.001953 0)"/>
      <use xlink:href="#DejaVuSans-4c" transform="translate(150.195312 0)"/>
      <use xlink:href="#DejaVuSans-50" transform="translate(205.908203 0)"/>
      <use xlink:href="#DejaVuSans-4c" transform="translate(266.210938 0)"/>
      <use xlink:href="#DejaVuSans-41" transform="translate(324.173828 0)"/>
      <use xlink:href="#DejaVuSans-4d" transform="translate(392.582031 0)"/>
      <use xlink:href="#DejaVuSans-b1" transform="translate(478.861328 0)"/>
      <use xlink:href="#DejaVuSans-53" transform="translate(562.650391 0)"/>
      <use xlink:href="#DejaVuSans-44" transform="translate(626.126953 0)"/>
      <use xlink:href="#DejaVuSans-20" transform="translate(703.128906 0)"/>
      <use xlink:href="#DejaVuSans-28" transform="translate(734.916016 0)"/>
      <use xlink:href="#DejaVuSans-6e" transform="translate(773.929688 0)"/>
      <use xlink:href="#DejaVuSans-3d" transform="translate(837.308594 0)"/>
      <use xlink:href="#DejaVuSans-31" transform="translate(921.097656 0)"/>
      <use xlink:href="#DejaVuSans-30" transform="translate(984.720703 0)"/>
      <use xlink:href="#DejaVuSans-29" transform="translate(1048.34375 0)"/>
     </g>
    </g>
    <g id="line2d_22">
     <path d="M 66.874531 232.429688 
L 86.874531 232.429688 
" style="fill: none; stroke: #1f77b4; stroke-width: 2; stroke-linecap: square"/>
    </g>
    <g id="line2d_23"/>
    <g id="text_14">
     <!-- DUL05M -->
     <g transform="translate(94.874531 235.929688) scale(0.1 -0.1)">
      <defs>
       <path id="DejaVuSans-35" d="M 691 4666 
L 3169 4666 
L 3169 4134 
L 1269 4134 
L 1269 2991 
Q 1406 3038 1543 3061 
Q 1681 3084 1819 3084 
Q 2600 3084 3056 2656 
Q 3513 2228 3513 1497 
Q 3513 744 3044 326 
Q 2575 -91 1722 -91 
Q 1428 -91 1123 -41 
Q 819 9 494 109 
L 494 744 
Q 775 591 1075 516 
Q 1375 441 1709 441 
Q 2250 441 2565 725 
Q 2881 1009 2881 1497 
Q 2881 1984 2565 2268 
Q 2250 2553 1709 2553 
Q 1456 2553 1204 2497 
Q 953 2441 691 2322 
L 691 4666 
z
" transform="scale(0.015625)"/>
      </defs>
      <use xlink:href="#DejaVuSans-44"/>
      <use xlink:href="#DejaVuSans-55" transform="translate(77.001953 0)"/>
      <use xlink:href="#DejaVuSans-4c" transform="translate(150.195312 0)"/>
      <use xlink:href="#DejaVuSans-30" transform="translate(205.908203 0)"/>
      <use xlink:href="#DejaVuSans-35" transform="translate(269.53125 0)"/>
      <use xlink:href="#DejaVuSans-4d" transform="translate(333.154297 0)"/>
     </g>
    </g>
    <g id="LineCollection_6">
     <path d="M 76.874531 252.107813 
L 76.874531 242.107813 
" style="fill: none; stroke: #1f77b4"/>
    </g>
    <g id="line2d_24">
     <path d="M 66.874531 247.107813 
L 86.874531 247.107813 
" style="fill: none; stroke-dasharray: 3.7,1.6; stroke-dashoffset: 0; stroke: #1f77b4"/>
    </g>
    <g id="line2d_25">
     <g>
      <use xlink:href="#m9d767d8857" x="76.874531" y="247.107813" style="fill: #1f77b4; stroke: #000000; stroke-linejoin: miter"/>
     </g>
    </g>
    <g id="text_15">
     <!-- DUL05M±SD (n=11) -->
     <g transform="translate(94.874531 250.607813) scale(0.1 -0.1)">
      <use xlink:href="#DejaVuSans-44"/>
      <use xlink:href="#DejaVuSans-55" transform="translate(77.001953 0)"/>
      <use xlink:href="#DejaVuSans-4c" transform="translate(150.195312 0)"/>
      <use xlink:href="#DejaVuSans-30" transform="translate(205.908203 0)"/>
      <use xlink:href="#DejaVuSans-35" transform="translate(269.53125 0)"/>
      <use xlink:href="#DejaVuSans-4d" transform="translate(333.154297 0)"/>
      <use xlink:href="#DejaVuSans-b1" transform="translate(419.433594 0)"/>
      <use xlink:href="#DejaVuSans-53" transform="translate(503.222656 0)"/>
      <use xlink:href="#DejaVuSans-44" transform="translate(566.699219 0)"/>
      <use xlink:href="#DejaVuSans-20" transform="translate(643.701172 0)"/>
      <use xlink:href="#DejaVuSans-28" transform="translate(675.488281 0)"/>
      <use xlink:href="#DejaVuSans-6e" transform="translate(714.501953 0)"/>
      <use xlink:href="#DejaVuSans-3d" transform="translate(777.880859 0)"/>
      <use xlink:href="#DejaVuSans-31" transform="translate(861.669922 0)"/>
      <use xlink:href="#DejaVuSans-31" transform="translate(925.292969 0)"/>
      <use xlink:href="#DejaVuSans-29" transform="translate(988.916016 0)"/>
     </g>
    </g>
    <g id="line2d_26">
     <path d="M 66.874531 261.785938 
L 86.874531 261.785938 
" style="fill: none; stroke: #2ca02c; stroke-width: 2; stroke-linecap: square"/>
    </g>
    <g id="line2d_27"/>
    <g id="text_16">
     <!-- DUL075M -->
     <g transform="translate(94.874531 265.285938) scale(0.1 -0.1)">
      <defs>
       <path id="DejaVuSans-37" d="M 525 4666 
L 3525 4666 
L 3525 4397 
L 1831 0 
L 1172 0 
L 2766 4134 
L 525 4134 
L 525 4666 
z
" transform="scale(0.015625)"/>
      </defs>
      <use xlink:href="#DejaVuSans-44"/>
      <use xlink:href="#DejaVuSans-55" transform="translate(77.001953 0)"/>
      <use xlink:href="#DejaVuSans-4c" transform="translate(150.195312 0)"/>
      <use xlink:href="#DejaVuSans-30" transform="translate(205.908203 0)"/>
      <use xlink:href="#DejaVuSans-37" transform="translate(269.53125 0)"/>
      <use xlink:href="#DejaVuSans-35" transform="translate(333.154297 0)"/>
      <use xlink:href="#DejaVuSans-4d" transform="translate(396.777344 0)"/>
     </g>
    </g>
    <g id="LineCollection_7">
     <path d="M 76.874531 281.464063 
L 76.874531 271.464063 
" style="fill: none; stroke: #2ca02c"/>
    </g>
    <g id="line2d_28">
     <path d="M 66.874531 276.464063 
L 86.874531 276.464063 
" style="fill: none; stroke-dasharray: 3.7,1.6; stroke-dashoffset: 0; stroke: #2ca02c"/>
    </g>
    <g id="line2d_29">
     <g>
      <use xlink:href="#m939cbac510" x="76.874531" y="276.464063" style="fill: #2ca02c; stroke: #000000; stroke-linejoin: miter"/>
     </g>
    </g>
    <g id="text_17">
     <!-- DUL075M±SD (n=11) -->
     <g transform="translate(94.874531 279.964063) scale(0.1 -0.1)">
      <use xlink:href="#DejaVuSans-44"/>
      <use xlink:href="#DejaVuSans-55" transform="translate(77.001953 0)"/>
      <use xlink:href="#DejaVuSans-4c" transform="translate(150.195312 0)"/>
      <use xlink:href="#DejaVuSans-30" transform="translate(205.908203 0)"/>
      <use xlink:href="#DejaVuSans-37" transform="translate(269.53125 0)"/>
      <use xlink:href="#DejaVuSans-35" transform="translate(333.154297 0)"/>
      <use xlink:href="#DejaVuSans-4d" transform="translate(396.777344 0)"/>
      <use xlink:href="#DejaVuSans-b1" transform="translate(483.056641 0)"/>
      <use xlink:href="#DejaVuSans-53" transform="translate(566.845703 0)"/>
      <use xlink:href="#DejaVuSans-44" transform="translate(630.322266 0)"/>
      <use xlink:href="#DejaVuSans-20" transform="translate(707.324219 0)"/>
      <use xlink:href="#DejaVuSans-28" transform="translate(739.111328 0)"/>
      <use xlink:href="#DejaVuSans-6e" transform="translate(778.125 0)"/>
      <use xlink:href="#DejaVuSans-3d" transform="translate(841.503906 0)"/>
      <use xlink:href="#DejaVuSans-31" transform="translate(925.292969 0)"/>
      <use xlink:href="#DejaVuSans-31" transform="translate(988.916016 0)"/>
      <use xlink:href="#DejaVuSans-29" transform="translate(1052.539062 0)"/>
     </g>
    </g>
    <g id="line2d_30">
     <path d="M 66.874531 291.142187 
L 86.874531 291.142187 
" style="fill: none; stroke: #d62728; stroke-width: 2; stroke-linecap: square"/>
    </g>
    <g id="line2d_31"/>
    <g id="text_18">
     <!-- DUL15M -->
     <g transform="translate(94.874531 294.642187) scale(0.1 -0.1)">
      <use xlink:href="#DejaVuSans-44"/>
      <use xlink:href="#DejaVuSans-55" transform="translate(77.001953 0)"/>
      <use xlink:href="#DejaVuSans-4c" transform="translate(150.195312 0)"/>
      <use xlink:href="#DejaVuSans-31" transform="translate(205.908203 0)"/>
      <use xlink:href="#DejaVuSans-35" transform="translate(269.53125 0)"/>
      <use xlink:href="#DejaVuSans-4d" transform="translate(333.154297 0)"/>
     </g>
    </g>
    <g id="LineCollection_8">
     <path d="M 76.874531 310.820312 
L 76.874531 300.820312 
" style="fill: none; stroke: #d62728"/>
    </g>
    <g id="line2d_32">
     <path d="M 66.874531 305.820312 
L 86.874531 305.820312 
" style="fill: none; stroke-dasharray: 3.7,1.6; stroke-dashoffset: 0; stroke: #d62728"/>
    </g>
    <g id="line2d_33">
     <g>
      <use xlink:href="#m4515565852" x="76.874531" y="305.820312" style="fill: #d62728; stroke: #000000; stroke-linejoin: miter"/>
     </g>
    </g>
    <g id="text_19">
     <!-- DUL15M±SD (n=10) -->
     <g transform="translate(94.874531 309.320312) scale(0.1 -0.1)">
      <use xlink:href="#DejaVuSans-44"/>
      <use xlink:href="#DejaVuSans-55" transform="translate(77.001953 0)"/>
      <use xlink:href="#DejaVuSans-4c" transform="translate(150.195312 0)"/>
      <use xlink:href="#DejaVuSans-31" transform="translate(205.908203 0)"/>
      <use xlink:href="#DejaVuSans-35" transform="translate(269.53125 0)"/>
      <use xlink:href="#DejaVuSans-4d" transform="translate(333.154297 0)"/>
      <use xlink:href="#DejaVuSans-b1" transform="translate(419.433594 0)"/>
      <use xlink:href="#DejaVuSans-53" transform="translate(503.222656 0)"/>
      <use xlink:href="#DejaVuSans-44" transform="translate(566.699219 0)"/>
      <use xlink:href="#DejaVuSans-20" transform="translate(643.701172 0)"/>
      <use xlink:href="#DejaVuSans-28" transform="translate(675.488281 0)"/>
      <use xlink:href="#DejaVuSans-6e" transform="translate(714.501953 0)"/>
      <use xlink:href="#DejaVuSans-3d" transform="translate(777.880859 0)"/>
      <use xlink:href="#DejaVuSans-31" transform="translate(861.669922 0)"/>
      <use xlink:href="#DejaVuSans-30" transform="translate(925.292969 0)"/>
      <use xlink:href="#DejaVuSans-29" transform="translate(988.916016 0)"/>
     </g>
    </g>
   </g>
  </g>
  <g id="axes_2">
   <g id="patch_8">
    <path d="M 499.422357 320.4 
L 839.074531 320.4 
L 839.074531 43.2 
L 499.422357 43.2 
z
" style="fill: #ffffff"/>
   </g>
   <g id="matplotlib.axis_3">
    <g id="xtick_5">
     <g id="line2d_34">
      <g>
       <use xlink:href="#mf1190092e8" x="514.861093" y="320.4" style="stroke: #000000; stroke-width: 0.8"/>
      </g>
     </g>
     <g id="text_20">
      <!-- 0 -->
      <g transform="translate(510.089218 338.797656) scale(0.15 -0.15)">
       <use xlink:href="#DejaVuSans-30"/>
      </g>
     </g>
    </g>
    <g id="xtick_6">
     <g id="line2d_35">
      <g>
       <use xlink:href="#mf1190092e8" x="603.082436" y="320.4" style="stroke: #000000; stroke-width: 0.8"/>
      </g>
     </g>
     <g id="text_21">
      <!-- 2 -->
      <g transform="translate(598.310561 338.797656) scale(0.15 -0.15)">
       <use xlink:href="#DejaVuSans-32"/>
      </g>
     </g>
    </g>
    <g id="xtick_7">
     <g id="line2d_36">
      <g>
       <use xlink:href="#mf1190092e8" x="691.30378" y="320.4" style="stroke: #000000; stroke-width: 0.8"/>
      </g>
     </g>
     <g id="text_22">
      <!-- 4 -->
      <g transform="translate(686.531905 338.797656) scale(0.15 -0.15)">
       <use xlink:href="#DejaVuSans-34"/>
      </g>
     </g>
    </g>
    <g id="xtick_8">
     <g id="line2d_37">
      <g>
       <use xlink:href="#mf1190092e8" x="779.525124" y="320.4" style="stroke: #000000; stroke-width: 0.8"/>
      </g>
     </g>
     <g id="text_23">
      <!-- 6 -->
      <g transform="translate(774.753249 338.797656) scale(0.15 -0.15)">
       <use xlink:href="#DejaVuSans-36"/>
      </g>
     </g>
    </g>
    <g id="text_24">
     <!-- time [week] -->
     <g transform="translate(608.509694 359.594375) scale(0.18 -0.18)">
      <use xlink:href="#DejaVuSans-Bold-74"/>
      <use xlink:href="#DejaVuSans-Bold-69" transform="translate(47.802734 0)"/>
      <use xlink:href="#DejaVuSans-Bold-6d" transform="translate(82.080078 0)"/>
      <use xlink:href="#DejaVuSans-Bold-65" transform="translate(186.279297 0)"/>
      <use xlink:href="#DejaVuSans-Bold-20" transform="translate(254.101562 0)"/>
      <use xlink:href="#DejaVuSans-Bold-5b" transform="translate(288.916016 0)"/>
      <use xlink:href="#DejaVuSans-Bold-77" transform="translate(334.619141 0)"/>
      <use xlink:href="#DejaVuSans-Bold-65" transform="translate(427.001953 0)"/>
      <use xlink:href="#DejaVuSans-Bold-65" transform="translate(494.824219 0)"/>
      <use xlink:href="#DejaVuSans-Bold-6b" transform="translate(562.646484 0)"/>
      <use xlink:href="#DejaVuSans-Bold-5d" transform="translate(629.150391 0)"/>
     </g>
    </g>
   </g>
   <g id="matplotlib.axis_4">
    <g id="ytick_6">
     <g id="line2d_38">
      <g>
       <use xlink:href="#m60aa0a4275" x="499.422357" y="300.243255" style="stroke: #000000; stroke-width: 0.8"/>
      </g>
     </g>
     <g id="text_25">
      <!-- −1.5 -->
      <g transform="translate(455.998139 305.942083) scale(0.15 -0.15)">
       <defs>
        <path id="DejaVuSans-2e" d="M 684 794 
L 1344 794 
L 1344 0 
L 684 0 
L 684 794 
z
" transform="scale(0.015625)"/>
       </defs>
       <use xlink:href="#DejaVuSans-2212"/>
       <use xlink:href="#DejaVuSans-31" transform="translate(83.789062 0)"/>
       <use xlink:href="#DejaVuSans-2e" transform="translate(147.412109 0)"/>
       <use xlink:href="#DejaVuSans-35" transform="translate(179.199219 0)"/>
      </g>
     </g>
    </g>
    <g id="ytick_7">
     <g id="line2d_39">
      <g>
       <use xlink:href="#m60aa0a4275" x="499.422357" y="244.987705" style="stroke: #000000; stroke-width: 0.8"/>
      </g>
     </g>
     <g id="text_26">
      <!-- −1.0 -->
      <g transform="translate(455.998139 250.686533) scale(0.15 -0.15)">
       <use xlink:href="#DejaVuSans-2212"/>
       <use xlink:href="#DejaVuSans-31" transform="translate(83.789062 0)"/>
       <use xlink:href="#DejaVuSans-2e" transform="translate(147.412109 0)"/>
       <use xlink:href="#DejaVuSans-30" transform="translate(179.199219 0)"/>
      </g>
     </g>
    </g>
    <g id="ytick_8">
     <g id="line2d_40">
      <g>
       <use xlink:href="#m60aa0a4275" x="499.422357" y="189.732155" style="stroke: #000000; stroke-width: 0.8"/>
      </g>
     </g>
     <g id="text_27">
      <!-- −0.5 -->
      <g transform="translate(455.998139 195.430983) scale(0.15 -0.15)">
       <use xlink:href="#DejaVuSans-2212"/>
       <use xlink:href="#DejaVuSans-30" transform="translate(83.789062 0)"/>
       <use xlink:href="#DejaVuSans-2e" transform="translate(147.412109 0)"/>
       <use xlink:href="#DejaVuSans-35" transform="translate(179.199219 0)"/>
      </g>
     </g>
    </g>
    <g id="ytick_9">
     <g id="line2d_41">
      <g>
       <use xlink:href="#m60aa0a4275" x="499.422357" y="134.476605" style="stroke: #000000; stroke-width: 0.8"/>
      </g>
     </g>
     <g id="text_28">
      <!-- 0.0 -->
      <g transform="translate(468.56767 140.175433) scale(0.15 -0.15)">
       <use xlink:href="#DejaVuSans-30"/>
       <use xlink:href="#DejaVuSans-2e" transform="translate(63.623047 0)"/>
       <use xlink:href="#DejaVuSans-30" transform="translate(95.410156 0)"/>
      </g>
     </g>
    </g>
    <g id="ytick_10">
     <g id="line2d_42">
      <g>
       <use xlink:href="#m60aa0a4275" x="499.422357" y="79.221054" style="stroke: #000000; stroke-width: 0.8"/>
      </g>
     </g>
     <g id="text_29">
      <!-- 0.5 -->
      <g transform="translate(468.56767 84.919883) scale(0.15 -0.15)">
       <use xlink:href="#DejaVuSans-30"/>
       <use xlink:href="#DejaVuSans-2e" transform="translate(63.623047 0)"/>
       <use xlink:href="#DejaVuSans-35" transform="translate(95.410156 0)"/>
      </g>
     </g>
    </g>
    <g id="text_30">
     <!-- HbA1c change [percent] -->
     <g transform="translate(448.114076 304.731562) rotate(-90) scale(0.18 -0.18)">
      <defs>
       <path id="DejaVuSans-Bold-48" d="M 588 4666 
L 1791 4666 
L 1791 2888 
L 3566 2888 
L 3566 4666 
L 4769 4666 
L 4769 0 
L 3566 0 
L 3566 1978 
L 1791 1978 
L 1791 0 
L 588 0 
L 588 4666 
z
" transform="scale(0.015625)"/>
       <path id="DejaVuSans-Bold-62" d="M 2400 722 
Q 2759 722 2948 984 
Q 3138 1247 3138 1747 
Q 3138 2247 2948 2509 
Q 2759 2772 2400 2772 
Q 2041 2772 1848 2508 
Q 1656 2244 1656 1747 
Q 1656 1250 1848 986 
Q 2041 722 2400 722 
z
M 1656 2988 
Q 1888 3294 2169 3439 
Q 2450 3584 2816 3584 
Q 3463 3584 3878 3070 
Q 4294 2556 4294 1747 
Q 4294 938 3878 423 
Q 3463 -91 2816 -91 
Q 2450 -91 2169 54 
Q 1888 200 1656 506 
L 1656 0 
L 538 0 
L 538 4863 
L 1656 4863 
L 1656 2988 
z
" transform="scale(0.015625)"/>
       <path id="DejaVuSans-Bold-41" d="M 3419 850 
L 1538 850 
L 1241 0 
L 31 0 
L 1759 4666 
L 3194 4666 
L 4922 0 
L 3713 0 
L 3419 850 
z
M 1838 1716 
L 3116 1716 
L 2478 3572 
L 1838 1716 
z
" transform="scale(0.015625)"/>
       <path id="DejaVuSans-Bold-31" d="M 750 831 
L 1813 831 
L 1813 3847 
L 722 3622 
L 722 4441 
L 1806 4666 
L 2950 4666 
L 2950 831 
L 4013 831 
L 4013 0 
L 750 0 
L 750 831 
z
" transform="scale(0.015625)"/>
       <path id="DejaVuSans-Bold-70" d="M 1656 506 
L 1656 -1331 
L 538 -1331 
L 538 3500 
L 1656 3500 
L 1656 2988 
Q 1888 3294 2169 3439 
Q 2450 3584 2816 3584 
Q 3463 3584 3878 3070 
Q 4294 2556 4294 1747 
Q 4294 938 3878 423 
Q 3463 -91 2816 -91 
Q 2450 -91 2169 54 
Q 1888 200 1656 506 
z
M 2400 2772 
Q 2041 2772 1848 2508 
Q 1656 2244 1656 1747 
Q 1656 1250 1848 986 
Q 2041 722 2400 722 
Q 2759 722 2948 984 
Q 3138 1247 3138 1747 
Q 3138 2247 2948 2509 
Q 2759 2772 2400 2772 
z
" transform="scale(0.015625)"/>
       <path id="DejaVuSans-Bold-72" d="M 3138 2547 
Q 2991 2616 2845 2648 
Q 2700 2681 2553 2681 
Q 2122 2681 1889 2404 
Q 1656 2128 1656 1613 
L 1656 0 
L 538 0 
L 538 3500 
L 1656 3500 
L 1656 2925 
Q 1872 3269 2151 3426 
Q 2431 3584 2822 3584 
Q 2878 3584 2943 3579 
Q 3009 3575 3134 3559 
L 3138 2547 
z
" transform="scale(0.015625)"/>
      </defs>
      <use xlink:href="#DejaVuSans-Bold-48"/>
      <use xlink:href="#DejaVuSans-Bold-62" transform="translate(83.691406 0)"/>
      <use xlink:href="#DejaVuSans-Bold-41" transform="translate(155.273438 0)"/>
      <use xlink:href="#DejaVuSans-Bold-31" transform="translate(232.666016 0)"/>
      <use xlink:href="#DejaVuSans-Bold-63" transform="translate(302.246094 0)"/>
      <use xlink:href="#DejaVuSans-Bold-20" transform="translate(361.523438 0)"/>
      <use xlink:href="#DejaVuSans-Bold-63" transform="translate(396.337891 0)"/>
      <use xlink:href="#DejaVuSans-Bold-68" transform="translate(455.615234 0)"/>
      <use xlink:href="#DejaVuSans-Bold-61" transform="translate(526.806641 0)"/>
      <use xlink:href="#DejaVuSans-Bold-6e" transform="translate(594.287109 0)"/>
      <use xlink:href="#DejaVuSans-Bold-67" transform="translate(665.478516 0)"/>
      <use xlink:href="#DejaVuSans-Bold-65" transform="translate(737.060547 0)"/>
      <use xlink:href="#DejaVuSans-Bold-20" transform="translate(804.882812 0)"/>
      <use xlink:href="#DejaVuSans-Bold-5b" transform="translate(839.697266 0)"/>
      <use xlink:href="#DejaVuSans-Bold-70" transform="translate(885.400391 0)"/>
      <use xlink:href="#DejaVuSans-Bold-65" transform="translate(956.982422 0)"/>
      <use xlink:href="#DejaVuSans-Bold-72" transform="translate(1024.804688 0)"/>
      <use xlink:href="#DejaVuSans-Bold-63" transform="translate(1074.121094 0)"/>
      <use xlink:href="#DejaVuSans-Bold-65" transform="translate(1133.398438 0)"/>
      <use xlink:href="#DejaVuSans-Bold-6e" transform="translate(1201.220703 0)"/>
      <use xlink:href="#DejaVuSans-Bold-74" transform="translate(1272.412109 0)"/>
      <use xlink:href="#DejaVuSans-Bold-5d" transform="translate(1320.214844 0)"/>
     </g>
    </g>
   </g>
   <g id="LineCollection_9">
    <path clip-path="url(#pe78706db20)" style="fill: none; stroke: #000000"/>
    <path d="M 697.605305 216.939954 
L 697.605305 109.479027 
" clip-path="url(#pe78706db20)" style="fill: none; stroke: #000000"/>
    <path d="M 785.826649 226.153058 
L 785.826649 120.157922 
" clip-path="url(#pe78706db20)" style="fill: none; stroke: #000000"/>
   </g>
   <g id="LineCollection_10">
    <path clip-path="url(#pe78706db20)" style="fill: none; stroke: #1f77b4"/>
    <path d="M 697.605305 249.580078 
L 697.605305 140.935342 
" clip-path="url(#pe78706db20)" style="fill: none; stroke: #1f77b4"/>
    <path d="M 785.826649 251.300955 
L 785.826649 139.214465 
" clip-path="url(#pe78706db20)" style="fill: none; stroke: #1f77b4"/>
   </g>
   <g id="LineCollection_11">
    <path clip-path="url(#pe78706db20)" style="fill: none; stroke: #2ca02c"/>
    <path d="M 697.605305 259.331026 
L 697.605305 151.076391 
" clip-path="url(#pe78706db20)" style="fill: none; stroke: #2ca02c"/>
    <path d="M 785.826649 290.113537 
L 785.826649 182.180097 
" clip-path="url(#pe78706db20)" style="fill: none; stroke: #2ca02c"/>
   </g>
   <g id="LineCollection_12">
    <path clip-path="url(#pe78706db20)" style="fill: none; stroke: #d62728"/>
    <path d="M 697.605305 302.438558 
L 697.605305 196.37774 
" clip-path="url(#pe78706db20)" style="fill: none; stroke: #d62728"/>
    <path d="M 785.826649 307.8 
L 785.826649 202.067408 
" clip-path="url(#pe78706db20)" style="fill: none; stroke: #d62728"/>
   </g>
   <g id="line2d_43">
    <path d="M 514.861093 134.476605 
L 537.401646 127.448201 
L 560.250974 120.556938 
L 583.453187 113.791894 
L 607.008286 107.155843 
L 630.960381 100.639481 
L 655.309472 94.24625 
L 680.055559 87.979271 
L 705.198642 81.841332 
L 730.782832 75.824733 
L 756.852239 69.922982 
L 783.406863 64.140161 
L 810.446705 58.479944 
L 823.635796 55.8 
L 823.635796 55.8 
" clip-path="url(#pe78706db20)" style="fill: none; stroke: #000000; stroke-width: 2; stroke-linecap: square"/>
   </g>
   <g id="line2d_44">
    <path d="M 514.861093 134.476605 
L 697.605305 163.209491 
L 785.826649 173.15549 
" clip-path="url(#pe78706db20)" style="fill: none; stroke-dasharray: 3.7,1.6; stroke-dashoffset: 0; stroke: #000000"/>
    <g clip-path="url(#pe78706db20)">
     <use xlink:href="#m41e9bf529a" x="514.861093" y="134.476605" style="stroke: #000000; stroke-linejoin: miter"/>
     <use xlink:href="#m41e9bf529a" x="697.605305" y="163.209491" style="stroke: #000000; stroke-linejoin: miter"/>
     <use xlink:href="#m41e9bf529a" x="785.826649" y="173.15549" style="stroke: #000000; stroke-linejoin: miter"/>
    </g>
   </g>
   <g id="line2d_45">
    <path d="M 514.861093 134.476605 
L 530.079274 130.437673 
L 544.635796 126.824456 
L 563.162278 122.465862 
L 576.924808 119.430115 
L 592.672318 116.198615 
L 612.036903 112.454147 
L 626.461093 109.895065 
L 644.899353 106.865784 
L 662.278958 104.207854 
L 678.688128 101.951128 
L 700.170025 99.229616 
L 715.829314 97.469934 
L 737.046547 95.329397 
L 753.720381 93.82789 
L 773.129077 92.328071 
L 794.875638 90.853227 
L 814.01967 89.814625 
L 823.635796 89.348639 
L 823.635796 89.348639 
" clip-path="url(#pe78706db20)" style="fill: none; stroke: #1f77b4; stroke-width: 2; stroke-linecap: square"/>
   </g>
   <g id="line2d_46">
    <path d="M 514.861093 134.476605 
L 697.605305 195.25771 
L 785.826649 195.25771 
" clip-path="url(#pe78706db20)" style="fill: none; stroke-dasharray: 3.7,1.6; stroke-dashoffset: 0; stroke: #1f77b4"/>
    <g clip-path="url(#pe78706db20)">
     <use xlink:href="#m9d767d8857" x="514.861093" y="134.476605" style="fill: #1f77b4; stroke: #000000; stroke-linejoin: miter"/>
     <use xlink:href="#m9d767d8857" x="697.605305" y="195.25771" style="fill: #1f77b4; stroke: #000000; stroke-linejoin: miter"/>
     <use xlink:href="#m9d767d8857" x="785.826649" y="195.25771" style="fill: #1f77b4; stroke: #000000; stroke-linejoin: miter"/>
    </g>
   </g>
   <g id="line2d_47">
    <path d="M 514.861093 134.476605 
L 526.50631 130.10002 
L 536.519432 126.590946 
L 548.429314 122.663033 
L 563.29461 118.002212 
L 573.351844 115.058629 
L 584.070737 112.162859 
L 597.568602 108.759074 
L 612.213345 105.283257 
L 622.711685 103.035 
L 635.283227 100.581675 
L 651.91295 97.574135 
L 662.852397 95.797081 
L 675.071053 94.049895 
L 691.656666 91.919081 
L 704.492871 90.449244 
L 716.799749 89.283075 
L 733.605915 87.931771 
L 748.515322 86.918187 
L 761.572081 86.281758 
L 780.230895 85.61652 
L 794.213978 85.288884 
L 808.594057 85.197782 
L 823.635796 85.249963 
L 823.635796 85.249963 
" clip-path="url(#pe78706db20)" style="fill: none; stroke: #2ca02c; stroke-width: 2; stroke-linecap: square"/>
   </g>
   <g id="line2d_48">
    <path d="M 514.861093 134.476605 
L 697.605305 205.203709 
L 785.826649 236.146817 
" clip-path="url(#pe78706db20)" style="fill: none; stroke-dasharray: 3.7,1.6; stroke-dashoffset: 0; stroke: #2ca02c"/>
    <g clip-path="url(#pe78706db20)">
     <use xlink:href="#m939cbac510" x="514.861093" y="134.476605" style="fill: #2ca02c; stroke: #000000; stroke-linejoin: miter"/>
     <use xlink:href="#m939cbac510" x="697.605305" y="205.203709" style="fill: #2ca02c; stroke: #000000; stroke-linejoin: miter"/>
     <use xlink:href="#m939cbac510" x="785.826649" y="236.146817" style="fill: #2ca02c; stroke: #000000; stroke-linejoin: miter"/>
    </g>
   </g>
   <g id="line2d_49">
    <path d="M 514.861093 134.476605 
L 524.56544 130.940861 
L 532.152476 128.42787 
L 540.577614 125.879136 
L 550.767179 123.03857 
L 563.426942 119.74665 
L 571.410974 117.881172 
L 579.571448 116.208754 
L 589.231685 114.464341 
L 601.847338 112.425426 
L 612.742674 110.854706 
L 621.344255 109.857332 
L 631.357377 108.929551 
L 644.6788 107.93317 
L 657.250342 107.186035 
L 666.690025 106.870289 
L 678.1588 106.721635 
L 694.56797 106.750197 
L 705.022199 106.949717 
L 716.049867 107.395253 
L 731.31216 108.25373 
L 747.192002 109.341448 
L 758.969551 110.403236 
L 775.775717 112.165017 
L 792.890658 114.147388 
L 806.520855 115.99056 
L 823.635796 118.484665 
L 823.635796 118.484665 
" clip-path="url(#pe78706db20)" style="fill: none; stroke: #d62728; stroke-width: 2; stroke-linecap: square"/>
   </g>
   <g id="line2d_50">
    <path d="M 514.861093 134.476605 
L 697.605305 249.408149 
L 785.826649 254.933704 
" clip-path="url(#pe78706db20)" style="fill: none; stroke-dasharray: 3.7,1.6; stroke-dashoffset: 0; stroke: #d62728"/>
    <g clip-path="url(#pe78706db20)">
     <use xlink:href="#m4515565852" x="514.861093" y="134.476605" style="fill: #d62728; stroke: #000000; stroke-linejoin: miter"/>
     <use xlink:href="#m4515565852" x="697.605305" y="249.408149" style="fill: #d62728; stroke: #000000; stroke-linejoin: miter"/>
     <use xlink:href="#m4515565852" x="785.826649" y="254.933704" style="fill: #d62728; stroke: #000000; stroke-linejoin: miter"/>
    </g>
   </g>
   <g id="patch_9">
    <path d="M 499.422357 320.4 
L 499.422357 43.2 
" style="fill: none; stroke: #000000; stroke-width: 0.8; stroke-linejoin: miter; stroke-linecap: square"/>
   </g>
   <g id="patch_10">
    <path d="M 839.074531 320.4 
L 839.074531 43.2 
" style="fill: none; stroke: #000000; stroke-width: 0.8; stroke-linejoin: miter; stroke-linecap: square"/>
   </g>
   <g id="patch_11">
    <path d="M 499.422357 320.4 
L 839.074531 320.4 
" style="fill: none; stroke: #000000; stroke-width: 0.8; stroke-linejoin: miter; stroke-linecap: square"/>
   </g>
   <g id="patch_12">
    <path d="M 499.422357 43.2 
L 839.074531 43.2 
" style="fill: none; stroke: #000000; stroke-width: 0.8; stroke-linejoin: miter; stroke-linecap: square"/>
   </g>
   <g id="legend_2">
    <g id="patch_13">
     <path d="M 506.422357 315.4 
L 647.58017 315.4 
Q 649.58017 315.4 649.58017 313.4 
L 649.58017 196.975 
Q 649.58017 194.975 647.58017 194.975 
L 506.422357 194.975 
Q 504.422357 194.975 504.422357 196.975 
L 504.422357 313.4 
Q 504.422357 315.4 506.422357 315.4 
z
" style="fill: #ffffff; opacity: 0.8; stroke: #cccccc; stroke-linejoin: miter"/>
    </g>
    <g id="line2d_51">
     <path d="M 508.422357 203.073438 
L 528.422357 203.073438 
" style="fill: none; stroke: #000000; stroke-width: 2; stroke-linecap: square"/>
    </g>
    <g id="line2d_52"/>
    <g id="text_31">
     <!-- DULPLAM -->
     <g transform="translate(536.422357 206.573438) scale(0.1 -0.1)">
      <use xlink:href="#DejaVuSans-44"/>
      <use xlink:href="#DejaVuSans-55" transform="translate(77.001953 0)"/>
      <use xlink:href="#DejaVuSans-4c" transform="translate(150.195312 0)"/>
      <use xlink:href="#DejaVuSans-50" transform="translate(205.908203 0)"/>
      <use xlink:href="#DejaVuSans-4c" transform="translate(266.210938 0)"/>
      <use xlink:href="#DejaVuSans-41" transform="translate(324.173828 0)"/>
      <use xlink:href="#DejaVuSans-4d" transform="translate(392.582031 0)"/>
     </g>
    </g>
    <g id="LineCollection_13">
     <path d="M 518.422357 222.751563 
L 518.422357 212.751563 
" style="fill: none; stroke: #000000"/>
    </g>
    <g id="line2d_53">
     <path d="M 508.422357 217.751563 
L 528.422357 217.751563 
" style="fill: none; stroke-dasharray: 3.7,1.6; stroke-dashoffset: 0; stroke: #000000"/>
    </g>
    <g id="line2d_54">
     <g>
      <use xlink:href="#m41e9bf529a" x="518.422357" y="217.751563" style="stroke: #000000; stroke-linejoin: miter"/>
     </g>
    </g>
    <g id="text_32">
     <!-- DULPLAM±SD (n=10) -->
     <g transform="translate(536.422357 221.251563) scale(0.1 -0.1)">
      <use xlink:href="#DejaVuSans-44"/>
      <use xlink:href="#DejaVuSans-55" transform="translate(77.001953 0)"/>
      <use xlink:href="#DejaVuSans-4c" transform="translate(150.195312 0)"/>
      <use xlink:href="#DejaVuSans-50" transform="translate(205.908203 0)"/>
      <use xlink:href="#DejaVuSans-4c" transform="translate(266.210938 0)"/>
      <use xlink:href="#DejaVuSans-41" transform="translate(324.173828 0)"/>
      <use xlink:href="#DejaVuSans-4d" transform="translate(392.582031 0)"/>
      <use xlink:href="#DejaVuSans-b1" transform="translate(478.861328 0)"/>
      <use xlink:href="#DejaVuSans-53" transform="translate(562.650391 0)"/>
      <use xlink:href="#DejaVuSans-44" transform="translate(626.126953 0)"/>
      <use xlink:href="#DejaVuSans-20" transform="translate(703.128906 0)"/>
      <use xlink:href="#DejaVuSans-28" transform="translate(734.916016 0)"/>
      <use xlink:href="#DejaVuSans-6e" transform="translate(773.929688 0)"/>
      <use xlink:href="#DejaVuSans-3d" transform="translate(837.308594 0)"/>
      <use xlink:href="#DejaVuSans-31" transform="translate(921.097656 0)"/>
      <use xlink:href="#DejaVuSans-30" transform="translate(984.720703 0)"/>
      <use xlink:href="#DejaVuSans-29" transform="translate(1048.34375 0)"/>
     </g>
    </g>
    <g id="line2d_55">
     <path d="M 508.422357 232.429688 
L 528.422357 232.429688 
" style="fill: none; stroke: #1f77b4; stroke-width: 2; stroke-linecap: square"/>
    </g>
    <g id="line2d_56"/>
    <g id="text_33">
     <!-- DUL05M -->
     <g transform="translate(536.422357 235.929688) scale(0.1 -0.1)">
      <use xlink:href="#DejaVuSans-44"/>
      <use xlink:href="#DejaVuSans-55" transform="translate(77.001953 0)"/>
      <use xlink:href="#DejaVuSans-4c" transform="translate(150.195312 0)"/>
      <use xlink:href="#DejaVuSans-30" transform="translate(205.908203 0)"/>
      <use xlink:href="#DejaVuSans-35" transform="translate(269.53125 0)"/>
      <use xlink:href="#DejaVuSans-4d" transform="translate(333.154297 0)"/>
     </g>
    </g>
    <g id="LineCollection_14">
     <path d="M 518.422357 252.107813 
L 518.422357 242.107813 
" style="fill: none; stroke: #1f77b4"/>
    </g>
    <g id="line2d_57">
     <path d="M 508.422357 247.107813 
L 528.422357 247.107813 
" style="fill: none; stroke-dasharray: 3.7,1.6; stroke-dashoffset: 0; stroke: #1f77b4"/>
    </g>
    <g id="line2d_58">
     <g>
      <use xlink:href="#m9d767d8857" x="518.422357" y="247.107813" style="fill: #1f77b4; stroke: #000000; stroke-linejoin: miter"/>
     </g>
    </g>
    <g id="text_34">
     <!-- DUL05M±SD (n=11) -->
     <g transform="translate(536.422357 250.607813) scale(0.1 -0.1)">
      <use xlink:href="#DejaVuSans-44"/>
      <use xlink:href="#DejaVuSans-55" transform="translate(77.001953 0)"/>
      <use xlink:href="#DejaVuSans-4c" transform="translate(150.195312 0)"/>
      <use xlink:href="#DejaVuSans-30" transform="translate(205.908203 0)"/>
      <use xlink:href="#DejaVuSans-35" transform="translate(269.53125 0)"/>
      <use xlink:href="#DejaVuSans-4d" transform="translate(333.154297 0)"/>
      <use xlink:href="#DejaVuSans-b1" transform="translate(419.433594 0)"/>
      <use xlink:href="#DejaVuSans-53" transform="translate(503.222656 0)"/>
      <use xlink:href="#DejaVuSans-44" transform="translate(566.699219 0)"/>
      <use xlink:href="#DejaVuSans-20" transform="translate(643.701172 0)"/>
      <use xlink:href="#DejaVuSans-28" transform="translate(675.488281 0)"/>
      <use xlink:href="#DejaVuSans-6e" transform="translate(714.501953 0)"/>
      <use xlink:href="#DejaVuSans-3d" transform="translate(777.880859 0)"/>
      <use xlink:href="#DejaVuSans-31" transform="translate(861.669922 0)"/>
      <use xlink:href="#DejaVuSans-31" transform="translate(925.292969 0)"/>
      <use xlink:href="#DejaVuSans-29" transform="translate(988.916016 0)"/>
     </g>
    </g>
    <g id="line2d_59">
     <path d="M 508.422357 261.785938 
L 528.422357 261.785938 
" style="fill: none; stroke: #2ca02c; stroke-width: 2; stroke-linecap: square"/>
    </g>
    <g id="line2d_60"/>
    <g id="text_35">
     <!-- DUL075M -->
     <g transform="translate(536.422357 265.285938) scale(0.1 -0.1)">
      <use xlink:href="#DejaVuSans-44"/>
      <use xlink:href="#DejaVuSans-55" transform="translate(77.001953 0)"/>
      <use xlink:href="#DejaVuSans-4c" transform="translate(150.195312 0)"/>
      <use xlink:href="#DejaVuSans-30" transform="translate(205.908203 0)"/>
      <use xlink:href="#DejaVuSans-37" transform="translate(269.53125 0)"/>
      <use xlink:href="#DejaVuSans-35" transform="translate(333.154297 0)"/>
      <use xlink:href="#DejaVuSans-4d" transform="translate(396.777344 0)"/>
     </g>
    </g>
    <g id="LineCollection_15">
     <path d="M 518.422357 281.464063 
L 518.422357 271.464063 
" style="fill: none; stroke: #2ca02c"/>
    </g>
    <g id="line2d_61">
     <path d="M 508.422357 276.464063 
L 528.422357 276.464063 
" style="fill: none; stroke-dasharray: 3.7,1.6; stroke-dashoffset: 0; stroke: #2ca02c"/>
    </g>
    <g id="line2d_62">
     <g>
      <use xlink:href="#m939cbac510" x="518.422357" y="276.464063" style="fill: #2ca02c; stroke: #000000; stroke-linejoin: miter"/>
     </g>
    </g>
    <g id="text_36">
     <!-- DUL075M±SD (n=11) -->
     <g transform="translate(536.422357 279.964063) scale(0.1 -0.1)">
      <use xlink:href="#DejaVuSans-44"/>
      <use xlink:href="#DejaVuSans-55" transform="translate(77.001953 0)"/>
      <use xlink:href="#DejaVuSans-4c" transform="translate(150.195312 0)"/>
      <use xlink:href="#DejaVuSans-30" transform="translate(205.908203 0)"/>
      <use xlink:href="#DejaVuSans-37" transform="translate(269.53125 0)"/>
      <use xlink:href="#DejaVuSans-35" transform="translate(333.154297 0)"/>
      <use xlink:href="#DejaVuSans-4d" transform="translate(396.777344 0)"/>
      <use xlink:href="#DejaVuSans-b1" transform="translate(483.056641 0)"/>
      <use xlink:href="#DejaVuSans-53" transform="translate(566.845703 0)"/>
      <use xlink:href="#DejaVuSans-44" transform="translate(630.322266 0)"/>
      <use xlink:href="#DejaVuSans-20" transform="translate(707.324219 0)"/>
      <use xlink:href="#DejaVuSans-28" transform="translate(739.111328 0)"/>
      <use xlink:href="#DejaVuSans-6e" transform="translate(778.125 0)"/>
      <use xlink:href="#DejaVuSans-3d" transform="translate(841.503906 0)"/>
      <use xlink:href="#DejaVuSans-31" transform="translate(925.292969 0)"/>
      <use xlink:href="#DejaVuSans-31" transform="translate(988.916016 0)"/>
      <use xlink:href="#DejaVuSans-29" transform="translate(1052.539062 0)"/>
     </g>
    </g>
    <g id="line2d_63">
     <path d="M 508.422357 291.142187 
L 528.422357 291.142187 
" style="fill: none; stroke: #d62728; stroke-width: 2; stroke-linecap: square"/>
    </g>
    <g id="line2d_64"/>
    <g id="text_37">
     <!-- DUL15M -->
     <g transform="translate(536.422357 294.642187) scale(0.1 -0.1)">
      <use xlink:href="#DejaVuSans-44"/>
      <use xlink:href="#DejaVuSans-55" transform="translate(77.001953 0)"/>
      <use xlink:href="#DejaVuSans-4c" transform="translate(150.195312 0)"/>
      <use xlink:href="#DejaVuSans-31" transform="translate(205.908203 0)"/>
      <use xlink:href="#DejaVuSans-35" transform="translate(269.53125 0)"/>
      <use xlink:href="#DejaVuSans-4d" transform="translate(333.154297 0)"/>
     </g>
    </g>
    <g id="LineCollection_16">
     <path d="M 518.422357 310.820312 
L 518.422357 300.820312 
" style="fill: none; stroke: #d62728"/>
    </g>
    <g id="line2d_65">
     <path d="M 508.422357 305.820312 
L 528.422357 305.820312 
" style="fill: none; stroke-dasharray: 3.7,1.6; stroke-dashoffset: 0; stroke: #d62728"/>
    </g>
    <g id="line2d_66">
     <g>
      <use xlink:href="#m4515565852" x="518.422357" y="305.820312" style="fill: #d62728; stroke: #000000; stroke-linejoin: miter"/>
     </g>
    </g>
    <g id="text_38">
     <!-- DUL15M±SD (n=10) -->
     <g transform="translate(536.422357 309.320312) scale(0.1 -0.1)">
      <use xlink:href="#DejaVuSans-44"/>
      <use xlink:href="#DejaVuSans-55" transform="translate(77.001953 0)"/>
      <use xlink:href="#DejaVuSans-4c" transform="translate(150.195312 0)"/>
      <use xlink:href="#DejaVuSans-31" transform="translate(205.908203 0)"/>
      <use xlink:href="#DejaVuSans-35" transform="translate(269.53125 0)"/>
      <use xlink:href="#DejaVuSans-4d" transform="translate(333.154297 0)"/>
      <use xlink:href="#DejaVuSans-b1" transform="translate(419.433594 0)"/>
      <use xlink:href="#DejaVuSans-53" transform="translate(503.222656 0)"/>
      <use xlink:href="#DejaVuSans-44" transform="translate(566.699219 0)"/>
      <use xlink:href="#DejaVuSans-20" transform="translate(643.701172 0)"/>
      <use xlink:href="#DejaVuSans-28" transform="translate(675.488281 0)"/>
      <use xlink:href="#DejaVuSans-6e" transform="translate(714.501953 0)"/>
      <use xlink:href="#DejaVuSans-3d" transform="translate(777.880859 0)"/>
      <use xlink:href="#DejaVuSans-31" transform="translate(861.669922 0)"/>
      <use xlink:href="#DejaVuSans-30" transform="translate(925.292969 0)"/>
      <use xlink:href="#DejaVuSans-29" transform="translate(988.916016 0)"/>
     </g>
    </g>
   </g>
  </g>
  <g id="text_39">
   <!-- Xu2022 (T2DM) -->
   <g transform="translate(326.731953 26.196094) scale(0.25 -0.25)">
    <defs>
     <path id="DejaVuSans-Bold-58" d="M 3188 2381 
L 4806 0 
L 3553 0 
L 2463 1594 
L 1381 0 
L 122 0 
L 1741 2381 
L 184 4666 
L 1441 4666 
L 2463 3163 
L 3481 4666 
L 4744 4666 
L 3188 2381 
z
" transform="scale(0.015625)"/>
     <path id="DejaVuSans-Bold-75" d="M 500 1363 
L 500 3500 
L 1625 3500 
L 1625 3150 
Q 1625 2866 1622 2436 
Q 1619 2006 1619 1863 
Q 1619 1441 1641 1255 
Q 1663 1069 1716 984 
Q 1784 875 1895 815 
Q 2006 756 2150 756 
Q 2500 756 2700 1025 
Q 2900 1294 2900 1772 
L 2900 3500 
L 4019 3500 
L 4019 0 
L 2900 0 
L 2900 506 
Q 2647 200 2364 54 
Q 2081 -91 1741 -91 
Q 1134 -91 817 281 
Q 500 653 500 1363 
z
" transform="scale(0.015625)"/>
     <path id="DejaVuSans-Bold-32" d="M 1844 884 
L 3897 884 
L 3897 0 
L 506 0 
L 506 884 
L 2209 2388 
Q 2438 2594 2547 2791 
Q 2656 2988 2656 3200 
Q 2656 3528 2436 3728 
Q 2216 3928 1850 3928 
Q 1569 3928 1234 3808 
Q 900 3688 519 3450 
L 519 4475 
Q 925 4609 1322 4679 
Q 1719 4750 2100 4750 
Q 2938 4750 3402 4381 
Q 3866 4013 3866 3353 
Q 3866 2972 3669 2642 
Q 3472 2313 2841 1759 
L 1844 884 
z
" transform="scale(0.015625)"/>
     <path id="DejaVuSans-Bold-30" d="M 2944 2338 
Q 2944 3213 2780 3570 
Q 2616 3928 2228 3928 
Q 1841 3928 1675 3570 
Q 1509 3213 1509 2338 
Q 1509 1453 1675 1090 
Q 1841 728 2228 728 
Q 2613 728 2778 1090 
Q 2944 1453 2944 2338 
z
M 4147 2328 
Q 4147 1169 3647 539 
Q 3147 -91 2228 -91 
Q 1306 -91 806 539 
Q 306 1169 306 2328 
Q 306 3491 806 4120 
Q 1306 4750 2228 4750 
Q 3147 4750 3647 4120 
Q 4147 3491 4147 2328 
z
" transform="scale(0.015625)"/>
     <path id="DejaVuSans-Bold-28" d="M 2413 -844 
L 1484 -844 
Q 1006 -72 778 623 
Q 550 1319 550 2003 
Q 550 2688 779 3389 
Q 1009 4091 1484 4856 
L 2413 4856 
Q 2013 4116 1813 3408 
Q 1613 2700 1613 2009 
Q 1613 1319 1811 609 
Q 2009 -100 2413 -844 
z
" transform="scale(0.015625)"/>
     <path id="DejaVuSans-Bold-54" d="M 31 4666 
L 4331 4666 
L 4331 3756 
L 2784 3756 
L 2784 0 
L 1581 0 
L 1581 3756 
L 31 3756 
L 31 4666 
z
" transform="scale(0.015625)"/>
     <path id="DejaVuSans-Bold-44" d="M 1791 3756 
L 1791 909 
L 2222 909 
Q 2959 909 3348 1275 
Q 3738 1641 3738 2338 
Q 3738 3031 3350 3393 
Q 2963 3756 2222 3756 
L 1791 3756 
z
M 588 4666 
L 1856 4666 
Q 2919 4666 3439 4514 
Q 3959 4363 4331 4000 
Q 4659 3684 4818 3271 
Q 4978 2859 4978 2338 
Q 4978 1809 4818 1395 
Q 4659 981 4331 666 
Q 3956 303 3431 151 
Q 2906 0 1856 0 
L 588 0 
L 588 4666 
z
" transform="scale(0.015625)"/>
     <path id="DejaVuSans-Bold-29" d="M 513 -844 
Q 913 -100 1113 609 
Q 1313 1319 1313 2009 
Q 1313 2700 1113 3408 
Q 913 4116 513 4856 
L 1441 4856 
Q 1916 4091 2145 3389 
Q 2375 2688 2375 2003 
Q 2375 1319 2147 623 
Q 1919 -72 1441 -844 
L 513 -844 
z
" transform="scale(0.015625)"/>
    </defs>
    <use xlink:href="#DejaVuSans-Bold-58"/>
    <use xlink:href="#DejaVuSans-Bold-75" transform="translate(77.099609 0)"/>
    <use xlink:href="#DejaVuSans-Bold-32" transform="translate(148.291016 0)"/>
    <use xlink:href="#DejaVuSans-Bold-30" transform="translate(217.871094 0)"/>
    <use xlink:href="#DejaVuSans-Bold-32" transform="translate(287.451172 0)"/>
    <use xlink:href="#DejaVuSans-Bold-32" transform="translate(357.03125 0)"/>
    <use xlink:href="#DejaVuSans-Bold-20" transform="translate(426.611328 0)"/>
    <use xlink:href="#DejaVuSans-Bold-28" transform="translate(461.425781 0)"/>
    <use xlink:href="#DejaVuSans-Bold-54" transform="translate(507.128906 0)"/>
    <use xlink:href="#DejaVuSans-Bold-32" transform="translate(575.341797 0)"/>
    <use xlink:href="#DejaVuSans-Bold-44" transform="translate(644.921875 0)"/>
    <use xlink:href="#DejaVuSans-Bold-4d" transform="translate(727.929688 0)"/>
    <use xlink:href="#DejaVuSans-Bold-29" transform="translate(827.441406 0)"/>
   </g>
  </g>
 </g>
 <defs>
  <clipPath id="pc76ac32b94">
   <rect x="57.874531" y="43.2" width="339.652174" height="277.2"/>
  </clipPath>
  <clipPath id="pe78706db20">
   <rect x="499.422357" y="43.2" width="339.652174" height="277.2"/>
  </clipPath>
 </defs>
</svg>
