<?xml version="1.0" encoding="utf-8" standalone="no"?>
<!DOCTYPE svg PUBLIC "-//W3C//DTD SVG 1.1//EN"
  "http://www.w3.org/Graphics/SVG/1.1/DTD/svg11.dtd">
<svg xmlns:xlink="http://www.w3.org/1999/xlink" width="843.24875pt" height="370.537812pt" viewBox="0 0 843.24875 370.537812" xmlns="http://www.w3.org/2000/svg" version="1.1">
 <metadata>
  <rdf:RDF xmlns:dc="http://purl.org/dc/elements/1.1/" xmlns:cc="http://creativecommons.org/ns#" xmlns:rdf="http://www.w3.org/1999/02/22-rdf-syntax-ns#">
   <cc:Work>
    <dc:type rdf:resource="http://purl.org/dc/dcmitype/StillImage"/>
    <dc:date>2026-01-30T14:57:17.144719</dc:date>
    <dc:format>image/svg+xml</dc:format>
    <dc:creator>
     <cc:Agent>
      <dc:title>Matplotlib v3.10.7, https://matplotlib.org/</dc:title>
     </cc:Agent>
    </dc:creator>
   </cc:Work>
  </rdf:RDF>
 </metadata>
 <defs>
  <style type="text/css">*{stroke-linejoin: round; stroke-linecap: butt}</style>
 </defs>
 <g id="figure_1">
  <g id="patch_1">
   <path d="M 0 370.537812 
L 843.24875 370.537812 
L 843.24875 0 
L 0 0 
z
" style="fill: #ffffff"/>
  </g>
  <g id="axes_1">
   <g id="patch_2">
    <path d="M 54.84875 320.4 
L 394.500924 320.4 
L 394.500924 43.2 
L 54.84875 43.2 
z
" style="fill: #ffffff"/>
   </g>
   <g id="matplotlib.axis_1">
    <g id="xtick_1">
     <g id="line2d_1">
      <defs>
       <path id="ma751dce5ea" d="M 0 0 
L 0 3.5 
" style="stroke: #000000; stroke-width: 0.8"/>
      </defs>
      <g>
       <use xlink:href="#ma751dce5ea" x="70.287485" y="320.4" style="stroke: #000000; stroke-width: 0.8"/>
      </g>
     </g>
     <g id="text_1">
      <!-- 0.0 -->
      <g transform="translate(58.360141 338.797656) scale(0.15 -0.15)">
       <defs>
        <path id="DejaVuSans-30" d="M 2034 4250 
Q 1547 4250 1301 3770 
Q 1056 3291 1056 2328 
Q 1056 1369 1301 889 
Q 1547 409 2034 409 
Q 2525 409 2770 889 
Q 3016 1369 3016 2328 
Q 3016 3291 2770 3770 
Q 2525 4250 2034 4250 
z
M 2034 4750 
Q 2819 4750 3233 4129 
Q 3647 3509 3647 2328 
Q 3647 1150 3233 529 
Q 2819 -91 2034 -91 
Q 1250 -91 836 529 
Q 422 1150 422 2328 
Q 422 3509 836 4129 
Q 1250 4750 2034 4750 
z
" transform="scale(0.015625)"/>
        <path id="DejaVuSans-2e" d="M 684 794 
L 1344 794 
L 1344 0 
L 684 0 
L 684 794 
z
" transform="scale(0.015625)"/>
       </defs>
       <use xlink:href="#DejaVuSans-30"/>
       <use xlink:href="#DejaVuSans-2e" transform="translate(63.623047 0)"/>
       <use xlink:href="#DejaVuSans-30" transform="translate(95.410156 0)"/>
      </g>
     </g>
    </g>
    <g id="xtick_2">
     <g id="line2d_2">
      <g>
       <use xlink:href="#ma751dce5ea" x="122.161635" y="320.4" style="stroke: #000000; stroke-width: 0.8"/>
      </g>
     </g>
     <g id="text_2">
      <!-- 0.2 -->
      <g transform="translate(110.234292 338.797656) scale(0.15 -0.15)">
       <defs>
        <path id="DejaVuSans-32" d="M 1228 531 
L 3431 531 
L 3431 0 
L 469 0 
L 469 531 
Q 828 903 1448 1529 
Q 2069 2156 2228 2338 
Q 2531 2678 2651 2914 
Q 2772 3150 2772 3378 
Q 2772 3750 2511 3984 
Q 2250 4219 1831 4219 
Q 1534 4219 1204 4116 
Q 875 4013 500 3803 
L 500 4441 
Q 881 4594 1212 4672 
Q 1544 4750 1819 4750 
Q 2544 4750 2975 4387 
Q 3406 4025 3406 3419 
Q 3406 3131 3298 2873 
Q 3191 2616 2906 2266 
Q 2828 2175 2409 1742 
Q 1991 1309 1228 531 
z
" transform="scale(0.015625)"/>
       </defs>
       <use xlink:href="#DejaVuSans-30"/>
       <use xlink:href="#DejaVuSans-2e" transform="translate(63.623047 0)"/>
       <use xlink:href="#DejaVuSans-32" transform="translate(95.410156 0)"/>
      </g>
     </g>
    </g>
    <g id="xtick_3">
     <g id="line2d_3">
      <g>
       <use xlink:href="#ma751dce5ea" x="174.035786" y="320.4" style="stroke: #000000; stroke-width: 0.8"/>
      </g>
     </g>
     <g id="text_3">
      <!-- 0.4 -->
      <g transform="translate(162.108442 338.797656) scale(0.15 -0.15)">
       <defs>
        <path id="DejaVuSans-34" d="M 2419 4116 
L 825 1625 
L 2419 1625 
L 2419 4116 
z
M 2253 4666 
L 3047 4666 
L 3047 1625 
L 3713 1625 
L 3713 1100 
L 3047 1100 
L 3047 0 
L 2419 0 
L 2419 1100 
L 313 1100 
L 313 1709 
L 2253 4666 
z
" transform="scale(0.015625)"/>
       </defs>
       <use xlink:href="#DejaVuSans-30"/>
       <use xlink:href="#DejaVuSans-2e" transform="translate(63.623047 0)"/>
       <use xlink:href="#DejaVuSans-34" transform="translate(95.410156 0)"/>
      </g>
     </g>
    </g>
    <g id="xtick_4">
     <g id="line2d_4">
      <g>
       <use xlink:href="#ma751dce5ea" x="225.909936" y="320.4" style="stroke: #000000; stroke-width: 0.8"/>
      </g>
     </g>
     <g id="text_4">
      <!-- 0.6 -->
      <g transform="translate(213.982592 338.797656) scale(0.15 -0.15)">
       <defs>
        <path id="DejaVuSans-36" d="M 2113 2584 
Q 1688 2584 1439 2293 
Q 1191 2003 1191 1497 
Q 1191 994 1439 701 
Q 1688 409 2113 409 
Q 2538 409 2786 701 
Q 3034 994 3034 1497 
Q 3034 2003 2786 2293 
Q 2538 2584 2113 2584 
z
M 3366 4563 
L 3366 3988 
Q 3128 4100 2886 4159 
Q 2644 4219 2406 4219 
Q 1781 4219 1451 3797 
Q 1122 3375 1075 2522 
Q 1259 2794 1537 2939 
Q 1816 3084 2150 3084 
Q 2853 3084 3261 2657 
Q 3669 2231 3669 1497 
Q 3669 778 3244 343 
Q 2819 -91 2113 -91 
Q 1303 -91 875 529 
Q 447 1150 447 2328 
Q 447 3434 972 4092 
Q 1497 4750 2381 4750 
Q 2619 4750 2861 4703 
Q 3103 4656 3366 4563 
z
" transform="scale(0.015625)"/>
       </defs>
       <use xlink:href="#DejaVuSans-30"/>
       <use xlink:href="#DejaVuSans-2e" transform="translate(63.623047 0)"/>
       <use xlink:href="#DejaVuSans-36" transform="translate(95.410156 0)"/>
      </g>
     </g>
    </g>
    <g id="xtick_5">
     <g id="line2d_5">
      <g>
       <use xlink:href="#ma751dce5ea" x="277.784086" y="320.4" style="stroke: #000000; stroke-width: 0.8"/>
      </g>
     </g>
     <g id="text_5">
      <!-- 0.8 -->
      <g transform="translate(265.856742 338.797656) scale(0.15 -0.15)">
       <defs>
        <path id="DejaVuSans-38" d="M 2034 2216 
Q 1584 2216 1326 1975 
Q 1069 1734 1069 1313 
Q 1069 891 1326 650 
Q 1584 409 2034 409 
Q 2484 409 2743 651 
Q 3003 894 3003 1313 
Q 3003 1734 2745 1975 
Q 2488 2216 2034 2216 
z
M 1403 2484 
Q 997 2584 770 2862 
Q 544 3141 544 3541 
Q 544 4100 942 4425 
Q 1341 4750 2034 4750 
Q 2731 4750 3128 4425 
Q 3525 4100 3525 3541 
Q 3525 3141 3298 2862 
Q 3072 2584 2669 2484 
Q 3125 2378 3379 2068 
Q 3634 1759 3634 1313 
Q 3634 634 3220 271 
Q 2806 -91 2034 -91 
Q 1263 -91 848 271 
Q 434 634 434 1313 
Q 434 1759 690 2068 
Q 947 2378 1403 2484 
z
M 1172 3481 
Q 1172 3119 1398 2916 
Q 1625 2713 2034 2713 
Q 2441 2713 2670 2916 
Q 2900 3119 2900 3481 
Q 2900 3844 2670 4047 
Q 2441 4250 2034 4250 
Q 1625 4250 1398 4047 
Q 1172 3844 1172 3481 
z
" transform="scale(0.015625)"/>
       </defs>
       <use xlink:href="#DejaVuSans-30"/>
       <use xlink:href="#DejaVuSans-2e" transform="translate(63.623047 0)"/>
       <use xlink:href="#DejaVuSans-38" transform="translate(95.410156 0)"/>
      </g>
     </g>
    </g>
    <g id="xtick_6">
     <g id="line2d_6">
      <g>
       <use xlink:href="#ma751dce5ea" x="329.658236" y="320.4" style="stroke: #000000; stroke-width: 0.8"/>
      </g>
     </g>
     <g id="text_6">
      <!-- 1.0 -->
      <g transform="translate(317.730892 338.797656) scale(0.15 -0.15)">
       <defs>
        <path id="DejaVuSans-31" d="M 794 531 
L 1825 531 
L 1825 4091 
L 703 3866 
L 703 4441 
L 1819 4666 
L 2450 4666 
L 2450 531 
L 3481 531 
L 3481 0 
L 794 0 
L 794 531 
z
" transform="scale(0.015625)"/>
       </defs>
       <use xlink:href="#DejaVuSans-31"/>
       <use xlink:href="#DejaVuSans-2e" transform="translate(63.623047 0)"/>
       <use xlink:href="#DejaVuSans-30" transform="translate(95.410156 0)"/>
      </g>
     </g>
    </g>
    <g id="xtick_7">
     <g id="line2d_7">
      <g>
       <use xlink:href="#ma751dce5ea" x="381.532386" y="320.4" style="stroke: #000000; stroke-width: 0.8"/>
      </g>
     </g>
     <g id="text_7">
      <!-- 1.2 -->
      <g transform="translate(369.605043 338.797656) scale(0.15 -0.15)">
       <use xlink:href="#DejaVuSans-31"/>
       <use xlink:href="#DejaVuSans-2e" transform="translate(63.623047 0)"/>
       <use xlink:href="#DejaVuSans-32" transform="translate(95.410156 0)"/>
      </g>
     </g>
    </g>
    <g id="text_8">
     <!-- time [week] -->
     <g transform="translate(163.936087 359.594375) scale(0.18 -0.18)">
      <defs>
       <path id="DejaVuSans-Bold-74" d="M 1759 4494 
L 1759 3500 
L 2913 3500 
L 2913 2700 
L 1759 2700 
L 1759 1216 
Q 1759 972 1856 886 
Q 1953 800 2241 800 
L 2816 800 
L 2816 0 
L 1856 0 
Q 1194 0 917 276 
Q 641 553 641 1216 
L 641 2700 
L 84 2700 
L 84 3500 
L 641 3500 
L 641 4494 
L 1759 4494 
z
" transform="scale(0.015625)"/>
       <path id="DejaVuSans-Bold-69" d="M 538 3500 
L 1656 3500 
L 1656 0 
L 538 0 
L 538 3500 
z
M 538 4863 
L 1656 4863 
L 1656 3950 
L 538 3950 
L 538 4863 
z
" transform="scale(0.015625)"/>
       <path id="DejaVuSans-Bold-6d" d="M 3781 2919 
Q 3994 3244 4286 3414 
Q 4578 3584 4928 3584 
Q 5531 3584 5847 3212 
Q 6163 2841 6163 2131 
L 6163 0 
L 5038 0 
L 5038 1825 
Q 5041 1866 5042 1909 
Q 5044 1953 5044 2034 
Q 5044 2406 4934 2573 
Q 4825 2741 4581 2741 
Q 4263 2741 4089 2478 
Q 3916 2216 3909 1719 
L 3909 0 
L 2784 0 
L 2784 1825 
Q 2784 2406 2684 2573 
Q 2584 2741 2328 2741 
Q 2006 2741 1831 2477 
Q 1656 2213 1656 1722 
L 1656 0 
L 531 0 
L 531 3500 
L 1656 3500 
L 1656 2988 
Q 1863 3284 2130 3434 
Q 2397 3584 2719 3584 
Q 3081 3584 3359 3409 
Q 3638 3234 3781 2919 
z
" transform="scale(0.015625)"/>
       <path id="DejaVuSans-Bold-65" d="M 4031 1759 
L 4031 1441 
L 1416 1441 
Q 1456 1047 1700 850 
Q 1944 653 2381 653 
Q 2734 653 3104 758 
Q 3475 863 3866 1075 
L 3866 213 
Q 3469 63 3072 -14 
Q 2675 -91 2278 -91 
Q 1328 -91 801 392 
Q 275 875 275 1747 
Q 275 2603 792 3093 
Q 1309 3584 2216 3584 
Q 3041 3584 3536 3087 
Q 4031 2591 4031 1759 
z
M 2881 2131 
Q 2881 2450 2695 2645 
Q 2509 2841 2209 2841 
Q 1884 2841 1681 2658 
Q 1478 2475 1428 2131 
L 2881 2131 
z
" transform="scale(0.015625)"/>
       <path id="DejaVuSans-Bold-20" transform="scale(0.015625)"/>
       <path id="DejaVuSans-Bold-5b" d="M 550 4863 
L 2491 4863 
L 2491 4159 
L 1613 4159 
L 1613 -141 
L 2491 -141 
L 2491 -844 
L 550 -844 
L 550 4863 
z
" transform="scale(0.015625)"/>
       <path id="DejaVuSans-Bold-77" d="M 225 3500 
L 1313 3500 
L 1900 1088 
L 2491 3500 
L 3425 3500 
L 4013 1113 
L 4603 3500 
L 5691 3500 
L 4769 0 
L 3547 0 
L 2956 2406 
L 2369 0 
L 1147 0 
L 225 3500 
z
" transform="scale(0.015625)"/>
       <path id="DejaVuSans-Bold-6b" d="M 538 4863 
L 1656 4863 
L 1656 2216 
L 2944 3500 
L 4244 3500 
L 2534 1894 
L 4378 0 
L 3022 0 
L 1656 1459 
L 1656 0 
L 538 0 
L 538 4863 
z
" transform="scale(0.015625)"/>
       <path id="DejaVuSans-Bold-5d" d="M 2375 -844 
L 434 -844 
L 434 -141 
L 1313 -141 
L 1313 4159 
L 434 4159 
L 434 4863 
L 2375 4863 
L 2375 -844 
z
" transform="scale(0.015625)"/>
      </defs>
      <use xlink:href="#DejaVuSans-Bold-74"/>
      <use xlink:href="#DejaVuSans-Bold-69" transform="translate(47.802734 0)"/>
      <use xlink:href="#DejaVuSans-Bold-6d" transform="translate(82.080078 0)"/>
      <use xlink:href="#DejaVuSans-Bold-65" transform="translate(186.279297 0)"/>
      <use xlink:href="#DejaVuSans-Bold-20" transform="translate(254.101562 0)"/>
      <use xlink:href="#DejaVuSans-Bold-5b" transform="translate(288.916016 0)"/>
      <use xlink:href="#DejaVuSans-Bold-77" transform="translate(334.619141 0)"/>
      <use xlink:href="#DejaVuSans-Bold-65" transform="translate(427.001953 0)"/>
      <use xlink:href="#DejaVuSans-Bold-65" transform="translate(494.824219 0)"/>
      <use xlink:href="#DejaVuSans-Bold-6b" transform="translate(562.646484 0)"/>
      <use xlink:href="#DejaVuSans-Bold-5d" transform="translate(629.150391 0)"/>
     </g>
    </g>
   </g>
   <g id="matplotlib.axis_2">
    <g id="ytick_1">
     <g id="line2d_8">
      <defs>
       <path id="mde7c96ae04" d="M 0 0 
L -3.5 0 
" style="stroke: #000000; stroke-width: 0.8"/>
      </defs>
      <g>
       <use xlink:href="#mde7c96ae04" x="54.84875" y="307.8" style="stroke: #000000; stroke-width: 0.8"/>
      </g>
     </g>
     <g id="text_9">
      <!-- 0 -->
      <g transform="translate(38.305 313.498828) scale(0.15 -0.15)">
       <use xlink:href="#DejaVuSans-30"/>
      </g>
     </g>
    </g>
    <g id="ytick_2">
     <g id="line2d_9">
      <g>
       <use xlink:href="#mde7c96ae04" x="54.84875" y="268.498678" style="stroke: #000000; stroke-width: 0.8"/>
      </g>
     </g>
     <g id="text_10">
      <!-- 5 -->
      <g transform="translate(38.305 274.197506) scale(0.15 -0.15)">
       <defs>
        <path id="DejaVuSans-35" d="M 691 4666 
L 3169 4666 
L 3169 4134 
L 1269 4134 
L 1269 2991 
Q 1406 3038 1543 3061 
Q 1681 3084 1819 3084 
Q 2600 3084 3056 2656 
Q 3513 2228 3513 1497 
Q 3513 744 3044 326 
Q 2575 -91 1722 -91 
Q 1428 -91 1123 -41 
Q 819 9 494 109 
L 494 744 
Q 775 591 1075 516 
Q 1375 441 1709 441 
Q 2250 441 2565 725 
Q 2881 1009 2881 1497 
Q 2881 1984 2565 2268 
Q 2250 2553 1709 2553 
Q 1456 2553 1204 2497 
Q 953 2441 691 2322 
L 691 4666 
z
" transform="scale(0.015625)"/>
       </defs>
       <use xlink:href="#DejaVuSans-35"/>
      </g>
     </g>
    </g>
    <g id="ytick_3">
     <g id="line2d_10">
      <g>
       <use xlink:href="#mde7c96ae04" x="54.84875" y="229.197356" style="stroke: #000000; stroke-width: 0.8"/>
      </g>
     </g>
     <g id="text_11">
      <!-- 10 -->
      <g transform="translate(28.76125 234.896184) scale(0.15 -0.15)">
       <use xlink:href="#DejaVuSans-31"/>
       <use xlink:href="#DejaVuSans-30" transform="translate(63.623047 0)"/>
      </g>
     </g>
    </g>
    <g id="ytick_4">
     <g id="line2d_11">
      <g>
       <use xlink:href="#mde7c96ae04" x="54.84875" y="189.896034" style="stroke: #000000; stroke-width: 0.8"/>
      </g>
     </g>
     <g id="text_12">
      <!-- 15 -->
      <g transform="translate(28.76125 195.594862) scale(0.15 -0.15)">
       <use xlink:href="#DejaVuSans-31"/>
       <use xlink:href="#DejaVuSans-35" transform="translate(63.623047 0)"/>
      </g>
     </g>
    </g>
    <g id="ytick_5">
     <g id="line2d_12">
      <g>
       <use xlink:href="#mde7c96ae04" x="54.84875" y="150.594712" style="stroke: #000000; stroke-width: 0.8"/>
      </g>
     </g>
     <g id="text_13">
      <!-- 20 -->
      <g transform="translate(28.76125 156.29354) scale(0.15 -0.15)">
       <use xlink:href="#DejaVuSans-32"/>
       <use xlink:href="#DejaVuSans-30" transform="translate(63.623047 0)"/>
      </g>
     </g>
    </g>
    <g id="ytick_6">
     <g id="line2d_13">
      <g>
       <use xlink:href="#mde7c96ae04" x="54.84875" y="111.29339" style="stroke: #000000; stroke-width: 0.8"/>
      </g>
     </g>
     <g id="text_14">
      <!-- 25 -->
      <g transform="translate(28.76125 116.992218) scale(0.15 -0.15)">
       <use xlink:href="#DejaVuSans-32"/>
       <use xlink:href="#DejaVuSans-35" transform="translate(63.623047 0)"/>
      </g>
     </g>
    </g>
    <g id="ytick_7">
     <g id="line2d_14">
      <g>
       <use xlink:href="#mde7c96ae04" x="54.84875" y="71.992068" style="stroke: #000000; stroke-width: 0.8"/>
      </g>
     </g>
     <g id="text_15">
      <!-- 30 -->
      <g transform="translate(28.76125 77.690896) scale(0.15 -0.15)">
       <defs>
        <path id="DejaVuSans-33" d="M 2597 2516 
Q 3050 2419 3304 2112 
Q 3559 1806 3559 1356 
Q 3559 666 3084 287 
Q 2609 -91 1734 -91 
Q 1441 -91 1130 -33 
Q 819 25 488 141 
L 488 750 
Q 750 597 1062 519 
Q 1375 441 1716 441 
Q 2309 441 2620 675 
Q 2931 909 2931 1356 
Q 2931 1769 2642 2001 
Q 2353 2234 1838 2234 
L 1294 2234 
L 1294 2753 
L 1863 2753 
Q 2328 2753 2575 2939 
Q 2822 3125 2822 3475 
Q 2822 3834 2567 4026 
Q 2313 4219 1838 4219 
Q 1578 4219 1281 4162 
Q 984 4106 628 3988 
L 628 4550 
Q 988 4650 1302 4700 
Q 1616 4750 1894 4750 
Q 2613 4750 3031 4423 
Q 3450 4097 3450 3541 
Q 3450 3153 3228 2886 
Q 3006 2619 2597 2516 
z
" transform="scale(0.015625)"/>
       </defs>
       <use xlink:href="#DejaVuSans-33"/>
       <use xlink:href="#DejaVuSans-30" transform="translate(63.623047 0)"/>
      </g>
     </g>
    </g>
    <g id="text_16">
     <!-- dulaglutide plasma [nM] -->
     <g transform="translate(20.877188 305.940937) rotate(-90) scale(0.18 -0.18)">
      <defs>
       <path id="DejaVuSans-Bold-64" d="M 2919 2988 
L 2919 4863 
L 4044 4863 
L 4044 0 
L 2919 0 
L 2919 506 
Q 2688 197 2409 53 
Q 2131 -91 1766 -91 
Q 1119 -91 703 423 
Q 288 938 288 1747 
Q 288 2556 703 3070 
Q 1119 3584 1766 3584 
Q 2128 3584 2408 3439 
Q 2688 3294 2919 2988 
z
M 2181 722 
Q 2541 722 2730 984 
Q 2919 1247 2919 1747 
Q 2919 2247 2730 2509 
Q 2541 2772 2181 2772 
Q 1825 2772 1636 2509 
Q 1447 2247 1447 1747 
Q 1447 1247 1636 984 
Q 1825 722 2181 722 
z
" transform="scale(0.015625)"/>
       <path id="DejaVuSans-Bold-75" d="M 500 1363 
L 500 3500 
L 1625 3500 
L 1625 3150 
Q 1625 2866 1622 2436 
Q 1619 2006 1619 1863 
Q 1619 1441 1641 1255 
Q 1663 1069 1716 984 
Q 1784 875 1895 815 
Q 2006 756 2150 756 
Q 2500 756 2700 1025 
Q 2900 1294 2900 1772 
L 2900 3500 
L 4019 3500 
L 4019 0 
L 2900 0 
L 2900 506 
Q 2647 200 2364 54 
Q 2081 -91 1741 -91 
Q 1134 -91 817 281 
Q 500 653 500 1363 
z
" transform="scale(0.015625)"/>
       <path id="DejaVuSans-Bold-6c" d="M 538 4863 
L 1656 4863 
L 1656 0 
L 538 0 
L 538 4863 
z
" transform="scale(0.015625)"/>
       <path id="DejaVuSans-Bold-61" d="M 2106 1575 
Q 1756 1575 1579 1456 
Q 1403 1338 1403 1106 
Q 1403 894 1545 773 
Q 1688 653 1941 653 
Q 2256 653 2472 879 
Q 2688 1106 2688 1447 
L 2688 1575 
L 2106 1575 
z
M 3816 1997 
L 3816 0 
L 2688 0 
L 2688 519 
Q 2463 200 2181 54 
Q 1900 -91 1497 -91 
Q 953 -91 614 226 
Q 275 544 275 1050 
Q 275 1666 698 1953 
Q 1122 2241 2028 2241 
L 2688 2241 
L 2688 2328 
Q 2688 2594 2478 2717 
Q 2269 2841 1825 2841 
Q 1466 2841 1156 2769 
Q 847 2697 581 2553 
L 581 3406 
Q 941 3494 1303 3539 
Q 1666 3584 2028 3584 
Q 2975 3584 3395 3211 
Q 3816 2838 3816 1997 
z
" transform="scale(0.015625)"/>
       <path id="DejaVuSans-Bold-67" d="M 2919 594 
Q 2688 288 2409 144 
Q 2131 0 1766 0 
Q 1125 0 706 504 
Q 288 1009 288 1791 
Q 288 2575 706 3076 
Q 1125 3578 1766 3578 
Q 2131 3578 2409 3434 
Q 2688 3291 2919 2981 
L 2919 3500 
L 4044 3500 
L 4044 353 
Q 4044 -491 3511 -936 
Q 2978 -1381 1966 -1381 
Q 1638 -1381 1331 -1331 
Q 1025 -1281 716 -1178 
L 716 -306 
Q 1009 -475 1290 -558 
Q 1572 -641 1856 -641 
Q 2406 -641 2662 -400 
Q 2919 -159 2919 353 
L 2919 594 
z
M 2181 2772 
Q 1834 2772 1640 2515 
Q 1447 2259 1447 1791 
Q 1447 1309 1634 1061 
Q 1822 813 2181 813 
Q 2531 813 2725 1069 
Q 2919 1325 2919 1791 
Q 2919 2259 2725 2515 
Q 2531 2772 2181 2772 
z
" transform="scale(0.015625)"/>
       <path id="DejaVuSans-Bold-70" d="M 1656 506 
L 1656 -1331 
L 538 -1331 
L 538 3500 
L 1656 3500 
L 1656 2988 
Q 1888 3294 2169 3439 
Q 2450 3584 2816 3584 
Q 3463 3584 3878 3070 
Q 4294 2556 4294 1747 
Q 4294 938 3878 423 
Q 3463 -91 2816 -91 
Q 2450 -91 2169 54 
Q 1888 200 1656 506 
z
M 2400 2772 
Q 2041 2772 1848 2508 
Q 1656 2244 1656 1747 
Q 1656 1250 1848 986 
Q 2041 722 2400 722 
Q 2759 722 2948 984 
Q 3138 1247 3138 1747 
Q 3138 2247 2948 2509 
Q 2759 2772 2400 2772 
z
" transform="scale(0.015625)"/>
       <path id="DejaVuSans-Bold-73" d="M 3272 3391 
L 3272 2541 
Q 2913 2691 2578 2766 
Q 2244 2841 1947 2841 
Q 1628 2841 1473 2761 
Q 1319 2681 1319 2516 
Q 1319 2381 1436 2309 
Q 1553 2238 1856 2203 
L 2053 2175 
Q 2913 2066 3209 1816 
Q 3506 1566 3506 1031 
Q 3506 472 3093 190 
Q 2681 -91 1863 -91 
Q 1516 -91 1145 -36 
Q 775 19 384 128 
L 384 978 
Q 719 816 1070 734 
Q 1422 653 1784 653 
Q 2113 653 2278 743 
Q 2444 834 2444 1013 
Q 2444 1163 2330 1236 
Q 2216 1309 1875 1350 
L 1678 1375 
Q 931 1469 631 1722 
Q 331 1975 331 2491 
Q 331 3047 712 3315 
Q 1094 3584 1881 3584 
Q 2191 3584 2531 3537 
Q 2872 3491 3272 3391 
z
" transform="scale(0.015625)"/>
       <path id="DejaVuSans-Bold-6e" d="M 4056 2131 
L 4056 0 
L 2931 0 
L 2931 347 
L 2931 1631 
Q 2931 2084 2911 2256 
Q 2891 2428 2841 2509 
Q 2775 2619 2662 2680 
Q 2550 2741 2406 2741 
Q 2056 2741 1856 2470 
Q 1656 2200 1656 1722 
L 1656 0 
L 538 0 
L 538 3500 
L 1656 3500 
L 1656 2988 
Q 1909 3294 2193 3439 
Q 2478 3584 2822 3584 
Q 3428 3584 3742 3212 
Q 4056 2841 4056 2131 
z
" transform="scale(0.015625)"/>
       <path id="DejaVuSans-Bold-4d" d="M 588 4666 
L 2119 4666 
L 3181 2169 
L 4250 4666 
L 5778 4666 
L 5778 0 
L 4641 0 
L 4641 3413 
L 3566 897 
L 2803 897 
L 1728 3413 
L 1728 0 
L 588 0 
L 588 4666 
z
" transform="scale(0.015625)"/>
      </defs>
      <use xlink:href="#DejaVuSans-Bold-64"/>
      <use xlink:href="#DejaVuSans-Bold-75" transform="translate(71.582031 0)"/>
      <use xlink:href="#DejaVuSans-Bold-6c" transform="translate(142.773438 0)"/>
      <use xlink:href="#DejaVuSans-Bold-61" transform="translate(177.050781 0)"/>
      <use xlink:href="#DejaVuSans-Bold-67" transform="translate(244.53125 0)"/>
      <use xlink:href="#DejaVuSans-Bold-6c" transform="translate(316.113281 0)"/>
      <use xlink:href="#DejaVuSans-Bold-75" transform="translate(350.390625 0)"/>
      <use xlink:href="#DejaVuSans-Bold-74" transform="translate(421.582031 0)"/>
      <use xlink:href="#DejaVuSans-Bold-69" transform="translate(469.384766 0)"/>
      <use xlink:href="#DejaVuSans-Bold-64" transform="translate(503.662109 0)"/>
      <use xlink:href="#DejaVuSans-Bold-65" transform="translate(575.244141 0)"/>
      <use xlink:href="#DejaVuSans-Bold-20" transform="translate(643.066406 0)"/>
      <use xlink:href="#DejaVuSans-Bold-70" transform="translate(677.880859 0)"/>
      <use xlink:href="#DejaVuSans-Bold-6c" transform="translate(749.462891 0)"/>
      <use xlink:href="#DejaVuSans-Bold-61" transform="translate(783.740234 0)"/>
      <use xlink:href="#DejaVuSans-Bold-73" transform="translate(851.220703 0)"/>
      <use xlink:href="#DejaVuSans-Bold-6d" transform="translate(910.742188 0)"/>
      <use xlink:href="#DejaVuSans-Bold-61" transform="translate(1014.941406 0)"/>
      <use xlink:href="#DejaVuSans-Bold-20" transform="translate(1082.421875 0)"/>
      <use xlink:href="#DejaVuSans-Bold-5b" transform="translate(1117.236328 0)"/>
      <use xlink:href="#DejaVuSans-Bold-6e" transform="translate(1162.939453 0)"/>
      <use xlink:href="#DejaVuSans-Bold-4d" transform="translate(1234.130859 0)"/>
      <use xlink:href="#DejaVuSans-Bold-5d" transform="translate(1333.642578 0)"/>
     </g>
    </g>
   </g>
   <g id="LineCollection_1">
    <path d="M 70.287485 307.8 
L 70.287485 307.8 
" clip-path="url(#pae7bd09af2)" style="fill: none; stroke: #1f77b4"/>
    <path d="M 88.813967 275.730078 
L 88.813967 231.597236 
" clip-path="url(#pae7bd09af2)" style="fill: none; stroke: #1f77b4"/>
    <path d="M 107.34045 270.434168 
L 107.34045 206.88282 
" clip-path="url(#pae7bd09af2)" style="fill: none; stroke: #1f77b4"/>
    <path d="M 144.393414 258.371149 
L 144.393414 221.888002 
" clip-path="url(#pae7bd09af2)" style="fill: none; stroke: #1f77b4"/>
    <path d="M 181.446378 267.786174 
L 181.446378 241.306469 
" clip-path="url(#pae7bd09af2)" style="fill: none; stroke: #1f77b4"/>
    <path d="M 218.499343 276.612762 
L 218.499343 251.898347 
" clip-path="url(#pae7bd09af2)" style="fill: none; stroke: #1f77b4"/>
   </g>
   <g id="LineCollection_2">
    <path d="M 70.287485 307.8 
L 70.287485 307.8 
" clip-path="url(#pae7bd09af2)" style="fill: none; stroke: #2ca02c"/>
    <path d="M 88.813967 248.367728 
L 88.813967 213.061414 
" clip-path="url(#pae7bd09af2)" style="fill: none; stroke: #2ca02c"/>
    <path d="M 107.34045 226.301277 
L 107.34045 190.994983 
" clip-path="url(#pae7bd09af2)" style="fill: none; stroke: #2ca02c"/>
    <path d="M 144.393414 215.709399 
L 144.393414 192.760293 
" clip-path="url(#pae7bd09af2)" style="fill: none; stroke: #2ca02c"/>
    <path d="M 181.446378 236.598937 
L 181.446378 208.942358 
" clip-path="url(#pae7bd09af2)" style="fill: none; stroke: #2ca02c"/>
    <path d="M 218.499343 252.192575 
L 218.499343 229.831906 
" clip-path="url(#pae7bd09af2)" style="fill: none; stroke: #2ca02c"/>
    <path d="M 329.658236 277.495427 
L 329.658236 265.726656 
" clip-path="url(#pae7bd09af2)" style="fill: none; stroke: #2ca02c"/>
   </g>
   <g id="LineCollection_3">
    <path d="M 70.287485 307.8 
L 70.287485 307.8 
" clip-path="url(#pae7bd09af2)" style="fill: none; stroke: #d62728"/>
    <path d="M 88.813967 199.527328 
L 88.813967 108.319392 
" clip-path="url(#pae7bd09af2)" style="fill: none; stroke: #d62728"/>
    <path d="M 107.34045 170.988073 
L 107.34045 70.365116 
" clip-path="url(#pae7bd09af2)" style="fill: none; stroke: #d62728"/>
    <path d="M 144.393414 150.098508 
L 144.393414 85.370296 
" clip-path="url(#pae7bd09af2)" style="fill: none; stroke: #d62728"/>
    <path d="M 181.446378 174.224481 
L 181.446378 127.149417 
" clip-path="url(#pae7bd09af2)" style="fill: none; stroke: #d62728"/>
    <path d="M 218.499343 198.056242 
L 218.499343 172.164953 
" clip-path="url(#pae7bd09af2)" style="fill: none; stroke: #d62728"/>
    <path d="M 329.658236 248.661916 
L 329.658236 232.774109 
" clip-path="url(#pae7bd09af2)" style="fill: none; stroke: #d62728"/>
   </g>
   <g id="line2d_15">
    <path d="M 70.287485 307.8 
L 72.757683 299.041705 
L 75.536655 290.0181 
L 78.315627 281.804966 
L 81.0946 274.348155 
L 83.564797 268.313582 
L 86.034995 262.802579 
L 88.505193 257.78321 
L 90.97539 253.225252 
L 93.445588 249.100107 
L 95.915786 245.380726 
L 98.385983 242.041524 
L 100.856181 239.058312 
L 103.326378 236.408222 
L 105.796576 234.069641 
L 108.266774 232.022149 
L 110.736971 230.246455 
L 113.207169 228.724343 
L 115.677367 227.438612 
L 118.456339 226.254539 
L 121.235311 225.327383 
L 124.014284 224.636794 
L 126.793256 224.163724 
L 129.881003 223.871565 
L 132.96875 223.80319 
L 136.365272 223.961267 
L 139.761793 224.338588 
L 143.46709 224.972229 
L 147.481161 225.888178 
L 151.804007 227.105014 
L 156.744402 228.742423 
L 161.993572 230.718568 
L 168.169066 233.287786 
L 175.579659 236.62503 
L 185.46045 241.342038 
L 220.351991 258.221685 
L 230.541556 262.795708 
L 240.113572 266.85305 
L 249.376813 270.538987 
L 258.33128 273.868641 
L 267.285746 276.96699 
L 276.240212 279.836845 
L 285.503454 282.571823 
L 294.766695 285.078478 
L 304.33871 287.440976 
L 314.219501 289.651529 
L 324.409066 291.705251 
L 335.216181 293.652514 
L 346.33207 295.429149 
L 358.065509 297.079736 
L 370.416497 298.594355 
L 379.062189 299.532676 
L 379.062189 299.532676 
" clip-path="url(#pae7bd09af2)" style="fill: none; stroke: #1f77b4; stroke-width: 2; stroke-linecap: square"/>
   </g>
   <g id="line2d_16">
    <path d="M 70.287485 307.8 
L 88.813967 253.663657 
L 107.34045 238.658494 
L 144.393414 240.129576 
L 181.446378 254.546322 
L 218.499343 264.255555 
" clip-path="url(#pae7bd09af2)" style="fill: none; stroke-dasharray: 3.7,1.6; stroke-dashoffset: 0; stroke: #1f77b4"/>
    <defs>
     <path id="m8a1a67db6e" d="M -3 3 
L 3 3 
L 3 -3 
L -3 -3 
z
" style="stroke: #000000; stroke-linejoin: miter"/>
    </defs>
    <g clip-path="url(#pae7bd09af2)">
     <use xlink:href="#m8a1a67db6e" x="70.287485" y="307.8" style="fill: #1f77b4; stroke: #000000; stroke-linejoin: miter"/>
     <use xlink:href="#m8a1a67db6e" x="88.813967" y="253.663657" style="fill: #1f77b4; stroke: #000000; stroke-linejoin: miter"/>
     <use xlink:href="#m8a1a67db6e" x="107.34045" y="238.658494" style="fill: #1f77b4; stroke: #000000; stroke-linejoin: miter"/>
     <use xlink:href="#m8a1a67db6e" x="144.393414" y="240.129576" style="fill: #1f77b4; stroke: #000000; stroke-linejoin: miter"/>
     <use xlink:href="#m8a1a67db6e" x="181.446378" y="254.546322" style="fill: #1f77b4; stroke: #000000; stroke-linejoin: miter"/>
     <use xlink:href="#m8a1a67db6e" x="218.499343" y="264.255555" style="fill: #1f77b4; stroke: #000000; stroke-linejoin: miter"/>
    </g>
   </g>
   <g id="line2d_17">
    <path d="M 70.287485 307.8 
L 72.757683 294.662558 
L 75.536655 281.12715 
L 78.006853 270.118837 
L 80.47705 260.013779 
L 82.947248 250.757781 
L 85.417446 242.299532 
L 87.887643 234.590465 
L 90.357841 227.584612 
L 92.828039 221.238483 
L 95.298236 215.510931 
L 97.768434 210.363043 
L 100.238631 205.75802 
L 102.708829 201.661075 
L 105.179027 198.039328 
L 107.34045 195.235642 
L 109.501873 192.752235 
L 111.663295 190.570338 
L 113.824718 188.672099 
L 115.986141 187.040547 
L 118.147564 185.659545 
L 120.308987 184.513758 
L 122.779185 183.473648 
L 125.249382 182.70116 
L 127.71958 182.176885 
L 130.189778 181.882528 
L 132.659975 181.800859 
L 135.438948 181.943037 
L 138.21792 182.312209 
L 141.305667 182.964058 
L 144.393414 183.845376 
L 147.789936 185.051397 
L 151.495232 186.616422 
L 155.509303 188.566441 
L 159.832149 190.918005 
L 164.772544 193.869124 
L 170.330489 197.455187 
L 177.123533 202.119215 
L 186.077999 208.564508 
L 218.190568 231.931671 
L 227.145035 238.047999 
L 235.481952 243.480625 
L 243.510094 248.449036 
L 251.229461 252.970276 
L 258.948829 257.234605 
L 266.668197 261.24105 
L 274.387564 264.992349 
L 282.106932 268.494095 
L 289.826299 271.754023 
L 297.854442 274.897841 
L 305.882584 277.801892 
L 314.219501 280.577293 
L 322.556418 283.122174 
L 331.20211 285.533545 
L 340.156576 287.803718 
L 349.419817 289.927357 
L 359.300608 291.961571 
L 369.490173 293.832145 
L 379.062189 295.399014 
L 379.062189 295.399014 
" clip-path="url(#pae7bd09af2)" style="fill: none; stroke: #2ca02c; stroke-width: 2; stroke-linecap: square"/>
   </g>
   <g id="line2d_18">
    <path d="M 70.287485 307.8 
L 88.813967 230.714571 
L 107.34045 208.64813 
L 144.393414 204.234846 
L 181.446378 222.770647 
L 218.499343 241.012241 
L 329.658236 271.611042 
" clip-path="url(#pae7bd09af2)" style="fill: none; stroke-dasharray: 3.7,1.6; stroke-dashoffset: 0; stroke: #2ca02c"/>
    <defs>
     <path id="m046eaf3a4e" d="M -3 3 
L 3 3 
L 3 -3 
L -3 -3 
z
" style="stroke: #000000; stroke-linejoin: miter"/>
    </defs>
    <g clip-path="url(#pae7bd09af2)">
     <use xlink:href="#m046eaf3a4e" x="70.287485" y="307.8" style="fill: #2ca02c; stroke: #000000; stroke-linejoin: miter"/>
     <use xlink:href="#m046eaf3a4e" x="88.813967" y="230.714571" style="fill: #2ca02c; stroke: #000000; stroke-linejoin: miter"/>
     <use xlink:href="#m046eaf3a4e" x="107.34045" y="208.64813" style="fill: #2ca02c; stroke: #000000; stroke-linejoin: miter"/>
     <use xlink:href="#m046eaf3a4e" x="144.393414" y="204.234846" style="fill: #2ca02c; stroke: #000000; stroke-linejoin: miter"/>
     <use xlink:href="#m046eaf3a4e" x="181.446378" y="222.770647" style="fill: #2ca02c; stroke: #000000; stroke-linejoin: miter"/>
     <use xlink:href="#m046eaf3a4e" x="218.499343" y="241.012241" style="fill: #2ca02c; stroke: #000000; stroke-linejoin: miter"/>
     <use xlink:href="#m046eaf3a4e" x="329.658236" y="271.611042" style="fill: #2ca02c; stroke: #000000; stroke-linejoin: miter"/>
    </g>
   </g>
   <g id="line2d_19">
    <path d="M 70.287485 307.8 
L 72.757683 281.525115 
L 75.536655 254.4543 
L 78.006853 232.437675 
L 80.47705 212.227559 
L 82.947248 193.715562 
L 85.417446 176.799065 
L 87.887643 161.380929 
L 90.357841 147.369225 
L 92.828039 134.676965 
L 95.298236 123.221862 
L 97.768434 112.926086 
L 99.929857 104.810336 
L 102.09128 97.479018 
L 104.252703 90.887613 
L 106.414125 84.993752 
L 108.575548 79.75712 
L 110.736971 75.139365 
L 112.898394 71.104009 
L 114.751042 68.082333 
L 116.603691 65.442187 
L 118.456339 63.163616 
L 120.308987 61.227517 
L 122.161635 59.615605 
L 124.014284 58.310383 
L 125.866932 57.295109 
L 127.71958 56.553769 
L 129.572228 56.071045 
L 131.424876 55.83229 
L 133.277525 55.8235 
L 135.130173 56.031291 
L 136.982821 56.442872 
L 139.144244 57.164343 
L 141.305667 58.128115 
L 143.775865 59.503856 
L 146.246062 61.14859 
L 149.025035 63.29166 
L 151.804007 65.715041 
L 154.891754 68.701566 
L 158.288276 72.302012 
L 161.993572 76.555705 
L 166.316418 81.880036 
L 171.256813 88.350519 
L 177.123533 96.438431 
L 184.534125 107.074667 
L 197.193888 125.718377 
L 210.162426 144.677203 
L 218.808118 156.923969 
L 226.527485 167.470238 
L 233.629303 176.793472 
L 240.422347 185.3394 
L 246.906616 193.139581 
L 253.08211 200.234505 
L 259.257604 206.999614 
L 265.433098 213.434547 
L 271.608592 219.541949 
L 277.784086 225.326894 
L 283.95958 230.796405 
L 290.135074 235.959035 
L 296.310568 240.824514 
L 302.486062 245.403454 
L 308.661556 249.707086 
L 314.83705 253.747055 
L 321.321319 257.718255 
L 327.805588 261.42571 
L 334.289857 264.883219 
L 341.0829 268.252125 
L 347.875944 271.376996 
L 354.977762 274.399154 
L 362.388355 277.303482 
L 369.798948 279.970929 
L 377.518315 282.516009 
L 379.062189 282.998028 
L 379.062189 282.998028 
" clip-path="url(#pae7bd09af2)" style="fill: none; stroke: #d62728; stroke-width: 2; stroke-linecap: square"/>
   </g>
   <g id="line2d_20">
    <path d="M 70.287485 307.8 
L 88.813967 153.92336 
L 107.34045 120.676595 
L 144.393414 117.734402 
L 181.446378 150.686949 
L 218.499343 185.110598 
L 329.658236 240.718013 
" clip-path="url(#pae7bd09af2)" style="fill: none; stroke-dasharray: 3.7,1.6; stroke-dashoffset: 0; stroke: #d62728"/>
    <defs>
     <path id="me3bd961137" d="M -3 3 
L 3 3 
L 3 -3 
L -3 -3 
z
" style="stroke: #000000; stroke-linejoin: miter"/>
    </defs>
    <g clip-path="url(#pae7bd09af2)">
     <use xlink:href="#me3bd961137" x="70.287485" y="307.8" style="fill: #d62728; stroke: #000000; stroke-linejoin: miter"/>
     <use xlink:href="#me3bd961137" x="88.813967" y="153.92336" style="fill: #d62728; stroke: #000000; stroke-linejoin: miter"/>
     <use xlink:href="#me3bd961137" x="107.34045" y="120.676595" style="fill: #d62728; stroke: #000000; stroke-linejoin: miter"/>
     <use xlink:href="#me3bd961137" x="144.393414" y="117.734402" style="fill: #d62728; stroke: #000000; stroke-linejoin: miter"/>
     <use xlink:href="#me3bd961137" x="181.446378" y="150.686949" style="fill: #d62728; stroke: #000000; stroke-linejoin: miter"/>
     <use xlink:href="#me3bd961137" x="218.499343" y="185.110598" style="fill: #d62728; stroke: #000000; stroke-linejoin: miter"/>
     <use xlink:href="#me3bd961137" x="329.658236" y="240.718013" style="fill: #d62728; stroke: #000000; stroke-linejoin: miter"/>
    </g>
   </g>
   <g id="patch_3">
    <path d="M 54.84875 320.4 
L 54.84875 43.2 
" style="fill: none; stroke: #000000; stroke-width: 0.8; stroke-linejoin: miter; stroke-linecap: square"/>
   </g>
   <g id="patch_4">
    <path d="M 394.500924 320.4 
L 394.500924 43.2 
" style="fill: none; stroke: #000000; stroke-width: 0.8; stroke-linejoin: miter; stroke-linecap: square"/>
   </g>
   <g id="patch_5">
    <path d="M 54.84875 320.4 
L 394.500924 320.4 
" style="fill: none; stroke: #000000; stroke-width: 0.8; stroke-linejoin: miter; stroke-linecap: square"/>
   </g>
   <g id="patch_6">
    <path d="M 54.84875 43.2 
L 394.500924 43.2 
" style="fill: none; stroke: #000000; stroke-width: 0.8; stroke-linejoin: miter; stroke-linecap: square"/>
   </g>
   <g id="text_17">
    <!-- (healthy) -->
    <g transform="translate(173.038899 37.2) scale(0.2 -0.2)">
     <defs>
      <path id="DejaVuSans-Bold-28" d="M 2413 -844 
L 1484 -844 
Q 1006 -72 778 623 
Q 550 1319 550 2003 
Q 550 2688 779 3389 
Q 1009 4091 1484 4856 
L 2413 4856 
Q 2013 4116 1813 3408 
Q 1613 2700 1613 2009 
Q 1613 1319 1811 609 
Q 2009 -100 2413 -844 
z
" transform="scale(0.015625)"/>
      <path id="DejaVuSans-Bold-68" d="M 4056 2131 
L 4056 0 
L 2931 0 
L 2931 347 
L 2931 1625 
Q 2931 2084 2911 2256 
Q 2891 2428 2841 2509 
Q 2775 2619 2662 2680 
Q 2550 2741 2406 2741 
Q 2056 2741 1856 2470 
Q 1656 2200 1656 1722 
L 1656 0 
L 538 0 
L 538 4863 
L 1656 4863 
L 1656 2988 
Q 1909 3294 2193 3439 
Q 2478 3584 2822 3584 
Q 3428 3584 3742 3212 
Q 4056 2841 4056 2131 
z
" transform="scale(0.015625)"/>
      <path id="DejaVuSans-Bold-79" d="M 78 3500 
L 1197 3500 
L 2138 1125 
L 2938 3500 
L 4056 3500 
L 2584 -331 
Q 2363 -916 2067 -1148 
Q 1772 -1381 1288 -1381 
L 641 -1381 
L 641 -647 
L 991 -647 
Q 1275 -647 1404 -556 
Q 1534 -466 1606 -231 
L 1638 -134 
L 78 3500 
z
" transform="scale(0.015625)"/>
      <path id="DejaVuSans-Bold-29" d="M 513 -844 
Q 913 -100 1113 609 
Q 1313 1319 1313 2009 
Q 1313 2700 1113 3408 
Q 913 4116 513 4856 
L 1441 4856 
Q 1916 4091 2145 3389 
Q 2375 2688 2375 2003 
Q 2375 1319 2147 623 
Q 1919 -72 1441 -844 
L 513 -844 
z
" transform="scale(0.015625)"/>
     </defs>
     <use xlink:href="#DejaVuSans-Bold-28"/>
     <use xlink:href="#DejaVuSans-Bold-68" transform="translate(45.703125 0)"/>
     <use xlink:href="#DejaVuSans-Bold-65" transform="translate(116.894531 0)"/>
     <use xlink:href="#DejaVuSans-Bold-61" transform="translate(184.716797 0)"/>
     <use xlink:href="#DejaVuSans-Bold-6c" transform="translate(252.197266 0)"/>
     <use xlink:href="#DejaVuSans-Bold-74" transform="translate(286.474609 0)"/>
     <use xlink:href="#DejaVuSans-Bold-68" transform="translate(334.277344 0)"/>
     <use xlink:href="#DejaVuSans-Bold-79" transform="translate(405.46875 0)"/>
     <use xlink:href="#DejaVuSans-Bold-29" transform="translate(470.654297 0)"/>
    </g>
   </g>
   <g id="legend_1">
    <g id="patch_7">
     <path d="M 248.622799 139.26875 
L 387.500924 139.26875 
Q 389.500924 139.26875 389.500924 137.26875 
L 389.500924 50.2 
Q 389.500924 48.2 387.500924 48.2 
L 248.622799 48.2 
Q 246.622799 48.2 246.622799 50.2 
L 246.622799 137.26875 
Q 246.622799 139.26875 248.622799 139.26875 
z
" style="fill: #ffffff; opacity: 0.8; stroke: #cccccc; stroke-linejoin: miter"/>
    </g>
    <g id="line2d_21">
     <path d="M 250.622799 56.298437 
L 270.622799 56.298437 
" style="fill: none; stroke: #1f77b4; stroke-width: 2; stroke-linecap: square"/>
    </g>
    <g id="line2d_22"/>
    <g id="text_18">
     <!-- DUL05S -->
     <g transform="translate(278.622799 59.798437) scale(0.1 -0.1)">
      <defs>
       <path id="DejaVuSans-44" d="M 1259 4147 
L 1259 519 
L 2022 519 
Q 2988 519 3436 956 
Q 3884 1394 3884 2338 
Q 3884 3275 3436 3711 
Q 2988 4147 2022 4147 
L 1259 4147 
z
M 628 4666 
L 1925 4666 
Q 3281 4666 3915 4102 
Q 4550 3538 4550 2338 
Q 4550 1131 3912 565 
Q 3275 0 1925 0 
L 628 0 
L 628 4666 
z
" transform="scale(0.015625)"/>
       <path id="DejaVuSans-55" d="M 556 4666 
L 1191 4666 
L 1191 1831 
Q 1191 1081 1462 751 
Q 1734 422 2344 422 
Q 2950 422 3222 751 
Q 3494 1081 3494 1831 
L 3494 4666 
L 4128 4666 
L 4128 1753 
Q 4128 841 3676 375 
Q 3225 -91 2344 -91 
Q 1459 -91 1007 375 
Q 556 841 556 1753 
L 556 4666 
z
" transform="scale(0.015625)"/>
       <path id="DejaVuSans-4c" d="M 628 4666 
L 1259 4666 
L 1259 531 
L 3531 531 
L 3531 0 
L 628 0 
L 628 4666 
z
" transform="scale(0.015625)"/>
       <path id="DejaVuSans-53" d="M 3425 4513 
L 3425 3897 
Q 3066 4069 2747 4153 
Q 2428 4238 2131 4238 
Q 1616 4238 1336 4038 
Q 1056 3838 1056 3469 
Q 1056 3159 1242 3001 
Q 1428 2844 1947 2747 
L 2328 2669 
Q 3034 2534 3370 2195 
Q 3706 1856 3706 1288 
Q 3706 609 3251 259 
Q 2797 -91 1919 -91 
Q 1588 -91 1214 -16 
Q 841 59 441 206 
L 441 856 
Q 825 641 1194 531 
Q 1563 422 1919 422 
Q 2459 422 2753 634 
Q 3047 847 3047 1241 
Q 3047 1584 2836 1778 
Q 2625 1972 2144 2069 
L 1759 2144 
Q 1053 2284 737 2584 
Q 422 2884 422 3419 
Q 422 4038 858 4394 
Q 1294 4750 2059 4750 
Q 2388 4750 2728 4690 
Q 3069 4631 3425 4513 
z
" transform="scale(0.015625)"/>
      </defs>
      <use xlink:href="#DejaVuSans-44"/>
      <use xlink:href="#DejaVuSans-55" transform="translate(77.001953 0)"/>
      <use xlink:href="#DejaVuSans-4c" transform="translate(150.195312 0)"/>
      <use xlink:href="#DejaVuSans-30" transform="translate(205.908203 0)"/>
      <use xlink:href="#DejaVuSans-35" transform="translate(269.53125 0)"/>
      <use xlink:href="#DejaVuSans-53" transform="translate(333.154297 0)"/>
     </g>
    </g>
    <g id="LineCollection_4">
     <path d="M 260.622799 75.976562 
L 260.622799 65.976562 
" style="fill: none; stroke: #1f77b4"/>
    </g>
    <g id="line2d_23">
     <path d="M 250.622799 70.976562 
L 270.622799 70.976562 
" style="fill: none; stroke-dasharray: 3.7,1.6; stroke-dashoffset: 0; stroke: #1f77b4"/>
    </g>
    <g id="line2d_24">
     <g>
      <use xlink:href="#m8a1a67db6e" x="260.622799" y="70.976562" style="fill: #1f77b4; stroke: #000000; stroke-linejoin: miter"/>
     </g>
    </g>
    <g id="text_19">
     <!-- DUL05S±SD (n=16) -->
     <g transform="translate(278.622799 74.476562) scale(0.1 -0.1)">
      <defs>
       <path id="DejaVuSans-b1" d="M 2944 4013 
L 2944 2803 
L 4684 2803 
L 4684 2272 
L 2944 2272 
L 2944 1063 
L 2419 1063 
L 2419 2272 
L 678 2272 
L 678 2803 
L 2419 2803 
L 2419 4013 
L 2944 4013 
z
M 678 531 
L 4684 531 
L 4684 0 
L 678 0 
L 678 531 
z
" transform="scale(0.015625)"/>
       <path id="DejaVuSans-20" transform="scale(0.015625)"/>
       <path id="DejaVuSans-28" d="M 1984 4856 
Q 1566 4138 1362 3434 
Q 1159 2731 1159 2009 
Q 1159 1288 1364 580 
Q 1569 -128 1984 -844 
L 1484 -844 
Q 1016 -109 783 600 
Q 550 1309 550 2009 
Q 550 2706 781 3412 
Q 1013 4119 1484 4856 
L 1984 4856 
z
" transform="scale(0.015625)"/>
       <path id="DejaVuSans-6e" d="M 3513 2113 
L 3513 0 
L 2938 0 
L 2938 2094 
Q 2938 2591 2744 2837 
Q 2550 3084 2163 3084 
Q 1697 3084 1428 2787 
Q 1159 2491 1159 1978 
L 1159 0 
L 581 0 
L 581 3500 
L 1159 3500 
L 1159 2956 
Q 1366 3272 1645 3428 
Q 1925 3584 2291 3584 
Q 2894 3584 3203 3211 
Q 3513 2838 3513 2113 
z
" transform="scale(0.015625)"/>
       <path id="DejaVuSans-3d" d="M 678 2906 
L 4684 2906 
L 4684 2381 
L 678 2381 
L 678 2906 
z
M 678 1631 
L 4684 1631 
L 4684 1100 
L 678 1100 
L 678 1631 
z
" transform="scale(0.015625)"/>
       <path id="DejaVuSans-29" d="M 513 4856 
L 1013 4856 
Q 1481 4119 1714 3412 
Q 1947 2706 1947 2009 
Q 1947 1309 1714 600 
Q 1481 -109 1013 -844 
L 513 -844 
Q 928 -128 1133 580 
Q 1338 1288 1338 2009 
Q 1338 2731 1133 3434 
Q 928 4138 513 4856 
z
" transform="scale(0.015625)"/>
      </defs>
      <use xlink:href="#DejaVuSans-44"/>
      <use xlink:href="#DejaVuSans-55" transform="translate(77.001953 0)"/>
      <use xlink:href="#DejaVuSans-4c" transform="translate(150.195312 0)"/>
      <use xlink:href="#DejaVuSans-30" transform="translate(205.908203 0)"/>
      <use xlink:href="#DejaVuSans-35" transform="translate(269.53125 0)"/>
      <use xlink:href="#DejaVuSans-53" transform="translate(333.154297 0)"/>
      <use xlink:href="#DejaVuSans-b1" transform="translate(396.630859 0)"/>
      <use xlink:href="#DejaVuSans-53" transform="translate(480.419922 0)"/>
      <use xlink:href="#DejaVuSans-44" transform="translate(543.896484 0)"/>
      <use xlink:href="#DejaVuSans-20" transform="translate(620.898438 0)"/>
      <use xlink:href="#DejaVuSans-28" transform="translate(652.685547 0)"/>
      <use xlink:href="#DejaVuSans-6e" transform="translate(691.699219 0)"/>
      <use xlink:href="#DejaVuSans-3d" transform="translate(755.078125 0)"/>
      <use xlink:href="#DejaVuSans-31" transform="translate(838.867188 0)"/>
      <use xlink:href="#DejaVuSans-36" transform="translate(902.490234 0)"/>
      <use xlink:href="#DejaVuSans-29" transform="translate(966.113281 0)"/>
     </g>
    </g>
    <g id="line2d_25">
     <path d="M 250.622799 85.654687 
L 270.622799 85.654687 
" style="fill: none; stroke: #2ca02c; stroke-width: 2; stroke-linecap: square"/>
    </g>
    <g id="line2d_26"/>
    <g id="text_20">
     <!-- DUL075S -->
     <g transform="translate(278.622799 89.154687) scale(0.1 -0.1)">
      <defs>
       <path id="DejaVuSans-37" d="M 525 4666 
L 3525 4666 
L 3525 4397 
L 1831 0 
L 1172 0 
L 2766 4134 
L 525 4134 
L 525 4666 
z
" transform="scale(0.015625)"/>
      </defs>
      <use xlink:href="#DejaVuSans-44"/>
      <use xlink:href="#DejaVuSans-55" transform="translate(77.001953 0)"/>
      <use xlink:href="#DejaVuSans-4c" transform="translate(150.195312 0)"/>
      <use xlink:href="#DejaVuSans-30" transform="translate(205.908203 0)"/>
      <use xlink:href="#DejaVuSans-37" transform="translate(269.53125 0)"/>
      <use xlink:href="#DejaVuSans-35" transform="translate(333.154297 0)"/>
      <use xlink:href="#DejaVuSans-53" transform="translate(396.777344 0)"/>
     </g>
    </g>
    <g id="LineCollection_5">
     <path d="M 260.622799 105.332812 
L 260.622799 95.332812 
" style="fill: none; stroke: #2ca02c"/>
    </g>
    <g id="line2d_27">
     <path d="M 250.622799 100.332812 
L 270.622799 100.332812 
" style="fill: none; stroke-dasharray: 3.7,1.6; stroke-dashoffset: 0; stroke: #2ca02c"/>
    </g>
    <g id="line2d_28">
     <g>
      <use xlink:href="#m046eaf3a4e" x="260.622799" y="100.332812" style="fill: #2ca02c; stroke: #000000; stroke-linejoin: miter"/>
     </g>
    </g>
    <g id="text_21">
     <!-- DUL075S±SD (n=16) -->
     <g transform="translate(278.622799 103.832812) scale(0.1 -0.1)">
      <use xlink:href="#DejaVuSans-44"/>
      <use xlink:href="#DejaVuSans-55" transform="translate(77.001953 0)"/>
      <use xlink:href="#DejaVuSans-4c" transform="translate(150.195312 0)"/>
      <use xlink:href="#DejaVuSans-30" transform="translate(205.908203 0)"/>
      <use xlink:href="#DejaVuSans-37" transform="translate(269.53125 0)"/>
      <use xlink:href="#DejaVuSans-35" transform="translate(333.154297 0)"/>
      <use xlink:href="#DejaVuSans-53" transform="translate(396.777344 0)"/>
      <use xlink:href="#DejaVuSans-b1" transform="translate(460.253906 0)"/>
      <use xlink:href="#DejaVuSans-53" transform="translate(544.042969 0)"/>
      <use xlink:href="#DejaVuSans-44" transform="translate(607.519531 0)"/>
      <use xlink:href="#DejaVuSans-20" transform="translate(684.521484 0)"/>
      <use xlink:href="#DejaVuSans-28" transform="translate(716.308594 0)"/>
      <use xlink:href="#DejaVuSans-6e" transform="translate(755.322266 0)"/>
      <use xlink:href="#DejaVuSans-3d" transform="translate(818.701172 0)"/>
      <use xlink:href="#DejaVuSans-31" transform="translate(902.490234 0)"/>
      <use xlink:href="#DejaVuSans-36" transform="translate(966.113281 0)"/>
      <use xlink:href="#DejaVuSans-29" transform="translate(1029.736328 0)"/>
     </g>
    </g>
    <g id="line2d_29">
     <path d="M 250.622799 115.010937 
L 270.622799 115.010937 
" style="fill: none; stroke: #d62728; stroke-width: 2; stroke-linecap: square"/>
    </g>
    <g id="line2d_30"/>
    <g id="text_22">
     <!-- DUL15S -->
     <g transform="translate(278.622799 118.510937) scale(0.1 -0.1)">
      <use xlink:href="#DejaVuSans-44"/>
      <use xlink:href="#DejaVuSans-55" transform="translate(77.001953 0)"/>
      <use xlink:href="#DejaVuSans-4c" transform="translate(150.195312 0)"/>
      <use xlink:href="#DejaVuSans-31" transform="translate(205.908203 0)"/>
      <use xlink:href="#DejaVuSans-35" transform="translate(269.53125 0)"/>
      <use xlink:href="#DejaVuSans-53" transform="translate(333.154297 0)"/>
     </g>
    </g>
    <g id="LineCollection_6">
     <path d="M 260.622799 134.689062 
L 260.622799 124.689062 
" style="fill: none; stroke: #d62728"/>
    </g>
    <g id="line2d_31">
     <path d="M 250.622799 129.689062 
L 270.622799 129.689062 
" style="fill: none; stroke-dasharray: 3.7,1.6; stroke-dashoffset: 0; stroke: #d62728"/>
    </g>
    <g id="line2d_32">
     <g>
      <use xlink:href="#me3bd961137" x="260.622799" y="129.689062" style="fill: #d62728; stroke: #000000; stroke-linejoin: miter"/>
     </g>
    </g>
    <g id="text_23">
     <!-- DUL15S±SD (n=16) -->
     <g transform="translate(278.622799 133.189062) scale(0.1 -0.1)">
      <use xlink:href="#DejaVuSans-44"/>
      <use xlink:href="#DejaVuSans-55" transform="translate(77.001953 0)"/>
      <use xlink:href="#DejaVuSans-4c" transform="translate(150.195312 0)"/>
      <use xlink:href="#DejaVuSans-31" transform="translate(205.908203 0)"/>
      <use xlink:href="#DejaVuSans-35" transform="translate(269.53125 0)"/>
      <use xlink:href="#DejaVuSans-53" transform="translate(333.154297 0)"/>
      <use xlink:href="#DejaVuSans-b1" transform="translate(396.630859 0)"/>
      <use xlink:href="#DejaVuSans-53" transform="translate(480.419922 0)"/>
      <use xlink:href="#DejaVuSans-44" transform="translate(543.896484 0)"/>
      <use xlink:href="#DejaVuSans-20" transform="translate(620.898438 0)"/>
      <use xlink:href="#DejaVuSans-28" transform="translate(652.685547 0)"/>
      <use xlink:href="#DejaVuSans-6e" transform="translate(691.699219 0)"/>
      <use xlink:href="#DejaVuSans-3d" transform="translate(755.078125 0)"/>
      <use xlink:href="#DejaVuSans-31" transform="translate(838.867188 0)"/>
      <use xlink:href="#DejaVuSans-36" transform="translate(902.490234 0)"/>
      <use xlink:href="#DejaVuSans-29" transform="translate(966.113281 0)"/>
     </g>
    </g>
   </g>
  </g>
  <g id="axes_2">
   <g id="patch_8">
    <path d="M 496.396576 320.4 
L 836.04875 320.4 
L 836.04875 43.2 
L 496.396576 43.2 
z
" style="fill: #ffffff"/>
   </g>
   <g id="matplotlib.axis_3">
    <g id="xtick_8">
     <g id="line2d_33">
      <g>
       <use xlink:href="#ma751dce5ea" x="511.835311" y="320.4" style="stroke: #000000; stroke-width: 0.8"/>
      </g>
     </g>
     <g id="text_24">
      <!-- 0 -->
      <g transform="translate(507.063436 338.797656) scale(0.15 -0.15)">
       <use xlink:href="#DejaVuSans-30"/>
      </g>
     </g>
    </g>
    <g id="xtick_9">
     <g id="line2d_34">
      <g>
       <use xlink:href="#ma751dce5ea" x="600.056655" y="320.4" style="stroke: #000000; stroke-width: 0.8"/>
      </g>
     </g>
     <g id="text_25">
      <!-- 2 -->
      <g transform="translate(595.28478 338.797656) scale(0.15 -0.15)">
       <use xlink:href="#DejaVuSans-32"/>
      </g>
     </g>
    </g>
    <g id="xtick_10">
     <g id="line2d_35">
      <g>
       <use xlink:href="#ma751dce5ea" x="688.277999" y="320.4" style="stroke: #000000; stroke-width: 0.8"/>
      </g>
     </g>
     <g id="text_26">
      <!-- 4 -->
      <g transform="translate(683.506124 338.797656) scale(0.15 -0.15)">
       <use xlink:href="#DejaVuSans-34"/>
      </g>
     </g>
    </g>
    <g id="xtick_11">
     <g id="line2d_36">
      <g>
       <use xlink:href="#ma751dce5ea" x="776.499343" y="320.4" style="stroke: #000000; stroke-width: 0.8"/>
      </g>
     </g>
     <g id="text_27">
      <!-- 6 -->
      <g transform="translate(771.727468 338.797656) scale(0.15 -0.15)">
       <use xlink:href="#DejaVuSans-36"/>
      </g>
     </g>
    </g>
    <g id="text_28">
     <!-- time [week] -->
     <g transform="translate(605.483913 359.594375) scale(0.18 -0.18)">
      <use xlink:href="#DejaVuSans-Bold-74"/>
      <use xlink:href="#DejaVuSans-Bold-69" transform="translate(47.802734 0)"/>
      <use xlink:href="#DejaVuSans-Bold-6d" transform="translate(82.080078 0)"/>
      <use xlink:href="#DejaVuSans-Bold-65" transform="translate(186.279297 0)"/>
      <use xlink:href="#DejaVuSans-Bold-20" transform="translate(254.101562 0)"/>
      <use xlink:href="#DejaVuSans-Bold-5b" transform="translate(288.916016 0)"/>
      <use xlink:href="#DejaVuSans-Bold-77" transform="translate(334.619141 0)"/>
      <use xlink:href="#DejaVuSans-Bold-65" transform="translate(427.001953 0)"/>
      <use xlink:href="#DejaVuSans-Bold-65" transform="translate(494.824219 0)"/>
      <use xlink:href="#DejaVuSans-Bold-6b" transform="translate(562.646484 0)"/>
      <use xlink:href="#DejaVuSans-Bold-5d" transform="translate(629.150391 0)"/>
     </g>
    </g>
   </g>
   <g id="matplotlib.axis_4">
    <g id="ytick_8">
     <g id="line2d_37">
      <g>
       <use xlink:href="#mde7c96ae04" x="496.396576" y="302.227631" style="stroke: #000000; stroke-width: 0.8"/>
      </g>
     </g>
     <g id="text_29">
      <!-- 0 -->
      <g transform="translate(479.852826 307.92646) scale(0.15 -0.15)">
       <use xlink:href="#DejaVuSans-30"/>
      </g>
     </g>
    </g>
    <g id="ytick_9">
     <g id="line2d_38">
      <g>
       <use xlink:href="#mde7c96ae04" x="496.396576" y="264.619569" style="stroke: #000000; stroke-width: 0.8"/>
      </g>
     </g>
     <g id="text_30">
      <!-- 5 -->
      <g transform="translate(479.852826 270.318397) scale(0.15 -0.15)">
       <use xlink:href="#DejaVuSans-35"/>
      </g>
     </g>
    </g>
    <g id="ytick_10">
     <g id="line2d_39">
      <g>
       <use xlink:href="#mde7c96ae04" x="496.396576" y="227.011507" style="stroke: #000000; stroke-width: 0.8"/>
      </g>
     </g>
     <g id="text_31">
      <!-- 10 -->
      <g transform="translate(470.309076 232.710335) scale(0.15 -0.15)">
       <use xlink:href="#DejaVuSans-31"/>
       <use xlink:href="#DejaVuSans-30" transform="translate(63.623047 0)"/>
      </g>
     </g>
    </g>
    <g id="ytick_11">
     <g id="line2d_40">
      <g>
       <use xlink:href="#mde7c96ae04" x="496.396576" y="189.403444" style="stroke: #000000; stroke-width: 0.8"/>
      </g>
     </g>
     <g id="text_32">
      <!-- 15 -->
      <g transform="translate(470.309076 195.102272) scale(0.15 -0.15)">
       <use xlink:href="#DejaVuSans-31"/>
       <use xlink:href="#DejaVuSans-35" transform="translate(63.623047 0)"/>
      </g>
     </g>
    </g>
    <g id="ytick_12">
     <g id="line2d_41">
      <g>
       <use xlink:href="#mde7c96ae04" x="496.396576" y="151.795382" style="stroke: #000000; stroke-width: 0.8"/>
      </g>
     </g>
     <g id="text_33">
      <!-- 20 -->
      <g transform="translate(470.309076 157.49421) scale(0.15 -0.15)">
       <use xlink:href="#DejaVuSans-32"/>
       <use xlink:href="#DejaVuSans-30" transform="translate(63.623047 0)"/>
      </g>
     </g>
    </g>
    <g id="ytick_13">
     <g id="line2d_42">
      <g>
       <use xlink:href="#mde7c96ae04" x="496.396576" y="114.18732" style="stroke: #000000; stroke-width: 0.8"/>
      </g>
     </g>
     <g id="text_34">
      <!-- 25 -->
      <g transform="translate(470.309076 119.886148) scale(0.15 -0.15)">
       <use xlink:href="#DejaVuSans-32"/>
       <use xlink:href="#DejaVuSans-35" transform="translate(63.623047 0)"/>
      </g>
     </g>
    </g>
    <g id="ytick_14">
     <g id="line2d_43">
      <g>
       <use xlink:href="#mde7c96ae04" x="496.396576" y="76.579257" style="stroke: #000000; stroke-width: 0.8"/>
      </g>
     </g>
     <g id="text_35">
      <!-- 30 -->
      <g transform="translate(470.309076 82.278085) scale(0.15 -0.15)">
       <use xlink:href="#DejaVuSans-33"/>
       <use xlink:href="#DejaVuSans-30" transform="translate(63.623047 0)"/>
      </g>
     </g>
    </g>
    <g id="text_36">
     <!-- dulaglutide plasma [nM] -->
     <g transform="translate(462.425014 305.940937) rotate(-90) scale(0.18 -0.18)">
      <use xlink:href="#DejaVuSans-Bold-64"/>
      <use xlink:href="#DejaVuSans-Bold-75" transform="translate(71.582031 0)"/>
      <use xlink:href="#DejaVuSans-Bold-6c" transform="translate(142.773438 0)"/>
      <use xlink:href="#DejaVuSans-Bold-61" transform="translate(177.050781 0)"/>
      <use xlink:href="#DejaVuSans-Bold-67" transform="translate(244.53125 0)"/>
      <use xlink:href="#DejaVuSans-Bold-6c" transform="translate(316.113281 0)"/>
      <use xlink:href="#DejaVuSans-Bold-75" transform="translate(350.390625 0)"/>
      <use xlink:href="#DejaVuSans-Bold-74" transform="translate(421.582031 0)"/>
      <use xlink:href="#DejaVuSans-Bold-69" transform="translate(469.384766 0)"/>
      <use xlink:href="#DejaVuSans-Bold-64" transform="translate(503.662109 0)"/>
      <use xlink:href="#DejaVuSans-Bold-65" transform="translate(575.244141 0)"/>
      <use xlink:href="#DejaVuSans-Bold-20" transform="translate(643.066406 0)"/>
      <use xlink:href="#DejaVuSans-Bold-70" transform="translate(677.880859 0)"/>
      <use xlink:href="#DejaVuSans-Bold-6c" transform="translate(749.462891 0)"/>
      <use xlink:href="#DejaVuSans-Bold-61" transform="translate(783.740234 0)"/>
      <use xlink:href="#DejaVuSans-Bold-73" transform="translate(851.220703 0)"/>
      <use xlink:href="#DejaVuSans-Bold-6d" transform="translate(910.742188 0)"/>
      <use xlink:href="#DejaVuSans-Bold-61" transform="translate(1014.941406 0)"/>
      <use xlink:href="#DejaVuSans-Bold-20" transform="translate(1082.421875 0)"/>
      <use xlink:href="#DejaVuSans-Bold-5b" transform="translate(1117.236328 0)"/>
      <use xlink:href="#DejaVuSans-Bold-6e" transform="translate(1162.939453 0)"/>
      <use xlink:href="#DejaVuSans-Bold-4d" transform="translate(1234.130859 0)"/>
      <use xlink:href="#DejaVuSans-Bold-5d" transform="translate(1333.642578 0)"/>
     </g>
    </g>
   </g>
   <g id="LineCollection_7">
    <path d="M 511.835311 302.227631 
L 511.835311 302.227631 
" clip-path="url(#p565e1d83b5)" style="fill: none; stroke: #1f77b4"/>
    <path d="M 514.986074 307.8 
L 514.986074 275.378943 
" clip-path="url(#p565e1d83b5)" style="fill: none; stroke: #1f77b4"/>
    <path d="M 518.136836 271.326324 
L 518.136836 253.089469 
" clip-path="url(#p565e1d83b5)" style="fill: none; stroke: #1f77b4"/>
    <path d="M 524.43836 262.714474 
L 524.43836 247.010523 
" clip-path="url(#p565e1d83b5)" style="fill: none; stroke: #1f77b4"/>
    <path d="M 530.739885 266.260533 
L 530.739885 252.582892 
" clip-path="url(#p565e1d83b5)" style="fill: none; stroke: #1f77b4"/>
    <path d="M 537.04141 268.033562 
L 537.04141 260.941445 
" clip-path="url(#p565e1d83b5)" style="fill: none; stroke: #1f77b4"/>
    <path d="M 644.167327 302.509145 
L 644.167327 273.791786 
" clip-path="url(#p565e1d83b5)" style="fill: none; stroke: #1f77b4"/>
    <path d="M 650.468852 276.888741 
L 650.468852 234.094216 
" clip-path="url(#p565e1d83b5)" style="fill: none; stroke: #1f77b4"/>
    <path d="M 653.619614 262.811594 
L 653.619614 227.337185 
" clip-path="url(#p565e1d83b5)" style="fill: none; stroke: #1f77b4"/>
    <path d="M 656.770376 254.928413 
L 656.770376 229.589523 
" clip-path="url(#p565e1d83b5)" style="fill: none; stroke: #1f77b4"/>
    <path d="M 663.071901 259.71464 
L 663.071901 242.258968 
" clip-path="url(#p565e1d83b5)" style="fill: none; stroke: #1f77b4"/>
    <path d="M 669.373425 266.190119 
L 669.373425 252.676057 
" clip-path="url(#p565e1d83b5)" style="fill: none; stroke: #1f77b4"/>
   </g>
   <g id="LineCollection_8">
    <path d="M 511.835311 302.227631 
L 511.835311 302.227631 
" clip-path="url(#p565e1d83b5)" style="fill: none; stroke: #2ca02c"/>
    <path d="M 514.986074 280.444718 
L 514.986074 241.944732 
" clip-path="url(#p565e1d83b5)" style="fill: none; stroke: #2ca02c"/>
    <path d="M 518.136836 256.382231 
L 518.136836 222.94802 
" clip-path="url(#p565e1d83b5)" style="fill: none; stroke: #2ca02c"/>
    <path d="M 524.43836 245.744088 
L 524.43836 216.362496 
" clip-path="url(#p565e1d83b5)" style="fill: none; stroke: #2ca02c"/>
    <path d="M 530.739885 253.089469 
L 530.739885 221.681567 
" clip-path="url(#p565e1d83b5)" style="fill: none; stroke: #2ca02c"/>
    <path d="M 537.04141 259.168415 
L 537.04141 229.280263 
" clip-path="url(#p565e1d83b5)" style="fill: none; stroke: #2ca02c"/>
    <path d="M 555.945983 275.885521 
L 555.945983 256.128951 
" clip-path="url(#p565e1d83b5)" style="fill: none; stroke: #2ca02c"/>
    <path d="M 644.167327 265.063932 
L 644.167327 245.919026 
" clip-path="url(#p565e1d83b5)" style="fill: none; stroke: #2ca02c"/>
    <path d="M 650.468852 242.258968 
L 650.468852 218.609349 
" clip-path="url(#p565e1d83b5)" style="fill: none; stroke: #2ca02c"/>
    <path d="M 653.619614 226.774091 
L 653.619614 194.115104 
" clip-path="url(#p565e1d83b5)" style="fill: none; stroke: #2ca02c"/>
    <path d="M 656.770376 225.929474 
L 656.770376 191.581215 
" clip-path="url(#p565e1d83b5)" style="fill: none; stroke: #2ca02c"/>
    <path d="M 663.071901 235.783488 
L 663.071901 199.182873 
" clip-path="url(#p565e1d83b5)" style="fill: none; stroke: #2ca02c"/>
    <path d="M 669.373425 243.385137 
L 669.373425 214.66774 
" clip-path="url(#p565e1d83b5)" style="fill: none; stroke: #2ca02c"/>
    <path d="M 675.67495 268.442476 
L 675.67495 249.297532 
" clip-path="url(#p565e1d83b5)" style="fill: none; stroke: #2ca02c"/>
   </g>
   <g id="LineCollection_9">
    <path d="M 511.835311 302.227631 
L 511.835311 302.227631 
" clip-path="url(#p565e1d83b5)" style="fill: none; stroke: #d62728"/>
    <path d="M 514.986074 276.044124 
L 514.986074 200.590593 
" clip-path="url(#p565e1d83b5)" style="fill: none; stroke: #d62728"/>
    <path d="M 518.136836 245.637474 
L 518.136836 163.989997 
" clip-path="url(#p565e1d83b5)" style="fill: none; stroke: #d62728"/>
    <path d="M 524.43836 221.143238 
L 524.43836 152.446739 
" clip-path="url(#p565e1d83b5)" style="fill: none; stroke: #d62728"/>
    <path d="M 530.739885 210.72615 
L 530.739885 163.426912 
" clip-path="url(#p565e1d83b5)" style="fill: none; stroke: #d62728"/>
    <path d="M 537.04141 218.890892 
L 537.04141 183.416464 
" clip-path="url(#p565e1d83b5)" style="fill: none; stroke: #d62728"/>
    <path d="M 555.945983 250.423719 
L 555.945983 229.026438 
" clip-path="url(#p565e1d83b5)" style="fill: none; stroke: #d62728"/>
    <path d="M 644.167327 233.812646 
L 644.167327 203.969118 
" clip-path="url(#p565e1d83b5)" style="fill: none; stroke: #d62728"/>
    <path d="M 650.468852 211.007692 
L 650.468852 158.077592 
" clip-path="url(#p565e1d83b5)" style="fill: none; stroke: #d62728"/>
    <path d="M 653.619614 190.736579 
L 653.619614 118.098489 
" clip-path="url(#p565e1d83b5)" style="fill: none; stroke: #d62728"/>
    <path d="M 656.770376 176.096358 
L 656.770376 116.409227 
" clip-path="url(#p565e1d83b5)" style="fill: none; stroke: #d62728"/>
    <path d="M 663.071901 179.756415 
L 663.071901 132.457178 
" clip-path="url(#p565e1d83b5)" style="fill: none; stroke: #d62728"/>
    <path d="M 669.373425 193.833553 
L 669.373425 153.85445 
" clip-path="url(#p565e1d83b5)" style="fill: none; stroke: #d62728"/>
    <path d="M 675.67495 238.035826 
L 675.67495 210.444598 
" clip-path="url(#p565e1d83b5)" style="fill: none; stroke: #d62728"/>
   </g>
   <g id="line2d_44">
    <path d="M 511.835311 302.227631 
L 512.893967 283.669974 
L 513.996734 267.980788 
L 515.05539 255.915548 
L 516.069936 246.71784 
L 517.040371 239.7858 
L 517.966695 234.639994 
L 518.848908 230.898135 
L 519.687011 228.25514 
L 520.481003 226.467372 
L 521.186774 225.392608 
L 521.848434 224.774222 
L 522.465983 224.500037 
L 523.039422 224.480111 
L 523.656971 224.685049 
L 524.362742 225.174602 
L 525.156734 226.009237 
L 526.127169 227.374852 
L 527.318157 229.471293 
L 528.81792 232.606847 
L 530.8029 237.316009 
L 534.419975 246.59364 
L 538.610489 257.142248 
L 541.433572 263.646042 
L 543.94788 268.897191 
L 546.329857 273.370989 
L 548.623612 277.220293 
L 550.873256 280.57548 
L 553.1229 283.540191 
L 555.372544 286.144637 
L 555.945983 286.754766 
L 555.945983 286.754766 
L 557.004639 269.760757 
L 558.063295 256.040215 
L 559.121952 245.125006 
L 560.136497 236.924648 
L 561.106932 230.859642 
L 561.989145 226.650221 
L 562.827248 223.651191 
L 563.62124 221.595862 
L 564.327011 220.33373 
L 564.988671 219.578165 
L 565.60622 219.206134 
L 566.179659 219.118922 
L 566.753098 219.255252 
L 567.414758 219.660873 
L 568.164639 220.403893 
L 569.046853 221.608962 
L 570.105509 223.446337 
L 571.428829 226.212966 
L 573.149145 230.363547 
L 575.707564 237.191045 
L 582.412386 255.31695 
L 585.147248 261.949194 
L 587.617446 267.375762 
L 589.955311 271.99425 
L 592.249066 276.041796 
L 594.49871 279.565999 
L 596.748355 282.677275 
L 598.997999 285.408388 
L 600.056655 286.571949 
L 600.056655 286.571949 
L 601.115311 269.596413 
L 602.173967 255.892477 
L 603.232624 244.992195 
L 604.247169 236.804726 
L 605.217604 230.750876 
L 606.099817 226.550693 
L 606.93792 223.559712 
L 607.731912 221.511408 
L 608.437683 220.255065 
L 609.099343 219.504566 
L 609.716892 219.136969 
L 610.290331 219.053636 
L 610.86377 219.193625 
L 611.52543 219.603215 
L 612.275311 220.350426 
L 613.157525 221.560037 
L 614.216181 223.402355 
L 615.539501 226.174468 
L 617.259817 230.331167 
L 619.818236 237.166014 
L 626.523058 255.3042 
L 629.25792 261.939511 
L 631.728118 267.36821 
L 634.065983 271.988282 
L 636.359738 276.037057 
L 638.609382 279.56222 
L 640.859027 282.674261 
L 643.108671 285.405985 
L 644.167327 286.569789 
L 644.167327 286.569789 
L 645.225983 269.594471 
L 646.284639 255.890731 
L 647.343295 244.990626 
L 648.357841 236.803309 
L 649.328276 230.749591 
L 650.210489 226.549517 
L 651.048592 223.558632 
L 651.842584 221.51041 
L 652.548355 220.254136 
L 653.210015 219.503697 
L 653.827564 219.136152 
L 654.401003 219.052864 
L 654.974442 219.192897 
L 655.636102 219.602534 
L 656.385983 220.349794 
L 657.268197 221.559459 
L 658.326853 223.401836 
L 659.650173 226.174013 
L 661.370489 230.330784 
L 663.928908 237.165718 
L 670.63373 255.30405 
L 673.368592 261.939397 
L 675.83879 267.368121 
L 678.176655 271.988211 
L 680.47041 276.037001 
L 682.720054 279.562175 
L 684.969699 282.674226 
L 687.219343 285.405957 
L 688.277999 286.569764 
L 688.277999 286.569764 
L 689.336655 269.594448 
L 690.395311 255.89071 
L 691.453967 244.990607 
L 692.468513 236.803292 
L 693.438948 230.749576 
L 694.321161 226.549503 
L 695.159264 223.558619 
L 695.953256 221.510398 
L 696.659027 220.254125 
L 697.320687 219.503687 
L 697.938236 219.136142 
L 698.511675 219.052855 
L 699.085114 219.192888 
L 699.746774 219.602526 
L 700.496655 220.349787 
L 701.378869 221.559452 
L 702.437525 223.401829 
L 703.760845 226.174007 
L 705.481161 230.33078 
L 708.03958 237.165715 
L 714.744402 255.304048 
L 717.479264 261.939396 
L 719.949461 267.36812 
L 722.287327 271.98821 
L 724.581082 276.037001 
L 726.830726 279.562175 
L 729.080371 282.674225 
L 731.330015 285.405956 
L 732.388671 286.569763 
L 732.388671 286.569763 
L 733.447327 269.594448 
L 734.505983 255.89071 
L 735.564639 244.990607 
L 736.579185 236.803292 
L 737.54962 230.749576 
L 738.431833 226.549503 
L 739.269936 223.558619 
L 740.063928 221.510398 
L 740.769699 220.254125 
L 741.431359 219.503686 
L 742.048908 219.136142 
L 742.622347 219.052855 
L 743.195786 219.192888 
L 743.857446 219.602526 
L 744.607327 220.349787 
L 745.489541 221.559452 
L 746.548197 223.401829 
L 747.871517 226.174007 
L 749.591833 230.33078 
L 752.150252 237.165715 
L 758.855074 255.304048 
L 761.589936 261.939396 
L 764.060133 267.36812 
L 766.397999 271.98821 
L 768.691754 276.037001 
L 770.941398 279.562175 
L 773.191042 282.674225 
L 775.440687 285.405956 
L 776.499343 286.569763 
L 776.499343 286.569763 
L 777.557999 269.594448 
L 778.616655 255.89071 
L 779.675311 244.990607 
L 780.689857 236.803292 
L 781.660292 230.749576 
L 782.542505 226.549503 
L 783.380608 223.558619 
L 784.1746 221.510398 
L 784.880371 220.254125 
L 785.542031 219.503686 
L 786.15958 219.136142 
L 786.733019 219.052855 
L 787.306458 219.192888 
L 787.968118 219.602526 
L 788.717999 220.349787 
L 789.600212 221.559452 
L 790.658869 223.401829 
L 791.982189 226.174007 
L 793.702505 230.33078 
L 796.260924 237.165715 
L 802.965746 255.304048 
L 805.700608 261.939396 
L 808.170805 267.36812 
L 810.508671 271.98821 
L 812.802426 276.037 
L 815.05207 279.562175 
L 817.301714 282.674225 
L 819.551359 285.405956 
L 820.610015 286.569763 
L 820.610015 286.569763 
" clip-path="url(#p565e1d83b5)" style="fill: none; stroke: #1f77b4; stroke-width: 2; stroke-linecap: square"/>
   </g>
   <g id="line2d_45">
    <path d="M 511.835311 302.227631 
L 514.986074 291.589472 
L 518.136836 262.207897 
L 524.43836 254.862499 
L 530.739885 259.421712 
L 537.04141 264.487504 
L 644.167327 288.150466 
L 650.468852 255.491479 
L 653.619614 245.07439 
L 656.770376 242.258968 
L 663.071901 250.986804 
L 669.373425 259.433088 
" clip-path="url(#p565e1d83b5)" style="fill: none; stroke-dasharray: 3.7,1.6; stroke-dashoffset: 0; stroke: #1f77b4"/>
    <g clip-path="url(#p565e1d83b5)">
     <use xlink:href="#m8a1a67db6e" x="511.835311" y="302.227631" style="fill: #1f77b4; stroke: #000000; stroke-linejoin: miter"/>
     <use xlink:href="#m8a1a67db6e" x="514.986074" y="291.589472" style="fill: #1f77b4; stroke: #000000; stroke-linejoin: miter"/>
     <use xlink:href="#m8a1a67db6e" x="518.136836" y="262.207897" style="fill: #1f77b4; stroke: #000000; stroke-linejoin: miter"/>
     <use xlink:href="#m8a1a67db6e" x="524.43836" y="254.862499" style="fill: #1f77b4; stroke: #000000; stroke-linejoin: miter"/>
     <use xlink:href="#m8a1a67db6e" x="530.739885" y="259.421712" style="fill: #1f77b4; stroke: #000000; stroke-linejoin: miter"/>
     <use xlink:href="#m8a1a67db6e" x="537.04141" y="264.487504" style="fill: #1f77b4; stroke: #000000; stroke-linejoin: miter"/>
     <use xlink:href="#m8a1a67db6e" x="644.167327" y="288.150466" style="fill: #1f77b4; stroke: #000000; stroke-linejoin: miter"/>
     <use xlink:href="#m8a1a67db6e" x="650.468852" y="255.491479" style="fill: #1f77b4; stroke: #000000; stroke-linejoin: miter"/>
     <use xlink:href="#m8a1a67db6e" x="653.619614" y="245.07439" style="fill: #1f77b4; stroke: #000000; stroke-linejoin: miter"/>
     <use xlink:href="#m8a1a67db6e" x="656.770376" y="242.258968" style="fill: #1f77b4; stroke: #000000; stroke-linejoin: miter"/>
     <use xlink:href="#m8a1a67db6e" x="663.071901" y="250.986804" style="fill: #1f77b4; stroke: #000000; stroke-linejoin: miter"/>
     <use xlink:href="#m8a1a67db6e" x="669.373425" y="259.433088" style="fill: #1f77b4; stroke: #000000; stroke-linejoin: miter"/>
    </g>
   </g>
   <g id="line2d_46">
    <path d="M 511.835311 302.227631 
L 512.893967 273.306692 
L 513.996734 248.976712 
L 515.05539 230.371385 
L 516.069936 216.277037 
L 517.040371 205.731784 
L 517.966695 197.972415 
L 518.848908 192.392743 
L 519.6429 188.683792 
L 520.392782 186.179945 
L 521.054442 184.682257 
L 521.62788 183.86532 
L 522.157208 183.468371 
L 522.642426 183.378088 
L 523.127643 183.526309 
L 523.656971 183.935393 
L 524.274521 184.70615 
L 525.024402 186.016344 
L 525.950726 188.117814 
L 527.097604 191.3201 
L 528.553256 196.104898 
L 530.538236 203.479183 
L 534.287643 218.483029 
L 538.125272 233.477851 
L 540.860133 243.273719 
L 543.28622 251.160715 
L 545.579975 257.879527 
L 547.785509 263.666044 
L 549.946932 268.720105 
L 552.064244 273.113952 
L 554.181556 276.997143 
L 555.945983 279.874367 
L 555.945983 279.874367 
L 557.004639 253.300486 
L 558.063295 231.941842 
L 559.077841 215.661118 
L 560.048276 203.383628 
L 560.9746 194.255898 
L 561.856813 187.599391 
L 562.694916 182.874147 
L 563.444797 179.800016 
L 564.150568 177.782305 
L 564.768118 176.635327 
L 565.297446 176.064348 
L 565.782663 175.843985 
L 566.22377 175.873722 
L 566.708987 176.138122 
L 567.282426 176.734919 
L 567.944086 177.765375 
L 568.782189 179.527257 
L 569.796734 182.23079 
L 571.031833 186.188479 
L 572.663928 192.226352 
L 575.001793 201.820007 
L 582.324165 232.397744 
L 584.926695 242.049783 
L 587.308671 250.051634 
L 589.558315 256.850833 
L 591.719738 262.700159 
L 593.83705 267.809388 
L 595.954363 272.342783 
L 598.027564 276.266164 
L 600.056655 279.654427 
L 600.056655 279.654427 
L 601.115311 253.103636 
L 602.173967 231.765658 
L 603.188513 215.5027 
L 604.158948 203.240525 
L 605.085272 194.126031 
L 605.967485 187.480989 
L 606.805588 182.765698 
L 607.555469 179.69976 
L 608.26124 177.689195 
L 608.87879 176.54805 
L 609.408118 175.98178 
L 609.893335 175.765509 
L 610.334442 175.79879 
L 610.819659 176.066904 
L 611.393098 176.667854 
L 612.054758 177.702802 
L 612.892861 179.469944 
L 613.907406 182.179255 
L 615.186616 186.295915 
L 616.81871 192.361124 
L 619.200687 202.164697 
L 626.302505 231.869284 
L 628.905035 241.570623 
L 631.287011 249.620369 
L 633.536655 256.464594 
L 635.698078 262.355538 
L 637.81539 267.503156 
L 639.932703 272.072127 
L 642.005904 276.027415 
L 644.079106 279.51365 
L 644.167327 279.652263 
L 644.167327 279.652263 
L 645.225983 253.101699 
L 646.284639 231.763924 
L 647.299185 215.501141 
L 648.26962 203.239117 
L 649.195944 194.124753 
L 650.078157 187.479824 
L 650.91626 182.764631 
L 651.666141 179.698774 
L 652.371912 177.688279 
L 652.989461 176.547192 
L 653.51879 175.980967 
L 654.004007 175.764737 
L 654.445114 175.798053 
L 654.930331 176.066204 
L 655.50377 176.667194 
L 656.16543 177.702186 
L 657.003533 179.46938 
L 658.018078 182.178748 
L 659.297288 186.295471 
L 660.929382 192.36075 
L 663.311359 202.164405 
L 670.413177 231.869146 
L 673.015707 241.570518 
L 675.397683 249.620287 
L 677.647327 256.464529 
L 679.80875 262.355487 
L 681.926062 267.503115 
L 684.043375 272.072094 
L 686.116576 276.027389 
L 688.189778 279.513629 
L 688.277999 279.652242 
L 688.277999 279.652242 
L 689.336655 253.10168 
L 690.395311 231.763907 
L 691.409857 215.501126 
L 692.380292 203.239103 
L 693.306616 194.12474 
L 694.188829 187.479812 
L 695.026932 182.76462 
L 695.776813 179.698764 
L 696.482584 177.68827 
L 697.100133 176.547183 
L 697.629461 175.980959 
L 698.114679 175.76473 
L 698.555786 175.798046 
L 699.041003 176.066197 
L 699.614442 176.667187 
L 700.276102 177.70218 
L 701.114205 179.469374 
L 702.12875 182.178743 
L 703.407959 186.295467 
L 705.040054 192.360747 
L 707.422031 202.164403 
L 714.523849 231.869144 
L 717.126378 241.570517 
L 719.508355 249.620286 
L 721.757999 256.464529 
L 723.919422 262.355486 
L 726.036734 267.503114 
L 728.154046 272.072094 
L 730.227248 276.027389 
L 732.30045 279.513629 
L 732.388671 279.652242 
L 732.388671 279.652242 
L 733.447327 253.10168 
L 734.505983 231.763907 
L 735.520529 215.501126 
L 736.490963 203.239103 
L 737.417288 194.12474 
L 738.299501 187.479812 
L 739.137604 182.76462 
L 739.887485 179.698764 
L 740.593256 177.68827 
L 741.210805 176.547183 
L 741.740133 175.980959 
L 742.225351 175.76473 
L 742.666458 175.798046 
L 743.151675 176.066197 
L 743.725114 176.667187 
L 744.386774 177.70218 
L 745.224876 179.469374 
L 746.239422 182.178743 
L 747.518631 186.295467 
L 749.150726 192.360747 
L 751.532703 202.164403 
L 758.634521 231.869144 
L 761.23705 241.570517 
L 763.619027 249.620286 
L 765.868671 256.464529 
L 768.030094 262.355486 
L 770.147406 267.503114 
L 772.264718 272.072094 
L 774.33792 276.027389 
L 776.411122 279.513629 
L 776.499343 279.652242 
L 776.499343 279.652242 
L 777.557999 253.10168 
L 778.616655 231.763907 
L 779.631201 215.501126 
L 780.601635 203.239103 
L 781.527959 194.12474 
L 782.410173 187.479812 
L 783.248276 182.76462 
L 783.998157 179.698764 
L 784.703928 177.68827 
L 785.321477 176.547183 
L 785.850805 175.980959 
L 786.336023 175.76473 
L 786.777129 175.798046 
L 787.262347 176.066197 
L 787.835786 176.667187 
L 788.497446 177.70218 
L 789.335548 179.469374 
L 790.350094 182.178743 
L 791.629303 186.295467 
L 793.261398 192.360747 
L 795.643375 202.164403 
L 802.745193 231.869144 
L 805.347722 241.570517 
L 807.729699 249.620286 
L 809.979343 256.464529 
L 812.140766 262.355486 
L 814.258078 267.503114 
L 816.37539 272.072094 
L 818.448592 276.027389 
L 820.521793 279.513629 
L 820.610015 279.652242 
L 820.610015 279.652242 
" clip-path="url(#p565e1d83b5)" style="fill: none; stroke: #2ca02c; stroke-width: 2; stroke-linecap: square"/>
   </g>
   <g id="line2d_47">
    <path d="M 511.835311 302.227631 
L 514.986074 261.194725 
L 518.136836 239.665125 
L 524.43836 231.053292 
L 530.739885 237.385518 
L 537.04141 244.224339 
L 555.945983 266.007236 
L 644.167327 255.491479 
L 650.468852 230.434159 
L 653.619614 210.444598 
L 656.770376 208.755345 
L 663.071901 217.483181 
L 669.373425 229.026438 
L 675.67495 258.870004 
" clip-path="url(#p565e1d83b5)" style="fill: none; stroke-dasharray: 3.7,1.6; stroke-dashoffset: 0; stroke: #2ca02c"/>
    <g clip-path="url(#p565e1d83b5)">
     <use xlink:href="#m046eaf3a4e" x="511.835311" y="302.227631" style="fill: #2ca02c; stroke: #000000; stroke-linejoin: miter"/>
     <use xlink:href="#m046eaf3a4e" x="514.986074" y="261.194725" style="fill: #2ca02c; stroke: #000000; stroke-linejoin: miter"/>
     <use xlink:href="#m046eaf3a4e" x="518.136836" y="239.665125" style="fill: #2ca02c; stroke: #000000; stroke-linejoin: miter"/>
     <use xlink:href="#m046eaf3a4e" x="524.43836" y="231.053292" style="fill: #2ca02c; stroke: #000000; stroke-linejoin: miter"/>
     <use xlink:href="#m046eaf3a4e" x="530.739885" y="237.385518" style="fill: #2ca02c; stroke: #000000; stroke-linejoin: miter"/>
     <use xlink:href="#m046eaf3a4e" x="537.04141" y="244.224339" style="fill: #2ca02c; stroke: #000000; stroke-linejoin: miter"/>
     <use xlink:href="#m046eaf3a4e" x="555.945983" y="266.007236" style="fill: #2ca02c; stroke: #000000; stroke-linejoin: miter"/>
     <use xlink:href="#m046eaf3a4e" x="644.167327" y="255.491479" style="fill: #2ca02c; stroke: #000000; stroke-linejoin: miter"/>
     <use xlink:href="#m046eaf3a4e" x="650.468852" y="230.434159" style="fill: #2ca02c; stroke: #000000; stroke-linejoin: miter"/>
     <use xlink:href="#m046eaf3a4e" x="653.619614" y="210.444598" style="fill: #2ca02c; stroke: #000000; stroke-linejoin: miter"/>
     <use xlink:href="#m046eaf3a4e" x="656.770376" y="208.755345" style="fill: #2ca02c; stroke: #000000; stroke-linejoin: miter"/>
     <use xlink:href="#m046eaf3a4e" x="663.071901" y="217.483181" style="fill: #2ca02c; stroke: #000000; stroke-linejoin: miter"/>
     <use xlink:href="#m046eaf3a4e" x="669.373425" y="229.026438" style="fill: #2ca02c; stroke: #000000; stroke-linejoin: miter"/>
     <use xlink:href="#m046eaf3a4e" x="675.67495" y="258.870004" style="fill: #2ca02c; stroke: #000000; stroke-linejoin: miter"/>
    </g>
   </g>
   <g id="line2d_48">
    <path d="M 511.835311 302.227631 
L 512.938078 246.480616 
L 514.040845 201.244471 
L 515.099501 166.303254 
L 516.158157 138.507484 
L 517.172703 117.640241 
L 518.099027 102.845424 
L 518.98124 92.035146 
L 519.819343 84.353308 
L 520.569224 79.357445 
L 521.274995 76.087151 
L 521.892544 74.241585 
L 522.377762 73.392167 
L 522.774758 73.057803 
L 523.127643 73.014016 
L 523.480529 73.193581 
L 523.921635 73.711068 
L 524.450963 74.728163 
L 525.112624 76.547669 
L 525.906616 79.43731 
L 526.87705 83.855719 
L 528.112149 90.613644 
L 529.656023 100.386082 
L 531.817446 115.626559 
L 541.124797 182.970302 
L 543.639106 198.718114 
L 545.976971 211.990886 
L 548.226616 223.496842 
L 550.388039 233.410521 
L 552.505351 242.089648 
L 554.578552 249.660889 
L 555.945983 254.185871 
L 555.945983 254.185871 
L 557.004639 205.141205 
L 558.107406 163.910262 
L 559.166062 132.446713 
L 560.180608 108.706927 
L 561.151042 91.062348 
L 562.033256 78.745358 
L 562.871359 69.907507 
L 563.665351 63.791676 
L 564.371122 59.982091 
L 564.988671 57.766978 
L 565.517999 56.617018 
L 565.959106 56.140713 
L 566.311991 56.051671 
L 566.664876 56.205085 
L 567.061873 56.648824 
L 567.54709 57.552583 
L 568.164639 59.226141 
L 568.914521 61.957346 
L 569.840845 66.238224 
L 570.987722 72.674326 
L 572.443375 82.220538 
L 574.384244 96.551446 
L 577.780766 123.612712 
L 582.147722 157.952665 
L 584.926695 178.039866 
L 587.396892 194.319053 
L 589.690647 208.006747 
L 591.896181 219.863851 
L 594.057604 230.280496 
L 596.130805 239.209955 
L 598.204007 247.167815 
L 600.056655 253.51758 
L 600.056655 253.51758 
L 601.115311 204.538082 
L 602.218078 163.368273 
L 603.276734 131.957576 
L 604.29128 108.263596 
L 605.261714 90.658813 
L 606.143928 78.374892 
L 606.982031 69.565943 
L 607.776023 63.47541 
L 608.481793 59.686734 
L 609.099343 57.488781 
L 609.628671 56.352732 
L 610.069778 55.887488 
L 610.422663 55.80696 
L 610.775548 55.968601 
L 611.172544 56.421267 
L 611.657762 57.335479 
L 612.275311 59.02165 
L 613.025193 61.767189 
L 613.951517 66.064395 
L 615.098394 72.518783 
L 616.554046 82.085462 
L 618.494916 96.439531 
L 621.891438 123.532188 
L 626.258394 157.899927 
L 629.037367 177.999581 
L 631.507564 194.287345 
L 633.801319 207.981358 
L 636.006853 219.843349 
L 638.168276 230.263869 
L 640.241477 239.196354 
L 642.314679 247.15669 
L 644.167327 253.508284 
L 644.167327 253.508284 
L 645.225983 204.529692 
L 646.32875 163.360734 
L 647.387406 131.950771 
L 648.401952 108.257429 
L 649.372386 90.653199 
L 650.2546 78.369738 
L 651.092703 69.561191 
L 651.886695 63.47101 
L 652.592465 59.682626 
L 653.210015 57.484911 
L 653.739343 56.349056 
L 654.18045 55.883965 
L 654.533335 55.803556 
L 654.88622 55.965312 
L 655.283216 56.418102 
L 655.768434 57.332459 
L 656.385983 59.018805 
L 657.135865 61.764544 
L 658.062189 66.061977 
L 659.209066 72.51662 
L 660.664718 82.083583 
L 662.605588 96.437974 
L 666.00211 123.531068 
L 670.369066 157.899194 
L 673.148039 177.999021 
L 675.618236 194.286903 
L 677.911991 207.981005 
L 680.117525 219.843064 
L 682.278948 230.263637 
L 684.352149 239.196165 
L 686.425351 247.156535 
L 688.277999 253.508154 
L 688.277999 253.508154 
L 689.336655 204.529575 
L 690.439422 163.360629 
L 691.498078 131.950677 
L 692.512624 108.257343 
L 693.483058 90.653121 
L 694.365272 78.369666 
L 695.203375 69.561125 
L 695.997367 63.470949 
L 696.703137 59.682568 
L 697.320687 57.484857 
L 697.850015 56.349004 
L 698.291122 55.883916 
L 698.644007 55.803509 
L 698.996892 55.965266 
L 699.393888 56.418057 
L 699.879106 57.332417 
L 700.496655 59.018766 
L 701.246537 61.764507 
L 702.172861 66.061943 
L 703.319738 72.51659 
L 704.77539 82.083557 
L 706.71626 96.437953 
L 710.112782 123.531053 
L 714.479738 157.899184 
L 717.25871 177.999013 
L 719.728908 194.286897 
L 722.022663 207.981 
L 724.228197 219.84306 
L 726.38962 230.263634 
L 728.462821 239.196162 
L 730.536023 247.156533 
L 732.388671 253.508152 
L 732.388671 253.508152 
L 733.447327 204.529573 
L 734.550094 163.360627 
L 735.60875 131.950675 
L 736.623295 108.257342 
L 737.59373 90.65312 
L 738.475944 78.369665 
L 739.314046 69.561124 
L 740.108039 63.470948 
L 740.813809 59.682568 
L 741.431359 57.484856 
L 741.960687 56.349004 
L 742.401793 55.883915 
L 742.754679 55.803508 
L 743.107564 55.965265 
L 743.50456 56.418057 
L 743.989778 57.332417 
L 744.607327 59.018765 
L 745.357208 61.764506 
L 746.283533 66.061943 
L 747.43041 72.516589 
L 748.886062 82.083556 
L 750.826932 96.437952 
L 754.223454 123.531052 
L 758.59041 157.899183 
L 761.369382 177.999013 
L 763.83958 194.286897 
L 766.133335 207.981 
L 768.338869 219.84306 
L 770.500292 230.263634 
L 772.573493 239.196162 
L 774.646695 247.156533 
L 776.499343 253.508152 
L 776.499343 253.508152 
L 777.557999 204.529573 
L 778.660766 163.360627 
L 779.719422 131.950675 
L 780.733967 108.257342 
L 781.704402 90.65312 
L 782.586616 78.369665 
L 783.424718 69.561124 
L 784.21871 63.470948 
L 784.924481 59.682568 
L 785.542031 57.484856 
L 786.071359 56.349004 
L 786.512465 55.883915 
L 786.865351 55.803508 
L 787.218236 55.965265 
L 787.615232 56.418057 
L 788.10045 57.332417 
L 788.717999 59.018765 
L 789.46788 61.764506 
L 790.394205 66.061943 
L 791.541082 72.516589 
L 792.996734 82.083556 
L 794.937604 96.437952 
L 798.334125 123.531052 
L 802.701082 157.899183 
L 805.480054 177.999013 
L 807.950252 194.286897 
L 810.244007 207.981 
L 812.449541 219.84306 
L 814.610963 230.263634 
L 816.684165 239.196162 
L 818.757367 247.156533 
L 820.610015 253.508152 
L 820.610015 253.508152 
" clip-path="url(#p565e1d83b5)" style="fill: none; stroke: #d62728; stroke-width: 2; stroke-linecap: square"/>
   </g>
   <g id="line2d_49">
    <path d="M 511.835311 302.227631 
L 514.986074 238.317359 
L 518.136836 204.813735 
L 524.43836 186.794989 
L 530.739885 187.076531 
L 537.04141 201.153678 
L 555.945983 239.725079 
L 644.167327 218.890882 
L 650.468852 184.542642 
L 653.619614 154.417534 
L 656.770376 146.252792 
L 663.071901 156.106797 
L 669.373425 173.844001 
L 675.67495 224.240212 
" clip-path="url(#p565e1d83b5)" style="fill: none; stroke-dasharray: 3.7,1.6; stroke-dashoffset: 0; stroke: #d62728"/>
    <g clip-path="url(#p565e1d83b5)">
     <use xlink:href="#me3bd961137" x="511.835311" y="302.227631" style="fill: #d62728; stroke: #000000; stroke-linejoin: miter"/>
     <use xlink:href="#me3bd961137" x="514.986074" y="238.317359" style="fill: #d62728; stroke: #000000; stroke-linejoin: miter"/>
     <use xlink:href="#me3bd961137" x="518.136836" y="204.813735" style="fill: #d62728; stroke: #000000; stroke-linejoin: miter"/>
     <use xlink:href="#me3bd961137" x="524.43836" y="186.794989" style="fill: #d62728; stroke: #000000; stroke-linejoin: miter"/>
     <use xlink:href="#me3bd961137" x="530.739885" y="187.076531" style="fill: #d62728; stroke: #000000; stroke-linejoin: miter"/>
     <use xlink:href="#me3bd961137" x="537.04141" y="201.153678" style="fill: #d62728; stroke: #000000; stroke-linejoin: miter"/>
     <use xlink:href="#me3bd961137" x="555.945983" y="239.725079" style="fill: #d62728; stroke: #000000; stroke-linejoin: miter"/>
     <use xlink:href="#me3bd961137" x="644.167327" y="218.890882" style="fill: #d62728; stroke: #000000; stroke-linejoin: miter"/>
     <use xlink:href="#me3bd961137" x="650.468852" y="184.542642" style="fill: #d62728; stroke: #000000; stroke-linejoin: miter"/>
     <use xlink:href="#me3bd961137" x="653.619614" y="154.417534" style="fill: #d62728; stroke: #000000; stroke-linejoin: miter"/>
     <use xlink:href="#me3bd961137" x="656.770376" y="146.252792" style="fill: #d62728; stroke: #000000; stroke-linejoin: miter"/>
     <use xlink:href="#me3bd961137" x="663.071901" y="156.106797" style="fill: #d62728; stroke: #000000; stroke-linejoin: miter"/>
     <use xlink:href="#me3bd961137" x="669.373425" y="173.844001" style="fill: #d62728; stroke: #000000; stroke-linejoin: miter"/>
     <use xlink:href="#me3bd961137" x="675.67495" y="224.240212" style="fill: #d62728; stroke: #000000; stroke-linejoin: miter"/>
    </g>
   </g>
   <g id="patch_9">
    <path d="M 496.396576 320.4 
L 496.396576 43.2 
" style="fill: none; stroke: #000000; stroke-width: 0.8; stroke-linejoin: miter; stroke-linecap: square"/>
   </g>
   <g id="patch_10">
    <path d="M 836.04875 320.4 
L 836.04875 43.2 
" style="fill: none; stroke: #000000; stroke-width: 0.8; stroke-linejoin: miter; stroke-linecap: square"/>
   </g>
   <g id="patch_11">
    <path d="M 496.396576 320.4 
L 836.04875 320.4 
" style="fill: none; stroke: #000000; stroke-width: 0.8; stroke-linejoin: miter; stroke-linecap: square"/>
   </g>
   <g id="patch_12">
    <path d="M 496.396576 43.2 
L 836.04875 43.2 
" style="fill: none; stroke: #000000; stroke-width: 0.8; stroke-linejoin: miter; stroke-linecap: square"/>
   </g>
   <g id="text_37">
    <!-- (T2DM) -->
    <g transform="translate(625.049226 37.2) scale(0.2 -0.2)">
     <defs>
      <path id="DejaVuSans-Bold-54" d="M 31 4666 
L 4331 4666 
L 4331 3756 
L 2784 3756 
L 2784 0 
L 1581 0 
L 1581 3756 
L 31 3756 
L 31 4666 
z
" transform="scale(0.015625)"/>
      <path id="DejaVuSans-Bold-32" d="M 1844 884 
L 3897 884 
L 3897 0 
L 506 0 
L 506 884 
L 2209 2388 
Q 2438 2594 2547 2791 
Q 2656 2988 2656 3200 
Q 2656 3528 2436 3728 
Q 2216 3928 1850 3928 
Q 1569 3928 1234 3808 
Q 900 3688 519 3450 
L 519 4475 
Q 925 4609 1322 4679 
Q 1719 4750 2100 4750 
Q 2938 4750 3402 4381 
Q 3866 4013 3866 3353 
Q 3866 2972 3669 2642 
Q 3472 2313 2841 1759 
L 1844 884 
z
" transform="scale(0.015625)"/>
      <path id="DejaVuSans-Bold-44" d="M 1791 3756 
L 1791 909 
L 2222 909 
Q 2959 909 3348 1275 
Q 3738 1641 3738 2338 
Q 3738 3031 3350 3393 
Q 2963 3756 2222 3756 
L 1791 3756 
z
M 588 4666 
L 1856 4666 
Q 2919 4666 3439 4514 
Q 3959 4363 4331 4000 
Q 4659 3684 4818 3271 
Q 4978 2859 4978 2338 
Q 4978 1809 4818 1395 
Q 4659 981 4331 666 
Q 3956 303 3431 151 
Q 2906 0 1856 0 
L 588 0 
L 588 4666 
z
" transform="scale(0.015625)"/>
     </defs>
     <use xlink:href="#DejaVuSans-Bold-28"/>
     <use xlink:href="#DejaVuSans-Bold-54" transform="translate(45.703125 0)"/>
     <use xlink:href="#DejaVuSans-Bold-32" transform="translate(113.916016 0)"/>
     <use xlink:href="#DejaVuSans-Bold-44" transform="translate(183.496094 0)"/>
     <use xlink:href="#DejaVuSans-Bold-4d" transform="translate(266.503906 0)"/>
     <use xlink:href="#DejaVuSans-Bold-29" transform="translate(366.015625 0)"/>
    </g>
   </g>
   <g id="legend_2">
    <g id="patch_13">
     <path d="M 503.396576 139.26875 
L 644.554389 139.26875 
Q 646.554389 139.26875 646.554389 137.26875 
L 646.554389 50.2 
Q 646.554389 48.2 644.554389 48.2 
L 503.396576 48.2 
Q 501.396576 48.2 501.396576 50.2 
L 501.396576 137.26875 
Q 501.396576 139.26875 503.396576 139.26875 
z
" style="fill: #ffffff; opacity: 0.8; stroke: #cccccc; stroke-linejoin: miter"/>
    </g>
    <g id="line2d_50">
     <path d="M 505.396576 56.298437 
L 525.396576 56.298437 
" style="fill: none; stroke: #1f77b4; stroke-width: 2; stroke-linecap: square"/>
    </g>
    <g id="line2d_51"/>
    <g id="text_38">
     <!-- DUL05M -->
     <g transform="translate(533.396576 59.798437) scale(0.1 -0.1)">
      <defs>
       <path id="DejaVuSans-4d" d="M 628 4666 
L 1569 4666 
L 2759 1491 
L 3956 4666 
L 4897 4666 
L 4897 0 
L 4281 0 
L 4281 4097 
L 3078 897 
L 2444 897 
L 1241 4097 
L 1241 0 
L 628 0 
L 628 4666 
z
" transform="scale(0.015625)"/>
      </defs>
      <use xlink:href="#DejaVuSans-44"/>
      <use xlink:href="#DejaVuSans-55" transform="translate(77.001953 0)"/>
      <use xlink:href="#DejaVuSans-4c" transform="translate(150.195312 0)"/>
      <use xlink:href="#DejaVuSans-30" transform="translate(205.908203 0)"/>
      <use xlink:href="#DejaVuSans-35" transform="translate(269.53125 0)"/>
      <use xlink:href="#DejaVuSans-4d" transform="translate(333.154297 0)"/>
     </g>
    </g>
    <g id="LineCollection_10">
     <path d="M 515.396576 75.976562 
L 515.396576 65.976562 
" style="fill: none; stroke: #1f77b4"/>
    </g>
    <g id="line2d_52">
     <path d="M 505.396576 70.976562 
L 525.396576 70.976562 
" style="fill: none; stroke-dasharray: 3.7,1.6; stroke-dashoffset: 0; stroke: #1f77b4"/>
    </g>
    <g id="line2d_53">
     <g>
      <use xlink:href="#m8a1a67db6e" x="515.396576" y="70.976562" style="fill: #1f77b4; stroke: #000000; stroke-linejoin: miter"/>
     </g>
    </g>
    <g id="text_39">
     <!-- DUL05M±SD (n=11) -->
     <g transform="translate(533.396576 74.476562) scale(0.1 -0.1)">
      <use xlink:href="#DejaVuSans-44"/>
      <use xlink:href="#DejaVuSans-55" transform="translate(77.001953 0)"/>
      <use xlink:href="#DejaVuSans-4c" transform="translate(150.195312 0)"/>
      <use xlink:href="#DejaVuSans-30" transform="translate(205.908203 0)"/>
      <use xlink:href="#DejaVuSans-35" transform="translate(269.53125 0)"/>
      <use xlink:href="#DejaVuSans-4d" transform="translate(333.154297 0)"/>
      <use xlink:href="#DejaVuSans-b1" transform="translate(419.433594 0)"/>
      <use xlink:href="#DejaVuSans-53" transform="translate(503.222656 0)"/>
      <use xlink:href="#DejaVuSans-44" transform="translate(566.699219 0)"/>
      <use xlink:href="#DejaVuSans-20" transform="translate(643.701172 0)"/>
      <use xlink:href="#DejaVuSans-28" transform="translate(675.488281 0)"/>
      <use xlink:href="#DejaVuSans-6e" transform="translate(714.501953 0)"/>
      <use xlink:href="#DejaVuSans-3d" transform="translate(777.880859 0)"/>
      <use xlink:href="#DejaVuSans-31" transform="translate(861.669922 0)"/>
      <use xlink:href="#DejaVuSans-31" transform="translate(925.292969 0)"/>
      <use xlink:href="#DejaVuSans-29" transform="translate(988.916016 0)"/>
     </g>
    </g>
    <g id="line2d_54">
     <path d="M 505.396576 85.654687 
L 525.396576 85.654687 
" style="fill: none; stroke: #2ca02c; stroke-width: 2; stroke-linecap: square"/>
    </g>
    <g id="line2d_55"/>
    <g id="text_40">
     <!-- DUL075M -->
     <g transform="translate(533.396576 89.154687) scale(0.1 -0.1)">
      <use xlink:href="#DejaVuSans-44"/>
      <use xlink:href="#DejaVuSans-55" transform="translate(77.001953 0)"/>
      <use xlink:href="#DejaVuSans-4c" transform="translate(150.195312 0)"/>
      <use xlink:href="#DejaVuSans-30" transform="translate(205.908203 0)"/>
      <use xlink:href="#DejaVuSans-37" transform="translate(269.53125 0)"/>
      <use xlink:href="#DejaVuSans-35" transform="translate(333.154297 0)"/>
      <use xlink:href="#DejaVuSans-4d" transform="translate(396.777344 0)"/>
     </g>
    </g>
    <g id="LineCollection_11">
     <path d="M 515.396576 105.332812 
L 515.396576 95.332812 
" style="fill: none; stroke: #2ca02c"/>
    </g>
    <g id="line2d_56">
     <path d="M 505.396576 100.332812 
L 525.396576 100.332812 
" style="fill: none; stroke-dasharray: 3.7,1.6; stroke-dashoffset: 0; stroke: #2ca02c"/>
    </g>
    <g id="line2d_57">
     <g>
      <use xlink:href="#m046eaf3a4e" x="515.396576" y="100.332812" style="fill: #2ca02c; stroke: #000000; stroke-linejoin: miter"/>
     </g>
    </g>
    <g id="text_41">
     <!-- DUL075M±SD (n=11) -->
     <g transform="translate(533.396576 103.832812) scale(0.1 -0.1)">
      <use xlink:href="#DejaVuSans-44"/>
      <use xlink:href="#DejaVuSans-55" transform="translate(77.001953 0)"/>
      <use xlink:href="#DejaVuSans-4c" transform="translate(150.195312 0)"/>
      <use xlink:href="#DejaVuSans-30" transform="translate(205.908203 0)"/>
      <use xlink:href="#DejaVuSans-37" transform="translate(269.53125 0)"/>
      <use xlink:href="#DejaVuSans-35" transform="translate(333.154297 0)"/>
      <use xlink:href="#DejaVuSans-4d" transform="translate(396.777344 0)"/>
      <use xlink:href="#DejaVuSans-b1" transform="translate(483.056641 0)"/>
      <use xlink:href="#DejaVuSans-53" transform="translate(566.845703 0)"/>
      <use xlink:href="#DejaVuSans-44" transform="translate(630.322266 0)"/>
      <use xlink:href="#DejaVuSans-20" transform="translate(707.324219 0)"/>
      <use xlink:href="#DejaVuSans-28" transform="translate(739.111328 0)"/>
      <use xlink:href="#DejaVuSans-6e" transform="translate(778.125 0)"/>
      <use xlink:href="#DejaVuSans-3d" transform="translate(841.503906 0)"/>
      <use xlink:href="#DejaVuSans-31" transform="translate(925.292969 0)"/>
      <use xlink:href="#DejaVuSans-31" transform="translate(988.916016 0)"/>
      <use xlink:href="#DejaVuSans-29" transform="translate(1052.539062 0)"/>
     </g>
    </g>
    <g id="line2d_58">
     <path d="M 505.396576 115.010937 
L 525.396576 115.010937 
" style="fill: none; stroke: #d62728; stroke-width: 2; stroke-linecap: square"/>
    </g>
    <g id="line2d_59"/>
    <g id="text_42">
     <!-- DUL15M -->
     <g transform="translate(533.396576 118.510937) scale(0.1 -0.1)">
      <use xlink:href="#DejaVuSans-44"/>
      <use xlink:href="#DejaVuSans-55" transform="translate(77.001953 0)"/>
      <use xlink:href="#DejaVuSans-4c" transform="translate(150.195312 0)"/>
      <use xlink:href="#DejaVuSans-31" transform="translate(205.908203 0)"/>
      <use xlink:href="#DejaVuSans-35" transform="translate(269.53125 0)"/>
      <use xlink:href="#DejaVuSans-4d" transform="translate(333.154297 0)"/>
     </g>
    </g>
    <g id="LineCollection_12">
     <path d="M 515.396576 134.689062 
L 515.396576 124.689062 
" style="fill: none; stroke: #d62728"/>
    </g>
    <g id="line2d_60">
     <path d="M 505.396576 129.689062 
L 525.396576 129.689062 
" style="fill: none; stroke-dasharray: 3.7,1.6; stroke-dashoffset: 0; stroke: #d62728"/>
    </g>
    <g id="line2d_61">
     <g>
      <use xlink:href="#me3bd961137" x="515.396576" y="129.689062" style="fill: #d62728; stroke: #000000; stroke-linejoin: miter"/>
     </g>
    </g>
    <g id="text_43">
     <!-- DUL15M±SD (n=10) -->
     <g transform="translate(533.396576 133.189062) scale(0.1 -0.1)">
      <use xlink:href="#DejaVuSans-44"/>
      <use xlink:href="#DejaVuSans-55" transform="translate(77.001953 0)"/>
      <use xlink:href="#DejaVuSans-4c" transform="translate(150.195312 0)"/>
      <use xlink:href="#DejaVuSans-31" transform="translate(205.908203 0)"/>
      <use xlink:href="#DejaVuSans-35" transform="translate(269.53125 0)"/>
      <use xlink:href="#DejaVuSans-4d" transform="translate(333.154297 0)"/>
      <use xlink:href="#DejaVuSans-b1" transform="translate(419.433594 0)"/>
      <use xlink:href="#DejaVuSans-53" transform="translate(503.222656 0)"/>
      <use xlink:href="#DejaVuSans-44" transform="translate(566.699219 0)"/>
      <use xlink:href="#DejaVuSans-20" transform="translate(643.701172 0)"/>
      <use xlink:href="#DejaVuSans-28" transform="translate(675.488281 0)"/>
      <use xlink:href="#DejaVuSans-6e" transform="translate(714.501953 0)"/>
      <use xlink:href="#DejaVuSans-3d" transform="translate(777.880859 0)"/>
      <use xlink:href="#DejaVuSans-31" transform="translate(861.669922 0)"/>
      <use xlink:href="#DejaVuSans-30" transform="translate(925.292969 0)"/>
      <use xlink:href="#DejaVuSans-29" transform="translate(988.916016 0)"/>
     </g>
    </g>
   </g>
  </g>
  <g id="text_44">
   <!-- Xu2022 -->
   <g transform="translate(379.524531 26.196094) scale(0.25 -0.25)">
    <defs>
     <path id="DejaVuSans-Bold-58" d="M 3188 2381 
L 4806 0 
L 3553 0 
L 2463 1594 
L 1381 0 
L 122 0 
L 1741 2381 
L 184 4666 
L 1441 4666 
L 2463 3163 
L 3481 4666 
L 4744 4666 
L 3188 2381 
z
" transform="scale(0.015625)"/>
     <path id="DejaVuSans-Bold-30" d="M 2944 2338 
Q 2944 3213 2780 3570 
Q 2616 3928 2228 3928 
Q 1841 3928 1675 3570 
Q 1509 3213 1509 2338 
Q 1509 1453 1675 1090 
Q 1841 728 2228 728 
Q 2613 728 2778 1090 
Q 2944 1453 2944 2338 
z
M 4147 2328 
Q 4147 1169 3647 539 
Q 3147 -91 2228 -91 
Q 1306 -91 806 539 
Q 306 1169 306 2328 
Q 306 3491 806 4120 
Q 1306 4750 2228 4750 
Q 3147 4750 3647 4120 
Q 4147 3491 4147 2328 
z
" transform="scale(0.015625)"/>
    </defs>
    <use xlink:href="#DejaVuSans-Bold-58"/>
    <use xlink:href="#DejaVuSans-Bold-75" transform="translate(77.099609 0)"/>
    <use xlink:href="#DejaVuSans-Bold-32" transform="translate(148.291016 0)"/>
    <use xlink:href="#DejaVuSans-Bold-30" transform="translate(217.871094 0)"/>
    <use xlink:href="#DejaVuSans-Bold-32" transform="translate(287.451172 0)"/>
    <use xlink:href="#DejaVuSans-Bold-32" transform="translate(357.03125 0)"/>
   </g>
  </g>
 </g>
 <defs>
  <clipPath id="pae7bd09af2">
   <rect x="54.84875" y="43.2" width="339.652174" height="277.2"/>
  </clipPath>
  <clipPath id="p565e1d83b5">
   <rect x="496.396576" y="43.2" width="339.652174" height="277.2"/>
  </clipPath>
 </defs>
</svg>
