<?xml version="1.0" encoding="utf-8" standalone="no"?>
<!DOCTYPE svg PUBLIC "-//W3C//DTD SVG 1.1//EN"
  "http://www.w3.org/Graphics/SVG/1.1/DTD/svg11.dtd">
<svg xmlns:xlink="http://www.w3.org/1999/xlink" width="720pt" height="360pt" viewBox="0 0 720 360" xmlns="http://www.w3.org/2000/svg" version="1.1">
 <metadata>
  <rdf:RDF xmlns:dc="http://purl.org/dc/elements/1.1/" xmlns:cc="http://creativecommons.org/ns#" xmlns:rdf="http://www.w3.org/1999/02/22-rdf-syntax-ns#">
   <cc:Work>
    <dc:type rdf:resource="http://purl.org/dc/dcmitype/StillImage"/>
    <dc:date>2025-10-09T12:36:15.547421</dc:date>
    <dc:format>image/svg+xml</dc:format>
    <dc:creator>
     <cc:Agent>
      <dc:title>Matplotlib v3.10.6, https://matplotlib.org/</dc:title>
     </cc:Agent>
    </dc:creator>
   </cc:Work>
  </rdf:RDF>
 </metadata>
 <defs>
  <style type="text/css">*{stroke-linejoin: round; stroke-linecap: butt}</style>
 </defs>
 <g id="figure_1">
  <g id="patch_1">
   <path d="M 0 360 
L 720 360 
L 720 0 
L 0 0 
z
" style="fill: #ffffff"/>
  </g>
  <g id="axes_1">
   <g id="patch_2">
    <path d="M 90 320.4 
L 343.636364 320.4 
L 343.636364 43.2 
L 90 43.2 
z
" style="fill: #ffffff"/>
   </g>
   <g id="matplotlib.axis_1">
    <g id="xtick_1">
     <g id="line2d_1">
      <defs>
       <path id="m7686768690" d="M 0 0 
L 0 3.5 
" style="stroke: #000000; stroke-width: 0.8"/>
      </defs>
      <g>
       <use xlink:href="#m7686768690" x="111.136364" y="320.4" style="stroke: #000000; stroke-width: 0.8"/>
      </g>
     </g>
     <g id="text_1">
      <!-- 0 -->
      <g transform="translate(107.955114 334.998438) scale(0.1 -0.1)">
       <defs>
        <path id="DejaVuSans-30" d="M 2034 4250 
Q 1547 4250 1301 3770 
Q 1056 3291 1056 2328 
Q 1056 1369 1301 889 
Q 1547 409 2034 409 
Q 2525 409 2770 889 
Q 3016 1369 3016 2328 
Q 3016 3291 2770 3770 
Q 2525 4250 2034 4250 
z
M 2034 4750 
Q 2819 4750 3233 4129 
Q 3647 3509 3647 2328 
Q 3647 1150 3233 529 
Q 2819 -91 2034 -91 
Q 1250 -91 836 529 
Q 422 1150 422 2328 
Q 422 3509 836 4129 
Q 1250 4750 2034 4750 
z
" transform="scale(0.015625)"/>
       </defs>
       <use xlink:href="#DejaVuSans-30"/>
      </g>
     </g>
    </g>
    <g id="xtick_2">
     <g id="line2d_2">
      <g>
       <use xlink:href="#m7686768690" x="151.460623" y="320.4" style="stroke: #000000; stroke-width: 0.8"/>
      </g>
     </g>
     <g id="text_2">
      <!-- 100000 -->
      <g transform="translate(132.373123 334.998438) scale(0.1 -0.1)">
       <defs>
        <path id="DejaVuSans-31" d="M 794 531 
L 1825 531 
L 1825 4091 
L 703 3866 
L 703 4441 
L 1819 4666 
L 2450 4666 
L 2450 531 
L 3481 531 
L 3481 0 
L 794 0 
L 794 531 
z
" transform="scale(0.015625)"/>
       </defs>
       <use xlink:href="#DejaVuSans-31"/>
       <use xlink:href="#DejaVuSans-30" transform="translate(63.623047 0)"/>
       <use xlink:href="#DejaVuSans-30" transform="translate(127.246094 0)"/>
       <use xlink:href="#DejaVuSans-30" transform="translate(190.869141 0)"/>
       <use xlink:href="#DejaVuSans-30" transform="translate(254.492188 0)"/>
       <use xlink:href="#DejaVuSans-30" transform="translate(318.115234 0)"/>
      </g>
     </g>
    </g>
    <g id="xtick_3">
     <g id="line2d_3">
      <g>
       <use xlink:href="#m7686768690" x="191.784882" y="320.4" style="stroke: #000000; stroke-width: 0.8"/>
      </g>
     </g>
     <g id="text_3">
      <!-- 200000 -->
      <g transform="translate(172.697382 334.998438) scale(0.1 -0.1)">
       <defs>
        <path id="DejaVuSans-32" d="M 1228 531 
L 3431 531 
L 3431 0 
L 469 0 
L 469 531 
Q 828 903 1448 1529 
Q 2069 2156 2228 2338 
Q 2531 2678 2651 2914 
Q 2772 3150 2772 3378 
Q 2772 3750 2511 3984 
Q 2250 4219 1831 4219 
Q 1534 4219 1204 4116 
Q 875 4013 500 3803 
L 500 4441 
Q 881 4594 1212 4672 
Q 1544 4750 1819 4750 
Q 2544 4750 2975 4387 
Q 3406 4025 3406 3419 
Q 3406 3131 3298 2873 
Q 3191 2616 2906 2266 
Q 2828 2175 2409 1742 
Q 1991 1309 1228 531 
z
" transform="scale(0.015625)"/>
       </defs>
       <use xlink:href="#DejaVuSans-32"/>
       <use xlink:href="#DejaVuSans-30" transform="translate(63.623047 0)"/>
       <use xlink:href="#DejaVuSans-30" transform="translate(127.246094 0)"/>
       <use xlink:href="#DejaVuSans-30" transform="translate(190.869141 0)"/>
       <use xlink:href="#DejaVuSans-30" transform="translate(254.492188 0)"/>
       <use xlink:href="#DejaVuSans-30" transform="translate(318.115234 0)"/>
      </g>
     </g>
    </g>
    <g id="xtick_4">
     <g id="line2d_4">
      <g>
       <use xlink:href="#m7686768690" x="232.109141" y="320.4" style="stroke: #000000; stroke-width: 0.8"/>
      </g>
     </g>
     <g id="text_4">
      <!-- 300000 -->
      <g transform="translate(213.021641 334.998438) scale(0.1 -0.1)">
       <defs>
        <path id="DejaVuSans-33" d="M 2597 2516 
Q 3050 2419 3304 2112 
Q 3559 1806 3559 1356 
Q 3559 666 3084 287 
Q 2609 -91 1734 -91 
Q 1441 -91 1130 -33 
Q 819 25 488 141 
L 488 750 
Q 750 597 1062 519 
Q 1375 441 1716 441 
Q 2309 441 2620 675 
Q 2931 909 2931 1356 
Q 2931 1769 2642 2001 
Q 2353 2234 1838 2234 
L 1294 2234 
L 1294 2753 
L 1863 2753 
Q 2328 2753 2575 2939 
Q 2822 3125 2822 3475 
Q 2822 3834 2567 4026 
Q 2313 4219 1838 4219 
Q 1578 4219 1281 4162 
Q 984 4106 628 3988 
L 628 4550 
Q 988 4650 1302 4700 
Q 1616 4750 1894 4750 
Q 2613 4750 3031 4423 
Q 3450 4097 3450 3541 
Q 3450 3153 3228 2886 
Q 3006 2619 2597 2516 
z
" transform="scale(0.015625)"/>
       </defs>
       <use xlink:href="#DejaVuSans-33"/>
       <use xlink:href="#DejaVuSans-30" transform="translate(63.623047 0)"/>
       <use xlink:href="#DejaVuSans-30" transform="translate(127.246094 0)"/>
       <use xlink:href="#DejaVuSans-30" transform="translate(190.869141 0)"/>
       <use xlink:href="#DejaVuSans-30" transform="translate(254.492188 0)"/>
       <use xlink:href="#DejaVuSans-30" transform="translate(318.115234 0)"/>
      </g>
     </g>
    </g>
    <g id="xtick_5">
     <g id="line2d_5">
      <g>
       <use xlink:href="#m7686768690" x="272.4334" y="320.4" style="stroke: #000000; stroke-width: 0.8"/>
      </g>
     </g>
     <g id="text_5">
      <!-- 400000 -->
      <g transform="translate(253.3459 334.998438) scale(0.1 -0.1)">
       <defs>
        <path id="DejaVuSans-34" d="M 2419 4116 
L 825 1625 
L 2419 1625 
L 2419 4116 
z
M 2253 4666 
L 3047 4666 
L 3047 1625 
L 3713 1625 
L 3713 1100 
L 3047 1100 
L 3047 0 
L 2419 0 
L 2419 1100 
L 313 1100 
L 313 1709 
L 2253 4666 
z
" transform="scale(0.015625)"/>
       </defs>
       <use xlink:href="#DejaVuSans-34"/>
       <use xlink:href="#DejaVuSans-30" transform="translate(63.623047 0)"/>
       <use xlink:href="#DejaVuSans-30" transform="translate(127.246094 0)"/>
       <use xlink:href="#DejaVuSans-30" transform="translate(190.869141 0)"/>
       <use xlink:href="#DejaVuSans-30" transform="translate(254.492188 0)"/>
       <use xlink:href="#DejaVuSans-30" transform="translate(318.115234 0)"/>
      </g>
     </g>
    </g>
    <g id="xtick_6">
     <g id="line2d_6">
      <g>
       <use xlink:href="#m7686768690" x="312.757659" y="320.4" style="stroke: #000000; stroke-width: 0.8"/>
      </g>
     </g>
     <g id="text_6">
      <!-- 500000 -->
      <g transform="translate(293.670159 334.998438) scale(0.1 -0.1)">
       <defs>
        <path id="DejaVuSans-35" d="M 691 4666 
L 3169 4666 
L 3169 4134 
L 1269 4134 
L 1269 2991 
Q 1406 3038 1543 3061 
Q 1681 3084 1819 3084 
Q 2600 3084 3056 2656 
Q 3513 2228 3513 1497 
Q 3513 744 3044 326 
Q 2575 -91 1722 -91 
Q 1428 -91 1123 -41 
Q 819 9 494 109 
L 494 744 
Q 775 591 1075 516 
Q 1375 441 1709 441 
Q 2250 441 2565 725 
Q 2881 1009 2881 1497 
Q 2881 1984 2565 2268 
Q 2250 2553 1709 2553 
Q 1456 2553 1204 2497 
Q 953 2441 691 2322 
L 691 4666 
z
" transform="scale(0.015625)"/>
       </defs>
       <use xlink:href="#DejaVuSans-35"/>
       <use xlink:href="#DejaVuSans-30" transform="translate(63.623047 0)"/>
       <use xlink:href="#DejaVuSans-30" transform="translate(127.246094 0)"/>
       <use xlink:href="#DejaVuSans-30" transform="translate(190.869141 0)"/>
       <use xlink:href="#DejaVuSans-30" transform="translate(254.492188 0)"/>
       <use xlink:href="#DejaVuSans-30" transform="translate(318.115234 0)"/>
      </g>
     </g>
    </g>
    <g id="text_7">
     <!-- time -->
     <g transform="translate(203.262869 350.19625) scale(0.12 -0.12)">
      <defs>
       <path id="DejaVuSans-74" d="M 1172 4494 
L 1172 3500 
L 2356 3500 
L 2356 3053 
L 1172 3053 
L 1172 1153 
Q 1172 725 1289 603 
Q 1406 481 1766 481 
L 2356 481 
L 2356 0 
L 1766 0 
Q 1100 0 847 248 
Q 594 497 594 1153 
L 594 3053 
L 172 3053 
L 172 3500 
L 594 3500 
L 594 4494 
L 1172 4494 
z
" transform="scale(0.015625)"/>
       <path id="DejaVuSans-69" d="M 603 3500 
L 1178 3500 
L 1178 0 
L 603 0 
L 603 3500 
z
M 603 4863 
L 1178 4863 
L 1178 4134 
L 603 4134 
L 603 4863 
z
" transform="scale(0.015625)"/>
       <path id="DejaVuSans-6d" d="M 3328 2828 
Q 3544 3216 3844 3400 
Q 4144 3584 4550 3584 
Q 5097 3584 5394 3201 
Q 5691 2819 5691 2113 
L 5691 0 
L 5113 0 
L 5113 2094 
Q 5113 2597 4934 2840 
Q 4756 3084 4391 3084 
Q 3944 3084 3684 2787 
Q 3425 2491 3425 1978 
L 3425 0 
L 2847 0 
L 2847 2094 
Q 2847 2600 2669 2842 
Q 2491 3084 2119 3084 
Q 1678 3084 1418 2786 
Q 1159 2488 1159 1978 
L 1159 0 
L 581 0 
L 581 3500 
L 1159 3500 
L 1159 2956 
Q 1356 3278 1631 3431 
Q 1906 3584 2284 3584 
Q 2666 3584 2933 3390 
Q 3200 3197 3328 2828 
z
" transform="scale(0.015625)"/>
       <path id="DejaVuSans-65" d="M 3597 1894 
L 3597 1613 
L 953 1613 
Q 991 1019 1311 708 
Q 1631 397 2203 397 
Q 2534 397 2845 478 
Q 3156 559 3463 722 
L 3463 178 
Q 3153 47 2828 -22 
Q 2503 -91 2169 -91 
Q 1331 -91 842 396 
Q 353 884 353 1716 
Q 353 2575 817 3079 
Q 1281 3584 2069 3584 
Q 2775 3584 3186 3129 
Q 3597 2675 3597 1894 
z
M 3022 2063 
Q 3016 2534 2758 2815 
Q 2500 3097 2075 3097 
Q 1594 3097 1305 2825 
Q 1016 2553 972 2059 
L 3022 2063 
z
" transform="scale(0.015625)"/>
      </defs>
      <use xlink:href="#DejaVuSans-74"/>
      <use xlink:href="#DejaVuSans-69" transform="translate(39.208984 0)"/>
      <use xlink:href="#DejaVuSans-6d" transform="translate(66.992188 0)"/>
      <use xlink:href="#DejaVuSans-65" transform="translate(164.404297 0)"/>
     </g>
    </g>
   </g>
   <g id="matplotlib.axis_2">
    <g id="ytick_1">
     <g id="line2d_7">
      <defs>
       <path id="m3177a2f989" d="M 0 0 
L -3.5 0 
" style="stroke: #000000; stroke-width: 0.8"/>
      </defs>
      <g>
       <use xlink:href="#m3177a2f989" x="90" y="295.440324" style="stroke: #000000; stroke-width: 0.8"/>
      </g>
     </g>
     <g id="text_8">
      <!-- 0.055 -->
      <g transform="translate(54.371875 299.239543) scale(0.1 -0.1)">
       <defs>
        <path id="DejaVuSans-2e" d="M 684 794 
L 1344 794 
L 1344 0 
L 684 0 
L 684 794 
z
" transform="scale(0.015625)"/>
       </defs>
       <use xlink:href="#DejaVuSans-30"/>
       <use xlink:href="#DejaVuSans-2e" transform="translate(63.623047 0)"/>
       <use xlink:href="#DejaVuSans-30" transform="translate(95.410156 0)"/>
       <use xlink:href="#DejaVuSans-35" transform="translate(159.033203 0)"/>
       <use xlink:href="#DejaVuSans-35" transform="translate(222.65625 0)"/>
      </g>
     </g>
    </g>
    <g id="ytick_2">
     <g id="line2d_8">
      <g>
       <use xlink:href="#m3177a2f989" x="90" y="258.775046" style="stroke: #000000; stroke-width: 0.8"/>
      </g>
     </g>
     <g id="text_9">
      <!-- 0.060 -->
      <g transform="translate(54.371875 262.574265) scale(0.1 -0.1)">
       <defs>
        <path id="DejaVuSans-36" d="M 2113 2584 
Q 1688 2584 1439 2293 
Q 1191 2003 1191 1497 
Q 1191 994 1439 701 
Q 1688 409 2113 409 
Q 2538 409 2786 701 
Q 3034 994 3034 1497 
Q 3034 2003 2786 2293 
Q 2538 2584 2113 2584 
z
M 3366 4563 
L 3366 3988 
Q 3128 4100 2886 4159 
Q 2644 4219 2406 4219 
Q 1781 4219 1451 3797 
Q 1122 3375 1075 2522 
Q 1259 2794 1537 2939 
Q 1816 3084 2150 3084 
Q 2853 3084 3261 2657 
Q 3669 2231 3669 1497 
Q 3669 778 3244 343 
Q 2819 -91 2113 -91 
Q 1303 -91 875 529 
Q 447 1150 447 2328 
Q 447 3434 972 4092 
Q 1497 4750 2381 4750 
Q 2619 4750 2861 4703 
Q 3103 4656 3366 4563 
z
" transform="scale(0.015625)"/>
       </defs>
       <use xlink:href="#DejaVuSans-30"/>
       <use xlink:href="#DejaVuSans-2e" transform="translate(63.623047 0)"/>
       <use xlink:href="#DejaVuSans-30" transform="translate(95.410156 0)"/>
       <use xlink:href="#DejaVuSans-36" transform="translate(159.033203 0)"/>
       <use xlink:href="#DejaVuSans-30" transform="translate(222.65625 0)"/>
      </g>
     </g>
    </g>
    <g id="ytick_3">
     <g id="line2d_9">
      <g>
       <use xlink:href="#m3177a2f989" x="90" y="222.109768" style="stroke: #000000; stroke-width: 0.8"/>
      </g>
     </g>
     <g id="text_10">
      <!-- 0.065 -->
      <g transform="translate(54.371875 225.908986) scale(0.1 -0.1)">
       <use xlink:href="#DejaVuSans-30"/>
       <use xlink:href="#DejaVuSans-2e" transform="translate(63.623047 0)"/>
       <use xlink:href="#DejaVuSans-30" transform="translate(95.410156 0)"/>
       <use xlink:href="#DejaVuSans-36" transform="translate(159.033203 0)"/>
       <use xlink:href="#DejaVuSans-35" transform="translate(222.65625 0)"/>
      </g>
     </g>
    </g>
    <g id="ytick_4">
     <g id="line2d_10">
      <g>
       <use xlink:href="#m3177a2f989" x="90" y="185.44449" style="stroke: #000000; stroke-width: 0.8"/>
      </g>
     </g>
     <g id="text_11">
      <!-- 0.070 -->
      <g transform="translate(54.371875 189.243708) scale(0.1 -0.1)">
       <defs>
        <path id="DejaVuSans-37" d="M 525 4666 
L 3525 4666 
L 3525 4397 
L 1831 0 
L 1172 0 
L 2766 4134 
L 525 4134 
L 525 4666 
z
" transform="scale(0.015625)"/>
       </defs>
       <use xlink:href="#DejaVuSans-30"/>
       <use xlink:href="#DejaVuSans-2e" transform="translate(63.623047 0)"/>
       <use xlink:href="#DejaVuSans-30" transform="translate(95.410156 0)"/>
       <use xlink:href="#DejaVuSans-37" transform="translate(159.033203 0)"/>
       <use xlink:href="#DejaVuSans-30" transform="translate(222.65625 0)"/>
      </g>
     </g>
    </g>
    <g id="ytick_5">
     <g id="line2d_11">
      <g>
       <use xlink:href="#m3177a2f989" x="90" y="148.779211" style="stroke: #000000; stroke-width: 0.8"/>
      </g>
     </g>
     <g id="text_12">
      <!-- 0.075 -->
      <g transform="translate(54.371875 152.57843) scale(0.1 -0.1)">
       <use xlink:href="#DejaVuSans-30"/>
       <use xlink:href="#DejaVuSans-2e" transform="translate(63.623047 0)"/>
       <use xlink:href="#DejaVuSans-30" transform="translate(95.410156 0)"/>
       <use xlink:href="#DejaVuSans-37" transform="translate(159.033203 0)"/>
       <use xlink:href="#DejaVuSans-35" transform="translate(222.65625 0)"/>
      </g>
     </g>
    </g>
    <g id="ytick_6">
     <g id="line2d_12">
      <g>
       <use xlink:href="#m3177a2f989" x="90" y="112.113933" style="stroke: #000000; stroke-width: 0.8"/>
      </g>
     </g>
     <g id="text_13">
      <!-- 0.080 -->
      <g transform="translate(54.371875 115.913152) scale(0.1 -0.1)">
       <defs>
        <path id="DejaVuSans-38" d="M 2034 2216 
Q 1584 2216 1326 1975 
Q 1069 1734 1069 1313 
Q 1069 891 1326 650 
Q 1584 409 2034 409 
Q 2484 409 2743 651 
Q 3003 894 3003 1313 
Q 3003 1734 2745 1975 
Q 2488 2216 2034 2216 
z
M 1403 2484 
Q 997 2584 770 2862 
Q 544 3141 544 3541 
Q 544 4100 942 4425 
Q 1341 4750 2034 4750 
Q 2731 4750 3128 4425 
Q 3525 4100 3525 3541 
Q 3525 3141 3298 2862 
Q 3072 2584 2669 2484 
Q 3125 2378 3379 2068 
Q 3634 1759 3634 1313 
Q 3634 634 3220 271 
Q 2806 -91 2034 -91 
Q 1263 -91 848 271 
Q 434 634 434 1313 
Q 434 1759 690 2068 
Q 947 2378 1403 2484 
z
M 1172 3481 
Q 1172 3119 1398 2916 
Q 1625 2713 2034 2713 
Q 2441 2713 2670 2916 
Q 2900 3119 2900 3481 
Q 2900 3844 2670 4047 
Q 2441 4250 2034 4250 
Q 1625 4250 1398 4047 
Q 1172 3844 1172 3481 
z
" transform="scale(0.015625)"/>
       </defs>
       <use xlink:href="#DejaVuSans-30"/>
       <use xlink:href="#DejaVuSans-2e" transform="translate(63.623047 0)"/>
       <use xlink:href="#DejaVuSans-30" transform="translate(95.410156 0)"/>
       <use xlink:href="#DejaVuSans-38" transform="translate(159.033203 0)"/>
       <use xlink:href="#DejaVuSans-30" transform="translate(222.65625 0)"/>
      </g>
     </g>
    </g>
    <g id="ytick_7">
     <g id="line2d_13">
      <g>
       <use xlink:href="#m3177a2f989" x="90" y="75.448655" style="stroke: #000000; stroke-width: 0.8"/>
      </g>
     </g>
     <g id="text_14">
      <!-- 0.085 -->
      <g transform="translate(54.371875 79.247874) scale(0.1 -0.1)">
       <use xlink:href="#DejaVuSans-30"/>
       <use xlink:href="#DejaVuSans-2e" transform="translate(63.623047 0)"/>
       <use xlink:href="#DejaVuSans-30" transform="translate(95.410156 0)"/>
       <use xlink:href="#DejaVuSans-38" transform="translate(159.033203 0)"/>
       <use xlink:href="#DejaVuSans-35" transform="translate(222.65625 0)"/>
      </g>
     </g>
    </g>
    <g id="text_15">
     <!-- hba1c -->
     <g transform="translate(47.87625 200.205) rotate(-90) scale(0.12 -0.12)">
      <defs>
       <path id="DejaVuSans-68" d="M 3513 2113 
L 3513 0 
L 2938 0 
L 2938 2094 
Q 2938 2591 2744 2837 
Q 2550 3084 2163 3084 
Q 1697 3084 1428 2787 
Q 1159 2491 1159 1978 
L 1159 0 
L 581 0 
L 581 4863 
L 1159 4863 
L 1159 2956 
Q 1366 3272 1645 3428 
Q 1925 3584 2291 3584 
Q 2894 3584 3203 3211 
Q 3513 2838 3513 2113 
z
" transform="scale(0.015625)"/>
       <path id="DejaVuSans-62" d="M 3116 1747 
Q 3116 2381 2855 2742 
Q 2594 3103 2138 3103 
Q 1681 3103 1420 2742 
Q 1159 2381 1159 1747 
Q 1159 1113 1420 752 
Q 1681 391 2138 391 
Q 2594 391 2855 752 
Q 3116 1113 3116 1747 
z
M 1159 2969 
Q 1341 3281 1617 3432 
Q 1894 3584 2278 3584 
Q 2916 3584 3314 3078 
Q 3713 2572 3713 1747 
Q 3713 922 3314 415 
Q 2916 -91 2278 -91 
Q 1894 -91 1617 61 
Q 1341 213 1159 525 
L 1159 0 
L 581 0 
L 581 4863 
L 1159 4863 
L 1159 2969 
z
" transform="scale(0.015625)"/>
       <path id="DejaVuSans-61" d="M 2194 1759 
Q 1497 1759 1228 1600 
Q 959 1441 959 1056 
Q 959 750 1161 570 
Q 1363 391 1709 391 
Q 2188 391 2477 730 
Q 2766 1069 2766 1631 
L 2766 1759 
L 2194 1759 
z
M 3341 1997 
L 3341 0 
L 2766 0 
L 2766 531 
Q 2569 213 2275 61 
Q 1981 -91 1556 -91 
Q 1019 -91 701 211 
Q 384 513 384 1019 
Q 384 1609 779 1909 
Q 1175 2209 1959 2209 
L 2766 2209 
L 2766 2266 
Q 2766 2663 2505 2880 
Q 2244 3097 1772 3097 
Q 1472 3097 1187 3025 
Q 903 2953 641 2809 
L 641 3341 
Q 956 3463 1253 3523 
Q 1550 3584 1831 3584 
Q 2591 3584 2966 3190 
Q 3341 2797 3341 1997 
z
" transform="scale(0.015625)"/>
       <path id="DejaVuSans-63" d="M 3122 3366 
L 3122 2828 
Q 2878 2963 2633 3030 
Q 2388 3097 2138 3097 
Q 1578 3097 1268 2742 
Q 959 2388 959 1747 
Q 959 1106 1268 751 
Q 1578 397 2138 397 
Q 2388 397 2633 464 
Q 2878 531 3122 666 
L 3122 134 
Q 2881 22 2623 -34 
Q 2366 -91 2075 -91 
Q 1284 -91 818 406 
Q 353 903 353 1747 
Q 353 2603 823 3093 
Q 1294 3584 2113 3584 
Q 2378 3584 2631 3529 
Q 2884 3475 3122 3366 
z
" transform="scale(0.015625)"/>
      </defs>
      <use xlink:href="#DejaVuSans-68"/>
      <use xlink:href="#DejaVuSans-62" transform="translate(63.378906 0)"/>
      <use xlink:href="#DejaVuSans-61" transform="translate(126.855469 0)"/>
      <use xlink:href="#DejaVuSans-31" transform="translate(188.134766 0)"/>
      <use xlink:href="#DejaVuSans-63" transform="translate(251.757812 0)"/>
     </g>
    </g>
   </g>
   <g id="LineCollection_1">
    <path d="M 111.136364 96.883236 
L 111.136364 61.038577 
" clip-path="url(#pec86b08da2)" style="fill: none; stroke: #000000; stroke-width: 1.5"/>
    <path d="M 163.977273 207.371442 
L 163.977273 179.010833 
" clip-path="url(#pec86b08da2)" style="fill: none; stroke: #000000; stroke-width: 1.5"/>
    <path d="M 216.818182 213.279902 
L 216.818182 182.949806 
" clip-path="url(#pec86b08da2)" style="fill: none; stroke: #000000; stroke-width: 1.5"/>
    <path d="M 322.5 200.872136 
L 322.5 162.664093 
" clip-path="url(#pec86b08da2)" style="fill: none; stroke: #000000; stroke-width: 1.5"/>
   </g>
   <g id="line2d_14">
    <path d="M 111.136364 78.381877 
L 112.606914 73.057116 
L 113.925644 69.137361 
L 116.180146 63.308226 
L 117.27272 61.302073 
L 118.482872 59.540286 
L 120.107679 57.595488 
L 120.992911 56.88561 
L 121.991086 56.364871 
L 123.410302 55.914528 
L 124.389584 55.800431 
L 125.26764 55.917827 
L 126.36964 56.291586 
L 127.7558 57.000786 
L 128.832535 57.717875 
L 130.147115 58.891319 
L 131.462725 60.346228 
L 133.016732 62.168934 
L 134.822481 64.689103 
L 136.287716 67.030064 
L 138.161939 70.151392 
L 140.699734 74.809772 
L 143.425216 80.156831 
L 146.057728 85.681165 
L 147.718531 89.243329 
L 147.824213 89.727312 
L 151.783217 98.477111 
L 151.885714 98.997622 
L 157.49495 111.778408 
L 163.977273 126.880478 
L 164.080512 127.294487 
L 174.124899 149.7718 
L 181.618435 165.703601 
L 187.869866 178.149492 
L 194.631467 190.85871 
L 200.334755 200.825835 
L 206.823386 211.474423 
L 212.397519 219.928834 
L 218.746876 228.953392 
L 224.307125 236.245833 
L 230.576399 243.924124 
L 236.100043 250.143798 
L 242.438785 256.807143 
L 248.525392 262.687092 
L 255.400448 268.832671 
L 261.853687 274.078141 
L 268.528349 279.061672 
L 275.823567 284.045822 
L 283.327888 288.688834 
L 290.385638 292.617948 
L 297.064043 295.989399 
L 304.557553 299.45092 
L 312.23298 302.652282 
L 320.180838 305.635892 
L 326.564685 307.8 
L 326.564685 307.8 
" clip-path="url(#pec86b08da2)" style="fill: none; stroke: #0000ff; stroke-width: 1.5; stroke-linecap: square"/>
   </g>
   <g id="line2d_15">
    <path d="M 111.136364 78.960907 
L 163.977273 193.191137 
L 216.818182 198.114854 
L 322.5 181.768114 
" clip-path="url(#pec86b08da2)" style="fill: none; stroke: #000000; stroke-width: 1.5; stroke-linecap: square"/>
    <defs>
     <path id="m5793f4ff47" d="M -5 5 
L 5 5 
L 5 -5 
L -5 -5 
z
" style="stroke: #000000; stroke-linejoin: miter"/>
    </defs>
    <g clip-path="url(#pec86b08da2)">
     <use xlink:href="#m5793f4ff47" x="111.136364" y="78.960907" style="stroke: #000000; stroke-linejoin: miter"/>
     <use xlink:href="#m5793f4ff47" x="163.977273" y="193.191137" style="stroke: #000000; stroke-linejoin: miter"/>
     <use xlink:href="#m5793f4ff47" x="216.818182" y="198.114854" style="stroke: #000000; stroke-linejoin: miter"/>
     <use xlink:href="#m5793f4ff47" x="322.5" y="181.768114" style="stroke: #000000; stroke-linejoin: miter"/>
    </g>
   </g>
   <g id="patch_3">
    <path d="M 90 320.4 
L 90 43.2 
" style="fill: none; stroke: #000000; stroke-width: 0.8; stroke-linejoin: miter; stroke-linecap: square"/>
   </g>
   <g id="patch_4">
    <path d="M 343.636364 320.4 
L 343.636364 43.2 
" style="fill: none; stroke: #000000; stroke-width: 0.8; stroke-linejoin: miter; stroke-linecap: square"/>
   </g>
   <g id="patch_5">
    <path d="M 90 320.4 
L 343.636364 320.4 
" style="fill: none; stroke: #000000; stroke-width: 0.8; stroke-linejoin: miter; stroke-linecap: square"/>
   </g>
   <g id="patch_6">
    <path d="M 90 43.2 
L 343.636364 43.2 
" style="fill: none; stroke: #000000; stroke-width: 0.8; stroke-linejoin: miter; stroke-linecap: square"/>
   </g>
   <g id="text_16">
    <!-- Blonde2015 fm_dul_DUL15__hba1c -->
    <g transform="translate(93.659744 37.2) scale(0.14 -0.14)">
     <defs>
      <path id="DejaVuSans-42" d="M 1259 2228 
L 1259 519 
L 2272 519 
Q 2781 519 3026 730 
Q 3272 941 3272 1375 
Q 3272 1813 3026 2020 
Q 2781 2228 2272 2228 
L 1259 2228 
z
M 1259 4147 
L 1259 2741 
L 2194 2741 
Q 2656 2741 2882 2914 
Q 3109 3088 3109 3444 
Q 3109 3797 2882 3972 
Q 2656 4147 2194 4147 
L 1259 4147 
z
M 628 4666 
L 2241 4666 
Q 2963 4666 3353 4366 
Q 3744 4066 3744 3513 
Q 3744 3084 3544 2831 
Q 3344 2578 2956 2516 
Q 3422 2416 3680 2098 
Q 3938 1781 3938 1306 
Q 3938 681 3513 340 
Q 3088 0 2303 0 
L 628 0 
L 628 4666 
z
" transform="scale(0.015625)"/>
      <path id="DejaVuSans-6c" d="M 603 4863 
L 1178 4863 
L 1178 0 
L 603 0 
L 603 4863 
z
" transform="scale(0.015625)"/>
      <path id="DejaVuSans-6f" d="M 1959 3097 
Q 1497 3097 1228 2736 
Q 959 2375 959 1747 
Q 959 1119 1226 758 
Q 1494 397 1959 397 
Q 2419 397 2687 759 
Q 2956 1122 2956 1747 
Q 2956 2369 2687 2733 
Q 2419 3097 1959 3097 
z
M 1959 3584 
Q 2709 3584 3137 3096 
Q 3566 2609 3566 1747 
Q 3566 888 3137 398 
Q 2709 -91 1959 -91 
Q 1206 -91 779 398 
Q 353 888 353 1747 
Q 353 2609 779 3096 
Q 1206 3584 1959 3584 
z
" transform="scale(0.015625)"/>
      <path id="DejaVuSans-6e" d="M 3513 2113 
L 3513 0 
L 2938 0 
L 2938 2094 
Q 2938 2591 2744 2837 
Q 2550 3084 2163 3084 
Q 1697 3084 1428 2787 
Q 1159 2491 1159 1978 
L 1159 0 
L 581 0 
L 581 3500 
L 1159 3500 
L 1159 2956 
Q 1366 3272 1645 3428 
Q 1925 3584 2291 3584 
Q 2894 3584 3203 3211 
Q 3513 2838 3513 2113 
z
" transform="scale(0.015625)"/>
      <path id="DejaVuSans-64" d="M 2906 2969 
L 2906 4863 
L 3481 4863 
L 3481 0 
L 2906 0 
L 2906 525 
Q 2725 213 2448 61 
Q 2172 -91 1784 -91 
Q 1150 -91 751 415 
Q 353 922 353 1747 
Q 353 2572 751 3078 
Q 1150 3584 1784 3584 
Q 2172 3584 2448 3432 
Q 2725 3281 2906 2969 
z
M 947 1747 
Q 947 1113 1208 752 
Q 1469 391 1925 391 
Q 2381 391 2643 752 
Q 2906 1113 2906 1747 
Q 2906 2381 2643 2742 
Q 2381 3103 1925 3103 
Q 1469 3103 1208 2742 
Q 947 2381 947 1747 
z
" transform="scale(0.015625)"/>
      <path id="DejaVuSans-20" transform="scale(0.015625)"/>
      <path id="DejaVuSans-66" d="M 2375 4863 
L 2375 4384 
L 1825 4384 
Q 1516 4384 1395 4259 
Q 1275 4134 1275 3809 
L 1275 3500 
L 2222 3500 
L 2222 3053 
L 1275 3053 
L 1275 0 
L 697 0 
L 697 3053 
L 147 3053 
L 147 3500 
L 697 3500 
L 697 3744 
Q 697 4328 969 4595 
Q 1241 4863 1831 4863 
L 2375 4863 
z
" transform="scale(0.015625)"/>
      <path id="DejaVuSans-5f" d="M 3263 -1063 
L 3263 -1509 
L -63 -1509 
L -63 -1063 
L 3263 -1063 
z
" transform="scale(0.015625)"/>
      <path id="DejaVuSans-75" d="M 544 1381 
L 544 3500 
L 1119 3500 
L 1119 1403 
Q 1119 906 1312 657 
Q 1506 409 1894 409 
Q 2359 409 2629 706 
Q 2900 1003 2900 1516 
L 2900 3500 
L 3475 3500 
L 3475 0 
L 2900 0 
L 2900 538 
Q 2691 219 2414 64 
Q 2138 -91 1772 -91 
Q 1169 -91 856 284 
Q 544 659 544 1381 
z
M 1991 3584 
L 1991 3584 
z
" transform="scale(0.015625)"/>
      <path id="DejaVuSans-44" d="M 1259 4147 
L 1259 519 
L 2022 519 
Q 2988 519 3436 956 
Q 3884 1394 3884 2338 
Q 3884 3275 3436 3711 
Q 2988 4147 2022 4147 
L 1259 4147 
z
M 628 4666 
L 1925 4666 
Q 3281 4666 3915 4102 
Q 4550 3538 4550 2338 
Q 4550 1131 3912 565 
Q 3275 0 1925 0 
L 628 0 
L 628 4666 
z
" transform="scale(0.015625)"/>
      <path id="DejaVuSans-55" d="M 556 4666 
L 1191 4666 
L 1191 1831 
Q 1191 1081 1462 751 
Q 1734 422 2344 422 
Q 2950 422 3222 751 
Q 3494 1081 3494 1831 
L 3494 4666 
L 4128 4666 
L 4128 1753 
Q 4128 841 3676 375 
Q 3225 -91 2344 -91 
Q 1459 -91 1007 375 
Q 556 841 556 1753 
L 556 4666 
z
" transform="scale(0.015625)"/>
      <path id="DejaVuSans-4c" d="M 628 4666 
L 1259 4666 
L 1259 531 
L 3531 531 
L 3531 0 
L 628 0 
L 628 4666 
z
" transform="scale(0.015625)"/>
     </defs>
     <use xlink:href="#DejaVuSans-42"/>
     <use xlink:href="#DejaVuSans-6c" transform="translate(68.603516 0)"/>
     <use xlink:href="#DejaVuSans-6f" transform="translate(96.386719 0)"/>
     <use xlink:href="#DejaVuSans-6e" transform="translate(157.568359 0)"/>
     <use xlink:href="#DejaVuSans-64" transform="translate(220.947266 0)"/>
     <use xlink:href="#DejaVuSans-65" transform="translate(284.423828 0)"/>
     <use xlink:href="#DejaVuSans-32" transform="translate(345.947266 0)"/>
     <use xlink:href="#DejaVuSans-30" transform="translate(409.570312 0)"/>
     <use xlink:href="#DejaVuSans-31" transform="translate(473.193359 0)"/>
     <use xlink:href="#DejaVuSans-35" transform="translate(536.816406 0)"/>
     <use xlink:href="#DejaVuSans-20" transform="translate(600.439453 0)"/>
     <use xlink:href="#DejaVuSans-66" transform="translate(632.226562 0)"/>
     <use xlink:href="#DejaVuSans-6d" transform="translate(667.431641 0)"/>
     <use xlink:href="#DejaVuSans-5f" transform="translate(764.84375 0)"/>
     <use xlink:href="#DejaVuSans-64" transform="translate(814.84375 0)"/>
     <use xlink:href="#DejaVuSans-75" transform="translate(878.320312 0)"/>
     <use xlink:href="#DejaVuSans-6c" transform="translate(941.699219 0)"/>
     <use xlink:href="#DejaVuSans-5f" transform="translate(969.482422 0)"/>
     <use xlink:href="#DejaVuSans-44" transform="translate(1019.482422 0)"/>
     <use xlink:href="#DejaVuSans-55" transform="translate(1096.484375 0)"/>
     <use xlink:href="#DejaVuSans-4c" transform="translate(1169.677734 0)"/>
     <use xlink:href="#DejaVuSans-31" transform="translate(1225.390625 0)"/>
     <use xlink:href="#DejaVuSans-35" transform="translate(1289.013672 0)"/>
     <use xlink:href="#DejaVuSans-5f" transform="translate(1352.636719 0)"/>
     <use xlink:href="#DejaVuSans-5f" transform="translate(1402.636719 0)"/>
     <use xlink:href="#DejaVuSans-68" transform="translate(1452.636719 0)"/>
     <use xlink:href="#DejaVuSans-62" transform="translate(1516.015625 0)"/>
     <use xlink:href="#DejaVuSans-61" transform="translate(1579.492188 0)"/>
     <use xlink:href="#DejaVuSans-31" transform="translate(1640.771484 0)"/>
     <use xlink:href="#DejaVuSans-63" transform="translate(1704.394531 0)"/>
    </g>
   </g>
   <g id="legend_1">
    <g id="patch_7">
     <path d="M 200.586364 80.834375 
L 336.636364 80.834375 
Q 338.636364 80.834375 338.636364 78.834375 
L 338.636364 50.2 
Q 338.636364 48.2 336.636364 48.2 
L 200.586364 48.2 
Q 198.586364 48.2 198.586364 50.2 
L 198.586364 78.834375 
Q 198.586364 80.834375 200.586364 80.834375 
z
" style="fill: #ffffff; opacity: 0.8; stroke: #cccccc; stroke-linejoin: miter"/>
    </g>
    <g id="line2d_16">
     <path d="M 202.586364 56.298437 
L 212.586364 56.298437 
L 222.586364 56.298437 
" style="fill: none; stroke: #0000ff; stroke-width: 1.5; stroke-linecap: square"/>
    </g>
    <g id="text_17">
     <!-- observable -->
     <g transform="translate(230.586364 59.798437) scale(0.1 -0.1)">
      <defs>
       <path id="DejaVuSans-73" d="M 2834 3397 
L 2834 2853 
Q 2591 2978 2328 3040 
Q 2066 3103 1784 3103 
Q 1356 3103 1142 2972 
Q 928 2841 928 2578 
Q 928 2378 1081 2264 
Q 1234 2150 1697 2047 
L 1894 2003 
Q 2506 1872 2764 1633 
Q 3022 1394 3022 966 
Q 3022 478 2636 193 
Q 2250 -91 1575 -91 
Q 1294 -91 989 -36 
Q 684 19 347 128 
L 347 722 
Q 666 556 975 473 
Q 1284 391 1588 391 
Q 1994 391 2212 530 
Q 2431 669 2431 922 
Q 2431 1156 2273 1281 
Q 2116 1406 1581 1522 
L 1381 1569 
Q 847 1681 609 1914 
Q 372 2147 372 2553 
Q 372 3047 722 3315 
Q 1072 3584 1716 3584 
Q 2034 3584 2315 3537 
Q 2597 3491 2834 3397 
z
" transform="scale(0.015625)"/>
       <path id="DejaVuSans-72" d="M 2631 2963 
Q 2534 3019 2420 3045 
Q 2306 3072 2169 3072 
Q 1681 3072 1420 2755 
Q 1159 2438 1159 1844 
L 1159 0 
L 581 0 
L 581 3500 
L 1159 3500 
L 1159 2956 
Q 1341 3275 1631 3429 
Q 1922 3584 2338 3584 
Q 2397 3584 2469 3576 
Q 2541 3569 2628 3553 
L 2631 2963 
z
" transform="scale(0.015625)"/>
       <path id="DejaVuSans-76" d="M 191 3500 
L 800 3500 
L 1894 563 
L 2988 3500 
L 3597 3500 
L 2284 0 
L 1503 0 
L 191 3500 
z
" transform="scale(0.015625)"/>
      </defs>
      <use xlink:href="#DejaVuSans-6f"/>
      <use xlink:href="#DejaVuSans-62" transform="translate(61.181641 0)"/>
      <use xlink:href="#DejaVuSans-73" transform="translate(124.658203 0)"/>
      <use xlink:href="#DejaVuSans-65" transform="translate(176.757812 0)"/>
      <use xlink:href="#DejaVuSans-72" transform="translate(238.28125 0)"/>
      <use xlink:href="#DejaVuSans-76" transform="translate(279.394531 0)"/>
      <use xlink:href="#DejaVuSans-61" transform="translate(338.574219 0)"/>
      <use xlink:href="#DejaVuSans-62" transform="translate(399.853516 0)"/>
      <use xlink:href="#DejaVuSans-6c" transform="translate(463.330078 0)"/>
      <use xlink:href="#DejaVuSans-65" transform="translate(491.113281 0)"/>
     </g>
    </g>
    <g id="LineCollection_2">
     <path d="M 212.586364 75.976562 
L 212.586364 65.976562 
" style="fill: none; stroke: #000000; stroke-width: 1.5"/>
    </g>
    <g id="line2d_17">
     <path d="M 202.586364 70.976562 
L 222.586364 70.976562 
" style="fill: none; stroke: #000000; stroke-width: 1.5; stroke-linecap: square"/>
    </g>
    <g id="line2d_18">
     <g>
      <use xlink:href="#m5793f4ff47" x="212.586364" y="70.976562" style="stroke: #000000; stroke-linejoin: miter"/>
     </g>
    </g>
    <g id="text_18">
     <!-- reference_data ± SD -->
     <g transform="translate(230.586364 74.476562) scale(0.1 -0.1)">
      <defs>
       <path id="DejaVuSans-b1" d="M 2944 4013 
L 2944 2803 
L 4684 2803 
L 4684 2272 
L 2944 2272 
L 2944 1063 
L 2419 1063 
L 2419 2272 
L 678 2272 
L 678 2803 
L 2419 2803 
L 2419 4013 
L 2944 4013 
z
M 678 531 
L 4684 531 
L 4684 0 
L 678 0 
L 678 531 
z
" transform="scale(0.015625)"/>
       <path id="DejaVuSans-53" d="M 3425 4513 
L 3425 3897 
Q 3066 4069 2747 4153 
Q 2428 4238 2131 4238 
Q 1616 4238 1336 4038 
Q 1056 3838 1056 3469 
Q 1056 3159 1242 3001 
Q 1428 2844 1947 2747 
L 2328 2669 
Q 3034 2534 3370 2195 
Q 3706 1856 3706 1288 
Q 3706 609 3251 259 
Q 2797 -91 1919 -91 
Q 1588 -91 1214 -16 
Q 841 59 441 206 
L 441 856 
Q 825 641 1194 531 
Q 1563 422 1919 422 
Q 2459 422 2753 634 
Q 3047 847 3047 1241 
Q 3047 1584 2836 1778 
Q 2625 1972 2144 2069 
L 1759 2144 
Q 1053 2284 737 2584 
Q 422 2884 422 3419 
Q 422 4038 858 4394 
Q 1294 4750 2059 4750 
Q 2388 4750 2728 4690 
Q 3069 4631 3425 4513 
z
" transform="scale(0.015625)"/>
      </defs>
      <use xlink:href="#DejaVuSans-72"/>
      <use xlink:href="#DejaVuSans-65" transform="translate(38.863281 0)"/>
      <use xlink:href="#DejaVuSans-66" transform="translate(100.386719 0)"/>
      <use xlink:href="#DejaVuSans-65" transform="translate(135.591797 0)"/>
      <use xlink:href="#DejaVuSans-72" transform="translate(197.115234 0)"/>
      <use xlink:href="#DejaVuSans-65" transform="translate(235.978516 0)"/>
      <use xlink:href="#DejaVuSans-6e" transform="translate(297.501953 0)"/>
      <use xlink:href="#DejaVuSans-63" transform="translate(360.880859 0)"/>
      <use xlink:href="#DejaVuSans-65" transform="translate(415.861328 0)"/>
      <use xlink:href="#DejaVuSans-5f" transform="translate(477.384766 0)"/>
      <use xlink:href="#DejaVuSans-64" transform="translate(527.384766 0)"/>
      <use xlink:href="#DejaVuSans-61" transform="translate(590.861328 0)"/>
      <use xlink:href="#DejaVuSans-74" transform="translate(652.140625 0)"/>
      <use xlink:href="#DejaVuSans-61" transform="translate(691.349609 0)"/>
      <use xlink:href="#DejaVuSans-20" transform="translate(752.628906 0)"/>
      <use xlink:href="#DejaVuSans-b1" transform="translate(784.416016 0)"/>
      <use xlink:href="#DejaVuSans-20" transform="translate(868.205078 0)"/>
      <use xlink:href="#DejaVuSans-53" transform="translate(899.992188 0)"/>
      <use xlink:href="#DejaVuSans-44" transform="translate(963.46875 0)"/>
     </g>
    </g>
   </g>
  </g>
  <g id="axes_2">
   <g id="patch_8">
    <path d="M 394.363636 320.4 
L 648 320.4 
L 648 43.2 
L 394.363636 43.2 
z
" style="fill: #ffffff"/>
   </g>
   <g id="matplotlib.axis_3">
    <g id="xtick_7">
     <g id="line2d_19">
      <g>
       <use xlink:href="#m7686768690" x="415.5" y="320.4" style="stroke: #000000; stroke-width: 0.8"/>
      </g>
     </g>
     <g id="text_19">
      <!-- 0 -->
      <g transform="translate(412.31875 334.998438) scale(0.1 -0.1)">
       <use xlink:href="#DejaVuSans-30"/>
      </g>
     </g>
    </g>
    <g id="xtick_8">
     <g id="line2d_20">
      <g>
       <use xlink:href="#m7686768690" x="455.824259" y="320.4" style="stroke: #000000; stroke-width: 0.8"/>
      </g>
     </g>
     <g id="text_20">
      <!-- 100000 -->
      <g transform="translate(436.736759 334.998438) scale(0.1 -0.1)">
       <use xlink:href="#DejaVuSans-31"/>
       <use xlink:href="#DejaVuSans-30" transform="translate(63.623047 0)"/>
       <use xlink:href="#DejaVuSans-30" transform="translate(127.246094 0)"/>
       <use xlink:href="#DejaVuSans-30" transform="translate(190.869141 0)"/>
       <use xlink:href="#DejaVuSans-30" transform="translate(254.492188 0)"/>
       <use xlink:href="#DejaVuSans-30" transform="translate(318.115234 0)"/>
      </g>
     </g>
    </g>
    <g id="xtick_9">
     <g id="line2d_21">
      <g>
       <use xlink:href="#m7686768690" x="496.148518" y="320.4" style="stroke: #000000; stroke-width: 0.8"/>
      </g>
     </g>
     <g id="text_21">
      <!-- 200000 -->
      <g transform="translate(477.061018 334.998438) scale(0.1 -0.1)">
       <use xlink:href="#DejaVuSans-32"/>
       <use xlink:href="#DejaVuSans-30" transform="translate(63.623047 0)"/>
       <use xlink:href="#DejaVuSans-30" transform="translate(127.246094 0)"/>
       <use xlink:href="#DejaVuSans-30" transform="translate(190.869141 0)"/>
       <use xlink:href="#DejaVuSans-30" transform="translate(254.492188 0)"/>
       <use xlink:href="#DejaVuSans-30" transform="translate(318.115234 0)"/>
      </g>
     </g>
    </g>
    <g id="xtick_10">
     <g id="line2d_22">
      <g>
       <use xlink:href="#m7686768690" x="536.472777" y="320.4" style="stroke: #000000; stroke-width: 0.8"/>
      </g>
     </g>
     <g id="text_22">
      <!-- 300000 -->
      <g transform="translate(517.385277 334.998438) scale(0.1 -0.1)">
       <use xlink:href="#DejaVuSans-33"/>
       <use xlink:href="#DejaVuSans-30" transform="translate(63.623047 0)"/>
       <use xlink:href="#DejaVuSans-30" transform="translate(127.246094 0)"/>
       <use xlink:href="#DejaVuSans-30" transform="translate(190.869141 0)"/>
       <use xlink:href="#DejaVuSans-30" transform="translate(254.492188 0)"/>
       <use xlink:href="#DejaVuSans-30" transform="translate(318.115234 0)"/>
      </g>
     </g>
    </g>
    <g id="xtick_11">
     <g id="line2d_23">
      <g>
       <use xlink:href="#m7686768690" x="576.797036" y="320.4" style="stroke: #000000; stroke-width: 0.8"/>
      </g>
     </g>
     <g id="text_23">
      <!-- 400000 -->
      <g transform="translate(557.709536 334.998438) scale(0.1 -0.1)">
       <use xlink:href="#DejaVuSans-34"/>
       <use xlink:href="#DejaVuSans-30" transform="translate(63.623047 0)"/>
       <use xlink:href="#DejaVuSans-30" transform="translate(127.246094 0)"/>
       <use xlink:href="#DejaVuSans-30" transform="translate(190.869141 0)"/>
       <use xlink:href="#DejaVuSans-30" transform="translate(254.492188 0)"/>
       <use xlink:href="#DejaVuSans-30" transform="translate(318.115234 0)"/>
      </g>
     </g>
    </g>
    <g id="xtick_12">
     <g id="line2d_24">
      <g>
       <use xlink:href="#m7686768690" x="617.121295" y="320.4" style="stroke: #000000; stroke-width: 0.8"/>
      </g>
     </g>
     <g id="text_24">
      <!-- 500000 -->
      <g transform="translate(598.033795 334.998438) scale(0.1 -0.1)">
       <use xlink:href="#DejaVuSans-35"/>
       <use xlink:href="#DejaVuSans-30" transform="translate(63.623047 0)"/>
       <use xlink:href="#DejaVuSans-30" transform="translate(127.246094 0)"/>
       <use xlink:href="#DejaVuSans-30" transform="translate(190.869141 0)"/>
       <use xlink:href="#DejaVuSans-30" transform="translate(254.492188 0)"/>
       <use xlink:href="#DejaVuSans-30" transform="translate(318.115234 0)"/>
      </g>
     </g>
    </g>
    <g id="text_25">
     <!-- time -->
     <g transform="translate(507.626506 350.19625) scale(0.12 -0.12)">
      <use xlink:href="#DejaVuSans-74"/>
      <use xlink:href="#DejaVuSans-69" transform="translate(39.208984 0)"/>
      <use xlink:href="#DejaVuSans-6d" transform="translate(66.992188 0)"/>
      <use xlink:href="#DejaVuSans-65" transform="translate(164.404297 0)"/>
     </g>
    </g>
   </g>
   <g id="matplotlib.axis_4">
    <g id="ytick_8">
     <g id="line2d_25">
      <defs>
       <path id="mdac14cf795" d="M 0 0 
L -2 0 
" style="stroke: #000000; stroke-width: 0.6"/>
      </defs>
      <g>
       <use xlink:href="#mdac14cf795" x="394.363636" y="248.867821" style="stroke: #000000; stroke-width: 0.6"/>
      </g>
     </g>
     <g id="text_26">
      <!-- $\mathdefault{3\times10^{-2}}$ -->
      <g transform="translate(346.863636 252.66704) scale(0.1 -0.1)">
       <defs>
        <path id="DejaVuSans-d7" d="M 4488 3438 
L 3059 2003 
L 4488 575 
L 4116 197 
L 2681 1631 
L 1247 197 
L 878 575 
L 2303 2003 
L 878 3438 
L 1247 3816 
L 2681 2381 
L 4116 3816 
L 4488 3438 
z
" transform="scale(0.015625)"/>
        <path id="DejaVuSans-2212" d="M 678 2272 
L 4684 2272 
L 4684 1741 
L 678 1741 
L 678 2272 
z
" transform="scale(0.015625)"/>
       </defs>
       <use xlink:href="#DejaVuSans-33" transform="translate(0 0.765625)"/>
       <use xlink:href="#DejaVuSans-d7" transform="translate(83.105469 0.765625)"/>
       <use xlink:href="#DejaVuSans-31" transform="translate(186.376953 0.765625)"/>
       <use xlink:href="#DejaVuSans-30" transform="translate(250 0.765625)"/>
       <use xlink:href="#DejaVuSans-2212" transform="translate(314.580078 39.046875) scale(0.7)"/>
       <use xlink:href="#DejaVuSans-32" transform="translate(373.232422 39.046875) scale(0.7)"/>
      </g>
     </g>
    </g>
    <g id="ytick_9">
     <g id="line2d_26">
      <g>
       <use xlink:href="#mdac14cf795" x="394.363636" y="194.950497" style="stroke: #000000; stroke-width: 0.6"/>
      </g>
     </g>
     <g id="text_27">
      <!-- $\mathdefault{4\times10^{-2}}$ -->
      <g transform="translate(346.863636 198.749716) scale(0.1 -0.1)">
       <use xlink:href="#DejaVuSans-34" transform="translate(0 0.765625)"/>
       <use xlink:href="#DejaVuSans-d7" transform="translate(83.105469 0.765625)"/>
       <use xlink:href="#DejaVuSans-31" transform="translate(186.376953 0.765625)"/>
       <use xlink:href="#DejaVuSans-30" transform="translate(250 0.765625)"/>
       <use xlink:href="#DejaVuSans-2212" transform="translate(314.580078 39.046875) scale(0.7)"/>
       <use xlink:href="#DejaVuSans-32" transform="translate(373.232422 39.046875) scale(0.7)"/>
      </g>
     </g>
    </g>
    <g id="ytick_10">
     <g id="line2d_27">
      <g>
       <use xlink:href="#mdac14cf795" x="394.363636" y="153.128971" style="stroke: #000000; stroke-width: 0.6"/>
      </g>
     </g>
    </g>
    <g id="ytick_11">
     <g id="line2d_28">
      <g>
       <use xlink:href="#mdac14cf795" x="394.363636" y="118.958296" style="stroke: #000000; stroke-width: 0.6"/>
      </g>
     </g>
     <g id="text_28">
      <!-- $\mathdefault{6\times10^{-2}}$ -->
      <g transform="translate(346.863636 122.757515) scale(0.1 -0.1)">
       <use xlink:href="#DejaVuSans-36" transform="translate(0 0.765625)"/>
       <use xlink:href="#DejaVuSans-d7" transform="translate(83.105469 0.765625)"/>
       <use xlink:href="#DejaVuSans-31" transform="translate(186.376953 0.765625)"/>
       <use xlink:href="#DejaVuSans-30" transform="translate(250 0.765625)"/>
       <use xlink:href="#DejaVuSans-2212" transform="translate(314.580078 39.046875) scale(0.7)"/>
       <use xlink:href="#DejaVuSans-32" transform="translate(373.232422 39.046875) scale(0.7)"/>
      </g>
     </g>
    </g>
    <g id="ytick_12">
     <g id="line2d_29">
      <g>
       <use xlink:href="#mdac14cf795" x="394.363636" y="90.067403" style="stroke: #000000; stroke-width: 0.6"/>
      </g>
     </g>
    </g>
    <g id="ytick_13">
     <g id="line2d_30">
      <g>
       <use xlink:href="#mdac14cf795" x="394.363636" y="65.040972" style="stroke: #000000; stroke-width: 0.6"/>
      </g>
     </g>
    </g>
    <g id="text_29">
     <!-- hba1c -->
     <g transform="translate(340.368011 200.205) rotate(-90) scale(0.12 -0.12)">
      <use xlink:href="#DejaVuSans-68"/>
      <use xlink:href="#DejaVuSans-62" transform="translate(63.378906 0)"/>
      <use xlink:href="#DejaVuSans-61" transform="translate(126.855469 0)"/>
      <use xlink:href="#DejaVuSans-31" transform="translate(188.134766 0)"/>
      <use xlink:href="#DejaVuSans-63" transform="translate(251.757812 0)"/>
     </g>
    </g>
   </g>
   <g id="LineCollection_3">
    <path d="M 415.5 60.237196 
L 415.5 49.39515 
" clip-path="url(#p2430477034)" style="fill: none; stroke: #000000; stroke-width: 1.5"/>
    <path d="M 468.340909 98.249337 
L 468.340909 87.732962 
" clip-path="url(#p2430477034)" style="fill: none; stroke: #000000; stroke-width: 1.5"/>
    <path d="M 521.181818 100.51654 
L 521.181818 89.158757 
" clip-path="url(#p2430477034)" style="fill: none; stroke: #000000; stroke-width: 1.5"/>
    <path d="M 626.863636 95.786688 
L 626.863636 81.929161 
" clip-path="url(#p2430477034)" style="fill: none; stroke: #000000; stroke-width: 1.5"/>
   </g>
   <g id="line2d_31">
    <path d="M 415.5 54.562773 
L 417.083768 52.851495 
L 418.708646 51.456682 
L 421.098844 49.74483 
L 422.711382 49.008112 
L 424.85746 48.285596 
L 426.45454 48.014927 
L 428.75322 47.861996 
L 430.512876 47.979097 
L 432.968742 48.371363 
L 435.095458 48.937827 
L 437.585517 49.806825 
L 440.066294 50.899851 
L 442.723134 52.195896 
L 446.150691 54.115264 
L 450.229019 56.6559 
L 453.860198 59.146635 
L 457.622032 61.862844 
L 464.276224 66.716345 
L 464.382596 66.877695 
L 472.405594 72.909376 
L 472.510389 73.000756 
L 490.228442 86.030531 
L 499.905472 92.652812 
L 508.769063 98.326551 
L 518.137097 103.911114 
L 526.629351 108.552065 
L 535.030638 112.779821 
L 543.522248 116.697912 
L 552.310266 120.403677 
L 561.401094 123.883258 
L 571.243681 127.283893 
L 580.802622 130.220728 
L 591.214068 133.077134 
L 600.973716 135.419895 
L 611.531536 137.67094 
L 622.167519 139.65107 
L 630.928322 141.099276 
L 630.928322 141.099276 
" clip-path="url(#p2430477034)" style="fill: none; stroke: #0000ff; stroke-width: 1.5; stroke-linecap: square"/>
   </g>
   <g id="line2d_32">
    <path d="M 415.5 54.737784 
L 468.340909 92.917398 
L 521.181818 94.751625 
L 626.863636 88.729878 
" clip-path="url(#p2430477034)" style="fill: none; stroke: #000000; stroke-width: 1.5; stroke-linecap: square"/>
    <g clip-path="url(#p2430477034)">
     <use xlink:href="#m5793f4ff47" x="415.5" y="54.737784" style="stroke: #000000; stroke-linejoin: miter"/>
     <use xlink:href="#m5793f4ff47" x="468.340909" y="92.917398" style="stroke: #000000; stroke-linejoin: miter"/>
     <use xlink:href="#m5793f4ff47" x="521.181818" y="94.751625" style="stroke: #000000; stroke-linejoin: miter"/>
     <use xlink:href="#m5793f4ff47" x="626.863636" y="88.729878" style="stroke: #000000; stroke-linejoin: miter"/>
    </g>
   </g>
   <g id="patch_9">
    <path d="M 394.363636 320.4 
L 394.363636 43.2 
" style="fill: none; stroke: #000000; stroke-width: 0.8; stroke-linejoin: miter; stroke-linecap: square"/>
   </g>
   <g id="patch_10">
    <path d="M 648 320.4 
L 648 43.2 
" style="fill: none; stroke: #000000; stroke-width: 0.8; stroke-linejoin: miter; stroke-linecap: square"/>
   </g>
   <g id="patch_11">
    <path d="M 394.363636 320.4 
L 648 320.4 
" style="fill: none; stroke: #000000; stroke-width: 0.8; stroke-linejoin: miter; stroke-linecap: square"/>
   </g>
   <g id="patch_12">
    <path d="M 394.363636 43.2 
L 648 43.2 
" style="fill: none; stroke: #000000; stroke-width: 0.8; stroke-linejoin: miter; stroke-linecap: square"/>
   </g>
   <g id="text_30">
    <!-- Blonde2015 fm_dul_DUL15__hba1c -->
    <g transform="translate(398.023381 37.2) scale(0.14 -0.14)">
     <use xlink:href="#DejaVuSans-42"/>
     <use xlink:href="#DejaVuSans-6c" transform="translate(68.603516 0)"/>
     <use xlink:href="#DejaVuSans-6f" transform="translate(96.386719 0)"/>
     <use xlink:href="#DejaVuSans-6e" transform="translate(157.568359 0)"/>
     <use xlink:href="#DejaVuSans-64" transform="translate(220.947266 0)"/>
     <use xlink:href="#DejaVuSans-65" transform="translate(284.423828 0)"/>
     <use xlink:href="#DejaVuSans-32" transform="translate(345.947266 0)"/>
     <use xlink:href="#DejaVuSans-30" transform="translate(409.570312 0)"/>
     <use xlink:href="#DejaVuSans-31" transform="translate(473.193359 0)"/>
     <use xlink:href="#DejaVuSans-35" transform="translate(536.816406 0)"/>
     <use xlink:href="#DejaVuSans-20" transform="translate(600.439453 0)"/>
     <use xlink:href="#DejaVuSans-66" transform="translate(632.226562 0)"/>
     <use xlink:href="#DejaVuSans-6d" transform="translate(667.431641 0)"/>
     <use xlink:href="#DejaVuSans-5f" transform="translate(764.84375 0)"/>
     <use xlink:href="#DejaVuSans-64" transform="translate(814.84375 0)"/>
     <use xlink:href="#DejaVuSans-75" transform="translate(878.320312 0)"/>
     <use xlink:href="#DejaVuSans-6c" transform="translate(941.699219 0)"/>
     <use xlink:href="#DejaVuSans-5f" transform="translate(969.482422 0)"/>
     <use xlink:href="#DejaVuSans-44" transform="translate(1019.482422 0)"/>
     <use xlink:href="#DejaVuSans-55" transform="translate(1096.484375 0)"/>
     <use xlink:href="#DejaVuSans-4c" transform="translate(1169.677734 0)"/>
     <use xlink:href="#DejaVuSans-31" transform="translate(1225.390625 0)"/>
     <use xlink:href="#DejaVuSans-35" transform="translate(1289.013672 0)"/>
     <use xlink:href="#DejaVuSans-5f" transform="translate(1352.636719 0)"/>
     <use xlink:href="#DejaVuSans-5f" transform="translate(1402.636719 0)"/>
     <use xlink:href="#DejaVuSans-68" transform="translate(1452.636719 0)"/>
     <use xlink:href="#DejaVuSans-62" transform="translate(1516.015625 0)"/>
     <use xlink:href="#DejaVuSans-61" transform="translate(1579.492188 0)"/>
     <use xlink:href="#DejaVuSans-31" transform="translate(1640.771484 0)"/>
     <use xlink:href="#DejaVuSans-63" transform="translate(1704.394531 0)"/>
    </g>
   </g>
   <g id="legend_2">
    <g id="patch_13">
     <path d="M 504.95 80.834375 
L 641 80.834375 
Q 643 80.834375 643 78.834375 
L 643 50.2 
Q 643 48.2 641 48.2 
L 504.95 48.2 
Q 502.95 48.2 502.95 50.2 
L 502.95 78.834375 
Q 502.95 80.834375 504.95 80.834375 
z
" style="fill: #ffffff; opacity: 0.8; stroke: #cccccc; stroke-linejoin: miter"/>
    </g>
    <g id="line2d_33">
     <path d="M 506.95 56.298437 
L 516.95 56.298437 
L 526.95 56.298437 
" style="fill: none; stroke: #0000ff; stroke-width: 1.5; stroke-linecap: square"/>
    </g>
    <g id="text_31">
     <!-- observable -->
     <g transform="translate(534.95 59.798437) scale(0.1 -0.1)">
      <use xlink:href="#DejaVuSans-6f"/>
      <use xlink:href="#DejaVuSans-62" transform="translate(61.181641 0)"/>
      <use xlink:href="#DejaVuSans-73" transform="translate(124.658203 0)"/>
      <use xlink:href="#DejaVuSans-65" transform="translate(176.757812 0)"/>
      <use xlink:href="#DejaVuSans-72" transform="translate(238.28125 0)"/>
      <use xlink:href="#DejaVuSans-76" transform="translate(279.394531 0)"/>
      <use xlink:href="#DejaVuSans-61" transform="translate(338.574219 0)"/>
      <use xlink:href="#DejaVuSans-62" transform="translate(399.853516 0)"/>
      <use xlink:href="#DejaVuSans-6c" transform="translate(463.330078 0)"/>
      <use xlink:href="#DejaVuSans-65" transform="translate(491.113281 0)"/>
     </g>
    </g>
    <g id="LineCollection_4">
     <path d="M 516.95 75.976562 
L 516.95 65.976562 
" style="fill: none; stroke: #000000; stroke-width: 1.5"/>
    </g>
    <g id="line2d_34">
     <path d="M 506.95 70.976562 
L 526.95 70.976562 
" style="fill: none; stroke: #000000; stroke-width: 1.5; stroke-linecap: square"/>
    </g>
    <g id="line2d_35">
     <g>
      <use xlink:href="#m5793f4ff47" x="516.95" y="70.976562" style="stroke: #000000; stroke-linejoin: miter"/>
     </g>
    </g>
    <g id="text_32">
     <!-- reference_data ± SD -->
     <g transform="translate(534.95 74.476562) scale(0.1 -0.1)">
      <use xlink:href="#DejaVuSans-72"/>
      <use xlink:href="#DejaVuSans-65" transform="translate(38.863281 0)"/>
      <use xlink:href="#DejaVuSans-66" transform="translate(100.386719 0)"/>
      <use xlink:href="#DejaVuSans-65" transform="translate(135.591797 0)"/>
      <use xlink:href="#DejaVuSans-72" transform="translate(197.115234 0)"/>
      <use xlink:href="#DejaVuSans-65" transform="translate(235.978516 0)"/>
      <use xlink:href="#DejaVuSans-6e" transform="translate(297.501953 0)"/>
      <use xlink:href="#DejaVuSans-63" transform="translate(360.880859 0)"/>
      <use xlink:href="#DejaVuSans-65" transform="translate(415.861328 0)"/>
      <use xlink:href="#DejaVuSans-5f" transform="translate(477.384766 0)"/>
      <use xlink:href="#DejaVuSans-64" transform="translate(527.384766 0)"/>
      <use xlink:href="#DejaVuSans-61" transform="translate(590.861328 0)"/>
      <use xlink:href="#DejaVuSans-74" transform="translate(652.140625 0)"/>
      <use xlink:href="#DejaVuSans-61" transform="translate(691.349609 0)"/>
      <use xlink:href="#DejaVuSans-20" transform="translate(752.628906 0)"/>
      <use xlink:href="#DejaVuSans-b1" transform="translate(784.416016 0)"/>
      <use xlink:href="#DejaVuSans-20" transform="translate(868.205078 0)"/>
      <use xlink:href="#DejaVuSans-53" transform="translate(899.992188 0)"/>
      <use xlink:href="#DejaVuSans-44" transform="translate(963.46875 0)"/>
     </g>
    </g>
   </g>
  </g>
 </g>
 <defs>
  <clipPath id="pec86b08da2">
   <rect x="90" y="43.2" width="253.636364" height="277.2"/>
  </clipPath>
  <clipPath id="p2430477034">
   <rect x="394.363636" y="43.2" width="253.636364" height="277.2"/>
  </clipPath>
 </defs>
</svg>
