<?xml version="1.0" encoding="utf-8" standalone="no"?>
<!DOCTYPE svg PUBLIC "-//W3C//DTD SVG 1.1//EN"
  "http://www.w3.org/Graphics/SVG/1.1/DTD/svg11.dtd">
<svg xmlns:xlink="http://www.w3.org/1999/xlink" width="720pt" height="720pt" viewBox="0 0 720 720" xmlns="http://www.w3.org/2000/svg" version="1.1">
 <metadata>
  <rdf:RDF xmlns:dc="http://purl.org/dc/elements/1.1/" xmlns:cc="http://creativecommons.org/ns#" xmlns:rdf="http://www.w3.org/1999/02/22-rdf-syntax-ns#">
   <cc:Work>
    <dc:type rdf:resource="http://purl.org/dc/dcmitype/StillImage"/>
    <dc:date>2025-10-09T12:36:37.737165</dc:date>
    <dc:format>image/svg+xml</dc:format>
    <dc:creator>
     <cc:Agent>
      <dc:title>Matplotlib v3.10.6, https://matplotlib.org/</dc:title>
     </cc:Agent>
    </dc:creator>
   </cc:Work>
  </rdf:RDF>
 </metadata>
 <defs>
  <style type="text/css">*{stroke-linejoin: round; stroke-linecap: butt}</style>
 </defs>
 <g id="figure_1">
  <g id="patch_1">
   <path d="M 0 720 
L 720 720 
L 720 0 
L 0 0 
z
" style="fill: #ffffff"/>
  </g>
  <g id="axes_1">
   <g id="patch_2">
    <path d="M 90 338.4 
L 343.636364 338.4 
L 343.636364 86.4 
L 90 86.4 
z
" style="fill: #ffffff"/>
   </g>
   <g id="FillBetweenPolyCollection_1">
    <defs>
     <path id="mcdba6e65e7" d="M 108.090512 -572.089426 
L 108.090512 -572.089426 
L 130.24216 -546.042636 
L 285.303692 -563.510118 
L 322.223104 -586.545623 
L 322.223104 -572.089426 
L 322.223104 -572.089426 
L 285.303692 -572.089426 
L 130.24216 -572.089426 
L 108.090512 -572.089426 
z
" style="stroke: #ff8c00; stroke-opacity: 0.4"/>
    </defs>
    <g clip-path="url(#p07fec7b61f)">
     <use xlink:href="#mcdba6e65e7" x="0" y="720" style="fill: #ff8c00; fill-opacity: 0.4; stroke: #ff8c00; stroke-opacity: 0.4"/>
    </g>
   </g>
   <g id="matplotlib.axis_1">
    <g id="xtick_1">
     <g id="line2d_1">
      <defs>
       <path id="mdaa5f65dcd" d="M 0 0 
L 0 3.5 
" style="stroke: #000000; stroke-width: 0.8"/>
      </defs>
      <g>
       <use xlink:href="#mdaa5f65dcd" x="108.090512" y="338.4" style="stroke: #000000; stroke-width: 0.8"/>
      </g>
     </g>
    </g>
    <g id="xtick_2">
     <g id="line2d_2">
      <g>
       <use xlink:href="#mdaa5f65dcd" x="159.367474" y="338.4" style="stroke: #000000; stroke-width: 0.8"/>
      </g>
     </g>
    </g>
    <g id="xtick_3">
     <g id="line2d_3">
      <g>
       <use xlink:href="#mdaa5f65dcd" x="210.644436" y="338.4" style="stroke: #000000; stroke-width: 0.8"/>
      </g>
     </g>
    </g>
    <g id="xtick_4">
     <g id="line2d_4">
      <g>
       <use xlink:href="#mdaa5f65dcd" x="261.921397" y="338.4" style="stroke: #000000; stroke-width: 0.8"/>
      </g>
     </g>
    </g>
    <g id="xtick_5">
     <g id="line2d_5">
      <g>
       <use xlink:href="#mdaa5f65dcd" x="313.198359" y="338.4" style="stroke: #000000; stroke-width: 0.8"/>
      </g>
     </g>
    </g>
   </g>
   <g id="matplotlib.axis_2">
    <g id="ytick_1">
     <g id="line2d_6">
      <defs>
       <path id="m3ad2099bf5" d="M 0 0 
L -3.5 0 
" style="stroke: #000000; stroke-width: 0.8"/>
      </defs>
      <g>
       <use xlink:href="#m3ad2099bf5" x="90" y="310.338365" style="stroke: #000000; stroke-width: 0.8"/>
      </g>
     </g>
     <g id="text_1">
      <!-- −3 -->
      <g transform="translate(68.257812 314.137583) scale(0.1 -0.1)">
       <defs>
        <path id="DejaVuSans-2212" d="M 678 2272 
L 4684 2272 
L 4684 1741 
L 678 1741 
L 678 2272 
z
" transform="scale(0.015625)"/>
        <path id="DejaVuSans-33" d="M 2597 2516 
Q 3050 2419 3304 2112 
Q 3559 1806 3559 1356 
Q 3559 666 3084 287 
Q 2609 -91 1734 -91 
Q 1441 -91 1130 -33 
Q 819 25 488 141 
L 488 750 
Q 750 597 1062 519 
Q 1375 441 1716 441 
Q 2309 441 2620 675 
Q 2931 909 2931 1356 
Q 2931 1769 2642 2001 
Q 2353 2234 1838 2234 
L 1294 2234 
L 1294 2753 
L 1863 2753 
Q 2328 2753 2575 2939 
Q 2822 3125 2822 3475 
Q 2822 3834 2567 4026 
Q 2313 4219 1838 4219 
Q 1578 4219 1281 4162 
Q 984 4106 628 3988 
L 628 4550 
Q 988 4650 1302 4700 
Q 1616 4750 1894 4750 
Q 2613 4750 3031 4423 
Q 3450 4097 3450 3541 
Q 3450 3153 3228 2886 
Q 3006 2619 2597 2516 
z
" transform="scale(0.015625)"/>
       </defs>
       <use xlink:href="#DejaVuSans-2212"/>
       <use xlink:href="#DejaVuSans-33" transform="translate(83.789062 0)"/>
      </g>
     </g>
    </g>
    <g id="ytick_2">
     <g id="line2d_7">
      <g>
       <use xlink:href="#m3ad2099bf5" x="90" y="256.195768" style="stroke: #000000; stroke-width: 0.8"/>
      </g>
     </g>
     <g id="text_2">
      <!-- −2 -->
      <g transform="translate(68.257812 259.994987) scale(0.1 -0.1)">
       <defs>
        <path id="DejaVuSans-32" d="M 1228 531 
L 3431 531 
L 3431 0 
L 469 0 
L 469 531 
Q 828 903 1448 1529 
Q 2069 2156 2228 2338 
Q 2531 2678 2651 2914 
Q 2772 3150 2772 3378 
Q 2772 3750 2511 3984 
Q 2250 4219 1831 4219 
Q 1534 4219 1204 4116 
Q 875 4013 500 3803 
L 500 4441 
Q 881 4594 1212 4672 
Q 1544 4750 1819 4750 
Q 2544 4750 2975 4387 
Q 3406 4025 3406 3419 
Q 3406 3131 3298 2873 
Q 3191 2616 2906 2266 
Q 2828 2175 2409 1742 
Q 1991 1309 1228 531 
z
" transform="scale(0.015625)"/>
       </defs>
       <use xlink:href="#DejaVuSans-2212"/>
       <use xlink:href="#DejaVuSans-32" transform="translate(83.789062 0)"/>
      </g>
     </g>
    </g>
    <g id="ytick_3">
     <g id="line2d_8">
      <g>
       <use xlink:href="#m3ad2099bf5" x="90" y="202.053171" style="stroke: #000000; stroke-width: 0.8"/>
      </g>
     </g>
     <g id="text_3">
      <!-- −1 -->
      <g transform="translate(68.257812 205.85239) scale(0.1 -0.1)">
       <defs>
        <path id="DejaVuSans-31" d="M 794 531 
L 1825 531 
L 1825 4091 
L 703 3866 
L 703 4441 
L 1819 4666 
L 2450 4666 
L 2450 531 
L 3481 531 
L 3481 0 
L 794 0 
L 794 531 
z
" transform="scale(0.015625)"/>
       </defs>
       <use xlink:href="#DejaVuSans-2212"/>
       <use xlink:href="#DejaVuSans-31" transform="translate(83.789062 0)"/>
      </g>
     </g>
    </g>
    <g id="ytick_4">
     <g id="line2d_9">
      <g>
       <use xlink:href="#m3ad2099bf5" x="90" y="147.910574" style="stroke: #000000; stroke-width: 0.8"/>
      </g>
     </g>
     <g id="text_4">
      <!-- 0 -->
      <g transform="translate(76.6375 151.709793) scale(0.1 -0.1)">
       <defs>
        <path id="DejaVuSans-30" d="M 2034 4250 
Q 1547 4250 1301 3770 
Q 1056 3291 1056 2328 
Q 1056 1369 1301 889 
Q 1547 409 2034 409 
Q 2525 409 2770 889 
Q 3016 1369 3016 2328 
Q 3016 3291 2770 3770 
Q 2525 4250 2034 4250 
z
M 2034 4750 
Q 2819 4750 3233 4129 
Q 3647 3509 3647 2328 
Q 3647 1150 3233 529 
Q 2819 -91 2034 -91 
Q 1250 -91 836 529 
Q 422 1150 422 2328 
Q 422 3509 836 4129 
Q 1250 4750 2034 4750 
z
" transform="scale(0.015625)"/>
       </defs>
       <use xlink:href="#DejaVuSans-30"/>
      </g>
     </g>
    </g>
    <g id="ytick_5">
     <g id="line2d_10">
      <g>
       <use xlink:href="#m3ad2099bf5" x="90" y="93.767978" style="stroke: #000000; stroke-width: 0.8"/>
      </g>
     </g>
     <g id="text_5">
      <!-- 1 -->
      <g transform="translate(76.6375 97.567196) scale(0.1 -0.1)">
       <use xlink:href="#DejaVuSans-31"/>
      </g>
     </g>
    </g>
    <g id="text_6">
     <!-- fpg_change -->
     <g transform="translate(61.428438 247.212187) rotate(-90) scale(0.12 -0.12)">
      <defs>
       <path id="DejaVuSans-66" d="M 2375 4863 
L 2375 4384 
L 1825 4384 
Q 1516 4384 1395 4259 
Q 1275 4134 1275 3809 
L 1275 3500 
L 2222 3500 
L 2222 3053 
L 1275 3053 
L 1275 0 
L 697 0 
L 697 3053 
L 147 3053 
L 147 3500 
L 697 3500 
L 697 3744 
Q 697 4328 969 4595 
Q 1241 4863 1831 4863 
L 2375 4863 
z
" transform="scale(0.015625)"/>
       <path id="DejaVuSans-70" d="M 1159 525 
L 1159 -1331 
L 581 -1331 
L 581 3500 
L 1159 3500 
L 1159 2969 
Q 1341 3281 1617 3432 
Q 1894 3584 2278 3584 
Q 2916 3584 3314 3078 
Q 3713 2572 3713 1747 
Q 3713 922 3314 415 
Q 2916 -91 2278 -91 
Q 1894 -91 1617 61 
Q 1341 213 1159 525 
z
M 3116 1747 
Q 3116 2381 2855 2742 
Q 2594 3103 2138 3103 
Q 1681 3103 1420 2742 
Q 1159 2381 1159 1747 
Q 1159 1113 1420 752 
Q 1681 391 2138 391 
Q 2594 391 2855 752 
Q 3116 1113 3116 1747 
z
" transform="scale(0.015625)"/>
       <path id="DejaVuSans-67" d="M 2906 1791 
Q 2906 2416 2648 2759 
Q 2391 3103 1925 3103 
Q 1463 3103 1205 2759 
Q 947 2416 947 1791 
Q 947 1169 1205 825 
Q 1463 481 1925 481 
Q 2391 481 2648 825 
Q 2906 1169 2906 1791 
z
M 3481 434 
Q 3481 -459 3084 -895 
Q 2688 -1331 1869 -1331 
Q 1566 -1331 1297 -1286 
Q 1028 -1241 775 -1147 
L 775 -588 
Q 1028 -725 1275 -790 
Q 1522 -856 1778 -856 
Q 2344 -856 2625 -561 
Q 2906 -266 2906 331 
L 2906 616 
Q 2728 306 2450 153 
Q 2172 0 1784 0 
Q 1141 0 747 490 
Q 353 981 353 1791 
Q 353 2603 747 3093 
Q 1141 3584 1784 3584 
Q 2172 3584 2450 3431 
Q 2728 3278 2906 2969 
L 2906 3500 
L 3481 3500 
L 3481 434 
z
" transform="scale(0.015625)"/>
       <path id="DejaVuSans-5f" d="M 3263 -1063 
L 3263 -1509 
L -63 -1509 
L -63 -1063 
L 3263 -1063 
z
" transform="scale(0.015625)"/>
       <path id="DejaVuSans-63" d="M 3122 3366 
L 3122 2828 
Q 2878 2963 2633 3030 
Q 2388 3097 2138 3097 
Q 1578 3097 1268 2742 
Q 959 2388 959 1747 
Q 959 1106 1268 751 
Q 1578 397 2138 397 
Q 2388 397 2633 464 
Q 2878 531 3122 666 
L 3122 134 
Q 2881 22 2623 -34 
Q 2366 -91 2075 -91 
Q 1284 -91 818 406 
Q 353 903 353 1747 
Q 353 2603 823 3093 
Q 1294 3584 2113 3584 
Q 2378 3584 2631 3529 
Q 2884 3475 3122 3366 
z
" transform="scale(0.015625)"/>
       <path id="DejaVuSans-68" d="M 3513 2113 
L 3513 0 
L 2938 0 
L 2938 2094 
Q 2938 2591 2744 2837 
Q 2550 3084 2163 3084 
Q 1697 3084 1428 2787 
Q 1159 2491 1159 1978 
L 1159 0 
L 581 0 
L 581 4863 
L 1159 4863 
L 1159 2956 
Q 1366 3272 1645 3428 
Q 1925 3584 2291 3584 
Q 2894 3584 3203 3211 
Q 3513 2838 3513 2113 
z
" transform="scale(0.015625)"/>
       <path id="DejaVuSans-61" d="M 2194 1759 
Q 1497 1759 1228 1600 
Q 959 1441 959 1056 
Q 959 750 1161 570 
Q 1363 391 1709 391 
Q 2188 391 2477 730 
Q 2766 1069 2766 1631 
L 2766 1759 
L 2194 1759 
z
M 3341 1997 
L 3341 0 
L 2766 0 
L 2766 531 
Q 2569 213 2275 61 
Q 1981 -91 1556 -91 
Q 1019 -91 701 211 
Q 384 513 384 1019 
Q 384 1609 779 1909 
Q 1175 2209 1959 2209 
L 2766 2209 
L 2766 2266 
Q 2766 2663 2505 2880 
Q 2244 3097 1772 3097 
Q 1472 3097 1187 3025 
Q 903 2953 641 2809 
L 641 3341 
Q 956 3463 1253 3523 
Q 1550 3584 1831 3584 
Q 2591 3584 2966 3190 
Q 3341 2797 3341 1997 
z
" transform="scale(0.015625)"/>
       <path id="DejaVuSans-6e" d="M 3513 2113 
L 3513 0 
L 2938 0 
L 2938 2094 
Q 2938 2591 2744 2837 
Q 2550 3084 2163 3084 
Q 1697 3084 1428 2787 
Q 1159 2491 1159 1978 
L 1159 0 
L 581 0 
L 581 3500 
L 1159 3500 
L 1159 2956 
Q 1366 3272 1645 3428 
Q 1925 3584 2291 3584 
Q 2894 3584 3203 3211 
Q 3513 2838 3513 2113 
z
" transform="scale(0.015625)"/>
       <path id="DejaVuSans-65" d="M 3597 1894 
L 3597 1613 
L 953 1613 
Q 991 1019 1311 708 
Q 1631 397 2203 397 
Q 2534 397 2845 478 
Q 3156 559 3463 722 
L 3463 178 
Q 3153 47 2828 -22 
Q 2503 -91 2169 -91 
Q 1331 -91 842 396 
Q 353 884 353 1716 
Q 353 2575 817 3079 
Q 1281 3584 2069 3584 
Q 2775 3584 3186 3129 
Q 3597 2675 3597 1894 
z
M 3022 2063 
Q 3016 2534 2758 2815 
Q 2500 3097 2075 3097 
Q 1594 3097 1305 2825 
Q 1016 2553 972 2059 
L 3022 2063 
z
" transform="scale(0.015625)"/>
      </defs>
      <use xlink:href="#DejaVuSans-66"/>
      <use xlink:href="#DejaVuSans-70" transform="translate(35.205078 0)"/>
      <use xlink:href="#DejaVuSans-67" transform="translate(98.681641 0)"/>
      <use xlink:href="#DejaVuSans-5f" transform="translate(162.158203 0)"/>
      <use xlink:href="#DejaVuSans-63" transform="translate(212.158203 0)"/>
      <use xlink:href="#DejaVuSans-68" transform="translate(267.138672 0)"/>
      <use xlink:href="#DejaVuSans-61" transform="translate(330.517578 0)"/>
      <use xlink:href="#DejaVuSans-6e" transform="translate(391.796875 0)"/>
      <use xlink:href="#DejaVuSans-67" transform="translate(455.175781 0)"/>
      <use xlink:href="#DejaVuSans-65" transform="translate(518.652344 0)"/>
     </g>
    </g>
   </g>
   <g id="line2d_11">
    <path d="M 90 147.910574 
L 343.636364 147.910574 
" clip-path="url(#p07fec7b61f)" style="fill: none; stroke: #000000; stroke-width: 1.5; stroke-linecap: square"/>
   </g>
   <g id="line2d_12">
    <defs>
     <path id="m63f82f752e" d="M 0 3 
C 0.795609 3 1.55874 2.683901 2.12132 2.12132 
C 2.683901 1.55874 3 0.795609 3 0 
C 3 -0.795609 2.683901 -1.55874 2.12132 -2.12132 
C 1.55874 -2.683901 0.795609 -3 0 -3 
C -0.795609 -3 -1.55874 -2.683901 -2.12132 -2.12132 
C -2.683901 -1.55874 -3 -0.795609 -3 0 
C -3 0.795609 -2.683901 1.55874 -2.12132 2.12132 
C -1.55874 2.683901 -0.795609 3 0 3 
z
" style="stroke: #ff8c00"/>
    </defs>
    <g clip-path="url(#p07fec7b61f)">
     <use xlink:href="#m63f82f752e" x="108.090512" y="147.910574" style="fill: #ff8c00; stroke: #ff8c00"/>
     <use xlink:href="#m63f82f752e" x="130.24216" y="173.957364" style="fill: #ff8c00; stroke: #ff8c00"/>
     <use xlink:href="#m63f82f752e" x="285.303692" y="156.489882" style="fill: #ff8c00; stroke: #ff8c00"/>
     <use xlink:href="#m63f82f752e" x="322.223104" y="133.454377" style="fill: #ff8c00; stroke: #ff8c00"/>
    </g>
   </g>
   <g id="line2d_13">
    <path d="M 108.090512 147.910574 
L 108.951143 147.994122 
L 110.031724 148.311775 
L 111.038006 148.787366 
L 112.690466 149.867488 
L 114.342927 151.226 
L 115.995123 152.773904 
L 120.40063 157.336404 
L 124.806137 161.90733 
L 128.43531 165.369183 
L 132.064483 168.445817 
L 135.693656 171.11015 
L 139.322828 173.375195 
L 142.952001 175.274219 
L 146.581174 176.849375 
L 150.210347 178.144771 
L 153.83952 179.20269 
L 157.468693 180.06168 
L 159.77769 180.516851 
L 159.884701 180.775213 
L 160.930906 181.0768 
L 162.23278 181.696702 
L 163.802841 182.727331 
L 165.577753 184.163136 
L 168.14581 186.556301 
L 178.88154 196.987915 
L 182.640517 200.066854 
L 185.146501 201.884708 
L 187.652485 203.516248 
L 191.411461 205.632681 
L 195.170437 207.388301 
L 198.929413 208.829332 
L 202.68839 210.002245 
L 206.447366 210.9504 
L 212.44685 212.368185 
L 213.598313 212.825441 
L 215.200868 213.723065 
L 217.115043 215.086333 
L 219.580939 217.13415 
L 230.59318 226.748429 
L 233.969325 229.247838 
L 237.791609 231.707947 
L 241.613892 233.784924 
L 245.436176 235.511017 
L 249.25846 236.928396 
L 253.080743 238.081359 
L 256.903027 239.012135 
L 261.999405 239.972748 
L 264.260217 240.428657 
L 265.665315 240.983021 
L 267.305005 241.878492 
L 269.361059 243.266423 
L 272.562348 245.756033 
L 280.297525 251.944123 
L 283.564349 254.275379 
L 286.831172 256.355791 
L 290.097996 258.176844 
L 293.364819 259.748074 
L 296.631643 261.088768 
L 299.898466 262.222709 
L 304.254231 263.456233 
L 308.609996 264.423705 
L 312.969076 265.176797 
L 314.839222 265.443777 
L 314.948986 265.64173 
L 316.179291 265.913714 
L 317.565258 266.42458 
L 319.195832 267.237911 
L 321.348521 268.55573 
L 324.362285 270.660854 
L 332.417307 276.400706 
L 335.997316 278.645722 
L 339.577326 280.618006 
L 343.671946 282.535632 
L 347.766567 284.116931 
L 351.861187 285.401522 
L 355.955807 286.433195 
L 360.050428 287.25429 
L 365.509921 288.086831 
L 367.612668 288.456933 
L 369.022232 288.900881 
L 370.897654 289.736575 
L 373.404388 291.144326 
L 376.88223 293.37132 
L 383.792388 297.809768 
L 387.247467 299.783782 
L 391.140848 301.735129 
L 395.034229 303.391717 
L 398.927611 304.772161 
L 402.820992 305.906657 
L 406.714373 306.829095 
L 411.905548 307.786284 
L 417.096723 308.496088 
L 419.448448 308.857503 
L 421.143737 309.378132 
L 423.022443 310.179138 
L 425.69936 311.57815 
L 430.853095 314.599192 
L 436.275918 317.658803 
L 440.614176 319.795815 
L 443.86787 321.182926 
L 448.206129 322.749089 
L 452.544387 324.019253 
L 456.882646 325.033666 
L 461.220904 325.834396 
L 466.108189 326.52927 
L 469.900754 326.945455 
L 469.900754 326.945455 
" clip-path="url(#p07fec7b61f)" style="fill: none; stroke: #0000ff; stroke-width: 1.5; stroke-linecap: square"/>
   </g>
   <g id="line2d_14">
    <defs>
     <path id="m30829d45a2" d="M 0 3 
C 0.795609 3 1.55874 2.683901 2.12132 2.12132 
C 2.683901 1.55874 3 0.795609 3 0 
C 3 -0.795609 2.683901 -1.55874 2.12132 -2.12132 
C 1.55874 -2.683901 0.795609 -3 0 -3 
C -0.795609 -3 -1.55874 -2.683901 -2.12132 -2.12132 
C -2.683901 -1.55874 -3 -0.795609 -3 0 
C -3 0.795609 -2.683901 1.55874 -2.12132 2.12132 
C -1.55874 2.683901 -0.795609 3 0 3 
z
" style="stroke: #0000ff"/>
    </defs>
    <g clip-path="url(#p07fec7b61f)">
     <use xlink:href="#m30829d45a2" x="108.090512" y="147.910574" style="fill: #0000ff; stroke: #0000ff"/>
     <use xlink:href="#m30829d45a2" x="130.24216" y="166.951814" style="fill: #0000ff; stroke: #0000ff"/>
     <use xlink:href="#m30829d45a2" x="285.303692" y="255.411879" style="fill: #0000ff; stroke: #0000ff"/>
     <use xlink:href="#m30829d45a2" x="322.223104" y="269.144774" style="fill: #0000ff; stroke: #0000ff"/>
    </g>
   </g>
   <g id="LineCollection_1">
    <path d="M 108.090512 197.966603 
L 108.090512 97.854545 
" clip-path="url(#p07fec7b61f)" style="fill: none; stroke: #000000; stroke-width: 1.5"/>
    <path d="M 130.24216 249.868192 
L 130.24216 149.756134 
" clip-path="url(#p07fec7b61f)" style="fill: none; stroke: #000000; stroke-width: 1.5"/>
    <path d="M 285.303692 314.926326 
L 285.303692 217.544555 
" clip-path="url(#p07fec7b61f)" style="fill: none; stroke: #000000; stroke-width: 1.5"/>
    <path d="M 322.223104 300.052903 
L 322.223104 201.761078 
" clip-path="url(#p07fec7b61f)" style="fill: none; stroke: #000000; stroke-width: 1.5"/>
   </g>
   <g id="line2d_15">
    <path d="M 108.090512 147.910574 
L 130.24216 199.812163 
L 285.303692 266.235441 
L 322.223104 250.906991 
" clip-path="url(#p07fec7b61f)" style="fill: none; stroke: #000000; stroke-width: 1.5; stroke-linecap: square"/>
    <defs>
     <path id="m09d528b437" d="M -3 3 
L 3 3 
L 3 -3 
L -3 -3 
z
" style="stroke: #000000; stroke-linejoin: miter"/>
    </defs>
    <g clip-path="url(#p07fec7b61f)">
     <use xlink:href="#m09d528b437" x="108.090512" y="147.910574" style="stroke: #000000; stroke-linejoin: miter"/>
     <use xlink:href="#m09d528b437" x="130.24216" y="199.812163" style="stroke: #000000; stroke-linejoin: miter"/>
     <use xlink:href="#m09d528b437" x="285.303692" y="266.235441" style="stroke: #000000; stroke-linejoin: miter"/>
     <use xlink:href="#m09d528b437" x="322.223104" y="250.906991" style="stroke: #000000; stroke-linejoin: miter"/>
    </g>
   </g>
   <g id="patch_3">
    <path d="M 90 338.4 
L 90 86.4 
" style="fill: none; stroke: #000000; stroke-width: 0.8; stroke-linejoin: miter; stroke-linecap: square"/>
   </g>
   <g id="patch_4">
    <path d="M 343.636364 338.4 
L 343.636364 86.4 
" style="fill: none; stroke: #000000; stroke-width: 0.8; stroke-linejoin: miter; stroke-linecap: square"/>
   </g>
   <g id="patch_5">
    <path d="M 90 338.4 
L 343.636364 338.4 
" style="fill: none; stroke: #000000; stroke-width: 0.8; stroke-linejoin: miter; stroke-linecap: square"/>
   </g>
   <g id="patch_6">
    <path d="M 90 86.4 
L 343.636364 86.4 
" style="fill: none; stroke: #000000; stroke-width: 0.8; stroke-linejoin: miter; stroke-linecap: square"/>
   </g>
   <g id="text_7">
    <!-- Xu2022.fm_dulfpg_change_DUL075M -->
    <g transform="translate(86.011151 80.4) scale(0.14 -0.14)">
     <defs>
      <path id="DejaVuSans-58" d="M 403 4666 
L 1081 4666 
L 2241 2931 
L 3406 4666 
L 4084 4666 
L 2584 2425 
L 4184 0 
L 3506 0 
L 2194 1984 
L 872 0 
L 191 0 
L 1856 2491 
L 403 4666 
z
" transform="scale(0.015625)"/>
      <path id="DejaVuSans-75" d="M 544 1381 
L 544 3500 
L 1119 3500 
L 1119 1403 
Q 1119 906 1312 657 
Q 1506 409 1894 409 
Q 2359 409 2629 706 
Q 2900 1003 2900 1516 
L 2900 3500 
L 3475 3500 
L 3475 0 
L 2900 0 
L 2900 538 
Q 2691 219 2414 64 
Q 2138 -91 1772 -91 
Q 1169 -91 856 284 
Q 544 659 544 1381 
z
M 1991 3584 
L 1991 3584 
z
" transform="scale(0.015625)"/>
      <path id="DejaVuSans-2e" d="M 684 794 
L 1344 794 
L 1344 0 
L 684 0 
L 684 794 
z
" transform="scale(0.015625)"/>
      <path id="DejaVuSans-6d" d="M 3328 2828 
Q 3544 3216 3844 3400 
Q 4144 3584 4550 3584 
Q 5097 3584 5394 3201 
Q 5691 2819 5691 2113 
L 5691 0 
L 5113 0 
L 5113 2094 
Q 5113 2597 4934 2840 
Q 4756 3084 4391 3084 
Q 3944 3084 3684 2787 
Q 3425 2491 3425 1978 
L 3425 0 
L 2847 0 
L 2847 2094 
Q 2847 2600 2669 2842 
Q 2491 3084 2119 3084 
Q 1678 3084 1418 2786 
Q 1159 2488 1159 1978 
L 1159 0 
L 581 0 
L 581 3500 
L 1159 3500 
L 1159 2956 
Q 1356 3278 1631 3431 
Q 1906 3584 2284 3584 
Q 2666 3584 2933 3390 
Q 3200 3197 3328 2828 
z
" transform="scale(0.015625)"/>
      <path id="DejaVuSans-64" d="M 2906 2969 
L 2906 4863 
L 3481 4863 
L 3481 0 
L 2906 0 
L 2906 525 
Q 2725 213 2448 61 
Q 2172 -91 1784 -91 
Q 1150 -91 751 415 
Q 353 922 353 1747 
Q 353 2572 751 3078 
Q 1150 3584 1784 3584 
Q 2172 3584 2448 3432 
Q 2725 3281 2906 2969 
z
M 947 1747 
Q 947 1113 1208 752 
Q 1469 391 1925 391 
Q 2381 391 2643 752 
Q 2906 1113 2906 1747 
Q 2906 2381 2643 2742 
Q 2381 3103 1925 3103 
Q 1469 3103 1208 2742 
Q 947 2381 947 1747 
z
" transform="scale(0.015625)"/>
      <path id="DejaVuSans-6c" d="M 603 4863 
L 1178 4863 
L 1178 0 
L 603 0 
L 603 4863 
z
" transform="scale(0.015625)"/>
      <path id="DejaVuSans-44" d="M 1259 4147 
L 1259 519 
L 2022 519 
Q 2988 519 3436 956 
Q 3884 1394 3884 2338 
Q 3884 3275 3436 3711 
Q 2988 4147 2022 4147 
L 1259 4147 
z
M 628 4666 
L 1925 4666 
Q 3281 4666 3915 4102 
Q 4550 3538 4550 2338 
Q 4550 1131 3912 565 
Q 3275 0 1925 0 
L 628 0 
L 628 4666 
z
" transform="scale(0.015625)"/>
      <path id="DejaVuSans-55" d="M 556 4666 
L 1191 4666 
L 1191 1831 
Q 1191 1081 1462 751 
Q 1734 422 2344 422 
Q 2950 422 3222 751 
Q 3494 1081 3494 1831 
L 3494 4666 
L 4128 4666 
L 4128 1753 
Q 4128 841 3676 375 
Q 3225 -91 2344 -91 
Q 1459 -91 1007 375 
Q 556 841 556 1753 
L 556 4666 
z
" transform="scale(0.015625)"/>
      <path id="DejaVuSans-4c" d="M 628 4666 
L 1259 4666 
L 1259 531 
L 3531 531 
L 3531 0 
L 628 0 
L 628 4666 
z
" transform="scale(0.015625)"/>
      <path id="DejaVuSans-37" d="M 525 4666 
L 3525 4666 
L 3525 4397 
L 1831 0 
L 1172 0 
L 2766 4134 
L 525 4134 
L 525 4666 
z
" transform="scale(0.015625)"/>
      <path id="DejaVuSans-35" d="M 691 4666 
L 3169 4666 
L 3169 4134 
L 1269 4134 
L 1269 2991 
Q 1406 3038 1543 3061 
Q 1681 3084 1819 3084 
Q 2600 3084 3056 2656 
Q 3513 2228 3513 1497 
Q 3513 744 3044 326 
Q 2575 -91 1722 -91 
Q 1428 -91 1123 -41 
Q 819 9 494 109 
L 494 744 
Q 775 591 1075 516 
Q 1375 441 1709 441 
Q 2250 441 2565 725 
Q 2881 1009 2881 1497 
Q 2881 1984 2565 2268 
Q 2250 2553 1709 2553 
Q 1456 2553 1204 2497 
Q 953 2441 691 2322 
L 691 4666 
z
" transform="scale(0.015625)"/>
      <path id="DejaVuSans-4d" d="M 628 4666 
L 1569 4666 
L 2759 1491 
L 3956 4666 
L 4897 4666 
L 4897 0 
L 4281 0 
L 4281 4097 
L 3078 897 
L 2444 897 
L 1241 4097 
L 1241 0 
L 628 0 
L 628 4666 
z
" transform="scale(0.015625)"/>
     </defs>
     <use xlink:href="#DejaVuSans-58"/>
     <use xlink:href="#DejaVuSans-75" transform="translate(68.505859 0)"/>
     <use xlink:href="#DejaVuSans-32" transform="translate(131.884766 0)"/>
     <use xlink:href="#DejaVuSans-30" transform="translate(195.507812 0)"/>
     <use xlink:href="#DejaVuSans-32" transform="translate(259.130859 0)"/>
     <use xlink:href="#DejaVuSans-32" transform="translate(322.753906 0)"/>
     <use xlink:href="#DejaVuSans-2e" transform="translate(386.376953 0)"/>
     <use xlink:href="#DejaVuSans-66" transform="translate(418.164062 0)"/>
     <use xlink:href="#DejaVuSans-6d" transform="translate(453.369141 0)"/>
     <use xlink:href="#DejaVuSans-5f" transform="translate(550.78125 0)"/>
     <use xlink:href="#DejaVuSans-64" transform="translate(600.78125 0)"/>
     <use xlink:href="#DejaVuSans-75" transform="translate(664.257812 0)"/>
     <use xlink:href="#DejaVuSans-6c" transform="translate(727.636719 0)"/>
     <use xlink:href="#DejaVuSans-66" transform="translate(755.419922 0)"/>
     <use xlink:href="#DejaVuSans-70" transform="translate(790.625 0)"/>
     <use xlink:href="#DejaVuSans-67" transform="translate(854.101562 0)"/>
     <use xlink:href="#DejaVuSans-5f" transform="translate(917.578125 0)"/>
     <use xlink:href="#DejaVuSans-63" transform="translate(967.578125 0)"/>
     <use xlink:href="#DejaVuSans-68" transform="translate(1022.558594 0)"/>
     <use xlink:href="#DejaVuSans-61" transform="translate(1085.9375 0)"/>
     <use xlink:href="#DejaVuSans-6e" transform="translate(1147.216797 0)"/>
     <use xlink:href="#DejaVuSans-67" transform="translate(1210.595703 0)"/>
     <use xlink:href="#DejaVuSans-65" transform="translate(1274.072266 0)"/>
     <use xlink:href="#DejaVuSans-5f" transform="translate(1335.595703 0)"/>
     <use xlink:href="#DejaVuSans-44" transform="translate(1385.595703 0)"/>
     <use xlink:href="#DejaVuSans-55" transform="translate(1462.597656 0)"/>
     <use xlink:href="#DejaVuSans-4c" transform="translate(1535.791016 0)"/>
     <use xlink:href="#DejaVuSans-30" transform="translate(1591.503906 0)"/>
     <use xlink:href="#DejaVuSans-37" transform="translate(1655.126953 0)"/>
     <use xlink:href="#DejaVuSans-35" transform="translate(1718.75 0)"/>
     <use xlink:href="#DejaVuSans-4d" transform="translate(1782.373047 0)"/>
    </g>
   </g>
   <g id="legend_1">
    <g id="patch_7">
     <path d="M 97 333.4 
L 204.265625 333.4 
Q 206.265625 333.4 206.265625 331.4 
L 206.265625 273.409375 
Q 206.265625 271.409375 204.265625 271.409375 
L 97 271.409375 
Q 95 271.409375 95 273.409375 
L 95 331.4 
Q 95 333.4 97 333.4 
z
" style="fill: #ffffff; opacity: 0.8; stroke: #cccccc; stroke-linejoin: miter"/>
    </g>
    <g id="line2d_16">
     <g>
      <use xlink:href="#m63f82f752e" x="109" y="279.507812" style="fill: #ff8c00; stroke: #ff8c00"/>
     </g>
    </g>
    <g id="text_8">
     <!-- residuals -->
     <g transform="translate(127 283.007812) scale(0.1 -0.1)">
      <defs>
       <path id="DejaVuSans-72" d="M 2631 2963 
Q 2534 3019 2420 3045 
Q 2306 3072 2169 3072 
Q 1681 3072 1420 2755 
Q 1159 2438 1159 1844 
L 1159 0 
L 581 0 
L 581 3500 
L 1159 3500 
L 1159 2956 
Q 1341 3275 1631 3429 
Q 1922 3584 2338 3584 
Q 2397 3584 2469 3576 
Q 2541 3569 2628 3553 
L 2631 2963 
z
" transform="scale(0.015625)"/>
       <path id="DejaVuSans-73" d="M 2834 3397 
L 2834 2853 
Q 2591 2978 2328 3040 
Q 2066 3103 1784 3103 
Q 1356 3103 1142 2972 
Q 928 2841 928 2578 
Q 928 2378 1081 2264 
Q 1234 2150 1697 2047 
L 1894 2003 
Q 2506 1872 2764 1633 
Q 3022 1394 3022 966 
Q 3022 478 2636 193 
Q 2250 -91 1575 -91 
Q 1294 -91 989 -36 
Q 684 19 347 128 
L 347 722 
Q 666 556 975 473 
Q 1284 391 1588 391 
Q 1994 391 2212 530 
Q 2431 669 2431 922 
Q 2431 1156 2273 1281 
Q 2116 1406 1581 1522 
L 1381 1569 
Q 847 1681 609 1914 
Q 372 2147 372 2553 
Q 372 3047 722 3315 
Q 1072 3584 1716 3584 
Q 2034 3584 2315 3537 
Q 2597 3491 2834 3397 
z
" transform="scale(0.015625)"/>
       <path id="DejaVuSans-69" d="M 603 3500 
L 1178 3500 
L 1178 0 
L 603 0 
L 603 3500 
z
M 603 4863 
L 1178 4863 
L 1178 4134 
L 603 4134 
L 603 4863 
z
" transform="scale(0.015625)"/>
      </defs>
      <use xlink:href="#DejaVuSans-72"/>
      <use xlink:href="#DejaVuSans-65" transform="translate(38.863281 0)"/>
      <use xlink:href="#DejaVuSans-73" transform="translate(100.386719 0)"/>
      <use xlink:href="#DejaVuSans-69" transform="translate(152.486328 0)"/>
      <use xlink:href="#DejaVuSans-64" transform="translate(180.269531 0)"/>
      <use xlink:href="#DejaVuSans-75" transform="translate(243.746094 0)"/>
      <use xlink:href="#DejaVuSans-61" transform="translate(307.125 0)"/>
      <use xlink:href="#DejaVuSans-6c" transform="translate(368.404297 0)"/>
      <use xlink:href="#DejaVuSans-73" transform="translate(396.1875 0)"/>
     </g>
    </g>
    <g id="line2d_17">
     <path d="M 99 294.185938 
L 109 294.185938 
L 119 294.185938 
" style="fill: none; stroke: #0000ff; stroke-width: 1.5; stroke-linecap: square"/>
    </g>
    <g id="text_9">
     <!-- observable -->
     <g transform="translate(127 297.685938) scale(0.1 -0.1)">
      <defs>
       <path id="DejaVuSans-6f" d="M 1959 3097 
Q 1497 3097 1228 2736 
Q 959 2375 959 1747 
Q 959 1119 1226 758 
Q 1494 397 1959 397 
Q 2419 397 2687 759 
Q 2956 1122 2956 1747 
Q 2956 2369 2687 2733 
Q 2419 3097 1959 3097 
z
M 1959 3584 
Q 2709 3584 3137 3096 
Q 3566 2609 3566 1747 
Q 3566 888 3137 398 
Q 2709 -91 1959 -91 
Q 1206 -91 779 398 
Q 353 888 353 1747 
Q 353 2609 779 3096 
Q 1206 3584 1959 3584 
z
" transform="scale(0.015625)"/>
       <path id="DejaVuSans-62" d="M 3116 1747 
Q 3116 2381 2855 2742 
Q 2594 3103 2138 3103 
Q 1681 3103 1420 2742 
Q 1159 2381 1159 1747 
Q 1159 1113 1420 752 
Q 1681 391 2138 391 
Q 2594 391 2855 752 
Q 3116 1113 3116 1747 
z
M 1159 2969 
Q 1341 3281 1617 3432 
Q 1894 3584 2278 3584 
Q 2916 3584 3314 3078 
Q 3713 2572 3713 1747 
Q 3713 922 3314 415 
Q 2916 -91 2278 -91 
Q 1894 -91 1617 61 
Q 1341 213 1159 525 
L 1159 0 
L 581 0 
L 581 4863 
L 1159 4863 
L 1159 2969 
z
" transform="scale(0.015625)"/>
       <path id="DejaVuSans-76" d="M 191 3500 
L 800 3500 
L 1894 563 
L 2988 3500 
L 3597 3500 
L 2284 0 
L 1503 0 
L 191 3500 
z
" transform="scale(0.015625)"/>
      </defs>
      <use xlink:href="#DejaVuSans-6f"/>
      <use xlink:href="#DejaVuSans-62" transform="translate(61.181641 0)"/>
      <use xlink:href="#DejaVuSans-73" transform="translate(124.658203 0)"/>
      <use xlink:href="#DejaVuSans-65" transform="translate(176.757812 0)"/>
      <use xlink:href="#DejaVuSans-72" transform="translate(238.28125 0)"/>
      <use xlink:href="#DejaVuSans-76" transform="translate(279.394531 0)"/>
      <use xlink:href="#DejaVuSans-61" transform="translate(338.574219 0)"/>
      <use xlink:href="#DejaVuSans-62" transform="translate(399.853516 0)"/>
      <use xlink:href="#DejaVuSans-6c" transform="translate(463.330078 0)"/>
      <use xlink:href="#DejaVuSans-65" transform="translate(491.113281 0)"/>
     </g>
    </g>
    <g id="line2d_18">
     <g>
      <use xlink:href="#m30829d45a2" x="109" y="308.864062" style="fill: #0000ff; stroke: #0000ff"/>
     </g>
    </g>
    <g id="text_10">
     <!-- interpolation -->
     <g transform="translate(127 312.364062) scale(0.1 -0.1)">
      <defs>
       <path id="DejaVuSans-74" d="M 1172 4494 
L 1172 3500 
L 2356 3500 
L 2356 3053 
L 1172 3053 
L 1172 1153 
Q 1172 725 1289 603 
Q 1406 481 1766 481 
L 2356 481 
L 2356 0 
L 1766 0 
Q 1100 0 847 248 
Q 594 497 594 1153 
L 594 3053 
L 172 3053 
L 172 3500 
L 594 3500 
L 594 4494 
L 1172 4494 
z
" transform="scale(0.015625)"/>
      </defs>
      <use xlink:href="#DejaVuSans-69"/>
      <use xlink:href="#DejaVuSans-6e" transform="translate(27.783203 0)"/>
      <use xlink:href="#DejaVuSans-74" transform="translate(91.162109 0)"/>
      <use xlink:href="#DejaVuSans-65" transform="translate(130.371094 0)"/>
      <use xlink:href="#DejaVuSans-72" transform="translate(191.894531 0)"/>
      <use xlink:href="#DejaVuSans-70" transform="translate(233.007812 0)"/>
      <use xlink:href="#DejaVuSans-6f" transform="translate(296.484375 0)"/>
      <use xlink:href="#DejaVuSans-6c" transform="translate(357.666016 0)"/>
      <use xlink:href="#DejaVuSans-61" transform="translate(385.449219 0)"/>
      <use xlink:href="#DejaVuSans-74" transform="translate(446.728516 0)"/>
      <use xlink:href="#DejaVuSans-69" transform="translate(485.9375 0)"/>
      <use xlink:href="#DejaVuSans-6f" transform="translate(513.720703 0)"/>
      <use xlink:href="#DejaVuSans-6e" transform="translate(574.902344 0)"/>
     </g>
    </g>
    <g id="LineCollection_2">
     <path d="M 109 328.542188 
L 109 318.542188 
" style="fill: none; stroke: #000000; stroke-width: 1.5"/>
    </g>
    <g id="line2d_19">
     <path d="M 99 323.542188 
L 119 323.542188 
" style="fill: none; stroke: #000000; stroke-width: 1.5; stroke-linecap: square"/>
    </g>
    <g id="line2d_20">
     <g>
      <use xlink:href="#m09d528b437" x="109" y="323.542188" style="stroke: #000000; stroke-linejoin: miter"/>
     </g>
    </g>
    <g id="text_11">
     <!-- reference_data -->
     <g transform="translate(127 327.042188) scale(0.1 -0.1)">
      <use xlink:href="#DejaVuSans-72"/>
      <use xlink:href="#DejaVuSans-65" transform="translate(38.863281 0)"/>
      <use xlink:href="#DejaVuSans-66" transform="translate(100.386719 0)"/>
      <use xlink:href="#DejaVuSans-65" transform="translate(135.591797 0)"/>
      <use xlink:href="#DejaVuSans-72" transform="translate(197.115234 0)"/>
      <use xlink:href="#DejaVuSans-65" transform="translate(235.978516 0)"/>
      <use xlink:href="#DejaVuSans-6e" transform="translate(297.501953 0)"/>
      <use xlink:href="#DejaVuSans-63" transform="translate(360.880859 0)"/>
      <use xlink:href="#DejaVuSans-65" transform="translate(415.861328 0)"/>
      <use xlink:href="#DejaVuSans-5f" transform="translate(477.384766 0)"/>
      <use xlink:href="#DejaVuSans-64" transform="translate(527.384766 0)"/>
      <use xlink:href="#DejaVuSans-61" transform="translate(590.861328 0)"/>
      <use xlink:href="#DejaVuSans-74" transform="translate(652.140625 0)"/>
      <use xlink:href="#DejaVuSans-61" transform="translate(691.349609 0)"/>
     </g>
    </g>
   </g>
  </g>
  <g id="axes_2">
   <g id="patch_8">
    <path d="M 394.363636 338.4 
L 648 338.4 
L 648 86.4 
L 394.363636 86.4 
z
" style="fill: #ffffff"/>
   </g>
   <g id="FillBetweenPolyCollection_2">
    <path d="M 412.454148 424795.881818 
L 412.454148 424795.881818 
L 434.605796 424795.881818 
L 589.667328 424795.881818 
L 626.586741 326.945455 
L 626.586741 424795.881818 
L 626.586741 424795.881818 
L 589.667328 424795.881818 
L 434.605796 424795.881818 
L 412.454148 424795.881818 
z
" clip-path="url(#p09e0d50968)" style="fill: #ff8c00; fill-opacity: 0.4; stroke: #ff8c00; stroke-opacity: 0.4"/>
   </g>
   <g id="matplotlib.axis_3">
    <g id="xtick_6">
     <g id="line2d_21">
      <g>
       <use xlink:href="#mdaa5f65dcd" x="412.454148" y="338.4" style="stroke: #000000; stroke-width: 0.8"/>
      </g>
     </g>
    </g>
    <g id="xtick_7">
     <g id="line2d_22">
      <g>
       <use xlink:href="#mdaa5f65dcd" x="463.73111" y="338.4" style="stroke: #000000; stroke-width: 0.8"/>
      </g>
     </g>
    </g>
    <g id="xtick_8">
     <g id="line2d_23">
      <g>
       <use xlink:href="#mdaa5f65dcd" x="515.008072" y="338.4" style="stroke: #000000; stroke-width: 0.8"/>
      </g>
     </g>
    </g>
    <g id="xtick_9">
     <g id="line2d_24">
      <g>
       <use xlink:href="#mdaa5f65dcd" x="566.285034" y="338.4" style="stroke: #000000; stroke-width: 0.8"/>
      </g>
     </g>
    </g>
    <g id="xtick_10">
     <g id="line2d_25">
      <g>
       <use xlink:href="#mdaa5f65dcd" x="617.561996" y="338.4" style="stroke: #000000; stroke-width: 0.8"/>
      </g>
     </g>
    </g>
   </g>
   <g id="matplotlib.axis_4">
    <g id="ytick_6">
     <g id="line2d_26">
      <defs>
       <path id="m9ac1c6c38d" d="M 0 0 
L -2 0 
" style="stroke: #000000; stroke-width: 0.6"/>
      </defs>
      <g>
       <use xlink:href="#m9ac1c6c38d" x="394.363636" y="305.452342" style="stroke: #000000; stroke-width: 0.6"/>
      </g>
     </g>
     <g id="text_12">
      <!-- $\mathdefault{3\times10^{-1}}$ -->
      <g transform="translate(346.863636 309.25156) scale(0.1 -0.1)">
       <defs>
        <path id="DejaVuSans-d7" d="M 4488 3438 
L 3059 2003 
L 4488 575 
L 4116 197 
L 2681 1631 
L 1247 197 
L 878 575 
L 2303 2003 
L 878 3438 
L 1247 3816 
L 2681 2381 
L 4116 3816 
L 4488 3438 
z
" transform="scale(0.015625)"/>
       </defs>
       <use xlink:href="#DejaVuSans-33" transform="translate(0 0.684375)"/>
       <use xlink:href="#DejaVuSans-d7" transform="translate(83.105469 0.684375)"/>
       <use xlink:href="#DejaVuSans-31" transform="translate(186.376953 0.684375)"/>
       <use xlink:href="#DejaVuSans-30" transform="translate(250 0.684375)"/>
       <use xlink:href="#DejaVuSans-2212" transform="translate(314.580078 38.965625) scale(0.7)"/>
       <use xlink:href="#DejaVuSans-31" transform="translate(373.232422 38.965625) scale(0.7)"/>
      </g>
     </g>
    </g>
    <g id="ytick_7">
     <g id="line2d_27">
      <g>
       <use xlink:href="#m9ac1c6c38d" x="394.363636" y="252.389298" style="stroke: #000000; stroke-width: 0.6"/>
      </g>
     </g>
     <g id="text_13">
      <!-- $\mathdefault{4\times10^{-1}}$ -->
      <g transform="translate(346.863636 256.188517) scale(0.1 -0.1)">
       <defs>
        <path id="DejaVuSans-34" d="M 2419 4116 
L 825 1625 
L 2419 1625 
L 2419 4116 
z
M 2253 4666 
L 3047 4666 
L 3047 1625 
L 3713 1625 
L 3713 1100 
L 3047 1100 
L 3047 0 
L 2419 0 
L 2419 1100 
L 313 1100 
L 313 1709 
L 2253 4666 
z
" transform="scale(0.015625)"/>
       </defs>
       <use xlink:href="#DejaVuSans-34" transform="translate(0 0.684375)"/>
       <use xlink:href="#DejaVuSans-d7" transform="translate(83.105469 0.684375)"/>
       <use xlink:href="#DejaVuSans-31" transform="translate(186.376953 0.684375)"/>
       <use xlink:href="#DejaVuSans-30" transform="translate(250 0.684375)"/>
       <use xlink:href="#DejaVuSans-2212" transform="translate(314.580078 38.965625) scale(0.7)"/>
       <use xlink:href="#DejaVuSans-31" transform="translate(373.232422 38.965625) scale(0.7)"/>
      </g>
     </g>
    </g>
    <g id="ytick_8">
     <g id="line2d_28">
      <g>
       <use xlink:href="#m9ac1c6c38d" x="394.363636" y="211.230404" style="stroke: #000000; stroke-width: 0.6"/>
      </g>
     </g>
    </g>
    <g id="ytick_9">
     <g id="line2d_29">
      <g>
       <use xlink:href="#m9ac1c6c38d" x="394.363636" y="177.601139" style="stroke: #000000; stroke-width: 0.6"/>
      </g>
     </g>
     <g id="text_14">
      <!-- $\mathdefault{6\times10^{-1}}$ -->
      <g transform="translate(346.863636 181.400358) scale(0.1 -0.1)">
       <defs>
        <path id="DejaVuSans-36" d="M 2113 2584 
Q 1688 2584 1439 2293 
Q 1191 2003 1191 1497 
Q 1191 994 1439 701 
Q 1688 409 2113 409 
Q 2538 409 2786 701 
Q 3034 994 3034 1497 
Q 3034 2003 2786 2293 
Q 2538 2584 2113 2584 
z
M 3366 4563 
L 3366 3988 
Q 3128 4100 2886 4159 
Q 2644 4219 2406 4219 
Q 1781 4219 1451 3797 
Q 1122 3375 1075 2522 
Q 1259 2794 1537 2939 
Q 1816 3084 2150 3084 
Q 2853 3084 3261 2657 
Q 3669 2231 3669 1497 
Q 3669 778 3244 343 
Q 2819 -91 2113 -91 
Q 1303 -91 875 529 
Q 447 1150 447 2328 
Q 447 3434 972 4092 
Q 1497 4750 2381 4750 
Q 2619 4750 2861 4703 
Q 3103 4656 3366 4563 
z
" transform="scale(0.015625)"/>
       </defs>
       <use xlink:href="#DejaVuSans-36" transform="translate(0 0.684375)"/>
       <use xlink:href="#DejaVuSans-d7" transform="translate(83.105469 0.684375)"/>
       <use xlink:href="#DejaVuSans-31" transform="translate(186.376953 0.684375)"/>
       <use xlink:href="#DejaVuSans-30" transform="translate(250 0.684375)"/>
       <use xlink:href="#DejaVuSans-2212" transform="translate(314.580078 38.965625) scale(0.7)"/>
       <use xlink:href="#DejaVuSans-31" transform="translate(373.232422 38.965625) scale(0.7)"/>
      </g>
     </g>
    </g>
    <g id="ytick_10">
     <g id="line2d_30">
      <g>
       <use xlink:href="#m9ac1c6c38d" x="394.363636" y="149.168" style="stroke: #000000; stroke-width: 0.6"/>
      </g>
     </g>
    </g>
    <g id="ytick_11">
     <g id="line2d_31">
      <g>
       <use xlink:href="#m9ac1c6c38d" x="394.363636" y="124.538095" style="stroke: #000000; stroke-width: 0.6"/>
      </g>
     </g>
    </g>
    <g id="ytick_12">
     <g id="line2d_32">
      <g>
       <use xlink:href="#m9ac1c6c38d" x="394.363636" y="102.81298" style="stroke: #000000; stroke-width: 0.6"/>
      </g>
     </g>
    </g>
   </g>
   <g id="line2d_33">
    <g clip-path="url(#p09e0d50968)">
     <use xlink:href="#m63f82f752e" x="622.106157" y="51841" style="fill: #ff8c00; stroke: #ff8c00"/>
     <use xlink:href="#m63f82f752e" x="626.586741" y="326.945455" style="fill: #ff8c00; stroke: #ff8c00"/>
    </g>
   </g>
   <g id="line2d_34">
    <path d="M 0 0 
" clip-path="url(#p09e0d50968)" style="fill: none; stroke: #0000ff; stroke-width: 1.5; stroke-linecap: square"/>
   </g>
   <g id="line2d_35">
    <g clip-path="url(#p09e0d50968)"/>
   </g>
   <g id="LineCollection_3">
    <path d="M 412.454148 721 
L 412.454148 97.854545 
" clip-path="url(#p09e0d50968)" style="fill: none; stroke: #000000; stroke-width: 1.5"/>
    <path clip-path="url(#p09e0d50968)" style="fill: none; stroke: #000000; stroke-width: 1.5"/>
    <path clip-path="url(#p09e0d50968)" style="fill: none; stroke: #000000; stroke-width: 1.5"/>
    <path clip-path="url(#p09e0d50968)" style="fill: none; stroke: #000000; stroke-width: 1.5"/>
   </g>
   <g id="line2d_36">
    <path clip-path="url(#p09e0d50968)" style="fill: none; stroke: #000000; stroke-width: 1.5; stroke-linecap: square"/>
    <g clip-path="url(#p09e0d50968)"/>
   </g>
   <g id="patch_9">
    <path d="M 394.363636 338.4 
L 394.363636 86.4 
" style="fill: none; stroke: #000000; stroke-width: 0.8; stroke-linejoin: miter; stroke-linecap: square"/>
   </g>
   <g id="patch_10">
    <path d="M 648 338.4 
L 648 86.4 
" style="fill: none; stroke: #000000; stroke-width: 0.8; stroke-linejoin: miter; stroke-linecap: square"/>
   </g>
   <g id="patch_11">
    <path d="M 394.363636 338.4 
L 648 338.4 
" style="fill: none; stroke: #000000; stroke-width: 0.8; stroke-linejoin: miter; stroke-linecap: square"/>
   </g>
   <g id="patch_12">
    <path d="M 394.363636 86.4 
L 648 86.4 
" style="fill: none; stroke: #000000; stroke-width: 0.8; stroke-linejoin: miter; stroke-linecap: square"/>
   </g>
   <g id="text_15">
    <!-- Xu2022.fm_dulfpg_change_DUL075M -->
    <g transform="translate(390.374787 80.4) scale(0.14 -0.14)">
     <use xlink:href="#DejaVuSans-58"/>
     <use xlink:href="#DejaVuSans-75" transform="translate(68.505859 0)"/>
     <use xlink:href="#DejaVuSans-32" transform="translate(131.884766 0)"/>
     <use xlink:href="#DejaVuSans-30" transform="translate(195.507812 0)"/>
     <use xlink:href="#DejaVuSans-32" transform="translate(259.130859 0)"/>
     <use xlink:href="#DejaVuSans-32" transform="translate(322.753906 0)"/>
     <use xlink:href="#DejaVuSans-2e" transform="translate(386.376953 0)"/>
     <use xlink:href="#DejaVuSans-66" transform="translate(418.164062 0)"/>
     <use xlink:href="#DejaVuSans-6d" transform="translate(453.369141 0)"/>
     <use xlink:href="#DejaVuSans-5f" transform="translate(550.78125 0)"/>
     <use xlink:href="#DejaVuSans-64" transform="translate(600.78125 0)"/>
     <use xlink:href="#DejaVuSans-75" transform="translate(664.257812 0)"/>
     <use xlink:href="#DejaVuSans-6c" transform="translate(727.636719 0)"/>
     <use xlink:href="#DejaVuSans-66" transform="translate(755.419922 0)"/>
     <use xlink:href="#DejaVuSans-70" transform="translate(790.625 0)"/>
     <use xlink:href="#DejaVuSans-67" transform="translate(854.101562 0)"/>
     <use xlink:href="#DejaVuSans-5f" transform="translate(917.578125 0)"/>
     <use xlink:href="#DejaVuSans-63" transform="translate(967.578125 0)"/>
     <use xlink:href="#DejaVuSans-68" transform="translate(1022.558594 0)"/>
     <use xlink:href="#DejaVuSans-61" transform="translate(1085.9375 0)"/>
     <use xlink:href="#DejaVuSans-6e" transform="translate(1147.216797 0)"/>
     <use xlink:href="#DejaVuSans-67" transform="translate(1210.595703 0)"/>
     <use xlink:href="#DejaVuSans-65" transform="translate(1274.072266 0)"/>
     <use xlink:href="#DejaVuSans-5f" transform="translate(1335.595703 0)"/>
     <use xlink:href="#DejaVuSans-44" transform="translate(1385.595703 0)"/>
     <use xlink:href="#DejaVuSans-55" transform="translate(1462.597656 0)"/>
     <use xlink:href="#DejaVuSans-4c" transform="translate(1535.791016 0)"/>
     <use xlink:href="#DejaVuSans-30" transform="translate(1591.503906 0)"/>
     <use xlink:href="#DejaVuSans-37" transform="translate(1655.126953 0)"/>
     <use xlink:href="#DejaVuSans-35" transform="translate(1718.75 0)"/>
     <use xlink:href="#DejaVuSans-4d" transform="translate(1782.373047 0)"/>
    </g>
   </g>
   <g id="legend_2">
    <g id="patch_13">
     <path d="M 533.734375 153.390625 
L 641 153.390625 
Q 643 153.390625 643 151.390625 
L 643 93.4 
Q 643 91.4 641 91.4 
L 533.734375 91.4 
Q 531.734375 91.4 531.734375 93.4 
L 531.734375 151.390625 
Q 531.734375 153.390625 533.734375 153.390625 
z
" style="fill: #ffffff; opacity: 0.8; stroke: #cccccc; stroke-linejoin: miter"/>
    </g>
    <g id="line2d_37">
     <g>
      <use xlink:href="#m63f82f752e" x="545.734375" y="99.498438" style="fill: #ff8c00; stroke: #ff8c00"/>
     </g>
    </g>
    <g id="text_16">
     <!-- residuals -->
     <g transform="translate(563.734375 102.998438) scale(0.1 -0.1)">
      <use xlink:href="#DejaVuSans-72"/>
      <use xlink:href="#DejaVuSans-65" transform="translate(38.863281 0)"/>
      <use xlink:href="#DejaVuSans-73" transform="translate(100.386719 0)"/>
      <use xlink:href="#DejaVuSans-69" transform="translate(152.486328 0)"/>
      <use xlink:href="#DejaVuSans-64" transform="translate(180.269531 0)"/>
      <use xlink:href="#DejaVuSans-75" transform="translate(243.746094 0)"/>
      <use xlink:href="#DejaVuSans-61" transform="translate(307.125 0)"/>
      <use xlink:href="#DejaVuSans-6c" transform="translate(368.404297 0)"/>
      <use xlink:href="#DejaVuSans-73" transform="translate(396.1875 0)"/>
     </g>
    </g>
    <g id="line2d_38">
     <path d="M 535.734375 114.176563 
L 545.734375 114.176563 
L 555.734375 114.176563 
" style="fill: none; stroke: #0000ff; stroke-width: 1.5; stroke-linecap: square"/>
    </g>
    <g id="text_17">
     <!-- observable -->
     <g transform="translate(563.734375 117.676563) scale(0.1 -0.1)">
      <use xlink:href="#DejaVuSans-6f"/>
      <use xlink:href="#DejaVuSans-62" transform="translate(61.181641 0)"/>
      <use xlink:href="#DejaVuSans-73" transform="translate(124.658203 0)"/>
      <use xlink:href="#DejaVuSans-65" transform="translate(176.757812 0)"/>
      <use xlink:href="#DejaVuSans-72" transform="translate(238.28125 0)"/>
      <use xlink:href="#DejaVuSans-76" transform="translate(279.394531 0)"/>
      <use xlink:href="#DejaVuSans-61" transform="translate(338.574219 0)"/>
      <use xlink:href="#DejaVuSans-62" transform="translate(399.853516 0)"/>
      <use xlink:href="#DejaVuSans-6c" transform="translate(463.330078 0)"/>
      <use xlink:href="#DejaVuSans-65" transform="translate(491.113281 0)"/>
     </g>
    </g>
    <g id="line2d_39">
     <g>
      <use xlink:href="#m30829d45a2" x="545.734375" y="128.854688" style="fill: #0000ff; stroke: #0000ff"/>
     </g>
    </g>
    <g id="text_18">
     <!-- interpolation -->
     <g transform="translate(563.734375 132.354688) scale(0.1 -0.1)">
      <use xlink:href="#DejaVuSans-69"/>
      <use xlink:href="#DejaVuSans-6e" transform="translate(27.783203 0)"/>
      <use xlink:href="#DejaVuSans-74" transform="translate(91.162109 0)"/>
      <use xlink:href="#DejaVuSans-65" transform="translate(130.371094 0)"/>
      <use xlink:href="#DejaVuSans-72" transform="translate(191.894531 0)"/>
      <use xlink:href="#DejaVuSans-70" transform="translate(233.007812 0)"/>
      <use xlink:href="#DejaVuSans-6f" transform="translate(296.484375 0)"/>
      <use xlink:href="#DejaVuSans-6c" transform="translate(357.666016 0)"/>
      <use xlink:href="#DejaVuSans-61" transform="translate(385.449219 0)"/>
      <use xlink:href="#DejaVuSans-74" transform="translate(446.728516 0)"/>
      <use xlink:href="#DejaVuSans-69" transform="translate(485.9375 0)"/>
      <use xlink:href="#DejaVuSans-6f" transform="translate(513.720703 0)"/>
      <use xlink:href="#DejaVuSans-6e" transform="translate(574.902344 0)"/>
     </g>
    </g>
    <g id="LineCollection_4">
     <path d="M 545.734375 148.532812 
L 545.734375 138.532812 
" style="fill: none; stroke: #000000; stroke-width: 1.5"/>
    </g>
    <g id="line2d_40">
     <path d="M 535.734375 143.532812 
L 555.734375 143.532812 
" style="fill: none; stroke: #000000; stroke-width: 1.5; stroke-linecap: square"/>
    </g>
    <g id="line2d_41">
     <g>
      <use xlink:href="#m09d528b437" x="545.734375" y="143.532812" style="stroke: #000000; stroke-linejoin: miter"/>
     </g>
    </g>
    <g id="text_19">
     <!-- reference_data -->
     <g transform="translate(563.734375 147.032812) scale(0.1 -0.1)">
      <use xlink:href="#DejaVuSans-72"/>
      <use xlink:href="#DejaVuSans-65" transform="translate(38.863281 0)"/>
      <use xlink:href="#DejaVuSans-66" transform="translate(100.386719 0)"/>
      <use xlink:href="#DejaVuSans-65" transform="translate(135.591797 0)"/>
      <use xlink:href="#DejaVuSans-72" transform="translate(197.115234 0)"/>
      <use xlink:href="#DejaVuSans-65" transform="translate(235.978516 0)"/>
      <use xlink:href="#DejaVuSans-6e" transform="translate(297.501953 0)"/>
      <use xlink:href="#DejaVuSans-63" transform="translate(360.880859 0)"/>
      <use xlink:href="#DejaVuSans-65" transform="translate(415.861328 0)"/>
      <use xlink:href="#DejaVuSans-5f" transform="translate(477.384766 0)"/>
      <use xlink:href="#DejaVuSans-64" transform="translate(527.384766 0)"/>
      <use xlink:href="#DejaVuSans-61" transform="translate(590.861328 0)"/>
      <use xlink:href="#DejaVuSans-74" transform="translate(652.140625 0)"/>
      <use xlink:href="#DejaVuSans-61" transform="translate(691.349609 0)"/>
     </g>
    </g>
   </g>
  </g>
  <g id="axes_3">
   <g id="patch_14">
    <path d="M 90 640.8 
L 343.636364 640.8 
L 343.636364 388.8 
L 90 388.8 
z
" style="fill: #ffffff"/>
   </g>
   <g id="FillBetweenPolyCollection_3">
    <defs>
     <path id="m08f270bffd" d="M 108.090512 -90.654545 
L 108.090512 -90.654545 
L 130.24216 -319.745455 
L 285.303692 -148.906164 
L 322.223104 -233.286904 
L 322.223104 -90.654545 
L 322.223104 -90.654545 
L 285.303692 -90.654545 
L 130.24216 -90.654545 
L 108.090512 -90.654545 
z
" style="stroke: #8b0000; stroke-opacity: 0.4"/>
    </defs>
    <g clip-path="url(#p4e2259e5a0)">
     <use xlink:href="#m08f270bffd" x="0" y="720" style="fill: #8b0000; fill-opacity: 0.4; stroke: #8b0000; stroke-opacity: 0.4"/>
    </g>
   </g>
   <g id="matplotlib.axis_5">
    <g id="xtick_11">
     <g id="line2d_42">
      <g>
       <use xlink:href="#mdaa5f65dcd" x="108.090512" y="640.8" style="stroke: #000000; stroke-width: 0.8"/>
      </g>
     </g>
     <g id="text_20">
      <!-- 0 -->
      <g transform="translate(104.909262 655.398438) scale(0.1 -0.1)">
       <use xlink:href="#DejaVuSans-30"/>
      </g>
     </g>
    </g>
    <g id="xtick_12">
     <g id="line2d_43">
      <g>
       <use xlink:href="#mdaa5f65dcd" x="159.367474" y="640.8" style="stroke: #000000; stroke-width: 0.8"/>
      </g>
     </g>
     <g id="text_21">
      <!-- 10000 -->
      <g transform="translate(143.461224 655.398438) scale(0.1 -0.1)">
       <use xlink:href="#DejaVuSans-31"/>
       <use xlink:href="#DejaVuSans-30" transform="translate(63.623047 0)"/>
       <use xlink:href="#DejaVuSans-30" transform="translate(127.246094 0)"/>
       <use xlink:href="#DejaVuSans-30" transform="translate(190.869141 0)"/>
       <use xlink:href="#DejaVuSans-30" transform="translate(254.492188 0)"/>
      </g>
     </g>
    </g>
    <g id="xtick_13">
     <g id="line2d_44">
      <g>
       <use xlink:href="#mdaa5f65dcd" x="210.644436" y="640.8" style="stroke: #000000; stroke-width: 0.8"/>
      </g>
     </g>
     <g id="text_22">
      <!-- 20000 -->
      <g transform="translate(194.738186 655.398438) scale(0.1 -0.1)">
       <use xlink:href="#DejaVuSans-32"/>
       <use xlink:href="#DejaVuSans-30" transform="translate(63.623047 0)"/>
       <use xlink:href="#DejaVuSans-30" transform="translate(127.246094 0)"/>
       <use xlink:href="#DejaVuSans-30" transform="translate(190.869141 0)"/>
       <use xlink:href="#DejaVuSans-30" transform="translate(254.492188 0)"/>
      </g>
     </g>
    </g>
    <g id="xtick_14">
     <g id="line2d_45">
      <g>
       <use xlink:href="#mdaa5f65dcd" x="261.921397" y="640.8" style="stroke: #000000; stroke-width: 0.8"/>
      </g>
     </g>
     <g id="text_23">
      <!-- 30000 -->
      <g transform="translate(246.015147 655.398438) scale(0.1 -0.1)">
       <use xlink:href="#DejaVuSans-33"/>
       <use xlink:href="#DejaVuSans-30" transform="translate(63.623047 0)"/>
       <use xlink:href="#DejaVuSans-30" transform="translate(127.246094 0)"/>
       <use xlink:href="#DejaVuSans-30" transform="translate(190.869141 0)"/>
       <use xlink:href="#DejaVuSans-30" transform="translate(254.492188 0)"/>
      </g>
     </g>
    </g>
    <g id="xtick_15">
     <g id="line2d_46">
      <g>
       <use xlink:href="#mdaa5f65dcd" x="313.198359" y="640.8" style="stroke: #000000; stroke-width: 0.8"/>
      </g>
     </g>
     <g id="text_24">
      <!-- 40000 -->
      <g transform="translate(297.292109 655.398438) scale(0.1 -0.1)">
       <use xlink:href="#DejaVuSans-34"/>
       <use xlink:href="#DejaVuSans-30" transform="translate(63.623047 0)"/>
       <use xlink:href="#DejaVuSans-30" transform="translate(127.246094 0)"/>
       <use xlink:href="#DejaVuSans-30" transform="translate(190.869141 0)"/>
       <use xlink:href="#DejaVuSans-30" transform="translate(254.492188 0)"/>
      </g>
     </g>
    </g>
    <g id="text_25">
     <!-- time -->
     <g transform="translate(203.262869 670.59625) scale(0.12 -0.12)">
      <use xlink:href="#DejaVuSans-74"/>
      <use xlink:href="#DejaVuSans-69" transform="translate(39.208984 0)"/>
      <use xlink:href="#DejaVuSans-6d" transform="translate(66.992188 0)"/>
      <use xlink:href="#DejaVuSans-65" transform="translate(164.404297 0)"/>
     </g>
    </g>
   </g>
   <g id="matplotlib.axis_6">
    <g id="ytick_13">
     <g id="line2d_47">
      <g>
       <use xlink:href="#m3ad2099bf5" x="90" y="629.345455" style="stroke: #000000; stroke-width: 0.8"/>
      </g>
     </g>
     <g id="text_26">
      <!-- 0.0 -->
      <g transform="translate(67.096875 633.144673) scale(0.1 -0.1)">
       <use xlink:href="#DejaVuSans-30"/>
       <use xlink:href="#DejaVuSans-2e" transform="translate(63.623047 0)"/>
       <use xlink:href="#DejaVuSans-30" transform="translate(95.410156 0)"/>
      </g>
     </g>
    </g>
    <g id="ytick_14">
     <g id="line2d_48">
      <g>
       <use xlink:href="#m3ad2099bf5" x="90" y="594.630174" style="stroke: #000000; stroke-width: 0.8"/>
      </g>
     </g>
     <g id="text_27">
      <!-- 0.1 -->
      <g transform="translate(67.096875 598.429393) scale(0.1 -0.1)">
       <use xlink:href="#DejaVuSans-30"/>
       <use xlink:href="#DejaVuSans-2e" transform="translate(63.623047 0)"/>
       <use xlink:href="#DejaVuSans-31" transform="translate(95.410156 0)"/>
      </g>
     </g>
    </g>
    <g id="ytick_15">
     <g id="line2d_49">
      <g>
       <use xlink:href="#m3ad2099bf5" x="90" y="559.914894" style="stroke: #000000; stroke-width: 0.8"/>
      </g>
     </g>
     <g id="text_28">
      <!-- 0.2 -->
      <g transform="translate(67.096875 563.714113) scale(0.1 -0.1)">
       <use xlink:href="#DejaVuSans-30"/>
       <use xlink:href="#DejaVuSans-2e" transform="translate(63.623047 0)"/>
       <use xlink:href="#DejaVuSans-32" transform="translate(95.410156 0)"/>
      </g>
     </g>
    </g>
    <g id="ytick_16">
     <g id="line2d_50">
      <g>
       <use xlink:href="#m3ad2099bf5" x="90" y="525.199614" style="stroke: #000000; stroke-width: 0.8"/>
      </g>
     </g>
     <g id="text_29">
      <!-- 0.3 -->
      <g transform="translate(67.096875 528.998833) scale(0.1 -0.1)">
       <use xlink:href="#DejaVuSans-30"/>
       <use xlink:href="#DejaVuSans-2e" transform="translate(63.623047 0)"/>
       <use xlink:href="#DejaVuSans-33" transform="translate(95.410156 0)"/>
      </g>
     </g>
    </g>
    <g id="ytick_17">
     <g id="line2d_51">
      <g>
       <use xlink:href="#m3ad2099bf5" x="90" y="490.484334" style="stroke: #000000; stroke-width: 0.8"/>
      </g>
     </g>
     <g id="text_30">
      <!-- 0.4 -->
      <g transform="translate(67.096875 494.283553) scale(0.1 -0.1)">
       <use xlink:href="#DejaVuSans-30"/>
       <use xlink:href="#DejaVuSans-2e" transform="translate(63.623047 0)"/>
       <use xlink:href="#DejaVuSans-34" transform="translate(95.410156 0)"/>
      </g>
     </g>
    </g>
    <g id="ytick_18">
     <g id="line2d_52">
      <g>
       <use xlink:href="#m3ad2099bf5" x="90" y="455.769054" style="stroke: #000000; stroke-width: 0.8"/>
      </g>
     </g>
     <g id="text_31">
      <!-- 0.5 -->
      <g transform="translate(67.096875 459.568273) scale(0.1 -0.1)">
       <use xlink:href="#DejaVuSans-30"/>
       <use xlink:href="#DejaVuSans-2e" transform="translate(63.623047 0)"/>
       <use xlink:href="#DejaVuSans-35" transform="translate(95.410156 0)"/>
      </g>
     </g>
    </g>
    <g id="ytick_19">
     <g id="line2d_53">
      <g>
       <use xlink:href="#m3ad2099bf5" x="90" y="421.053774" style="stroke: #000000; stroke-width: 0.8"/>
      </g>
     </g>
     <g id="text_32">
      <!-- 0.6 -->
      <g transform="translate(67.096875 424.852993) scale(0.1 -0.1)">
       <use xlink:href="#DejaVuSans-30"/>
       <use xlink:href="#DejaVuSans-2e" transform="translate(63.623047 0)"/>
       <use xlink:href="#DejaVuSans-36" transform="translate(95.410156 0)"/>
      </g>
     </g>
    </g>
    <g id="text_33">
     <!-- fpg_change -->
     <g transform="translate(60.2675 549.612188) rotate(-90) scale(0.12 -0.12)">
      <use xlink:href="#DejaVuSans-66"/>
      <use xlink:href="#DejaVuSans-70" transform="translate(35.205078 0)"/>
      <use xlink:href="#DejaVuSans-67" transform="translate(98.681641 0)"/>
      <use xlink:href="#DejaVuSans-5f" transform="translate(162.158203 0)"/>
      <use xlink:href="#DejaVuSans-63" transform="translate(212.158203 0)"/>
      <use xlink:href="#DejaVuSans-68" transform="translate(267.138672 0)"/>
      <use xlink:href="#DejaVuSans-61" transform="translate(330.517578 0)"/>
      <use xlink:href="#DejaVuSans-6e" transform="translate(391.796875 0)"/>
      <use xlink:href="#DejaVuSans-67" transform="translate(455.175781 0)"/>
      <use xlink:href="#DejaVuSans-65" transform="translate(518.652344 0)"/>
     </g>
    </g>
   </g>
   <g id="line2d_54">
    <path d="M 90 629.345455 
L 343.636364 629.345455 
" clip-path="url(#p4e2259e5a0)" style="fill: none; stroke: #000000; stroke-width: 1.5; stroke-linecap: square"/>
   </g>
   <g id="line2d_55">
    <defs>
     <path id="mca8c2c205c" d="M 0 3 
C 0.795609 3 1.55874 2.683901 2.12132 2.12132 
C 2.683901 1.55874 3 0.795609 3 0 
C 3 -0.795609 2.683901 -1.55874 2.12132 -2.12132 
C 1.55874 -2.683901 0.795609 -3 0 -3 
C -0.795609 -3 -1.55874 -2.683901 -2.12132 -2.12132 
C -2.683901 -1.55874 -3 -0.795609 -3 0 
C -3 0.795609 -2.683901 1.55874 -2.12132 2.12132 
C -1.55874 2.683901 -0.795609 3 0 3 
z
" style="stroke: #ff0000"/>
    </defs>
    <g clip-path="url(#p4e2259e5a0)">
     <use xlink:href="#mca8c2c205c" x="108.090512" y="629.345455" style="fill: #ff0000; stroke: #ff0000"/>
     <use xlink:href="#mca8c2c205c" x="130.24216" y="400.254545" style="fill: #ff0000; stroke: #ff0000"/>
     <use xlink:href="#mca8c2c205c" x="285.303692" y="571.093836" style="fill: #ff0000; stroke: #ff0000"/>
     <use xlink:href="#mca8c2c205c" x="322.223104" y="486.713096" style="fill: #ff0000; stroke: #ff0000"/>
    </g>
   </g>
   <g id="patch_15">
    <path d="M 90 640.8 
L 90 388.8 
" style="fill: none; stroke: #000000; stroke-width: 0.8; stroke-linejoin: miter; stroke-linecap: square"/>
   </g>
   <g id="patch_16">
    <path d="M 343.636364 640.8 
L 343.636364 388.8 
" style="fill: none; stroke: #000000; stroke-width: 0.8; stroke-linejoin: miter; stroke-linecap: square"/>
   </g>
   <g id="patch_17">
    <path d="M 90 640.8 
L 343.636364 640.8 
" style="fill: none; stroke: #000000; stroke-width: 0.8; stroke-linejoin: miter; stroke-linecap: square"/>
   </g>
   <g id="patch_18">
    <path d="M 90 388.8 
L 343.636364 388.8 
" style="fill: none; stroke: #000000; stroke-width: 0.8; stroke-linejoin: miter; stroke-linecap: square"/>
   </g>
   <g id="legend_3">
    <g id="patch_19">
     <path d="M 187.867614 411.478125 
L 336.636364 411.478125 
Q 338.636364 411.478125 338.636364 409.478125 
L 338.636364 395.8 
Q 338.636364 393.8 336.636364 393.8 
L 187.867614 393.8 
Q 185.867614 393.8 185.867614 395.8 
L 185.867614 409.478125 
Q 185.867614 411.478125 187.867614 411.478125 
z
" style="fill: #ffffff; opacity: 0.8; stroke: #cccccc; stroke-linejoin: miter"/>
    </g>
    <g id="line2d_56">
     <g>
      <use xlink:href="#mca8c2c205c" x="199.867614" y="401.898438" style="fill: #ff0000; stroke: #ff0000"/>
     </g>
    </g>
    <g id="text_34">
     <!-- (weighted residuals)^2 -->
     <g transform="translate(217.867614 405.398438) scale(0.1 -0.1)">
      <defs>
       <path id="DejaVuSans-28" d="M 1984 4856 
Q 1566 4138 1362 3434 
Q 1159 2731 1159 2009 
Q 1159 1288 1364 580 
Q 1569 -128 1984 -844 
L 1484 -844 
Q 1016 -109 783 600 
Q 550 1309 550 2009 
Q 550 2706 781 3412 
Q 1013 4119 1484 4856 
L 1984 4856 
z
" transform="scale(0.015625)"/>
       <path id="DejaVuSans-77" d="M 269 3500 
L 844 3500 
L 1563 769 
L 2278 3500 
L 2956 3500 
L 3675 769 
L 4391 3500 
L 4966 3500 
L 4050 0 
L 3372 0 
L 2619 2869 
L 1863 0 
L 1184 0 
L 269 3500 
z
" transform="scale(0.015625)"/>
       <path id="DejaVuSans-20" transform="scale(0.015625)"/>
       <path id="DejaVuSans-29" d="M 513 4856 
L 1013 4856 
Q 1481 4119 1714 3412 
Q 1947 2706 1947 2009 
Q 1947 1309 1714 600 
Q 1481 -109 1013 -844 
L 513 -844 
Q 928 -128 1133 580 
Q 1338 1288 1338 2009 
Q 1338 2731 1133 3434 
Q 928 4138 513 4856 
z
" transform="scale(0.015625)"/>
       <path id="DejaVuSans-5e" d="M 2988 4666 
L 4684 2925 
L 4056 2925 
L 2681 4159 
L 1306 2925 
L 678 2925 
L 2375 4666 
L 2988 4666 
z
" transform="scale(0.015625)"/>
      </defs>
      <use xlink:href="#DejaVuSans-28"/>
      <use xlink:href="#DejaVuSans-77" transform="translate(39.013672 0)"/>
      <use xlink:href="#DejaVuSans-65" transform="translate(120.800781 0)"/>
      <use xlink:href="#DejaVuSans-69" transform="translate(182.324219 0)"/>
      <use xlink:href="#DejaVuSans-67" transform="translate(210.107422 0)"/>
      <use xlink:href="#DejaVuSans-68" transform="translate(273.583984 0)"/>
      <use xlink:href="#DejaVuSans-74" transform="translate(336.962891 0)"/>
      <use xlink:href="#DejaVuSans-65" transform="translate(376.171875 0)"/>
      <use xlink:href="#DejaVuSans-64" transform="translate(437.695312 0)"/>
      <use xlink:href="#DejaVuSans-20" transform="translate(501.171875 0)"/>
      <use xlink:href="#DejaVuSans-72" transform="translate(532.958984 0)"/>
      <use xlink:href="#DejaVuSans-65" transform="translate(571.822266 0)"/>
      <use xlink:href="#DejaVuSans-73" transform="translate(633.345703 0)"/>
      <use xlink:href="#DejaVuSans-69" transform="translate(685.445312 0)"/>
      <use xlink:href="#DejaVuSans-64" transform="translate(713.228516 0)"/>
      <use xlink:href="#DejaVuSans-75" transform="translate(776.705078 0)"/>
      <use xlink:href="#DejaVuSans-61" transform="translate(840.083984 0)"/>
      <use xlink:href="#DejaVuSans-6c" transform="translate(901.363281 0)"/>
      <use xlink:href="#DejaVuSans-73" transform="translate(929.146484 0)"/>
      <use xlink:href="#DejaVuSans-29" transform="translate(981.246094 0)"/>
      <use xlink:href="#DejaVuSans-5e" transform="translate(1020.259766 0)"/>
      <use xlink:href="#DejaVuSans-32" transform="translate(1104.048828 0)"/>
     </g>
    </g>
   </g>
  </g>
  <g id="axes_4">
   <g id="patch_20">
    <path d="M 394.363636 640.8 
L 648 640.8 
L 648 388.8 
L 394.363636 388.8 
z
" style="fill: #ffffff"/>
   </g>
   <g id="FillBetweenPolyCollection_4">
    <path d="M 412.454148 385551.777569 
L 412.454148 385551.777569 
L 434.605796 400.254545 
L 589.667328 629.345455 
L 626.586741 479.529108 
L 626.586741 385551.777569 
L 626.586741 385551.777569 
L 589.667328 385551.777569 
L 434.605796 385551.777569 
L 412.454148 385551.777569 
z
" clip-path="url(#pf655ce9453)" style="fill: #8b0000; fill-opacity: 0.4; stroke: #8b0000; stroke-opacity: 0.4"/>
   </g>
   <g id="matplotlib.axis_7">
    <g id="xtick_16">
     <g id="line2d_57">
      <g>
       <use xlink:href="#mdaa5f65dcd" x="412.454148" y="640.8" style="stroke: #000000; stroke-width: 0.8"/>
      </g>
     </g>
     <g id="text_35">
      <!-- 0 -->
      <g transform="translate(409.272898 655.398438) scale(0.1 -0.1)">
       <use xlink:href="#DejaVuSans-30"/>
      </g>
     </g>
    </g>
    <g id="xtick_17">
     <g id="line2d_58">
      <g>
       <use xlink:href="#mdaa5f65dcd" x="463.73111" y="640.8" style="stroke: #000000; stroke-width: 0.8"/>
      </g>
     </g>
     <g id="text_36">
      <!-- 10000 -->
      <g transform="translate(447.82486 655.398438) scale(0.1 -0.1)">
       <use xlink:href="#DejaVuSans-31"/>
       <use xlink:href="#DejaVuSans-30" transform="translate(63.623047 0)"/>
       <use xlink:href="#DejaVuSans-30" transform="translate(127.246094 0)"/>
       <use xlink:href="#DejaVuSans-30" transform="translate(190.869141 0)"/>
       <use xlink:href="#DejaVuSans-30" transform="translate(254.492188 0)"/>
      </g>
     </g>
    </g>
    <g id="xtick_18">
     <g id="line2d_59">
      <g>
       <use xlink:href="#mdaa5f65dcd" x="515.008072" y="640.8" style="stroke: #000000; stroke-width: 0.8"/>
      </g>
     </g>
     <g id="text_37">
      <!-- 20000 -->
      <g transform="translate(499.101822 655.398438) scale(0.1 -0.1)">
       <use xlink:href="#DejaVuSans-32"/>
       <use xlink:href="#DejaVuSans-30" transform="translate(63.623047 0)"/>
       <use xlink:href="#DejaVuSans-30" transform="translate(127.246094 0)"/>
       <use xlink:href="#DejaVuSans-30" transform="translate(190.869141 0)"/>
       <use xlink:href="#DejaVuSans-30" transform="translate(254.492188 0)"/>
      </g>
     </g>
    </g>
    <g id="xtick_19">
     <g id="line2d_60">
      <g>
       <use xlink:href="#mdaa5f65dcd" x="566.285034" y="640.8" style="stroke: #000000; stroke-width: 0.8"/>
      </g>
     </g>
     <g id="text_38">
      <!-- 30000 -->
      <g transform="translate(550.378784 655.398438) scale(0.1 -0.1)">
       <use xlink:href="#DejaVuSans-33"/>
       <use xlink:href="#DejaVuSans-30" transform="translate(63.623047 0)"/>
       <use xlink:href="#DejaVuSans-30" transform="translate(127.246094 0)"/>
       <use xlink:href="#DejaVuSans-30" transform="translate(190.869141 0)"/>
       <use xlink:href="#DejaVuSans-30" transform="translate(254.492188 0)"/>
      </g>
     </g>
    </g>
    <g id="xtick_20">
     <g id="line2d_61">
      <g>
       <use xlink:href="#mdaa5f65dcd" x="617.561996" y="640.8" style="stroke: #000000; stroke-width: 0.8"/>
      </g>
     </g>
     <g id="text_39">
      <!-- 40000 -->
      <g transform="translate(601.655746 655.398438) scale(0.1 -0.1)">
       <use xlink:href="#DejaVuSans-34"/>
       <use xlink:href="#DejaVuSans-30" transform="translate(63.623047 0)"/>
       <use xlink:href="#DejaVuSans-30" transform="translate(127.246094 0)"/>
       <use xlink:href="#DejaVuSans-30" transform="translate(190.869141 0)"/>
       <use xlink:href="#DejaVuSans-30" transform="translate(254.492188 0)"/>
      </g>
     </g>
    </g>
    <g id="text_40">
     <!-- time -->
     <g transform="translate(507.626506 670.59625) scale(0.12 -0.12)">
      <use xlink:href="#DejaVuSans-74"/>
      <use xlink:href="#DejaVuSans-69" transform="translate(39.208984 0)"/>
      <use xlink:href="#DejaVuSans-6d" transform="translate(66.992188 0)"/>
      <use xlink:href="#DejaVuSans-65" transform="translate(164.404297 0)"/>
     </g>
    </g>
   </g>
   <g id="matplotlib.axis_8">
    <g id="ytick_20">
     <g id="line2d_62">
      <g>
       <use xlink:href="#m9ac1c6c38d" x="394.363636" y="599.975172" style="stroke: #000000; stroke-width: 0.6"/>
      </g>
     </g>
     <g id="text_41">
      <!-- $\mathdefault{2\times10^{-1}}$ -->
      <g transform="translate(346.863636 603.774391) scale(0.1 -0.1)">
       <use xlink:href="#DejaVuSans-32" transform="translate(0 0.684375)"/>
       <use xlink:href="#DejaVuSans-d7" transform="translate(83.105469 0.684375)"/>
       <use xlink:href="#DejaVuSans-31" transform="translate(186.376953 0.684375)"/>
       <use xlink:href="#DejaVuSans-30" transform="translate(250 0.684375)"/>
       <use xlink:href="#DejaVuSans-2212" transform="translate(314.580078 38.965625) scale(0.7)"/>
       <use xlink:href="#DejaVuSans-31" transform="translate(373.232422 38.965625) scale(0.7)"/>
      </g>
     </g>
    </g>
    <g id="ytick_21">
     <g id="line2d_63">
      <g>
       <use xlink:href="#m9ac1c6c38d" x="394.363636" y="532.141111" style="stroke: #000000; stroke-width: 0.6"/>
      </g>
     </g>
     <g id="text_42">
      <!-- $\mathdefault{3\times10^{-1}}$ -->
      <g transform="translate(346.863636 535.94033) scale(0.1 -0.1)">
       <use xlink:href="#DejaVuSans-33" transform="translate(0 0.684375)"/>
       <use xlink:href="#DejaVuSans-d7" transform="translate(83.105469 0.684375)"/>
       <use xlink:href="#DejaVuSans-31" transform="translate(186.376953 0.684375)"/>
       <use xlink:href="#DejaVuSans-30" transform="translate(250 0.684375)"/>
       <use xlink:href="#DejaVuSans-2212" transform="translate(314.580078 38.965625) scale(0.7)"/>
       <use xlink:href="#DejaVuSans-31" transform="translate(373.232422 38.965625) scale(0.7)"/>
      </g>
     </g>
    </g>
    <g id="ytick_22">
     <g id="line2d_64">
      <g>
       <use xlink:href="#m9ac1c6c38d" x="394.363636" y="484.012078" style="stroke: #000000; stroke-width: 0.6"/>
      </g>
     </g>
     <g id="text_43">
      <!-- $\mathdefault{4\times10^{-1}}$ -->
      <g transform="translate(346.863636 487.811297) scale(0.1 -0.1)">
       <use xlink:href="#DejaVuSans-34" transform="translate(0 0.684375)"/>
       <use xlink:href="#DejaVuSans-d7" transform="translate(83.105469 0.684375)"/>
       <use xlink:href="#DejaVuSans-31" transform="translate(186.376953 0.684375)"/>
       <use xlink:href="#DejaVuSans-30" transform="translate(250 0.684375)"/>
       <use xlink:href="#DejaVuSans-2212" transform="translate(314.580078 38.965625) scale(0.7)"/>
       <use xlink:href="#DejaVuSans-31" transform="translate(373.232422 38.965625) scale(0.7)"/>
      </g>
     </g>
    </g>
    <g id="ytick_23">
     <g id="line2d_65">
      <g>
       <use xlink:href="#m9ac1c6c38d" x="394.363636" y="446.6803" style="stroke: #000000; stroke-width: 0.6"/>
      </g>
     </g>
    </g>
    <g id="ytick_24">
     <g id="line2d_66">
      <g>
       <use xlink:href="#m9ac1c6c38d" x="394.363636" y="416.178017" style="stroke: #000000; stroke-width: 0.6"/>
      </g>
     </g>
     <g id="text_44">
      <!-- $\mathdefault{6\times10^{-1}}$ -->
      <g transform="translate(346.863636 419.977235) scale(0.1 -0.1)">
       <use xlink:href="#DejaVuSans-36" transform="translate(0 0.684375)"/>
       <use xlink:href="#DejaVuSans-d7" transform="translate(83.105469 0.684375)"/>
       <use xlink:href="#DejaVuSans-31" transform="translate(186.376953 0.684375)"/>
       <use xlink:href="#DejaVuSans-30" transform="translate(250 0.684375)"/>
       <use xlink:href="#DejaVuSans-2212" transform="translate(314.580078 38.965625) scale(0.7)"/>
       <use xlink:href="#DejaVuSans-31" transform="translate(373.232422 38.965625) scale(0.7)"/>
      </g>
     </g>
    </g>
    <g id="ytick_25">
     <g id="line2d_67">
      <g>
       <use xlink:href="#m9ac1c6c38d" x="394.363636" y="390.388703" style="stroke: #000000; stroke-width: 0.6"/>
      </g>
     </g>
    </g>
   </g>
   <g id="line2d_68">
    <g clip-path="url(#pf655ce9453)">
     <use xlink:href="#mca8c2c205c" x="431.647227" y="51841" style="fill: #ff0000; stroke: #ff0000"/>
     <use xlink:href="#mca8c2c205c" x="434.605796" y="400.254545" style="fill: #ff0000; stroke: #ff0000"/>
     <use xlink:href="#mca8c2c205c" x="589.667328" y="629.345455" style="fill: #ff0000; stroke: #ff0000"/>
     <use xlink:href="#mca8c2c205c" x="626.586741" y="479.529108" style="fill: #ff0000; stroke: #ff0000"/>
    </g>
   </g>
   <g id="patch_21">
    <path d="M 394.363636 640.8 
L 394.363636 388.8 
" style="fill: none; stroke: #000000; stroke-width: 0.8; stroke-linejoin: miter; stroke-linecap: square"/>
   </g>
   <g id="patch_22">
    <path d="M 648 640.8 
L 648 388.8 
" style="fill: none; stroke: #000000; stroke-width: 0.8; stroke-linejoin: miter; stroke-linecap: square"/>
   </g>
   <g id="patch_23">
    <path d="M 394.363636 640.8 
L 648 640.8 
" style="fill: none; stroke: #000000; stroke-width: 0.8; stroke-linejoin: miter; stroke-linecap: square"/>
   </g>
   <g id="patch_24">
    <path d="M 394.363636 388.8 
L 648 388.8 
" style="fill: none; stroke: #000000; stroke-width: 0.8; stroke-linejoin: miter; stroke-linecap: square"/>
   </g>
   <g id="legend_4">
    <g id="patch_25">
     <path d="M 492.23125 411.478125 
L 641 411.478125 
Q 643 411.478125 643 409.478125 
L 643 395.8 
Q 643 393.8 641 393.8 
L 492.23125 393.8 
Q 490.23125 393.8 490.23125 395.8 
L 490.23125 409.478125 
Q 490.23125 411.478125 492.23125 411.478125 
z
" style="fill: #ffffff; opacity: 0.8; stroke: #cccccc; stroke-linejoin: miter"/>
    </g>
    <g id="line2d_69">
     <g>
      <use xlink:href="#mca8c2c205c" x="504.23125" y="401.898438" style="fill: #ff0000; stroke: #ff0000"/>
     </g>
    </g>
    <g id="text_45">
     <!-- (weighted residuals)^2 -->
     <g transform="translate(522.23125 405.398438) scale(0.1 -0.1)">
      <use xlink:href="#DejaVuSans-28"/>
      <use xlink:href="#DejaVuSans-77" transform="translate(39.013672 0)"/>
      <use xlink:href="#DejaVuSans-65" transform="translate(120.800781 0)"/>
      <use xlink:href="#DejaVuSans-69" transform="translate(182.324219 0)"/>
      <use xlink:href="#DejaVuSans-67" transform="translate(210.107422 0)"/>
      <use xlink:href="#DejaVuSans-68" transform="translate(273.583984 0)"/>
      <use xlink:href="#DejaVuSans-74" transform="translate(336.962891 0)"/>
      <use xlink:href="#DejaVuSans-65" transform="translate(376.171875 0)"/>
      <use xlink:href="#DejaVuSans-64" transform="translate(437.695312 0)"/>
      <use xlink:href="#DejaVuSans-20" transform="translate(501.171875 0)"/>
      <use xlink:href="#DejaVuSans-72" transform="translate(532.958984 0)"/>
      <use xlink:href="#DejaVuSans-65" transform="translate(571.822266 0)"/>
      <use xlink:href="#DejaVuSans-73" transform="translate(633.345703 0)"/>
      <use xlink:href="#DejaVuSans-69" transform="translate(685.445312 0)"/>
      <use xlink:href="#DejaVuSans-64" transform="translate(713.228516 0)"/>
      <use xlink:href="#DejaVuSans-75" transform="translate(776.705078 0)"/>
      <use xlink:href="#DejaVuSans-61" transform="translate(840.083984 0)"/>
      <use xlink:href="#DejaVuSans-6c" transform="translate(901.363281 0)"/>
      <use xlink:href="#DejaVuSans-73" transform="translate(929.146484 0)"/>
      <use xlink:href="#DejaVuSans-29" transform="translate(981.246094 0)"/>
      <use xlink:href="#DejaVuSans-5e" transform="translate(1020.259766 0)"/>
      <use xlink:href="#DejaVuSans-32" transform="translate(1104.048828 0)"/>
     </g>
    </g>
   </g>
  </g>
 </g>
 <defs>
  <clipPath id="p07fec7b61f">
   <rect x="90" y="86.4" width="253.636364" height="252"/>
  </clipPath>
  <clipPath id="p09e0d50968">
   <rect x="394.363636" y="86.4" width="253.636364" height="252"/>
  </clipPath>
  <clipPath id="p4e2259e5a0">
   <rect x="90" y="388.8" width="253.636364" height="252"/>
  </clipPath>
  <clipPath id="pf655ce9453">
   <rect x="394.363636" y="388.8" width="253.636364" height="252"/>
  </clipPath>
 </defs>
</svg>
