<?xml version="1.0" encoding="utf-8" standalone="no"?>
<!DOCTYPE svg PUBLIC "-//W3C//DTD SVG 1.1//EN"
  "http://www.w3.org/Graphics/SVG/1.1/DTD/svg11.dtd">
<svg xmlns:xlink="http://www.w3.org/1999/xlink" width="360pt" height="360pt" viewBox="0 0 360 360" xmlns="http://www.w3.org/2000/svg" version="1.1">
 <metadata>
  <rdf:RDF xmlns:dc="http://purl.org/dc/elements/1.1/" xmlns:cc="http://creativecommons.org/ns#" xmlns:rdf="http://www.w3.org/1999/02/22-rdf-syntax-ns#">
   <cc:Work>
    <dc:type rdf:resource="http://purl.org/dc/dcmitype/StillImage"/>
    <dc:date>2025-10-09T12:35:56.410792</dc:date>
    <dc:format>image/svg+xml</dc:format>
    <dc:creator>
     <cc:Agent>
      <dc:title>Matplotlib v3.10.6, https://matplotlib.org/</dc:title>
     </cc:Agent>
    </dc:creator>
   </cc:Work>
  </rdf:RDF>
 </metadata>
 <defs>
  <style type="text/css">*{stroke-linejoin: round; stroke-linecap: butt}</style>
 </defs>
 <g id="figure_1">
  <g id="patch_1">
   <path d="M 0 360 
L 360 360 
L 360 0 
L 0 0 
z
" style="fill: #ffffff"/>
  </g>
  <g id="axes_1">
   <g id="patch_2">
    <path d="M 45 320.4 
L 324 320.4 
L 324 43.2 
L 45 43.2 
z
" style="fill: #ffffff"/>
   </g>
   <g id="matplotlib.axis_1">
    <g id="xtick_1">
     <g id="line2d_1">
      <defs>
       <path id="m9849d30b7a" d="M 0 0 
L 0 3.5 
" style="stroke: #000000; stroke-width: 0.8"/>
      </defs>
      <g>
       <use xlink:href="#m9849d30b7a" x="57.681818" y="320.4" style="stroke: #000000; stroke-width: 0.8"/>
      </g>
     </g>
     <g id="text_1">
      <!-- 0 -->
      <g transform="translate(54.500568 334.998438) scale(0.1 -0.1)">
       <defs>
        <path id="DejaVuSans-30" d="M 2034 4250 
Q 1547 4250 1301 3770 
Q 1056 3291 1056 2328 
Q 1056 1369 1301 889 
Q 1547 409 2034 409 
Q 2525 409 2770 889 
Q 3016 1369 3016 2328 
Q 3016 3291 2770 3770 
Q 2525 4250 2034 4250 
z
M 2034 4750 
Q 2819 4750 3233 4129 
Q 3647 3509 3647 2328 
Q 3647 1150 3233 529 
Q 2819 -91 2034 -91 
Q 1250 -91 836 529 
Q 422 1150 422 2328 
Q 422 3509 836 4129 
Q 1250 4750 2034 4750 
z
" transform="scale(0.015625)"/>
       </defs>
       <use xlink:href="#DejaVuSans-30"/>
      </g>
     </g>
    </g>
    <g id="xtick_2">
     <g id="line2d_2">
      <g>
       <use xlink:href="#m9849d30b7a" x="96.11157" y="320.4" style="stroke: #000000; stroke-width: 0.8"/>
      </g>
     </g>
     <g id="text_2">
      <!-- 10 -->
      <g transform="translate(89.74907 334.998438) scale(0.1 -0.1)">
       <defs>
        <path id="DejaVuSans-31" d="M 794 531 
L 1825 531 
L 1825 4091 
L 703 3866 
L 703 4441 
L 1819 4666 
L 2450 4666 
L 2450 531 
L 3481 531 
L 3481 0 
L 794 0 
L 794 531 
z
" transform="scale(0.015625)"/>
       </defs>
       <use xlink:href="#DejaVuSans-31"/>
       <use xlink:href="#DejaVuSans-30" transform="translate(63.623047 0)"/>
      </g>
     </g>
    </g>
    <g id="xtick_3">
     <g id="line2d_3">
      <g>
       <use xlink:href="#m9849d30b7a" x="134.541322" y="320.4" style="stroke: #000000; stroke-width: 0.8"/>
      </g>
     </g>
     <g id="text_3">
      <!-- 20 -->
      <g transform="translate(128.178822 334.998438) scale(0.1 -0.1)">
       <defs>
        <path id="DejaVuSans-32" d="M 1228 531 
L 3431 531 
L 3431 0 
L 469 0 
L 469 531 
Q 828 903 1448 1529 
Q 2069 2156 2228 2338 
Q 2531 2678 2651 2914 
Q 2772 3150 2772 3378 
Q 2772 3750 2511 3984 
Q 2250 4219 1831 4219 
Q 1534 4219 1204 4116 
Q 875 4013 500 3803 
L 500 4441 
Q 881 4594 1212 4672 
Q 1544 4750 1819 4750 
Q 2544 4750 2975 4387 
Q 3406 4025 3406 3419 
Q 3406 3131 3298 2873 
Q 3191 2616 2906 2266 
Q 2828 2175 2409 1742 
Q 1991 1309 1228 531 
z
" transform="scale(0.015625)"/>
       </defs>
       <use xlink:href="#DejaVuSans-32"/>
       <use xlink:href="#DejaVuSans-30" transform="translate(63.623047 0)"/>
      </g>
     </g>
    </g>
    <g id="xtick_4">
     <g id="line2d_4">
      <g>
       <use xlink:href="#m9849d30b7a" x="172.971074" y="320.4" style="stroke: #000000; stroke-width: 0.8"/>
      </g>
     </g>
     <g id="text_4">
      <!-- 30 -->
      <g transform="translate(166.608574 334.998438) scale(0.1 -0.1)">
       <defs>
        <path id="DejaVuSans-33" d="M 2597 2516 
Q 3050 2419 3304 2112 
Q 3559 1806 3559 1356 
Q 3559 666 3084 287 
Q 2609 -91 1734 -91 
Q 1441 -91 1130 -33 
Q 819 25 488 141 
L 488 750 
Q 750 597 1062 519 
Q 1375 441 1716 441 
Q 2309 441 2620 675 
Q 2931 909 2931 1356 
Q 2931 1769 2642 2001 
Q 2353 2234 1838 2234 
L 1294 2234 
L 1294 2753 
L 1863 2753 
Q 2328 2753 2575 2939 
Q 2822 3125 2822 3475 
Q 2822 3834 2567 4026 
Q 2313 4219 1838 4219 
Q 1578 4219 1281 4162 
Q 984 4106 628 3988 
L 628 4550 
Q 988 4650 1302 4700 
Q 1616 4750 1894 4750 
Q 2613 4750 3031 4423 
Q 3450 4097 3450 3541 
Q 3450 3153 3228 2886 
Q 3006 2619 2597 2516 
z
" transform="scale(0.015625)"/>
       </defs>
       <use xlink:href="#DejaVuSans-33"/>
       <use xlink:href="#DejaVuSans-30" transform="translate(63.623047 0)"/>
      </g>
     </g>
    </g>
    <g id="xtick_5">
     <g id="line2d_5">
      <g>
       <use xlink:href="#m9849d30b7a" x="211.400826" y="320.4" style="stroke: #000000; stroke-width: 0.8"/>
      </g>
     </g>
     <g id="text_5">
      <!-- 40 -->
      <g transform="translate(205.038326 334.998438) scale(0.1 -0.1)">
       <defs>
        <path id="DejaVuSans-34" d="M 2419 4116 
L 825 1625 
L 2419 1625 
L 2419 4116 
z
M 2253 4666 
L 3047 4666 
L 3047 1625 
L 3713 1625 
L 3713 1100 
L 3047 1100 
L 3047 0 
L 2419 0 
L 2419 1100 
L 313 1100 
L 313 1709 
L 2253 4666 
z
" transform="scale(0.015625)"/>
       </defs>
       <use xlink:href="#DejaVuSans-34"/>
       <use xlink:href="#DejaVuSans-30" transform="translate(63.623047 0)"/>
      </g>
     </g>
    </g>
    <g id="xtick_6">
     <g id="line2d_6">
      <g>
       <use xlink:href="#m9849d30b7a" x="249.830579" y="320.4" style="stroke: #000000; stroke-width: 0.8"/>
      </g>
     </g>
     <g id="text_6">
      <!-- 50 -->
      <g transform="translate(243.468079 334.998438) scale(0.1 -0.1)">
       <defs>
        <path id="DejaVuSans-35" d="M 691 4666 
L 3169 4666 
L 3169 4134 
L 1269 4134 
L 1269 2991 
Q 1406 3038 1543 3061 
Q 1681 3084 1819 3084 
Q 2600 3084 3056 2656 
Q 3513 2228 3513 1497 
Q 3513 744 3044 326 
Q 2575 -91 1722 -91 
Q 1428 -91 1123 -41 
Q 819 9 494 109 
L 494 744 
Q 775 591 1075 516 
Q 1375 441 1709 441 
Q 2250 441 2565 725 
Q 2881 1009 2881 1497 
Q 2881 1984 2565 2268 
Q 2250 2553 1709 2553 
Q 1456 2553 1204 2497 
Q 953 2441 691 2322 
L 691 4666 
z
" transform="scale(0.015625)"/>
       </defs>
       <use xlink:href="#DejaVuSans-35"/>
       <use xlink:href="#DejaVuSans-30" transform="translate(63.623047 0)"/>
      </g>
     </g>
    </g>
    <g id="xtick_7">
     <g id="line2d_7">
      <g>
       <use xlink:href="#m9849d30b7a" x="288.260331" y="320.4" style="stroke: #000000; stroke-width: 0.8"/>
      </g>
     </g>
     <g id="text_7">
      <!-- 60 -->
      <g transform="translate(281.897831 334.998438) scale(0.1 -0.1)">
       <defs>
        <path id="DejaVuSans-36" d="M 2113 2584 
Q 1688 2584 1439 2293 
Q 1191 2003 1191 1497 
Q 1191 994 1439 701 
Q 1688 409 2113 409 
Q 2538 409 2786 701 
Q 3034 994 3034 1497 
Q 3034 2003 2786 2293 
Q 2538 2584 2113 2584 
z
M 3366 4563 
L 3366 3988 
Q 3128 4100 2886 4159 
Q 2644 4219 2406 4219 
Q 1781 4219 1451 3797 
Q 1122 3375 1075 2522 
Q 1259 2794 1537 2939 
Q 1816 3084 2150 3084 
Q 2853 3084 3261 2657 
Q 3669 2231 3669 1497 
Q 3669 778 3244 343 
Q 2819 -91 2113 -91 
Q 1303 -91 875 529 
Q 447 1150 447 2328 
Q 447 3434 972 4092 
Q 1497 4750 2381 4750 
Q 2619 4750 2861 4703 
Q 3103 4656 3366 4563 
z
" transform="scale(0.015625)"/>
       </defs>
       <use xlink:href="#DejaVuSans-36"/>
       <use xlink:href="#DejaVuSans-30" transform="translate(63.623047 0)"/>
      </g>
     </g>
    </g>
    <g id="text_8">
     <!-- Optimization step -->
     <g transform="translate(131.233125 350.19625) scale(0.12 -0.12)">
      <defs>
       <path id="DejaVuSans-4f" d="M 2522 4238 
Q 1834 4238 1429 3725 
Q 1025 3213 1025 2328 
Q 1025 1447 1429 934 
Q 1834 422 2522 422 
Q 3209 422 3611 934 
Q 4013 1447 4013 2328 
Q 4013 3213 3611 3725 
Q 3209 4238 2522 4238 
z
M 2522 4750 
Q 3503 4750 4090 4092 
Q 4678 3434 4678 2328 
Q 4678 1225 4090 567 
Q 3503 -91 2522 -91 
Q 1538 -91 948 565 
Q 359 1222 359 2328 
Q 359 3434 948 4092 
Q 1538 4750 2522 4750 
z
" transform="scale(0.015625)"/>
       <path id="DejaVuSans-70" d="M 1159 525 
L 1159 -1331 
L 581 -1331 
L 581 3500 
L 1159 3500 
L 1159 2969 
Q 1341 3281 1617 3432 
Q 1894 3584 2278 3584 
Q 2916 3584 3314 3078 
Q 3713 2572 3713 1747 
Q 3713 922 3314 415 
Q 2916 -91 2278 -91 
Q 1894 -91 1617 61 
Q 1341 213 1159 525 
z
M 3116 1747 
Q 3116 2381 2855 2742 
Q 2594 3103 2138 3103 
Q 1681 3103 1420 2742 
Q 1159 2381 1159 1747 
Q 1159 1113 1420 752 
Q 1681 391 2138 391 
Q 2594 391 2855 752 
Q 3116 1113 3116 1747 
z
" transform="scale(0.015625)"/>
       <path id="DejaVuSans-74" d="M 1172 4494 
L 1172 3500 
L 2356 3500 
L 2356 3053 
L 1172 3053 
L 1172 1153 
Q 1172 725 1289 603 
Q 1406 481 1766 481 
L 2356 481 
L 2356 0 
L 1766 0 
Q 1100 0 847 248 
Q 594 497 594 1153 
L 594 3053 
L 172 3053 
L 172 3500 
L 594 3500 
L 594 4494 
L 1172 4494 
z
" transform="scale(0.015625)"/>
       <path id="DejaVuSans-69" d="M 603 3500 
L 1178 3500 
L 1178 0 
L 603 0 
L 603 3500 
z
M 603 4863 
L 1178 4863 
L 1178 4134 
L 603 4134 
L 603 4863 
z
" transform="scale(0.015625)"/>
       <path id="DejaVuSans-6d" d="M 3328 2828 
Q 3544 3216 3844 3400 
Q 4144 3584 4550 3584 
Q 5097 3584 5394 3201 
Q 5691 2819 5691 2113 
L 5691 0 
L 5113 0 
L 5113 2094 
Q 5113 2597 4934 2840 
Q 4756 3084 4391 3084 
Q 3944 3084 3684 2787 
Q 3425 2491 3425 1978 
L 3425 0 
L 2847 0 
L 2847 2094 
Q 2847 2600 2669 2842 
Q 2491 3084 2119 3084 
Q 1678 3084 1418 2786 
Q 1159 2488 1159 1978 
L 1159 0 
L 581 0 
L 581 3500 
L 1159 3500 
L 1159 2956 
Q 1356 3278 1631 3431 
Q 1906 3584 2284 3584 
Q 2666 3584 2933 3390 
Q 3200 3197 3328 2828 
z
" transform="scale(0.015625)"/>
       <path id="DejaVuSans-7a" d="M 353 3500 
L 3084 3500 
L 3084 2975 
L 922 459 
L 3084 459 
L 3084 0 
L 275 0 
L 275 525 
L 2438 3041 
L 353 3041 
L 353 3500 
z
" transform="scale(0.015625)"/>
       <path id="DejaVuSans-61" d="M 2194 1759 
Q 1497 1759 1228 1600 
Q 959 1441 959 1056 
Q 959 750 1161 570 
Q 1363 391 1709 391 
Q 2188 391 2477 730 
Q 2766 1069 2766 1631 
L 2766 1759 
L 2194 1759 
z
M 3341 1997 
L 3341 0 
L 2766 0 
L 2766 531 
Q 2569 213 2275 61 
Q 1981 -91 1556 -91 
Q 1019 -91 701 211 
Q 384 513 384 1019 
Q 384 1609 779 1909 
Q 1175 2209 1959 2209 
L 2766 2209 
L 2766 2266 
Q 2766 2663 2505 2880 
Q 2244 3097 1772 3097 
Q 1472 3097 1187 3025 
Q 903 2953 641 2809 
L 641 3341 
Q 956 3463 1253 3523 
Q 1550 3584 1831 3584 
Q 2591 3584 2966 3190 
Q 3341 2797 3341 1997 
z
" transform="scale(0.015625)"/>
       <path id="DejaVuSans-6f" d="M 1959 3097 
Q 1497 3097 1228 2736 
Q 959 2375 959 1747 
Q 959 1119 1226 758 
Q 1494 397 1959 397 
Q 2419 397 2687 759 
Q 2956 1122 2956 1747 
Q 2956 2369 2687 2733 
Q 2419 3097 1959 3097 
z
M 1959 3584 
Q 2709 3584 3137 3096 
Q 3566 2609 3566 1747 
Q 3566 888 3137 398 
Q 2709 -91 1959 -91 
Q 1206 -91 779 398 
Q 353 888 353 1747 
Q 353 2609 779 3096 
Q 1206 3584 1959 3584 
z
" transform="scale(0.015625)"/>
       <path id="DejaVuSans-6e" d="M 3513 2113 
L 3513 0 
L 2938 0 
L 2938 2094 
Q 2938 2591 2744 2837 
Q 2550 3084 2163 3084 
Q 1697 3084 1428 2787 
Q 1159 2491 1159 1978 
L 1159 0 
L 581 0 
L 581 3500 
L 1159 3500 
L 1159 2956 
Q 1366 3272 1645 3428 
Q 1925 3584 2291 3584 
Q 2894 3584 3203 3211 
Q 3513 2838 3513 2113 
z
" transform="scale(0.015625)"/>
       <path id="DejaVuSans-20" transform="scale(0.015625)"/>
       <path id="DejaVuSans-73" d="M 2834 3397 
L 2834 2853 
Q 2591 2978 2328 3040 
Q 2066 3103 1784 3103 
Q 1356 3103 1142 2972 
Q 928 2841 928 2578 
Q 928 2378 1081 2264 
Q 1234 2150 1697 2047 
L 1894 2003 
Q 2506 1872 2764 1633 
Q 3022 1394 3022 966 
Q 3022 478 2636 193 
Q 2250 -91 1575 -91 
Q 1294 -91 989 -36 
Q 684 19 347 128 
L 347 722 
Q 666 556 975 473 
Q 1284 391 1588 391 
Q 1994 391 2212 530 
Q 2431 669 2431 922 
Q 2431 1156 2273 1281 
Q 2116 1406 1581 1522 
L 1381 1569 
Q 847 1681 609 1914 
Q 372 2147 372 2553 
Q 372 3047 722 3315 
Q 1072 3584 1716 3584 
Q 2034 3584 2315 3537 
Q 2597 3491 2834 3397 
z
" transform="scale(0.015625)"/>
       <path id="DejaVuSans-65" d="M 3597 1894 
L 3597 1613 
L 953 1613 
Q 991 1019 1311 708 
Q 1631 397 2203 397 
Q 2534 397 2845 478 
Q 3156 559 3463 722 
L 3463 178 
Q 3153 47 2828 -22 
Q 2503 -91 2169 -91 
Q 1331 -91 842 396 
Q 353 884 353 1716 
Q 353 2575 817 3079 
Q 1281 3584 2069 3584 
Q 2775 3584 3186 3129 
Q 3597 2675 3597 1894 
z
M 3022 2063 
Q 3016 2534 2758 2815 
Q 2500 3097 2075 3097 
Q 1594 3097 1305 2825 
Q 1016 2553 972 2059 
L 3022 2063 
z
" transform="scale(0.015625)"/>
      </defs>
      <use xlink:href="#DejaVuSans-4f"/>
      <use xlink:href="#DejaVuSans-70" transform="translate(78.710938 0)"/>
      <use xlink:href="#DejaVuSans-74" transform="translate(142.1875 0)"/>
      <use xlink:href="#DejaVuSans-69" transform="translate(181.396484 0)"/>
      <use xlink:href="#DejaVuSans-6d" transform="translate(209.179688 0)"/>
      <use xlink:href="#DejaVuSans-69" transform="translate(306.591797 0)"/>
      <use xlink:href="#DejaVuSans-7a" transform="translate(334.375 0)"/>
      <use xlink:href="#DejaVuSans-61" transform="translate(386.865234 0)"/>
      <use xlink:href="#DejaVuSans-74" transform="translate(448.144531 0)"/>
      <use xlink:href="#DejaVuSans-69" transform="translate(487.353516 0)"/>
      <use xlink:href="#DejaVuSans-6f" transform="translate(515.136719 0)"/>
      <use xlink:href="#DejaVuSans-6e" transform="translate(576.318359 0)"/>
      <use xlink:href="#DejaVuSans-20" transform="translate(639.697266 0)"/>
      <use xlink:href="#DejaVuSans-73" transform="translate(671.484375 0)"/>
      <use xlink:href="#DejaVuSans-74" transform="translate(723.583984 0)"/>
      <use xlink:href="#DejaVuSans-65" transform="translate(762.792969 0)"/>
      <use xlink:href="#DejaVuSans-70" transform="translate(824.316406 0)"/>
     </g>
    </g>
   </g>
   <g id="matplotlib.axis_2">
    <g id="ytick_1">
     <g id="line2d_8">
      <defs>
       <path id="mb8a76e7539" d="M 0 0 
L -3.5 0 
" style="stroke: #000000; stroke-width: 0.8"/>
      </defs>
      <g>
       <use xlink:href="#mb8a76e7539" x="45" y="247.856765" style="stroke: #000000; stroke-width: 0.8"/>
      </g>
     </g>
     <g id="text_9">
      <!-- $\mathdefault{10^{5}}$ -->
      <g transform="translate(20.4 251.655984) scale(0.1 -0.1)">
       <use xlink:href="#DejaVuSans-31" transform="translate(0 0.684375)"/>
       <use xlink:href="#DejaVuSans-30" transform="translate(63.623047 0.684375)"/>
       <use xlink:href="#DejaVuSans-35" transform="translate(128.203125 38.965625) scale(0.7)"/>
      </g>
     </g>
    </g>
    <g id="ytick_2">
     <g id="line2d_9">
      <g>
       <use xlink:href="#mb8a76e7539" x="45" y="132.683234" style="stroke: #000000; stroke-width: 0.8"/>
      </g>
     </g>
     <g id="text_10">
      <!-- $\mathdefault{10^{6}}$ -->
      <g transform="translate(20.4 136.482452) scale(0.1 -0.1)">
       <use xlink:href="#DejaVuSans-31" transform="translate(0 0.765625)"/>
       <use xlink:href="#DejaVuSans-30" transform="translate(63.623047 0.765625)"/>
       <use xlink:href="#DejaVuSans-36" transform="translate(128.203125 39.046875) scale(0.7)"/>
      </g>
     </g>
    </g>
    <g id="ytick_3">
     <g id="line2d_10">
      <defs>
       <path id="m62dfed6781" d="M 0 0 
L -2 0 
" style="stroke: #000000; stroke-width: 0.6"/>
      </defs>
      <g>
       <use xlink:href="#m62dfed6781" x="45" y="308.078557" style="stroke: #000000; stroke-width: 0.6"/>
      </g>
     </g>
    </g>
    <g id="ytick_4">
     <g id="line2d_11">
      <g>
       <use xlink:href="#m62dfed6781" x="45" y="293.688921" style="stroke: #000000; stroke-width: 0.6"/>
      </g>
     </g>
    </g>
    <g id="ytick_5">
     <g id="line2d_12">
      <g>
       <use xlink:href="#m62dfed6781" x="45" y="282.527453" style="stroke: #000000; stroke-width: 0.6"/>
      </g>
     </g>
    </g>
    <g id="ytick_6">
     <g id="line2d_13">
      <g>
       <use xlink:href="#m62dfed6781" x="45" y="273.407869" style="stroke: #000000; stroke-width: 0.6"/>
      </g>
     </g>
    </g>
    <g id="ytick_7">
     <g id="line2d_14">
      <g>
       <use xlink:href="#m62dfed6781" x="45" y="265.697371" style="stroke: #000000; stroke-width: 0.6"/>
      </g>
     </g>
    </g>
    <g id="ytick_8">
     <g id="line2d_15">
      <g>
       <use xlink:href="#m62dfed6781" x="45" y="259.018234" style="stroke: #000000; stroke-width: 0.6"/>
      </g>
     </g>
    </g>
    <g id="ytick_9">
     <g id="line2d_16">
      <g>
       <use xlink:href="#m62dfed6781" x="45" y="253.126817" style="stroke: #000000; stroke-width: 0.6"/>
      </g>
     </g>
    </g>
    <g id="ytick_10">
     <g id="line2d_17">
      <g>
       <use xlink:href="#m62dfed6781" x="45" y="213.186078" style="stroke: #000000; stroke-width: 0.6"/>
      </g>
     </g>
    </g>
    <g id="ytick_11">
     <g id="line2d_18">
      <g>
       <use xlink:href="#m62dfed6781" x="45" y="192.905025" style="stroke: #000000; stroke-width: 0.6"/>
      </g>
     </g>
    </g>
    <g id="ytick_12">
     <g id="line2d_19">
      <g>
       <use xlink:href="#m62dfed6781" x="45" y="178.51539" style="stroke: #000000; stroke-width: 0.6"/>
      </g>
     </g>
    </g>
    <g id="ytick_13">
     <g id="line2d_20">
      <g>
       <use xlink:href="#m62dfed6781" x="45" y="167.353921" style="stroke: #000000; stroke-width: 0.6"/>
      </g>
     </g>
    </g>
    <g id="ytick_14">
     <g id="line2d_21">
      <g>
       <use xlink:href="#m62dfed6781" x="45" y="158.234338" style="stroke: #000000; stroke-width: 0.6"/>
      </g>
     </g>
    </g>
    <g id="ytick_15">
     <g id="line2d_22">
      <g>
       <use xlink:href="#m62dfed6781" x="45" y="150.523839" style="stroke: #000000; stroke-width: 0.6"/>
      </g>
     </g>
    </g>
    <g id="ytick_16">
     <g id="line2d_23">
      <g>
       <use xlink:href="#m62dfed6781" x="45" y="143.844702" style="stroke: #000000; stroke-width: 0.6"/>
      </g>
     </g>
    </g>
    <g id="ytick_17">
     <g id="line2d_24">
      <g>
       <use xlink:href="#m62dfed6781" x="45" y="137.953285" style="stroke: #000000; stroke-width: 0.6"/>
      </g>
     </g>
    </g>
    <g id="ytick_18">
     <g id="line2d_25">
      <g>
       <use xlink:href="#m62dfed6781" x="45" y="98.012546" style="stroke: #000000; stroke-width: 0.6"/>
      </g>
     </g>
    </g>
    <g id="ytick_19">
     <g id="line2d_26">
      <g>
       <use xlink:href="#m62dfed6781" x="45" y="77.731494" style="stroke: #000000; stroke-width: 0.6"/>
      </g>
     </g>
    </g>
    <g id="ytick_20">
     <g id="line2d_27">
      <g>
       <use xlink:href="#m62dfed6781" x="45" y="63.341858" style="stroke: #000000; stroke-width: 0.6"/>
      </g>
     </g>
    </g>
    <g id="ytick_21">
     <g id="line2d_28">
      <g>
       <use xlink:href="#m62dfed6781" x="45" y="52.18039" style="stroke: #000000; stroke-width: 0.6"/>
      </g>
     </g>
    </g>
    <g id="text_11">
     <!-- Cost -->
     <g transform="translate(13.904375 195.13875) rotate(-90) scale(0.12 -0.12)">
      <defs>
       <path id="DejaVuSans-43" d="M 4122 4306 
L 4122 3641 
Q 3803 3938 3442 4084 
Q 3081 4231 2675 4231 
Q 1875 4231 1450 3742 
Q 1025 3253 1025 2328 
Q 1025 1406 1450 917 
Q 1875 428 2675 428 
Q 3081 428 3442 575 
Q 3803 722 4122 1019 
L 4122 359 
Q 3791 134 3420 21 
Q 3050 -91 2638 -91 
Q 1578 -91 968 557 
Q 359 1206 359 2328 
Q 359 3453 968 4101 
Q 1578 4750 2638 4750 
Q 3056 4750 3426 4639 
Q 3797 4528 4122 4306 
z
" transform="scale(0.015625)"/>
      </defs>
      <use xlink:href="#DejaVuSans-43"/>
      <use xlink:href="#DejaVuSans-6f" transform="translate(69.824219 0)"/>
      <use xlink:href="#DejaVuSans-73" transform="translate(131.005859 0)"/>
      <use xlink:href="#DejaVuSans-74" transform="translate(183.105469 0)"/>
     </g>
    </g>
   </g>
   <g id="line2d_29">
    <path d="M 57.681818 156.846779 
L 61.524793 135.76702 
L 65.367769 187.625385 
L 69.210744 156.845718 
L 73.053719 247.254151 
L 76.896694 226.40893 
L 80.739669 271.602708 
L 84.582645 247.249954 
L 88.42562 290.269744 
L 92.268595 282.244015 
L 96.11157 298.545673 
L 99.954545 290.242533 
L 103.797521 304.15741 
L 107.640496 302.854224 
L 111.483471 305.780205 
L 115.326446 304.147941 
L 119.169421 307.385556 
L 123.012397 307.316566 
L 126.855372 307.536405 
L 130.698347 307.381244 
L 134.541322 307.749622 
L 138.384298 307.749507 
L 142.227273 307.751313 
L 146.070248 307.745165 
L 149.913223 307.774668 
L 153.756198 307.773468 
L 157.599174 307.772831 
L 161.442149 307.769902 
L 165.285124 307.796984 
L 169.128099 307.79111 
L 172.971074 307.795585 
L 176.81405 307.79366 
L 180.657025 307.781551 
L 184.5 307.798041 
L 188.342975 307.794582 
L 192.18595 307.794085 
L 196.028926 307.79771 
L 199.871901 307.796956 
L 203.714876 307.795977 
L 207.557851 307.797435 
L 211.400826 307.795489 
L 215.243802 307.795274 
L 219.086777 307.799408 
L 222.929752 307.796642 
L 226.772727 307.796007 
L 230.615702 307.795655 
L 234.458678 307.795141 
L 238.301653 307.796553 
L 242.144628 307.797466 
L 245.987603 307.796821 
L 249.830579 307.794457 
L 253.673554 307.795465 
L 257.516529 307.79502 
L 261.359504 307.795649 
L 265.202479 307.797501 
L 269.045455 307.795116 
" clip-path="url(#pb97ee13178)" style="fill: none; stroke: #1f77b4; stroke-opacity: 0.8; stroke-width: 1.5; stroke-linecap: square"/>
   </g>
   <g id="line2d_30">
    <path d="M 57.681818 265.305698 
L 61.524793 270.122558 
L 65.367769 264.408428 
L 69.210744 265.160775 
L 73.053719 301.67102 
L 76.896694 303.056428 
L 80.739669 301.806553 
L 84.582645 301.629779 
L 88.42562 306.932341 
L 92.268595 307.077915 
L 96.11157 306.995249 
L 99.954545 306.910371 
L 103.797521 307.770722 
L 107.640496 307.769973 
L 111.483471 307.772539 
L 115.326446 307.764746 
L 119.169421 307.774928 
L 123.012397 307.772397 
L 126.855372 307.783788 
L 130.698347 307.774173 
L 134.541322 307.796343 
L 138.384298 307.795276 
L 142.227273 307.795532 
L 146.070248 307.799088 
L 149.913223 307.709276 
L 153.756198 307.787488 
L 157.599174 307.793549 
L 161.442149 307.796468 
L 165.285124 307.799654 
L 169.128099 307.795668 
L 172.971074 307.798462 
L 176.81405 307.796317 
L 180.657025 307.794763 
L 184.5 307.795147 
L 188.342975 307.796603 
L 192.18595 307.793902 
L 196.028926 307.798707 
L 199.871901 307.797182 
L 203.714876 307.797545 
L 207.557851 307.795803 
L 211.400826 307.797528 
L 215.243802 307.797994 
L 219.086777 307.794934 
L 222.929752 307.79757 
L 226.772727 307.795741 
L 230.615702 307.797149 
L 234.458678 307.795633 
L 238.301653 307.797352 
L 242.144628 307.797751 
L 245.987603 307.799309 
L 249.830579 307.794979 
L 253.673554 307.796746 
L 257.516529 307.795542 
L 261.359504 307.793569 
L 265.202479 307.794514 
L 269.045455 307.79853 
L 272.88843 307.795959 
L 276.731405 307.797292 
L 280.57438 307.794044 
L 284.417355 307.79657 
L 288.260331 307.797759 
L 292.103306 307.797776 
L 295.946281 307.796432 
L 299.789256 307.797272 
L 303.632231 307.79656 
L 307.475207 307.796454 
" clip-path="url(#pb97ee13178)" style="fill: none; stroke: #ff7f0e; stroke-opacity: 0.8; stroke-width: 1.5; stroke-linecap: square"/>
   </g>
   <g id="line2d_31">
    <path d="M 57.681818 285.114812 
L 61.524793 285.130216 
L 65.367769 285.124368 
L 69.210744 284.774225 
L 73.053719 304.942131 
L 76.896694 303.731783 
L 80.739669 306.171351 
L 84.582645 304.895117 
L 88.42562 307.44891 
L 92.268595 307.397021 
L 96.11157 307.272929 
L 99.954545 307.432467 
L 103.797521 307.741464 
L 107.640496 307.738674 
L 111.483471 307.738342 
L 115.326446 307.731544 
L 119.169421 307.782772 
L 123.012397 307.784089 
L 126.855372 307.776181 
L 130.698347 307.782673 
L 134.541322 307.739807 
L 138.384298 307.77393 
L 142.227273 307.778504 
L 146.070248 307.778639 
L 149.913223 307.782079 
L 153.756198 307.778766 
L 157.599174 307.784651 
L 161.442149 307.781899 
L 165.285124 307.774602 
L 169.128099 307.779175 
L 172.971074 307.78348 
L 176.81405 307.780555 
L 180.657025 307.778458 
L 184.5 307.784522 
L 188.342975 307.781526 
L 192.18595 307.781413 
L 196.028926 307.781685 
L 199.871901 307.781503 
L 203.714876 307.780297 
L 207.557851 307.783327 
L 211.400826 307.783155 
" clip-path="url(#pb97ee13178)" style="fill: none; stroke: #2ca02c; stroke-opacity: 0.8; stroke-width: 1.5; stroke-linecap: square"/>
   </g>
   <g id="line2d_32">
    <path d="M 57.681818 55.994074 
L 61.524793 55.994181 
L 65.367769 55.994037 
L 69.210744 55.99386 
L 73.053719 55.995578 
L 76.896694 55.995584 
L 80.739669 55.995568 
L 84.582645 55.995451 
L 88.42562 55.996478 
L 92.268595 55.996944 
L 96.11157 55.996386 
L 99.954545 55.996343 
L 103.797521 55.996945 
L 107.640496 55.996954 
L 111.483471 55.996939 
L 115.326446 55.996943 
L 119.169421 55.997153 
L 123.012397 55.996421 
L 126.855372 55.996392 
L 130.698347 55.995643 
L 134.541322 55.888853 
L 138.384298 55.97415 
L 142.227273 55.995608 
L 146.070248 55.997767 
L 149.913223 55.997369 
L 153.756198 55.99845 
L 157.599174 55.9969 
L 161.442149 55.997034 
L 165.285124 55.997217 
L 169.128099 55.996533 
L 172.971074 55.996379 
L 176.81405 55.996853 
L 180.657025 55.999112 
L 184.5 55.996595 
L 188.342975 55.996876 
L 192.18595 55.99673 
L 196.028926 55.996998 
L 199.871901 55.996806 
L 203.714876 55.995602 
L 207.557851 55.996065 
L 211.400826 55.997028 
L 215.243802 55.996839 
L 219.086777 55.995997 
L 222.929752 55.997719 
L 226.772727 55.996812 
" clip-path="url(#pb97ee13178)" style="fill: none; stroke: #d62728; stroke-opacity: 0.8; stroke-width: 1.5; stroke-linecap: square"/>
   </g>
   <g id="line2d_33">
    <path d="M 57.681818 62.402616 
L 61.524793 59.33562 
L 65.367769 65.507648 
L 69.210744 62.400595 
L 73.053719 109.25823 
L 76.896694 100.378074 
L 80.739669 121.631428 
L 84.582645 109.244151 
L 88.42562 205.786777 
L 92.268595 187.309301 
L 96.11157 231.437563 
L 99.954545 205.786088 
L 103.797521 272.176191 
L 107.640496 261.872492 
L 111.483471 285.576721 
L 115.326446 272.150084 
L 119.169421 299.320232 
L 123.012397 297.072118 
L 126.855372 302.578188 
L 130.698347 299.272399 
L 134.541322 306.478606 
L 138.384298 306.281271 
L 142.227273 306.925825 
L 146.070248 306.458391 
L 149.913223 307.71883 
L 153.756198 307.718683 
L 157.599174 307.727782 
L 161.442149 307.712106 
L 165.285124 307.78671 
L 169.128099 307.786199 
L 172.971074 307.78521 
L 176.81405 307.785083 
L 180.657025 307.795938 
L 184.5 307.794527 
L 188.342975 307.794576 
L 192.18595 307.795922 
L 196.028926 307.780492 
L 199.871901 307.793049 
L 203.714876 307.79573 
L 207.557851 307.793594 
L 211.400826 307.795383 
L 215.243802 307.795015 
L 219.086777 307.794363 
L 222.929752 307.794423 
L 226.772727 307.794601 
L 230.615702 307.795204 
L 234.458678 307.795503 
L 238.301653 307.79261 
L 242.144628 307.795463 
L 245.987603 307.796545 
L 249.830579 307.796064 
L 253.673554 307.793755 
L 257.516529 307.794658 
L 261.359504 307.796539 
L 265.202479 307.794819 
L 269.045455 307.795483 
" clip-path="url(#pb97ee13178)" style="fill: none; stroke: #9467bd; stroke-opacity: 0.8; stroke-width: 1.5; stroke-linecap: square"/>
   </g>
   <g id="line2d_34">
    <path d="M 57.681818 55.801795 
L 61.524793 55.8 
L 65.367769 55.803201 
L 69.210744 55.800047 
L 73.053719 96.245961 
L 76.896694 89.972956 
L 80.739669 103.699063 
L 84.582645 96.250813 
L 88.42562 167.375702 
L 92.268595 151.165418 
L 96.11157 190.655887 
L 99.954545 167.372335 
L 103.797521 252.94617 
L 107.640496 239.966234 
L 111.483471 271.299623 
L 115.326446 252.937449 
L 119.169421 293.67748 
L 123.012397 289.789996 
L 126.855372 299.399663 
L 130.698347 293.680244 
L 134.541322 305.316629 
L 138.384298 304.856653 
L 142.227273 306.269625 
L 146.070248 305.304361 
L 149.913223 307.650202 
L 153.756198 307.643941 
L 157.599174 307.708413 
L 161.442149 307.652093 
L 165.285124 307.740932 
L 169.128099 307.741761 
L 172.971074 307.740283 
L 176.81405 307.735856 
L 180.657025 307.781219 
L 184.5 307.781522 
L 188.342975 307.780941 
L 192.18595 307.7799 
L 196.028926 307.790849 
L 199.871901 307.791289 
L 203.714876 307.792277 
L 207.557851 307.788862 
L 211.400826 307.79437 
L 215.243802 307.79845 
L 219.086777 307.797859 
L 222.929752 307.795864 
L 226.772727 307.789273 
L 230.615702 307.79009 
L 234.458678 307.790214 
L 238.301653 307.792992 
L 242.144628 307.797328 
L 245.987603 307.796774 
L 249.830579 307.795887 
L 253.673554 307.79416 
L 257.516529 307.795165 
L 261.359504 307.795466 
L 265.202479 307.794955 
L 269.045455 307.797256 
L 272.88843 307.795658 
L 276.731405 307.795573 
L 280.57438 307.793082 
L 284.417355 307.794415 
L 288.260331 307.791054 
L 292.103306 307.795937 
L 295.946281 307.795233 
L 299.789256 307.793764 
L 303.632231 307.793982 
" clip-path="url(#pb97ee13178)" style="fill: none; stroke: #8c564b; stroke-opacity: 0.8; stroke-width: 1.5; stroke-linecap: square"/>
   </g>
   <g id="line2d_35">
    <path d="M 57.681818 270.228917 
L 61.524793 268.180275 
L 65.367769 274.701771 
L 69.210744 270.221901 
L 73.053719 302.221566 
L 76.896694 301.912755 
L 80.739669 303.367457 
L 84.582645 302.206544 
L 88.42562 306.303604 
L 92.268595 306.29979 
L 96.11157 306.398308 
L 99.954545 306.229711 
L 103.797521 307.429313 
L 107.640496 307.42661 
L 111.483471 307.427305 
L 115.326446 307.391858 
L 119.169421 143.634126 
L 123.012397 307.699969 
L 126.855372 307.695939 
L 130.698347 307.719884 
L 134.541322 307.694007 
L 138.384298 307.779805 
L 142.227273 307.777532 
L 146.070248 307.779106 
L 149.913223 307.773005 
L 153.756198 307.748579 
L 157.599174 307.772355 
L 161.442149 307.790202 
L 165.285124 307.790379 
L 169.128099 307.794279 
L 172.971074 307.790702 
L 176.81405 307.789136 
L 180.657025 307.788374 
L 184.5 307.789607 
L 188.342975 307.787824 
L 192.18595 307.788353 
L 196.028926 307.789234 
L 199.871901 307.787766 
L 203.714876 307.789643 
L 207.557851 307.788353 
L 211.400826 307.789061 
L 215.243802 307.788537 
L 219.086777 307.790412 
L 222.929752 307.789668 
L 226.772727 307.793806 
L 230.615702 307.790797 
L 234.458678 307.789408 
L 238.301653 307.78679 
L 242.144628 307.789688 
" clip-path="url(#pb97ee13178)" style="fill: none; stroke: #e377c2; stroke-opacity: 0.8; stroke-width: 1.5; stroke-linecap: square"/>
   </g>
   <g id="line2d_36">
    <path d="M 57.681818 67.722223 
L 61.524793 64.977402 
L 65.367769 75.687896 
L 69.210744 67.728186 
L 73.053719 146.216296 
L 76.896694 126.872356 
L 80.739669 176.582511 
L 84.582645 146.198124 
L 88.42562 245.180289 
L 92.268595 222.397526 
L 96.11157 271.658589 
L 99.954545 245.216131 
L 103.797521 289.248383 
L 107.640496 279.821389 
L 111.483471 298.441018 
L 115.326446 289.237087 
L 119.169421 303.805694 
L 123.012397 302.143324 
L 126.855372 305.682705 
L 130.698347 303.796668 
L 134.541322 307.337502 
L 138.384298 307.229891 
L 142.227273 307.526867 
L 146.070248 307.333731 
L 149.913223 307.780579 
L 153.756198 307.778798 
L 157.599174 307.78179 
L 161.442149 307.780047 
L 165.285124 307.774506 
L 169.128099 307.781042 
L 172.971074 307.781413 
L 176.81405 307.781639 
L 180.657025 307.781389 
L 184.5 307.776371 
L 188.342975 307.773917 
L 192.18595 307.780359 
L 196.028926 307.778765 
L 199.871901 307.778709 
L 203.714876 307.782034 
L 207.557851 307.780756 
L 211.400826 307.779054 
L 215.243802 307.779503 
L 219.086777 307.779481 
L 222.929752 307.779097 
L 226.772727 307.776702 
L 230.615702 307.779839 
L 234.458678 307.781549 
L 238.301653 307.780801 
L 242.144628 307.779827 
L 245.987603 307.780482 
L 249.830579 307.781224 
L 253.673554 307.780745 
L 257.516529 307.779374 
" clip-path="url(#pb97ee13178)" style="fill: none; stroke: #7f7f7f; stroke-opacity: 0.8; stroke-width: 1.5; stroke-linecap: square"/>
   </g>
   <g id="line2d_37">
    <path d="M 57.681818 55.987817 
L 61.524793 55.983744 
L 65.367769 55.979993 
L 69.210744 55.984341 
L 73.053719 119.38068 
L 76.896694 120.53244 
L 80.739669 119.966183 
L 84.582645 119.378688 
L 88.42562 223.691723 
L 92.268595 227.356962 
L 96.11157 228.440103 
L 99.954545 223.69154 
L 103.797521 283.143062 
L 107.640496 285.35079 
L 111.483471 286.410474 
L 115.326446 283.127923 
L 119.169421 303.198305 
L 123.012397 303.714756 
L 126.855372 304.018321 
L 130.698347 303.196651 
L 134.541322 307.362334 
L 138.384298 307.413974 
L 142.227273 307.449376 
L 146.070248 307.357111 
L 149.913223 307.796648 
L 153.756198 307.797562 
L 157.599174 307.794621 
L 161.442149 307.797544 
L 165.285124 307.196636 
L 169.128099 307.795867 
L 172.971074 307.795457 
L 176.81405 307.796267 
L 180.657025 307.797282 
L 184.5 307.797618 
L 188.342975 307.79559 
L 192.18595 307.796253 
L 196.028926 307.795088 
L 199.871901 307.798742 
L 203.714876 307.796418 
L 207.557851 307.798772 
L 211.400826 307.797274 
L 215.243802 307.797699 
L 219.086777 307.797724 
L 222.929752 307.8 
L 226.772727 307.797229 
L 230.615702 307.794792 
L 234.458678 307.799619 
L 238.301653 307.795678 
L 242.144628 307.795717 
L 245.987603 307.797333 
L 249.830579 307.798629 
L 253.673554 307.796942 
L 257.516529 307.793358 
L 261.359504 307.79588 
L 265.202479 307.797573 
L 269.045455 307.798319 
L 272.88843 307.798715 
L 276.731405 307.796901 
" clip-path="url(#pb97ee13178)" style="fill: none; stroke: #bcbd22; stroke-opacity: 0.8; stroke-width: 1.5; stroke-linecap: square"/>
   </g>
   <g id="line2d_38">
    <path d="M 57.681818 62.992552 
L 61.524793 60.127472 
L 65.367769 68.796314 
L 69.210744 62.985058 
L 73.053719 121.477743 
L 76.896694 107.448446 
L 80.739669 144.932406 
L 84.582645 121.471794 
L 88.42562 226.545587 
L 92.268595 202.039362 
L 96.11157 256.916633 
L 99.954545 226.528275 
L 103.797521 281.505848 
L 107.640496 268.807906 
L 111.483471 294.314793 
L 115.326446 281.496888 
L 119.169421 301.726786 
L 123.012397 298.984764 
L 126.855372 304.674465 
L 130.698347 301.722974 
L 134.541322 306.937099 
L 138.384298 306.690417 
L 142.227273 307.329799 
L 146.070248 306.939148 
L 149.913223 307.774098 
L 153.756198 307.770718 
L 157.599174 307.776755 
L 161.442149 307.773076 
L 165.285124 307.787469 
L 169.128099 307.788045 
L 172.971074 307.790641 
L 176.81405 307.78805 
L 180.657025 307.784394 
L 184.5 307.787492 
L 188.342975 307.788275 
L 192.18595 307.787214 
L 196.028926 307.783663 
L 199.871901 307.795656 
L 203.714876 307.796404 
L 207.557851 307.797798 
L 211.400826 307.798661 
L 215.243802 307.793128 
L 219.086777 307.797666 
L 222.929752 307.796512 
L 226.772727 307.794956 
L 230.615702 307.794629 
L 234.458678 307.79763 
L 238.301653 307.796643 
L 242.144628 307.79619 
L 245.987603 307.798489 
L 249.830579 307.797598 
L 253.673554 307.794949 
L 257.516529 307.797959 
L 261.359504 307.797364 
L 265.202479 307.795166 
L 269.045455 307.797152 
L 272.88843 307.797054 
L 276.731405 307.797588 
L 280.57438 307.796607 
L 284.417355 307.799823 
L 288.260331 307.794968 
L 292.103306 307.795657 
L 295.946281 307.797205 
L 299.789256 307.79713 
L 303.632231 307.797645 
L 307.475207 307.796106 
L 311.318182 307.798768 
" clip-path="url(#pb97ee13178)" style="fill: none; stroke: #17becf; stroke-opacity: 0.8; stroke-width: 1.5; stroke-linecap: square"/>
   </g>
   <g id="line2d_39">
    <defs>
     <path id="mb8de124975" d="M 0 3 
C 0.795609 3 1.55874 2.683901 2.12132 2.12132 
C 2.683901 1.55874 3 0.795609 3 0 
C 3 -0.795609 2.683901 -1.55874 2.12132 -2.12132 
C 1.55874 -2.683901 0.795609 -3 0 -3 
C -0.795609 -3 -1.55874 -2.683901 -2.12132 -2.12132 
C -2.683901 -1.55874 -3 -0.795609 -3 0 
C -3 0.795609 -2.683901 1.55874 -2.12132 2.12132 
C -1.55874 2.683901 -0.795609 3 0 3 
z
" style="stroke: #000000; stroke-opacity: 0.8"/>
    </defs>
    <g clip-path="url(#pb97ee13178)">
     <use xlink:href="#mb8de124975" x="269.045455" y="307.795116" style="fill-opacity: 0.8; stroke: #000000; stroke-opacity: 0.8"/>
    </g>
   </g>
   <g id="line2d_40">
    <g clip-path="url(#pb97ee13178)">
     <use xlink:href="#mb8de124975" x="307.475207" y="307.796454" style="fill-opacity: 0.8; stroke: #000000; stroke-opacity: 0.8"/>
    </g>
   </g>
   <g id="line2d_41">
    <g clip-path="url(#pb97ee13178)">
     <use xlink:href="#mb8de124975" x="211.400826" y="307.783155" style="fill-opacity: 0.8; stroke: #000000; stroke-opacity: 0.8"/>
    </g>
   </g>
   <g id="line2d_42">
    <g clip-path="url(#pb97ee13178)">
     <use xlink:href="#mb8de124975" x="226.772727" y="55.996812" style="fill-opacity: 0.8; stroke: #000000; stroke-opacity: 0.8"/>
    </g>
   </g>
   <g id="line2d_43">
    <g clip-path="url(#pb97ee13178)">
     <use xlink:href="#mb8de124975" x="269.045455" y="307.795483" style="fill-opacity: 0.8; stroke: #000000; stroke-opacity: 0.8"/>
    </g>
   </g>
   <g id="line2d_44">
    <g clip-path="url(#pb97ee13178)">
     <use xlink:href="#mb8de124975" x="303.632231" y="307.793982" style="fill-opacity: 0.8; stroke: #000000; stroke-opacity: 0.8"/>
    </g>
   </g>
   <g id="line2d_45">
    <g clip-path="url(#pb97ee13178)">
     <use xlink:href="#mb8de124975" x="242.144628" y="307.789688" style="fill-opacity: 0.8; stroke: #000000; stroke-opacity: 0.8"/>
    </g>
   </g>
   <g id="line2d_46">
    <g clip-path="url(#pb97ee13178)">
     <use xlink:href="#mb8de124975" x="257.516529" y="307.779374" style="fill-opacity: 0.8; stroke: #000000; stroke-opacity: 0.8"/>
    </g>
   </g>
   <g id="line2d_47">
    <g clip-path="url(#pb97ee13178)">
     <use xlink:href="#mb8de124975" x="276.731405" y="307.796901" style="fill-opacity: 0.8; stroke: #000000; stroke-opacity: 0.8"/>
    </g>
   </g>
   <g id="line2d_48">
    <g clip-path="url(#pb97ee13178)">
     <use xlink:href="#mb8de124975" x="311.318182" y="307.798768" style="fill-opacity: 0.8; stroke: #000000; stroke-opacity: 0.8"/>
    </g>
   </g>
   <g id="patch_3">
    <path d="M 45 320.4 
L 45 43.2 
" style="fill: none; stroke: #000000; stroke-width: 0.8; stroke-linejoin: miter; stroke-linecap: square"/>
   </g>
   <g id="patch_4">
    <path d="M 324 320.4 
L 324 43.2 
" style="fill: none; stroke: #000000; stroke-width: 0.8; stroke-linejoin: miter; stroke-linecap: square"/>
   </g>
   <g id="patch_5">
    <path d="M 45 320.4 
L 324 320.4 
" style="fill: none; stroke: #000000; stroke-width: 0.8; stroke-linejoin: miter; stroke-linecap: square"/>
   </g>
   <g id="patch_6">
    <path d="M 45 43.2 
L 324 43.2 
" style="fill: none; stroke: #000000; stroke-width: 0.8; stroke-linejoin: miter; stroke-linecap: square"/>
   </g>
  </g>
 </g>
 <defs>
  <clipPath id="pb97ee13178">
   <rect x="45" y="43.2" width="279" height="277.2"/>
  </clipPath>
 </defs>
</svg>
