<?xml version="1.0" encoding="utf-8" standalone="no"?>
<!DOCTYPE svg PUBLIC "-//W3C//DTD SVG 1.1//EN"
  "http://www.w3.org/Graphics/SVG/1.1/DTD/svg11.dtd">
<svg xmlns:xlink="http://www.w3.org/1999/xlink" width="1251.185469pt" height="370.537812pt" viewBox="0 0 1251.185469 370.537812" xmlns="http://www.w3.org/2000/svg" version="1.1">
 <metadata>
  <rdf:RDF xmlns:dc="http://purl.org/dc/elements/1.1/" xmlns:cc="http://creativecommons.org/ns#" xmlns:rdf="http://www.w3.org/1999/02/22-rdf-syntax-ns#">
   <cc:Work>
    <dc:type rdf:resource="http://purl.org/dc/dcmitype/StillImage"/>
    <dc:date>2026-01-30T14:56:55.055631</dc:date>
    <dc:format>image/svg+xml</dc:format>
    <dc:creator>
     <cc:Agent>
      <dc:title>Matplotlib v3.10.7, https://matplotlib.org/</dc:title>
     </cc:Agent>
    </dc:creator>
   </cc:Work>
  </rdf:RDF>
 </metadata>
 <defs>
  <style type="text/css">*{stroke-linejoin: round; stroke-linecap: butt}</style>
 </defs>
 <g id="figure_1">
  <g id="patch_1">
   <path d="M 0 370.537812 
L 1251.185469 370.537812 
L 1251.185469 0 
L 0 0 
z
" style="fill: #ffffff"/>
  </g>
  <g id="axes_1">
   <g id="patch_2">
    <path d="M 72.185469 320.4 
L 397.685469 320.4 
L 397.685469 43.2 
L 72.185469 43.2 
z
" style="fill: #ffffff"/>
   </g>
   <g id="matplotlib.axis_1">
    <g id="xtick_1">
     <g id="line2d_1">
      <defs>
       <path id="m4fc68f8d7d" d="M 0 0 
L 0 3.5 
" style="stroke: #000000; stroke-width: 0.8"/>
      </defs>
      <g>
       <use xlink:href="#m4fc68f8d7d" x="86.980923" y="320.4" style="stroke: #000000; stroke-width: 0.8"/>
      </g>
     </g>
     <g id="text_1">
      <!-- 0 -->
      <g transform="translate(82.209048 338.797656) scale(0.15 -0.15)">
       <defs>
        <path id="DejaVuSans-30" d="M 2034 4250 
Q 1547 4250 1301 3770 
Q 1056 3291 1056 2328 
Q 1056 1369 1301 889 
Q 1547 409 2034 409 
Q 2525 409 2770 889 
Q 3016 1369 3016 2328 
Q 3016 3291 2770 3770 
Q 2525 4250 2034 4250 
z
M 2034 4750 
Q 2819 4750 3233 4129 
Q 3647 3509 3647 2328 
Q 3647 1150 3233 529 
Q 2819 -91 2034 -91 
Q 1250 -91 836 529 
Q 422 1150 422 2328 
Q 422 3509 836 4129 
Q 1250 4750 2034 4750 
z
" transform="scale(0.015625)"/>
       </defs>
       <use xlink:href="#DejaVuSans-30"/>
      </g>
     </g>
    </g>
    <g id="xtick_2">
     <g id="line2d_2">
      <g>
       <use xlink:href="#m4fc68f8d7d" x="142.812827" y="320.4" style="stroke: #000000; stroke-width: 0.8"/>
      </g>
     </g>
     <g id="text_2">
      <!-- 10 -->
      <g transform="translate(133.269077 338.797656) scale(0.15 -0.15)">
       <defs>
        <path id="DejaVuSans-31" d="M 794 531 
L 1825 531 
L 1825 4091 
L 703 3866 
L 703 4441 
L 1819 4666 
L 2450 4666 
L 2450 531 
L 3481 531 
L 3481 0 
L 794 0 
L 794 531 
z
" transform="scale(0.015625)"/>
       </defs>
       <use xlink:href="#DejaVuSans-31"/>
       <use xlink:href="#DejaVuSans-30" transform="translate(63.623047 0)"/>
      </g>
     </g>
    </g>
    <g id="xtick_3">
     <g id="line2d_3">
      <g>
       <use xlink:href="#m4fc68f8d7d" x="198.644731" y="320.4" style="stroke: #000000; stroke-width: 0.8"/>
      </g>
     </g>
     <g id="text_3">
      <!-- 20 -->
      <g transform="translate(189.100981 338.797656) scale(0.15 -0.15)">
       <defs>
        <path id="DejaVuSans-32" d="M 1228 531 
L 3431 531 
L 3431 0 
L 469 0 
L 469 531 
Q 828 903 1448 1529 
Q 2069 2156 2228 2338 
Q 2531 2678 2651 2914 
Q 2772 3150 2772 3378 
Q 2772 3750 2511 3984 
Q 2250 4219 1831 4219 
Q 1534 4219 1204 4116 
Q 875 4013 500 3803 
L 500 4441 
Q 881 4594 1212 4672 
Q 1544 4750 1819 4750 
Q 2544 4750 2975 4387 
Q 3406 4025 3406 3419 
Q 3406 3131 3298 2873 
Q 3191 2616 2906 2266 
Q 2828 2175 2409 1742 
Q 1991 1309 1228 531 
z
" transform="scale(0.015625)"/>
       </defs>
       <use xlink:href="#DejaVuSans-32"/>
       <use xlink:href="#DejaVuSans-30" transform="translate(63.623047 0)"/>
      </g>
     </g>
    </g>
    <g id="xtick_4">
     <g id="line2d_4">
      <g>
       <use xlink:href="#m4fc68f8d7d" x="254.476635" y="320.4" style="stroke: #000000; stroke-width: 0.8"/>
      </g>
     </g>
     <g id="text_4">
      <!-- 30 -->
      <g transform="translate(244.932885 338.797656) scale(0.15 -0.15)">
       <defs>
        <path id="DejaVuSans-33" d="M 2597 2516 
Q 3050 2419 3304 2112 
Q 3559 1806 3559 1356 
Q 3559 666 3084 287 
Q 2609 -91 1734 -91 
Q 1441 -91 1130 -33 
Q 819 25 488 141 
L 488 750 
Q 750 597 1062 519 
Q 1375 441 1716 441 
Q 2309 441 2620 675 
Q 2931 909 2931 1356 
Q 2931 1769 2642 2001 
Q 2353 2234 1838 2234 
L 1294 2234 
L 1294 2753 
L 1863 2753 
Q 2328 2753 2575 2939 
Q 2822 3125 2822 3475 
Q 2822 3834 2567 4026 
Q 2313 4219 1838 4219 
Q 1578 4219 1281 4162 
Q 984 4106 628 3988 
L 628 4550 
Q 988 4650 1302 4700 
Q 1616 4750 1894 4750 
Q 2613 4750 3031 4423 
Q 3450 4097 3450 3541 
Q 3450 3153 3228 2886 
Q 3006 2619 2597 2516 
z
" transform="scale(0.015625)"/>
       </defs>
       <use xlink:href="#DejaVuSans-33"/>
       <use xlink:href="#DejaVuSans-30" transform="translate(63.623047 0)"/>
      </g>
     </g>
    </g>
    <g id="xtick_5">
     <g id="line2d_5">
      <g>
       <use xlink:href="#m4fc68f8d7d" x="310.308539" y="320.4" style="stroke: #000000; stroke-width: 0.8"/>
      </g>
     </g>
     <g id="text_5">
      <!-- 40 -->
      <g transform="translate(300.764789 338.797656) scale(0.15 -0.15)">
       <defs>
        <path id="DejaVuSans-34" d="M 2419 4116 
L 825 1625 
L 2419 1625 
L 2419 4116 
z
M 2253 4666 
L 3047 4666 
L 3047 1625 
L 3713 1625 
L 3713 1100 
L 3047 1100 
L 3047 0 
L 2419 0 
L 2419 1100 
L 313 1100 
L 313 1709 
L 2253 4666 
z
" transform="scale(0.015625)"/>
       </defs>
       <use xlink:href="#DejaVuSans-34"/>
       <use xlink:href="#DejaVuSans-30" transform="translate(63.623047 0)"/>
      </g>
     </g>
    </g>
    <g id="xtick_6">
     <g id="line2d_6">
      <g>
       <use xlink:href="#m4fc68f8d7d" x="366.140443" y="320.4" style="stroke: #000000; stroke-width: 0.8"/>
      </g>
     </g>
     <g id="text_6">
      <!-- 50 -->
      <g transform="translate(356.596693 338.797656) scale(0.15 -0.15)">
       <defs>
        <path id="DejaVuSans-35" d="M 691 4666 
L 3169 4666 
L 3169 4134 
L 1269 4134 
L 1269 2991 
Q 1406 3038 1543 3061 
Q 1681 3084 1819 3084 
Q 2600 3084 3056 2656 
Q 3513 2228 3513 1497 
Q 3513 744 3044 326 
Q 2575 -91 1722 -91 
Q 1428 -91 1123 -41 
Q 819 9 494 109 
L 494 744 
Q 775 591 1075 516 
Q 1375 441 1709 441 
Q 2250 441 2565 725 
Q 2881 1009 2881 1497 
Q 2881 1984 2565 2268 
Q 2250 2553 1709 2553 
Q 1456 2553 1204 2497 
Q 953 2441 691 2322 
L 691 4666 
z
" transform="scale(0.015625)"/>
       </defs>
       <use xlink:href="#DejaVuSans-35"/>
       <use xlink:href="#DejaVuSans-30" transform="translate(63.623047 0)"/>
      </g>
     </g>
    </g>
    <g id="text_7">
     <!-- time [week] -->
     <g transform="translate(174.196719 359.594375) scale(0.18 -0.18)">
      <defs>
       <path id="DejaVuSans-Bold-74" d="M 1759 4494 
L 1759 3500 
L 2913 3500 
L 2913 2700 
L 1759 2700 
L 1759 1216 
Q 1759 972 1856 886 
Q 1953 800 2241 800 
L 2816 800 
L 2816 0 
L 1856 0 
Q 1194 0 917 276 
Q 641 553 641 1216 
L 641 2700 
L 84 2700 
L 84 3500 
L 641 3500 
L 641 4494 
L 1759 4494 
z
" transform="scale(0.015625)"/>
       <path id="DejaVuSans-Bold-69" d="M 538 3500 
L 1656 3500 
L 1656 0 
L 538 0 
L 538 3500 
z
M 538 4863 
L 1656 4863 
L 1656 3950 
L 538 3950 
L 538 4863 
z
" transform="scale(0.015625)"/>
       <path id="DejaVuSans-Bold-6d" d="M 3781 2919 
Q 3994 3244 4286 3414 
Q 4578 3584 4928 3584 
Q 5531 3584 5847 3212 
Q 6163 2841 6163 2131 
L 6163 0 
L 5038 0 
L 5038 1825 
Q 5041 1866 5042 1909 
Q 5044 1953 5044 2034 
Q 5044 2406 4934 2573 
Q 4825 2741 4581 2741 
Q 4263 2741 4089 2478 
Q 3916 2216 3909 1719 
L 3909 0 
L 2784 0 
L 2784 1825 
Q 2784 2406 2684 2573 
Q 2584 2741 2328 2741 
Q 2006 2741 1831 2477 
Q 1656 2213 1656 1722 
L 1656 0 
L 531 0 
L 531 3500 
L 1656 3500 
L 1656 2988 
Q 1863 3284 2130 3434 
Q 2397 3584 2719 3584 
Q 3081 3584 3359 3409 
Q 3638 3234 3781 2919 
z
" transform="scale(0.015625)"/>
       <path id="DejaVuSans-Bold-65" d="M 4031 1759 
L 4031 1441 
L 1416 1441 
Q 1456 1047 1700 850 
Q 1944 653 2381 653 
Q 2734 653 3104 758 
Q 3475 863 3866 1075 
L 3866 213 
Q 3469 63 3072 -14 
Q 2675 -91 2278 -91 
Q 1328 -91 801 392 
Q 275 875 275 1747 
Q 275 2603 792 3093 
Q 1309 3584 2216 3584 
Q 3041 3584 3536 3087 
Q 4031 2591 4031 1759 
z
M 2881 2131 
Q 2881 2450 2695 2645 
Q 2509 2841 2209 2841 
Q 1884 2841 1681 2658 
Q 1478 2475 1428 2131 
L 2881 2131 
z
" transform="scale(0.015625)"/>
       <path id="DejaVuSans-Bold-20" transform="scale(0.015625)"/>
       <path id="DejaVuSans-Bold-5b" d="M 550 4863 
L 2491 4863 
L 2491 4159 
L 1613 4159 
L 1613 -141 
L 2491 -141 
L 2491 -844 
L 550 -844 
L 550 4863 
z
" transform="scale(0.015625)"/>
       <path id="DejaVuSans-Bold-77" d="M 225 3500 
L 1313 3500 
L 1900 1088 
L 2491 3500 
L 3425 3500 
L 4013 1113 
L 4603 3500 
L 5691 3500 
L 4769 0 
L 3547 0 
L 2956 2406 
L 2369 0 
L 1147 0 
L 225 3500 
z
" transform="scale(0.015625)"/>
       <path id="DejaVuSans-Bold-6b" d="M 538 4863 
L 1656 4863 
L 1656 2216 
L 2944 3500 
L 4244 3500 
L 2534 1894 
L 4378 0 
L 3022 0 
L 1656 1459 
L 1656 0 
L 538 0 
L 538 4863 
z
" transform="scale(0.015625)"/>
       <path id="DejaVuSans-Bold-5d" d="M 2375 -844 
L 434 -844 
L 434 -141 
L 1313 -141 
L 1313 4159 
L 434 4159 
L 434 4863 
L 2375 4863 
L 2375 -844 
z
" transform="scale(0.015625)"/>
      </defs>
      <use xlink:href="#DejaVuSans-Bold-74"/>
      <use xlink:href="#DejaVuSans-Bold-69" transform="translate(47.802734 0)"/>
      <use xlink:href="#DejaVuSans-Bold-6d" transform="translate(82.080078 0)"/>
      <use xlink:href="#DejaVuSans-Bold-65" transform="translate(186.279297 0)"/>
      <use xlink:href="#DejaVuSans-Bold-20" transform="translate(254.101562 0)"/>
      <use xlink:href="#DejaVuSans-Bold-5b" transform="translate(288.916016 0)"/>
      <use xlink:href="#DejaVuSans-Bold-77" transform="translate(334.619141 0)"/>
      <use xlink:href="#DejaVuSans-Bold-65" transform="translate(427.001953 0)"/>
      <use xlink:href="#DejaVuSans-Bold-65" transform="translate(494.824219 0)"/>
      <use xlink:href="#DejaVuSans-Bold-6b" transform="translate(562.646484 0)"/>
      <use xlink:href="#DejaVuSans-Bold-5d" transform="translate(629.150391 0)"/>
     </g>
    </g>
   </g>
   <g id="matplotlib.axis_2">
    <g id="ytick_1">
     <g id="line2d_7">
      <defs>
       <path id="m51a4a6c141" d="M 0 0 
L -3.5 0 
" style="stroke: #000000; stroke-width: 0.8"/>
      </defs>
      <g>
       <use xlink:href="#m51a4a6c141" x="72.185469" y="289.806618" style="stroke: #000000; stroke-width: 0.8"/>
      </g>
     </g>
     <g id="text_8">
      <!-- −3.0 -->
      <g transform="translate(28.76125 295.505446) scale(0.15 -0.15)">
       <defs>
        <path id="DejaVuSans-2212" d="M 678 2272 
L 4684 2272 
L 4684 1741 
L 678 1741 
L 678 2272 
z
" transform="scale(0.015625)"/>
        <path id="DejaVuSans-2e" d="M 684 794 
L 1344 794 
L 1344 0 
L 684 0 
L 684 794 
z
" transform="scale(0.015625)"/>
       </defs>
       <use xlink:href="#DejaVuSans-2212"/>
       <use xlink:href="#DejaVuSans-33" transform="translate(83.789062 0)"/>
       <use xlink:href="#DejaVuSans-2e" transform="translate(147.412109 0)"/>
       <use xlink:href="#DejaVuSans-30" transform="translate(179.199219 0)"/>
      </g>
     </g>
    </g>
    <g id="ytick_2">
     <g id="line2d_8">
      <g>
       <use xlink:href="#m51a4a6c141" x="72.185469" y="256.599039" style="stroke: #000000; stroke-width: 0.8"/>
      </g>
     </g>
     <g id="text_9">
      <!-- −2.5 -->
      <g transform="translate(28.76125 262.297867) scale(0.15 -0.15)">
       <use xlink:href="#DejaVuSans-2212"/>
       <use xlink:href="#DejaVuSans-32" transform="translate(83.789062 0)"/>
       <use xlink:href="#DejaVuSans-2e" transform="translate(147.412109 0)"/>
       <use xlink:href="#DejaVuSans-35" transform="translate(179.199219 0)"/>
      </g>
     </g>
    </g>
    <g id="ytick_3">
     <g id="line2d_9">
      <g>
       <use xlink:href="#m51a4a6c141" x="72.185469" y="223.391459" style="stroke: #000000; stroke-width: 0.8"/>
      </g>
     </g>
     <g id="text_10">
      <!-- −2.0 -->
      <g transform="translate(28.76125 229.090287) scale(0.15 -0.15)">
       <use xlink:href="#DejaVuSans-2212"/>
       <use xlink:href="#DejaVuSans-32" transform="translate(83.789062 0)"/>
       <use xlink:href="#DejaVuSans-2e" transform="translate(147.412109 0)"/>
       <use xlink:href="#DejaVuSans-30" transform="translate(179.199219 0)"/>
      </g>
     </g>
    </g>
    <g id="ytick_4">
     <g id="line2d_10">
      <g>
       <use xlink:href="#m51a4a6c141" x="72.185469" y="190.183879" style="stroke: #000000; stroke-width: 0.8"/>
      </g>
     </g>
     <g id="text_11">
      <!-- −1.5 -->
      <g transform="translate(28.76125 195.882707) scale(0.15 -0.15)">
       <use xlink:href="#DejaVuSans-2212"/>
       <use xlink:href="#DejaVuSans-31" transform="translate(83.789062 0)"/>
       <use xlink:href="#DejaVuSans-2e" transform="translate(147.412109 0)"/>
       <use xlink:href="#DejaVuSans-35" transform="translate(179.199219 0)"/>
      </g>
     </g>
    </g>
    <g id="ytick_5">
     <g id="line2d_11">
      <g>
       <use xlink:href="#m51a4a6c141" x="72.185469" y="156.976299" style="stroke: #000000; stroke-width: 0.8"/>
      </g>
     </g>
     <g id="text_12">
      <!-- −1.0 -->
      <g transform="translate(28.76125 162.675127) scale(0.15 -0.15)">
       <use xlink:href="#DejaVuSans-2212"/>
       <use xlink:href="#DejaVuSans-31" transform="translate(83.789062 0)"/>
       <use xlink:href="#DejaVuSans-2e" transform="translate(147.412109 0)"/>
       <use xlink:href="#DejaVuSans-30" transform="translate(179.199219 0)"/>
      </g>
     </g>
    </g>
    <g id="ytick_6">
     <g id="line2d_12">
      <g>
       <use xlink:href="#m51a4a6c141" x="72.185469" y="123.768719" style="stroke: #000000; stroke-width: 0.8"/>
      </g>
     </g>
     <g id="text_13">
      <!-- −0.5 -->
      <g transform="translate(28.76125 129.467548) scale(0.15 -0.15)">
       <use xlink:href="#DejaVuSans-2212"/>
       <use xlink:href="#DejaVuSans-30" transform="translate(83.789062 0)"/>
       <use xlink:href="#DejaVuSans-2e" transform="translate(147.412109 0)"/>
       <use xlink:href="#DejaVuSans-35" transform="translate(179.199219 0)"/>
      </g>
     </g>
    </g>
    <g id="ytick_7">
     <g id="line2d_13">
      <g>
       <use xlink:href="#m51a4a6c141" x="72.185469" y="90.56114" style="stroke: #000000; stroke-width: 0.8"/>
      </g>
     </g>
     <g id="text_14">
      <!-- 0.0 -->
      <g transform="translate(41.330781 96.259968) scale(0.15 -0.15)">
       <use xlink:href="#DejaVuSans-30"/>
       <use xlink:href="#DejaVuSans-2e" transform="translate(63.623047 0)"/>
       <use xlink:href="#DejaVuSans-30" transform="translate(95.410156 0)"/>
      </g>
     </g>
    </g>
    <g id="ytick_8">
     <g id="line2d_14">
      <g>
       <use xlink:href="#m51a4a6c141" x="72.185469" y="57.35356" style="stroke: #000000; stroke-width: 0.8"/>
      </g>
     </g>
     <g id="text_15">
      <!-- 0.5 -->
      <g transform="translate(41.330781 63.052388) scale(0.15 -0.15)">
       <use xlink:href="#DejaVuSans-30"/>
       <use xlink:href="#DejaVuSans-2e" transform="translate(63.623047 0)"/>
       <use xlink:href="#DejaVuSans-35" transform="translate(95.410156 0)"/>
      </g>
     </g>
    </g>
    <g id="text_16">
     <!-- HbA1c change [percent] -->
     <g transform="translate(20.877188 304.731562) rotate(-90) scale(0.18 -0.18)">
      <defs>
       <path id="DejaVuSans-Bold-48" d="M 588 4666 
L 1791 4666 
L 1791 2888 
L 3566 2888 
L 3566 4666 
L 4769 4666 
L 4769 0 
L 3566 0 
L 3566 1978 
L 1791 1978 
L 1791 0 
L 588 0 
L 588 4666 
z
" transform="scale(0.015625)"/>
       <path id="DejaVuSans-Bold-62" d="M 2400 722 
Q 2759 722 2948 984 
Q 3138 1247 3138 1747 
Q 3138 2247 2948 2509 
Q 2759 2772 2400 2772 
Q 2041 2772 1848 2508 
Q 1656 2244 1656 1747 
Q 1656 1250 1848 986 
Q 2041 722 2400 722 
z
M 1656 2988 
Q 1888 3294 2169 3439 
Q 2450 3584 2816 3584 
Q 3463 3584 3878 3070 
Q 4294 2556 4294 1747 
Q 4294 938 3878 423 
Q 3463 -91 2816 -91 
Q 2450 -91 2169 54 
Q 1888 200 1656 506 
L 1656 0 
L 538 0 
L 538 4863 
L 1656 4863 
L 1656 2988 
z
" transform="scale(0.015625)"/>
       <path id="DejaVuSans-Bold-41" d="M 3419 850 
L 1538 850 
L 1241 0 
L 31 0 
L 1759 4666 
L 3194 4666 
L 4922 0 
L 3713 0 
L 3419 850 
z
M 1838 1716 
L 3116 1716 
L 2478 3572 
L 1838 1716 
z
" transform="scale(0.015625)"/>
       <path id="DejaVuSans-Bold-31" d="M 750 831 
L 1813 831 
L 1813 3847 
L 722 3622 
L 722 4441 
L 1806 4666 
L 2950 4666 
L 2950 831 
L 4013 831 
L 4013 0 
L 750 0 
L 750 831 
z
" transform="scale(0.015625)"/>
       <path id="DejaVuSans-Bold-63" d="M 3366 3391 
L 3366 2478 
Q 3138 2634 2908 2709 
Q 2678 2784 2431 2784 
Q 1963 2784 1702 2511 
Q 1441 2238 1441 1747 
Q 1441 1256 1702 982 
Q 1963 709 2431 709 
Q 2694 709 2930 787 
Q 3166 866 3366 1019 
L 3366 103 
Q 3103 6 2833 -42 
Q 2563 -91 2291 -91 
Q 1344 -91 809 395 
Q 275 881 275 1747 
Q 275 2613 809 3098 
Q 1344 3584 2291 3584 
Q 2566 3584 2833 3536 
Q 3100 3488 3366 3391 
z
" transform="scale(0.015625)"/>
       <path id="DejaVuSans-Bold-68" d="M 4056 2131 
L 4056 0 
L 2931 0 
L 2931 347 
L 2931 1625 
Q 2931 2084 2911 2256 
Q 2891 2428 2841 2509 
Q 2775 2619 2662 2680 
Q 2550 2741 2406 2741 
Q 2056 2741 1856 2470 
Q 1656 2200 1656 1722 
L 1656 0 
L 538 0 
L 538 4863 
L 1656 4863 
L 1656 2988 
Q 1909 3294 2193 3439 
Q 2478 3584 2822 3584 
Q 3428 3584 3742 3212 
Q 4056 2841 4056 2131 
z
" transform="scale(0.015625)"/>
       <path id="DejaVuSans-Bold-61" d="M 2106 1575 
Q 1756 1575 1579 1456 
Q 1403 1338 1403 1106 
Q 1403 894 1545 773 
Q 1688 653 1941 653 
Q 2256 653 2472 879 
Q 2688 1106 2688 1447 
L 2688 1575 
L 2106 1575 
z
M 3816 1997 
L 3816 0 
L 2688 0 
L 2688 519 
Q 2463 200 2181 54 
Q 1900 -91 1497 -91 
Q 953 -91 614 226 
Q 275 544 275 1050 
Q 275 1666 698 1953 
Q 1122 2241 2028 2241 
L 2688 2241 
L 2688 2328 
Q 2688 2594 2478 2717 
Q 2269 2841 1825 2841 
Q 1466 2841 1156 2769 
Q 847 2697 581 2553 
L 581 3406 
Q 941 3494 1303 3539 
Q 1666 3584 2028 3584 
Q 2975 3584 3395 3211 
Q 3816 2838 3816 1997 
z
" transform="scale(0.015625)"/>
       <path id="DejaVuSans-Bold-6e" d="M 4056 2131 
L 4056 0 
L 2931 0 
L 2931 347 
L 2931 1631 
Q 2931 2084 2911 2256 
Q 2891 2428 2841 2509 
Q 2775 2619 2662 2680 
Q 2550 2741 2406 2741 
Q 2056 2741 1856 2470 
Q 1656 2200 1656 1722 
L 1656 0 
L 538 0 
L 538 3500 
L 1656 3500 
L 1656 2988 
Q 1909 3294 2193 3439 
Q 2478 3584 2822 3584 
Q 3428 3584 3742 3212 
Q 4056 2841 4056 2131 
z
" transform="scale(0.015625)"/>
       <path id="DejaVuSans-Bold-67" d="M 2919 594 
Q 2688 288 2409 144 
Q 2131 0 1766 0 
Q 1125 0 706 504 
Q 288 1009 288 1791 
Q 288 2575 706 3076 
Q 1125 3578 1766 3578 
Q 2131 3578 2409 3434 
Q 2688 3291 2919 2981 
L 2919 3500 
L 4044 3500 
L 4044 353 
Q 4044 -491 3511 -936 
Q 2978 -1381 1966 -1381 
Q 1638 -1381 1331 -1331 
Q 1025 -1281 716 -1178 
L 716 -306 
Q 1009 -475 1290 -558 
Q 1572 -641 1856 -641 
Q 2406 -641 2662 -400 
Q 2919 -159 2919 353 
L 2919 594 
z
M 2181 2772 
Q 1834 2772 1640 2515 
Q 1447 2259 1447 1791 
Q 1447 1309 1634 1061 
Q 1822 813 2181 813 
Q 2531 813 2725 1069 
Q 2919 1325 2919 1791 
Q 2919 2259 2725 2515 
Q 2531 2772 2181 2772 
z
" transform="scale(0.015625)"/>
       <path id="DejaVuSans-Bold-70" d="M 1656 506 
L 1656 -1331 
L 538 -1331 
L 538 3500 
L 1656 3500 
L 1656 2988 
Q 1888 3294 2169 3439 
Q 2450 3584 2816 3584 
Q 3463 3584 3878 3070 
Q 4294 2556 4294 1747 
Q 4294 938 3878 423 
Q 3463 -91 2816 -91 
Q 2450 -91 2169 54 
Q 1888 200 1656 506 
z
M 2400 2772 
Q 2041 2772 1848 2508 
Q 1656 2244 1656 1747 
Q 1656 1250 1848 986 
Q 2041 722 2400 722 
Q 2759 722 2948 984 
Q 3138 1247 3138 1747 
Q 3138 2247 2948 2509 
Q 2759 2772 2400 2772 
z
" transform="scale(0.015625)"/>
       <path id="DejaVuSans-Bold-72" d="M 3138 2547 
Q 2991 2616 2845 2648 
Q 2700 2681 2553 2681 
Q 2122 2681 1889 2404 
Q 1656 2128 1656 1613 
L 1656 0 
L 538 0 
L 538 3500 
L 1656 3500 
L 1656 2925 
Q 1872 3269 2151 3426 
Q 2431 3584 2822 3584 
Q 2878 3584 2943 3579 
Q 3009 3575 3134 3559 
L 3138 2547 
z
" transform="scale(0.015625)"/>
      </defs>
      <use xlink:href="#DejaVuSans-Bold-48"/>
      <use xlink:href="#DejaVuSans-Bold-62" transform="translate(83.691406 0)"/>
      <use xlink:href="#DejaVuSans-Bold-41" transform="translate(155.273438 0)"/>
      <use xlink:href="#DejaVuSans-Bold-31" transform="translate(232.666016 0)"/>
      <use xlink:href="#DejaVuSans-Bold-63" transform="translate(302.246094 0)"/>
      <use xlink:href="#DejaVuSans-Bold-20" transform="translate(361.523438 0)"/>
      <use xlink:href="#DejaVuSans-Bold-63" transform="translate(396.337891 0)"/>
      <use xlink:href="#DejaVuSans-Bold-68" transform="translate(455.615234 0)"/>
      <use xlink:href="#DejaVuSans-Bold-61" transform="translate(526.806641 0)"/>
      <use xlink:href="#DejaVuSans-Bold-6e" transform="translate(594.287109 0)"/>
      <use xlink:href="#DejaVuSans-Bold-67" transform="translate(665.478516 0)"/>
      <use xlink:href="#DejaVuSans-Bold-65" transform="translate(737.060547 0)"/>
      <use xlink:href="#DejaVuSans-Bold-20" transform="translate(804.882812 0)"/>
      <use xlink:href="#DejaVuSans-Bold-5b" transform="translate(839.697266 0)"/>
      <use xlink:href="#DejaVuSans-Bold-70" transform="translate(885.400391 0)"/>
      <use xlink:href="#DejaVuSans-Bold-65" transform="translate(956.982422 0)"/>
      <use xlink:href="#DejaVuSans-Bold-72" transform="translate(1024.804688 0)"/>
      <use xlink:href="#DejaVuSans-Bold-63" transform="translate(1074.121094 0)"/>
      <use xlink:href="#DejaVuSans-Bold-65" transform="translate(1133.398438 0)"/>
      <use xlink:href="#DejaVuSans-Bold-6e" transform="translate(1201.220703 0)"/>
      <use xlink:href="#DejaVuSans-Bold-74" transform="translate(1272.412109 0)"/>
      <use xlink:href="#DejaVuSans-Bold-5d" transform="translate(1320.214844 0)"/>
     </g>
    </g>
   </g>
   <g id="LineCollection_1">
    <path clip-path="url(#pf0d56a4dd1)" style="fill: none; stroke: #2ca02c"/>
    <path clip-path="url(#pf0d56a4dd1)" style="fill: none; stroke: #2ca02c"/>
    <path clip-path="url(#pf0d56a4dd1)" style="fill: none; stroke: #2ca02c"/>
   </g>
   <g id="LineCollection_2">
    <path clip-path="url(#pf0d56a4dd1)" style="fill: none; stroke: #1f77b4"/>
    <path clip-path="url(#pf0d56a4dd1)" style="fill: none; stroke: #1f77b4"/>
    <path clip-path="url(#pf0d56a4dd1)" style="fill: none; stroke: #1f77b4"/>
   </g>
   <g id="line2d_15">
    <path d="M 86.980923 90.56114 
L 89.571524 85.298053 
L 92.162124 80.585512 
L 94.702476 76.376646 
L 97.030666 72.989146 
L 99.74968 69.416922 
L 101.882458 66.998714 
L 104.612639 64.255211 
L 106.617004 62.528297 
L 109.051275 60.742984 
L 111.373882 59.278781 
L 113.52341 58.213962 
L 116.264757 57.109276 
L 118.280289 56.542847 
L 121.027218 56.021904 
L 123.076249 55.823328 
L 125.599851 55.824754 
L 128.2407 56.022332 
L 130.764302 56.474076 
L 133.807141 57.231764 
L 136.581987 58.199927 
L 139.747656 59.514417 
L 143.158985 61.23963 
L 145.984079 62.859675 
L 150.193805 65.578795 
L 153.845211 68.231974 
L 157.569199 71.149736 
L 162.700151 75.511363 
L 168.344757 80.705004 
L 174.631429 86.891631 
L 181.800246 94.346848 
L 188.578239 101.686401 
L 196.528702 110.569266 
L 214.947647 131.636807 
L 232.936687 152.088672 
L 245.253205 165.674252 
L 254.766961 175.829842 
L 264.621292 185.976455 
L 272.889997 194.167081 
L 281.287115 202.178675 
L 289.142664 209.371408 
L 297.383453 216.608786 
L 304.965426 222.980171 
L 313.105717 229.516204 
L 320.68769 235.325755 
L 328.381326 240.944414 
L 336.29829 246.447812 
L 343.919345 251.480974 
L 351.981472 256.530889 
L 359.797939 261.168504 
L 367.765151 265.638388 
L 375.927776 269.96328 
L 382.890014 273.453534 
L 382.890014 273.453534 
" clip-path="url(#pf0d56a4dd1)" style="fill: none; stroke: #2ca02c; stroke-width: 2; stroke-linecap: square"/>
   </g>
   <g id="line2d_16">
    <path d="M 86.980923 90.56114 
L 232.143874 184.870666 
L 377.306824 196.161243 
" clip-path="url(#pf0d56a4dd1)" style="fill: none; stroke-dasharray: 3.7,1.6; stroke-dashoffset: 0; stroke: #2ca02c"/>
    <defs>
     <path id="m7993c6106c" d="M -3 3 
L 3 3 
L 3 -3 
L -3 -3 
z
" style="stroke: #000000; stroke-linejoin: miter"/>
    </defs>
    <g clip-path="url(#pf0d56a4dd1)">
     <use xlink:href="#m7993c6106c" x="86.980923" y="90.56114" style="fill: #2ca02c; stroke: #000000; stroke-linejoin: miter"/>
     <use xlink:href="#m7993c6106c" x="232.143874" y="184.870666" style="fill: #2ca02c; stroke: #000000; stroke-linejoin: miter"/>
     <use xlink:href="#m7993c6106c" x="377.306824" y="196.161243" style="fill: #2ca02c; stroke: #000000; stroke-linejoin: miter"/>
    </g>
   </g>
   <g id="line2d_17">
    <path d="M 86.980923 90.56114 
L 89.046704 86.350237 
L 90.861241 83.19219 
L 93.150349 79.673473 
L 94.735975 77.586295 
L 96.399765 75.773924 
L 98.543711 73.783805 
L 100.073505 72.614409 
L 101.614465 71.725886 
L 103.585332 70.860943 
L 105.34962 70.292348 
L 106.851498 70.06109 
L 108.788865 70.003281 
L 110.865812 70.144539 
L 112.501687 70.505504 
L 114.779628 71.258568 
L 116.850992 72.135674 
L 118.89444 73.279154 
L 121.920529 75.245115 
L 124.148222 76.978834 
L 127.665632 80.029709 
L 130.412561 82.736602 
L 134.331961 86.90512 
L 138.804097 92.122585 
L 142.890992 97.245862 
L 147.100717 102.773091 
L 153.694465 111.824664 
L 161.259688 122.578018 
L 189.968453 163.707076 
L 197.78492 174.361257 
L 205.115649 183.989174 
L 212.479877 193.280176 
L 219.11829 201.306847 
L 225.594791 208.806589 
L 232.071292 215.974826 
L 238.631541 222.897962 
L 245.152707 229.447618 
L 251.534294 235.54153 
L 257.860049 241.280543 
L 264.19697 246.736713 
L 270.595306 251.957601 
L 277.094139 256.974572 
L 283.715803 261.802001 
L 290.382133 266.384872 
L 297.098711 270.733701 
L 303.915786 274.884935 
L 310.883608 278.868226 
L 318.035675 282.69883 
L 325.304988 286.339638 
L 332.736215 289.813436 
L 340.407518 293.152638 
L 348.268651 296.331408 
L 356.364277 299.364748 
L 364.744645 302.266396 
L 373.398591 305.026658 
L 382.387527 307.659495 
L 382.890014 307.8 
L 382.890014 307.8 
" clip-path="url(#pf0d56a4dd1)" style="fill: none; stroke: #1f77b4; stroke-width: 2; stroke-linecap: square"/>
   </g>
   <g id="line2d_18">
    <path d="M 86.980923 90.56114 
L 232.143874 188.855576 
L 377.306824 199.482001 
" clip-path="url(#pf0d56a4dd1)" style="fill: none; stroke-dasharray: 3.7,1.6; stroke-dashoffset: 0; stroke: #1f77b4"/>
    <defs>
     <path id="ma8e4efb2c7" d="M -3 3 
L 3 3 
L 3 -3 
L -3 -3 
z
" style="stroke: #000000; stroke-linejoin: miter"/>
    </defs>
    <g clip-path="url(#pf0d56a4dd1)">
     <use xlink:href="#ma8e4efb2c7" x="86.980923" y="90.56114" style="fill: #1f77b4; stroke: #000000; stroke-linejoin: miter"/>
     <use xlink:href="#ma8e4efb2c7" x="232.143874" y="188.855576" style="fill: #1f77b4; stroke: #000000; stroke-linejoin: miter"/>
     <use xlink:href="#ma8e4efb2c7" x="377.306824" y="199.482001" style="fill: #1f77b4; stroke: #000000; stroke-linejoin: miter"/>
    </g>
   </g>
   <g id="patch_3">
    <path d="M 72.185469 320.4 
L 72.185469 43.2 
" style="fill: none; stroke: #000000; stroke-width: 0.8; stroke-linejoin: miter; stroke-linecap: square"/>
   </g>
   <g id="patch_4">
    <path d="M 397.685469 320.4 
L 397.685469 43.2 
" style="fill: none; stroke: #000000; stroke-width: 0.8; stroke-linejoin: miter; stroke-linecap: square"/>
   </g>
   <g id="patch_5">
    <path d="M 72.185469 320.4 
L 397.685469 320.4 
" style="fill: none; stroke: #000000; stroke-width: 0.8; stroke-linejoin: miter; stroke-linecap: square"/>
   </g>
   <g id="patch_6">
    <path d="M 72.185469 43.2 
L 397.685469 43.2 
" style="fill: none; stroke: #000000; stroke-width: 0.8; stroke-linejoin: miter; stroke-linecap: square"/>
   </g>
   <g id="legend_1">
    <g id="patch_7">
     <path d="M 251.793281 109.9125 
L 390.685469 109.9125 
Q 392.685469 109.9125 392.685469 107.9125 
L 392.685469 50.2 
Q 392.685469 48.2 390.685469 48.2 
L 251.793281 48.2 
Q 249.793281 48.2 249.793281 50.2 
L 249.793281 107.9125 
Q 249.793281 109.9125 251.793281 109.9125 
z
" style="fill: #ffffff; opacity: 0.8; stroke: #cccccc; stroke-linejoin: miter"/>
    </g>
    <g id="line2d_19">
     <path d="M 253.793281 56.298437 
L 273.793281 56.298437 
" style="fill: none; stroke: #2ca02c; stroke-width: 2; stroke-linecap: square"/>
    </g>
    <g id="line2d_20"/>
    <g id="text_17">
     <!-- DUL075 -->
     <g transform="translate(281.793281 59.798437) scale(0.1 -0.1)">
      <defs>
       <path id="DejaVuSans-44" d="M 1259 4147 
L 1259 519 
L 2022 519 
Q 2988 519 3436 956 
Q 3884 1394 3884 2338 
Q 3884 3275 3436 3711 
Q 2988 4147 2022 4147 
L 1259 4147 
z
M 628 4666 
L 1925 4666 
Q 3281 4666 3915 4102 
Q 4550 3538 4550 2338 
Q 4550 1131 3912 565 
Q 3275 0 1925 0 
L 628 0 
L 628 4666 
z
" transform="scale(0.015625)"/>
       <path id="DejaVuSans-55" d="M 556 4666 
L 1191 4666 
L 1191 1831 
Q 1191 1081 1462 751 
Q 1734 422 2344 422 
Q 2950 422 3222 751 
Q 3494 1081 3494 1831 
L 3494 4666 
L 4128 4666 
L 4128 1753 
Q 4128 841 3676 375 
Q 3225 -91 2344 -91 
Q 1459 -91 1007 375 
Q 556 841 556 1753 
L 556 4666 
z
" transform="scale(0.015625)"/>
       <path id="DejaVuSans-4c" d="M 628 4666 
L 1259 4666 
L 1259 531 
L 3531 531 
L 3531 0 
L 628 0 
L 628 4666 
z
" transform="scale(0.015625)"/>
       <path id="DejaVuSans-37" d="M 525 4666 
L 3525 4666 
L 3525 4397 
L 1831 0 
L 1172 0 
L 2766 4134 
L 525 4134 
L 525 4666 
z
" transform="scale(0.015625)"/>
      </defs>
      <use xlink:href="#DejaVuSans-44"/>
      <use xlink:href="#DejaVuSans-55" transform="translate(77.001953 0)"/>
      <use xlink:href="#DejaVuSans-4c" transform="translate(150.195312 0)"/>
      <use xlink:href="#DejaVuSans-30" transform="translate(205.908203 0)"/>
      <use xlink:href="#DejaVuSans-37" transform="translate(269.53125 0)"/>
      <use xlink:href="#DejaVuSans-35" transform="translate(333.154297 0)"/>
     </g>
    </g>
    <g id="LineCollection_3">
     <path d="M 263.793281 75.976562 
L 263.793281 65.976562 
" style="fill: none; stroke: #2ca02c"/>
    </g>
    <g id="line2d_21">
     <path d="M 253.793281 70.976562 
L 273.793281 70.976562 
" style="fill: none; stroke-dasharray: 3.7,1.6; stroke-dashoffset: 0; stroke: #2ca02c"/>
    </g>
    <g id="line2d_22">
     <g>
      <use xlink:href="#m7993c6106c" x="263.793281" y="70.976562" style="fill: #2ca02c; stroke: #000000; stroke-linejoin: miter"/>
     </g>
    </g>
    <g id="text_18">
     <!-- DUL075±SD (n=293) -->
     <g transform="translate(281.793281 74.476562) scale(0.1 -0.1)">
      <defs>
       <path id="DejaVuSans-b1" d="M 2944 4013 
L 2944 2803 
L 4684 2803 
L 4684 2272 
L 2944 2272 
L 2944 1063 
L 2419 1063 
L 2419 2272 
L 678 2272 
L 678 2803 
L 2419 2803 
L 2419 4013 
L 2944 4013 
z
M 678 531 
L 4684 531 
L 4684 0 
L 678 0 
L 678 531 
z
" transform="scale(0.015625)"/>
       <path id="DejaVuSans-53" d="M 3425 4513 
L 3425 3897 
Q 3066 4069 2747 4153 
Q 2428 4238 2131 4238 
Q 1616 4238 1336 4038 
Q 1056 3838 1056 3469 
Q 1056 3159 1242 3001 
Q 1428 2844 1947 2747 
L 2328 2669 
Q 3034 2534 3370 2195 
Q 3706 1856 3706 1288 
Q 3706 609 3251 259 
Q 2797 -91 1919 -91 
Q 1588 -91 1214 -16 
Q 841 59 441 206 
L 441 856 
Q 825 641 1194 531 
Q 1563 422 1919 422 
Q 2459 422 2753 634 
Q 3047 847 3047 1241 
Q 3047 1584 2836 1778 
Q 2625 1972 2144 2069 
L 1759 2144 
Q 1053 2284 737 2584 
Q 422 2884 422 3419 
Q 422 4038 858 4394 
Q 1294 4750 2059 4750 
Q 2388 4750 2728 4690 
Q 3069 4631 3425 4513 
z
" transform="scale(0.015625)"/>
       <path id="DejaVuSans-20" transform="scale(0.015625)"/>
       <path id="DejaVuSans-28" d="M 1984 4856 
Q 1566 4138 1362 3434 
Q 1159 2731 1159 2009 
Q 1159 1288 1364 580 
Q 1569 -128 1984 -844 
L 1484 -844 
Q 1016 -109 783 600 
Q 550 1309 550 2009 
Q 550 2706 781 3412 
Q 1013 4119 1484 4856 
L 1984 4856 
z
" transform="scale(0.015625)"/>
       <path id="DejaVuSans-6e" d="M 3513 2113 
L 3513 0 
L 2938 0 
L 2938 2094 
Q 2938 2591 2744 2837 
Q 2550 3084 2163 3084 
Q 1697 3084 1428 2787 
Q 1159 2491 1159 1978 
L 1159 0 
L 581 0 
L 581 3500 
L 1159 3500 
L 1159 2956 
Q 1366 3272 1645 3428 
Q 1925 3584 2291 3584 
Q 2894 3584 3203 3211 
Q 3513 2838 3513 2113 
z
" transform="scale(0.015625)"/>
       <path id="DejaVuSans-3d" d="M 678 2906 
L 4684 2906 
L 4684 2381 
L 678 2381 
L 678 2906 
z
M 678 1631 
L 4684 1631 
L 4684 1100 
L 678 1100 
L 678 1631 
z
" transform="scale(0.015625)"/>
       <path id="DejaVuSans-39" d="M 703 97 
L 703 672 
Q 941 559 1184 500 
Q 1428 441 1663 441 
Q 2288 441 2617 861 
Q 2947 1281 2994 2138 
Q 2813 1869 2534 1725 
Q 2256 1581 1919 1581 
Q 1219 1581 811 2004 
Q 403 2428 403 3163 
Q 403 3881 828 4315 
Q 1253 4750 1959 4750 
Q 2769 4750 3195 4129 
Q 3622 3509 3622 2328 
Q 3622 1225 3098 567 
Q 2575 -91 1691 -91 
Q 1453 -91 1209 -44 
Q 966 3 703 97 
z
M 1959 2075 
Q 2384 2075 2632 2365 
Q 2881 2656 2881 3163 
Q 2881 3666 2632 3958 
Q 2384 4250 1959 4250 
Q 1534 4250 1286 3958 
Q 1038 3666 1038 3163 
Q 1038 2656 1286 2365 
Q 1534 2075 1959 2075 
z
" transform="scale(0.015625)"/>
       <path id="DejaVuSans-29" d="M 513 4856 
L 1013 4856 
Q 1481 4119 1714 3412 
Q 1947 2706 1947 2009 
Q 1947 1309 1714 600 
Q 1481 -109 1013 -844 
L 513 -844 
Q 928 -128 1133 580 
Q 1338 1288 1338 2009 
Q 1338 2731 1133 3434 
Q 928 4138 513 4856 
z
" transform="scale(0.015625)"/>
      </defs>
      <use xlink:href="#DejaVuSans-44"/>
      <use xlink:href="#DejaVuSans-55" transform="translate(77.001953 0)"/>
      <use xlink:href="#DejaVuSans-4c" transform="translate(150.195312 0)"/>
      <use xlink:href="#DejaVuSans-30" transform="translate(205.908203 0)"/>
      <use xlink:href="#DejaVuSans-37" transform="translate(269.53125 0)"/>
      <use xlink:href="#DejaVuSans-35" transform="translate(333.154297 0)"/>
      <use xlink:href="#DejaVuSans-b1" transform="translate(396.777344 0)"/>
      <use xlink:href="#DejaVuSans-53" transform="translate(480.566406 0)"/>
      <use xlink:href="#DejaVuSans-44" transform="translate(544.042969 0)"/>
      <use xlink:href="#DejaVuSans-20" transform="translate(621.044922 0)"/>
      <use xlink:href="#DejaVuSans-28" transform="translate(652.832031 0)"/>
      <use xlink:href="#DejaVuSans-6e" transform="translate(691.845703 0)"/>
      <use xlink:href="#DejaVuSans-3d" transform="translate(755.224609 0)"/>
      <use xlink:href="#DejaVuSans-32" transform="translate(839.013672 0)"/>
      <use xlink:href="#DejaVuSans-39" transform="translate(902.636719 0)"/>
      <use xlink:href="#DejaVuSans-33" transform="translate(966.259766 0)"/>
      <use xlink:href="#DejaVuSans-29" transform="translate(1029.882812 0)"/>
     </g>
    </g>
    <g id="line2d_23">
     <path d="M 253.793281 85.654687 
L 273.793281 85.654687 
" style="fill: none; stroke: #1f77b4; stroke-width: 2; stroke-linecap: square"/>
    </g>
    <g id="line2d_24"/>
    <g id="text_19">
     <!-- DUL15 -->
     <g transform="translate(281.793281 89.154687) scale(0.1 -0.1)">
      <use xlink:href="#DejaVuSans-44"/>
      <use xlink:href="#DejaVuSans-55" transform="translate(77.001953 0)"/>
      <use xlink:href="#DejaVuSans-4c" transform="translate(150.195312 0)"/>
      <use xlink:href="#DejaVuSans-31" transform="translate(205.908203 0)"/>
      <use xlink:href="#DejaVuSans-35" transform="translate(269.53125 0)"/>
     </g>
    </g>
    <g id="LineCollection_4">
     <path d="M 263.793281 105.332812 
L 263.793281 95.332812 
" style="fill: none; stroke: #1f77b4"/>
    </g>
    <g id="line2d_25">
     <path d="M 253.793281 100.332812 
L 273.793281 100.332812 
" style="fill: none; stroke-dasharray: 3.7,1.6; stroke-dashoffset: 0; stroke: #1f77b4"/>
    </g>
    <g id="line2d_26">
     <g>
      <use xlink:href="#ma8e4efb2c7" x="263.793281" y="100.332812" style="fill: #1f77b4; stroke: #000000; stroke-linejoin: miter"/>
     </g>
    </g>
    <g id="text_20">
     <!-- DUL15±SD (n=295) -->
     <g transform="translate(281.793281 103.832812) scale(0.1 -0.1)">
      <use xlink:href="#DejaVuSans-44"/>
      <use xlink:href="#DejaVuSans-55" transform="translate(77.001953 0)"/>
      <use xlink:href="#DejaVuSans-4c" transform="translate(150.195312 0)"/>
      <use xlink:href="#DejaVuSans-31" transform="translate(205.908203 0)"/>
      <use xlink:href="#DejaVuSans-35" transform="translate(269.53125 0)"/>
      <use xlink:href="#DejaVuSans-b1" transform="translate(333.154297 0)"/>
      <use xlink:href="#DejaVuSans-53" transform="translate(416.943359 0)"/>
      <use xlink:href="#DejaVuSans-44" transform="translate(480.419922 0)"/>
      <use xlink:href="#DejaVuSans-20" transform="translate(557.421875 0)"/>
      <use xlink:href="#DejaVuSans-28" transform="translate(589.208984 0)"/>
      <use xlink:href="#DejaVuSans-6e" transform="translate(628.222656 0)"/>
      <use xlink:href="#DejaVuSans-3d" transform="translate(691.601562 0)"/>
      <use xlink:href="#DejaVuSans-32" transform="translate(775.390625 0)"/>
      <use xlink:href="#DejaVuSans-39" transform="translate(839.013672 0)"/>
      <use xlink:href="#DejaVuSans-35" transform="translate(902.636719 0)"/>
      <use xlink:href="#DejaVuSans-29" transform="translate(966.259766 0)"/>
     </g>
    </g>
   </g>
  </g>
  <g id="axes_2">
   <g id="patch_8">
    <path d="M 495.335469 320.4 
L 820.835469 320.4 
L 820.835469 43.2 
L 495.335469 43.2 
z
" style="fill: #ffffff"/>
   </g>
   <g id="matplotlib.axis_3">
    <g id="xtick_7">
     <g id="line2d_27">
      <g>
       <use xlink:href="#m4fc68f8d7d" x="510.130923" y="320.4" style="stroke: #000000; stroke-width: 0.8"/>
      </g>
     </g>
     <g id="text_21">
      <!-- 0 -->
      <g transform="translate(505.359048 338.797656) scale(0.15 -0.15)">
       <use xlink:href="#DejaVuSans-30"/>
      </g>
     </g>
    </g>
    <g id="xtick_8">
     <g id="line2d_28">
      <g>
       <use xlink:href="#m4fc68f8d7d" x="565.962827" y="320.4" style="stroke: #000000; stroke-width: 0.8"/>
      </g>
     </g>
     <g id="text_22">
      <!-- 10 -->
      <g transform="translate(556.419077 338.797656) scale(0.15 -0.15)">
       <use xlink:href="#DejaVuSans-31"/>
       <use xlink:href="#DejaVuSans-30" transform="translate(63.623047 0)"/>
      </g>
     </g>
    </g>
    <g id="xtick_9">
     <g id="line2d_29">
      <g>
       <use xlink:href="#m4fc68f8d7d" x="621.794731" y="320.4" style="stroke: #000000; stroke-width: 0.8"/>
      </g>
     </g>
     <g id="text_23">
      <!-- 20 -->
      <g transform="translate(612.250981 338.797656) scale(0.15 -0.15)">
       <use xlink:href="#DejaVuSans-32"/>
       <use xlink:href="#DejaVuSans-30" transform="translate(63.623047 0)"/>
      </g>
     </g>
    </g>
    <g id="xtick_10">
     <g id="line2d_30">
      <g>
       <use xlink:href="#m4fc68f8d7d" x="677.626635" y="320.4" style="stroke: #000000; stroke-width: 0.8"/>
      </g>
     </g>
     <g id="text_24">
      <!-- 30 -->
      <g transform="translate(668.082885 338.797656) scale(0.15 -0.15)">
       <use xlink:href="#DejaVuSans-33"/>
       <use xlink:href="#DejaVuSans-30" transform="translate(63.623047 0)"/>
      </g>
     </g>
    </g>
    <g id="xtick_11">
     <g id="line2d_31">
      <g>
       <use xlink:href="#m4fc68f8d7d" x="733.458539" y="320.4" style="stroke: #000000; stroke-width: 0.8"/>
      </g>
     </g>
     <g id="text_25">
      <!-- 40 -->
      <g transform="translate(723.914789 338.797656) scale(0.15 -0.15)">
       <use xlink:href="#DejaVuSans-34"/>
       <use xlink:href="#DejaVuSans-30" transform="translate(63.623047 0)"/>
      </g>
     </g>
    </g>
    <g id="xtick_12">
     <g id="line2d_32">
      <g>
       <use xlink:href="#m4fc68f8d7d" x="789.290443" y="320.4" style="stroke: #000000; stroke-width: 0.8"/>
      </g>
     </g>
     <g id="text_26">
      <!-- 50 -->
      <g transform="translate(779.746693 338.797656) scale(0.15 -0.15)">
       <use xlink:href="#DejaVuSans-35"/>
       <use xlink:href="#DejaVuSans-30" transform="translate(63.623047 0)"/>
      </g>
     </g>
    </g>
    <g id="text_27">
     <!-- time [week] -->
     <g transform="translate(597.346719 359.594375) scale(0.18 -0.18)">
      <use xlink:href="#DejaVuSans-Bold-74"/>
      <use xlink:href="#DejaVuSans-Bold-69" transform="translate(47.802734 0)"/>
      <use xlink:href="#DejaVuSans-Bold-6d" transform="translate(82.080078 0)"/>
      <use xlink:href="#DejaVuSans-Bold-65" transform="translate(186.279297 0)"/>
      <use xlink:href="#DejaVuSans-Bold-20" transform="translate(254.101562 0)"/>
      <use xlink:href="#DejaVuSans-Bold-5b" transform="translate(288.916016 0)"/>
      <use xlink:href="#DejaVuSans-Bold-77" transform="translate(334.619141 0)"/>
      <use xlink:href="#DejaVuSans-Bold-65" transform="translate(427.001953 0)"/>
      <use xlink:href="#DejaVuSans-Bold-65" transform="translate(494.824219 0)"/>
      <use xlink:href="#DejaVuSans-Bold-6b" transform="translate(562.646484 0)"/>
      <use xlink:href="#DejaVuSans-Bold-5d" transform="translate(629.150391 0)"/>
     </g>
    </g>
   </g>
   <g id="matplotlib.axis_4">
    <g id="ytick_9">
     <g id="line2d_33">
      <g>
       <use xlink:href="#m51a4a6c141" x="495.335469" y="286.818224" style="stroke: #000000; stroke-width: 0.8"/>
      </g>
     </g>
     <g id="text_28">
      <!-- 5.5 -->
      <g transform="translate(464.480781 292.517052) scale(0.15 -0.15)">
       <use xlink:href="#DejaVuSans-35"/>
       <use xlink:href="#DejaVuSans-2e" transform="translate(63.623047 0)"/>
       <use xlink:href="#DejaVuSans-35" transform="translate(95.410156 0)"/>
      </g>
     </g>
    </g>
    <g id="ytick_10">
     <g id="line2d_34">
      <g>
       <use xlink:href="#m51a4a6c141" x="495.335469" y="253.077092" style="stroke: #000000; stroke-width: 0.8"/>
      </g>
     </g>
     <g id="text_29">
      <!-- 6.0 -->
      <g transform="translate(464.480781 258.77592) scale(0.15 -0.15)">
       <defs>
        <path id="DejaVuSans-36" d="M 2113 2584 
Q 1688 2584 1439 2293 
Q 1191 2003 1191 1497 
Q 1191 994 1439 701 
Q 1688 409 2113 409 
Q 2538 409 2786 701 
Q 3034 994 3034 1497 
Q 3034 2003 2786 2293 
Q 2538 2584 2113 2584 
z
M 3366 4563 
L 3366 3988 
Q 3128 4100 2886 4159 
Q 2644 4219 2406 4219 
Q 1781 4219 1451 3797 
Q 1122 3375 1075 2522 
Q 1259 2794 1537 2939 
Q 1816 3084 2150 3084 
Q 2853 3084 3261 2657 
Q 3669 2231 3669 1497 
Q 3669 778 3244 343 
Q 2819 -91 2113 -91 
Q 1303 -91 875 529 
Q 447 1150 447 2328 
Q 447 3434 972 4092 
Q 1497 4750 2381 4750 
Q 2619 4750 2861 4703 
Q 3103 4656 3366 4563 
z
" transform="scale(0.015625)"/>
       </defs>
       <use xlink:href="#DejaVuSans-36"/>
       <use xlink:href="#DejaVuSans-2e" transform="translate(63.623047 0)"/>
       <use xlink:href="#DejaVuSans-30" transform="translate(95.410156 0)"/>
      </g>
     </g>
    </g>
    <g id="ytick_11">
     <g id="line2d_35">
      <g>
       <use xlink:href="#m51a4a6c141" x="495.335469" y="219.335959" style="stroke: #000000; stroke-width: 0.8"/>
      </g>
     </g>
     <g id="text_30">
      <!-- 6.5 -->
      <g transform="translate(464.480781 225.034787) scale(0.15 -0.15)">
       <use xlink:href="#DejaVuSans-36"/>
       <use xlink:href="#DejaVuSans-2e" transform="translate(63.623047 0)"/>
       <use xlink:href="#DejaVuSans-35" transform="translate(95.410156 0)"/>
      </g>
     </g>
    </g>
    <g id="ytick_12">
     <g id="line2d_36">
      <g>
       <use xlink:href="#m51a4a6c141" x="495.335469" y="185.594826" style="stroke: #000000; stroke-width: 0.8"/>
      </g>
     </g>
     <g id="text_31">
      <!-- 7.0 -->
      <g transform="translate(464.480781 191.293654) scale(0.15 -0.15)">
       <use xlink:href="#DejaVuSans-37"/>
       <use xlink:href="#DejaVuSans-2e" transform="translate(63.623047 0)"/>
       <use xlink:href="#DejaVuSans-30" transform="translate(95.410156 0)"/>
      </g>
     </g>
    </g>
    <g id="ytick_13">
     <g id="line2d_37">
      <g>
       <use xlink:href="#m51a4a6c141" x="495.335469" y="151.853693" style="stroke: #000000; stroke-width: 0.8"/>
      </g>
     </g>
     <g id="text_32">
      <!-- 7.5 -->
      <g transform="translate(464.480781 157.552521) scale(0.15 -0.15)">
       <use xlink:href="#DejaVuSans-37"/>
       <use xlink:href="#DejaVuSans-2e" transform="translate(63.623047 0)"/>
       <use xlink:href="#DejaVuSans-35" transform="translate(95.410156 0)"/>
      </g>
     </g>
    </g>
    <g id="ytick_14">
     <g id="line2d_38">
      <g>
       <use xlink:href="#m51a4a6c141" x="495.335469" y="118.11256" style="stroke: #000000; stroke-width: 0.8"/>
      </g>
     </g>
     <g id="text_33">
      <!-- 8.0 -->
      <g transform="translate(464.480781 123.811388) scale(0.15 -0.15)">
       <defs>
        <path id="DejaVuSans-38" d="M 2034 2216 
Q 1584 2216 1326 1975 
Q 1069 1734 1069 1313 
Q 1069 891 1326 650 
Q 1584 409 2034 409 
Q 2484 409 2743 651 
Q 3003 894 3003 1313 
Q 3003 1734 2745 1975 
Q 2488 2216 2034 2216 
z
M 1403 2484 
Q 997 2584 770 2862 
Q 544 3141 544 3541 
Q 544 4100 942 4425 
Q 1341 4750 2034 4750 
Q 2731 4750 3128 4425 
Q 3525 4100 3525 3541 
Q 3525 3141 3298 2862 
Q 3072 2584 2669 2484 
Q 3125 2378 3379 2068 
Q 3634 1759 3634 1313 
Q 3634 634 3220 271 
Q 2806 -91 2034 -91 
Q 1263 -91 848 271 
Q 434 634 434 1313 
Q 434 1759 690 2068 
Q 947 2378 1403 2484 
z
M 1172 3481 
Q 1172 3119 1398 2916 
Q 1625 2713 2034 2713 
Q 2441 2713 2670 2916 
Q 2900 3119 2900 3481 
Q 2900 3844 2670 4047 
Q 2441 4250 2034 4250 
Q 1625 4250 1398 4047 
Q 1172 3844 1172 3481 
z
" transform="scale(0.015625)"/>
       </defs>
       <use xlink:href="#DejaVuSans-38"/>
       <use xlink:href="#DejaVuSans-2e" transform="translate(63.623047 0)"/>
       <use xlink:href="#DejaVuSans-30" transform="translate(95.410156 0)"/>
      </g>
     </g>
    </g>
    <g id="ytick_15">
     <g id="line2d_39">
      <g>
       <use xlink:href="#m51a4a6c141" x="495.335469" y="84.371427" style="stroke: #000000; stroke-width: 0.8"/>
      </g>
     </g>
     <g id="text_34">
      <!-- 8.5 -->
      <g transform="translate(464.480781 90.070256) scale(0.15 -0.15)">
       <use xlink:href="#DejaVuSans-38"/>
       <use xlink:href="#DejaVuSans-2e" transform="translate(63.623047 0)"/>
       <use xlink:href="#DejaVuSans-35" transform="translate(95.410156 0)"/>
      </g>
     </g>
    </g>
    <g id="ytick_16">
     <g id="line2d_40">
      <g>
       <use xlink:href="#m51a4a6c141" x="495.335469" y="50.630295" style="stroke: #000000; stroke-width: 0.8"/>
      </g>
     </g>
     <g id="text_35">
      <!-- 9.0 -->
      <g transform="translate(464.480781 56.329123) scale(0.15 -0.15)">
       <use xlink:href="#DejaVuSans-39"/>
       <use xlink:href="#DejaVuSans-2e" transform="translate(63.623047 0)"/>
       <use xlink:href="#DejaVuSans-30" transform="translate(95.410156 0)"/>
      </g>
     </g>
    </g>
    <g id="text_36">
     <!-- HbA1c [percent] -->
     <g transform="translate(456.737344 264.829219) rotate(-90) scale(0.18 -0.18)">
      <use xlink:href="#DejaVuSans-Bold-48"/>
      <use xlink:href="#DejaVuSans-Bold-62" transform="translate(83.691406 0)"/>
      <use xlink:href="#DejaVuSans-Bold-41" transform="translate(155.273438 0)"/>
      <use xlink:href="#DejaVuSans-Bold-31" transform="translate(232.666016 0)"/>
      <use xlink:href="#DejaVuSans-Bold-63" transform="translate(302.246094 0)"/>
      <use xlink:href="#DejaVuSans-Bold-20" transform="translate(361.523438 0)"/>
      <use xlink:href="#DejaVuSans-Bold-5b" transform="translate(396.337891 0)"/>
      <use xlink:href="#DejaVuSans-Bold-70" transform="translate(442.041016 0)"/>
      <use xlink:href="#DejaVuSans-Bold-65" transform="translate(513.623047 0)"/>
      <use xlink:href="#DejaVuSans-Bold-72" transform="translate(581.445312 0)"/>
      <use xlink:href="#DejaVuSans-Bold-63" transform="translate(630.761719 0)"/>
      <use xlink:href="#DejaVuSans-Bold-65" transform="translate(690.039062 0)"/>
      <use xlink:href="#DejaVuSans-Bold-6e" transform="translate(757.861328 0)"/>
      <use xlink:href="#DejaVuSans-Bold-74" transform="translate(829.052734 0)"/>
      <use xlink:href="#DejaVuSans-Bold-5d" transform="translate(876.855469 0)"/>
     </g>
    </g>
   </g>
   <g id="LineCollection_5">
    <path d="M 510.130923 107.177654 
L 510.130923 75.641627 
" clip-path="url(#p7548075f18)" style="fill: none; stroke: #2ca02c"/>
    <path d="M 582.712398 204.866843 
L 582.712398 180.580477 
" clip-path="url(#p7548075f18)" style="fill: none; stroke: #2ca02c"/>
    <path d="M 655.293874 207.222983 
L 655.293874 178.949303 
" clip-path="url(#p7548075f18)" style="fill: none; stroke: #2ca02c"/>
    <path d="M 800.456824 193.811109 
L 800.456824 161.187632 
" clip-path="url(#p7548075f18)" style="fill: none; stroke: #2ca02c"/>
   </g>
   <g id="LineCollection_6">
    <path d="M 510.130923 104.096548 
L 510.130923 71.110588 
" clip-path="url(#p7548075f18)" style="fill: none; stroke: #1f77b4"/>
    <path d="M 582.712398 205.77305 
L 582.712398 179.674269 
" clip-path="url(#p7548075f18)" style="fill: none; stroke: #1f77b4"/>
    <path d="M 655.293874 211.210296 
L 655.293874 183.2991 
" clip-path="url(#p7548075f18)" style="fill: none; stroke: #1f77b4"/>
    <path d="M 800.456824 199.79208 
L 800.456824 164.631221 
" clip-path="url(#p7548075f18)" style="fill: none; stroke: #1f77b4"/>
   </g>
   <g id="line2d_41">
    <path d="M 510.130923 91.119654 
L 512.721524 85.772004 
L 515.306541 80.993644 
L 517.846892 76.716009 
L 520.163916 73.288878 
L 522.88293 69.656415 
L 525.004543 67.208854 
L 527.723556 64.428354 
L 529.716755 62.676894 
L 532.12311 60.877165 
L 534.473633 59.363072 
L 536.595246 58.288395 
L 539.325426 57.161355 
L 541.313042 56.582601 
L 543.992973 56.054611 
L 546.064337 55.831493 
L 548.487441 55.817045 
L 551.245537 56.006559 
L 553.679808 56.434987 
L 556.795229 57.20481 
L 559.45841 58.133983 
L 562.74691 59.502525 
L 566.00191 61.162862 
L 568.949834 62.858367 
L 573.081395 65.553121 
L 576.487141 68.046957 
L 580.585203 71.284564 
L 585.704988 75.696406 
L 591.293762 80.909422 
L 597.507853 87.108454 
L 604.665503 94.659664 
L 611.862235 102.573062 
L 619.985777 111.80334 
L 638.50522 133.329461 
L 657.884474 155.67746 
L 667.755555 166.725853 
L 677.911378 177.752452 
L 687.73221 188.027928 
L 695.950666 196.301971 
L 704.364534 204.4616 
L 712.164251 211.721899 
L 720.42179 219.094965 
L 727.96468 225.540536 
L 736.021223 232.12022 
L 743.603196 238.031767 
L 751.207501 243.684602 
L 759.157964 249.310772 
L 766.739937 254.409583 
L 774.645735 259.454598 
L 782.484534 264.195936 
L 790.328916 268.684518 
L 798.536206 273.12054 
L 806.040014 276.950618 
L 806.040014 276.950618 
" clip-path="url(#p7548075f18)" style="fill: none; stroke: #2ca02c; stroke-width: 2; stroke-linecap: square"/>
   </g>
   <g id="line2d_42">
    <path d="M 510.130923 91.40964 
L 582.712398 192.72366 
L 655.293874 193.086143 
L 800.456824 177.499371 
" clip-path="url(#p7548075f18)" style="fill: none; stroke-dasharray: 3.7,1.6; stroke-dashoffset: 0; stroke: #2ca02c"/>
    <g clip-path="url(#p7548075f18)">
     <use xlink:href="#m7993c6106c" x="510.130923" y="91.40964" style="fill: #2ca02c; stroke: #000000; stroke-linejoin: miter"/>
     <use xlink:href="#m7993c6106c" x="582.712398" y="192.72366" style="fill: #2ca02c; stroke: #000000; stroke-linejoin: miter"/>
     <use xlink:href="#m7993c6106c" x="655.293874" y="193.086143" style="fill: #2ca02c; stroke: #000000; stroke-linejoin: miter"/>
     <use xlink:href="#m7993c6106c" x="800.456824" y="177.499371" style="fill: #2ca02c; stroke: #000000; stroke-linejoin: miter"/>
    </g>
   </g>
   <g id="line2d_43">
    <path d="M 510.130923 87.070718 
L 512.196704 82.792158 
L 514.005657 79.592619 
L 516.289182 76.024456 
L 517.869225 73.90773 
L 519.527433 72.068667 
L 521.654628 70.058046 
L 523.190006 68.858284 
L 524.714217 67.958573 
L 526.651584 67.08731 
L 528.454954 66.48681 
L 529.940083 66.246894 
L 531.832784 66.181189 
L 533.94323 66.315129 
L 535.551189 66.664577 
L 537.750966 67.39182 
L 539.92841 68.312613 
L 541.932776 69.442433 
L 544.947699 71.419639 
L 547.125143 73.125335 
L 550.609054 76.17598 
L 553.233153 78.778957 
L 557.25305 83.094161 
L 561.524191 88.131552 
L 565.153265 92.717037 
L 570.189302 99.394989 
L 576.794217 108.604596 
L 584.426438 119.626516 
L 613.001206 161.226608 
L 620.856755 172.11092 
L 628.142819 181.83932 
L 635.523796 191.306932 
L 642.156627 199.461347 
L 648.610795 207.061737 
L 655.048213 214.30933 
L 661.547047 221.288503 
L 668.06263 227.949634 
L 674.444217 234.153167 
L 680.753222 239.980728 
L 687.062227 245.512663 
L 693.421481 250.798791 
L 699.864482 255.868132 
L 706.430314 260.749149 
L 713.079894 265.41219 
L 719.768556 269.831001 
L 726.540966 274.040578 
L 733.44179 278.069712 
L 740.526858 281.947695 
L 747.751506 285.647677 
L 755.115735 289.169902 
L 762.692124 292.546767 
L 770.491841 295.778785 
L 778.498136 298.855386 
L 786.794757 301.803925 
L 795.348205 304.606952 
L 804.236644 307.284359 
L 806.040014 307.8 
L 806.040014 307.8 
" clip-path="url(#p7548075f18)" style="fill: none; stroke: #1f77b4; stroke-width: 2; stroke-linecap: square"/>
   </g>
   <g id="line2d_44">
    <path d="M 510.130923 87.603568 
L 582.712398 192.72366 
L 655.293874 197.254698 
L 800.456824 182.211651 
" clip-path="url(#p7548075f18)" style="fill: none; stroke-dasharray: 3.7,1.6; stroke-dashoffset: 0; stroke: #1f77b4"/>
    <g clip-path="url(#p7548075f18)">
     <use xlink:href="#ma8e4efb2c7" x="510.130923" y="87.603568" style="fill: #1f77b4; stroke: #000000; stroke-linejoin: miter"/>
     <use xlink:href="#ma8e4efb2c7" x="582.712398" y="192.72366" style="fill: #1f77b4; stroke: #000000; stroke-linejoin: miter"/>
     <use xlink:href="#ma8e4efb2c7" x="655.293874" y="197.254698" style="fill: #1f77b4; stroke: #000000; stroke-linejoin: miter"/>
     <use xlink:href="#ma8e4efb2c7" x="800.456824" y="182.211651" style="fill: #1f77b4; stroke: #000000; stroke-linejoin: miter"/>
    </g>
   </g>
   <g id="patch_9">
    <path d="M 495.335469 320.4 
L 495.335469 43.2 
" style="fill: none; stroke: #000000; stroke-width: 0.8; stroke-linejoin: miter; stroke-linecap: square"/>
   </g>
   <g id="patch_10">
    <path d="M 820.835469 320.4 
L 820.835469 43.2 
" style="fill: none; stroke: #000000; stroke-width: 0.8; stroke-linejoin: miter; stroke-linecap: square"/>
   </g>
   <g id="patch_11">
    <path d="M 495.335469 320.4 
L 820.835469 320.4 
" style="fill: none; stroke: #000000; stroke-width: 0.8; stroke-linejoin: miter; stroke-linecap: square"/>
   </g>
   <g id="patch_12">
    <path d="M 495.335469 43.2 
L 820.835469 43.2 
" style="fill: none; stroke: #000000; stroke-width: 0.8; stroke-linejoin: miter; stroke-linecap: square"/>
   </g>
   <g id="legend_2">
    <g id="patch_13">
     <path d="M 674.943281 109.9125 
L 813.835469 109.9125 
Q 815.835469 109.9125 815.835469 107.9125 
L 815.835469 50.2 
Q 815.835469 48.2 813.835469 48.2 
L 674.943281 48.2 
Q 672.943281 48.2 672.943281 50.2 
L 672.943281 107.9125 
Q 672.943281 109.9125 674.943281 109.9125 
z
" style="fill: #ffffff; opacity: 0.8; stroke: #cccccc; stroke-linejoin: miter"/>
    </g>
    <g id="line2d_45">
     <path d="M 676.943281 56.298437 
L 696.943281 56.298437 
" style="fill: none; stroke: #2ca02c; stroke-width: 2; stroke-linecap: square"/>
    </g>
    <g id="line2d_46"/>
    <g id="text_37">
     <!-- DUL075 -->
     <g transform="translate(704.943281 59.798437) scale(0.1 -0.1)">
      <use xlink:href="#DejaVuSans-44"/>
      <use xlink:href="#DejaVuSans-55" transform="translate(77.001953 0)"/>
      <use xlink:href="#DejaVuSans-4c" transform="translate(150.195312 0)"/>
      <use xlink:href="#DejaVuSans-30" transform="translate(205.908203 0)"/>
      <use xlink:href="#DejaVuSans-37" transform="translate(269.53125 0)"/>
      <use xlink:href="#DejaVuSans-35" transform="translate(333.154297 0)"/>
     </g>
    </g>
    <g id="LineCollection_7">
     <path d="M 686.943281 75.976562 
L 686.943281 65.976562 
" style="fill: none; stroke: #2ca02c"/>
    </g>
    <g id="line2d_47">
     <path d="M 676.943281 70.976562 
L 696.943281 70.976562 
" style="fill: none; stroke-dasharray: 3.7,1.6; stroke-dashoffset: 0; stroke: #2ca02c"/>
    </g>
    <g id="line2d_48">
     <g>
      <use xlink:href="#m7993c6106c" x="686.943281" y="70.976562" style="fill: #2ca02c; stroke: #000000; stroke-linejoin: miter"/>
     </g>
    </g>
    <g id="text_38">
     <!-- DUL075±SD (n=293) -->
     <g transform="translate(704.943281 74.476562) scale(0.1 -0.1)">
      <use xlink:href="#DejaVuSans-44"/>
      <use xlink:href="#DejaVuSans-55" transform="translate(77.001953 0)"/>
      <use xlink:href="#DejaVuSans-4c" transform="translate(150.195312 0)"/>
      <use xlink:href="#DejaVuSans-30" transform="translate(205.908203 0)"/>
      <use xlink:href="#DejaVuSans-37" transform="translate(269.53125 0)"/>
      <use xlink:href="#DejaVuSans-35" transform="translate(333.154297 0)"/>
      <use xlink:href="#DejaVuSans-b1" transform="translate(396.777344 0)"/>
      <use xlink:href="#DejaVuSans-53" transform="translate(480.566406 0)"/>
      <use xlink:href="#DejaVuSans-44" transform="translate(544.042969 0)"/>
      <use xlink:href="#DejaVuSans-20" transform="translate(621.044922 0)"/>
      <use xlink:href="#DejaVuSans-28" transform="translate(652.832031 0)"/>
      <use xlink:href="#DejaVuSans-6e" transform="translate(691.845703 0)"/>
      <use xlink:href="#DejaVuSans-3d" transform="translate(755.224609 0)"/>
      <use xlink:href="#DejaVuSans-32" transform="translate(839.013672 0)"/>
      <use xlink:href="#DejaVuSans-39" transform="translate(902.636719 0)"/>
      <use xlink:href="#DejaVuSans-33" transform="translate(966.259766 0)"/>
      <use xlink:href="#DejaVuSans-29" transform="translate(1029.882812 0)"/>
     </g>
    </g>
    <g id="line2d_49">
     <path d="M 676.943281 85.654687 
L 696.943281 85.654687 
" style="fill: none; stroke: #1f77b4; stroke-width: 2; stroke-linecap: square"/>
    </g>
    <g id="line2d_50"/>
    <g id="text_39">
     <!-- DUL15 -->
     <g transform="translate(704.943281 89.154687) scale(0.1 -0.1)">
      <use xlink:href="#DejaVuSans-44"/>
      <use xlink:href="#DejaVuSans-55" transform="translate(77.001953 0)"/>
      <use xlink:href="#DejaVuSans-4c" transform="translate(150.195312 0)"/>
      <use xlink:href="#DejaVuSans-31" transform="translate(205.908203 0)"/>
      <use xlink:href="#DejaVuSans-35" transform="translate(269.53125 0)"/>
     </g>
    </g>
    <g id="LineCollection_8">
     <path d="M 686.943281 105.332812 
L 686.943281 95.332812 
" style="fill: none; stroke: #1f77b4"/>
    </g>
    <g id="line2d_51">
     <path d="M 676.943281 100.332812 
L 696.943281 100.332812 
" style="fill: none; stroke-dasharray: 3.7,1.6; stroke-dashoffset: 0; stroke: #1f77b4"/>
    </g>
    <g id="line2d_52">
     <g>
      <use xlink:href="#ma8e4efb2c7" x="686.943281" y="100.332812" style="fill: #1f77b4; stroke: #000000; stroke-linejoin: miter"/>
     </g>
    </g>
    <g id="text_40">
     <!-- DUL15±SD (n=295) -->
     <g transform="translate(704.943281 103.832812) scale(0.1 -0.1)">
      <use xlink:href="#DejaVuSans-44"/>
      <use xlink:href="#DejaVuSans-55" transform="translate(77.001953 0)"/>
      <use xlink:href="#DejaVuSans-4c" transform="translate(150.195312 0)"/>
      <use xlink:href="#DejaVuSans-31" transform="translate(205.908203 0)"/>
      <use xlink:href="#DejaVuSans-35" transform="translate(269.53125 0)"/>
      <use xlink:href="#DejaVuSans-b1" transform="translate(333.154297 0)"/>
      <use xlink:href="#DejaVuSans-53" transform="translate(416.943359 0)"/>
      <use xlink:href="#DejaVuSans-44" transform="translate(480.419922 0)"/>
      <use xlink:href="#DejaVuSans-20" transform="translate(557.421875 0)"/>
      <use xlink:href="#DejaVuSans-28" transform="translate(589.208984 0)"/>
      <use xlink:href="#DejaVuSans-6e" transform="translate(628.222656 0)"/>
      <use xlink:href="#DejaVuSans-3d" transform="translate(691.601562 0)"/>
      <use xlink:href="#DejaVuSans-32" transform="translate(775.390625 0)"/>
      <use xlink:href="#DejaVuSans-39" transform="translate(839.013672 0)"/>
      <use xlink:href="#DejaVuSans-35" transform="translate(902.636719 0)"/>
      <use xlink:href="#DejaVuSans-29" transform="translate(966.259766 0)"/>
     </g>
    </g>
   </g>
  </g>
  <g id="axes_3">
   <g id="patch_14">
    <path d="M 918.485469 320.4 
L 1243.985469 320.4 
L 1243.985469 43.2 
L 918.485469 43.2 
z
" style="fill: #ffffff"/>
   </g>
   <g id="matplotlib.axis_5">
    <g id="xtick_13">
     <g id="line2d_53">
      <g>
       <use xlink:href="#m4fc68f8d7d" x="933.280923" y="320.4" style="stroke: #000000; stroke-width: 0.8"/>
      </g>
     </g>
     <g id="text_41">
      <!-- 0 -->
      <g transform="translate(928.509048 338.797656) scale(0.15 -0.15)">
       <use xlink:href="#DejaVuSans-30"/>
      </g>
     </g>
    </g>
    <g id="xtick_14">
     <g id="line2d_54">
      <g>
       <use xlink:href="#m4fc68f8d7d" x="989.112827" y="320.4" style="stroke: #000000; stroke-width: 0.8"/>
      </g>
     </g>
     <g id="text_42">
      <!-- 10 -->
      <g transform="translate(979.569077 338.797656) scale(0.15 -0.15)">
       <use xlink:href="#DejaVuSans-31"/>
       <use xlink:href="#DejaVuSans-30" transform="translate(63.623047 0)"/>
      </g>
     </g>
    </g>
    <g id="xtick_15">
     <g id="line2d_55">
      <g>
       <use xlink:href="#m4fc68f8d7d" x="1044.944731" y="320.4" style="stroke: #000000; stroke-width: 0.8"/>
      </g>
     </g>
     <g id="text_43">
      <!-- 20 -->
      <g transform="translate(1035.400981 338.797656) scale(0.15 -0.15)">
       <use xlink:href="#DejaVuSans-32"/>
       <use xlink:href="#DejaVuSans-30" transform="translate(63.623047 0)"/>
      </g>
     </g>
    </g>
    <g id="xtick_16">
     <g id="line2d_56">
      <g>
       <use xlink:href="#m4fc68f8d7d" x="1100.776635" y="320.4" style="stroke: #000000; stroke-width: 0.8"/>
      </g>
     </g>
     <g id="text_44">
      <!-- 30 -->
      <g transform="translate(1091.232885 338.797656) scale(0.15 -0.15)">
       <use xlink:href="#DejaVuSans-33"/>
       <use xlink:href="#DejaVuSans-30" transform="translate(63.623047 0)"/>
      </g>
     </g>
    </g>
    <g id="xtick_17">
     <g id="line2d_57">
      <g>
       <use xlink:href="#m4fc68f8d7d" x="1156.608539" y="320.4" style="stroke: #000000; stroke-width: 0.8"/>
      </g>
     </g>
     <g id="text_45">
      <!-- 40 -->
      <g transform="translate(1147.064789 338.797656) scale(0.15 -0.15)">
       <use xlink:href="#DejaVuSans-34"/>
       <use xlink:href="#DejaVuSans-30" transform="translate(63.623047 0)"/>
      </g>
     </g>
    </g>
    <g id="xtick_18">
     <g id="line2d_58">
      <g>
       <use xlink:href="#m4fc68f8d7d" x="1212.440443" y="320.4" style="stroke: #000000; stroke-width: 0.8"/>
      </g>
     </g>
     <g id="text_46">
      <!-- 50 -->
      <g transform="translate(1202.896693 338.797656) scale(0.15 -0.15)">
       <use xlink:href="#DejaVuSans-35"/>
       <use xlink:href="#DejaVuSans-30" transform="translate(63.623047 0)"/>
      </g>
     </g>
    </g>
    <g id="text_47">
     <!-- time [week] -->
     <g transform="translate(1020.496719 359.594375) scale(0.18 -0.18)">
      <use xlink:href="#DejaVuSans-Bold-74"/>
      <use xlink:href="#DejaVuSans-Bold-69" transform="translate(47.802734 0)"/>
      <use xlink:href="#DejaVuSans-Bold-6d" transform="translate(82.080078 0)"/>
      <use xlink:href="#DejaVuSans-Bold-65" transform="translate(186.279297 0)"/>
      <use xlink:href="#DejaVuSans-Bold-20" transform="translate(254.101562 0)"/>
      <use xlink:href="#DejaVuSans-Bold-5b" transform="translate(288.916016 0)"/>
      <use xlink:href="#DejaVuSans-Bold-77" transform="translate(334.619141 0)"/>
      <use xlink:href="#DejaVuSans-Bold-65" transform="translate(427.001953 0)"/>
      <use xlink:href="#DejaVuSans-Bold-65" transform="translate(494.824219 0)"/>
      <use xlink:href="#DejaVuSans-Bold-6b" transform="translate(562.646484 0)"/>
      <use xlink:href="#DejaVuSans-Bold-5d" transform="translate(629.150391 0)"/>
     </g>
    </g>
   </g>
   <g id="matplotlib.axis_6">
    <g id="ytick_17">
     <g id="line2d_59">
      <g>
       <use xlink:href="#m51a4a6c141" x="918.485469" y="317.058351" style="stroke: #000000; stroke-width: 0.8"/>
      </g>
     </g>
     <g id="text_48">
      <!-- −4 -->
      <g transform="translate(889.372187 322.757179) scale(0.15 -0.15)">
       <use xlink:href="#DejaVuSans-2212"/>
       <use xlink:href="#DejaVuSans-34" transform="translate(83.789062 0)"/>
      </g>
     </g>
    </g>
    <g id="ytick_18">
     <g id="line2d_60">
      <g>
       <use xlink:href="#m51a4a6c141" x="918.485469" y="268.966492" style="stroke: #000000; stroke-width: 0.8"/>
      </g>
     </g>
     <g id="text_49">
      <!-- −2 -->
      <g transform="translate(889.372187 274.66532) scale(0.15 -0.15)">
       <use xlink:href="#DejaVuSans-2212"/>
       <use xlink:href="#DejaVuSans-32" transform="translate(83.789062 0)"/>
      </g>
     </g>
    </g>
    <g id="ytick_19">
     <g id="line2d_61">
      <g>
       <use xlink:href="#m51a4a6c141" x="918.485469" y="220.874633" style="stroke: #000000; stroke-width: 0.8"/>
      </g>
     </g>
     <g id="text_50">
      <!-- 0 -->
      <g transform="translate(901.941719 226.573461) scale(0.15 -0.15)">
       <use xlink:href="#DejaVuSans-30"/>
      </g>
     </g>
    </g>
    <g id="ytick_20">
     <g id="line2d_62">
      <g>
       <use xlink:href="#m51a4a6c141" x="918.485469" y="172.782774" style="stroke: #000000; stroke-width: 0.8"/>
      </g>
     </g>
     <g id="text_51">
      <!-- 2 -->
      <g transform="translate(901.941719 178.481602) scale(0.15 -0.15)">
       <use xlink:href="#DejaVuSans-32"/>
      </g>
     </g>
    </g>
    <g id="ytick_21">
     <g id="line2d_63">
      <g>
       <use xlink:href="#m51a4a6c141" x="918.485469" y="124.690915" style="stroke: #000000; stroke-width: 0.8"/>
      </g>
     </g>
     <g id="text_52">
      <!-- 4 -->
      <g transform="translate(901.941719 130.389743) scale(0.15 -0.15)">
       <use xlink:href="#DejaVuSans-34"/>
      </g>
     </g>
    </g>
    <g id="ytick_22">
     <g id="line2d_64">
      <g>
       <use xlink:href="#m51a4a6c141" x="918.485469" y="76.599056" style="stroke: #000000; stroke-width: 0.8"/>
      </g>
     </g>
     <g id="text_53">
      <!-- 6 -->
      <g transform="translate(901.941719 82.297885) scale(0.15 -0.15)">
       <use xlink:href="#DejaVuSans-36"/>
      </g>
     </g>
    </g>
    <g id="text_54">
     <!-- bodyweight change [kg] -->
     <g transform="translate(881.488125 305.078906) rotate(-90) scale(0.18 -0.18)">
      <defs>
       <path id="DejaVuSans-Bold-6f" d="M 2203 2784 
Q 1831 2784 1636 2517 
Q 1441 2250 1441 1747 
Q 1441 1244 1636 976 
Q 1831 709 2203 709 
Q 2569 709 2762 976 
Q 2956 1244 2956 1747 
Q 2956 2250 2762 2517 
Q 2569 2784 2203 2784 
z
M 2203 3584 
Q 3106 3584 3614 3096 
Q 4122 2609 4122 1747 
Q 4122 884 3614 396 
Q 3106 -91 2203 -91 
Q 1297 -91 786 396 
Q 275 884 275 1747 
Q 275 2609 786 3096 
Q 1297 3584 2203 3584 
z
" transform="scale(0.015625)"/>
       <path id="DejaVuSans-Bold-64" d="M 2919 2988 
L 2919 4863 
L 4044 4863 
L 4044 0 
L 2919 0 
L 2919 506 
Q 2688 197 2409 53 
Q 2131 -91 1766 -91 
Q 1119 -91 703 423 
Q 288 938 288 1747 
Q 288 2556 703 3070 
Q 1119 3584 1766 3584 
Q 2128 3584 2408 3439 
Q 2688 3294 2919 2988 
z
M 2181 722 
Q 2541 722 2730 984 
Q 2919 1247 2919 1747 
Q 2919 2247 2730 2509 
Q 2541 2772 2181 2772 
Q 1825 2772 1636 2509 
Q 1447 2247 1447 1747 
Q 1447 1247 1636 984 
Q 1825 722 2181 722 
z
" transform="scale(0.015625)"/>
       <path id="DejaVuSans-Bold-79" d="M 78 3500 
L 1197 3500 
L 2138 1125 
L 2938 3500 
L 4056 3500 
L 2584 -331 
Q 2363 -916 2067 -1148 
Q 1772 -1381 1288 -1381 
L 641 -1381 
L 641 -647 
L 991 -647 
Q 1275 -647 1404 -556 
Q 1534 -466 1606 -231 
L 1638 -134 
L 78 3500 
z
" transform="scale(0.015625)"/>
      </defs>
      <use xlink:href="#DejaVuSans-Bold-62"/>
      <use xlink:href="#DejaVuSans-Bold-6f" transform="translate(71.582031 0)"/>
      <use xlink:href="#DejaVuSans-Bold-64" transform="translate(140.283203 0)"/>
      <use xlink:href="#DejaVuSans-Bold-79" transform="translate(211.865234 0)"/>
      <use xlink:href="#DejaVuSans-Bold-77" transform="translate(277.050781 0)"/>
      <use xlink:href="#DejaVuSans-Bold-65" transform="translate(369.433594 0)"/>
      <use xlink:href="#DejaVuSans-Bold-69" transform="translate(437.255859 0)"/>
      <use xlink:href="#DejaVuSans-Bold-67" transform="translate(471.533203 0)"/>
      <use xlink:href="#DejaVuSans-Bold-68" transform="translate(543.115234 0)"/>
      <use xlink:href="#DejaVuSans-Bold-74" transform="translate(614.306641 0)"/>
      <use xlink:href="#DejaVuSans-Bold-20" transform="translate(662.109375 0)"/>
      <use xlink:href="#DejaVuSans-Bold-63" transform="translate(696.923828 0)"/>
      <use xlink:href="#DejaVuSans-Bold-68" transform="translate(756.201172 0)"/>
      <use xlink:href="#DejaVuSans-Bold-61" transform="translate(827.392578 0)"/>
      <use xlink:href="#DejaVuSans-Bold-6e" transform="translate(894.873047 0)"/>
      <use xlink:href="#DejaVuSans-Bold-67" transform="translate(966.064453 0)"/>
      <use xlink:href="#DejaVuSans-Bold-65" transform="translate(1037.646484 0)"/>
      <use xlink:href="#DejaVuSans-Bold-20" transform="translate(1105.46875 0)"/>
      <use xlink:href="#DejaVuSans-Bold-5b" transform="translate(1140.283203 0)"/>
      <use xlink:href="#DejaVuSans-Bold-6b" transform="translate(1185.986328 0)"/>
      <use xlink:href="#DejaVuSans-Bold-67" transform="translate(1252.490234 0)"/>
      <use xlink:href="#DejaVuSans-Bold-5d" transform="translate(1324.072266 0)"/>
     </g>
    </g>
   </g>
   <g id="LineCollection_9">
    <path clip-path="url(#p7358b7041d)" style="fill: none; stroke: #2ca02c"/>
    <path d="M 944.447304 279.760176 
L 944.447304 199.260282 
" clip-path="url(#p7358b7041d)" style="fill: none; stroke: #2ca02c"/>
    <path d="M 955.613685 287.962525 
L 955.613685 193.462525 
" clip-path="url(#p7358b7041d)" style="fill: none; stroke: #2ca02c"/>
    <path d="M 966.780066 291.956838 
L 966.780066 183.456731 
" clip-path="url(#p7358b7041d)" style="fill: none; stroke: #2ca02c"/>
    <path d="M 977.946446 297.099895 
L 977.946446 171.099895 
" clip-path="url(#p7358b7041d)" style="fill: none; stroke: #2ca02c"/>
    <path d="M 1005.862398 305.088359 
L 1005.862398 151.088466 
" clip-path="url(#p7358b7041d)" style="fill: none; stroke: #2ca02c"/>
    <path d="M 1039.361541 298.609212 
L 1039.361541 127.109425 
" clip-path="url(#p7358b7041d)" style="fill: none; stroke: #2ca02c"/>
    <path d="M 1078.443874 305.796318 
L 1078.443874 106.296318 
" clip-path="url(#p7358b7041d)" style="fill: none; stroke: #2ca02c"/>
    <path d="M 1151.025349 301.561509 
L 1151.025349 74.061455 
" clip-path="url(#p7358b7041d)" style="fill: none; stroke: #2ca02c"/>
    <path d="M 1223.606824 307.8 
L 1223.606824 55.8 
" clip-path="url(#p7358b7041d)" style="fill: none; stroke: #2ca02c"/>
   </g>
   <g id="LineCollection_10">
    <path clip-path="url(#p7358b7041d)" style="fill: none; stroke: #1f77b4"/>
    <path d="M 944.447304 268.997855 
L 944.447304 226.854754 
" clip-path="url(#p7358b7041d)" style="fill: none; stroke: #1f77b4"/>
    <path d="M 955.613685 276.116696 
L 955.613685 226.949691 
" clip-path="url(#p7358b7041d)" style="fill: none; stroke: #1f77b4"/>
    <path d="M 966.780066 278.502742 
L 966.780066 220.555978 
" clip-path="url(#p7358b7041d)" style="fill: none; stroke: #1f77b4"/>
    <path d="M 977.946446 277.482287 
L 977.946446 210.755764 
" clip-path="url(#p7358b7041d)" style="fill: none; stroke: #1f77b4"/>
    <path d="M 1005.862398 287.111173 
L 1005.862398 206.336842 
" clip-path="url(#p7358b7041d)" style="fill: none; stroke: #1f77b4"/>
    <path d="M 1039.361541 282.112032 
L 1039.361541 187.290055 
" clip-path="url(#p7358b7041d)" style="fill: none; stroke: #1f77b4"/>
    <path d="M 1078.443874 284.898936 
L 1078.443874 181.297039 
" clip-path="url(#p7358b7041d)" style="fill: none; stroke: #1f77b4"/>
    <path d="M 1151.025349 279.021787 
L 1151.025349 163.128259 
" clip-path="url(#p7358b7041d)" style="fill: none; stroke: #1f77b4"/>
    <path d="M 1223.606824 279.986699 
L 1223.606824 146.533493 
" clip-path="url(#p7358b7041d)" style="fill: none; stroke: #1f77b4"/>
   </g>
   <g id="line2d_65">
    <path d="M 933.280923 220.874633 
L 1229.190014 220.874633 
L 1229.190014 220.874633 
" clip-path="url(#p7358b7041d)" style="fill: none; stroke: #2ca02c; stroke-width: 2; stroke-linecap: square"/>
   </g>
   <g id="line2d_66">
    <path d="M 933.280923 220.874633 
L 944.447304 239.510229 
L 955.613685 240.712525 
L 966.780066 237.706784 
L 977.946446 234.099895 
L 1005.862398 228.088413 
L 1039.361541 212.859319 
L 1078.443874 206.046318 
L 1151.025349 187.811482 
L 1223.606824 181.8 
" clip-path="url(#p7358b7041d)" style="fill: none; stroke-dasharray: 3.7,1.6; stroke-dashoffset: 0; stroke: #2ca02c"/>
    <g clip-path="url(#p7358b7041d)">
     <use xlink:href="#m7993c6106c" x="933.280923" y="220.874633" style="fill: #2ca02c; stroke: #000000; stroke-linejoin: miter"/>
     <use xlink:href="#m7993c6106c" x="944.447304" y="239.510229" style="fill: #2ca02c; stroke: #000000; stroke-linejoin: miter"/>
     <use xlink:href="#m7993c6106c" x="955.613685" y="240.712525" style="fill: #2ca02c; stroke: #000000; stroke-linejoin: miter"/>
     <use xlink:href="#m7993c6106c" x="966.780066" y="237.706784" style="fill: #2ca02c; stroke: #000000; stroke-linejoin: miter"/>
     <use xlink:href="#m7993c6106c" x="977.946446" y="234.099895" style="fill: #2ca02c; stroke: #000000; stroke-linejoin: miter"/>
     <use xlink:href="#m7993c6106c" x="1005.862398" y="228.088413" style="fill: #2ca02c; stroke: #000000; stroke-linejoin: miter"/>
     <use xlink:href="#m7993c6106c" x="1039.361541" y="212.859319" style="fill: #2ca02c; stroke: #000000; stroke-linejoin: miter"/>
     <use xlink:href="#m7993c6106c" x="1078.443874" y="206.046318" style="fill: #2ca02c; stroke: #000000; stroke-linejoin: miter"/>
     <use xlink:href="#m7993c6106c" x="1151.025349" y="187.811482" style="fill: #2ca02c; stroke: #000000; stroke-linejoin: miter"/>
     <use xlink:href="#m7993c6106c" x="1223.606824" y="181.8" style="fill: #2ca02c; stroke: #000000; stroke-linejoin: miter"/>
    </g>
   </g>
   <g id="line2d_67">
    <path d="M 933.280923 220.874633 
L 1229.190014 220.874633 
L 1229.190014 220.874633 
" clip-path="url(#p7358b7041d)" style="fill: none; stroke: #1f77b4; stroke-width: 2; stroke-linecap: square"/>
   </g>
   <g id="line2d_68">
    <path d="M 933.280923 220.874633 
L 944.447304 247.926304 
L 955.613685 251.533193 
L 966.780066 249.52936 
L 977.946446 244.119026 
L 1005.862398 246.724008 
L 1039.361541 234.701043 
L 1078.443874 233.097987 
L 1151.025349 221.075023 
L 1223.606824 213.260096 
" clip-path="url(#p7358b7041d)" style="fill: none; stroke-dasharray: 3.7,1.6; stroke-dashoffset: 0; stroke: #1f77b4"/>
    <g clip-path="url(#p7358b7041d)">
     <use xlink:href="#ma8e4efb2c7" x="933.280923" y="220.874633" style="fill: #1f77b4; stroke: #000000; stroke-linejoin: miter"/>
     <use xlink:href="#ma8e4efb2c7" x="944.447304" y="247.926304" style="fill: #1f77b4; stroke: #000000; stroke-linejoin: miter"/>
     <use xlink:href="#ma8e4efb2c7" x="955.613685" y="251.533193" style="fill: #1f77b4; stroke: #000000; stroke-linejoin: miter"/>
     <use xlink:href="#ma8e4efb2c7" x="966.780066" y="249.52936" style="fill: #1f77b4; stroke: #000000; stroke-linejoin: miter"/>
     <use xlink:href="#ma8e4efb2c7" x="977.946446" y="244.119026" style="fill: #1f77b4; stroke: #000000; stroke-linejoin: miter"/>
     <use xlink:href="#ma8e4efb2c7" x="1005.862398" y="246.724008" style="fill: #1f77b4; stroke: #000000; stroke-linejoin: miter"/>
     <use xlink:href="#ma8e4efb2c7" x="1039.361541" y="234.701043" style="fill: #1f77b4; stroke: #000000; stroke-linejoin: miter"/>
     <use xlink:href="#ma8e4efb2c7" x="1078.443874" y="233.097987" style="fill: #1f77b4; stroke: #000000; stroke-linejoin: miter"/>
     <use xlink:href="#ma8e4efb2c7" x="1151.025349" y="221.075023" style="fill: #1f77b4; stroke: #000000; stroke-linejoin: miter"/>
     <use xlink:href="#ma8e4efb2c7" x="1223.606824" y="213.260096" style="fill: #1f77b4; stroke: #000000; stroke-linejoin: miter"/>
    </g>
   </g>
   <g id="patch_15">
    <path d="M 918.485469 320.4 
L 918.485469 43.2 
" style="fill: none; stroke: #000000; stroke-width: 0.8; stroke-linejoin: miter; stroke-linecap: square"/>
   </g>
   <g id="patch_16">
    <path d="M 1243.985469 320.4 
L 1243.985469 43.2 
" style="fill: none; stroke: #000000; stroke-width: 0.8; stroke-linejoin: miter; stroke-linecap: square"/>
   </g>
   <g id="patch_17">
    <path d="M 918.485469 320.4 
L 1243.985469 320.4 
" style="fill: none; stroke: #000000; stroke-width: 0.8; stroke-linejoin: miter; stroke-linecap: square"/>
   </g>
   <g id="patch_18">
    <path d="M 918.485469 43.2 
L 1243.985469 43.2 
" style="fill: none; stroke: #000000; stroke-width: 0.8; stroke-linejoin: miter; stroke-linecap: square"/>
   </g>
   <g id="legend_3">
    <g id="patch_19">
     <path d="M 1098.093281 109.9125 
L 1236.985469 109.9125 
Q 1238.985469 109.9125 1238.985469 107.9125 
L 1238.985469 50.2 
Q 1238.985469 48.2 1236.985469 48.2 
L 1098.093281 48.2 
Q 1096.093281 48.2 1096.093281 50.2 
L 1096.093281 107.9125 
Q 1096.093281 109.9125 1098.093281 109.9125 
z
" style="fill: #ffffff; opacity: 0.8; stroke: #cccccc; stroke-linejoin: miter"/>
    </g>
    <g id="line2d_69">
     <path d="M 1100.093281 56.298437 
L 1120.093281 56.298437 
" style="fill: none; stroke: #2ca02c; stroke-width: 2; stroke-linecap: square"/>
    </g>
    <g id="line2d_70"/>
    <g id="text_55">
     <!-- DUL075 -->
     <g transform="translate(1128.093281 59.798437) scale(0.1 -0.1)">
      <use xlink:href="#DejaVuSans-44"/>
      <use xlink:href="#DejaVuSans-55" transform="translate(77.001953 0)"/>
      <use xlink:href="#DejaVuSans-4c" transform="translate(150.195312 0)"/>
      <use xlink:href="#DejaVuSans-30" transform="translate(205.908203 0)"/>
      <use xlink:href="#DejaVuSans-37" transform="translate(269.53125 0)"/>
      <use xlink:href="#DejaVuSans-35" transform="translate(333.154297 0)"/>
     </g>
    </g>
    <g id="LineCollection_11">
     <path d="M 1110.093281 75.976562 
L 1110.093281 65.976562 
" style="fill: none; stroke: #2ca02c"/>
    </g>
    <g id="line2d_71">
     <path d="M 1100.093281 70.976562 
L 1120.093281 70.976562 
" style="fill: none; stroke-dasharray: 3.7,1.6; stroke-dashoffset: 0; stroke: #2ca02c"/>
    </g>
    <g id="line2d_72">
     <g>
      <use xlink:href="#m7993c6106c" x="1110.093281" y="70.976562" style="fill: #2ca02c; stroke: #000000; stroke-linejoin: miter"/>
     </g>
    </g>
    <g id="text_56">
     <!-- DUL075±SD (n=293) -->
     <g transform="translate(1128.093281 74.476562) scale(0.1 -0.1)">
      <use xlink:href="#DejaVuSans-44"/>
      <use xlink:href="#DejaVuSans-55" transform="translate(77.001953 0)"/>
      <use xlink:href="#DejaVuSans-4c" transform="translate(150.195312 0)"/>
      <use xlink:href="#DejaVuSans-30" transform="translate(205.908203 0)"/>
      <use xlink:href="#DejaVuSans-37" transform="translate(269.53125 0)"/>
      <use xlink:href="#DejaVuSans-35" transform="translate(333.154297 0)"/>
      <use xlink:href="#DejaVuSans-b1" transform="translate(396.777344 0)"/>
      <use xlink:href="#DejaVuSans-53" transform="translate(480.566406 0)"/>
      <use xlink:href="#DejaVuSans-44" transform="translate(544.042969 0)"/>
      <use xlink:href="#DejaVuSans-20" transform="translate(621.044922 0)"/>
      <use xlink:href="#DejaVuSans-28" transform="translate(652.832031 0)"/>
      <use xlink:href="#DejaVuSans-6e" transform="translate(691.845703 0)"/>
      <use xlink:href="#DejaVuSans-3d" transform="translate(755.224609 0)"/>
      <use xlink:href="#DejaVuSans-32" transform="translate(839.013672 0)"/>
      <use xlink:href="#DejaVuSans-39" transform="translate(902.636719 0)"/>
      <use xlink:href="#DejaVuSans-33" transform="translate(966.259766 0)"/>
      <use xlink:href="#DejaVuSans-29" transform="translate(1029.882812 0)"/>
     </g>
    </g>
    <g id="line2d_73">
     <path d="M 1100.093281 85.654687 
L 1120.093281 85.654687 
" style="fill: none; stroke: #1f77b4; stroke-width: 2; stroke-linecap: square"/>
    </g>
    <g id="line2d_74"/>
    <g id="text_57">
     <!-- DUL15 -->
     <g transform="translate(1128.093281 89.154687) scale(0.1 -0.1)">
      <use xlink:href="#DejaVuSans-44"/>
      <use xlink:href="#DejaVuSans-55" transform="translate(77.001953 0)"/>
      <use xlink:href="#DejaVuSans-4c" transform="translate(150.195312 0)"/>
      <use xlink:href="#DejaVuSans-31" transform="translate(205.908203 0)"/>
      <use xlink:href="#DejaVuSans-35" transform="translate(269.53125 0)"/>
     </g>
    </g>
    <g id="LineCollection_12">
     <path d="M 1110.093281 105.332812 
L 1110.093281 95.332812 
" style="fill: none; stroke: #1f77b4"/>
    </g>
    <g id="line2d_75">
     <path d="M 1100.093281 100.332812 
L 1120.093281 100.332812 
" style="fill: none; stroke-dasharray: 3.7,1.6; stroke-dashoffset: 0; stroke: #1f77b4"/>
    </g>
    <g id="line2d_76">
     <g>
      <use xlink:href="#ma8e4efb2c7" x="1110.093281" y="100.332812" style="fill: #1f77b4; stroke: #000000; stroke-linejoin: miter"/>
     </g>
    </g>
    <g id="text_58">
     <!-- DUL15±SD (n=295) -->
     <g transform="translate(1128.093281 103.832812) scale(0.1 -0.1)">
      <use xlink:href="#DejaVuSans-44"/>
      <use xlink:href="#DejaVuSans-55" transform="translate(77.001953 0)"/>
      <use xlink:href="#DejaVuSans-4c" transform="translate(150.195312 0)"/>
      <use xlink:href="#DejaVuSans-31" transform="translate(205.908203 0)"/>
      <use xlink:href="#DejaVuSans-35" transform="translate(269.53125 0)"/>
      <use xlink:href="#DejaVuSans-b1" transform="translate(333.154297 0)"/>
      <use xlink:href="#DejaVuSans-53" transform="translate(416.943359 0)"/>
      <use xlink:href="#DejaVuSans-44" transform="translate(480.419922 0)"/>
      <use xlink:href="#DejaVuSans-20" transform="translate(557.421875 0)"/>
      <use xlink:href="#DejaVuSans-28" transform="translate(589.208984 0)"/>
      <use xlink:href="#DejaVuSans-6e" transform="translate(628.222656 0)"/>
      <use xlink:href="#DejaVuSans-3d" transform="translate(691.601562 0)"/>
      <use xlink:href="#DejaVuSans-32" transform="translate(775.390625 0)"/>
      <use xlink:href="#DejaVuSans-39" transform="translate(839.013672 0)"/>
      <use xlink:href="#DejaVuSans-35" transform="translate(902.636719 0)"/>
      <use xlink:href="#DejaVuSans-29" transform="translate(966.259766 0)"/>
     </g>
    </g>
   </g>
  </g>
  <g id="text_59">
   <!-- Blonde2015 -->
   <g transform="translate(555.671797 26.196094) scale(0.25 -0.25)">
    <defs>
     <path id="DejaVuSans-Bold-42" d="M 2456 2859 
Q 2741 2859 2887 2984 
Q 3034 3109 3034 3353 
Q 3034 3594 2887 3720 
Q 2741 3847 2456 3847 
L 1791 3847 
L 1791 2859 
L 2456 2859 
z
M 2497 819 
Q 2859 819 3042 972 
Q 3225 1125 3225 1434 
Q 3225 1738 3044 1889 
Q 2863 2041 2497 2041 
L 1791 2041 
L 1791 819 
L 2497 819 
z
M 3616 2497 
Q 4003 2384 4215 2081 
Q 4428 1778 4428 1338 
Q 4428 663 3972 331 
Q 3516 0 2584 0 
L 588 0 
L 588 4666 
L 2394 4666 
Q 3366 4666 3802 4372 
Q 4238 4078 4238 3431 
Q 4238 3091 4078 2852 
Q 3919 2613 3616 2497 
z
" transform="scale(0.015625)"/>
     <path id="DejaVuSans-Bold-6c" d="M 538 4863 
L 1656 4863 
L 1656 0 
L 538 0 
L 538 4863 
z
" transform="scale(0.015625)"/>
     <path id="DejaVuSans-Bold-32" d="M 1844 884 
L 3897 884 
L 3897 0 
L 506 0 
L 506 884 
L 2209 2388 
Q 2438 2594 2547 2791 
Q 2656 2988 2656 3200 
Q 2656 3528 2436 3728 
Q 2216 3928 1850 3928 
Q 1569 3928 1234 3808 
Q 900 3688 519 3450 
L 519 4475 
Q 925 4609 1322 4679 
Q 1719 4750 2100 4750 
Q 2938 4750 3402 4381 
Q 3866 4013 3866 3353 
Q 3866 2972 3669 2642 
Q 3472 2313 2841 1759 
L 1844 884 
z
" transform="scale(0.015625)"/>
     <path id="DejaVuSans-Bold-30" d="M 2944 2338 
Q 2944 3213 2780 3570 
Q 2616 3928 2228 3928 
Q 1841 3928 1675 3570 
Q 1509 3213 1509 2338 
Q 1509 1453 1675 1090 
Q 1841 728 2228 728 
Q 2613 728 2778 1090 
Q 2944 1453 2944 2338 
z
M 4147 2328 
Q 4147 1169 3647 539 
Q 3147 -91 2228 -91 
Q 1306 -91 806 539 
Q 306 1169 306 2328 
Q 306 3491 806 4120 
Q 1306 4750 2228 4750 
Q 3147 4750 3647 4120 
Q 4147 3491 4147 2328 
z
" transform="scale(0.015625)"/>
     <path id="DejaVuSans-Bold-35" d="M 678 4666 
L 3669 4666 
L 3669 3781 
L 1638 3781 
L 1638 3059 
Q 1775 3097 1914 3117 
Q 2053 3138 2203 3138 
Q 3056 3138 3531 2711 
Q 4006 2284 4006 1522 
Q 4006 766 3489 337 
Q 2972 -91 2053 -91 
Q 1656 -91 1267 -14 
Q 878 63 494 219 
L 494 1166 
Q 875 947 1217 837 
Q 1559 728 1863 728 
Q 2300 728 2551 942 
Q 2803 1156 2803 1522 
Q 2803 1891 2551 2103 
Q 2300 2316 1863 2316 
Q 1603 2316 1309 2248 
Q 1016 2181 678 2041 
L 678 4666 
z
" transform="scale(0.015625)"/>
    </defs>
    <use xlink:href="#DejaVuSans-Bold-42"/>
    <use xlink:href="#DejaVuSans-Bold-6c" transform="translate(76.220703 0)"/>
    <use xlink:href="#DejaVuSans-Bold-6f" transform="translate(110.498047 0)"/>
    <use xlink:href="#DejaVuSans-Bold-6e" transform="translate(179.199219 0)"/>
    <use xlink:href="#DejaVuSans-Bold-64" transform="translate(250.390625 0)"/>
    <use xlink:href="#DejaVuSans-Bold-65" transform="translate(321.972656 0)"/>
    <use xlink:href="#DejaVuSans-Bold-32" transform="translate(389.794922 0)"/>
    <use xlink:href="#DejaVuSans-Bold-30" transform="translate(459.375 0)"/>
    <use xlink:href="#DejaVuSans-Bold-31" transform="translate(528.955078 0)"/>
    <use xlink:href="#DejaVuSans-Bold-35" transform="translate(598.535156 0)"/>
   </g>
  </g>
 </g>
 <defs>
  <clipPath id="pf0d56a4dd1">
   <rect x="72.185469" y="43.2" width="325.5" height="277.2"/>
  </clipPath>
  <clipPath id="p7548075f18">
   <rect x="495.335469" y="43.2" width="325.5" height="277.2"/>
  </clipPath>
  <clipPath id="p7358b7041d">
   <rect x="918.485469" y="43.2" width="325.5" height="277.2"/>
  </clipPath>
 </defs>
</svg>
