<?xml version="1.0" encoding="utf-8" standalone="no"?>
<!DOCTYPE svg PUBLIC "-//W3C//DTD SVG 1.1//EN"
  "http://www.w3.org/Graphics/SVG/1.1/DTD/svg11.dtd">
<svg xmlns:xlink="http://www.w3.org/1999/xlink" width="455.674531pt" height="370.537812pt" viewBox="0 0 455.674531 370.537812" xmlns="http://www.w3.org/2000/svg" version="1.1">
 <metadata>
  <rdf:RDF xmlns:dc="http://purl.org/dc/elements/1.1/" xmlns:cc="http://creativecommons.org/ns#" xmlns:rdf="http://www.w3.org/1999/02/22-rdf-syntax-ns#">
   <cc:Work>
    <dc:type rdf:resource="http://purl.org/dc/dcmitype/StillImage"/>
    <dc:date>2026-01-30T14:57:10.222394</dc:date>
    <dc:format>image/svg+xml</dc:format>
    <dc:creator>
     <cc:Agent>
      <dc:title>Matplotlib v3.10.7, https://matplotlib.org/</dc:title>
     </cc:Agent>
    </dc:creator>
   </cc:Work>
  </rdf:RDF>
 </metadata>
 <defs>
  <style type="text/css">*{stroke-linejoin: round; stroke-linecap: butt}</style>
 </defs>
 <g id="figure_1">
  <g id="patch_1">
   <path d="M 0 370.537812 
L 455.674531 370.537812 
L 455.674531 0 
L 0 0 
z
" style="fill: #ffffff"/>
  </g>
  <g id="axes_1">
   <g id="patch_2">
    <path d="M 57.874531 320.4 
L 448.474531 320.4 
L 448.474531 43.2 
L 57.874531 43.2 
z
" style="fill: #ffffff"/>
   </g>
   <g id="matplotlib.axis_1">
    <g id="xtick_1">
     <g id="line2d_1">
      <defs>
       <path id="ma886ecb5bd" d="M 0 0 
L 0 3.5 
" style="stroke: #000000; stroke-width: 0.8"/>
      </defs>
      <g>
       <use xlink:href="#ma886ecb5bd" x="75.629077" y="320.4" style="stroke: #000000; stroke-width: 0.8"/>
      </g>
     </g>
     <g id="text_1">
      <!-- 0 -->
      <g transform="translate(70.857202 338.797656) scale(0.15 -0.15)">
       <defs>
        <path id="DejaVuSans-30" d="M 2034 4250 
Q 1547 4250 1301 3770 
Q 1056 3291 1056 2328 
Q 1056 1369 1301 889 
Q 1547 409 2034 409 
Q 2525 409 2770 889 
Q 3016 1369 3016 2328 
Q 3016 3291 2770 3770 
Q 2525 4250 2034 4250 
z
M 2034 4750 
Q 2819 4750 3233 4129 
Q 3647 3509 3647 2328 
Q 3647 1150 3233 529 
Q 2819 -91 2034 -91 
Q 1250 -91 836 529 
Q 422 1150 422 2328 
Q 422 3509 836 4129 
Q 1250 4750 2034 4750 
z
" transform="scale(0.015625)"/>
       </defs>
       <use xlink:href="#DejaVuSans-30"/>
      </g>
     </g>
    </g>
    <g id="xtick_2">
     <g id="line2d_2">
      <g>
       <use xlink:href="#ma886ecb5bd" x="146.647259" y="320.4" style="stroke: #000000; stroke-width: 0.8"/>
      </g>
     </g>
     <g id="text_2">
      <!-- 5 -->
      <g transform="translate(141.875384 338.797656) scale(0.15 -0.15)">
       <defs>
        <path id="DejaVuSans-35" d="M 691 4666 
L 3169 4666 
L 3169 4134 
L 1269 4134 
L 1269 2991 
Q 1406 3038 1543 3061 
Q 1681 3084 1819 3084 
Q 2600 3084 3056 2656 
Q 3513 2228 3513 1497 
Q 3513 744 3044 326 
Q 2575 -91 1722 -91 
Q 1428 -91 1123 -41 
Q 819 9 494 109 
L 494 744 
Q 775 591 1075 516 
Q 1375 441 1709 441 
Q 2250 441 2565 725 
Q 2881 1009 2881 1497 
Q 2881 1984 2565 2268 
Q 2250 2553 1709 2553 
Q 1456 2553 1204 2497 
Q 953 2441 691 2322 
L 691 4666 
z
" transform="scale(0.015625)"/>
       </defs>
       <use xlink:href="#DejaVuSans-35"/>
      </g>
     </g>
    </g>
    <g id="xtick_3">
     <g id="line2d_3">
      <g>
       <use xlink:href="#ma886ecb5bd" x="217.66544" y="320.4" style="stroke: #000000; stroke-width: 0.8"/>
      </g>
     </g>
     <g id="text_3">
      <!-- 10 -->
      <g transform="translate(208.12169 338.797656) scale(0.15 -0.15)">
       <defs>
        <path id="DejaVuSans-31" d="M 794 531 
L 1825 531 
L 1825 4091 
L 703 3866 
L 703 4441 
L 1819 4666 
L 2450 4666 
L 2450 531 
L 3481 531 
L 3481 0 
L 794 0 
L 794 531 
z
" transform="scale(0.015625)"/>
       </defs>
       <use xlink:href="#DejaVuSans-31"/>
       <use xlink:href="#DejaVuSans-30" transform="translate(63.623047 0)"/>
      </g>
     </g>
    </g>
    <g id="xtick_4">
     <g id="line2d_4">
      <g>
       <use xlink:href="#ma886ecb5bd" x="288.683622" y="320.4" style="stroke: #000000; stroke-width: 0.8"/>
      </g>
     </g>
     <g id="text_4">
      <!-- 15 -->
      <g transform="translate(279.139872 338.797656) scale(0.15 -0.15)">
       <use xlink:href="#DejaVuSans-31"/>
       <use xlink:href="#DejaVuSans-35" transform="translate(63.623047 0)"/>
      </g>
     </g>
    </g>
    <g id="xtick_5">
     <g id="line2d_5">
      <g>
       <use xlink:href="#ma886ecb5bd" x="359.701804" y="320.4" style="stroke: #000000; stroke-width: 0.8"/>
      </g>
     </g>
     <g id="text_5">
      <!-- 20 -->
      <g transform="translate(350.158054 338.797656) scale(0.15 -0.15)">
       <defs>
        <path id="DejaVuSans-32" d="M 1228 531 
L 3431 531 
L 3431 0 
L 469 0 
L 469 531 
Q 828 903 1448 1529 
Q 2069 2156 2228 2338 
Q 2531 2678 2651 2914 
Q 2772 3150 2772 3378 
Q 2772 3750 2511 3984 
Q 2250 4219 1831 4219 
Q 1534 4219 1204 4116 
Q 875 4013 500 3803 
L 500 4441 
Q 881 4594 1212 4672 
Q 1544 4750 1819 4750 
Q 2544 4750 2975 4387 
Q 3406 4025 3406 3419 
Q 3406 3131 3298 2873 
Q 3191 2616 2906 2266 
Q 2828 2175 2409 1742 
Q 1991 1309 1228 531 
z
" transform="scale(0.015625)"/>
       </defs>
       <use xlink:href="#DejaVuSans-32"/>
       <use xlink:href="#DejaVuSans-30" transform="translate(63.623047 0)"/>
      </g>
     </g>
    </g>
    <g id="xtick_6">
     <g id="line2d_6">
      <g>
       <use xlink:href="#ma886ecb5bd" x="430.719986" y="320.4" style="stroke: #000000; stroke-width: 0.8"/>
      </g>
     </g>
     <g id="text_6">
      <!-- 25 -->
      <g transform="translate(421.176236 338.797656) scale(0.15 -0.15)">
       <use xlink:href="#DejaVuSans-32"/>
       <use xlink:href="#DejaVuSans-35" transform="translate(63.623047 0)"/>
      </g>
     </g>
    </g>
    <g id="text_7">
     <!-- time [week] -->
     <g transform="translate(192.435781 359.594375) scale(0.18 -0.18)">
      <defs>
       <path id="DejaVuSans-Bold-74" d="M 1759 4494 
L 1759 3500 
L 2913 3500 
L 2913 2700 
L 1759 2700 
L 1759 1216 
Q 1759 972 1856 886 
Q 1953 800 2241 800 
L 2816 800 
L 2816 0 
L 1856 0 
Q 1194 0 917 276 
Q 641 553 641 1216 
L 641 2700 
L 84 2700 
L 84 3500 
L 641 3500 
L 641 4494 
L 1759 4494 
z
" transform="scale(0.015625)"/>
       <path id="DejaVuSans-Bold-69" d="M 538 3500 
L 1656 3500 
L 1656 0 
L 538 0 
L 538 3500 
z
M 538 4863 
L 1656 4863 
L 1656 3950 
L 538 3950 
L 538 4863 
z
" transform="scale(0.015625)"/>
       <path id="DejaVuSans-Bold-6d" d="M 3781 2919 
Q 3994 3244 4286 3414 
Q 4578 3584 4928 3584 
Q 5531 3584 5847 3212 
Q 6163 2841 6163 2131 
L 6163 0 
L 5038 0 
L 5038 1825 
Q 5041 1866 5042 1909 
Q 5044 1953 5044 2034 
Q 5044 2406 4934 2573 
Q 4825 2741 4581 2741 
Q 4263 2741 4089 2478 
Q 3916 2216 3909 1719 
L 3909 0 
L 2784 0 
L 2784 1825 
Q 2784 2406 2684 2573 
Q 2584 2741 2328 2741 
Q 2006 2741 1831 2477 
Q 1656 2213 1656 1722 
L 1656 0 
L 531 0 
L 531 3500 
L 1656 3500 
L 1656 2988 
Q 1863 3284 2130 3434 
Q 2397 3584 2719 3584 
Q 3081 3584 3359 3409 
Q 3638 3234 3781 2919 
z
" transform="scale(0.015625)"/>
       <path id="DejaVuSans-Bold-65" d="M 4031 1759 
L 4031 1441 
L 1416 1441 
Q 1456 1047 1700 850 
Q 1944 653 2381 653 
Q 2734 653 3104 758 
Q 3475 863 3866 1075 
L 3866 213 
Q 3469 63 3072 -14 
Q 2675 -91 2278 -91 
Q 1328 -91 801 392 
Q 275 875 275 1747 
Q 275 2603 792 3093 
Q 1309 3584 2216 3584 
Q 3041 3584 3536 3087 
Q 4031 2591 4031 1759 
z
M 2881 2131 
Q 2881 2450 2695 2645 
Q 2509 2841 2209 2841 
Q 1884 2841 1681 2658 
Q 1478 2475 1428 2131 
L 2881 2131 
z
" transform="scale(0.015625)"/>
       <path id="DejaVuSans-Bold-20" transform="scale(0.015625)"/>
       <path id="DejaVuSans-Bold-5b" d="M 550 4863 
L 2491 4863 
L 2491 4159 
L 1613 4159 
L 1613 -141 
L 2491 -141 
L 2491 -844 
L 550 -844 
L 550 4863 
z
" transform="scale(0.015625)"/>
       <path id="DejaVuSans-Bold-77" d="M 225 3500 
L 1313 3500 
L 1900 1088 
L 2491 3500 
L 3425 3500 
L 4013 1113 
L 4603 3500 
L 5691 3500 
L 4769 0 
L 3547 0 
L 2956 2406 
L 2369 0 
L 1147 0 
L 225 3500 
z
" transform="scale(0.015625)"/>
       <path id="DejaVuSans-Bold-6b" d="M 538 4863 
L 1656 4863 
L 1656 2216 
L 2944 3500 
L 4244 3500 
L 2534 1894 
L 4378 0 
L 3022 0 
L 1656 1459 
L 1656 0 
L 538 0 
L 538 4863 
z
" transform="scale(0.015625)"/>
       <path id="DejaVuSans-Bold-5d" d="M 2375 -844 
L 434 -844 
L 434 -141 
L 1313 -141 
L 1313 4159 
L 434 4159 
L 434 4863 
L 2375 4863 
L 2375 -844 
z
" transform="scale(0.015625)"/>
      </defs>
      <use xlink:href="#DejaVuSans-Bold-74"/>
      <use xlink:href="#DejaVuSans-Bold-69" transform="translate(47.802734 0)"/>
      <use xlink:href="#DejaVuSans-Bold-6d" transform="translate(82.080078 0)"/>
      <use xlink:href="#DejaVuSans-Bold-65" transform="translate(186.279297 0)"/>
      <use xlink:href="#DejaVuSans-Bold-20" transform="translate(254.101562 0)"/>
      <use xlink:href="#DejaVuSans-Bold-5b" transform="translate(288.916016 0)"/>
      <use xlink:href="#DejaVuSans-Bold-77" transform="translate(334.619141 0)"/>
      <use xlink:href="#DejaVuSans-Bold-65" transform="translate(427.001953 0)"/>
      <use xlink:href="#DejaVuSans-Bold-65" transform="translate(494.824219 0)"/>
      <use xlink:href="#DejaVuSans-Bold-6b" transform="translate(562.646484 0)"/>
      <use xlink:href="#DejaVuSans-Bold-5d" transform="translate(629.150391 0)"/>
     </g>
    </g>
   </g>
   <g id="matplotlib.axis_2">
    <g id="ytick_1">
     <g id="line2d_7">
      <defs>
       <path id="me22c22f502" d="M 0 0 
L -3.5 0 
" style="stroke: #000000; stroke-width: 0.8"/>
      </defs>
      <g>
       <use xlink:href="#me22c22f502" x="57.874531" y="315.579297" style="stroke: #000000; stroke-width: 0.8"/>
      </g>
     </g>
     <g id="text_8">
      <!-- −5 -->
      <g transform="translate(28.76125 321.278125) scale(0.15 -0.15)">
       <defs>
        <path id="DejaVuSans-2212" d="M 678 2272 
L 4684 2272 
L 4684 1741 
L 678 1741 
L 678 2272 
z
" transform="scale(0.015625)"/>
       </defs>
       <use xlink:href="#DejaVuSans-2212"/>
       <use xlink:href="#DejaVuSans-35" transform="translate(83.789062 0)"/>
      </g>
     </g>
    </g>
    <g id="ytick_2">
     <g id="line2d_8">
      <g>
       <use xlink:href="#me22c22f502" x="57.874531" y="281.18293" style="stroke: #000000; stroke-width: 0.8"/>
      </g>
     </g>
     <g id="text_9">
      <!-- 0 -->
      <g transform="translate(41.330781 286.881758) scale(0.15 -0.15)">
       <use xlink:href="#DejaVuSans-30"/>
      </g>
     </g>
    </g>
    <g id="ytick_3">
     <g id="line2d_9">
      <g>
       <use xlink:href="#me22c22f502" x="57.874531" y="246.786563" style="stroke: #000000; stroke-width: 0.8"/>
      </g>
     </g>
     <g id="text_10">
      <!-- 5 -->
      <g transform="translate(41.330781 252.485391) scale(0.15 -0.15)">
       <use xlink:href="#DejaVuSans-35"/>
      </g>
     </g>
    </g>
    <g id="ytick_4">
     <g id="line2d_10">
      <g>
       <use xlink:href="#me22c22f502" x="57.874531" y="212.390195" style="stroke: #000000; stroke-width: 0.8"/>
      </g>
     </g>
     <g id="text_11">
      <!-- 10 -->
      <g transform="translate(31.787031 218.089024) scale(0.15 -0.15)">
       <use xlink:href="#DejaVuSans-31"/>
       <use xlink:href="#DejaVuSans-30" transform="translate(63.623047 0)"/>
      </g>
     </g>
    </g>
    <g id="ytick_5">
     <g id="line2d_11">
      <g>
       <use xlink:href="#me22c22f502" x="57.874531" y="177.993828" style="stroke: #000000; stroke-width: 0.8"/>
      </g>
     </g>
     <g id="text_12">
      <!-- 15 -->
      <g transform="translate(31.787031 183.692657) scale(0.15 -0.15)">
       <use xlink:href="#DejaVuSans-31"/>
       <use xlink:href="#DejaVuSans-35" transform="translate(63.623047 0)"/>
      </g>
     </g>
    </g>
    <g id="ytick_6">
     <g id="line2d_12">
      <g>
       <use xlink:href="#me22c22f502" x="57.874531" y="143.597461" style="stroke: #000000; stroke-width: 0.8"/>
      </g>
     </g>
     <g id="text_13">
      <!-- 20 -->
      <g transform="translate(31.787031 149.296289) scale(0.15 -0.15)">
       <use xlink:href="#DejaVuSans-32"/>
       <use xlink:href="#DejaVuSans-30" transform="translate(63.623047 0)"/>
      </g>
     </g>
    </g>
    <g id="ytick_7">
     <g id="line2d_13">
      <g>
       <use xlink:href="#me22c22f502" x="57.874531" y="109.201094" style="stroke: #000000; stroke-width: 0.8"/>
      </g>
     </g>
     <g id="text_14">
      <!-- 25 -->
      <g transform="translate(31.787031 114.899922) scale(0.15 -0.15)">
       <use xlink:href="#DejaVuSans-32"/>
       <use xlink:href="#DejaVuSans-35" transform="translate(63.623047 0)"/>
      </g>
     </g>
    </g>
    <g id="ytick_8">
     <g id="line2d_14">
      <g>
       <use xlink:href="#me22c22f502" x="57.874531" y="74.804727" style="stroke: #000000; stroke-width: 0.8"/>
      </g>
     </g>
     <g id="text_15">
      <!-- 30 -->
      <g transform="translate(31.787031 80.503555) scale(0.15 -0.15)">
       <defs>
        <path id="DejaVuSans-33" d="M 2597 2516 
Q 3050 2419 3304 2112 
Q 3559 1806 3559 1356 
Q 3559 666 3084 287 
Q 2609 -91 1734 -91 
Q 1441 -91 1130 -33 
Q 819 25 488 141 
L 488 750 
Q 750 597 1062 519 
Q 1375 441 1716 441 
Q 2309 441 2620 675 
Q 2931 909 2931 1356 
Q 2931 1769 2642 2001 
Q 2353 2234 1838 2234 
L 1294 2234 
L 1294 2753 
L 1863 2753 
Q 2328 2753 2575 2939 
Q 2822 3125 2822 3475 
Q 2822 3834 2567 4026 
Q 2313 4219 1838 4219 
Q 1578 4219 1281 4162 
Q 984 4106 628 3988 
L 628 4550 
Q 988 4650 1302 4700 
Q 1616 4750 1894 4750 
Q 2613 4750 3031 4423 
Q 3450 4097 3450 3541 
Q 3450 3153 3228 2886 
Q 3006 2619 2597 2516 
z
" transform="scale(0.015625)"/>
       </defs>
       <use xlink:href="#DejaVuSans-33"/>
       <use xlink:href="#DejaVuSans-30" transform="translate(63.623047 0)"/>
      </g>
     </g>
    </g>
    <g id="text_16">
     <!-- dulaglutide plasma [nM] -->
     <g transform="translate(20.877187 305.940937) rotate(-90) scale(0.18 -0.18)">
      <defs>
       <path id="DejaVuSans-Bold-64" d="M 2919 2988 
L 2919 4863 
L 4044 4863 
L 4044 0 
L 2919 0 
L 2919 506 
Q 2688 197 2409 53 
Q 2131 -91 1766 -91 
Q 1119 -91 703 423 
Q 288 938 288 1747 
Q 288 2556 703 3070 
Q 1119 3584 1766 3584 
Q 2128 3584 2408 3439 
Q 2688 3294 2919 2988 
z
M 2181 722 
Q 2541 722 2730 984 
Q 2919 1247 2919 1747 
Q 2919 2247 2730 2509 
Q 2541 2772 2181 2772 
Q 1825 2772 1636 2509 
Q 1447 2247 1447 1747 
Q 1447 1247 1636 984 
Q 1825 722 2181 722 
z
" transform="scale(0.015625)"/>
       <path id="DejaVuSans-Bold-75" d="M 500 1363 
L 500 3500 
L 1625 3500 
L 1625 3150 
Q 1625 2866 1622 2436 
Q 1619 2006 1619 1863 
Q 1619 1441 1641 1255 
Q 1663 1069 1716 984 
Q 1784 875 1895 815 
Q 2006 756 2150 756 
Q 2500 756 2700 1025 
Q 2900 1294 2900 1772 
L 2900 3500 
L 4019 3500 
L 4019 0 
L 2900 0 
L 2900 506 
Q 2647 200 2364 54 
Q 2081 -91 1741 -91 
Q 1134 -91 817 281 
Q 500 653 500 1363 
z
" transform="scale(0.015625)"/>
       <path id="DejaVuSans-Bold-6c" d="M 538 4863 
L 1656 4863 
L 1656 0 
L 538 0 
L 538 4863 
z
" transform="scale(0.015625)"/>
       <path id="DejaVuSans-Bold-61" d="M 2106 1575 
Q 1756 1575 1579 1456 
Q 1403 1338 1403 1106 
Q 1403 894 1545 773 
Q 1688 653 1941 653 
Q 2256 653 2472 879 
Q 2688 1106 2688 1447 
L 2688 1575 
L 2106 1575 
z
M 3816 1997 
L 3816 0 
L 2688 0 
L 2688 519 
Q 2463 200 2181 54 
Q 1900 -91 1497 -91 
Q 953 -91 614 226 
Q 275 544 275 1050 
Q 275 1666 698 1953 
Q 1122 2241 2028 2241 
L 2688 2241 
L 2688 2328 
Q 2688 2594 2478 2717 
Q 2269 2841 1825 2841 
Q 1466 2841 1156 2769 
Q 847 2697 581 2553 
L 581 3406 
Q 941 3494 1303 3539 
Q 1666 3584 2028 3584 
Q 2975 3584 3395 3211 
Q 3816 2838 3816 1997 
z
" transform="scale(0.015625)"/>
       <path id="DejaVuSans-Bold-67" d="M 2919 594 
Q 2688 288 2409 144 
Q 2131 0 1766 0 
Q 1125 0 706 504 
Q 288 1009 288 1791 
Q 288 2575 706 3076 
Q 1125 3578 1766 3578 
Q 2131 3578 2409 3434 
Q 2688 3291 2919 2981 
L 2919 3500 
L 4044 3500 
L 4044 353 
Q 4044 -491 3511 -936 
Q 2978 -1381 1966 -1381 
Q 1638 -1381 1331 -1331 
Q 1025 -1281 716 -1178 
L 716 -306 
Q 1009 -475 1290 -558 
Q 1572 -641 1856 -641 
Q 2406 -641 2662 -400 
Q 2919 -159 2919 353 
L 2919 594 
z
M 2181 2772 
Q 1834 2772 1640 2515 
Q 1447 2259 1447 1791 
Q 1447 1309 1634 1061 
Q 1822 813 2181 813 
Q 2531 813 2725 1069 
Q 2919 1325 2919 1791 
Q 2919 2259 2725 2515 
Q 2531 2772 2181 2772 
z
" transform="scale(0.015625)"/>
       <path id="DejaVuSans-Bold-70" d="M 1656 506 
L 1656 -1331 
L 538 -1331 
L 538 3500 
L 1656 3500 
L 1656 2988 
Q 1888 3294 2169 3439 
Q 2450 3584 2816 3584 
Q 3463 3584 3878 3070 
Q 4294 2556 4294 1747 
Q 4294 938 3878 423 
Q 3463 -91 2816 -91 
Q 2450 -91 2169 54 
Q 1888 200 1656 506 
z
M 2400 2772 
Q 2041 2772 1848 2508 
Q 1656 2244 1656 1747 
Q 1656 1250 1848 986 
Q 2041 722 2400 722 
Q 2759 722 2948 984 
Q 3138 1247 3138 1747 
Q 3138 2247 2948 2509 
Q 2759 2772 2400 2772 
z
" transform="scale(0.015625)"/>
       <path id="DejaVuSans-Bold-73" d="M 3272 3391 
L 3272 2541 
Q 2913 2691 2578 2766 
Q 2244 2841 1947 2841 
Q 1628 2841 1473 2761 
Q 1319 2681 1319 2516 
Q 1319 2381 1436 2309 
Q 1553 2238 1856 2203 
L 2053 2175 
Q 2913 2066 3209 1816 
Q 3506 1566 3506 1031 
Q 3506 472 3093 190 
Q 2681 -91 1863 -91 
Q 1516 -91 1145 -36 
Q 775 19 384 128 
L 384 978 
Q 719 816 1070 734 
Q 1422 653 1784 653 
Q 2113 653 2278 743 
Q 2444 834 2444 1013 
Q 2444 1163 2330 1236 
Q 2216 1309 1875 1350 
L 1678 1375 
Q 931 1469 631 1722 
Q 331 1975 331 2491 
Q 331 3047 712 3315 
Q 1094 3584 1881 3584 
Q 2191 3584 2531 3537 
Q 2872 3491 3272 3391 
z
" transform="scale(0.015625)"/>
       <path id="DejaVuSans-Bold-6e" d="M 4056 2131 
L 4056 0 
L 2931 0 
L 2931 347 
L 2931 1631 
Q 2931 2084 2911 2256 
Q 2891 2428 2841 2509 
Q 2775 2619 2662 2680 
Q 2550 2741 2406 2741 
Q 2056 2741 1856 2470 
Q 1656 2200 1656 1722 
L 1656 0 
L 538 0 
L 538 3500 
L 1656 3500 
L 1656 2988 
Q 1909 3294 2193 3439 
Q 2478 3584 2822 3584 
Q 3428 3584 3742 3212 
Q 4056 2841 4056 2131 
z
" transform="scale(0.015625)"/>
       <path id="DejaVuSans-Bold-4d" d="M 588 4666 
L 2119 4666 
L 3181 2169 
L 4250 4666 
L 5778 4666 
L 5778 0 
L 4641 0 
L 4641 3413 
L 3566 897 
L 2803 897 
L 1728 3413 
L 1728 0 
L 588 0 
L 588 4666 
z
" transform="scale(0.015625)"/>
      </defs>
      <use xlink:href="#DejaVuSans-Bold-64"/>
      <use xlink:href="#DejaVuSans-Bold-75" transform="translate(71.582031 0)"/>
      <use xlink:href="#DejaVuSans-Bold-6c" transform="translate(142.773438 0)"/>
      <use xlink:href="#DejaVuSans-Bold-61" transform="translate(177.050781 0)"/>
      <use xlink:href="#DejaVuSans-Bold-67" transform="translate(244.53125 0)"/>
      <use xlink:href="#DejaVuSans-Bold-6c" transform="translate(316.113281 0)"/>
      <use xlink:href="#DejaVuSans-Bold-75" transform="translate(350.390625 0)"/>
      <use xlink:href="#DejaVuSans-Bold-74" transform="translate(421.582031 0)"/>
      <use xlink:href="#DejaVuSans-Bold-69" transform="translate(469.384766 0)"/>
      <use xlink:href="#DejaVuSans-Bold-64" transform="translate(503.662109 0)"/>
      <use xlink:href="#DejaVuSans-Bold-65" transform="translate(575.244141 0)"/>
      <use xlink:href="#DejaVuSans-Bold-20" transform="translate(643.066406 0)"/>
      <use xlink:href="#DejaVuSans-Bold-70" transform="translate(677.880859 0)"/>
      <use xlink:href="#DejaVuSans-Bold-6c" transform="translate(749.462891 0)"/>
      <use xlink:href="#DejaVuSans-Bold-61" transform="translate(783.740234 0)"/>
      <use xlink:href="#DejaVuSans-Bold-73" transform="translate(851.220703 0)"/>
      <use xlink:href="#DejaVuSans-Bold-6d" transform="translate(910.742188 0)"/>
      <use xlink:href="#DejaVuSans-Bold-61" transform="translate(1014.941406 0)"/>
      <use xlink:href="#DejaVuSans-Bold-20" transform="translate(1082.421875 0)"/>
      <use xlink:href="#DejaVuSans-Bold-5b" transform="translate(1117.236328 0)"/>
      <use xlink:href="#DejaVuSans-Bold-6e" transform="translate(1162.939453 0)"/>
      <use xlink:href="#DejaVuSans-Bold-4d" transform="translate(1234.130859 0)"/>
      <use xlink:href="#DejaVuSans-Bold-5d" transform="translate(1333.642578 0)"/>
     </g>
    </g>
   </g>
   <g id="LineCollection_1">
    <path d="M 77.658168 277.313437 
L 77.658168 85.24675 
" clip-path="url(#p2aca147d2c)" style="fill: none; stroke: #1f77b4"/>
    <path d="M 134.472713 238.618682 
L 134.472713 159.118555 
" clip-path="url(#p2aca147d2c)" style="fill: none; stroke: #1f77b4"/>
    <path d="M 191.287259 237.211608 
L 191.287259 156.304394 
" clip-path="url(#p2aca147d2c)" style="fill: none; stroke: #1f77b4"/>
    <path d="M 248.101804 223.844319 
L 248.101804 145.751279 
" clip-path="url(#p2aca147d2c)" style="fill: none; stroke: #1f77b4"/>
    <path d="M 304.916349 229.472655 
L 304.916349 151.379588 
" clip-path="url(#p2aca147d2c)" style="fill: none; stroke: #1f77b4"/>
    <path d="M 361.730895 229.120876 
L 361.730895 140.474721 
" clip-path="url(#p2aca147d2c)" style="fill: none; stroke: #1f77b4"/>
    <path d="M 418.54544 229.120876 
L 418.54544 137.660546 
" clip-path="url(#p2aca147d2c)" style="fill: none; stroke: #1f77b4"/>
   </g>
   <g id="LineCollection_2">
    <path d="M 77.658168 307.8 
L 77.658168 116.773362 
" clip-path="url(#p2aca147d2c)" style="fill: none; stroke: #000000"/>
    <path d="M 134.472713 231.029906 
L 134.472713 151.435459 
" clip-path="url(#p2aca147d2c)" style="fill: none; stroke: #000000"/>
    <path d="M 191.287259 225.89478 
L 191.287259 136.030081 
" clip-path="url(#p2aca147d2c)" style="fill: none; stroke: #000000"/>
    <path d="M 248.101804 221.529894 
L 248.101804 137.313867 
" clip-path="url(#p2aca147d2c)" style="fill: none; stroke: #000000"/>
    <path d="M 304.916349 222.300169 
L 304.916349 136.543592 
" clip-path="url(#p2aca147d2c)" style="fill: none; stroke: #000000"/>
    <path d="M 361.730895 227.435313 
L 361.730895 136.543592 
" clip-path="url(#p2aca147d2c)" style="fill: none; stroke: #000000"/>
    <path d="M 418.54544 225.894771 
L 418.54544 126.786859 
" clip-path="url(#p2aca147d2c)" style="fill: none; stroke: #000000"/>
   </g>
   <g id="line2d_15">
    <path d="M 75.629077 281.18293 
L 76.26824 196.398829 
L 76.8932 140.272947 
L 77.475549 106.136182 
L 78.001084 86.880882 
L 78.469804 76.905497 
L 78.853302 72.760505 
L 79.137375 71.604026 
L 79.279411 71.553578 
L 79.293615 71.566367 
L 79.435651 71.862918 
L 79.677113 73.019959 
L 80.032204 76.015337 
L 80.543535 82.485928 
L 81.296328 95.236378 
L 82.588859 121.60237 
L 85.131309 173.42725 
L 86.537469 197.339805 
L 87.801593 215.210152 
L 88.994699 229.077564 
L 89.832713 237.243893 
L 89.832713 237.243893 
L 90.457673 161.550006 
L 91.068429 112.055381 
L 91.636575 82.607566 
L 92.147906 66.627945 
L 92.574015 59.279638 
L 92.914902 56.547245 
L 93.14216 56.029198 
L 93.255789 56.115386 
L 93.426233 56.636866 
L 93.696102 58.328776 
L 94.093804 62.463129 
L 94.661949 70.988694 
L 95.514168 87.556605 
L 97.332233 128.515752 
L 99.192909 168.15684 
L 100.570662 192.932744 
L 101.834786 211.811922 
L 103.027891 226.435712 
L 104.036349 236.632674 
L 104.036349 236.632674 
L 104.661309 161.043592 
L 105.272066 111.634006 
L 105.840211 82.252423 
L 106.351542 66.323461 
L 106.777651 59.011805 
L 107.118539 56.305529 
L 107.345797 55.803463 
L 107.459426 55.89724 
L 107.629869 56.429629 
L 107.899739 58.137707 
L 108.29744 62.293616 
L 108.865586 70.845825 
L 109.717804 87.44606 
L 111.550073 128.773865 
L 113.396546 168.120309 
L 114.774299 192.908614 
L 116.038422 211.795428 
L 117.231528 226.424194 
L 118.239986 236.624171 
L 118.239986 236.624171 
L 118.864946 161.036548 
L 119.475702 111.628144 
L 120.043848 82.247482 
L 120.555179 66.319226 
L 120.981288 59.008079 
L 121.322175 56.302167 
L 121.549433 55.800323 
L 121.663062 55.894206 
L 121.833506 56.426747 
L 122.103375 58.13505 
L 122.501077 62.291258 
L 123.069222 70.843838 
L 123.92144 87.444522 
L 125.753709 128.772979 
L 127.600182 168.1198 
L 128.977935 192.908278 
L 130.242059 211.795199 
L 131.435164 226.424034 
L 132.443622 236.624053 
L 132.443622 236.624053 
L 133.068582 161.03645 
L 133.679339 111.628062 
L 134.247484 82.247414 
L 134.758815 66.319167 
L 135.184924 59.008027 
L 135.525811 56.30212 
L 135.753069 55.80028 
L 135.866699 55.894164 
L 136.037142 56.426706 
L 136.307011 58.135013 
L 136.704713 62.291225 
L 137.272859 70.84381 
L 138.125077 87.444501 
L 139.957346 128.772967 
L 141.803819 168.119793 
L 143.181571 192.908273 
L 144.445695 211.795195 
L 145.6388 226.424032 
L 146.647259 236.624051 
L 146.647259 236.624051 
L 147.272219 161.036448 
L 147.882975 111.628061 
L 148.45112 82.247413 
L 148.962451 66.319166 
L 149.38856 59.008027 
L 149.729448 56.302119 
L 149.956706 55.800279 
L 150.070335 55.894163 
L 150.240779 56.426706 
L 150.510648 58.135012 
L 150.908349 62.291225 
L 151.476495 70.84381 
L 152.328713 87.4445 
L 154.160982 128.772966 
L 156.007455 168.119793 
L 157.385208 192.908273 
L 158.649331 211.795195 
L 159.842437 226.424032 
L 160.850895 236.624051 
L 160.850895 236.624051 
L 161.475855 161.036448 
L 162.086611 111.628061 
L 162.654757 82.247413 
L 163.166088 66.319166 
L 163.592197 59.008027 
L 163.933084 56.302119 
L 164.160342 55.800279 
L 164.273971 55.894163 
L 164.444415 56.426706 
L 164.714284 58.135012 
L 165.111986 62.291225 
L 165.680131 70.84381 
L 166.532349 87.4445 
L 168.364619 128.772966 
L 170.211091 168.119793 
L 171.588844 192.908273 
L 172.852968 211.795195 
L 174.046073 226.424032 
L 175.054531 236.624051 
L 175.054531 236.624051 
L 175.679491 161.036448 
L 176.290248 111.628061 
L 176.858393 82.247413 
L 177.369724 66.319166 
L 177.795833 59.008027 
L 178.13672 56.302119 
L 178.363979 55.800279 
L 178.477608 55.894163 
L 178.648051 56.426706 
L 178.91792 58.135012 
L 179.315622 62.291225 
L 179.883768 70.84381 
L 180.735986 87.4445 
L 182.568255 128.772966 
L 184.414728 168.119793 
L 185.79248 192.908273 
L 187.056604 211.795195 
L 188.249709 226.424032 
L 189.258168 236.624051 
L 189.258168 236.624051 
L 189.883128 161.036448 
L 190.493884 111.628061 
L 191.062029 82.247413 
L 191.57336 66.319166 
L 191.999469 59.008027 
L 192.340357 56.302119 
L 192.567615 55.800279 
L 192.681244 55.894163 
L 192.851688 56.426706 
L 193.121557 58.135012 
L 193.519259 62.291225 
L 194.087404 70.84381 
L 194.939622 87.4445 
L 196.771891 128.772966 
L 198.618364 168.119793 
L 199.996117 192.908273 
L 201.26024 211.795195 
L 202.453346 226.424032 
L 203.461804 236.624051 
L 203.461804 236.624051 
L 204.086764 161.036448 
L 204.69752 111.628061 
L 205.265666 82.247413 
L 205.776997 66.319166 
L 206.203106 59.008027 
L 206.543993 56.302119 
L 206.771251 55.800279 
L 206.88488 55.894163 
L 207.055324 56.426706 
L 207.325193 58.135012 
L 207.722895 62.291225 
L 208.29104 70.84381 
L 209.143259 87.4445 
L 210.975528 128.772966 
L 212.822 168.119793 
L 214.199753 192.908273 
L 215.463877 211.795195 
L 216.656982 226.424032 
L 217.66544 236.624051 
L 217.66544 236.624051 
L 218.2904 161.036448 
L 218.901157 111.628061 
L 219.469302 82.247413 
L 219.980633 66.319166 
L 220.406742 59.008027 
L 220.747629 56.302119 
L 220.974888 55.800279 
L 221.088517 55.894163 
L 221.25896 56.426706 
L 221.528829 58.135012 
L 221.926531 62.291225 
L 222.494677 70.84381 
L 223.346895 87.4445 
L 225.179164 128.772966 
L 227.025637 168.119793 
L 228.403389 192.908273 
L 229.667513 211.795195 
L 230.860619 226.424032 
L 231.869077 236.624051 
L 231.869077 236.624051 
L 232.494037 161.036448 
L 233.104793 111.628061 
L 233.672939 82.247413 
L 234.184269 66.319166 
L 234.610379 59.008027 
L 234.951266 56.302119 
L 235.178524 55.800279 
L 235.292153 55.894163 
L 235.462597 56.426706 
L 235.732466 58.135012 
L 236.130168 62.291225 
L 236.698313 70.84381 
L 237.550531 87.4445 
L 239.3828 128.772966 
L 241.229273 168.119793 
L 242.607026 192.908273 
L 243.871149 211.795195 
L 245.064255 226.424032 
L 246.072713 236.624051 
L 246.072713 236.624051 
L 246.697673 161.036448 
L 247.308429 111.628061 
L 247.876575 82.247413 
L 248.387906 66.319166 
L 248.814015 59.008027 
L 249.154902 56.302119 
L 249.38216 55.800279 
L 249.495789 55.894163 
L 249.666233 56.426706 
L 249.936102 58.135012 
L 250.333804 62.291225 
L 250.901949 70.84381 
L 251.754168 87.4445 
L 253.586437 128.772966 
L 255.432909 168.119793 
L 256.810662 192.908273 
L 258.074786 211.795195 
L 259.267891 226.424032 
L 260.276349 236.624051 
L 260.276349 236.624051 
L 260.901309 161.036448 
L 261.512066 111.628061 
L 262.080211 82.247413 
L 262.591542 66.319166 
L 263.017651 59.008027 
L 263.358539 56.302119 
L 263.585797 55.800279 
L 263.699426 55.894163 
L 263.869869 56.426706 
L 264.139739 58.135012 
L 264.53744 62.291225 
L 265.105586 70.84381 
L 265.957804 87.4445 
L 267.790073 128.772966 
L 269.636546 168.119793 
L 271.014299 192.908273 
L 272.278422 211.795195 
L 273.471528 226.424032 
L 274.479986 236.624051 
L 274.479986 236.624051 
L 275.104946 161.036448 
L 275.715702 111.628061 
L 276.283848 82.247413 
L 276.795179 66.319166 
L 277.221288 59.008027 
L 277.562175 56.302119 
L 277.789433 55.800279 
L 277.903062 55.894163 
L 278.073506 56.426706 
L 278.343375 58.135012 
L 278.741077 62.291225 
L 279.309222 70.84381 
L 280.16144 87.4445 
L 281.993709 128.772966 
L 283.840182 168.119793 
L 285.217935 192.908273 
L 286.482059 211.795195 
L 287.675164 226.424032 
L 288.683622 236.624051 
L 288.683622 236.624051 
L 289.308582 161.036448 
L 289.919339 111.628061 
L 290.487484 82.247413 
L 290.998815 66.319166 
L 291.424924 59.008027 
L 291.765811 56.302119 
L 291.993069 55.800279 
L 292.106699 55.894163 
L 292.277142 56.426706 
L 292.547011 58.135012 
L 292.944713 62.291225 
L 293.512859 70.84381 
L 294.365077 87.4445 
L 296.197346 128.772966 
L 298.043819 168.119793 
L 299.421571 192.908273 
L 300.685695 211.795195 
L 301.8788 226.424032 
L 302.887259 236.624051 
L 302.887259 236.624051 
L 303.512219 161.036448 
L 304.122975 111.628061 
L 304.69112 82.247413 
L 305.202451 66.319166 
L 305.62856 59.008027 
L 305.969448 56.302119 
L 306.196706 55.800279 
L 306.310335 55.894163 
L 306.480779 56.426706 
L 306.750648 58.135012 
L 307.148349 62.291225 
L 307.716495 70.84381 
L 308.568713 87.4445 
L 310.400982 128.772966 
L 312.247455 168.119793 
L 313.625208 192.908273 
L 314.889331 211.795195 
L 316.082437 226.424032 
L 317.090895 236.624051 
L 317.090895 236.624051 
L 317.715855 161.036448 
L 318.326611 111.628061 
L 318.894757 82.247413 
L 319.406088 66.319166 
L 319.832197 59.008027 
L 320.173084 56.302119 
L 320.400342 55.800279 
L 320.513971 55.894163 
L 320.684415 56.426706 
L 320.954284 58.135012 
L 321.351986 62.291225 
L 321.920131 70.84381 
L 322.772349 87.4445 
L 324.604619 128.772966 
L 326.451091 168.119793 
L 327.828844 192.908273 
L 329.092968 211.795195 
L 330.286073 226.424032 
L 331.294531 236.624051 
L 331.294531 236.624051 
L 331.919491 161.036448 
L 332.530248 111.628061 
L 333.098393 82.247413 
L 333.609724 66.319166 
L 334.035833 59.008027 
L 334.37672 56.302119 
L 334.603979 55.800279 
L 334.717608 55.894163 
L 334.888051 56.426706 
L 335.15792 58.135012 
L 335.555622 62.291225 
L 336.123768 70.84381 
L 336.975986 87.4445 
L 338.808255 128.772966 
L 340.654728 168.119793 
L 342.03248 192.908273 
L 343.296604 211.795195 
L 344.489709 226.424032 
L 345.498168 236.624051 
L 345.498168 236.624051 
L 346.123128 161.036448 
L 346.733884 111.628061 
L 347.302029 82.247413 
L 347.81336 66.319166 
L 348.239469 59.008027 
L 348.580357 56.302119 
L 348.807615 55.800279 
L 348.921244 55.894163 
L 349.091688 56.426706 
L 349.361557 58.135012 
L 349.759259 62.291225 
L 350.327404 70.84381 
L 351.179622 87.4445 
L 353.011891 128.772966 
L 354.858364 168.119793 
L 356.236117 192.908273 
L 357.50024 211.795195 
L 358.693346 226.424032 
L 359.701804 236.624051 
L 359.701804 236.624051 
L 360.326764 161.036448 
L 360.93752 111.628061 
L 361.505666 82.247413 
L 362.016997 66.319166 
L 362.443106 59.008027 
L 362.783993 56.302119 
L 363.011251 55.800279 
L 363.12488 55.894163 
L 363.295324 56.426706 
L 363.565193 58.135012 
L 363.962895 62.291225 
L 364.53104 70.84381 
L 365.383259 87.4445 
L 367.215528 128.772966 
L 369.062 168.119793 
L 370.439753 192.908273 
L 371.703877 211.795195 
L 372.896982 226.424032 
L 373.90544 236.624051 
L 373.90544 236.624051 
L 374.5304 161.036448 
L 375.141157 111.628061 
L 375.709302 82.247413 
L 376.220633 66.319166 
L 376.646742 59.008027 
L 376.987629 56.302119 
L 377.214888 55.800279 
L 377.328517 55.894163 
L 377.49896 56.426706 
L 377.768829 58.135012 
L 378.166531 62.291225 
L 378.734677 70.84381 
L 379.586895 87.4445 
L 381.419164 128.772966 
L 383.265637 168.119793 
L 384.643389 192.908273 
L 385.907513 211.795195 
L 387.100619 226.424032 
L 388.109077 236.624051 
L 388.109077 236.624051 
L 388.734037 161.036448 
L 389.344793 111.628061 
L 389.912939 82.247413 
L 390.424269 66.319166 
L 390.850379 59.008027 
L 391.191266 56.302119 
L 391.418524 55.800279 
L 391.532153 55.894163 
L 391.702597 56.426706 
L 391.972466 58.135012 
L 392.370168 62.291225 
L 392.938313 70.84381 
L 393.790531 87.4445 
L 395.6228 128.772966 
L 397.469273 168.119793 
L 398.847026 192.908273 
L 400.111149 211.795195 
L 401.304255 226.424032 
L 402.312713 236.624051 
L 402.312713 236.624051 
L 402.937673 161.036448 
L 403.548429 111.628061 
L 404.116575 82.247413 
L 404.627906 66.319166 
L 405.054015 59.008027 
L 405.394902 56.302119 
L 405.62216 55.800279 
L 405.735789 55.894163 
L 405.906233 56.426706 
L 406.176102 58.135012 
L 406.573804 62.291225 
L 407.141949 70.84381 
L 407.994168 87.4445 
L 409.826437 128.772966 
L 411.672909 168.119793 
L 413.050662 192.908273 
L 414.314786 211.795195 
L 415.507891 226.424032 
L 416.516349 236.624051 
L 416.516349 236.624051 
L 417.141309 161.036448 
L 417.752066 111.628061 
L 418.320211 82.247413 
L 418.831542 66.319166 
L 419.257651 59.008027 
L 419.598539 56.302119 
L 419.825797 55.800279 
L 419.939426 55.894163 
L 420.109869 56.426706 
L 420.379739 58.135012 
L 420.77744 62.291225 
L 421.345586 70.84381 
L 422.197804 87.4445 
L 424.030073 128.772966 
L 425.876546 168.119793 
L 427.254299 192.908273 
L 428.518422 211.795195 
L 429.711528 226.424032 
L 430.719986 236.624051 
L 430.719986 236.624051 
" clip-path="url(#p2aca147d2c)" style="fill: none; stroke: #1f77b4; stroke-width: 2; stroke-linecap: square"/>
   </g>
   <g id="line2d_16">
    <path d="M 77.658168 181.280094 
L 134.472713 198.868619 
L 191.287259 196.758001 
L 248.101804 184.797799 
L 304.916349 190.426121 
L 361.730895 184.797799 
L 418.54544 183.390711 
" clip-path="url(#p2aca147d2c)" style="fill: none; stroke-dasharray: 3.7,1.6; stroke-dashoffset: 0; stroke: #1f77b4"/>
    <defs>
     <path id="m6c5bf6f271" d="M -3 3 
L 3 3 
L 3 -3 
L -3 -3 
z
" style="stroke: #000000; stroke-linejoin: miter"/>
    </defs>
    <g clip-path="url(#p2aca147d2c)">
     <use xlink:href="#m6c5bf6f271" x="77.658168" y="181.280094" style="fill: #1f77b4; stroke: #000000; stroke-linejoin: miter"/>
     <use xlink:href="#m6c5bf6f271" x="134.472713" y="198.868619" style="fill: #1f77b4; stroke: #000000; stroke-linejoin: miter"/>
     <use xlink:href="#m6c5bf6f271" x="191.287259" y="196.758001" style="fill: #1f77b4; stroke: #000000; stroke-linejoin: miter"/>
     <use xlink:href="#m6c5bf6f271" x="248.101804" y="184.797799" style="fill: #1f77b4; stroke: #000000; stroke-linejoin: miter"/>
     <use xlink:href="#m6c5bf6f271" x="304.916349" y="190.426121" style="fill: #1f77b4; stroke: #000000; stroke-linejoin: miter"/>
     <use xlink:href="#m6c5bf6f271" x="361.730895" y="184.797799" style="fill: #1f77b4; stroke: #000000; stroke-linejoin: miter"/>
     <use xlink:href="#m6c5bf6f271" x="418.54544" y="183.390711" style="fill: #1f77b4; stroke: #000000; stroke-linejoin: miter"/>
    </g>
   </g>
   <g id="line2d_17">
    <path d="M 75.629077 281.18293 
L 76.26824 196.959118 
L 76.8932 141.109312 
L 77.475549 107.066315 
L 78.015288 87.410754 
L 78.484008 77.561581 
L 78.867506 73.469035 
L 79.151579 72.328564 
L 79.293615 72.28011 
L 79.307819 72.292901 
L 79.464059 72.633269 
L 79.70552 73.825624 
L 80.060611 76.849169 
L 80.571942 83.321455 
L 81.324735 96.01781 
L 82.631469 122.515015 
L 85.159717 173.692429 
L 86.565877 197.467786 
L 87.83 215.252155 
L 89.037309 229.213949 
L 89.832713 236.950406 
L 89.832713 236.950406 
L 90.457673 161.807751 
L 91.068429 112.598396 
L 91.636575 83.262273 
L 92.147906 67.297363 
L 92.588219 59.752091 
L 92.929106 57.080498 
L 93.156364 56.586383 
L 93.269993 56.680281 
L 93.440437 57.208616 
L 93.710306 58.901281 
L 94.108008 63.018525 
L 94.676153 71.49295 
L 95.528371 87.951831 
L 97.332233 128.340291 
L 99.207113 168.112422 
L 100.599069 193.036745 
L 101.863193 211.834172 
L 103.056299 226.407346 
L 104.036349 236.315591 
L 104.036349 236.315591 
L 104.661309 161.281065 
L 105.272066 112.159563 
L 105.840211 82.891955 
L 106.351542 66.979511 
L 106.791855 59.473422 
L 107.132742 56.828815 
L 107.36 56.351222 
L 107.473629 56.45297 
L 107.644073 56.992592 
L 107.913942 58.701991 
L 108.311644 62.841564 
L 108.879789 71.343617 
L 109.732008 87.836068 
L 111.550073 128.593242 
L 113.410749 168.073856 
L 114.802706 193.0113 
L 116.066829 211.816731 
L 117.259935 226.395135 
L 118.239986 236.30648 
L 118.239986 236.30648 
L 118.864946 161.273507 
L 119.475702 112.153265 
L 120.043848 82.88664 
L 120.555179 66.974949 
L 120.995491 59.469423 
L 121.336379 56.825203 
L 121.563637 56.347847 
L 121.677266 56.449707 
L 121.847709 56.989491 
L 122.117579 58.699131 
L 122.51528 62.839024 
L 123.083426 71.341474 
L 123.935644 87.834406 
L 125.753709 128.592277 
L 127.614386 168.073302 
L 129.006342 193.010935 
L 130.270466 211.816481 
L 131.463571 226.39496 
L 132.443622 236.306349 
L 132.443622 236.306349 
L 133.068582 161.273398 
L 133.679339 112.153175 
L 134.247484 82.886564 
L 134.758815 66.974884 
L 135.199128 59.469365 
L 135.540015 56.825151 
L 135.767273 56.347799 
L 135.880902 56.449661 
L 136.051346 56.989447 
L 136.321215 58.69909 
L 136.718917 62.838988 
L 137.287062 71.341443 
L 138.13928 87.834382 
L 139.957346 128.592263 
L 141.818022 168.073294 
L 143.209979 193.01093 
L 144.474102 211.816477 
L 145.667208 226.394958 
L 146.647259 236.306347 
L 146.647259 236.306347 
L 147.272219 161.273396 
L 147.882975 112.153174 
L 148.45112 82.886563 
L 148.962451 66.974883 
L 149.402764 59.469365 
L 149.743651 56.82515 
L 149.970909 56.347798 
L 150.084539 56.44966 
L 150.254982 56.989446 
L 150.524851 58.699089 
L 150.922553 62.838987 
L 151.490699 71.341443 
L 152.342917 87.834382 
L 154.160982 128.592263 
L 156.021659 168.073294 
L 157.413615 193.01093 
L 158.677739 211.816477 
L 159.870844 226.394958 
L 160.850895 236.306347 
L 160.850895 236.306347 
L 161.475855 161.273396 
L 162.086611 112.153174 
L 162.654757 82.886563 
L 163.166088 66.974883 
L 163.6064 59.469365 
L 163.947288 56.82515 
L 164.174546 56.347798 
L 164.288175 56.44966 
L 164.458619 56.989446 
L 164.728488 58.699089 
L 165.126189 62.838987 
L 165.694335 71.341443 
L 166.546553 87.834382 
L 168.364619 128.592263 
L 170.225295 168.073294 
L 171.617251 193.01093 
L 172.881375 211.816477 
L 174.07448 226.394958 
L 175.054531 236.306347 
L 175.054531 236.306347 
L 175.679491 161.273396 
L 176.290248 112.153174 
L 176.858393 82.886563 
L 177.369724 66.974883 
L 177.810037 59.469365 
L 178.150924 56.82515 
L 178.378182 56.347798 
L 178.491811 56.44966 
L 178.662255 56.989446 
L 178.932124 58.699089 
L 179.329826 62.838987 
L 179.897971 71.341443 
L 180.750189 87.834382 
L 182.568255 128.592263 
L 184.428931 168.073294 
L 185.820888 193.01093 
L 187.085011 211.816477 
L 188.278117 226.394958 
L 189.258168 236.306347 
L 189.258168 236.306347 
L 189.883128 161.273396 
L 190.493884 112.153174 
L 191.062029 82.886563 
L 191.57336 66.974883 
L 192.013673 59.469365 
L 192.35456 56.82515 
L 192.581819 56.347798 
L 192.695448 56.44966 
L 192.865891 56.989446 
L 193.13576 58.699089 
L 193.533462 62.838987 
L 194.101608 71.341443 
L 194.953826 87.834382 
L 196.771891 128.592263 
L 198.632568 168.073294 
L 200.024524 193.01093 
L 201.288648 211.816477 
L 202.481753 226.394958 
L 203.461804 236.306347 
L 203.461804 236.306347 
L 204.086764 161.273396 
L 204.69752 112.153174 
L 205.265666 82.886563 
L 205.776997 66.974883 
L 206.217309 59.469365 
L 206.558197 56.82515 
L 206.785455 56.347798 
L 206.899084 56.44966 
L 207.069528 56.989446 
L 207.339397 58.699089 
L 207.737099 62.838987 
L 208.305244 71.341443 
L 209.157462 87.834382 
L 210.975528 128.592263 
L 212.836204 168.073294 
L 214.22816 193.01093 
L 215.492284 211.816477 
L 216.685389 226.394958 
L 217.66544 236.306347 
L 217.66544 236.306347 
L 218.2904 161.273396 
L 218.901157 112.153174 
L 219.469302 82.886563 
L 219.980633 66.974883 
L 220.420946 59.469365 
L 220.761833 56.82515 
L 220.989091 56.347798 
L 221.10272 56.44966 
L 221.273164 56.989446 
L 221.543033 58.699089 
L 221.940735 62.838987 
L 222.50888 71.341443 
L 223.361099 87.834382 
L 225.179164 128.592263 
L 227.03984 168.073294 
L 228.431797 193.01093 
L 229.69592 211.816477 
L 230.889026 226.394958 
L 231.869077 236.306347 
L 231.869077 236.306347 
L 232.494037 161.273396 
L 233.104793 112.153174 
L 233.672939 82.886563 
L 234.184269 66.974883 
L 234.624582 59.469365 
L 234.965469 56.82515 
L 235.192728 56.347798 
L 235.306357 56.44966 
L 235.4768 56.989446 
L 235.746669 58.699089 
L 236.144371 62.838987 
L 236.712517 71.341443 
L 237.564735 87.834382 
L 239.3828 128.592263 
L 241.243477 168.073294 
L 242.635433 193.01093 
L 243.899557 211.816477 
L 245.092662 226.394958 
L 246.072713 236.306347 
L 246.072713 236.306347 
L 246.697673 161.273396 
L 247.308429 112.153174 
L 247.876575 82.886563 
L 248.387906 66.974883 
L 248.828219 59.469365 
L 249.169106 56.82515 
L 249.396364 56.347798 
L 249.509993 56.44966 
L 249.680437 56.989446 
L 249.950306 58.699089 
L 250.348008 62.838987 
L 250.916153 71.341443 
L 251.768371 87.834382 
L 253.586437 128.592263 
L 255.447113 168.073294 
L 256.839069 193.01093 
L 258.103193 211.816477 
L 259.296299 226.394958 
L 260.276349 236.306347 
L 260.276349 236.306347 
L 260.901309 161.273396 
L 261.512066 112.153174 
L 262.080211 82.886563 
L 262.591542 66.974883 
L 263.031855 59.469365 
L 263.372742 56.82515 
L 263.6 56.347798 
L 263.713629 56.44966 
L 263.884073 56.989446 
L 264.153942 58.699089 
L 264.551644 62.838987 
L 265.119789 71.341443 
L 265.972008 87.834382 
L 267.790073 128.592263 
L 269.650749 168.073294 
L 271.042706 193.01093 
L 272.306829 211.816477 
L 273.499935 226.394958 
L 274.479986 236.306347 
L 274.479986 236.306347 
L 275.104946 161.273396 
L 275.715702 112.153174 
L 276.283848 82.886563 
L 276.795179 66.974883 
L 277.235491 59.469365 
L 277.576379 56.82515 
L 277.803637 56.347798 
L 277.917266 56.44966 
L 278.087709 56.989446 
L 278.357579 58.699089 
L 278.75528 62.838987 
L 279.323426 71.341443 
L 280.175644 87.834382 
L 281.993709 128.592263 
L 283.854386 168.073294 
L 285.246342 193.01093 
L 286.510466 211.816477 
L 287.703571 226.394958 
L 288.683622 236.306347 
L 288.683622 236.306347 
L 289.308582 161.273396 
L 289.919339 112.153174 
L 290.487484 82.886563 
L 290.998815 66.974883 
L 291.439128 59.469365 
L 291.780015 56.82515 
L 292.007273 56.347798 
L 292.120902 56.44966 
L 292.291346 56.989446 
L 292.561215 58.699089 
L 292.958917 62.838987 
L 293.527062 71.341443 
L 294.37928 87.834382 
L 296.197346 128.592263 
L 298.058022 168.073294 
L 299.449979 193.01093 
L 300.714102 211.816477 
L 301.907208 226.394958 
L 302.887259 236.306347 
L 302.887259 236.306347 
L 303.512219 161.273396 
L 304.122975 112.153174 
L 304.69112 82.886563 
L 305.202451 66.974883 
L 305.642764 59.469365 
L 305.983651 56.82515 
L 306.210909 56.347798 
L 306.324539 56.44966 
L 306.494982 56.989446 
L 306.764851 58.699089 
L 307.162553 62.838987 
L 307.730699 71.341443 
L 308.582917 87.834382 
L 310.400982 128.592263 
L 312.261659 168.073294 
L 313.653615 193.01093 
L 314.917739 211.816477 
L 316.110844 226.394958 
L 317.090895 236.306347 
L 317.090895 236.306347 
L 317.715855 161.273396 
L 318.326611 112.153174 
L 318.894757 82.886563 
L 319.406088 66.974883 
L 319.8464 59.469365 
L 320.187288 56.82515 
L 320.414546 56.347798 
L 320.528175 56.44966 
L 320.698619 56.989446 
L 320.968488 58.699089 
L 321.366189 62.838987 
L 321.934335 71.341443 
L 322.786553 87.834382 
L 324.604619 128.592263 
L 326.465295 168.073294 
L 327.857251 193.01093 
L 329.121375 211.816477 
L 330.31448 226.394958 
L 331.294531 236.306347 
L 331.294531 236.306347 
L 331.919491 161.273396 
L 332.530248 112.153174 
L 333.098393 82.886563 
L 333.609724 66.974883 
L 334.050037 59.469365 
L 334.390924 56.82515 
L 334.618182 56.347798 
L 334.731811 56.44966 
L 334.902255 56.989446 
L 335.172124 58.699089 
L 335.569826 62.838987 
L 336.137971 71.341443 
L 336.990189 87.834382 
L 338.808255 128.592263 
L 340.668931 168.073294 
L 342.060888 193.01093 
L 343.325011 211.816477 
L 344.518117 226.394958 
L 345.498168 236.306347 
L 345.498168 236.306347 
L 346.123128 161.273396 
L 346.733884 112.153174 
L 347.302029 82.886563 
L 347.81336 66.974883 
L 348.253673 59.469365 
L 348.59456 56.82515 
L 348.821819 56.347798 
L 348.935448 56.44966 
L 349.105891 56.989446 
L 349.37576 58.699089 
L 349.773462 62.838987 
L 350.341608 71.341443 
L 351.193826 87.834382 
L 353.011891 128.592263 
L 354.872568 168.073294 
L 356.264524 193.01093 
L 357.528648 211.816477 
L 358.721753 226.394958 
L 359.701804 236.306347 
L 359.701804 236.306347 
L 360.326764 161.273396 
L 360.93752 112.153174 
L 361.505666 82.886563 
L 362.016997 66.974883 
L 362.457309 59.469365 
L 362.798197 56.82515 
L 363.025455 56.347798 
L 363.139084 56.44966 
L 363.309528 56.989446 
L 363.579397 58.699089 
L 363.977099 62.838987 
L 364.545244 71.341443 
L 365.397462 87.834382 
L 367.215528 128.592263 
L 369.076204 168.073294 
L 370.46816 193.01093 
L 371.732284 211.816477 
L 372.925389 226.394958 
L 373.90544 236.306347 
L 373.90544 236.306347 
L 374.5304 161.273396 
L 375.141157 112.153174 
L 375.709302 82.886563 
L 376.220633 66.974883 
L 376.660946 59.469365 
L 377.001833 56.82515 
L 377.229091 56.347798 
L 377.34272 56.44966 
L 377.513164 56.989446 
L 377.783033 58.699089 
L 378.180735 62.838987 
L 378.74888 71.341443 
L 379.601099 87.834382 
L 381.419164 128.592263 
L 383.27984 168.073294 
L 384.671797 193.01093 
L 385.93592 211.816477 
L 387.129026 226.394958 
L 388.109077 236.306347 
L 388.109077 236.306347 
L 388.734037 161.273396 
L 389.344793 112.153174 
L 389.912939 82.886563 
L 390.424269 66.974883 
L 390.864582 59.469365 
L 391.205469 56.82515 
L 391.432728 56.347798 
L 391.546357 56.44966 
L 391.7168 56.989446 
L 391.986669 58.699089 
L 392.384371 62.838987 
L 392.952517 71.341443 
L 393.804735 87.834382 
L 395.6228 128.592263 
L 397.483477 168.073294 
L 398.875433 193.01093 
L 400.139557 211.816477 
L 401.332662 226.394958 
L 402.312713 236.306347 
L 402.312713 236.306347 
L 402.937673 161.273396 
L 403.548429 112.153174 
L 404.116575 82.886563 
L 404.627906 66.974883 
L 405.068219 59.469365 
L 405.409106 56.82515 
L 405.636364 56.347798 
L 405.749993 56.44966 
L 405.920437 56.989446 
L 406.190306 58.699089 
L 406.588008 62.838987 
L 407.156153 71.341443 
L 408.008371 87.834382 
L 409.826437 128.592263 
L 411.687113 168.073294 
L 413.079069 193.01093 
L 414.343193 211.816477 
L 415.536299 226.394958 
L 416.516349 236.306347 
L 416.516349 236.306347 
L 417.141309 161.273396 
L 417.752066 112.153174 
L 418.320211 82.886563 
L 418.831542 66.974883 
L 419.271855 59.469365 
L 419.612742 56.82515 
L 419.84 56.347798 
L 419.953629 56.44966 
L 420.124073 56.989446 
L 420.393942 58.699089 
L 420.791644 62.838987 
L 421.359789 71.341443 
L 422.212008 87.834382 
L 424.030073 128.592263 
L 425.890749 168.073294 
L 427.282706 193.01093 
L 428.546829 211.816477 
L 429.739935 226.394958 
L 430.719986 236.306347 
L 430.719986 236.306347 
" clip-path="url(#p2aca147d2c)" style="fill: none; stroke: #000000; stroke-width: 2; stroke-linecap: square"/>
   </g>
   <g id="line2d_18">
    <path d="M 77.658168 212.286681 
L 134.472713 191.232683 
L 191.287259 180.96243 
L 248.101804 179.42188 
L 304.916349 179.42188 
L 361.730895 181.989452 
L 418.54544 176.340815 
" clip-path="url(#p2aca147d2c)" style="fill: none; stroke-dasharray: 3.7,1.6; stroke-dashoffset: 0; stroke: #000000"/>
    <defs>
     <path id="m6f6a470ae6" d="M -3 3 
L 3 3 
L 3 -3 
L -3 -3 
z
" style="stroke: #000000; stroke-linejoin: miter"/>
    </defs>
    <g clip-path="url(#p2aca147d2c)">
     <use xlink:href="#m6f6a470ae6" x="77.658168" y="212.286681" style="stroke: #000000; stroke-linejoin: miter"/>
     <use xlink:href="#m6f6a470ae6" x="134.472713" y="191.232683" style="stroke: #000000; stroke-linejoin: miter"/>
     <use xlink:href="#m6f6a470ae6" x="191.287259" y="180.96243" style="stroke: #000000; stroke-linejoin: miter"/>
     <use xlink:href="#m6f6a470ae6" x="248.101804" y="179.42188" style="stroke: #000000; stroke-linejoin: miter"/>
     <use xlink:href="#m6f6a470ae6" x="304.916349" y="179.42188" style="stroke: #000000; stroke-linejoin: miter"/>
     <use xlink:href="#m6f6a470ae6" x="361.730895" y="181.989452" style="stroke: #000000; stroke-linejoin: miter"/>
     <use xlink:href="#m6f6a470ae6" x="418.54544" y="176.340815" style="stroke: #000000; stroke-linejoin: miter"/>
    </g>
   </g>
   <g id="patch_3">
    <path d="M 57.874531 320.4 
L 57.874531 43.2 
" style="fill: none; stroke: #000000; stroke-width: 0.8; stroke-linejoin: miter; stroke-linecap: square"/>
   </g>
   <g id="patch_4">
    <path d="M 448.474531 320.4 
L 448.474531 43.2 
" style="fill: none; stroke: #000000; stroke-width: 0.8; stroke-linejoin: miter; stroke-linecap: square"/>
   </g>
   <g id="patch_5">
    <path d="M 57.874531 320.4 
L 448.474531 320.4 
" style="fill: none; stroke: #000000; stroke-width: 0.8; stroke-linejoin: miter; stroke-linecap: square"/>
   </g>
   <g id="patch_6">
    <path d="M 57.874531 43.2 
L 448.474531 43.2 
" style="fill: none; stroke: #000000; stroke-width: 0.8; stroke-linejoin: miter; stroke-linecap: square"/>
   </g>
   <g id="legend_1">
    <g id="patch_7">
     <path d="M 300.093281 315.4 
L 441.474531 315.4 
Q 443.474531 315.4 443.474531 313.4 
L 443.474531 255.6875 
Q 443.474531 253.6875 441.474531 253.6875 
L 300.093281 253.6875 
Q 298.093281 253.6875 298.093281 255.6875 
L 298.093281 313.4 
Q 298.093281 315.4 300.093281 315.4 
z
" style="fill: #ffffff; opacity: 0.8; stroke: #cccccc; stroke-linejoin: miter"/>
    </g>
    <g id="line2d_19">
     <path d="M 302.093281 261.785937 
L 322.093281 261.785937 
" style="fill: none; stroke: #1f77b4; stroke-width: 2; stroke-linecap: square"/>
    </g>
    <g id="line2d_20"/>
    <g id="text_17">
     <!-- dul LY05008 -->
     <g transform="translate(330.093281 265.285937) scale(0.1 -0.1)">
      <defs>
       <path id="DejaVuSans-64" d="M 2906 2969 
L 2906 4863 
L 3481 4863 
L 3481 0 
L 2906 0 
L 2906 525 
Q 2725 213 2448 61 
Q 2172 -91 1784 -91 
Q 1150 -91 751 415 
Q 353 922 353 1747 
Q 353 2572 751 3078 
Q 1150 3584 1784 3584 
Q 2172 3584 2448 3432 
Q 2725 3281 2906 2969 
z
M 947 1747 
Q 947 1113 1208 752 
Q 1469 391 1925 391 
Q 2381 391 2643 752 
Q 2906 1113 2906 1747 
Q 2906 2381 2643 2742 
Q 2381 3103 1925 3103 
Q 1469 3103 1208 2742 
Q 947 2381 947 1747 
z
" transform="scale(0.015625)"/>
       <path id="DejaVuSans-75" d="M 544 1381 
L 544 3500 
L 1119 3500 
L 1119 1403 
Q 1119 906 1312 657 
Q 1506 409 1894 409 
Q 2359 409 2629 706 
Q 2900 1003 2900 1516 
L 2900 3500 
L 3475 3500 
L 3475 0 
L 2900 0 
L 2900 538 
Q 2691 219 2414 64 
Q 2138 -91 1772 -91 
Q 1169 -91 856 284 
Q 544 659 544 1381 
z
M 1991 3584 
L 1991 3584 
z
" transform="scale(0.015625)"/>
       <path id="DejaVuSans-6c" d="M 603 4863 
L 1178 4863 
L 1178 0 
L 603 0 
L 603 4863 
z
" transform="scale(0.015625)"/>
       <path id="DejaVuSans-20" transform="scale(0.015625)"/>
       <path id="DejaVuSans-4c" d="M 628 4666 
L 1259 4666 
L 1259 531 
L 3531 531 
L 3531 0 
L 628 0 
L 628 4666 
z
" transform="scale(0.015625)"/>
       <path id="DejaVuSans-59" d="M -13 4666 
L 666 4666 
L 1959 2747 
L 3244 4666 
L 3922 4666 
L 2272 2222 
L 2272 0 
L 1638 0 
L 1638 2222 
L -13 4666 
z
" transform="scale(0.015625)"/>
       <path id="DejaVuSans-38" d="M 2034 2216 
Q 1584 2216 1326 1975 
Q 1069 1734 1069 1313 
Q 1069 891 1326 650 
Q 1584 409 2034 409 
Q 2484 409 2743 651 
Q 3003 894 3003 1313 
Q 3003 1734 2745 1975 
Q 2488 2216 2034 2216 
z
M 1403 2484 
Q 997 2584 770 2862 
Q 544 3141 544 3541 
Q 544 4100 942 4425 
Q 1341 4750 2034 4750 
Q 2731 4750 3128 4425 
Q 3525 4100 3525 3541 
Q 3525 3141 3298 2862 
Q 3072 2584 2669 2484 
Q 3125 2378 3379 2068 
Q 3634 1759 3634 1313 
Q 3634 634 3220 271 
Q 2806 -91 2034 -91 
Q 1263 -91 848 271 
Q 434 634 434 1313 
Q 434 1759 690 2068 
Q 947 2378 1403 2484 
z
M 1172 3481 
Q 1172 3119 1398 2916 
Q 1625 2713 2034 2713 
Q 2441 2713 2670 2916 
Q 2900 3119 2900 3481 
Q 2900 3844 2670 4047 
Q 2441 4250 2034 4250 
Q 1625 4250 1398 4047 
Q 1172 3844 1172 3481 
z
" transform="scale(0.015625)"/>
      </defs>
      <use xlink:href="#DejaVuSans-64"/>
      <use xlink:href="#DejaVuSans-75" transform="translate(63.476562 0)"/>
      <use xlink:href="#DejaVuSans-6c" transform="translate(126.855469 0)"/>
      <use xlink:href="#DejaVuSans-20" transform="translate(154.638672 0)"/>
      <use xlink:href="#DejaVuSans-4c" transform="translate(186.425781 0)"/>
      <use xlink:href="#DejaVuSans-59" transform="translate(228.888672 0)"/>
      <use xlink:href="#DejaVuSans-30" transform="translate(289.972656 0)"/>
      <use xlink:href="#DejaVuSans-35" transform="translate(353.595703 0)"/>
      <use xlink:href="#DejaVuSans-30" transform="translate(417.21875 0)"/>
      <use xlink:href="#DejaVuSans-30" transform="translate(480.841797 0)"/>
      <use xlink:href="#DejaVuSans-38" transform="translate(544.464844 0)"/>
     </g>
    </g>
    <g id="LineCollection_3">
     <path d="M 312.093281 281.464062 
L 312.093281 271.464062 
" style="fill: none; stroke: #1f77b4"/>
    </g>
    <g id="line2d_21">
     <path d="M 302.093281 276.464062 
L 322.093281 276.464062 
" style="fill: none; stroke-dasharray: 3.7,1.6; stroke-dashoffset: 0; stroke: #1f77b4"/>
    </g>
    <g id="line2d_22">
     <g>
      <use xlink:href="#m6c5bf6f271" x="312.093281" y="276.464062" style="fill: #1f77b4; stroke: #000000; stroke-linejoin: miter"/>
     </g>
    </g>
    <g id="text_18">
     <!-- LY05008±SD (n=222) -->
     <g transform="translate(330.093281 279.964062) scale(0.1 -0.1)">
      <defs>
       <path id="DejaVuSans-b1" d="M 2944 4013 
L 2944 2803 
L 4684 2803 
L 4684 2272 
L 2944 2272 
L 2944 1063 
L 2419 1063 
L 2419 2272 
L 678 2272 
L 678 2803 
L 2419 2803 
L 2419 4013 
L 2944 4013 
z
M 678 531 
L 4684 531 
L 4684 0 
L 678 0 
L 678 531 
z
" transform="scale(0.015625)"/>
       <path id="DejaVuSans-53" d="M 3425 4513 
L 3425 3897 
Q 3066 4069 2747 4153 
Q 2428 4238 2131 4238 
Q 1616 4238 1336 4038 
Q 1056 3838 1056 3469 
Q 1056 3159 1242 3001 
Q 1428 2844 1947 2747 
L 2328 2669 
Q 3034 2534 3370 2195 
Q 3706 1856 3706 1288 
Q 3706 609 3251 259 
Q 2797 -91 1919 -91 
Q 1588 -91 1214 -16 
Q 841 59 441 206 
L 441 856 
Q 825 641 1194 531 
Q 1563 422 1919 422 
Q 2459 422 2753 634 
Q 3047 847 3047 1241 
Q 3047 1584 2836 1778 
Q 2625 1972 2144 2069 
L 1759 2144 
Q 1053 2284 737 2584 
Q 422 2884 422 3419 
Q 422 4038 858 4394 
Q 1294 4750 2059 4750 
Q 2388 4750 2728 4690 
Q 3069 4631 3425 4513 
z
" transform="scale(0.015625)"/>
       <path id="DejaVuSans-44" d="M 1259 4147 
L 1259 519 
L 2022 519 
Q 2988 519 3436 956 
Q 3884 1394 3884 2338 
Q 3884 3275 3436 3711 
Q 2988 4147 2022 4147 
L 1259 4147 
z
M 628 4666 
L 1925 4666 
Q 3281 4666 3915 4102 
Q 4550 3538 4550 2338 
Q 4550 1131 3912 565 
Q 3275 0 1925 0 
L 628 0 
L 628 4666 
z
" transform="scale(0.015625)"/>
       <path id="DejaVuSans-28" d="M 1984 4856 
Q 1566 4138 1362 3434 
Q 1159 2731 1159 2009 
Q 1159 1288 1364 580 
Q 1569 -128 1984 -844 
L 1484 -844 
Q 1016 -109 783 600 
Q 550 1309 550 2009 
Q 550 2706 781 3412 
Q 1013 4119 1484 4856 
L 1984 4856 
z
" transform="scale(0.015625)"/>
       <path id="DejaVuSans-6e" d="M 3513 2113 
L 3513 0 
L 2938 0 
L 2938 2094 
Q 2938 2591 2744 2837 
Q 2550 3084 2163 3084 
Q 1697 3084 1428 2787 
Q 1159 2491 1159 1978 
L 1159 0 
L 581 0 
L 581 3500 
L 1159 3500 
L 1159 2956 
Q 1366 3272 1645 3428 
Q 1925 3584 2291 3584 
Q 2894 3584 3203 3211 
Q 3513 2838 3513 2113 
z
" transform="scale(0.015625)"/>
       <path id="DejaVuSans-3d" d="M 678 2906 
L 4684 2906 
L 4684 2381 
L 678 2381 
L 678 2906 
z
M 678 1631 
L 4684 1631 
L 4684 1100 
L 678 1100 
L 678 1631 
z
" transform="scale(0.015625)"/>
       <path id="DejaVuSans-29" d="M 513 4856 
L 1013 4856 
Q 1481 4119 1714 3412 
Q 1947 2706 1947 2009 
Q 1947 1309 1714 600 
Q 1481 -109 1013 -844 
L 513 -844 
Q 928 -128 1133 580 
Q 1338 1288 1338 2009 
Q 1338 2731 1133 3434 
Q 928 4138 513 4856 
z
" transform="scale(0.015625)"/>
      </defs>
      <use xlink:href="#DejaVuSans-4c"/>
      <use xlink:href="#DejaVuSans-59" transform="translate(42.462891 0)"/>
      <use xlink:href="#DejaVuSans-30" transform="translate(103.546875 0)"/>
      <use xlink:href="#DejaVuSans-35" transform="translate(167.169922 0)"/>
      <use xlink:href="#DejaVuSans-30" transform="translate(230.792969 0)"/>
      <use xlink:href="#DejaVuSans-30" transform="translate(294.416016 0)"/>
      <use xlink:href="#DejaVuSans-38" transform="translate(358.039062 0)"/>
      <use xlink:href="#DejaVuSans-b1" transform="translate(421.662109 0)"/>
      <use xlink:href="#DejaVuSans-53" transform="translate(505.451172 0)"/>
      <use xlink:href="#DejaVuSans-44" transform="translate(568.927734 0)"/>
      <use xlink:href="#DejaVuSans-20" transform="translate(645.929688 0)"/>
      <use xlink:href="#DejaVuSans-28" transform="translate(677.716797 0)"/>
      <use xlink:href="#DejaVuSans-6e" transform="translate(716.730469 0)"/>
      <use xlink:href="#DejaVuSans-3d" transform="translate(780.109375 0)"/>
      <use xlink:href="#DejaVuSans-32" transform="translate(863.898438 0)"/>
      <use xlink:href="#DejaVuSans-32" transform="translate(927.521484 0)"/>
      <use xlink:href="#DejaVuSans-32" transform="translate(991.144531 0)"/>
      <use xlink:href="#DejaVuSans-29" transform="translate(1054.767578 0)"/>
     </g>
    </g>
    <g id="line2d_23">
     <path d="M 302.093281 291.142187 
L 322.093281 291.142187 
" style="fill: none; stroke: #000000; stroke-width: 2; stroke-linecap: square"/>
    </g>
    <g id="line2d_24"/>
    <g id="text_19">
     <!-- dul DUL15 -->
     <g transform="translate(330.093281 294.642187) scale(0.1 -0.1)">
      <defs>
       <path id="DejaVuSans-55" d="M 556 4666 
L 1191 4666 
L 1191 1831 
Q 1191 1081 1462 751 
Q 1734 422 2344 422 
Q 2950 422 3222 751 
Q 3494 1081 3494 1831 
L 3494 4666 
L 4128 4666 
L 4128 1753 
Q 4128 841 3676 375 
Q 3225 -91 2344 -91 
Q 1459 -91 1007 375 
Q 556 841 556 1753 
L 556 4666 
z
" transform="scale(0.015625)"/>
      </defs>
      <use xlink:href="#DejaVuSans-64"/>
      <use xlink:href="#DejaVuSans-75" transform="translate(63.476562 0)"/>
      <use xlink:href="#DejaVuSans-6c" transform="translate(126.855469 0)"/>
      <use xlink:href="#DejaVuSans-20" transform="translate(154.638672 0)"/>
      <use xlink:href="#DejaVuSans-44" transform="translate(186.425781 0)"/>
      <use xlink:href="#DejaVuSans-55" transform="translate(263.427734 0)"/>
      <use xlink:href="#DejaVuSans-4c" transform="translate(336.621094 0)"/>
      <use xlink:href="#DejaVuSans-31" transform="translate(392.333984 0)"/>
      <use xlink:href="#DejaVuSans-35" transform="translate(455.957031 0)"/>
     </g>
    </g>
    <g id="LineCollection_4">
     <path d="M 312.093281 310.820312 
L 312.093281 300.820312 
" style="fill: none; stroke: #000000"/>
    </g>
    <g id="line2d_25">
     <path d="M 302.093281 305.820312 
L 322.093281 305.820312 
" style="fill: none; stroke-dasharray: 3.7,1.6; stroke-dashoffset: 0; stroke: #000000"/>
    </g>
    <g id="line2d_26">
     <g>
      <use xlink:href="#m6f6a470ae6" x="312.093281" y="305.820312" style="stroke: #000000; stroke-linejoin: miter"/>
     </g>
    </g>
    <g id="text_20">
     <!-- DUL15±SD (n=218) -->
     <g transform="translate(330.093281 309.320312) scale(0.1 -0.1)">
      <use xlink:href="#DejaVuSans-44"/>
      <use xlink:href="#DejaVuSans-55" transform="translate(77.001953 0)"/>
      <use xlink:href="#DejaVuSans-4c" transform="translate(150.195312 0)"/>
      <use xlink:href="#DejaVuSans-31" transform="translate(205.908203 0)"/>
      <use xlink:href="#DejaVuSans-35" transform="translate(269.53125 0)"/>
      <use xlink:href="#DejaVuSans-b1" transform="translate(333.154297 0)"/>
      <use xlink:href="#DejaVuSans-53" transform="translate(416.943359 0)"/>
      <use xlink:href="#DejaVuSans-44" transform="translate(480.419922 0)"/>
      <use xlink:href="#DejaVuSans-20" transform="translate(557.421875 0)"/>
      <use xlink:href="#DejaVuSans-28" transform="translate(589.208984 0)"/>
      <use xlink:href="#DejaVuSans-6e" transform="translate(628.222656 0)"/>
      <use xlink:href="#DejaVuSans-3d" transform="translate(691.601562 0)"/>
      <use xlink:href="#DejaVuSans-32" transform="translate(775.390625 0)"/>
      <use xlink:href="#DejaVuSans-31" transform="translate(839.013672 0)"/>
      <use xlink:href="#DejaVuSans-38" transform="translate(902.636719 0)"/>
      <use xlink:href="#DejaVuSans-29" transform="translate(966.259766 0)"/>
     </g>
    </g>
   </g>
  </g>
  <g id="text_21">
   <!-- Liu2025 (T2DM) -->
   <g transform="translate(135.118672 26.196094) scale(0.25 -0.25)">
    <defs>
     <path id="DejaVuSans-Bold-4c" d="M 588 4666 
L 1791 4666 
L 1791 909 
L 3903 909 
L 3903 0 
L 588 0 
L 588 4666 
z
" transform="scale(0.015625)"/>
     <path id="DejaVuSans-Bold-32" d="M 1844 884 
L 3897 884 
L 3897 0 
L 506 0 
L 506 884 
L 2209 2388 
Q 2438 2594 2547 2791 
Q 2656 2988 2656 3200 
Q 2656 3528 2436 3728 
Q 2216 3928 1850 3928 
Q 1569 3928 1234 3808 
Q 900 3688 519 3450 
L 519 4475 
Q 925 4609 1322 4679 
Q 1719 4750 2100 4750 
Q 2938 4750 3402 4381 
Q 3866 4013 3866 3353 
Q 3866 2972 3669 2642 
Q 3472 2313 2841 1759 
L 1844 884 
z
" transform="scale(0.015625)"/>
     <path id="DejaVuSans-Bold-30" d="M 2944 2338 
Q 2944 3213 2780 3570 
Q 2616 3928 2228 3928 
Q 1841 3928 1675 3570 
Q 1509 3213 1509 2338 
Q 1509 1453 1675 1090 
Q 1841 728 2228 728 
Q 2613 728 2778 1090 
Q 2944 1453 2944 2338 
z
M 4147 2328 
Q 4147 1169 3647 539 
Q 3147 -91 2228 -91 
Q 1306 -91 806 539 
Q 306 1169 306 2328 
Q 306 3491 806 4120 
Q 1306 4750 2228 4750 
Q 3147 4750 3647 4120 
Q 4147 3491 4147 2328 
z
" transform="scale(0.015625)"/>
     <path id="DejaVuSans-Bold-35" d="M 678 4666 
L 3669 4666 
L 3669 3781 
L 1638 3781 
L 1638 3059 
Q 1775 3097 1914 3117 
Q 2053 3138 2203 3138 
Q 3056 3138 3531 2711 
Q 4006 2284 4006 1522 
Q 4006 766 3489 337 
Q 2972 -91 2053 -91 
Q 1656 -91 1267 -14 
Q 878 63 494 219 
L 494 1166 
Q 875 947 1217 837 
Q 1559 728 1863 728 
Q 2300 728 2551 942 
Q 2803 1156 2803 1522 
Q 2803 1891 2551 2103 
Q 2300 2316 1863 2316 
Q 1603 2316 1309 2248 
Q 1016 2181 678 2041 
L 678 4666 
z
" transform="scale(0.015625)"/>
     <path id="DejaVuSans-Bold-28" d="M 2413 -844 
L 1484 -844 
Q 1006 -72 778 623 
Q 550 1319 550 2003 
Q 550 2688 779 3389 
Q 1009 4091 1484 4856 
L 2413 4856 
Q 2013 4116 1813 3408 
Q 1613 2700 1613 2009 
Q 1613 1319 1811 609 
Q 2009 -100 2413 -844 
z
" transform="scale(0.015625)"/>
     <path id="DejaVuSans-Bold-54" d="M 31 4666 
L 4331 4666 
L 4331 3756 
L 2784 3756 
L 2784 0 
L 1581 0 
L 1581 3756 
L 31 3756 
L 31 4666 
z
" transform="scale(0.015625)"/>
     <path id="DejaVuSans-Bold-44" d="M 1791 3756 
L 1791 909 
L 2222 909 
Q 2959 909 3348 1275 
Q 3738 1641 3738 2338 
Q 3738 3031 3350 3393 
Q 2963 3756 2222 3756 
L 1791 3756 
z
M 588 4666 
L 1856 4666 
Q 2919 4666 3439 4514 
Q 3959 4363 4331 4000 
Q 4659 3684 4818 3271 
Q 4978 2859 4978 2338 
Q 4978 1809 4818 1395 
Q 4659 981 4331 666 
Q 3956 303 3431 151 
Q 2906 0 1856 0 
L 588 0 
L 588 4666 
z
" transform="scale(0.015625)"/>
     <path id="DejaVuSans-Bold-29" d="M 513 -844 
Q 913 -100 1113 609 
Q 1313 1319 1313 2009 
Q 1313 2700 1113 3408 
Q 913 4116 513 4856 
L 1441 4856 
Q 1916 4091 2145 3389 
Q 2375 2688 2375 2003 
Q 2375 1319 2147 623 
Q 1919 -72 1441 -844 
L 513 -844 
z
" transform="scale(0.015625)"/>
    </defs>
    <use xlink:href="#DejaVuSans-Bold-4c"/>
    <use xlink:href="#DejaVuSans-Bold-69" transform="translate(63.720703 0)"/>
    <use xlink:href="#DejaVuSans-Bold-75" transform="translate(97.998047 0)"/>
    <use xlink:href="#DejaVuSans-Bold-32" transform="translate(169.189453 0)"/>
    <use xlink:href="#DejaVuSans-Bold-30" transform="translate(238.769531 0)"/>
    <use xlink:href="#DejaVuSans-Bold-32" transform="translate(308.349609 0)"/>
    <use xlink:href="#DejaVuSans-Bold-35" transform="translate(377.929688 0)"/>
    <use xlink:href="#DejaVuSans-Bold-20" transform="translate(447.509766 0)"/>
    <use xlink:href="#DejaVuSans-Bold-28" transform="translate(482.324219 0)"/>
    <use xlink:href="#DejaVuSans-Bold-54" transform="translate(528.027344 0)"/>
    <use xlink:href="#DejaVuSans-Bold-32" transform="translate(596.240234 0)"/>
    <use xlink:href="#DejaVuSans-Bold-44" transform="translate(665.820312 0)"/>
    <use xlink:href="#DejaVuSans-Bold-4d" transform="translate(748.828125 0)"/>
    <use xlink:href="#DejaVuSans-Bold-29" transform="translate(848.339844 0)"/>
   </g>
  </g>
 </g>
 <defs>
  <clipPath id="p2aca147d2c">
   <rect x="57.874531" y="43.2" width="390.6" height="277.2"/>
  </clipPath>
 </defs>
</svg>
