<?xml version="1.0" encoding="utf-8" standalone="no"?>
<!DOCTYPE svg PUBLIC "-//W3C//DTD SVG 1.1//EN"
  "http://www.w3.org/Graphics/SVG/1.1/DTD/svg11.dtd">
<svg xmlns:xlink="http://www.w3.org/1999/xlink" width="452.64875pt" height="370.537812pt" viewBox="0 0 452.64875 370.537812" xmlns="http://www.w3.org/2000/svg" version="1.1">
 <metadata>
  <rdf:RDF xmlns:dc="http://purl.org/dc/elements/1.1/" xmlns:cc="http://creativecommons.org/ns#" xmlns:rdf="http://www.w3.org/1999/02/22-rdf-syntax-ns#">
   <cc:Work>
    <dc:type rdf:resource="http://purl.org/dc/dcmitype/StillImage"/>
    <dc:date>2026-01-30T14:57:02.402840</dc:date>
    <dc:format>image/svg+xml</dc:format>
    <dc:creator>
     <cc:Agent>
      <dc:title>Matplotlib v3.10.7, https://matplotlib.org/</dc:title>
     </cc:Agent>
    </dc:creator>
   </cc:Work>
  </rdf:RDF>
 </metadata>
 <defs>
  <style type="text/css">*{stroke-linejoin: round; stroke-linecap: butt}</style>
 </defs>
 <g id="figure_1">
  <g id="patch_1">
   <path d="M 0 370.537812 
L 452.64875 370.537812 
L 452.64875 0 
L 0 0 
z
" style="fill: #ffffff"/>
  </g>
  <g id="axes_1">
   <g id="patch_2">
    <path d="M 54.84875 320.4 
L 445.44875 320.4 
L 445.44875 43.2 
L 54.84875 43.2 
z
" style="fill: #ffffff"/>
   </g>
   <g id="matplotlib.axis_1">
    <g id="xtick_1">
     <g id="line2d_1">
      <defs>
       <path id="ma1933b3d61" d="M 0 0 
L 0 3.5 
" style="stroke: #000000; stroke-width: 0.8"/>
      </defs>
      <g>
       <use xlink:href="#ma1933b3d61" x="72.603295" y="320.4" style="stroke: #000000; stroke-width: 0.8"/>
      </g>
     </g>
     <g id="text_1">
      <!-- 0.0 -->
      <g transform="translate(60.675952 338.797656) scale(0.15 -0.15)">
       <defs>
        <path id="DejaVuSans-30" d="M 2034 4250 
Q 1547 4250 1301 3770 
Q 1056 3291 1056 2328 
Q 1056 1369 1301 889 
Q 1547 409 2034 409 
Q 2525 409 2770 889 
Q 3016 1369 3016 2328 
Q 3016 3291 2770 3770 
Q 2525 4250 2034 4250 
z
M 2034 4750 
Q 2819 4750 3233 4129 
Q 3647 3509 3647 2328 
Q 3647 1150 3233 529 
Q 2819 -91 2034 -91 
Q 1250 -91 836 529 
Q 422 1150 422 2328 
Q 422 3509 836 4129 
Q 1250 4750 2034 4750 
z
" transform="scale(0.015625)"/>
        <path id="DejaVuSans-2e" d="M 684 794 
L 1344 794 
L 1344 0 
L 684 0 
L 684 794 
z
" transform="scale(0.015625)"/>
       </defs>
       <use xlink:href="#DejaVuSans-30"/>
       <use xlink:href="#DejaVuSans-2e" transform="translate(63.623047 0)"/>
       <use xlink:href="#DejaVuSans-30" transform="translate(95.410156 0)"/>
      </g>
     </g>
    </g>
    <g id="xtick_2">
     <g id="line2d_2">
      <g>
       <use xlink:href="#ma1933b3d61" x="150.279432" y="320.4" style="stroke: #000000; stroke-width: 0.8"/>
      </g>
     </g>
     <g id="text_2">
      <!-- 0.5 -->
      <g transform="translate(138.352088 338.797656) scale(0.15 -0.15)">
       <defs>
        <path id="DejaVuSans-35" d="M 691 4666 
L 3169 4666 
L 3169 4134 
L 1269 4134 
L 1269 2991 
Q 1406 3038 1543 3061 
Q 1681 3084 1819 3084 
Q 2600 3084 3056 2656 
Q 3513 2228 3513 1497 
Q 3513 744 3044 326 
Q 2575 -91 1722 -91 
Q 1428 -91 1123 -41 
Q 819 9 494 109 
L 494 744 
Q 775 591 1075 516 
Q 1375 441 1709 441 
Q 2250 441 2565 725 
Q 2881 1009 2881 1497 
Q 2881 1984 2565 2268 
Q 2250 2553 1709 2553 
Q 1456 2553 1204 2497 
Q 953 2441 691 2322 
L 691 4666 
z
" transform="scale(0.015625)"/>
       </defs>
       <use xlink:href="#DejaVuSans-30"/>
       <use xlink:href="#DejaVuSans-2e" transform="translate(63.623047 0)"/>
       <use xlink:href="#DejaVuSans-35" transform="translate(95.410156 0)"/>
      </g>
     </g>
    </g>
    <g id="xtick_3">
     <g id="line2d_3">
      <g>
       <use xlink:href="#ma1933b3d61" x="227.955568" y="320.4" style="stroke: #000000; stroke-width: 0.8"/>
      </g>
     </g>
     <g id="text_3">
      <!-- 1.0 -->
      <g transform="translate(216.028224 338.797656) scale(0.15 -0.15)">
       <defs>
        <path id="DejaVuSans-31" d="M 794 531 
L 1825 531 
L 1825 4091 
L 703 3866 
L 703 4441 
L 1819 4666 
L 2450 4666 
L 2450 531 
L 3481 531 
L 3481 0 
L 794 0 
L 794 531 
z
" transform="scale(0.015625)"/>
       </defs>
       <use xlink:href="#DejaVuSans-31"/>
       <use xlink:href="#DejaVuSans-2e" transform="translate(63.623047 0)"/>
       <use xlink:href="#DejaVuSans-30" transform="translate(95.410156 0)"/>
      </g>
     </g>
    </g>
    <g id="xtick_4">
     <g id="line2d_4">
      <g>
       <use xlink:href="#ma1933b3d61" x="305.631705" y="320.4" style="stroke: #000000; stroke-width: 0.8"/>
      </g>
     </g>
     <g id="text_4">
      <!-- 1.5 -->
      <g transform="translate(293.704361 338.797656) scale(0.15 -0.15)">
       <use xlink:href="#DejaVuSans-31"/>
       <use xlink:href="#DejaVuSans-2e" transform="translate(63.623047 0)"/>
       <use xlink:href="#DejaVuSans-35" transform="translate(95.410156 0)"/>
      </g>
     </g>
    </g>
    <g id="xtick_5">
     <g id="line2d_5">
      <g>
       <use xlink:href="#ma1933b3d61" x="383.307841" y="320.4" style="stroke: #000000; stroke-width: 0.8"/>
      </g>
     </g>
     <g id="text_5">
      <!-- 2.0 -->
      <g transform="translate(371.380497 338.797656) scale(0.15 -0.15)">
       <defs>
        <path id="DejaVuSans-32" d="M 1228 531 
L 3431 531 
L 3431 0 
L 469 0 
L 469 531 
Q 828 903 1448 1529 
Q 2069 2156 2228 2338 
Q 2531 2678 2651 2914 
Q 2772 3150 2772 3378 
Q 2772 3750 2511 3984 
Q 2250 4219 1831 4219 
Q 1534 4219 1204 4116 
Q 875 4013 500 3803 
L 500 4441 
Q 881 4594 1212 4672 
Q 1544 4750 1819 4750 
Q 2544 4750 2975 4387 
Q 3406 4025 3406 3419 
Q 3406 3131 3298 2873 
Q 3191 2616 2906 2266 
Q 2828 2175 2409 1742 
Q 1991 1309 1228 531 
z
" transform="scale(0.015625)"/>
       </defs>
       <use xlink:href="#DejaVuSans-32"/>
       <use xlink:href="#DejaVuSans-2e" transform="translate(63.623047 0)"/>
       <use xlink:href="#DejaVuSans-30" transform="translate(95.410156 0)"/>
      </g>
     </g>
    </g>
    <g id="text_6">
     <!-- time [week] -->
     <g transform="translate(189.41 359.594375) scale(0.18 -0.18)">
      <defs>
       <path id="DejaVuSans-Bold-74" d="M 1759 4494 
L 1759 3500 
L 2913 3500 
L 2913 2700 
L 1759 2700 
L 1759 1216 
Q 1759 972 1856 886 
Q 1953 800 2241 800 
L 2816 800 
L 2816 0 
L 1856 0 
Q 1194 0 917 276 
Q 641 553 641 1216 
L 641 2700 
L 84 2700 
L 84 3500 
L 641 3500 
L 641 4494 
L 1759 4494 
z
" transform="scale(0.015625)"/>
       <path id="DejaVuSans-Bold-69" d="M 538 3500 
L 1656 3500 
L 1656 0 
L 538 0 
L 538 3500 
z
M 538 4863 
L 1656 4863 
L 1656 3950 
L 538 3950 
L 538 4863 
z
" transform="scale(0.015625)"/>
       <path id="DejaVuSans-Bold-6d" d="M 3781 2919 
Q 3994 3244 4286 3414 
Q 4578 3584 4928 3584 
Q 5531 3584 5847 3212 
Q 6163 2841 6163 2131 
L 6163 0 
L 5038 0 
L 5038 1825 
Q 5041 1866 5042 1909 
Q 5044 1953 5044 2034 
Q 5044 2406 4934 2573 
Q 4825 2741 4581 2741 
Q 4263 2741 4089 2478 
Q 3916 2216 3909 1719 
L 3909 0 
L 2784 0 
L 2784 1825 
Q 2784 2406 2684 2573 
Q 2584 2741 2328 2741 
Q 2006 2741 1831 2477 
Q 1656 2213 1656 1722 
L 1656 0 
L 531 0 
L 531 3500 
L 1656 3500 
L 1656 2988 
Q 1863 3284 2130 3434 
Q 2397 3584 2719 3584 
Q 3081 3584 3359 3409 
Q 3638 3234 3781 2919 
z
" transform="scale(0.015625)"/>
       <path id="DejaVuSans-Bold-65" d="M 4031 1759 
L 4031 1441 
L 1416 1441 
Q 1456 1047 1700 850 
Q 1944 653 2381 653 
Q 2734 653 3104 758 
Q 3475 863 3866 1075 
L 3866 213 
Q 3469 63 3072 -14 
Q 2675 -91 2278 -91 
Q 1328 -91 801 392 
Q 275 875 275 1747 
Q 275 2603 792 3093 
Q 1309 3584 2216 3584 
Q 3041 3584 3536 3087 
Q 4031 2591 4031 1759 
z
M 2881 2131 
Q 2881 2450 2695 2645 
Q 2509 2841 2209 2841 
Q 1884 2841 1681 2658 
Q 1478 2475 1428 2131 
L 2881 2131 
z
" transform="scale(0.015625)"/>
       <path id="DejaVuSans-Bold-20" transform="scale(0.015625)"/>
       <path id="DejaVuSans-Bold-5b" d="M 550 4863 
L 2491 4863 
L 2491 4159 
L 1613 4159 
L 1613 -141 
L 2491 -141 
L 2491 -844 
L 550 -844 
L 550 4863 
z
" transform="scale(0.015625)"/>
       <path id="DejaVuSans-Bold-77" d="M 225 3500 
L 1313 3500 
L 1900 1088 
L 2491 3500 
L 3425 3500 
L 4013 1113 
L 4603 3500 
L 5691 3500 
L 4769 0 
L 3547 0 
L 2956 2406 
L 2369 0 
L 1147 0 
L 225 3500 
z
" transform="scale(0.015625)"/>
       <path id="DejaVuSans-Bold-6b" d="M 538 4863 
L 1656 4863 
L 1656 2216 
L 2944 3500 
L 4244 3500 
L 2534 1894 
L 4378 0 
L 3022 0 
L 1656 1459 
L 1656 0 
L 538 0 
L 538 4863 
z
" transform="scale(0.015625)"/>
       <path id="DejaVuSans-Bold-5d" d="M 2375 -844 
L 434 -844 
L 434 -141 
L 1313 -141 
L 1313 4159 
L 434 4159 
L 434 4863 
L 2375 4863 
L 2375 -844 
z
" transform="scale(0.015625)"/>
      </defs>
      <use xlink:href="#DejaVuSans-Bold-74"/>
      <use xlink:href="#DejaVuSans-Bold-69" transform="translate(47.802734 0)"/>
      <use xlink:href="#DejaVuSans-Bold-6d" transform="translate(82.080078 0)"/>
      <use xlink:href="#DejaVuSans-Bold-65" transform="translate(186.279297 0)"/>
      <use xlink:href="#DejaVuSans-Bold-20" transform="translate(254.101562 0)"/>
      <use xlink:href="#DejaVuSans-Bold-5b" transform="translate(288.916016 0)"/>
      <use xlink:href="#DejaVuSans-Bold-77" transform="translate(334.619141 0)"/>
      <use xlink:href="#DejaVuSans-Bold-65" transform="translate(427.001953 0)"/>
      <use xlink:href="#DejaVuSans-Bold-65" transform="translate(494.824219 0)"/>
      <use xlink:href="#DejaVuSans-Bold-6b" transform="translate(562.646484 0)"/>
      <use xlink:href="#DejaVuSans-Bold-5d" transform="translate(629.150391 0)"/>
     </g>
    </g>
   </g>
   <g id="matplotlib.axis_2">
    <g id="ytick_1">
     <g id="line2d_6">
      <defs>
       <path id="ma147e55ade" d="M 0 0 
L -3.5 0 
" style="stroke: #000000; stroke-width: 0.8"/>
      </defs>
      <g>
       <use xlink:href="#ma147e55ade" x="54.84875" y="307.8" style="stroke: #000000; stroke-width: 0.8"/>
      </g>
     </g>
     <g id="text_7">
      <!-- 0 -->
      <g transform="translate(38.305 313.498828) scale(0.15 -0.15)">
       <use xlink:href="#DejaVuSans-30"/>
      </g>
     </g>
    </g>
    <g id="ytick_2">
     <g id="line2d_7">
      <g>
       <use xlink:href="#ma147e55ade" x="54.84875" y="264.176686" style="stroke: #000000; stroke-width: 0.8"/>
      </g>
     </g>
     <g id="text_8">
      <!-- 5 -->
      <g transform="translate(38.305 269.875514) scale(0.15 -0.15)">
       <use xlink:href="#DejaVuSans-35"/>
      </g>
     </g>
    </g>
    <g id="ytick_3">
     <g id="line2d_8">
      <g>
       <use xlink:href="#ma147e55ade" x="54.84875" y="220.553373" style="stroke: #000000; stroke-width: 0.8"/>
      </g>
     </g>
     <g id="text_9">
      <!-- 10 -->
      <g transform="translate(28.76125 226.252201) scale(0.15 -0.15)">
       <use xlink:href="#DejaVuSans-31"/>
       <use xlink:href="#DejaVuSans-30" transform="translate(63.623047 0)"/>
      </g>
     </g>
    </g>
    <g id="ytick_4">
     <g id="line2d_9">
      <g>
       <use xlink:href="#ma147e55ade" x="54.84875" y="176.930059" style="stroke: #000000; stroke-width: 0.8"/>
      </g>
     </g>
     <g id="text_10">
      <!-- 15 -->
      <g transform="translate(28.76125 182.628887) scale(0.15 -0.15)">
       <use xlink:href="#DejaVuSans-31"/>
       <use xlink:href="#DejaVuSans-35" transform="translate(63.623047 0)"/>
      </g>
     </g>
    </g>
    <g id="ytick_5">
     <g id="line2d_10">
      <g>
       <use xlink:href="#ma147e55ade" x="54.84875" y="133.306745" style="stroke: #000000; stroke-width: 0.8"/>
      </g>
     </g>
     <g id="text_11">
      <!-- 20 -->
      <g transform="translate(28.76125 139.005573) scale(0.15 -0.15)">
       <use xlink:href="#DejaVuSans-32"/>
       <use xlink:href="#DejaVuSans-30" transform="translate(63.623047 0)"/>
      </g>
     </g>
    </g>
    <g id="ytick_6">
     <g id="line2d_11">
      <g>
       <use xlink:href="#ma147e55ade" x="54.84875" y="89.683432" style="stroke: #000000; stroke-width: 0.8"/>
      </g>
     </g>
     <g id="text_12">
      <!-- 25 -->
      <g transform="translate(28.76125 95.38226) scale(0.15 -0.15)">
       <use xlink:href="#DejaVuSans-32"/>
       <use xlink:href="#DejaVuSans-35" transform="translate(63.623047 0)"/>
      </g>
     </g>
    </g>
    <g id="ytick_7">
     <g id="line2d_12">
      <g>
       <use xlink:href="#ma147e55ade" x="54.84875" y="46.060118" style="stroke: #000000; stroke-width: 0.8"/>
      </g>
     </g>
     <g id="text_13">
      <!-- 30 -->
      <g transform="translate(28.76125 51.758946) scale(0.15 -0.15)">
       <defs>
        <path id="DejaVuSans-33" d="M 2597 2516 
Q 3050 2419 3304 2112 
Q 3559 1806 3559 1356 
Q 3559 666 3084 287 
Q 2609 -91 1734 -91 
Q 1441 -91 1130 -33 
Q 819 25 488 141 
L 488 750 
Q 750 597 1062 519 
Q 1375 441 1716 441 
Q 2309 441 2620 675 
Q 2931 909 2931 1356 
Q 2931 1769 2642 2001 
Q 2353 2234 1838 2234 
L 1294 2234 
L 1294 2753 
L 1863 2753 
Q 2328 2753 2575 2939 
Q 2822 3125 2822 3475 
Q 2822 3834 2567 4026 
Q 2313 4219 1838 4219 
Q 1578 4219 1281 4162 
Q 984 4106 628 3988 
L 628 4550 
Q 988 4650 1302 4700 
Q 1616 4750 1894 4750 
Q 2613 4750 3031 4423 
Q 3450 4097 3450 3541 
Q 3450 3153 3228 2886 
Q 3006 2619 2597 2516 
z
" transform="scale(0.015625)"/>
       </defs>
       <use xlink:href="#DejaVuSans-33"/>
       <use xlink:href="#DejaVuSans-30" transform="translate(63.623047 0)"/>
      </g>
     </g>
    </g>
    <g id="text_14">
     <!-- dulaglutide plasma [nM] -->
     <g transform="translate(20.877187 305.940937) rotate(-90) scale(0.18 -0.18)">
      <defs>
       <path id="DejaVuSans-Bold-64" d="M 2919 2988 
L 2919 4863 
L 4044 4863 
L 4044 0 
L 2919 0 
L 2919 506 
Q 2688 197 2409 53 
Q 2131 -91 1766 -91 
Q 1119 -91 703 423 
Q 288 938 288 1747 
Q 288 2556 703 3070 
Q 1119 3584 1766 3584 
Q 2128 3584 2408 3439 
Q 2688 3294 2919 2988 
z
M 2181 722 
Q 2541 722 2730 984 
Q 2919 1247 2919 1747 
Q 2919 2247 2730 2509 
Q 2541 2772 2181 2772 
Q 1825 2772 1636 2509 
Q 1447 2247 1447 1747 
Q 1447 1247 1636 984 
Q 1825 722 2181 722 
z
" transform="scale(0.015625)"/>
       <path id="DejaVuSans-Bold-75" d="M 500 1363 
L 500 3500 
L 1625 3500 
L 1625 3150 
Q 1625 2866 1622 2436 
Q 1619 2006 1619 1863 
Q 1619 1441 1641 1255 
Q 1663 1069 1716 984 
Q 1784 875 1895 815 
Q 2006 756 2150 756 
Q 2500 756 2700 1025 
Q 2900 1294 2900 1772 
L 2900 3500 
L 4019 3500 
L 4019 0 
L 2900 0 
L 2900 506 
Q 2647 200 2364 54 
Q 2081 -91 1741 -91 
Q 1134 -91 817 281 
Q 500 653 500 1363 
z
" transform="scale(0.015625)"/>
       <path id="DejaVuSans-Bold-6c" d="M 538 4863 
L 1656 4863 
L 1656 0 
L 538 0 
L 538 4863 
z
" transform="scale(0.015625)"/>
       <path id="DejaVuSans-Bold-61" d="M 2106 1575 
Q 1756 1575 1579 1456 
Q 1403 1338 1403 1106 
Q 1403 894 1545 773 
Q 1688 653 1941 653 
Q 2256 653 2472 879 
Q 2688 1106 2688 1447 
L 2688 1575 
L 2106 1575 
z
M 3816 1997 
L 3816 0 
L 2688 0 
L 2688 519 
Q 2463 200 2181 54 
Q 1900 -91 1497 -91 
Q 953 -91 614 226 
Q 275 544 275 1050 
Q 275 1666 698 1953 
Q 1122 2241 2028 2241 
L 2688 2241 
L 2688 2328 
Q 2688 2594 2478 2717 
Q 2269 2841 1825 2841 
Q 1466 2841 1156 2769 
Q 847 2697 581 2553 
L 581 3406 
Q 941 3494 1303 3539 
Q 1666 3584 2028 3584 
Q 2975 3584 3395 3211 
Q 3816 2838 3816 1997 
z
" transform="scale(0.015625)"/>
       <path id="DejaVuSans-Bold-67" d="M 2919 594 
Q 2688 288 2409 144 
Q 2131 0 1766 0 
Q 1125 0 706 504 
Q 288 1009 288 1791 
Q 288 2575 706 3076 
Q 1125 3578 1766 3578 
Q 2131 3578 2409 3434 
Q 2688 3291 2919 2981 
L 2919 3500 
L 4044 3500 
L 4044 353 
Q 4044 -491 3511 -936 
Q 2978 -1381 1966 -1381 
Q 1638 -1381 1331 -1331 
Q 1025 -1281 716 -1178 
L 716 -306 
Q 1009 -475 1290 -558 
Q 1572 -641 1856 -641 
Q 2406 -641 2662 -400 
Q 2919 -159 2919 353 
L 2919 594 
z
M 2181 2772 
Q 1834 2772 1640 2515 
Q 1447 2259 1447 1791 
Q 1447 1309 1634 1061 
Q 1822 813 2181 813 
Q 2531 813 2725 1069 
Q 2919 1325 2919 1791 
Q 2919 2259 2725 2515 
Q 2531 2772 2181 2772 
z
" transform="scale(0.015625)"/>
       <path id="DejaVuSans-Bold-70" d="M 1656 506 
L 1656 -1331 
L 538 -1331 
L 538 3500 
L 1656 3500 
L 1656 2988 
Q 1888 3294 2169 3439 
Q 2450 3584 2816 3584 
Q 3463 3584 3878 3070 
Q 4294 2556 4294 1747 
Q 4294 938 3878 423 
Q 3463 -91 2816 -91 
Q 2450 -91 2169 54 
Q 1888 200 1656 506 
z
M 2400 2772 
Q 2041 2772 1848 2508 
Q 1656 2244 1656 1747 
Q 1656 1250 1848 986 
Q 2041 722 2400 722 
Q 2759 722 2948 984 
Q 3138 1247 3138 1747 
Q 3138 2247 2948 2509 
Q 2759 2772 2400 2772 
z
" transform="scale(0.015625)"/>
       <path id="DejaVuSans-Bold-73" d="M 3272 3391 
L 3272 2541 
Q 2913 2691 2578 2766 
Q 2244 2841 1947 2841 
Q 1628 2841 1473 2761 
Q 1319 2681 1319 2516 
Q 1319 2381 1436 2309 
Q 1553 2238 1856 2203 
L 2053 2175 
Q 2913 2066 3209 1816 
Q 3506 1566 3506 1031 
Q 3506 472 3093 190 
Q 2681 -91 1863 -91 
Q 1516 -91 1145 -36 
Q 775 19 384 128 
L 384 978 
Q 719 816 1070 734 
Q 1422 653 1784 653 
Q 2113 653 2278 743 
Q 2444 834 2444 1013 
Q 2444 1163 2330 1236 
Q 2216 1309 1875 1350 
L 1678 1375 
Q 931 1469 631 1722 
Q 331 1975 331 2491 
Q 331 3047 712 3315 
Q 1094 3584 1881 3584 
Q 2191 3584 2531 3537 
Q 2872 3491 3272 3391 
z
" transform="scale(0.015625)"/>
       <path id="DejaVuSans-Bold-6e" d="M 4056 2131 
L 4056 0 
L 2931 0 
L 2931 347 
L 2931 1631 
Q 2931 2084 2911 2256 
Q 2891 2428 2841 2509 
Q 2775 2619 2662 2680 
Q 2550 2741 2406 2741 
Q 2056 2741 1856 2470 
Q 1656 2200 1656 1722 
L 1656 0 
L 538 0 
L 538 3500 
L 1656 3500 
L 1656 2988 
Q 1909 3294 2193 3439 
Q 2478 3584 2822 3584 
Q 3428 3584 3742 3212 
Q 4056 2841 4056 2131 
z
" transform="scale(0.015625)"/>
       <path id="DejaVuSans-Bold-4d" d="M 588 4666 
L 2119 4666 
L 3181 2169 
L 4250 4666 
L 5778 4666 
L 5778 0 
L 4641 0 
L 4641 3413 
L 3566 897 
L 2803 897 
L 1728 3413 
L 1728 0 
L 588 0 
L 588 4666 
z
" transform="scale(0.015625)"/>
      </defs>
      <use xlink:href="#DejaVuSans-Bold-64"/>
      <use xlink:href="#DejaVuSans-Bold-75" transform="translate(71.582031 0)"/>
      <use xlink:href="#DejaVuSans-Bold-6c" transform="translate(142.773438 0)"/>
      <use xlink:href="#DejaVuSans-Bold-61" transform="translate(177.050781 0)"/>
      <use xlink:href="#DejaVuSans-Bold-67" transform="translate(244.53125 0)"/>
      <use xlink:href="#DejaVuSans-Bold-6c" transform="translate(316.113281 0)"/>
      <use xlink:href="#DejaVuSans-Bold-75" transform="translate(350.390625 0)"/>
      <use xlink:href="#DejaVuSans-Bold-74" transform="translate(421.582031 0)"/>
      <use xlink:href="#DejaVuSans-Bold-69" transform="translate(469.384766 0)"/>
      <use xlink:href="#DejaVuSans-Bold-64" transform="translate(503.662109 0)"/>
      <use xlink:href="#DejaVuSans-Bold-65" transform="translate(575.244141 0)"/>
      <use xlink:href="#DejaVuSans-Bold-20" transform="translate(643.066406 0)"/>
      <use xlink:href="#DejaVuSans-Bold-70" transform="translate(677.880859 0)"/>
      <use xlink:href="#DejaVuSans-Bold-6c" transform="translate(749.462891 0)"/>
      <use xlink:href="#DejaVuSans-Bold-61" transform="translate(783.740234 0)"/>
      <use xlink:href="#DejaVuSans-Bold-73" transform="translate(851.220703 0)"/>
      <use xlink:href="#DejaVuSans-Bold-6d" transform="translate(910.742188 0)"/>
      <use xlink:href="#DejaVuSans-Bold-61" transform="translate(1014.941406 0)"/>
      <use xlink:href="#DejaVuSans-Bold-20" transform="translate(1082.421875 0)"/>
      <use xlink:href="#DejaVuSans-Bold-5b" transform="translate(1117.236328 0)"/>
      <use xlink:href="#DejaVuSans-Bold-6e" transform="translate(1162.939453 0)"/>
      <use xlink:href="#DejaVuSans-Bold-4d" transform="translate(1234.130859 0)"/>
      <use xlink:href="#DejaVuSans-Bold-5d" transform="translate(1333.642578 0)"/>
     </g>
    </g>
   </g>
   <g id="LineCollection_1">
    <path clip-path="url(#p7c699ceb5f)" style="fill: none; stroke: #1f77b4"/>
    <path d="M 80.001023 277.594488 
L 80.001023 155.046573 
" clip-path="url(#p7c699ceb5f)" style="fill: none; stroke: #1f77b4"/>
    <path d="M 83.699886 258.608247 
L 83.699886 118.799992 
" clip-path="url(#p7c699ceb5f)" style="fill: none; stroke: #1f77b4"/>
    <path d="M 94.796477 174.032847 
L 94.796477 89.457547 
" clip-path="url(#p7c699ceb5f)" style="fill: none; stroke: #1f77b4"/>
    <path d="M 105.893068 160.224675 
L 105.893068 70.471239 
" clip-path="url(#p7c699ceb5f)" style="fill: none; stroke: #1f77b4"/>
    <path d="M 116.989659 149.868504 
L 116.989659 56.663001 
" clip-path="url(#p7c699ceb5f)" style="fill: none; stroke: #1f77b4"/>
    <path d="M 139.182841 160.224675 
L 139.182841 79.101376 
" clip-path="url(#p7c699ceb5f)" style="fill: none; stroke: #1f77b4"/>
    <path d="M 183.569205 200.786324 
L 183.569205 130.019163 
" clip-path="url(#p7c699ceb5f)" style="fill: none; stroke: #1f77b4"/>
    <path d="M 227.955568 226.676701 
L 227.955568 183.526017 
" clip-path="url(#p7c699ceb5f)" style="fill: none; stroke: #1f77b4"/>
    <path d="M 383.307841 288.813725 
L 383.307841 261.197248 
" clip-path="url(#p7c699ceb5f)" style="fill: none; stroke: #1f77b4"/>
   </g>
   <g id="LineCollection_2">
    <path clip-path="url(#p7c699ceb5f)" style="fill: none; stroke: #d62728"/>
    <path d="M 80.001023 264.649349 
L 80.001023 155.909573 
" clip-path="url(#p7c699ceb5f)" style="fill: none; stroke: #d62728"/>
    <path d="M 83.699886 243.936942 
L 83.699886 119.663025 
" clip-path="url(#p7c699ceb5f)" style="fill: none; stroke: #d62728"/>
    <path d="M 94.796477 189.56712 
L 94.796477 89.457547 
" clip-path="url(#p7c699ceb5f)" style="fill: none; stroke: #d62728"/>
    <path d="M 105.893068 175.758881 
L 105.893068 70.471239 
" clip-path="url(#p7c699ceb5f)" style="fill: none; stroke: #d62728"/>
    <path d="M 116.989659 162.813709 
L 116.989659 55.8 
" clip-path="url(#p7c699ceb5f)" style="fill: none; stroke: #d62728"/>
    <path d="M 139.182841 172.306813 
L 139.182841 79.101376 
" clip-path="url(#p7c699ceb5f)" style="fill: none; stroke: #d62728"/>
    <path d="M 183.569205 207.690394 
L 183.569205 130.019163 
" clip-path="url(#p7c699ceb5f)" style="fill: none; stroke: #d62728"/>
    <path d="M 227.955568 230.128769 
L 227.955568 183.526017 
" clip-path="url(#p7c699ceb5f)" style="fill: none; stroke: #d62728"/>
    <path d="M 383.307841 287.087692 
L 383.307841 262.923282 
" clip-path="url(#p7c699ceb5f)" style="fill: none; stroke: #d62728"/>
   </g>
   <g id="LineCollection_3">
    <path clip-path="url(#p7c699ceb5f)" style="fill: none; stroke: #ff7f0e"/>
    <path d="M 80.001023 281.046589 
L 80.001023 191.293154 
" clip-path="url(#p7c699ceb5f)" style="fill: none; stroke: #ff7f0e"/>
    <path d="M 83.699886 269.827418 
L 83.699886 147.279436 
" clip-path="url(#p7c699ceb5f)" style="fill: none; stroke: #ff7f0e"/>
    <path d="M 94.796477 216.320531 
L 94.796477 112.758889 
" clip-path="url(#p7c699ceb5f)" style="fill: none; stroke: #ff7f0e"/>
    <path d="M 105.893068 198.197257 
L 105.893068 99.813684 
" clip-path="url(#p7c699ceb5f)" style="fill: none; stroke: #ff7f0e"/>
    <path d="M 116.989659 182.663017 
L 116.989659 84.279445 
" clip-path="url(#p7c699ceb5f)" style="fill: none; stroke: #ff7f0e"/>
    <path d="M 139.182841 172.306846 
L 139.182841 91.183548 
" clip-path="url(#p7c699ceb5f)" style="fill: none; stroke: #ff7f0e"/>
    <path d="M 183.569205 202.512325 
L 183.569205 136.923299 
" clip-path="url(#p7c699ceb5f)" style="fill: none; stroke: #ff7f0e"/>
    <path d="M 227.955568 226.676701 
L 227.955568 183.526017 
" clip-path="url(#p7c699ceb5f)" style="fill: none; stroke: #ff7f0e"/>
    <path d="M 383.307841 287.087692 
L 383.307841 262.923282 
" clip-path="url(#p7c699ceb5f)" style="fill: none; stroke: #ff7f0e"/>
   </g>
   <g id="line2d_13">
    <path d="M 72.603295 307.8 
L 74.733841 275.456595 
L 76.864386 246.314426 
L 78.994932 220.112539 
L 81.125477 196.632419 
L 83.256023 175.669923 
L 85.386568 157.034395 
L 87.517114 140.547835 
L 89.647659 126.044112 
L 91.423114 115.360205 
L 93.198568 105.861322 
L 94.974023 97.468105 
L 96.749477 90.105722 
L 98.524932 83.703619 
L 100.300386 78.195304 
L 102.075841 73.518128 
L 103.496205 70.335034 
L 104.916568 67.617419 
L 106.336932 65.338019 
L 107.757295 63.47086 
L 109.177659 61.991209 
L 110.598023 60.875513 
L 112.018386 60.101354 
L 113.43875 59.647398 
L 114.859114 59.493347 
L 116.279477 59.619893 
L 117.699841 60.008677 
L 119.120205 60.642247 
L 120.540568 61.504016 
L 122.316023 62.878203 
L 124.091477 64.555342 
L 126.222023 66.929601 
L 128.352568 69.65723 
L 130.838205 73.232319 
L 133.678932 77.764582 
L 136.87475 83.33834 
L 140.425659 90.00408 
L 144.68675 98.496745 
L 150.368205 110.371789 
L 162.086205 135.576441 
L 170.253295 152.847355 
L 176.644932 165.851203 
L 182.326386 176.90897 
L 187.65275 186.787958 
L 192.624023 195.552351 
L 197.595295 203.860541 
L 202.211477 211.160961 
L 206.827659 218.062552 
L 211.443841 224.569775 
L 216.060023 230.690428 
L 220.676205 236.43491 
L 225.292386 241.815599 
L 229.908568 246.846336 
L 234.52475 251.541982 
L 239.140932 255.918069 
L 243.757114 259.990495 
L 248.373295 263.775286 
L 252.989477 267.288399 
L 257.96075 270.785958 
L 262.932023 274.005864 
L 267.903295 276.966697 
L 273.229659 279.871818 
L 278.556023 282.521032 
L 284.237477 285.08719 
L 289.918932 287.407541 
L 295.955477 289.627336 
L 302.347114 291.727691 
L 308.73875 293.596281 
L 315.485477 295.343405 
L 322.587295 296.959855 
L 330.399295 298.505398 
L 338.566386 299.893863 
L 347.443659 301.175935 
L 357.031114 302.334496 
L 367.683841 303.391588 
L 379.401841 304.325056 
L 392.540205 305.143327 
L 407.454023 305.845268 
L 424.853477 306.436843 
L 427.694205 306.515054 
L 427.694205 306.515054 
" clip-path="url(#p7c699ceb5f)" style="fill: none; stroke: #1f77b4; stroke-width: 2; stroke-linecap: square"/>
   </g>
   <g id="line2d_14">
    <path d="M 72.603295 307.8 
L 80.001023 216.320531 
L 83.699886 188.704119 
L 94.796477 131.745197 
L 105.893068 115.347957 
L 116.989659 103.265752 
L 139.182841 119.663025 
L 183.569205 165.402743 
L 227.955568 205.101359 
L 383.307841 275.005487 
" clip-path="url(#p7c699ceb5f)" style="fill: none; stroke-dasharray: 3.7,1.6; stroke-dashoffset: 0; stroke: #1f77b4"/>
    <defs>
     <path id="mbf2ce26f79" d="M -3 3 
L 3 3 
L 3 -3 
L -3 -3 
z
" style="stroke: #000000; stroke-linejoin: miter"/>
    </defs>
    <g clip-path="url(#p7c699ceb5f)">
     <use xlink:href="#mbf2ce26f79" x="72.603295" y="307.8" style="fill: #1f77b4; stroke: #000000; stroke-linejoin: miter"/>
     <use xlink:href="#mbf2ce26f79" x="80.001023" y="216.320531" style="fill: #1f77b4; stroke: #000000; stroke-linejoin: miter"/>
     <use xlink:href="#mbf2ce26f79" x="83.699886" y="188.704119" style="fill: #1f77b4; stroke: #000000; stroke-linejoin: miter"/>
     <use xlink:href="#mbf2ce26f79" x="94.796477" y="131.745197" style="fill: #1f77b4; stroke: #000000; stroke-linejoin: miter"/>
     <use xlink:href="#mbf2ce26f79" x="105.893068" y="115.347957" style="fill: #1f77b4; stroke: #000000; stroke-linejoin: miter"/>
     <use xlink:href="#mbf2ce26f79" x="116.989659" y="103.265752" style="fill: #1f77b4; stroke: #000000; stroke-linejoin: miter"/>
     <use xlink:href="#mbf2ce26f79" x="139.182841" y="119.663025" style="fill: #1f77b4; stroke: #000000; stroke-linejoin: miter"/>
     <use xlink:href="#mbf2ce26f79" x="183.569205" y="165.402743" style="fill: #1f77b4; stroke: #000000; stroke-linejoin: miter"/>
     <use xlink:href="#mbf2ce26f79" x="227.955568" y="205.101359" style="fill: #1f77b4; stroke: #000000; stroke-linejoin: miter"/>
     <use xlink:href="#mbf2ce26f79" x="383.307841" y="275.005487" style="fill: #1f77b4; stroke: #000000; stroke-linejoin: miter"/>
    </g>
   </g>
   <g id="line2d_15">
    <path d="M 72.603295 307.8 
L 74.733841 275.456595 
L 76.864386 246.314426 
L 78.994932 220.112539 
L 81.125477 196.632419 
L 83.256023 175.669923 
L 85.386568 157.034395 
L 87.517114 140.547835 
L 89.647659 126.044112 
L 91.423114 115.360205 
L 93.198568 105.861322 
L 94.974023 97.468105 
L 96.749477 90.105722 
L 98.524932 83.703619 
L 100.300386 78.195304 
L 102.075841 73.518128 
L 103.496205 70.335034 
L 104.916568 67.617419 
L 106.336932 65.338019 
L 107.757295 63.47086 
L 109.177659 61.991209 
L 110.598023 60.875513 
L 112.018386 60.101354 
L 113.43875 59.647398 
L 114.859114 59.493347 
L 116.279477 59.619893 
L 117.699841 60.008677 
L 119.120205 60.642247 
L 120.540568 61.504016 
L 122.316023 62.878203 
L 124.091477 64.555342 
L 126.222023 66.929601 
L 128.352568 69.65723 
L 130.838205 73.232319 
L 133.678932 77.764582 
L 136.87475 83.33834 
L 140.425659 90.00408 
L 144.68675 98.496745 
L 150.368205 110.371789 
L 162.086205 135.576441 
L 170.253295 152.847355 
L 176.644932 165.851203 
L 182.326386 176.90897 
L 187.65275 186.787958 
L 192.624023 195.552351 
L 197.595295 203.860541 
L 202.211477 211.160961 
L 206.827659 218.062552 
L 211.443841 224.569775 
L 216.060023 230.690428 
L 220.676205 236.43491 
L 225.292386 241.815599 
L 229.908568 246.846336 
L 234.52475 251.541982 
L 239.140932 255.918069 
L 243.757114 259.990495 
L 248.373295 263.775286 
L 252.989477 267.288399 
L 257.96075 270.785958 
L 262.932023 274.005864 
L 267.903295 276.966697 
L 273.229659 279.871818 
L 278.556023 282.521032 
L 284.237477 285.08719 
L 289.918932 287.407541 
L 295.955477 289.627336 
L 302.347114 291.727691 
L 308.73875 293.596281 
L 315.485477 295.343405 
L 322.587295 296.959855 
L 330.399295 298.505398 
L 338.566386 299.893863 
L 347.443659 301.175935 
L 357.031114 302.334496 
L 367.683841 303.391588 
L 379.401841 304.325056 
L 392.540205 305.143327 
L 407.454023 305.845268 
L 424.853477 306.436843 
L 427.694205 306.515054 
L 427.694205 306.515054 
" clip-path="url(#p7c699ceb5f)" style="fill: none; stroke: #d62728; stroke-width: 2; stroke-linecap: square"/>
   </g>
   <g id="line2d_16">
    <path d="M 72.603295 307.8 
L 80.001023 210.279461 
L 83.699886 181.799984 
L 94.796477 139.512333 
L 105.893068 123.11506 
L 116.989659 109.306855 
L 139.182841 125.704095 
L 183.569205 168.854778 
L 227.955568 206.827393 
L 383.307841 275.005487 
" clip-path="url(#p7c699ceb5f)" style="fill: none; stroke-dasharray: 3.7,1.6; stroke-dashoffset: 0; stroke: #d62728"/>
    <defs>
     <path id="m69cfff3732" d="M -3 3 
L 3 3 
L 3 -3 
L -3 -3 
z
" style="stroke: #000000; stroke-linejoin: miter"/>
    </defs>
    <g clip-path="url(#p7c699ceb5f)">
     <use xlink:href="#m69cfff3732" x="72.603295" y="307.8" style="fill: #d62728; stroke: #000000; stroke-linejoin: miter"/>
     <use xlink:href="#m69cfff3732" x="80.001023" y="210.279461" style="fill: #d62728; stroke: #000000; stroke-linejoin: miter"/>
     <use xlink:href="#m69cfff3732" x="83.699886" y="181.799984" style="fill: #d62728; stroke: #000000; stroke-linejoin: miter"/>
     <use xlink:href="#m69cfff3732" x="94.796477" y="139.512333" style="fill: #d62728; stroke: #000000; stroke-linejoin: miter"/>
     <use xlink:href="#m69cfff3732" x="105.893068" y="123.11506" style="fill: #d62728; stroke: #000000; stroke-linejoin: miter"/>
     <use xlink:href="#m69cfff3732" x="116.989659" y="109.306855" style="fill: #d62728; stroke: #000000; stroke-linejoin: miter"/>
     <use xlink:href="#m69cfff3732" x="139.182841" y="125.704095" style="fill: #d62728; stroke: #000000; stroke-linejoin: miter"/>
     <use xlink:href="#m69cfff3732" x="183.569205" y="168.854778" style="fill: #d62728; stroke: #000000; stroke-linejoin: miter"/>
     <use xlink:href="#m69cfff3732" x="227.955568" y="206.827393" style="fill: #d62728; stroke: #000000; stroke-linejoin: miter"/>
     <use xlink:href="#m69cfff3732" x="383.307841" y="275.005487" style="fill: #d62728; stroke: #000000; stroke-linejoin: miter"/>
    </g>
   </g>
   <g id="line2d_17">
    <path d="M 72.603295 307.8 
L 74.733841 275.456595 
L 76.864386 246.314426 
L 78.994932 220.112539 
L 81.125477 196.632419 
L 83.256023 175.669923 
L 85.386568 157.034395 
L 87.517114 140.547835 
L 89.647659 126.044112 
L 91.423114 115.360205 
L 93.198568 105.861322 
L 94.974023 97.468105 
L 96.749477 90.105722 
L 98.524932 83.703619 
L 100.300386 78.195304 
L 102.075841 73.518128 
L 103.496205 70.335034 
L 104.916568 67.617419 
L 106.336932 65.338019 
L 107.757295 63.47086 
L 109.177659 61.991209 
L 110.598023 60.875513 
L 112.018386 60.101354 
L 113.43875 59.647398 
L 114.859114 59.493347 
L 116.279477 59.619893 
L 117.699841 60.008677 
L 119.120205 60.642247 
L 120.540568 61.504016 
L 122.316023 62.878203 
L 124.091477 64.555342 
L 126.222023 66.929601 
L 128.352568 69.65723 
L 130.838205 73.232319 
L 133.678932 77.764582 
L 136.87475 83.33834 
L 140.425659 90.00408 
L 144.68675 98.496745 
L 150.368205 110.371789 
L 162.086205 135.576441 
L 170.253295 152.847355 
L 176.644932 165.851203 
L 182.326386 176.90897 
L 187.65275 186.787958 
L 192.624023 195.552351 
L 197.595295 203.860541 
L 202.211477 211.160961 
L 206.827659 218.062552 
L 211.443841 224.569775 
L 216.060023 230.690428 
L 220.676205 236.43491 
L 225.292386 241.815599 
L 229.908568 246.846336 
L 234.52475 251.541982 
L 239.140932 255.918069 
L 243.757114 259.990495 
L 248.373295 263.775286 
L 252.989477 267.288399 
L 257.96075 270.785958 
L 262.932023 274.005864 
L 267.903295 276.966697 
L 273.229659 279.871818 
L 278.556023 282.521032 
L 284.237477 285.08719 
L 289.918932 287.407541 
L 295.955477 289.627336 
L 302.347114 291.727691 
L 308.73875 293.596281 
L 315.485477 295.343405 
L 322.587295 296.959855 
L 330.399295 298.505398 
L 338.566386 299.893863 
L 347.443659 301.175935 
L 357.031114 302.334496 
L 367.683841 303.391588 
L 379.401841 304.325056 
L 392.540205 305.143327 
L 407.454023 305.845268 
L 424.853477 306.436843 
L 427.694205 306.515054 
L 427.694205 306.515054 
" clip-path="url(#p7c699ceb5f)" style="fill: none; stroke: #ff7f0e; stroke-width: 2; stroke-linecap: square"/>
   </g>
   <g id="line2d_18">
    <path d="M 72.603295 307.8 
L 80.001023 236.169871 
L 83.699886 208.553427 
L 94.796477 164.53971 
L 105.893068 149.00547 
L 116.989659 133.471231 
L 139.182841 131.745197 
L 183.569205 169.717812 
L 227.955568 205.101359 
L 383.307841 275.005487 
" clip-path="url(#p7c699ceb5f)" style="fill: none; stroke-dasharray: 3.7,1.6; stroke-dashoffset: 0; stroke: #ff7f0e"/>
    <defs>
     <path id="md429e29b67" d="M -3 3 
L 3 3 
L 3 -3 
L -3 -3 
z
" style="stroke: #000000; stroke-linejoin: miter"/>
    </defs>
    <g clip-path="url(#p7c699ceb5f)">
     <use xlink:href="#md429e29b67" x="72.603295" y="307.8" style="fill: #ff7f0e; stroke: #000000; stroke-linejoin: miter"/>
     <use xlink:href="#md429e29b67" x="80.001023" y="236.169871" style="fill: #ff7f0e; stroke: #000000; stroke-linejoin: miter"/>
     <use xlink:href="#md429e29b67" x="83.699886" y="208.553427" style="fill: #ff7f0e; stroke: #000000; stroke-linejoin: miter"/>
     <use xlink:href="#md429e29b67" x="94.796477" y="164.53971" style="fill: #ff7f0e; stroke: #000000; stroke-linejoin: miter"/>
     <use xlink:href="#md429e29b67" x="105.893068" y="149.00547" style="fill: #ff7f0e; stroke: #000000; stroke-linejoin: miter"/>
     <use xlink:href="#md429e29b67" x="116.989659" y="133.471231" style="fill: #ff7f0e; stroke: #000000; stroke-linejoin: miter"/>
     <use xlink:href="#md429e29b67" x="139.182841" y="131.745197" style="fill: #ff7f0e; stroke: #000000; stroke-linejoin: miter"/>
     <use xlink:href="#md429e29b67" x="183.569205" y="169.717812" style="fill: #ff7f0e; stroke: #000000; stroke-linejoin: miter"/>
     <use xlink:href="#md429e29b67" x="227.955568" y="205.101359" style="fill: #ff7f0e; stroke: #000000; stroke-linejoin: miter"/>
     <use xlink:href="#md429e29b67" x="383.307841" y="275.005487" style="fill: #ff7f0e; stroke: #000000; stroke-linejoin: miter"/>
    </g>
   </g>
   <g id="patch_3">
    <path d="M 54.84875 320.4 
L 54.84875 43.2 
" style="fill: none; stroke: #000000; stroke-width: 0.8; stroke-linejoin: miter; stroke-linecap: square"/>
   </g>
   <g id="patch_4">
    <path d="M 445.44875 320.4 
L 445.44875 43.2 
" style="fill: none; stroke: #000000; stroke-width: 0.8; stroke-linejoin: miter; stroke-linecap: square"/>
   </g>
   <g id="patch_5">
    <path d="M 54.84875 320.4 
L 445.44875 320.4 
" style="fill: none; stroke: #000000; stroke-width: 0.8; stroke-linejoin: miter; stroke-linecap: square"/>
   </g>
   <g id="patch_6">
    <path d="M 54.84875 43.2 
L 445.44875 43.2 
" style="fill: none; stroke: #000000; stroke-width: 0.8; stroke-linejoin: miter; stroke-linecap: square"/>
   </g>
   <g id="legend_1">
    <g id="patch_7">
     <path d="M 298.422188 139.26875 
L 438.44875 139.26875 
Q 440.44875 139.26875 440.44875 137.26875 
L 440.44875 50.2 
Q 440.44875 48.2 438.44875 48.2 
L 298.422188 48.2 
Q 296.422188 48.2 296.422188 50.2 
L 296.422188 137.26875 
Q 296.422188 139.26875 298.422188 139.26875 
z
" style="fill: #ffffff; opacity: 0.8; stroke: #cccccc; stroke-linejoin: miter"/>
    </g>
    <g id="line2d_19">
     <path d="M 300.422188 56.298437 
L 320.422188 56.298437 
" style="fill: none; stroke: #1f77b4; stroke-width: 2; stroke-linecap: square"/>
    </g>
    <g id="line2d_20"/>
    <g id="text_15">
     <!-- abdomen -->
     <g transform="translate(328.422188 59.798437) scale(0.1 -0.1)">
      <defs>
       <path id="DejaVuSans-61" d="M 2194 1759 
Q 1497 1759 1228 1600 
Q 959 1441 959 1056 
Q 959 750 1161 570 
Q 1363 391 1709 391 
Q 2188 391 2477 730 
Q 2766 1069 2766 1631 
L 2766 1759 
L 2194 1759 
z
M 3341 1997 
L 3341 0 
L 2766 0 
L 2766 531 
Q 2569 213 2275 61 
Q 1981 -91 1556 -91 
Q 1019 -91 701 211 
Q 384 513 384 1019 
Q 384 1609 779 1909 
Q 1175 2209 1959 2209 
L 2766 2209 
L 2766 2266 
Q 2766 2663 2505 2880 
Q 2244 3097 1772 3097 
Q 1472 3097 1187 3025 
Q 903 2953 641 2809 
L 641 3341 
Q 956 3463 1253 3523 
Q 1550 3584 1831 3584 
Q 2591 3584 2966 3190 
Q 3341 2797 3341 1997 
z
" transform="scale(0.015625)"/>
       <path id="DejaVuSans-62" d="M 3116 1747 
Q 3116 2381 2855 2742 
Q 2594 3103 2138 3103 
Q 1681 3103 1420 2742 
Q 1159 2381 1159 1747 
Q 1159 1113 1420 752 
Q 1681 391 2138 391 
Q 2594 391 2855 752 
Q 3116 1113 3116 1747 
z
M 1159 2969 
Q 1341 3281 1617 3432 
Q 1894 3584 2278 3584 
Q 2916 3584 3314 3078 
Q 3713 2572 3713 1747 
Q 3713 922 3314 415 
Q 2916 -91 2278 -91 
Q 1894 -91 1617 61 
Q 1341 213 1159 525 
L 1159 0 
L 581 0 
L 581 4863 
L 1159 4863 
L 1159 2969 
z
" transform="scale(0.015625)"/>
       <path id="DejaVuSans-64" d="M 2906 2969 
L 2906 4863 
L 3481 4863 
L 3481 0 
L 2906 0 
L 2906 525 
Q 2725 213 2448 61 
Q 2172 -91 1784 -91 
Q 1150 -91 751 415 
Q 353 922 353 1747 
Q 353 2572 751 3078 
Q 1150 3584 1784 3584 
Q 2172 3584 2448 3432 
Q 2725 3281 2906 2969 
z
M 947 1747 
Q 947 1113 1208 752 
Q 1469 391 1925 391 
Q 2381 391 2643 752 
Q 2906 1113 2906 1747 
Q 2906 2381 2643 2742 
Q 2381 3103 1925 3103 
Q 1469 3103 1208 2742 
Q 947 2381 947 1747 
z
" transform="scale(0.015625)"/>
       <path id="DejaVuSans-6f" d="M 1959 3097 
Q 1497 3097 1228 2736 
Q 959 2375 959 1747 
Q 959 1119 1226 758 
Q 1494 397 1959 397 
Q 2419 397 2687 759 
Q 2956 1122 2956 1747 
Q 2956 2369 2687 2733 
Q 2419 3097 1959 3097 
z
M 1959 3584 
Q 2709 3584 3137 3096 
Q 3566 2609 3566 1747 
Q 3566 888 3137 398 
Q 2709 -91 1959 -91 
Q 1206 -91 779 398 
Q 353 888 353 1747 
Q 353 2609 779 3096 
Q 1206 3584 1959 3584 
z
" transform="scale(0.015625)"/>
       <path id="DejaVuSans-6d" d="M 3328 2828 
Q 3544 3216 3844 3400 
Q 4144 3584 4550 3584 
Q 5097 3584 5394 3201 
Q 5691 2819 5691 2113 
L 5691 0 
L 5113 0 
L 5113 2094 
Q 5113 2597 4934 2840 
Q 4756 3084 4391 3084 
Q 3944 3084 3684 2787 
Q 3425 2491 3425 1978 
L 3425 0 
L 2847 0 
L 2847 2094 
Q 2847 2600 2669 2842 
Q 2491 3084 2119 3084 
Q 1678 3084 1418 2786 
Q 1159 2488 1159 1978 
L 1159 0 
L 581 0 
L 581 3500 
L 1159 3500 
L 1159 2956 
Q 1356 3278 1631 3431 
Q 1906 3584 2284 3584 
Q 2666 3584 2933 3390 
Q 3200 3197 3328 2828 
z
" transform="scale(0.015625)"/>
       <path id="DejaVuSans-65" d="M 3597 1894 
L 3597 1613 
L 953 1613 
Q 991 1019 1311 708 
Q 1631 397 2203 397 
Q 2534 397 2845 478 
Q 3156 559 3463 722 
L 3463 178 
Q 3153 47 2828 -22 
Q 2503 -91 2169 -91 
Q 1331 -91 842 396 
Q 353 884 353 1716 
Q 353 2575 817 3079 
Q 1281 3584 2069 3584 
Q 2775 3584 3186 3129 
Q 3597 2675 3597 1894 
z
M 3022 2063 
Q 3016 2534 2758 2815 
Q 2500 3097 2075 3097 
Q 1594 3097 1305 2825 
Q 1016 2553 972 2059 
L 3022 2063 
z
" transform="scale(0.015625)"/>
       <path id="DejaVuSans-6e" d="M 3513 2113 
L 3513 0 
L 2938 0 
L 2938 2094 
Q 2938 2591 2744 2837 
Q 2550 3084 2163 3084 
Q 1697 3084 1428 2787 
Q 1159 2491 1159 1978 
L 1159 0 
L 581 0 
L 581 3500 
L 1159 3500 
L 1159 2956 
Q 1366 3272 1645 3428 
Q 1925 3584 2291 3584 
Q 2894 3584 3203 3211 
Q 3513 2838 3513 2113 
z
" transform="scale(0.015625)"/>
      </defs>
      <use xlink:href="#DejaVuSans-61"/>
      <use xlink:href="#DejaVuSans-62" transform="translate(61.279297 0)"/>
      <use xlink:href="#DejaVuSans-64" transform="translate(124.755859 0)"/>
      <use xlink:href="#DejaVuSans-6f" transform="translate(188.232422 0)"/>
      <use xlink:href="#DejaVuSans-6d" transform="translate(249.414062 0)"/>
      <use xlink:href="#DejaVuSans-65" transform="translate(346.826172 0)"/>
      <use xlink:href="#DejaVuSans-6e" transform="translate(408.349609 0)"/>
     </g>
    </g>
    <g id="LineCollection_4">
     <path d="M 310.422188 75.976562 
L 310.422188 65.976562 
" style="fill: none; stroke: #1f77b4"/>
    </g>
    <g id="line2d_21">
     <path d="M 300.422188 70.976562 
L 320.422188 70.976562 
" style="fill: none; stroke-dasharray: 3.7,1.6; stroke-dashoffset: 0; stroke: #1f77b4"/>
    </g>
    <g id="line2d_22">
     <g>
      <use xlink:href="#mbf2ce26f79" x="310.422188" y="70.976562" style="fill: #1f77b4; stroke: #000000; stroke-linejoin: miter"/>
     </g>
    </g>
    <g id="text_16">
     <!-- abdomen±SD (n=43) -->
     <g transform="translate(328.422188 74.476562) scale(0.1 -0.1)">
      <defs>
       <path id="DejaVuSans-b1" d="M 2944 4013 
L 2944 2803 
L 4684 2803 
L 4684 2272 
L 2944 2272 
L 2944 1063 
L 2419 1063 
L 2419 2272 
L 678 2272 
L 678 2803 
L 2419 2803 
L 2419 4013 
L 2944 4013 
z
M 678 531 
L 4684 531 
L 4684 0 
L 678 0 
L 678 531 
z
" transform="scale(0.015625)"/>
       <path id="DejaVuSans-53" d="M 3425 4513 
L 3425 3897 
Q 3066 4069 2747 4153 
Q 2428 4238 2131 4238 
Q 1616 4238 1336 4038 
Q 1056 3838 1056 3469 
Q 1056 3159 1242 3001 
Q 1428 2844 1947 2747 
L 2328 2669 
Q 3034 2534 3370 2195 
Q 3706 1856 3706 1288 
Q 3706 609 3251 259 
Q 2797 -91 1919 -91 
Q 1588 -91 1214 -16 
Q 841 59 441 206 
L 441 856 
Q 825 641 1194 531 
Q 1563 422 1919 422 
Q 2459 422 2753 634 
Q 3047 847 3047 1241 
Q 3047 1584 2836 1778 
Q 2625 1972 2144 2069 
L 1759 2144 
Q 1053 2284 737 2584 
Q 422 2884 422 3419 
Q 422 4038 858 4394 
Q 1294 4750 2059 4750 
Q 2388 4750 2728 4690 
Q 3069 4631 3425 4513 
z
" transform="scale(0.015625)"/>
       <path id="DejaVuSans-44" d="M 1259 4147 
L 1259 519 
L 2022 519 
Q 2988 519 3436 956 
Q 3884 1394 3884 2338 
Q 3884 3275 3436 3711 
Q 2988 4147 2022 4147 
L 1259 4147 
z
M 628 4666 
L 1925 4666 
Q 3281 4666 3915 4102 
Q 4550 3538 4550 2338 
Q 4550 1131 3912 565 
Q 3275 0 1925 0 
L 628 0 
L 628 4666 
z
" transform="scale(0.015625)"/>
       <path id="DejaVuSans-20" transform="scale(0.015625)"/>
       <path id="DejaVuSans-28" d="M 1984 4856 
Q 1566 4138 1362 3434 
Q 1159 2731 1159 2009 
Q 1159 1288 1364 580 
Q 1569 -128 1984 -844 
L 1484 -844 
Q 1016 -109 783 600 
Q 550 1309 550 2009 
Q 550 2706 781 3412 
Q 1013 4119 1484 4856 
L 1984 4856 
z
" transform="scale(0.015625)"/>
       <path id="DejaVuSans-3d" d="M 678 2906 
L 4684 2906 
L 4684 2381 
L 678 2381 
L 678 2906 
z
M 678 1631 
L 4684 1631 
L 4684 1100 
L 678 1100 
L 678 1631 
z
" transform="scale(0.015625)"/>
       <path id="DejaVuSans-34" d="M 2419 4116 
L 825 1625 
L 2419 1625 
L 2419 4116 
z
M 2253 4666 
L 3047 4666 
L 3047 1625 
L 3713 1625 
L 3713 1100 
L 3047 1100 
L 3047 0 
L 2419 0 
L 2419 1100 
L 313 1100 
L 313 1709 
L 2253 4666 
z
" transform="scale(0.015625)"/>
       <path id="DejaVuSans-29" d="M 513 4856 
L 1013 4856 
Q 1481 4119 1714 3412 
Q 1947 2706 1947 2009 
Q 1947 1309 1714 600 
Q 1481 -109 1013 -844 
L 513 -844 
Q 928 -128 1133 580 
Q 1338 1288 1338 2009 
Q 1338 2731 1133 3434 
Q 928 4138 513 4856 
z
" transform="scale(0.015625)"/>
      </defs>
      <use xlink:href="#DejaVuSans-61"/>
      <use xlink:href="#DejaVuSans-62" transform="translate(61.279297 0)"/>
      <use xlink:href="#DejaVuSans-64" transform="translate(124.755859 0)"/>
      <use xlink:href="#DejaVuSans-6f" transform="translate(188.232422 0)"/>
      <use xlink:href="#DejaVuSans-6d" transform="translate(249.414062 0)"/>
      <use xlink:href="#DejaVuSans-65" transform="translate(346.826172 0)"/>
      <use xlink:href="#DejaVuSans-6e" transform="translate(408.349609 0)"/>
      <use xlink:href="#DejaVuSans-b1" transform="translate(471.728516 0)"/>
      <use xlink:href="#DejaVuSans-53" transform="translate(555.517578 0)"/>
      <use xlink:href="#DejaVuSans-44" transform="translate(618.994141 0)"/>
      <use xlink:href="#DejaVuSans-20" transform="translate(695.996094 0)"/>
      <use xlink:href="#DejaVuSans-28" transform="translate(727.783203 0)"/>
      <use xlink:href="#DejaVuSans-6e" transform="translate(766.796875 0)"/>
      <use xlink:href="#DejaVuSans-3d" transform="translate(830.175781 0)"/>
      <use xlink:href="#DejaVuSans-34" transform="translate(913.964844 0)"/>
      <use xlink:href="#DejaVuSans-33" transform="translate(977.587891 0)"/>
      <use xlink:href="#DejaVuSans-29" transform="translate(1041.210938 0)"/>
     </g>
    </g>
    <g id="line2d_23">
     <path d="M 300.422188 85.654687 
L 320.422188 85.654687 
" style="fill: none; stroke: #d62728; stroke-width: 2; stroke-linecap: square"/>
    </g>
    <g id="line2d_24"/>
    <g id="text_17">
     <!-- arm -->
     <g transform="translate(328.422188 89.154687) scale(0.1 -0.1)">
      <defs>
       <path id="DejaVuSans-72" d="M 2631 2963 
Q 2534 3019 2420 3045 
Q 2306 3072 2169 3072 
Q 1681 3072 1420 2755 
Q 1159 2438 1159 1844 
L 1159 0 
L 581 0 
L 581 3500 
L 1159 3500 
L 1159 2956 
Q 1341 3275 1631 3429 
Q 1922 3584 2338 3584 
Q 2397 3584 2469 3576 
Q 2541 3569 2628 3553 
L 2631 2963 
z
" transform="scale(0.015625)"/>
      </defs>
      <use xlink:href="#DejaVuSans-61"/>
      <use xlink:href="#DejaVuSans-72" transform="translate(61.279297 0)"/>
      <use xlink:href="#DejaVuSans-6d" transform="translate(100.642578 0)"/>
     </g>
    </g>
    <g id="LineCollection_5">
     <path d="M 310.422188 105.332812 
L 310.422188 95.332812 
" style="fill: none; stroke: #d62728"/>
    </g>
    <g id="line2d_25">
     <path d="M 300.422188 100.332812 
L 320.422188 100.332812 
" style="fill: none; stroke-dasharray: 3.7,1.6; stroke-dashoffset: 0; stroke: #d62728"/>
    </g>
    <g id="line2d_26">
     <g>
      <use xlink:href="#m69cfff3732" x="310.422188" y="100.332812" style="fill: #d62728; stroke: #000000; stroke-linejoin: miter"/>
     </g>
    </g>
    <g id="text_18">
     <!-- arm±SD (n=40) -->
     <g transform="translate(328.422188 103.832812) scale(0.1 -0.1)">
      <use xlink:href="#DejaVuSans-61"/>
      <use xlink:href="#DejaVuSans-72" transform="translate(61.279297 0)"/>
      <use xlink:href="#DejaVuSans-6d" transform="translate(100.642578 0)"/>
      <use xlink:href="#DejaVuSans-b1" transform="translate(198.054688 0)"/>
      <use xlink:href="#DejaVuSans-53" transform="translate(281.84375 0)"/>
      <use xlink:href="#DejaVuSans-44" transform="translate(345.320312 0)"/>
      <use xlink:href="#DejaVuSans-20" transform="translate(422.322266 0)"/>
      <use xlink:href="#DejaVuSans-28" transform="translate(454.109375 0)"/>
      <use xlink:href="#DejaVuSans-6e" transform="translate(493.123047 0)"/>
      <use xlink:href="#DejaVuSans-3d" transform="translate(556.501953 0)"/>
      <use xlink:href="#DejaVuSans-34" transform="translate(640.291016 0)"/>
      <use xlink:href="#DejaVuSans-30" transform="translate(703.914062 0)"/>
      <use xlink:href="#DejaVuSans-29" transform="translate(767.537109 0)"/>
     </g>
    </g>
    <g id="line2d_27">
     <path d="M 300.422188 115.010937 
L 320.422188 115.010937 
" style="fill: none; stroke: #ff7f0e; stroke-width: 2; stroke-linecap: square"/>
    </g>
    <g id="line2d_28"/>
    <g id="text_19">
     <!-- thigh -->
     <g transform="translate(328.422188 118.510937) scale(0.1 -0.1)">
      <defs>
       <path id="DejaVuSans-74" d="M 1172 4494 
L 1172 3500 
L 2356 3500 
L 2356 3053 
L 1172 3053 
L 1172 1153 
Q 1172 725 1289 603 
Q 1406 481 1766 481 
L 2356 481 
L 2356 0 
L 1766 0 
Q 1100 0 847 248 
Q 594 497 594 1153 
L 594 3053 
L 172 3053 
L 172 3500 
L 594 3500 
L 594 4494 
L 1172 4494 
z
" transform="scale(0.015625)"/>
       <path id="DejaVuSans-68" d="M 3513 2113 
L 3513 0 
L 2938 0 
L 2938 2094 
Q 2938 2591 2744 2837 
Q 2550 3084 2163 3084 
Q 1697 3084 1428 2787 
Q 1159 2491 1159 1978 
L 1159 0 
L 581 0 
L 581 4863 
L 1159 4863 
L 1159 2956 
Q 1366 3272 1645 3428 
Q 1925 3584 2291 3584 
Q 2894 3584 3203 3211 
Q 3513 2838 3513 2113 
z
" transform="scale(0.015625)"/>
       <path id="DejaVuSans-69" d="M 603 3500 
L 1178 3500 
L 1178 0 
L 603 0 
L 603 3500 
z
M 603 4863 
L 1178 4863 
L 1178 4134 
L 603 4134 
L 603 4863 
z
" transform="scale(0.015625)"/>
       <path id="DejaVuSans-67" d="M 2906 1791 
Q 2906 2416 2648 2759 
Q 2391 3103 1925 3103 
Q 1463 3103 1205 2759 
Q 947 2416 947 1791 
Q 947 1169 1205 825 
Q 1463 481 1925 481 
Q 2391 481 2648 825 
Q 2906 1169 2906 1791 
z
M 3481 434 
Q 3481 -459 3084 -895 
Q 2688 -1331 1869 -1331 
Q 1566 -1331 1297 -1286 
Q 1028 -1241 775 -1147 
L 775 -588 
Q 1028 -725 1275 -790 
Q 1522 -856 1778 -856 
Q 2344 -856 2625 -561 
Q 2906 -266 2906 331 
L 2906 616 
Q 2728 306 2450 153 
Q 2172 0 1784 0 
Q 1141 0 747 490 
Q 353 981 353 1791 
Q 353 2603 747 3093 
Q 1141 3584 1784 3584 
Q 2172 3584 2450 3431 
Q 2728 3278 2906 2969 
L 2906 3500 
L 3481 3500 
L 3481 434 
z
" transform="scale(0.015625)"/>
      </defs>
      <use xlink:href="#DejaVuSans-74"/>
      <use xlink:href="#DejaVuSans-68" transform="translate(39.208984 0)"/>
      <use xlink:href="#DejaVuSans-69" transform="translate(102.587891 0)"/>
      <use xlink:href="#DejaVuSans-67" transform="translate(130.371094 0)"/>
      <use xlink:href="#DejaVuSans-68" transform="translate(193.847656 0)"/>
     </g>
    </g>
    <g id="LineCollection_6">
     <path d="M 310.422188 134.689062 
L 310.422188 124.689062 
" style="fill: none; stroke: #ff7f0e"/>
    </g>
    <g id="line2d_29">
     <path d="M 300.422188 129.689062 
L 320.422188 129.689062 
" style="fill: none; stroke-dasharray: 3.7,1.6; stroke-dashoffset: 0; stroke: #ff7f0e"/>
    </g>
    <g id="line2d_30">
     <g>
      <use xlink:href="#md429e29b67" x="310.422188" y="129.689062" style="fill: #ff7f0e; stroke: #000000; stroke-linejoin: miter"/>
     </g>
    </g>
    <g id="text_20">
     <!-- thigh±SD (n=39) -->
     <g transform="translate(328.422188 133.189062) scale(0.1 -0.1)">
      <defs>
       <path id="DejaVuSans-39" d="M 703 97 
L 703 672 
Q 941 559 1184 500 
Q 1428 441 1663 441 
Q 2288 441 2617 861 
Q 2947 1281 2994 2138 
Q 2813 1869 2534 1725 
Q 2256 1581 1919 1581 
Q 1219 1581 811 2004 
Q 403 2428 403 3163 
Q 403 3881 828 4315 
Q 1253 4750 1959 4750 
Q 2769 4750 3195 4129 
Q 3622 3509 3622 2328 
Q 3622 1225 3098 567 
Q 2575 -91 1691 -91 
Q 1453 -91 1209 -44 
Q 966 3 703 97 
z
M 1959 2075 
Q 2384 2075 2632 2365 
Q 2881 2656 2881 3163 
Q 2881 3666 2632 3958 
Q 2384 4250 1959 4250 
Q 1534 4250 1286 3958 
Q 1038 3666 1038 3163 
Q 1038 2656 1286 2365 
Q 1534 2075 1959 2075 
z
" transform="scale(0.015625)"/>
      </defs>
      <use xlink:href="#DejaVuSans-74"/>
      <use xlink:href="#DejaVuSans-68" transform="translate(39.208984 0)"/>
      <use xlink:href="#DejaVuSans-69" transform="translate(102.587891 0)"/>
      <use xlink:href="#DejaVuSans-67" transform="translate(130.371094 0)"/>
      <use xlink:href="#DejaVuSans-68" transform="translate(193.847656 0)"/>
      <use xlink:href="#DejaVuSans-b1" transform="translate(257.226562 0)"/>
      <use xlink:href="#DejaVuSans-53" transform="translate(341.015625 0)"/>
      <use xlink:href="#DejaVuSans-44" transform="translate(404.492188 0)"/>
      <use xlink:href="#DejaVuSans-20" transform="translate(481.494141 0)"/>
      <use xlink:href="#DejaVuSans-28" transform="translate(513.28125 0)"/>
      <use xlink:href="#DejaVuSans-6e" transform="translate(552.294922 0)"/>
      <use xlink:href="#DejaVuSans-3d" transform="translate(615.673828 0)"/>
      <use xlink:href="#DejaVuSans-33" transform="translate(699.462891 0)"/>
      <use xlink:href="#DejaVuSans-39" transform="translate(763.085938 0)"/>
      <use xlink:href="#DejaVuSans-29" transform="translate(826.708984 0)"/>
     </g>
    </g>
   </g>
  </g>
  <g id="text_21">
   <!-- FDAGBCN -->
   <g transform="translate(175.837031 26.196094) scale(0.25 -0.25)">
    <defs>
     <path id="DejaVuSans-Bold-46" d="M 588 4666 
L 3834 4666 
L 3834 3756 
L 1791 3756 
L 1791 2888 
L 3713 2888 
L 3713 1978 
L 1791 1978 
L 1791 0 
L 588 0 
L 588 4666 
z
" transform="scale(0.015625)"/>
     <path id="DejaVuSans-Bold-44" d="M 1791 3756 
L 1791 909 
L 2222 909 
Q 2959 909 3348 1275 
Q 3738 1641 3738 2338 
Q 3738 3031 3350 3393 
Q 2963 3756 2222 3756 
L 1791 3756 
z
M 588 4666 
L 1856 4666 
Q 2919 4666 3439 4514 
Q 3959 4363 4331 4000 
Q 4659 3684 4818 3271 
Q 4978 2859 4978 2338 
Q 4978 1809 4818 1395 
Q 4659 981 4331 666 
Q 3956 303 3431 151 
Q 2906 0 1856 0 
L 588 0 
L 588 4666 
z
" transform="scale(0.015625)"/>
     <path id="DejaVuSans-Bold-41" d="M 3419 850 
L 1538 850 
L 1241 0 
L 31 0 
L 1759 4666 
L 3194 4666 
L 4922 0 
L 3713 0 
L 3419 850 
z
M 1838 1716 
L 3116 1716 
L 2478 3572 
L 1838 1716 
z
" transform="scale(0.015625)"/>
     <path id="DejaVuSans-Bold-47" d="M 4781 347 
Q 4331 128 3847 18 
Q 3363 -91 2847 -91 
Q 1681 -91 1000 561 
Q 319 1213 319 2328 
Q 319 3456 1012 4103 
Q 1706 4750 2913 4750 
Q 3378 4750 3804 4662 
Q 4231 4575 4609 4403 
L 4609 3438 
Q 4219 3659 3833 3768 
Q 3447 3878 3059 3878 
Q 2341 3878 1952 3476 
Q 1563 3075 1563 2328 
Q 1563 1588 1938 1184 
Q 2313 781 3003 781 
Q 3191 781 3352 804 
Q 3513 828 3641 878 
L 3641 1784 
L 2906 1784 
L 2906 2591 
L 4781 2591 
L 4781 347 
z
" transform="scale(0.015625)"/>
     <path id="DejaVuSans-Bold-42" d="M 2456 2859 
Q 2741 2859 2887 2984 
Q 3034 3109 3034 3353 
Q 3034 3594 2887 3720 
Q 2741 3847 2456 3847 
L 1791 3847 
L 1791 2859 
L 2456 2859 
z
M 2497 819 
Q 2859 819 3042 972 
Q 3225 1125 3225 1434 
Q 3225 1738 3044 1889 
Q 2863 2041 2497 2041 
L 1791 2041 
L 1791 819 
L 2497 819 
z
M 3616 2497 
Q 4003 2384 4215 2081 
Q 4428 1778 4428 1338 
Q 4428 663 3972 331 
Q 3516 0 2584 0 
L 588 0 
L 588 4666 
L 2394 4666 
Q 3366 4666 3802 4372 
Q 4238 4078 4238 3431 
Q 4238 3091 4078 2852 
Q 3919 2613 3616 2497 
z
" transform="scale(0.015625)"/>
     <path id="DejaVuSans-Bold-43" d="M 4288 256 
Q 3956 84 3597 -3 
Q 3238 -91 2847 -91 
Q 1681 -91 1000 561 
Q 319 1213 319 2328 
Q 319 3447 1000 4098 
Q 1681 4750 2847 4750 
Q 3238 4750 3597 4662 
Q 3956 4575 4288 4403 
L 4288 3438 
Q 3953 3666 3628 3772 
Q 3303 3878 2944 3878 
Q 2300 3878 1931 3465 
Q 1563 3053 1563 2328 
Q 1563 1606 1931 1193 
Q 2300 781 2944 781 
Q 3303 781 3628 887 
Q 3953 994 4288 1222 
L 4288 256 
z
" transform="scale(0.015625)"/>
     <path id="DejaVuSans-Bold-4e" d="M 588 4666 
L 1931 4666 
L 3628 1466 
L 3628 4666 
L 4769 4666 
L 4769 0 
L 3425 0 
L 1728 3200 
L 1728 0 
L 588 0 
L 588 4666 
z
" transform="scale(0.015625)"/>
    </defs>
    <use xlink:href="#DejaVuSans-Bold-46"/>
    <use xlink:href="#DejaVuSans-Bold-44" transform="translate(68.310547 0)"/>
    <use xlink:href="#DejaVuSans-Bold-41" transform="translate(151.318359 0)"/>
    <use xlink:href="#DejaVuSans-Bold-47" transform="translate(228.710938 0)"/>
    <use xlink:href="#DejaVuSans-Bold-42" transform="translate(310.791016 0)"/>
    <use xlink:href="#DejaVuSans-Bold-43" transform="translate(387.011719 0)"/>
    <use xlink:href="#DejaVuSans-Bold-4e" transform="translate(460.400391 0)"/>
   </g>
  </g>
 </g>
 <defs>
  <clipPath id="p7c699ceb5f">
   <rect x="54.84875" y="43.2" width="390.6" height="277.2"/>
  </clipPath>
 </defs>
</svg>
