<?xml version="1.0" encoding="utf-8" standalone="no"?>
<!DOCTYPE svg PUBLIC "-//W3C//DTD SVG 1.1//EN"
  "http://www.w3.org/Graphics/SVG/1.1/DTD/svg11.dtd">
<svg xmlns:xlink="http://www.w3.org/1999/xlink" width="452.64875pt" height="370.537812pt" viewBox="0 0 452.64875 370.537812" xmlns="http://www.w3.org/2000/svg" version="1.1">
 <metadata>
  <rdf:RDF xmlns:dc="http://purl.org/dc/elements/1.1/" xmlns:cc="http://creativecommons.org/ns#" xmlns:rdf="http://www.w3.org/1999/02/22-rdf-syntax-ns#">
   <cc:Work>
    <dc:type rdf:resource="http://purl.org/dc/dcmitype/StillImage"/>
    <dc:date>2026-01-30T14:57:04.997658</dc:date>
    <dc:format>image/svg+xml</dc:format>
    <dc:creator>
     <cc:Agent>
      <dc:title>Matplotlib v3.10.7, https://matplotlib.org/</dc:title>
     </cc:Agent>
    </dc:creator>
   </cc:Work>
  </rdf:RDF>
 </metadata>
 <defs>
  <style type="text/css">*{stroke-linejoin: round; stroke-linecap: butt}</style>
 </defs>
 <g id="figure_1">
  <g id="patch_1">
   <path d="M 0 370.537812 
L 452.64875 370.537812 
L 452.64875 0 
L 0 0 
z
" style="fill: #ffffff"/>
  </g>
  <g id="axes_1">
   <g id="patch_2">
    <path d="M 54.84875 320.4 
L 445.44875 320.4 
L 445.44875 43.2 
L 54.84875 43.2 
z
" style="fill: #ffffff"/>
   </g>
   <g id="matplotlib.axis_1">
    <g id="xtick_1">
     <g id="line2d_1">
      <defs>
       <path id="m86f3f6ad9c" d="M 0 0 
L 0 3.5 
" style="stroke: #000000; stroke-width: 0.8"/>
      </defs>
      <g>
       <use xlink:href="#m86f3f6ad9c" x="72.603295" y="320.4" style="stroke: #000000; stroke-width: 0.8"/>
      </g>
     </g>
     <g id="text_1">
      <!-- 0.0 -->
      <g transform="translate(60.675952 338.797656) scale(0.15 -0.15)">
       <defs>
        <path id="DejaVuSans-30" d="M 2034 4250 
Q 1547 4250 1301 3770 
Q 1056 3291 1056 2328 
Q 1056 1369 1301 889 
Q 1547 409 2034 409 
Q 2525 409 2770 889 
Q 3016 1369 3016 2328 
Q 3016 3291 2770 3770 
Q 2525 4250 2034 4250 
z
M 2034 4750 
Q 2819 4750 3233 4129 
Q 3647 3509 3647 2328 
Q 3647 1150 3233 529 
Q 2819 -91 2034 -91 
Q 1250 -91 836 529 
Q 422 1150 422 2328 
Q 422 3509 836 4129 
Q 1250 4750 2034 4750 
z
" transform="scale(0.015625)"/>
        <path id="DejaVuSans-2e" d="M 684 794 
L 1344 794 
L 1344 0 
L 684 0 
L 684 794 
z
" transform="scale(0.015625)"/>
       </defs>
       <use xlink:href="#DejaVuSans-30"/>
       <use xlink:href="#DejaVuSans-2e" transform="translate(63.623047 0)"/>
       <use xlink:href="#DejaVuSans-30" transform="translate(95.410156 0)"/>
      </g>
     </g>
    </g>
    <g id="xtick_2">
     <g id="line2d_2">
      <g>
       <use xlink:href="#m86f3f6ad9c" x="155.457841" y="320.4" style="stroke: #000000; stroke-width: 0.8"/>
      </g>
     </g>
     <g id="text_2">
      <!-- 0.5 -->
      <g transform="translate(143.530497 338.797656) scale(0.15 -0.15)">
       <defs>
        <path id="DejaVuSans-35" d="M 691 4666 
L 3169 4666 
L 3169 4134 
L 1269 4134 
L 1269 2991 
Q 1406 3038 1543 3061 
Q 1681 3084 1819 3084 
Q 2600 3084 3056 2656 
Q 3513 2228 3513 1497 
Q 3513 744 3044 326 
Q 2575 -91 1722 -91 
Q 1428 -91 1123 -41 
Q 819 9 494 109 
L 494 744 
Q 775 591 1075 516 
Q 1375 441 1709 441 
Q 2250 441 2565 725 
Q 2881 1009 2881 1497 
Q 2881 1984 2565 2268 
Q 2250 2553 1709 2553 
Q 1456 2553 1204 2497 
Q 953 2441 691 2322 
L 691 4666 
z
" transform="scale(0.015625)"/>
       </defs>
       <use xlink:href="#DejaVuSans-30"/>
       <use xlink:href="#DejaVuSans-2e" transform="translate(63.623047 0)"/>
       <use xlink:href="#DejaVuSans-35" transform="translate(95.410156 0)"/>
      </g>
     </g>
    </g>
    <g id="xtick_3">
     <g id="line2d_3">
      <g>
       <use xlink:href="#m86f3f6ad9c" x="238.312386" y="320.4" style="stroke: #000000; stroke-width: 0.8"/>
      </g>
     </g>
     <g id="text_3">
      <!-- 1.0 -->
      <g transform="translate(226.385043 338.797656) scale(0.15 -0.15)">
       <defs>
        <path id="DejaVuSans-31" d="M 794 531 
L 1825 531 
L 1825 4091 
L 703 3866 
L 703 4441 
L 1819 4666 
L 2450 4666 
L 2450 531 
L 3481 531 
L 3481 0 
L 794 0 
L 794 531 
z
" transform="scale(0.015625)"/>
       </defs>
       <use xlink:href="#DejaVuSans-31"/>
       <use xlink:href="#DejaVuSans-2e" transform="translate(63.623047 0)"/>
       <use xlink:href="#DejaVuSans-30" transform="translate(95.410156 0)"/>
      </g>
     </g>
    </g>
    <g id="xtick_4">
     <g id="line2d_4">
      <g>
       <use xlink:href="#m86f3f6ad9c" x="321.166932" y="320.4" style="stroke: #000000; stroke-width: 0.8"/>
      </g>
     </g>
     <g id="text_4">
      <!-- 1.5 -->
      <g transform="translate(309.239588 338.797656) scale(0.15 -0.15)">
       <use xlink:href="#DejaVuSans-31"/>
       <use xlink:href="#DejaVuSans-2e" transform="translate(63.623047 0)"/>
       <use xlink:href="#DejaVuSans-35" transform="translate(95.410156 0)"/>
      </g>
     </g>
    </g>
    <g id="xtick_5">
     <g id="line2d_5">
      <g>
       <use xlink:href="#m86f3f6ad9c" x="404.021477" y="320.4" style="stroke: #000000; stroke-width: 0.8"/>
      </g>
     </g>
     <g id="text_5">
      <!-- 2.0 -->
      <g transform="translate(392.094134 338.797656) scale(0.15 -0.15)">
       <defs>
        <path id="DejaVuSans-32" d="M 1228 531 
L 3431 531 
L 3431 0 
L 469 0 
L 469 531 
Q 828 903 1448 1529 
Q 2069 2156 2228 2338 
Q 2531 2678 2651 2914 
Q 2772 3150 2772 3378 
Q 2772 3750 2511 3984 
Q 2250 4219 1831 4219 
Q 1534 4219 1204 4116 
Q 875 4013 500 3803 
L 500 4441 
Q 881 4594 1212 4672 
Q 1544 4750 1819 4750 
Q 2544 4750 2975 4387 
Q 3406 4025 3406 3419 
Q 3406 3131 3298 2873 
Q 3191 2616 2906 2266 
Q 2828 2175 2409 1742 
Q 1991 1309 1228 531 
z
" transform="scale(0.015625)"/>
       </defs>
       <use xlink:href="#DejaVuSans-32"/>
       <use xlink:href="#DejaVuSans-2e" transform="translate(63.623047 0)"/>
       <use xlink:href="#DejaVuSans-30" transform="translate(95.410156 0)"/>
      </g>
     </g>
    </g>
    <g id="text_6">
     <!-- time [week] -->
     <g transform="translate(189.41 359.594375) scale(0.18 -0.18)">
      <defs>
       <path id="DejaVuSans-Bold-74" d="M 1759 4494 
L 1759 3500 
L 2913 3500 
L 2913 2700 
L 1759 2700 
L 1759 1216 
Q 1759 972 1856 886 
Q 1953 800 2241 800 
L 2816 800 
L 2816 0 
L 1856 0 
Q 1194 0 917 276 
Q 641 553 641 1216 
L 641 2700 
L 84 2700 
L 84 3500 
L 641 3500 
L 641 4494 
L 1759 4494 
z
" transform="scale(0.015625)"/>
       <path id="DejaVuSans-Bold-69" d="M 538 3500 
L 1656 3500 
L 1656 0 
L 538 0 
L 538 3500 
z
M 538 4863 
L 1656 4863 
L 1656 3950 
L 538 3950 
L 538 4863 
z
" transform="scale(0.015625)"/>
       <path id="DejaVuSans-Bold-6d" d="M 3781 2919 
Q 3994 3244 4286 3414 
Q 4578 3584 4928 3584 
Q 5531 3584 5847 3212 
Q 6163 2841 6163 2131 
L 6163 0 
L 5038 0 
L 5038 1825 
Q 5041 1866 5042 1909 
Q 5044 1953 5044 2034 
Q 5044 2406 4934 2573 
Q 4825 2741 4581 2741 
Q 4263 2741 4089 2478 
Q 3916 2216 3909 1719 
L 3909 0 
L 2784 0 
L 2784 1825 
Q 2784 2406 2684 2573 
Q 2584 2741 2328 2741 
Q 2006 2741 1831 2477 
Q 1656 2213 1656 1722 
L 1656 0 
L 531 0 
L 531 3500 
L 1656 3500 
L 1656 2988 
Q 1863 3284 2130 3434 
Q 2397 3584 2719 3584 
Q 3081 3584 3359 3409 
Q 3638 3234 3781 2919 
z
" transform="scale(0.015625)"/>
       <path id="DejaVuSans-Bold-65" d="M 4031 1759 
L 4031 1441 
L 1416 1441 
Q 1456 1047 1700 850 
Q 1944 653 2381 653 
Q 2734 653 3104 758 
Q 3475 863 3866 1075 
L 3866 213 
Q 3469 63 3072 -14 
Q 2675 -91 2278 -91 
Q 1328 -91 801 392 
Q 275 875 275 1747 
Q 275 2603 792 3093 
Q 1309 3584 2216 3584 
Q 3041 3584 3536 3087 
Q 4031 2591 4031 1759 
z
M 2881 2131 
Q 2881 2450 2695 2645 
Q 2509 2841 2209 2841 
Q 1884 2841 1681 2658 
Q 1478 2475 1428 2131 
L 2881 2131 
z
" transform="scale(0.015625)"/>
       <path id="DejaVuSans-Bold-20" transform="scale(0.015625)"/>
       <path id="DejaVuSans-Bold-5b" d="M 550 4863 
L 2491 4863 
L 2491 4159 
L 1613 4159 
L 1613 -141 
L 2491 -141 
L 2491 -844 
L 550 -844 
L 550 4863 
z
" transform="scale(0.015625)"/>
       <path id="DejaVuSans-Bold-77" d="M 225 3500 
L 1313 3500 
L 1900 1088 
L 2491 3500 
L 3425 3500 
L 4013 1113 
L 4603 3500 
L 5691 3500 
L 4769 0 
L 3547 0 
L 2956 2406 
L 2369 0 
L 1147 0 
L 225 3500 
z
" transform="scale(0.015625)"/>
       <path id="DejaVuSans-Bold-6b" d="M 538 4863 
L 1656 4863 
L 1656 2216 
L 2944 3500 
L 4244 3500 
L 2534 1894 
L 4378 0 
L 3022 0 
L 1656 1459 
L 1656 0 
L 538 0 
L 538 4863 
z
" transform="scale(0.015625)"/>
       <path id="DejaVuSans-Bold-5d" d="M 2375 -844 
L 434 -844 
L 434 -141 
L 1313 -141 
L 1313 4159 
L 434 4159 
L 434 4863 
L 2375 4863 
L 2375 -844 
z
" transform="scale(0.015625)"/>
      </defs>
      <use xlink:href="#DejaVuSans-Bold-74"/>
      <use xlink:href="#DejaVuSans-Bold-69" transform="translate(47.802734 0)"/>
      <use xlink:href="#DejaVuSans-Bold-6d" transform="translate(82.080078 0)"/>
      <use xlink:href="#DejaVuSans-Bold-65" transform="translate(186.279297 0)"/>
      <use xlink:href="#DejaVuSans-Bold-20" transform="translate(254.101562 0)"/>
      <use xlink:href="#DejaVuSans-Bold-5b" transform="translate(288.916016 0)"/>
      <use xlink:href="#DejaVuSans-Bold-77" transform="translate(334.619141 0)"/>
      <use xlink:href="#DejaVuSans-Bold-65" transform="translate(427.001953 0)"/>
      <use xlink:href="#DejaVuSans-Bold-65" transform="translate(494.824219 0)"/>
      <use xlink:href="#DejaVuSans-Bold-6b" transform="translate(562.646484 0)"/>
      <use xlink:href="#DejaVuSans-Bold-5d" transform="translate(629.150391 0)"/>
     </g>
    </g>
   </g>
   <g id="matplotlib.axis_2">
    <g id="ytick_1">
     <g id="line2d_6">
      <defs>
       <path id="m5251e0f3f7" d="M 0 0 
L -3.5 0 
" style="stroke: #000000; stroke-width: 0.8"/>
      </defs>
      <g>
       <use xlink:href="#m5251e0f3f7" x="54.84875" y="284.429004" style="stroke: #000000; stroke-width: 0.8"/>
      </g>
     </g>
     <g id="text_7">
      <!-- 0 -->
      <g transform="translate(38.305 290.127832) scale(0.15 -0.15)">
       <use xlink:href="#DejaVuSans-30"/>
      </g>
     </g>
    </g>
    <g id="ytick_2">
     <g id="line2d_7">
      <g>
       <use xlink:href="#m5251e0f3f7" x="54.84875" y="248.278483" style="stroke: #000000; stroke-width: 0.8"/>
      </g>
     </g>
     <g id="text_8">
      <!-- 5 -->
      <g transform="translate(38.305 253.977311) scale(0.15 -0.15)">
       <use xlink:href="#DejaVuSans-35"/>
      </g>
     </g>
    </g>
    <g id="ytick_3">
     <g id="line2d_8">
      <g>
       <use xlink:href="#m5251e0f3f7" x="54.84875" y="212.127962" style="stroke: #000000; stroke-width: 0.8"/>
      </g>
     </g>
     <g id="text_9">
      <!-- 10 -->
      <g transform="translate(28.76125 217.82679) scale(0.15 -0.15)">
       <use xlink:href="#DejaVuSans-31"/>
       <use xlink:href="#DejaVuSans-30" transform="translate(63.623047 0)"/>
      </g>
     </g>
    </g>
    <g id="ytick_4">
     <g id="line2d_9">
      <g>
       <use xlink:href="#m5251e0f3f7" x="54.84875" y="175.977441" style="stroke: #000000; stroke-width: 0.8"/>
      </g>
     </g>
     <g id="text_10">
      <!-- 15 -->
      <g transform="translate(28.76125 181.676269) scale(0.15 -0.15)">
       <use xlink:href="#DejaVuSans-31"/>
       <use xlink:href="#DejaVuSans-35" transform="translate(63.623047 0)"/>
      </g>
     </g>
    </g>
    <g id="ytick_5">
     <g id="line2d_10">
      <g>
       <use xlink:href="#m5251e0f3f7" x="54.84875" y="139.82692" style="stroke: #000000; stroke-width: 0.8"/>
      </g>
     </g>
     <g id="text_11">
      <!-- 20 -->
      <g transform="translate(28.76125 145.525749) scale(0.15 -0.15)">
       <use xlink:href="#DejaVuSans-32"/>
       <use xlink:href="#DejaVuSans-30" transform="translate(63.623047 0)"/>
      </g>
     </g>
    </g>
    <g id="ytick_6">
     <g id="line2d_11">
      <g>
       <use xlink:href="#m5251e0f3f7" x="54.84875" y="103.6764" style="stroke: #000000; stroke-width: 0.8"/>
      </g>
     </g>
     <g id="text_12">
      <!-- 25 -->
      <g transform="translate(28.76125 109.375228) scale(0.15 -0.15)">
       <use xlink:href="#DejaVuSans-32"/>
       <use xlink:href="#DejaVuSans-35" transform="translate(63.623047 0)"/>
      </g>
     </g>
    </g>
    <g id="ytick_7">
     <g id="line2d_12">
      <g>
       <use xlink:href="#m5251e0f3f7" x="54.84875" y="67.525879" style="stroke: #000000; stroke-width: 0.8"/>
      </g>
     </g>
     <g id="text_13">
      <!-- 30 -->
      <g transform="translate(28.76125 73.224707) scale(0.15 -0.15)">
       <defs>
        <path id="DejaVuSans-33" d="M 2597 2516 
Q 3050 2419 3304 2112 
Q 3559 1806 3559 1356 
Q 3559 666 3084 287 
Q 2609 -91 1734 -91 
Q 1441 -91 1130 -33 
Q 819 25 488 141 
L 488 750 
Q 750 597 1062 519 
Q 1375 441 1716 441 
Q 2309 441 2620 675 
Q 2931 909 2931 1356 
Q 2931 1769 2642 2001 
Q 2353 2234 1838 2234 
L 1294 2234 
L 1294 2753 
L 1863 2753 
Q 2328 2753 2575 2939 
Q 2822 3125 2822 3475 
Q 2822 3834 2567 4026 
Q 2313 4219 1838 4219 
Q 1578 4219 1281 4162 
Q 984 4106 628 3988 
L 628 4550 
Q 988 4650 1302 4700 
Q 1616 4750 1894 4750 
Q 2613 4750 3031 4423 
Q 3450 4097 3450 3541 
Q 3450 3153 3228 2886 
Q 3006 2619 2597 2516 
z
" transform="scale(0.015625)"/>
       </defs>
       <use xlink:href="#DejaVuSans-33"/>
       <use xlink:href="#DejaVuSans-30" transform="translate(63.623047 0)"/>
      </g>
     </g>
    </g>
    <g id="text_14">
     <!-- dulaglutide plasma [nM] -->
     <g transform="translate(20.877187 305.940937) rotate(-90) scale(0.18 -0.18)">
      <defs>
       <path id="DejaVuSans-Bold-64" d="M 2919 2988 
L 2919 4863 
L 4044 4863 
L 4044 0 
L 2919 0 
L 2919 506 
Q 2688 197 2409 53 
Q 2131 -91 1766 -91 
Q 1119 -91 703 423 
Q 288 938 288 1747 
Q 288 2556 703 3070 
Q 1119 3584 1766 3584 
Q 2128 3584 2408 3439 
Q 2688 3294 2919 2988 
z
M 2181 722 
Q 2541 722 2730 984 
Q 2919 1247 2919 1747 
Q 2919 2247 2730 2509 
Q 2541 2772 2181 2772 
Q 1825 2772 1636 2509 
Q 1447 2247 1447 1747 
Q 1447 1247 1636 984 
Q 1825 722 2181 722 
z
" transform="scale(0.015625)"/>
       <path id="DejaVuSans-Bold-75" d="M 500 1363 
L 500 3500 
L 1625 3500 
L 1625 3150 
Q 1625 2866 1622 2436 
Q 1619 2006 1619 1863 
Q 1619 1441 1641 1255 
Q 1663 1069 1716 984 
Q 1784 875 1895 815 
Q 2006 756 2150 756 
Q 2500 756 2700 1025 
Q 2900 1294 2900 1772 
L 2900 3500 
L 4019 3500 
L 4019 0 
L 2900 0 
L 2900 506 
Q 2647 200 2364 54 
Q 2081 -91 1741 -91 
Q 1134 -91 817 281 
Q 500 653 500 1363 
z
" transform="scale(0.015625)"/>
       <path id="DejaVuSans-Bold-6c" d="M 538 4863 
L 1656 4863 
L 1656 0 
L 538 0 
L 538 4863 
z
" transform="scale(0.015625)"/>
       <path id="DejaVuSans-Bold-61" d="M 2106 1575 
Q 1756 1575 1579 1456 
Q 1403 1338 1403 1106 
Q 1403 894 1545 773 
Q 1688 653 1941 653 
Q 2256 653 2472 879 
Q 2688 1106 2688 1447 
L 2688 1575 
L 2106 1575 
z
M 3816 1997 
L 3816 0 
L 2688 0 
L 2688 519 
Q 2463 200 2181 54 
Q 1900 -91 1497 -91 
Q 953 -91 614 226 
Q 275 544 275 1050 
Q 275 1666 698 1953 
Q 1122 2241 2028 2241 
L 2688 2241 
L 2688 2328 
Q 2688 2594 2478 2717 
Q 2269 2841 1825 2841 
Q 1466 2841 1156 2769 
Q 847 2697 581 2553 
L 581 3406 
Q 941 3494 1303 3539 
Q 1666 3584 2028 3584 
Q 2975 3584 3395 3211 
Q 3816 2838 3816 1997 
z
" transform="scale(0.015625)"/>
       <path id="DejaVuSans-Bold-67" d="M 2919 594 
Q 2688 288 2409 144 
Q 2131 0 1766 0 
Q 1125 0 706 504 
Q 288 1009 288 1791 
Q 288 2575 706 3076 
Q 1125 3578 1766 3578 
Q 2131 3578 2409 3434 
Q 2688 3291 2919 2981 
L 2919 3500 
L 4044 3500 
L 4044 353 
Q 4044 -491 3511 -936 
Q 2978 -1381 1966 -1381 
Q 1638 -1381 1331 -1331 
Q 1025 -1281 716 -1178 
L 716 -306 
Q 1009 -475 1290 -558 
Q 1572 -641 1856 -641 
Q 2406 -641 2662 -400 
Q 2919 -159 2919 353 
L 2919 594 
z
M 2181 2772 
Q 1834 2772 1640 2515 
Q 1447 2259 1447 1791 
Q 1447 1309 1634 1061 
Q 1822 813 2181 813 
Q 2531 813 2725 1069 
Q 2919 1325 2919 1791 
Q 2919 2259 2725 2515 
Q 2531 2772 2181 2772 
z
" transform="scale(0.015625)"/>
       <path id="DejaVuSans-Bold-70" d="M 1656 506 
L 1656 -1331 
L 538 -1331 
L 538 3500 
L 1656 3500 
L 1656 2988 
Q 1888 3294 2169 3439 
Q 2450 3584 2816 3584 
Q 3463 3584 3878 3070 
Q 4294 2556 4294 1747 
Q 4294 938 3878 423 
Q 3463 -91 2816 -91 
Q 2450 -91 2169 54 
Q 1888 200 1656 506 
z
M 2400 2772 
Q 2041 2772 1848 2508 
Q 1656 2244 1656 1747 
Q 1656 1250 1848 986 
Q 2041 722 2400 722 
Q 2759 722 2948 984 
Q 3138 1247 3138 1747 
Q 3138 2247 2948 2509 
Q 2759 2772 2400 2772 
z
" transform="scale(0.015625)"/>
       <path id="DejaVuSans-Bold-73" d="M 3272 3391 
L 3272 2541 
Q 2913 2691 2578 2766 
Q 2244 2841 1947 2841 
Q 1628 2841 1473 2761 
Q 1319 2681 1319 2516 
Q 1319 2381 1436 2309 
Q 1553 2238 1856 2203 
L 2053 2175 
Q 2913 2066 3209 1816 
Q 3506 1566 3506 1031 
Q 3506 472 3093 190 
Q 2681 -91 1863 -91 
Q 1516 -91 1145 -36 
Q 775 19 384 128 
L 384 978 
Q 719 816 1070 734 
Q 1422 653 1784 653 
Q 2113 653 2278 743 
Q 2444 834 2444 1013 
Q 2444 1163 2330 1236 
Q 2216 1309 1875 1350 
L 1678 1375 
Q 931 1469 631 1722 
Q 331 1975 331 2491 
Q 331 3047 712 3315 
Q 1094 3584 1881 3584 
Q 2191 3584 2531 3537 
Q 2872 3491 3272 3391 
z
" transform="scale(0.015625)"/>
       <path id="DejaVuSans-Bold-6e" d="M 4056 2131 
L 4056 0 
L 2931 0 
L 2931 347 
L 2931 1631 
Q 2931 2084 2911 2256 
Q 2891 2428 2841 2509 
Q 2775 2619 2662 2680 
Q 2550 2741 2406 2741 
Q 2056 2741 1856 2470 
Q 1656 2200 1656 1722 
L 1656 0 
L 538 0 
L 538 3500 
L 1656 3500 
L 1656 2988 
Q 1909 3294 2193 3439 
Q 2478 3584 2822 3584 
Q 3428 3584 3742 3212 
Q 4056 2841 4056 2131 
z
" transform="scale(0.015625)"/>
       <path id="DejaVuSans-Bold-4d" d="M 588 4666 
L 2119 4666 
L 3181 2169 
L 4250 4666 
L 5778 4666 
L 5778 0 
L 4641 0 
L 4641 3413 
L 3566 897 
L 2803 897 
L 1728 3413 
L 1728 0 
L 588 0 
L 588 4666 
z
" transform="scale(0.015625)"/>
      </defs>
      <use xlink:href="#DejaVuSans-Bold-64"/>
      <use xlink:href="#DejaVuSans-Bold-75" transform="translate(71.582031 0)"/>
      <use xlink:href="#DejaVuSans-Bold-6c" transform="translate(142.773438 0)"/>
      <use xlink:href="#DejaVuSans-Bold-61" transform="translate(177.050781 0)"/>
      <use xlink:href="#DejaVuSans-Bold-67" transform="translate(244.53125 0)"/>
      <use xlink:href="#DejaVuSans-Bold-6c" transform="translate(316.113281 0)"/>
      <use xlink:href="#DejaVuSans-Bold-75" transform="translate(350.390625 0)"/>
      <use xlink:href="#DejaVuSans-Bold-74" transform="translate(421.582031 0)"/>
      <use xlink:href="#DejaVuSans-Bold-69" transform="translate(469.384766 0)"/>
      <use xlink:href="#DejaVuSans-Bold-64" transform="translate(503.662109 0)"/>
      <use xlink:href="#DejaVuSans-Bold-65" transform="translate(575.244141 0)"/>
      <use xlink:href="#DejaVuSans-Bold-20" transform="translate(643.066406 0)"/>
      <use xlink:href="#DejaVuSans-Bold-70" transform="translate(677.880859 0)"/>
      <use xlink:href="#DejaVuSans-Bold-6c" transform="translate(749.462891 0)"/>
      <use xlink:href="#DejaVuSans-Bold-61" transform="translate(783.740234 0)"/>
      <use xlink:href="#DejaVuSans-Bold-73" transform="translate(851.220703 0)"/>
      <use xlink:href="#DejaVuSans-Bold-6d" transform="translate(910.742188 0)"/>
      <use xlink:href="#DejaVuSans-Bold-61" transform="translate(1014.941406 0)"/>
      <use xlink:href="#DejaVuSans-Bold-20" transform="translate(1082.421875 0)"/>
      <use xlink:href="#DejaVuSans-Bold-5b" transform="translate(1117.236328 0)"/>
      <use xlink:href="#DejaVuSans-Bold-6e" transform="translate(1162.939453 0)"/>
      <use xlink:href="#DejaVuSans-Bold-4d" transform="translate(1234.130859 0)"/>
      <use xlink:href="#DejaVuSans-Bold-5d" transform="translate(1333.642578 0)"/>
     </g>
    </g>
   </g>
   <g id="LineCollection_1">
    <path clip-path="url(#p90476462d0)" style="fill: none; stroke: #008000"/>
    <path d="M 73.589659 296.622559 
L 73.589659 262.07416 
" clip-path="url(#p90476462d0)" style="fill: none; stroke: #008000"/>
    <path d="M 74.576023 307.8 
L 74.576023 224.477383 
" clip-path="url(#p90476462d0)" style="fill: none; stroke: #008000"/>
    <path d="M 76.54875 300.687051 
L 76.54875 182.816113 
" clip-path="url(#p90476462d0)" style="fill: none; stroke: #008000"/>
    <path d="M 80.494205 275.283828 
L 80.494205 137.090313 
" clip-path="url(#p90476462d0)" style="fill: none; stroke: #008000"/>
    <path d="M 84.439659 263.090313 
L 84.439659 102.541914 
" clip-path="url(#p90476462d0)" style="fill: none; stroke: #008000"/>
    <path d="M 96.276023 208.219297 
L 96.276023 67.993555 
" clip-path="url(#p90476462d0)" style="fill: none; stroke: #008000"/>
    <path d="M 108.112386 183.832227 
L 108.112386 55.8 
" clip-path="url(#p90476462d0)" style="fill: none; stroke: #008000"/>
    <path d="M 119.94875 167.57418 
L 119.94875 59.864531 
" clip-path="url(#p90476462d0)" style="fill: none; stroke: #008000"/>
    <path d="M 143.621477 168.590293 
L 143.621477 95.429043 
" clip-path="url(#p90476462d0)" style="fill: none; stroke: #008000"/>
    <path d="M 190.966932 193.993516 
L 190.966932 151.316133 
" clip-path="url(#p90476462d0)" style="fill: none; stroke: #008000"/>
    <path d="M 238.312386 221.429043 
L 238.312386 188.912871 
" clip-path="url(#p90476462d0)" style="fill: none; stroke: #008000"/>
    <path d="M 404.021477 271.219336 
L 404.021477 246.832227 
" clip-path="url(#p90476462d0)" style="fill: none; stroke: #008000"/>
   </g>
   <g id="LineCollection_2">
    <path clip-path="url(#p90476462d0)" style="fill: none; stroke: #0000ff"/>
    <path clip-path="url(#p90476462d0)" style="fill: none; stroke: #0000ff"/>
    <path d="M 73.589659 224.477383 
L 73.589659 189.929062 
" clip-path="url(#p90476462d0)" style="fill: none; stroke: #0000ff"/>
    <path d="M 74.576023 224.477383 
L 74.576023 189.929062 
" clip-path="url(#p90476462d0)" style="fill: none; stroke: #0000ff"/>
    <path d="M 76.54875 231.590293 
L 76.54875 207.203184 
" clip-path="url(#p90476462d0)" style="fill: none; stroke: #0000ff"/>
    <path d="M 80.494205 240.735469 
L 80.494205 204.154844 
" clip-path="url(#p90476462d0)" style="fill: none; stroke: #0000ff"/>
    <path d="M 84.439659 253.945137 
L 84.439659 215.332207 
" clip-path="url(#p90476462d0)" style="fill: none; stroke: #0000ff"/>
    <path d="M 96.276023 259.025781 
L 96.276023 244.799961 
" clip-path="url(#p90476462d0)" style="fill: none; stroke: #0000ff"/>
    <path d="M 108.112386 265.122539 
L 108.112386 252.929024 
" clip-path="url(#p90476462d0)" style="fill: none; stroke: #0000ff"/>
    <path d="M 119.94875 268.170957 
L 119.94875 253.945137 
" clip-path="url(#p90476462d0)" style="fill: none; stroke: #0000ff"/>
    <path d="M 143.621477 269.187071 
L 143.621477 261.058008 
" clip-path="url(#p90476462d0)" style="fill: none; stroke: #0000ff"/>
    <path d="M 190.966932 275.283828 
L 190.966932 267.154844 
" clip-path="url(#p90476462d0)" style="fill: none; stroke: #0000ff"/>
   </g>
   <g id="line2d_13">
    <path d="M 72.603295 284.429004 
L 74.733841 254.138872 
L 76.864386 226.951329 
L 78.994932 202.604009 
L 81.125477 180.877742 
L 83.256023 161.568374 
L 85.386568 144.485802 
L 87.517114 129.453064 
L 89.292568 118.372481 
L 91.068023 108.511679 
L 92.843477 99.78674 
L 94.618932 92.1187 
L 96.394386 85.433277 
L 98.169841 79.660618 
L 99.945295 74.735051 
L 101.365659 71.362903 
L 102.786023 68.463451 
L 104.206386 66.008289 
L 105.62675 63.970401 
L 107.047114 62.324106 
L 108.467477 61.044998 
L 109.887841 60.109884 
L 111.308205 59.496732 
L 112.728568 59.18462 
L 114.148932 59.153683 
L 115.569295 59.385065 
L 116.989659 59.860874 
L 118.410023 60.56414 
L 120.185477 61.738643 
L 121.960932 63.213855 
L 123.736386 64.962098 
L 125.866932 67.384096 
L 128.352568 70.604598 
L 130.838205 74.1932 
L 133.678932 78.675449 
L 136.87475 84.116856 
L 140.78075 91.212561 
L 145.752023 100.739013 
L 153.208932 115.57888 
L 165.992205 141.023255 
L 172.383841 153.226295 
L 178.065295 163.609504 
L 183.391659 172.884569 
L 188.362932 181.108411 
L 193.334205 188.897327 
L 197.950386 195.734049 
L 202.566568 202.189406 
L 207.18275 208.26764 
L 211.798932 213.976397 
L 216.415114 219.325947 
L 221.031295 224.32854 
L 225.647477 228.997867 
L 230.263659 233.348614 
L 234.879841 237.396092 
L 239.496023 241.155941 
L 244.112205 244.643886 
L 249.083477 248.113956 
L 254.05475 251.305938 
L 259.026023 254.238459 
L 264.352386 257.112927 
L 269.67875 259.731316 
L 275.360205 262.264611 
L 281.041659 264.552341 
L 287.078205 266.737989 
L 293.469841 268.803029 
L 299.861477 270.637416 
L 306.608205 272.349874 
L 314.065114 274.005257 
L 321.877114 275.504734 
L 330.044205 276.849212 
L 338.921477 278.088168 
L 348.864023 279.242862 
L 359.51675 280.252838 
L 371.589841 281.166396 
L 385.083295 281.956997 
L 400.707295 282.639679 
L 418.816932 283.201493 
L 427.694205 283.409346 
L 427.694205 283.409346 
" clip-path="url(#p90476462d0)" style="fill: none; stroke: #008000; stroke-width: 2; stroke-linecap: square"/>
   </g>
   <g id="line2d_14">
    <path d="M 72.603295 284.429004 
L 73.589659 279.34836 
L 74.576023 266.138692 
L 76.54875 241.751582 
L 80.494205 206.187071 
L 84.439659 182.816113 
L 96.276023 138.106426 
L 108.112386 119.816113 
L 119.94875 113.719355 
L 143.621477 132.009668 
L 190.966932 172.654824 
L 238.312386 205.170957 
L 404.021477 259.025781 
" clip-path="url(#p90476462d0)" style="fill: none; stroke-dasharray: 3.7,1.6; stroke-dashoffset: 0; stroke: #008000"/>
    <defs>
     <path id="m12a204eef2" d="M -3 3 
L 3 3 
L 3 -3 
L -3 -3 
z
" style="stroke: #000000; stroke-linejoin: miter"/>
    </defs>
    <g clip-path="url(#p90476462d0)">
     <use xlink:href="#m12a204eef2" x="72.603295" y="284.429004" style="fill: #008000; stroke: #000000; stroke-linejoin: miter"/>
     <use xlink:href="#m12a204eef2" x="73.589659" y="279.34836" style="fill: #008000; stroke: #000000; stroke-linejoin: miter"/>
     <use xlink:href="#m12a204eef2" x="74.576023" y="266.138692" style="fill: #008000; stroke: #000000; stroke-linejoin: miter"/>
     <use xlink:href="#m12a204eef2" x="76.54875" y="241.751582" style="fill: #008000; stroke: #000000; stroke-linejoin: miter"/>
     <use xlink:href="#m12a204eef2" x="80.494205" y="206.187071" style="fill: #008000; stroke: #000000; stroke-linejoin: miter"/>
     <use xlink:href="#m12a204eef2" x="84.439659" y="182.816113" style="fill: #008000; stroke: #000000; stroke-linejoin: miter"/>
     <use xlink:href="#m12a204eef2" x="96.276023" y="138.106426" style="fill: #008000; stroke: #000000; stroke-linejoin: miter"/>
     <use xlink:href="#m12a204eef2" x="108.112386" y="119.816113" style="fill: #008000; stroke: #000000; stroke-linejoin: miter"/>
     <use xlink:href="#m12a204eef2" x="119.94875" y="113.719355" style="fill: #008000; stroke: #000000; stroke-linejoin: miter"/>
     <use xlink:href="#m12a204eef2" x="143.621477" y="132.009668" style="fill: #008000; stroke: #000000; stroke-linejoin: miter"/>
     <use xlink:href="#m12a204eef2" x="190.966932" y="172.654824" style="fill: #008000; stroke: #000000; stroke-linejoin: miter"/>
     <use xlink:href="#m12a204eef2" x="238.312386" y="205.170957" style="fill: #008000; stroke: #000000; stroke-linejoin: miter"/>
     <use xlink:href="#m12a204eef2" x="404.021477" y="259.025781" style="fill: #008000; stroke: #000000; stroke-linejoin: miter"/>
    </g>
   </g>
   <g id="line2d_15">
    <path d="M 72.603295 284.429004 
L 72.745332 239.07123 
L 76.012168 242.907649 
L 79.421041 246.565343 
L 82.829914 249.900824 
L 86.380823 253.063226 
L 90.073768 256.045256 
L 93.766714 258.743777 
L 97.601695 261.274879 
L 101.578714 263.636603 
L 105.697768 265.829036 
L 110.100895 267.917663 
L 114.646059 269.827964 
L 119.475295 271.616092 
L 124.588605 273.27131 
L 130.128023 274.824057 
L 135.951514 276.224014 
L 142.34315 277.526823 
L 149.302932 278.711325 
L 156.830859 279.76479 
L 165.211005 280.710872 
L 174.727441 281.554773 
L 185.522205 282.282656 
L 198.163441 282.904301 
L 213.219295 283.414386 
L 214.639659 283.452632 
L 214.639659 283.452632 
" clip-path="url(#p90476462d0)" style="fill: none; stroke: #0000ff; stroke-width: 2; stroke-linecap: square"/>
   </g>
   <g id="line2d_16">
    <path d="M 72.603295 284.429004 
L 73.096477 244.799961 
L 73.589659 207.203223 
L 74.576023 207.203223 
L 76.54875 219.396739 
L 80.494205 222.445156 
L 84.439659 234.638672 
L 96.276023 251.912871 
L 108.112386 259.025781 
L 119.94875 261.058047 
L 143.621477 265.122539 
L 190.966932 271.219336 
" clip-path="url(#p90476462d0)" style="fill: none; stroke-dasharray: 3.7,1.6; stroke-dashoffset: 0; stroke: #0000ff"/>
    <defs>
     <path id="m6fc980fd59" d="M -3 3 
L 3 3 
L 3 -3 
L -3 -3 
z
" style="stroke: #000000; stroke-linejoin: miter"/>
    </defs>
    <g clip-path="url(#p90476462d0)">
     <use xlink:href="#m6fc980fd59" x="72.603295" y="284.429004" style="fill: #0000ff; stroke: #000000; stroke-linejoin: miter"/>
     <use xlink:href="#m6fc980fd59" x="73.096477" y="244.799961" style="fill: #0000ff; stroke: #000000; stroke-linejoin: miter"/>
     <use xlink:href="#m6fc980fd59" x="73.589659" y="207.203223" style="fill: #0000ff; stroke: #000000; stroke-linejoin: miter"/>
     <use xlink:href="#m6fc980fd59" x="74.576023" y="207.203223" style="fill: #0000ff; stroke: #000000; stroke-linejoin: miter"/>
     <use xlink:href="#m6fc980fd59" x="76.54875" y="219.396739" style="fill: #0000ff; stroke: #000000; stroke-linejoin: miter"/>
     <use xlink:href="#m6fc980fd59" x="80.494205" y="222.445156" style="fill: #0000ff; stroke: #000000; stroke-linejoin: miter"/>
     <use xlink:href="#m6fc980fd59" x="84.439659" y="234.638672" style="fill: #0000ff; stroke: #000000; stroke-linejoin: miter"/>
     <use xlink:href="#m6fc980fd59" x="96.276023" y="251.912871" style="fill: #0000ff; stroke: #000000; stroke-linejoin: miter"/>
     <use xlink:href="#m6fc980fd59" x="108.112386" y="259.025781" style="fill: #0000ff; stroke: #000000; stroke-linejoin: miter"/>
     <use xlink:href="#m6fc980fd59" x="119.94875" y="261.058047" style="fill: #0000ff; stroke: #000000; stroke-linejoin: miter"/>
     <use xlink:href="#m6fc980fd59" x="143.621477" y="265.122539" style="fill: #0000ff; stroke: #000000; stroke-linejoin: miter"/>
     <use xlink:href="#m6fc980fd59" x="190.966932" y="271.219336" style="fill: #0000ff; stroke: #000000; stroke-linejoin: miter"/>
    </g>
   </g>
   <g id="patch_3">
    <path d="M 54.84875 320.4 
L 54.84875 43.2 
" style="fill: none; stroke: #000000; stroke-width: 0.8; stroke-linejoin: miter; stroke-linecap: square"/>
   </g>
   <g id="patch_4">
    <path d="M 445.44875 320.4 
L 445.44875 43.2 
" style="fill: none; stroke: #000000; stroke-width: 0.8; stroke-linejoin: miter; stroke-linecap: square"/>
   </g>
   <g id="patch_5">
    <path d="M 54.84875 320.4 
L 445.44875 320.4 
" style="fill: none; stroke: #000000; stroke-width: 0.8; stroke-linejoin: miter; stroke-linecap: square"/>
   </g>
   <g id="patch_6">
    <path d="M 54.84875 43.2 
L 445.44875 43.2 
" style="fill: none; stroke: #000000; stroke-width: 0.8; stroke-linejoin: miter; stroke-linecap: square"/>
   </g>
   <g id="legend_1">
    <g id="patch_7">
     <path d="M 298.950312 109.9125 
L 438.44875 109.9125 
Q 440.44875 109.9125 440.44875 107.9125 
L 440.44875 50.2 
Q 440.44875 48.2 438.44875 48.2 
L 298.950312 48.2 
Q 296.950312 48.2 296.950312 50.2 
L 296.950312 107.9125 
Q 296.950312 109.9125 298.950312 109.9125 
z
" style="fill: #ffffff; opacity: 0.8; stroke: #cccccc; stroke-linejoin: miter"/>
    </g>
    <g id="line2d_17">
     <path d="M 300.950312 56.298437 
L 320.950312 56.298437 
" style="fill: none; stroke: #008000; stroke-width: 2; stroke-linecap: square"/>
    </g>
    <g id="line2d_18"/>
    <g id="text_15">
     <!-- DUL15SC -->
     <g transform="translate(328.950312 59.798437) scale(0.1 -0.1)">
      <defs>
       <path id="DejaVuSans-44" d="M 1259 4147 
L 1259 519 
L 2022 519 
Q 2988 519 3436 956 
Q 3884 1394 3884 2338 
Q 3884 3275 3436 3711 
Q 2988 4147 2022 4147 
L 1259 4147 
z
M 628 4666 
L 1925 4666 
Q 3281 4666 3915 4102 
Q 4550 3538 4550 2338 
Q 4550 1131 3912 565 
Q 3275 0 1925 0 
L 628 0 
L 628 4666 
z
" transform="scale(0.015625)"/>
       <path id="DejaVuSans-55" d="M 556 4666 
L 1191 4666 
L 1191 1831 
Q 1191 1081 1462 751 
Q 1734 422 2344 422 
Q 2950 422 3222 751 
Q 3494 1081 3494 1831 
L 3494 4666 
L 4128 4666 
L 4128 1753 
Q 4128 841 3676 375 
Q 3225 -91 2344 -91 
Q 1459 -91 1007 375 
Q 556 841 556 1753 
L 556 4666 
z
" transform="scale(0.015625)"/>
       <path id="DejaVuSans-4c" d="M 628 4666 
L 1259 4666 
L 1259 531 
L 3531 531 
L 3531 0 
L 628 0 
L 628 4666 
z
" transform="scale(0.015625)"/>
       <path id="DejaVuSans-53" d="M 3425 4513 
L 3425 3897 
Q 3066 4069 2747 4153 
Q 2428 4238 2131 4238 
Q 1616 4238 1336 4038 
Q 1056 3838 1056 3469 
Q 1056 3159 1242 3001 
Q 1428 2844 1947 2747 
L 2328 2669 
Q 3034 2534 3370 2195 
Q 3706 1856 3706 1288 
Q 3706 609 3251 259 
Q 2797 -91 1919 -91 
Q 1588 -91 1214 -16 
Q 841 59 441 206 
L 441 856 
Q 825 641 1194 531 
Q 1563 422 1919 422 
Q 2459 422 2753 634 
Q 3047 847 3047 1241 
Q 3047 1584 2836 1778 
Q 2625 1972 2144 2069 
L 1759 2144 
Q 1053 2284 737 2584 
Q 422 2884 422 3419 
Q 422 4038 858 4394 
Q 1294 4750 2059 4750 
Q 2388 4750 2728 4690 
Q 3069 4631 3425 4513 
z
" transform="scale(0.015625)"/>
       <path id="DejaVuSans-43" d="M 4122 4306 
L 4122 3641 
Q 3803 3938 3442 4084 
Q 3081 4231 2675 4231 
Q 1875 4231 1450 3742 
Q 1025 3253 1025 2328 
Q 1025 1406 1450 917 
Q 1875 428 2675 428 
Q 3081 428 3442 575 
Q 3803 722 4122 1019 
L 4122 359 
Q 3791 134 3420 21 
Q 3050 -91 2638 -91 
Q 1578 -91 968 557 
Q 359 1206 359 2328 
Q 359 3453 968 4101 
Q 1578 4750 2638 4750 
Q 3056 4750 3426 4639 
Q 3797 4528 4122 4306 
z
" transform="scale(0.015625)"/>
      </defs>
      <use xlink:href="#DejaVuSans-44"/>
      <use xlink:href="#DejaVuSans-55" transform="translate(77.001953 0)"/>
      <use xlink:href="#DejaVuSans-4c" transform="translate(150.195312 0)"/>
      <use xlink:href="#DejaVuSans-31" transform="translate(205.908203 0)"/>
      <use xlink:href="#DejaVuSans-35" transform="translate(269.53125 0)"/>
      <use xlink:href="#DejaVuSans-53" transform="translate(333.154297 0)"/>
      <use xlink:href="#DejaVuSans-43" transform="translate(396.630859 0)"/>
     </g>
    </g>
    <g id="LineCollection_3">
     <path d="M 310.950312 75.976562 
L 310.950312 65.976562 
" style="fill: none; stroke: #008000"/>
    </g>
    <g id="line2d_19">
     <path d="M 300.950312 70.976562 
L 320.950312 70.976562 
" style="fill: none; stroke-dasharray: 3.7,1.6; stroke-dashoffset: 0; stroke: #008000"/>
    </g>
    <g id="line2d_20">
     <g>
      <use xlink:href="#m12a204eef2" x="310.950312" y="70.976562" style="fill: #008000; stroke: #000000; stroke-linejoin: miter"/>
     </g>
    </g>
    <g id="text_16">
     <!-- DUL15SC±SD (n=16) -->
     <g transform="translate(328.950312 74.476562) scale(0.1 -0.1)">
      <defs>
       <path id="DejaVuSans-b1" d="M 2944 4013 
L 2944 2803 
L 4684 2803 
L 4684 2272 
L 2944 2272 
L 2944 1063 
L 2419 1063 
L 2419 2272 
L 678 2272 
L 678 2803 
L 2419 2803 
L 2419 4013 
L 2944 4013 
z
M 678 531 
L 4684 531 
L 4684 0 
L 678 0 
L 678 531 
z
" transform="scale(0.015625)"/>
       <path id="DejaVuSans-20" transform="scale(0.015625)"/>
       <path id="DejaVuSans-28" d="M 1984 4856 
Q 1566 4138 1362 3434 
Q 1159 2731 1159 2009 
Q 1159 1288 1364 580 
Q 1569 -128 1984 -844 
L 1484 -844 
Q 1016 -109 783 600 
Q 550 1309 550 2009 
Q 550 2706 781 3412 
Q 1013 4119 1484 4856 
L 1984 4856 
z
" transform="scale(0.015625)"/>
       <path id="DejaVuSans-6e" d="M 3513 2113 
L 3513 0 
L 2938 0 
L 2938 2094 
Q 2938 2591 2744 2837 
Q 2550 3084 2163 3084 
Q 1697 3084 1428 2787 
Q 1159 2491 1159 1978 
L 1159 0 
L 581 0 
L 581 3500 
L 1159 3500 
L 1159 2956 
Q 1366 3272 1645 3428 
Q 1925 3584 2291 3584 
Q 2894 3584 3203 3211 
Q 3513 2838 3513 2113 
z
" transform="scale(0.015625)"/>
       <path id="DejaVuSans-3d" d="M 678 2906 
L 4684 2906 
L 4684 2381 
L 678 2381 
L 678 2906 
z
M 678 1631 
L 4684 1631 
L 4684 1100 
L 678 1100 
L 678 1631 
z
" transform="scale(0.015625)"/>
       <path id="DejaVuSans-36" d="M 2113 2584 
Q 1688 2584 1439 2293 
Q 1191 2003 1191 1497 
Q 1191 994 1439 701 
Q 1688 409 2113 409 
Q 2538 409 2786 701 
Q 3034 994 3034 1497 
Q 3034 2003 2786 2293 
Q 2538 2584 2113 2584 
z
M 3366 4563 
L 3366 3988 
Q 3128 4100 2886 4159 
Q 2644 4219 2406 4219 
Q 1781 4219 1451 3797 
Q 1122 3375 1075 2522 
Q 1259 2794 1537 2939 
Q 1816 3084 2150 3084 
Q 2853 3084 3261 2657 
Q 3669 2231 3669 1497 
Q 3669 778 3244 343 
Q 2819 -91 2113 -91 
Q 1303 -91 875 529 
Q 447 1150 447 2328 
Q 447 3434 972 4092 
Q 1497 4750 2381 4750 
Q 2619 4750 2861 4703 
Q 3103 4656 3366 4563 
z
" transform="scale(0.015625)"/>
       <path id="DejaVuSans-29" d="M 513 4856 
L 1013 4856 
Q 1481 4119 1714 3412 
Q 1947 2706 1947 2009 
Q 1947 1309 1714 600 
Q 1481 -109 1013 -844 
L 513 -844 
Q 928 -128 1133 580 
Q 1338 1288 1338 2009 
Q 1338 2731 1133 3434 
Q 928 4138 513 4856 
z
" transform="scale(0.015625)"/>
      </defs>
      <use xlink:href="#DejaVuSans-44"/>
      <use xlink:href="#DejaVuSans-55" transform="translate(77.001953 0)"/>
      <use xlink:href="#DejaVuSans-4c" transform="translate(150.195312 0)"/>
      <use xlink:href="#DejaVuSans-31" transform="translate(205.908203 0)"/>
      <use xlink:href="#DejaVuSans-35" transform="translate(269.53125 0)"/>
      <use xlink:href="#DejaVuSans-53" transform="translate(333.154297 0)"/>
      <use xlink:href="#DejaVuSans-43" transform="translate(396.630859 0)"/>
      <use xlink:href="#DejaVuSans-b1" transform="translate(466.455078 0)"/>
      <use xlink:href="#DejaVuSans-53" transform="translate(550.244141 0)"/>
      <use xlink:href="#DejaVuSans-44" transform="translate(613.720703 0)"/>
      <use xlink:href="#DejaVuSans-20" transform="translate(690.722656 0)"/>
      <use xlink:href="#DejaVuSans-28" transform="translate(722.509766 0)"/>
      <use xlink:href="#DejaVuSans-6e" transform="translate(761.523438 0)"/>
      <use xlink:href="#DejaVuSans-3d" transform="translate(824.902344 0)"/>
      <use xlink:href="#DejaVuSans-31" transform="translate(908.691406 0)"/>
      <use xlink:href="#DejaVuSans-36" transform="translate(972.314453 0)"/>
      <use xlink:href="#DejaVuSans-29" transform="translate(1035.9375 0)"/>
     </g>
    </g>
    <g id="line2d_21">
     <path d="M 300.950312 85.654687 
L 320.950312 85.654687 
" style="fill: none; stroke: #0000ff; stroke-width: 2; stroke-linecap: square"/>
    </g>
    <g id="line2d_22"/>
    <g id="text_17">
     <!-- DUL01IV -->
     <g transform="translate(328.950312 89.154687) scale(0.1 -0.1)">
      <defs>
       <path id="DejaVuSans-49" d="M 628 4666 
L 1259 4666 
L 1259 0 
L 628 0 
L 628 4666 
z
" transform="scale(0.015625)"/>
       <path id="DejaVuSans-56" d="M 1831 0 
L 50 4666 
L 709 4666 
L 2188 738 
L 3669 4666 
L 4325 4666 
L 2547 0 
L 1831 0 
z
" transform="scale(0.015625)"/>
      </defs>
      <use xlink:href="#DejaVuSans-44"/>
      <use xlink:href="#DejaVuSans-55" transform="translate(77.001953 0)"/>
      <use xlink:href="#DejaVuSans-4c" transform="translate(150.195312 0)"/>
      <use xlink:href="#DejaVuSans-30" transform="translate(205.908203 0)"/>
      <use xlink:href="#DejaVuSans-31" transform="translate(269.53125 0)"/>
      <use xlink:href="#DejaVuSans-49" transform="translate(333.154297 0)"/>
      <use xlink:href="#DejaVuSans-56" transform="translate(362.646484 0)"/>
     </g>
    </g>
    <g id="LineCollection_4">
     <path d="M 310.950312 105.332812 
L 310.950312 95.332812 
" style="fill: none; stroke: #0000ff"/>
    </g>
    <g id="line2d_23">
     <path d="M 300.950312 100.332812 
L 320.950312 100.332812 
" style="fill: none; stroke-dasharray: 3.7,1.6; stroke-dashoffset: 0; stroke: #0000ff"/>
    </g>
    <g id="line2d_24">
     <g>
      <use xlink:href="#m6fc980fd59" x="310.950312" y="100.332812" style="fill: #0000ff; stroke: #000000; stroke-linejoin: miter"/>
     </g>
    </g>
    <g id="text_18">
     <!-- DUL01IV±SD (n=16) -->
     <g transform="translate(328.950312 103.832812) scale(0.1 -0.1)">
      <use xlink:href="#DejaVuSans-44"/>
      <use xlink:href="#DejaVuSans-55" transform="translate(77.001953 0)"/>
      <use xlink:href="#DejaVuSans-4c" transform="translate(150.195312 0)"/>
      <use xlink:href="#DejaVuSans-30" transform="translate(205.908203 0)"/>
      <use xlink:href="#DejaVuSans-31" transform="translate(269.53125 0)"/>
      <use xlink:href="#DejaVuSans-49" transform="translate(333.154297 0)"/>
      <use xlink:href="#DejaVuSans-56" transform="translate(362.646484 0)"/>
      <use xlink:href="#DejaVuSans-b1" transform="translate(431.054688 0)"/>
      <use xlink:href="#DejaVuSans-53" transform="translate(514.84375 0)"/>
      <use xlink:href="#DejaVuSans-44" transform="translate(578.320312 0)"/>
      <use xlink:href="#DejaVuSans-20" transform="translate(655.322266 0)"/>
      <use xlink:href="#DejaVuSans-28" transform="translate(687.109375 0)"/>
      <use xlink:href="#DejaVuSans-6e" transform="translate(726.123047 0)"/>
      <use xlink:href="#DejaVuSans-3d" transform="translate(789.501953 0)"/>
      <use xlink:href="#DejaVuSans-31" transform="translate(873.291016 0)"/>
      <use xlink:href="#DejaVuSans-36" transform="translate(936.914062 0)"/>
      <use xlink:href="#DejaVuSans-29" transform="translate(1000.537109 0)"/>
     </g>
    </g>
   </g>
  </g>
  <g id="text_19">
   <!-- FDAGBDR -->
   <g transform="translate(175.469844 26.196094) scale(0.25 -0.25)">
    <defs>
     <path id="DejaVuSans-Bold-46" d="M 588 4666 
L 3834 4666 
L 3834 3756 
L 1791 3756 
L 1791 2888 
L 3713 2888 
L 3713 1978 
L 1791 1978 
L 1791 0 
L 588 0 
L 588 4666 
z
" transform="scale(0.015625)"/>
     <path id="DejaVuSans-Bold-44" d="M 1791 3756 
L 1791 909 
L 2222 909 
Q 2959 909 3348 1275 
Q 3738 1641 3738 2338 
Q 3738 3031 3350 3393 
Q 2963 3756 2222 3756 
L 1791 3756 
z
M 588 4666 
L 1856 4666 
Q 2919 4666 3439 4514 
Q 3959 4363 4331 4000 
Q 4659 3684 4818 3271 
Q 4978 2859 4978 2338 
Q 4978 1809 4818 1395 
Q 4659 981 4331 666 
Q 3956 303 3431 151 
Q 2906 0 1856 0 
L 588 0 
L 588 4666 
z
" transform="scale(0.015625)"/>
     <path id="DejaVuSans-Bold-41" d="M 3419 850 
L 1538 850 
L 1241 0 
L 31 0 
L 1759 4666 
L 3194 4666 
L 4922 0 
L 3713 0 
L 3419 850 
z
M 1838 1716 
L 3116 1716 
L 2478 3572 
L 1838 1716 
z
" transform="scale(0.015625)"/>
     <path id="DejaVuSans-Bold-47" d="M 4781 347 
Q 4331 128 3847 18 
Q 3363 -91 2847 -91 
Q 1681 -91 1000 561 
Q 319 1213 319 2328 
Q 319 3456 1012 4103 
Q 1706 4750 2913 4750 
Q 3378 4750 3804 4662 
Q 4231 4575 4609 4403 
L 4609 3438 
Q 4219 3659 3833 3768 
Q 3447 3878 3059 3878 
Q 2341 3878 1952 3476 
Q 1563 3075 1563 2328 
Q 1563 1588 1938 1184 
Q 2313 781 3003 781 
Q 3191 781 3352 804 
Q 3513 828 3641 878 
L 3641 1784 
L 2906 1784 
L 2906 2591 
L 4781 2591 
L 4781 347 
z
" transform="scale(0.015625)"/>
     <path id="DejaVuSans-Bold-42" d="M 2456 2859 
Q 2741 2859 2887 2984 
Q 3034 3109 3034 3353 
Q 3034 3594 2887 3720 
Q 2741 3847 2456 3847 
L 1791 3847 
L 1791 2859 
L 2456 2859 
z
M 2497 819 
Q 2859 819 3042 972 
Q 3225 1125 3225 1434 
Q 3225 1738 3044 1889 
Q 2863 2041 2497 2041 
L 1791 2041 
L 1791 819 
L 2497 819 
z
M 3616 2497 
Q 4003 2384 4215 2081 
Q 4428 1778 4428 1338 
Q 4428 663 3972 331 
Q 3516 0 2584 0 
L 588 0 
L 588 4666 
L 2394 4666 
Q 3366 4666 3802 4372 
Q 4238 4078 4238 3431 
Q 4238 3091 4078 2852 
Q 3919 2613 3616 2497 
z
" transform="scale(0.015625)"/>
     <path id="DejaVuSans-Bold-52" d="M 2297 2597 
Q 2675 2597 2839 2737 
Q 3003 2878 3003 3200 
Q 3003 3519 2839 3656 
Q 2675 3794 2297 3794 
L 1791 3794 
L 1791 2597 
L 2297 2597 
z
M 1791 1766 
L 1791 0 
L 588 0 
L 588 4666 
L 2425 4666 
Q 3347 4666 3776 4356 
Q 4206 4047 4206 3378 
Q 4206 2916 3982 2619 
Q 3759 2322 3309 2181 
Q 3556 2125 3751 1926 
Q 3947 1728 4147 1325 
L 4800 0 
L 3519 0 
L 2950 1159 
Q 2778 1509 2601 1637 
Q 2425 1766 2131 1766 
L 1791 1766 
z
" transform="scale(0.015625)"/>
    </defs>
    <use xlink:href="#DejaVuSans-Bold-46"/>
    <use xlink:href="#DejaVuSans-Bold-44" transform="translate(68.310547 0)"/>
    <use xlink:href="#DejaVuSans-Bold-41" transform="translate(151.318359 0)"/>
    <use xlink:href="#DejaVuSans-Bold-47" transform="translate(228.710938 0)"/>
    <use xlink:href="#DejaVuSans-Bold-42" transform="translate(310.791016 0)"/>
    <use xlink:href="#DejaVuSans-Bold-44" transform="translate(387.011719 0)"/>
    <use xlink:href="#DejaVuSans-Bold-52" transform="translate(470.019531 0)"/>
   </g>
  </g>
 </g>
 <defs>
  <clipPath id="p90476462d0">
   <rect x="54.84875" y="43.2" width="390.6" height="277.2"/>
  </clipPath>
 </defs>
</svg>
