<?xml version="1.0" encoding="utf-8" standalone="no"?>
<!DOCTYPE svg PUBLIC "-//W3C//DTD SVG 1.1//EN"
  "http://www.w3.org/Graphics/SVG/1.1/DTD/svg11.dtd">
<svg xmlns:xlink="http://www.w3.org/1999/xlink" width="452.64875pt" height="370.537812pt" viewBox="0 0 452.64875 370.537812" xmlns="http://www.w3.org/2000/svg" version="1.1">
 <metadata>
  <rdf:RDF xmlns:dc="http://purl.org/dc/elements/1.1/" xmlns:cc="http://creativecommons.org/ns#" xmlns:rdf="http://www.w3.org/1999/02/22-rdf-syntax-ns#">
   <cc:Work>
    <dc:type rdf:resource="http://purl.org/dc/dcmitype/StillImage"/>
    <dc:date>2026-01-30T14:57:05.170942</dc:date>
    <dc:format>image/svg+xml</dc:format>
    <dc:creator>
     <cc:Agent>
      <dc:title>Matplotlib v3.10.7, https://matplotlib.org/</dc:title>
     </cc:Agent>
    </dc:creator>
   </cc:Work>
  </rdf:RDF>
 </metadata>
 <defs>
  <style type="text/css">*{stroke-linejoin: round; stroke-linecap: butt}</style>
 </defs>
 <g id="figure_1">
  <g id="patch_1">
   <path d="M 0 370.537812 
L 452.64875 370.537812 
L 452.64875 0 
L 0 0 
z
" style="fill: #ffffff"/>
  </g>
  <g id="axes_1">
   <g id="patch_2">
    <path d="M 54.84875 320.4 
L 445.44875 320.4 
L 445.44875 43.2 
L 54.84875 43.2 
z
" style="fill: #ffffff"/>
   </g>
   <g id="matplotlib.axis_1">
    <g id="xtick_1">
     <g id="line2d_1">
      <defs>
       <path id="m878e8dbe2f" d="M 0 0 
L 0 3.5 
" style="stroke: #000000; stroke-width: 0.8"/>
      </defs>
      <g>
       <use xlink:href="#m878e8dbe2f" x="72.603295" y="320.4" style="stroke: #000000; stroke-width: 0.8"/>
      </g>
     </g>
     <g id="text_1">
      <!-- 0.0 -->
      <g transform="translate(60.675952 338.797656) scale(0.15 -0.15)">
       <defs>
        <path id="DejaVuSans-30" d="M 2034 4250 
Q 1547 4250 1301 3770 
Q 1056 3291 1056 2328 
Q 1056 1369 1301 889 
Q 1547 409 2034 409 
Q 2525 409 2770 889 
Q 3016 1369 3016 2328 
Q 3016 3291 2770 3770 
Q 2525 4250 2034 4250 
z
M 2034 4750 
Q 2819 4750 3233 4129 
Q 3647 3509 3647 2328 
Q 3647 1150 3233 529 
Q 2819 -91 2034 -91 
Q 1250 -91 836 529 
Q 422 1150 422 2328 
Q 422 3509 836 4129 
Q 1250 4750 2034 4750 
z
" transform="scale(0.015625)"/>
        <path id="DejaVuSans-2e" d="M 684 794 
L 1344 794 
L 1344 0 
L 684 0 
L 684 794 
z
" transform="scale(0.015625)"/>
       </defs>
       <use xlink:href="#DejaVuSans-30"/>
       <use xlink:href="#DejaVuSans-2e" transform="translate(63.623047 0)"/>
       <use xlink:href="#DejaVuSans-30" transform="translate(95.410156 0)"/>
      </g>
     </g>
    </g>
    <g id="xtick_2">
     <g id="line2d_2">
      <g>
       <use xlink:href="#m878e8dbe2f" x="155.457841" y="320.4" style="stroke: #000000; stroke-width: 0.8"/>
      </g>
     </g>
     <g id="text_2">
      <!-- 0.5 -->
      <g transform="translate(143.530497 338.797656) scale(0.15 -0.15)">
       <defs>
        <path id="DejaVuSans-35" d="M 691 4666 
L 3169 4666 
L 3169 4134 
L 1269 4134 
L 1269 2991 
Q 1406 3038 1543 3061 
Q 1681 3084 1819 3084 
Q 2600 3084 3056 2656 
Q 3513 2228 3513 1497 
Q 3513 744 3044 326 
Q 2575 -91 1722 -91 
Q 1428 -91 1123 -41 
Q 819 9 494 109 
L 494 744 
Q 775 591 1075 516 
Q 1375 441 1709 441 
Q 2250 441 2565 725 
Q 2881 1009 2881 1497 
Q 2881 1984 2565 2268 
Q 2250 2553 1709 2553 
Q 1456 2553 1204 2497 
Q 953 2441 691 2322 
L 691 4666 
z
" transform="scale(0.015625)"/>
       </defs>
       <use xlink:href="#DejaVuSans-30"/>
       <use xlink:href="#DejaVuSans-2e" transform="translate(63.623047 0)"/>
       <use xlink:href="#DejaVuSans-35" transform="translate(95.410156 0)"/>
      </g>
     </g>
    </g>
    <g id="xtick_3">
     <g id="line2d_3">
      <g>
       <use xlink:href="#m878e8dbe2f" x="238.312386" y="320.4" style="stroke: #000000; stroke-width: 0.8"/>
      </g>
     </g>
     <g id="text_3">
      <!-- 1.0 -->
      <g transform="translate(226.385043 338.797656) scale(0.15 -0.15)">
       <defs>
        <path id="DejaVuSans-31" d="M 794 531 
L 1825 531 
L 1825 4091 
L 703 3866 
L 703 4441 
L 1819 4666 
L 2450 4666 
L 2450 531 
L 3481 531 
L 3481 0 
L 794 0 
L 794 531 
z
" transform="scale(0.015625)"/>
       </defs>
       <use xlink:href="#DejaVuSans-31"/>
       <use xlink:href="#DejaVuSans-2e" transform="translate(63.623047 0)"/>
       <use xlink:href="#DejaVuSans-30" transform="translate(95.410156 0)"/>
      </g>
     </g>
    </g>
    <g id="xtick_4">
     <g id="line2d_4">
      <g>
       <use xlink:href="#m878e8dbe2f" x="321.166932" y="320.4" style="stroke: #000000; stroke-width: 0.8"/>
      </g>
     </g>
     <g id="text_4">
      <!-- 1.5 -->
      <g transform="translate(309.239588 338.797656) scale(0.15 -0.15)">
       <use xlink:href="#DejaVuSans-31"/>
       <use xlink:href="#DejaVuSans-2e" transform="translate(63.623047 0)"/>
       <use xlink:href="#DejaVuSans-35" transform="translate(95.410156 0)"/>
      </g>
     </g>
    </g>
    <g id="xtick_5">
     <g id="line2d_5">
      <g>
       <use xlink:href="#m878e8dbe2f" x="404.021477" y="320.4" style="stroke: #000000; stroke-width: 0.8"/>
      </g>
     </g>
     <g id="text_5">
      <!-- 2.0 -->
      <g transform="translate(392.094134 338.797656) scale(0.15 -0.15)">
       <defs>
        <path id="DejaVuSans-32" d="M 1228 531 
L 3431 531 
L 3431 0 
L 469 0 
L 469 531 
Q 828 903 1448 1529 
Q 2069 2156 2228 2338 
Q 2531 2678 2651 2914 
Q 2772 3150 2772 3378 
Q 2772 3750 2511 3984 
Q 2250 4219 1831 4219 
Q 1534 4219 1204 4116 
Q 875 4013 500 3803 
L 500 4441 
Q 881 4594 1212 4672 
Q 1544 4750 1819 4750 
Q 2544 4750 2975 4387 
Q 3406 4025 3406 3419 
Q 3406 3131 3298 2873 
Q 3191 2616 2906 2266 
Q 2828 2175 2409 1742 
Q 1991 1309 1228 531 
z
" transform="scale(0.015625)"/>
       </defs>
       <use xlink:href="#DejaVuSans-32"/>
       <use xlink:href="#DejaVuSans-2e" transform="translate(63.623047 0)"/>
       <use xlink:href="#DejaVuSans-30" transform="translate(95.410156 0)"/>
      </g>
     </g>
    </g>
    <g id="text_6">
     <!-- time [week] -->
     <g transform="translate(189.41 359.594375) scale(0.18 -0.18)">
      <defs>
       <path id="DejaVuSans-Bold-74" d="M 1759 4494 
L 1759 3500 
L 2913 3500 
L 2913 2700 
L 1759 2700 
L 1759 1216 
Q 1759 972 1856 886 
Q 1953 800 2241 800 
L 2816 800 
L 2816 0 
L 1856 0 
Q 1194 0 917 276 
Q 641 553 641 1216 
L 641 2700 
L 84 2700 
L 84 3500 
L 641 3500 
L 641 4494 
L 1759 4494 
z
" transform="scale(0.015625)"/>
       <path id="DejaVuSans-Bold-69" d="M 538 3500 
L 1656 3500 
L 1656 0 
L 538 0 
L 538 3500 
z
M 538 4863 
L 1656 4863 
L 1656 3950 
L 538 3950 
L 538 4863 
z
" transform="scale(0.015625)"/>
       <path id="DejaVuSans-Bold-6d" d="M 3781 2919 
Q 3994 3244 4286 3414 
Q 4578 3584 4928 3584 
Q 5531 3584 5847 3212 
Q 6163 2841 6163 2131 
L 6163 0 
L 5038 0 
L 5038 1825 
Q 5041 1866 5042 1909 
Q 5044 1953 5044 2034 
Q 5044 2406 4934 2573 
Q 4825 2741 4581 2741 
Q 4263 2741 4089 2478 
Q 3916 2216 3909 1719 
L 3909 0 
L 2784 0 
L 2784 1825 
Q 2784 2406 2684 2573 
Q 2584 2741 2328 2741 
Q 2006 2741 1831 2477 
Q 1656 2213 1656 1722 
L 1656 0 
L 531 0 
L 531 3500 
L 1656 3500 
L 1656 2988 
Q 1863 3284 2130 3434 
Q 2397 3584 2719 3584 
Q 3081 3584 3359 3409 
Q 3638 3234 3781 2919 
z
" transform="scale(0.015625)"/>
       <path id="DejaVuSans-Bold-65" d="M 4031 1759 
L 4031 1441 
L 1416 1441 
Q 1456 1047 1700 850 
Q 1944 653 2381 653 
Q 2734 653 3104 758 
Q 3475 863 3866 1075 
L 3866 213 
Q 3469 63 3072 -14 
Q 2675 -91 2278 -91 
Q 1328 -91 801 392 
Q 275 875 275 1747 
Q 275 2603 792 3093 
Q 1309 3584 2216 3584 
Q 3041 3584 3536 3087 
Q 4031 2591 4031 1759 
z
M 2881 2131 
Q 2881 2450 2695 2645 
Q 2509 2841 2209 2841 
Q 1884 2841 1681 2658 
Q 1478 2475 1428 2131 
L 2881 2131 
z
" transform="scale(0.015625)"/>
       <path id="DejaVuSans-Bold-20" transform="scale(0.015625)"/>
       <path id="DejaVuSans-Bold-5b" d="M 550 4863 
L 2491 4863 
L 2491 4159 
L 1613 4159 
L 1613 -141 
L 2491 -141 
L 2491 -844 
L 550 -844 
L 550 4863 
z
" transform="scale(0.015625)"/>
       <path id="DejaVuSans-Bold-77" d="M 225 3500 
L 1313 3500 
L 1900 1088 
L 2491 3500 
L 3425 3500 
L 4013 1113 
L 4603 3500 
L 5691 3500 
L 4769 0 
L 3547 0 
L 2956 2406 
L 2369 0 
L 1147 0 
L 225 3500 
z
" transform="scale(0.015625)"/>
       <path id="DejaVuSans-Bold-6b" d="M 538 4863 
L 1656 4863 
L 1656 2216 
L 2944 3500 
L 4244 3500 
L 2534 1894 
L 4378 0 
L 3022 0 
L 1656 1459 
L 1656 0 
L 538 0 
L 538 4863 
z
" transform="scale(0.015625)"/>
       <path id="DejaVuSans-Bold-5d" d="M 2375 -844 
L 434 -844 
L 434 -141 
L 1313 -141 
L 1313 4159 
L 434 4159 
L 434 4863 
L 2375 4863 
L 2375 -844 
z
" transform="scale(0.015625)"/>
      </defs>
      <use xlink:href="#DejaVuSans-Bold-74"/>
      <use xlink:href="#DejaVuSans-Bold-69" transform="translate(47.802734 0)"/>
      <use xlink:href="#DejaVuSans-Bold-6d" transform="translate(82.080078 0)"/>
      <use xlink:href="#DejaVuSans-Bold-65" transform="translate(186.279297 0)"/>
      <use xlink:href="#DejaVuSans-Bold-20" transform="translate(254.101562 0)"/>
      <use xlink:href="#DejaVuSans-Bold-5b" transform="translate(288.916016 0)"/>
      <use xlink:href="#DejaVuSans-Bold-77" transform="translate(334.619141 0)"/>
      <use xlink:href="#DejaVuSans-Bold-65" transform="translate(427.001953 0)"/>
      <use xlink:href="#DejaVuSans-Bold-65" transform="translate(494.824219 0)"/>
      <use xlink:href="#DejaVuSans-Bold-6b" transform="translate(562.646484 0)"/>
      <use xlink:href="#DejaVuSans-Bold-5d" transform="translate(629.150391 0)"/>
     </g>
    </g>
   </g>
   <g id="matplotlib.axis_2">
    <g id="ytick_1">
     <g id="line2d_6">
      <defs>
       <path id="m8b76041c7f" d="M 0 0 
L -3.5 0 
" style="stroke: #000000; stroke-width: 0.8"/>
      </defs>
      <g>
       <use xlink:href="#m8b76041c7f" x="54.84875" y="302.392275" style="stroke: #000000; stroke-width: 0.8"/>
      </g>
     </g>
     <g id="text_7">
      <!-- 0 -->
      <g transform="translate(38.305 308.091104) scale(0.15 -0.15)">
       <use xlink:href="#DejaVuSans-30"/>
      </g>
     </g>
    </g>
    <g id="ytick_2">
     <g id="line2d_7">
      <g>
       <use xlink:href="#m8b76041c7f" x="54.84875" y="248.768311" style="stroke: #000000; stroke-width: 0.8"/>
      </g>
     </g>
     <g id="text_8">
      <!-- 5 -->
      <g transform="translate(38.305 254.46714) scale(0.15 -0.15)">
       <use xlink:href="#DejaVuSans-35"/>
      </g>
     </g>
    </g>
    <g id="ytick_3">
     <g id="line2d_8">
      <g>
       <use xlink:href="#m8b76041c7f" x="54.84875" y="195.144348" style="stroke: #000000; stroke-width: 0.8"/>
      </g>
     </g>
     <g id="text_9">
      <!-- 10 -->
      <g transform="translate(28.76125 200.843176) scale(0.15 -0.15)">
       <use xlink:href="#DejaVuSans-31"/>
       <use xlink:href="#DejaVuSans-30" transform="translate(63.623047 0)"/>
      </g>
     </g>
    </g>
    <g id="ytick_4">
     <g id="line2d_9">
      <g>
       <use xlink:href="#m8b76041c7f" x="54.84875" y="141.520384" style="stroke: #000000; stroke-width: 0.8"/>
      </g>
     </g>
     <g id="text_10">
      <!-- 15 -->
      <g transform="translate(28.76125 147.219212) scale(0.15 -0.15)">
       <use xlink:href="#DejaVuSans-31"/>
       <use xlink:href="#DejaVuSans-35" transform="translate(63.623047 0)"/>
      </g>
     </g>
    </g>
    <g id="ytick_5">
     <g id="line2d_10">
      <g>
       <use xlink:href="#m8b76041c7f" x="54.84875" y="87.89642" style="stroke: #000000; stroke-width: 0.8"/>
      </g>
     </g>
     <g id="text_11">
      <!-- 20 -->
      <g transform="translate(28.76125 93.595248) scale(0.15 -0.15)">
       <use xlink:href="#DejaVuSans-32"/>
       <use xlink:href="#DejaVuSans-30" transform="translate(63.623047 0)"/>
      </g>
     </g>
    </g>
    <g id="text_12">
     <!-- dulaglutide plasma [nM] -->
     <g transform="translate(20.877187 305.940937) rotate(-90) scale(0.18 -0.18)">
      <defs>
       <path id="DejaVuSans-Bold-64" d="M 2919 2988 
L 2919 4863 
L 4044 4863 
L 4044 0 
L 2919 0 
L 2919 506 
Q 2688 197 2409 53 
Q 2131 -91 1766 -91 
Q 1119 -91 703 423 
Q 288 938 288 1747 
Q 288 2556 703 3070 
Q 1119 3584 1766 3584 
Q 2128 3584 2408 3439 
Q 2688 3294 2919 2988 
z
M 2181 722 
Q 2541 722 2730 984 
Q 2919 1247 2919 1747 
Q 2919 2247 2730 2509 
Q 2541 2772 2181 2772 
Q 1825 2772 1636 2509 
Q 1447 2247 1447 1747 
Q 1447 1247 1636 984 
Q 1825 722 2181 722 
z
" transform="scale(0.015625)"/>
       <path id="DejaVuSans-Bold-75" d="M 500 1363 
L 500 3500 
L 1625 3500 
L 1625 3150 
Q 1625 2866 1622 2436 
Q 1619 2006 1619 1863 
Q 1619 1441 1641 1255 
Q 1663 1069 1716 984 
Q 1784 875 1895 815 
Q 2006 756 2150 756 
Q 2500 756 2700 1025 
Q 2900 1294 2900 1772 
L 2900 3500 
L 4019 3500 
L 4019 0 
L 2900 0 
L 2900 506 
Q 2647 200 2364 54 
Q 2081 -91 1741 -91 
Q 1134 -91 817 281 
Q 500 653 500 1363 
z
" transform="scale(0.015625)"/>
       <path id="DejaVuSans-Bold-6c" d="M 538 4863 
L 1656 4863 
L 1656 0 
L 538 0 
L 538 4863 
z
" transform="scale(0.015625)"/>
       <path id="DejaVuSans-Bold-61" d="M 2106 1575 
Q 1756 1575 1579 1456 
Q 1403 1338 1403 1106 
Q 1403 894 1545 773 
Q 1688 653 1941 653 
Q 2256 653 2472 879 
Q 2688 1106 2688 1447 
L 2688 1575 
L 2106 1575 
z
M 3816 1997 
L 3816 0 
L 2688 0 
L 2688 519 
Q 2463 200 2181 54 
Q 1900 -91 1497 -91 
Q 953 -91 614 226 
Q 275 544 275 1050 
Q 275 1666 698 1953 
Q 1122 2241 2028 2241 
L 2688 2241 
L 2688 2328 
Q 2688 2594 2478 2717 
Q 2269 2841 1825 2841 
Q 1466 2841 1156 2769 
Q 847 2697 581 2553 
L 581 3406 
Q 941 3494 1303 3539 
Q 1666 3584 2028 3584 
Q 2975 3584 3395 3211 
Q 3816 2838 3816 1997 
z
" transform="scale(0.015625)"/>
       <path id="DejaVuSans-Bold-67" d="M 2919 594 
Q 2688 288 2409 144 
Q 2131 0 1766 0 
Q 1125 0 706 504 
Q 288 1009 288 1791 
Q 288 2575 706 3076 
Q 1125 3578 1766 3578 
Q 2131 3578 2409 3434 
Q 2688 3291 2919 2981 
L 2919 3500 
L 4044 3500 
L 4044 353 
Q 4044 -491 3511 -936 
Q 2978 -1381 1966 -1381 
Q 1638 -1381 1331 -1331 
Q 1025 -1281 716 -1178 
L 716 -306 
Q 1009 -475 1290 -558 
Q 1572 -641 1856 -641 
Q 2406 -641 2662 -400 
Q 2919 -159 2919 353 
L 2919 594 
z
M 2181 2772 
Q 1834 2772 1640 2515 
Q 1447 2259 1447 1791 
Q 1447 1309 1634 1061 
Q 1822 813 2181 813 
Q 2531 813 2725 1069 
Q 2919 1325 2919 1791 
Q 2919 2259 2725 2515 
Q 2531 2772 2181 2772 
z
" transform="scale(0.015625)"/>
       <path id="DejaVuSans-Bold-70" d="M 1656 506 
L 1656 -1331 
L 538 -1331 
L 538 3500 
L 1656 3500 
L 1656 2988 
Q 1888 3294 2169 3439 
Q 2450 3584 2816 3584 
Q 3463 3584 3878 3070 
Q 4294 2556 4294 1747 
Q 4294 938 3878 423 
Q 3463 -91 2816 -91 
Q 2450 -91 2169 54 
Q 1888 200 1656 506 
z
M 2400 2772 
Q 2041 2772 1848 2508 
Q 1656 2244 1656 1747 
Q 1656 1250 1848 986 
Q 2041 722 2400 722 
Q 2759 722 2948 984 
Q 3138 1247 3138 1747 
Q 3138 2247 2948 2509 
Q 2759 2772 2400 2772 
z
" transform="scale(0.015625)"/>
       <path id="DejaVuSans-Bold-73" d="M 3272 3391 
L 3272 2541 
Q 2913 2691 2578 2766 
Q 2244 2841 1947 2841 
Q 1628 2841 1473 2761 
Q 1319 2681 1319 2516 
Q 1319 2381 1436 2309 
Q 1553 2238 1856 2203 
L 2053 2175 
Q 2913 2066 3209 1816 
Q 3506 1566 3506 1031 
Q 3506 472 3093 190 
Q 2681 -91 1863 -91 
Q 1516 -91 1145 -36 
Q 775 19 384 128 
L 384 978 
Q 719 816 1070 734 
Q 1422 653 1784 653 
Q 2113 653 2278 743 
Q 2444 834 2444 1013 
Q 2444 1163 2330 1236 
Q 2216 1309 1875 1350 
L 1678 1375 
Q 931 1469 631 1722 
Q 331 1975 331 2491 
Q 331 3047 712 3315 
Q 1094 3584 1881 3584 
Q 2191 3584 2531 3537 
Q 2872 3491 3272 3391 
z
" transform="scale(0.015625)"/>
       <path id="DejaVuSans-Bold-6e" d="M 4056 2131 
L 4056 0 
L 2931 0 
L 2931 347 
L 2931 1631 
Q 2931 2084 2911 2256 
Q 2891 2428 2841 2509 
Q 2775 2619 2662 2680 
Q 2550 2741 2406 2741 
Q 2056 2741 1856 2470 
Q 1656 2200 1656 1722 
L 1656 0 
L 538 0 
L 538 3500 
L 1656 3500 
L 1656 2988 
Q 1909 3294 2193 3439 
Q 2478 3584 2822 3584 
Q 3428 3584 3742 3212 
Q 4056 2841 4056 2131 
z
" transform="scale(0.015625)"/>
       <path id="DejaVuSans-Bold-4d" d="M 588 4666 
L 2119 4666 
L 3181 2169 
L 4250 4666 
L 5778 4666 
L 5778 0 
L 4641 0 
L 4641 3413 
L 3566 897 
L 2803 897 
L 1728 3413 
L 1728 0 
L 588 0 
L 588 4666 
z
" transform="scale(0.015625)"/>
      </defs>
      <use xlink:href="#DejaVuSans-Bold-64"/>
      <use xlink:href="#DejaVuSans-Bold-75" transform="translate(71.582031 0)"/>
      <use xlink:href="#DejaVuSans-Bold-6c" transform="translate(142.773438 0)"/>
      <use xlink:href="#DejaVuSans-Bold-61" transform="translate(177.050781 0)"/>
      <use xlink:href="#DejaVuSans-Bold-67" transform="translate(244.53125 0)"/>
      <use xlink:href="#DejaVuSans-Bold-6c" transform="translate(316.113281 0)"/>
      <use xlink:href="#DejaVuSans-Bold-75" transform="translate(350.390625 0)"/>
      <use xlink:href="#DejaVuSans-Bold-74" transform="translate(421.582031 0)"/>
      <use xlink:href="#DejaVuSans-Bold-69" transform="translate(469.384766 0)"/>
      <use xlink:href="#DejaVuSans-Bold-64" transform="translate(503.662109 0)"/>
      <use xlink:href="#DejaVuSans-Bold-65" transform="translate(575.244141 0)"/>
      <use xlink:href="#DejaVuSans-Bold-20" transform="translate(643.066406 0)"/>
      <use xlink:href="#DejaVuSans-Bold-70" transform="translate(677.880859 0)"/>
      <use xlink:href="#DejaVuSans-Bold-6c" transform="translate(749.462891 0)"/>
      <use xlink:href="#DejaVuSans-Bold-61" transform="translate(783.740234 0)"/>
      <use xlink:href="#DejaVuSans-Bold-73" transform="translate(851.220703 0)"/>
      <use xlink:href="#DejaVuSans-Bold-6d" transform="translate(910.742188 0)"/>
      <use xlink:href="#DejaVuSans-Bold-61" transform="translate(1014.941406 0)"/>
      <use xlink:href="#DejaVuSans-Bold-20" transform="translate(1082.421875 0)"/>
      <use xlink:href="#DejaVuSans-Bold-5b" transform="translate(1117.236328 0)"/>
      <use xlink:href="#DejaVuSans-Bold-6e" transform="translate(1162.939453 0)"/>
      <use xlink:href="#DejaVuSans-Bold-4d" transform="translate(1234.130859 0)"/>
      <use xlink:href="#DejaVuSans-Bold-5d" transform="translate(1333.642578 0)"/>
     </g>
    </g>
   </g>
   <g id="LineCollection_1">
    <path clip-path="url(#p0f6c70dffe)" style="fill: none; stroke: #ff0000"/>
    <path d="M 74.576023 307.8 
L 74.576023 286.169102 
" clip-path="url(#p0f6c70dffe)" style="fill: none; stroke: #ff0000"/>
    <path d="M 76.54875 298.066079 
L 76.54875 248.315029 
" clip-path="url(#p0f6c70dffe)" style="fill: none; stroke: #ff0000"/>
    <path d="M 80.494205 269.945886 
L 80.494205 181.259236 
" clip-path="url(#p0f6c70dffe)" style="fill: none; stroke: #ff0000"/>
    <path d="M 84.439659 243.988833 
L 84.439659 125.018892 
" clip-path="url(#p0f6c70dffe)" style="fill: none; stroke: #ff0000"/>
    <path d="M 96.276023 202.890176 
L 96.276023 88.246348 
" clip-path="url(#p0f6c70dffe)" style="fill: none; stroke: #ff0000"/>
    <path d="M 108.112386 202.890134 
L 108.112386 68.778547 
" clip-path="url(#p0f6c70dffe)" style="fill: none; stroke: #ff0000"/>
    <path d="M 119.94875 187.74853 
L 119.94875 55.8 
" clip-path="url(#p0f6c70dffe)" style="fill: none; stroke: #ff0000"/>
    <path d="M 143.621477 189.911587 
L 143.621477 92.572544 
" clip-path="url(#p0f6c70dffe)" style="fill: none; stroke: #ff0000"/>
    <path d="M 190.966932 231.010286 
L 190.966932 159.628337 
" clip-path="url(#p0f6c70dffe)" style="fill: none; stroke: #ff0000"/>
    <path d="M 238.312386 265.619773 
L 238.312386 187.748489 
" clip-path="url(#p0f6c70dffe)" style="fill: none; stroke: #ff0000"/>
   </g>
   <g id="LineCollection_2">
    <path clip-path="url(#p0f6c70dffe)" style="fill: none; stroke: #008000"/>
    <path clip-path="url(#p0f6c70dffe)" style="fill: none; stroke: #008000"/>
    <path d="M 76.54875 289.413728 
L 76.54875 226.68409 
" clip-path="url(#p0f6c70dffe)" style="fill: none; stroke: #008000"/>
    <path d="M 80.494205 267.78283 
L 80.494205 172.606843 
" clip-path="url(#p0f6c70dffe)" style="fill: none; stroke: #008000"/>
    <path d="M 84.439659 235.336482 
L 84.439659 142.323635 
" clip-path="url(#p0f6c70dffe)" style="fill: none; stroke: #008000"/>
    <path d="M 96.276023 196.40084 
L 96.276023 122.855835 
" clip-path="url(#p0f6c70dffe)" style="fill: none; stroke: #008000"/>
    <path d="M 108.112386 183.422334 
L 108.112386 118.529639 
" clip-path="url(#p0f6c70dffe)" style="fill: none; stroke: #008000"/>
    <path d="M 119.94875 166.11759 
L 119.94875 96.898699 
" clip-path="url(#p0f6c70dffe)" style="fill: none; stroke: #008000"/>
    <path d="M 143.621477 196.40084 
L 143.621477 114.203442 
" clip-path="url(#p0f6c70dffe)" style="fill: none; stroke: #008000"/>
    <path d="M 190.966932 221.276406 
L 190.966932 158.546768 
" clip-path="url(#p0f6c70dffe)" style="fill: none; stroke: #008000"/>
    <path d="M 238.312386 256.96738 
L 238.312386 183.422293 
" clip-path="url(#p0f6c70dffe)" style="fill: none; stroke: #008000"/>
    <path d="M 404.021477 280.761377 
L 404.021477 252.641143 
" clip-path="url(#p0f6c70dffe)" style="fill: none; stroke: #008000"/>
   </g>
   <g id="line2d_11">
    <path d="M 72.603295 302.392275 
L 74.686495 280.40014 
L 76.769695 260.612667 
L 78.852895 242.846261 
L 80.936095 226.948371 
L 83.019295 212.776672 
L 85.102495 200.198418 
L 86.996314 190.042073 
L 88.890132 181.013296 
L 90.78395 173.030557 
L 92.677768 166.017421 
L 94.571586 159.902258 
L 96.276023 155.110819 
L 97.980459 150.946354 
L 99.684895 147.36554 
L 101.389332 144.327559 
L 102.904386 142.051712 
L 104.419441 140.148852 
L 105.934495 138.594807 
L 107.44955 137.366673 
L 108.964605 136.442758 
L 110.479659 135.802522 
L 111.994714 135.426521 
L 113.509768 135.296355 
L 115.024823 135.394617 
L 116.539877 135.704845 
L 118.244314 136.287874 
L 119.94875 137.098631 
L 121.842568 138.242797 
L 123.925768 139.76834 
L 126.19835 141.716369 
L 128.660314 144.119378 
L 131.501041 147.215985 
L 134.720532 151.073903 
L 138.508168 155.987826 
L 143.053332 162.277247 
L 149.11355 171.078755 
L 170.134932 201.94037 
L 176.384532 210.542431 
L 182.065986 217.982792 
L 187.368677 224.567487 
L 192.481986 230.5716 
L 197.595295 236.22935 
L 202.519223 241.349442 
L 207.44315 246.151276 
L 212.367077 250.641781 
L 217.291005 254.830376 
L 222.214932 258.728311 
L 227.138859 262.348135 
L 232.252168 265.8272 
L 237.365477 269.036396 
L 242.668168 272.096328 
L 247.970859 274.900669 
L 253.462932 277.554206 
L 259.144386 280.050216 
L 261.985114 281.209431 
L 261.985114 281.209431 
" clip-path="url(#p0f6c70dffe)" style="fill: none; stroke: #ff0000; stroke-width: 2; stroke-linecap: square"/>
   </g>
   <g id="line2d_12">
    <path d="M 72.603295 302.392275 
L 74.576023 296.984551 
L 76.54875 273.190554 
L 80.494205 225.602561 
L 84.439659 184.503862 
L 96.276023 145.568262 
L 108.112386 135.834341 
L 119.94875 121.774265 
L 143.621477 141.242065 
L 190.966932 195.319312 
L 238.312386 226.684131 
" clip-path="url(#p0f6c70dffe)" style="fill: none; stroke-dasharray: 3.7,1.6; stroke-dashoffset: 0; stroke: #ff0000"/>
    <defs>
     <path id="mdc018a2d63" d="M -3 3 
L 3 3 
L 3 -3 
L -3 -3 
z
" style="stroke: #000000; stroke-linejoin: miter"/>
    </defs>
    <g clip-path="url(#p0f6c70dffe)">
     <use xlink:href="#mdc018a2d63" x="72.603295" y="302.392275" style="fill: #ff0000; stroke: #000000; stroke-linejoin: miter"/>
     <use xlink:href="#mdc018a2d63" x="74.576023" y="296.984551" style="fill: #ff0000; stroke: #000000; stroke-linejoin: miter"/>
     <use xlink:href="#mdc018a2d63" x="76.54875" y="273.190554" style="fill: #ff0000; stroke: #000000; stroke-linejoin: miter"/>
     <use xlink:href="#mdc018a2d63" x="80.494205" y="225.602561" style="fill: #ff0000; stroke: #000000; stroke-linejoin: miter"/>
     <use xlink:href="#mdc018a2d63" x="84.439659" y="184.503862" style="fill: #ff0000; stroke: #000000; stroke-linejoin: miter"/>
     <use xlink:href="#mdc018a2d63" x="96.276023" y="145.568262" style="fill: #ff0000; stroke: #000000; stroke-linejoin: miter"/>
     <use xlink:href="#mdc018a2d63" x="108.112386" y="135.834341" style="fill: #ff0000; stroke: #000000; stroke-linejoin: miter"/>
     <use xlink:href="#mdc018a2d63" x="119.94875" y="121.774265" style="fill: #ff0000; stroke: #000000; stroke-linejoin: miter"/>
     <use xlink:href="#mdc018a2d63" x="143.621477" y="141.242065" style="fill: #ff0000; stroke: #000000; stroke-linejoin: miter"/>
     <use xlink:href="#mdc018a2d63" x="190.966932" y="195.319312" style="fill: #ff0000; stroke: #000000; stroke-linejoin: miter"/>
     <use xlink:href="#mdc018a2d63" x="238.312386" y="226.684131" style="fill: #ff0000; stroke: #000000; stroke-linejoin: miter"/>
    </g>
   </g>
   <g id="line2d_13">
    <path d="M 72.603295 302.392275 
L 74.733841 279.926805 
L 76.864386 259.76245 
L 78.994932 241.704621 
L 81.125477 225.590766 
L 83.256023 211.269467 
L 85.386568 198.599729 
L 87.517114 187.450305 
L 89.292568 179.2321 
L 91.068023 171.918577 
L 92.843477 165.447498 
L 94.618932 159.760294 
L 96.394386 154.801875 
L 98.169841 150.520431 
L 99.945295 146.867256 
L 101.72075 143.796573 
L 103.141114 141.730433 
L 104.561477 139.988707 
L 105.981841 138.55161 
L 107.402205 137.400338 
L 108.822568 136.517015 
L 110.242932 135.88466 
L 111.663295 135.487142 
L 113.083659 135.309142 
L 114.504023 135.336118 
L 115.924386 135.554267 
L 117.699841 136.075903 
L 119.475295 136.851728 
L 121.25075 137.859188 
L 123.381295 139.344301 
L 125.511841 141.098836 
L 127.997477 143.444863 
L 130.838205 146.465377 
L 134.034023 150.223896 
L 137.584932 154.758217 
L 141.846023 160.573225 
L 147.527477 168.744414 
L 158.535295 185.093686 
L 167.412568 198.07385 
L 173.804205 207.040481 
L 179.485659 214.651348 
L 184.812023 221.437464 
L 190.138386 227.862447 
L 195.109659 233.522495 
L 200.080932 238.854106 
L 205.052205 243.858995 
L 210.023477 248.542753 
L 214.99475 252.913929 
L 219.966023 256.983288 
L 224.937295 260.763189 
L 229.908568 264.267078 
L 234.879841 267.509083 
L 240.206205 270.708497 
L 245.532568 273.641801 
L 250.858932 276.326723 
L 256.540386 278.936384 
L 262.221841 281.303473 
L 268.258386 283.574436 
L 274.650023 285.72891 
L 281.041659 287.650227 
L 287.788386 289.450483 
L 294.890205 291.119333 
L 302.702205 292.717844 
L 310.869295 294.156243 
L 319.746568 295.486365 
L 329.334023 296.689928 
L 339.631659 297.756293 
L 350.994568 298.708546 
L 363.777841 299.552901 
L 378.336568 300.285549 
L 395.380932 300.910282 
L 415.621114 301.419098 
L 427.694205 301.636019 
L 427.694205 301.636019 
" clip-path="url(#p0f6c70dffe)" style="fill: none; stroke: #008000; stroke-width: 2; stroke-linecap: square"/>
   </g>
   <g id="line2d_14">
    <path d="M 72.603295 302.392275 
L 74.576023 281.842905 
L 76.54875 258.048909 
L 80.494205 220.194837 
L 84.439659 188.830059 
L 96.276023 159.628337 
L 108.112386 150.975986 
L 119.94875 131.508145 
L 143.621477 155.302141 
L 190.966932 189.911587 
L 238.312386 220.194837 
L 404.021477 266.70126 
" clip-path="url(#p0f6c70dffe)" style="fill: none; stroke-dasharray: 3.7,1.6; stroke-dashoffset: 0; stroke: #008000"/>
    <defs>
     <path id="m6eccf1edb7" d="M -3 3 
L 3 3 
L 3 -3 
L -3 -3 
z
" style="stroke: #000000; stroke-linejoin: miter"/>
    </defs>
    <g clip-path="url(#p0f6c70dffe)">
     <use xlink:href="#m6eccf1edb7" x="72.603295" y="302.392275" style="fill: #008000; stroke: #000000; stroke-linejoin: miter"/>
     <use xlink:href="#m6eccf1edb7" x="74.576023" y="281.842905" style="fill: #008000; stroke: #000000; stroke-linejoin: miter"/>
     <use xlink:href="#m6eccf1edb7" x="76.54875" y="258.048909" style="fill: #008000; stroke: #000000; stroke-linejoin: miter"/>
     <use xlink:href="#m6eccf1edb7" x="80.494205" y="220.194837" style="fill: #008000; stroke: #000000; stroke-linejoin: miter"/>
     <use xlink:href="#m6eccf1edb7" x="84.439659" y="188.830059" style="fill: #008000; stroke: #000000; stroke-linejoin: miter"/>
     <use xlink:href="#m6eccf1edb7" x="96.276023" y="159.628337" style="fill: #008000; stroke: #000000; stroke-linejoin: miter"/>
     <use xlink:href="#m6eccf1edb7" x="108.112386" y="150.975986" style="fill: #008000; stroke: #000000; stroke-linejoin: miter"/>
     <use xlink:href="#m6eccf1edb7" x="119.94875" y="131.508145" style="fill: #008000; stroke: #000000; stroke-linejoin: miter"/>
     <use xlink:href="#m6eccf1edb7" x="143.621477" y="155.302141" style="fill: #008000; stroke: #000000; stroke-linejoin: miter"/>
     <use xlink:href="#m6eccf1edb7" x="190.966932" y="189.911587" style="fill: #008000; stroke: #000000; stroke-linejoin: miter"/>
     <use xlink:href="#m6eccf1edb7" x="238.312386" y="220.194837" style="fill: #008000; stroke: #000000; stroke-linejoin: miter"/>
     <use xlink:href="#m6eccf1edb7" x="404.021477" y="266.70126" style="fill: #008000; stroke: #000000; stroke-linejoin: miter"/>
    </g>
   </g>
   <g id="patch_3">
    <path d="M 54.84875 320.4 
L 54.84875 43.2 
" style="fill: none; stroke: #000000; stroke-width: 0.8; stroke-linejoin: miter; stroke-linecap: square"/>
   </g>
   <g id="patch_4">
    <path d="M 445.44875 320.4 
L 445.44875 43.2 
" style="fill: none; stroke: #000000; stroke-width: 0.8; stroke-linejoin: miter; stroke-linecap: square"/>
   </g>
   <g id="patch_5">
    <path d="M 54.84875 320.4 
L 445.44875 320.4 
" style="fill: none; stroke: #000000; stroke-width: 0.8; stroke-linejoin: miter; stroke-linecap: square"/>
   </g>
   <g id="patch_6">
    <path d="M 54.84875 43.2 
L 445.44875 43.2 
" style="fill: none; stroke: #000000; stroke-width: 0.8; stroke-linejoin: miter; stroke-linecap: square"/>
   </g>
   <g id="legend_1">
    <g id="patch_7">
     <path d="M 292.587813 109.9125 
L 438.44875 109.9125 
Q 440.44875 109.9125 440.44875 107.9125 
L 440.44875 50.2 
Q 440.44875 48.2 438.44875 48.2 
L 292.587813 48.2 
Q 290.587813 48.2 290.587813 50.2 
L 290.587813 107.9125 
Q 290.587813 109.9125 292.587813 109.9125 
z
" style="fill: #ffffff; opacity: 0.8; stroke: #cccccc; stroke-linejoin: miter"/>
    </g>
    <g id="line2d_15">
     <path d="M 294.587813 56.298437 
L 314.587813 56.298437 
" style="fill: none; stroke: #ff0000; stroke-width: 2; stroke-linecap: square"/>
    </g>
    <g id="line2d_16"/>
    <g id="text_13">
     <!-- DUL075IM -->
     <g transform="translate(322.587813 59.798437) scale(0.1 -0.1)">
      <defs>
       <path id="DejaVuSans-44" d="M 1259 4147 
L 1259 519 
L 2022 519 
Q 2988 519 3436 956 
Q 3884 1394 3884 2338 
Q 3884 3275 3436 3711 
Q 2988 4147 2022 4147 
L 1259 4147 
z
M 628 4666 
L 1925 4666 
Q 3281 4666 3915 4102 
Q 4550 3538 4550 2338 
Q 4550 1131 3912 565 
Q 3275 0 1925 0 
L 628 0 
L 628 4666 
z
" transform="scale(0.015625)"/>
       <path id="DejaVuSans-55" d="M 556 4666 
L 1191 4666 
L 1191 1831 
Q 1191 1081 1462 751 
Q 1734 422 2344 422 
Q 2950 422 3222 751 
Q 3494 1081 3494 1831 
L 3494 4666 
L 4128 4666 
L 4128 1753 
Q 4128 841 3676 375 
Q 3225 -91 2344 -91 
Q 1459 -91 1007 375 
Q 556 841 556 1753 
L 556 4666 
z
" transform="scale(0.015625)"/>
       <path id="DejaVuSans-4c" d="M 628 4666 
L 1259 4666 
L 1259 531 
L 3531 531 
L 3531 0 
L 628 0 
L 628 4666 
z
" transform="scale(0.015625)"/>
       <path id="DejaVuSans-37" d="M 525 4666 
L 3525 4666 
L 3525 4397 
L 1831 0 
L 1172 0 
L 2766 4134 
L 525 4134 
L 525 4666 
z
" transform="scale(0.015625)"/>
       <path id="DejaVuSans-49" d="M 628 4666 
L 1259 4666 
L 1259 0 
L 628 0 
L 628 4666 
z
" transform="scale(0.015625)"/>
       <path id="DejaVuSans-4d" d="M 628 4666 
L 1569 4666 
L 2759 1491 
L 3956 4666 
L 4897 4666 
L 4897 0 
L 4281 0 
L 4281 4097 
L 3078 897 
L 2444 897 
L 1241 4097 
L 1241 0 
L 628 0 
L 628 4666 
z
" transform="scale(0.015625)"/>
      </defs>
      <use xlink:href="#DejaVuSans-44"/>
      <use xlink:href="#DejaVuSans-55" transform="translate(77.001953 0)"/>
      <use xlink:href="#DejaVuSans-4c" transform="translate(150.195312 0)"/>
      <use xlink:href="#DejaVuSans-30" transform="translate(205.908203 0)"/>
      <use xlink:href="#DejaVuSans-37" transform="translate(269.53125 0)"/>
      <use xlink:href="#DejaVuSans-35" transform="translate(333.154297 0)"/>
      <use xlink:href="#DejaVuSans-49" transform="translate(396.777344 0)"/>
      <use xlink:href="#DejaVuSans-4d" transform="translate(426.269531 0)"/>
     </g>
    </g>
    <g id="LineCollection_3">
     <path d="M 304.587813 75.976562 
L 304.587813 65.976562 
" style="fill: none; stroke: #ff0000"/>
    </g>
    <g id="line2d_17">
     <path d="M 294.587813 70.976562 
L 314.587813 70.976562 
" style="fill: none; stroke-dasharray: 3.7,1.6; stroke-dashoffset: 0; stroke: #ff0000"/>
    </g>
    <g id="line2d_18">
     <g>
      <use xlink:href="#mdc018a2d63" x="304.587813" y="70.976562" style="fill: #ff0000; stroke: #000000; stroke-linejoin: miter"/>
     </g>
    </g>
    <g id="text_14">
     <!-- DUL075IM±SD (n=16) -->
     <g transform="translate(322.587813 74.476562) scale(0.1 -0.1)">
      <defs>
       <path id="DejaVuSans-b1" d="M 2944 4013 
L 2944 2803 
L 4684 2803 
L 4684 2272 
L 2944 2272 
L 2944 1063 
L 2419 1063 
L 2419 2272 
L 678 2272 
L 678 2803 
L 2419 2803 
L 2419 4013 
L 2944 4013 
z
M 678 531 
L 4684 531 
L 4684 0 
L 678 0 
L 678 531 
z
" transform="scale(0.015625)"/>
       <path id="DejaVuSans-53" d="M 3425 4513 
L 3425 3897 
Q 3066 4069 2747 4153 
Q 2428 4238 2131 4238 
Q 1616 4238 1336 4038 
Q 1056 3838 1056 3469 
Q 1056 3159 1242 3001 
Q 1428 2844 1947 2747 
L 2328 2669 
Q 3034 2534 3370 2195 
Q 3706 1856 3706 1288 
Q 3706 609 3251 259 
Q 2797 -91 1919 -91 
Q 1588 -91 1214 -16 
Q 841 59 441 206 
L 441 856 
Q 825 641 1194 531 
Q 1563 422 1919 422 
Q 2459 422 2753 634 
Q 3047 847 3047 1241 
Q 3047 1584 2836 1778 
Q 2625 1972 2144 2069 
L 1759 2144 
Q 1053 2284 737 2584 
Q 422 2884 422 3419 
Q 422 4038 858 4394 
Q 1294 4750 2059 4750 
Q 2388 4750 2728 4690 
Q 3069 4631 3425 4513 
z
" transform="scale(0.015625)"/>
       <path id="DejaVuSans-20" transform="scale(0.015625)"/>
       <path id="DejaVuSans-28" d="M 1984 4856 
Q 1566 4138 1362 3434 
Q 1159 2731 1159 2009 
Q 1159 1288 1364 580 
Q 1569 -128 1984 -844 
L 1484 -844 
Q 1016 -109 783 600 
Q 550 1309 550 2009 
Q 550 2706 781 3412 
Q 1013 4119 1484 4856 
L 1984 4856 
z
" transform="scale(0.015625)"/>
       <path id="DejaVuSans-6e" d="M 3513 2113 
L 3513 0 
L 2938 0 
L 2938 2094 
Q 2938 2591 2744 2837 
Q 2550 3084 2163 3084 
Q 1697 3084 1428 2787 
Q 1159 2491 1159 1978 
L 1159 0 
L 581 0 
L 581 3500 
L 1159 3500 
L 1159 2956 
Q 1366 3272 1645 3428 
Q 1925 3584 2291 3584 
Q 2894 3584 3203 3211 
Q 3513 2838 3513 2113 
z
" transform="scale(0.015625)"/>
       <path id="DejaVuSans-3d" d="M 678 2906 
L 4684 2906 
L 4684 2381 
L 678 2381 
L 678 2906 
z
M 678 1631 
L 4684 1631 
L 4684 1100 
L 678 1100 
L 678 1631 
z
" transform="scale(0.015625)"/>
       <path id="DejaVuSans-36" d="M 2113 2584 
Q 1688 2584 1439 2293 
Q 1191 2003 1191 1497 
Q 1191 994 1439 701 
Q 1688 409 2113 409 
Q 2538 409 2786 701 
Q 3034 994 3034 1497 
Q 3034 2003 2786 2293 
Q 2538 2584 2113 2584 
z
M 3366 4563 
L 3366 3988 
Q 3128 4100 2886 4159 
Q 2644 4219 2406 4219 
Q 1781 4219 1451 3797 
Q 1122 3375 1075 2522 
Q 1259 2794 1537 2939 
Q 1816 3084 2150 3084 
Q 2853 3084 3261 2657 
Q 3669 2231 3669 1497 
Q 3669 778 3244 343 
Q 2819 -91 2113 -91 
Q 1303 -91 875 529 
Q 447 1150 447 2328 
Q 447 3434 972 4092 
Q 1497 4750 2381 4750 
Q 2619 4750 2861 4703 
Q 3103 4656 3366 4563 
z
" transform="scale(0.015625)"/>
       <path id="DejaVuSans-29" d="M 513 4856 
L 1013 4856 
Q 1481 4119 1714 3412 
Q 1947 2706 1947 2009 
Q 1947 1309 1714 600 
Q 1481 -109 1013 -844 
L 513 -844 
Q 928 -128 1133 580 
Q 1338 1288 1338 2009 
Q 1338 2731 1133 3434 
Q 928 4138 513 4856 
z
" transform="scale(0.015625)"/>
      </defs>
      <use xlink:href="#DejaVuSans-44"/>
      <use xlink:href="#DejaVuSans-55" transform="translate(77.001953 0)"/>
      <use xlink:href="#DejaVuSans-4c" transform="translate(150.195312 0)"/>
      <use xlink:href="#DejaVuSans-30" transform="translate(205.908203 0)"/>
      <use xlink:href="#DejaVuSans-37" transform="translate(269.53125 0)"/>
      <use xlink:href="#DejaVuSans-35" transform="translate(333.154297 0)"/>
      <use xlink:href="#DejaVuSans-49" transform="translate(396.777344 0)"/>
      <use xlink:href="#DejaVuSans-4d" transform="translate(426.269531 0)"/>
      <use xlink:href="#DejaVuSans-b1" transform="translate(512.548828 0)"/>
      <use xlink:href="#DejaVuSans-53" transform="translate(596.337891 0)"/>
      <use xlink:href="#DejaVuSans-44" transform="translate(659.814453 0)"/>
      <use xlink:href="#DejaVuSans-20" transform="translate(736.816406 0)"/>
      <use xlink:href="#DejaVuSans-28" transform="translate(768.603516 0)"/>
      <use xlink:href="#DejaVuSans-6e" transform="translate(807.617188 0)"/>
      <use xlink:href="#DejaVuSans-3d" transform="translate(870.996094 0)"/>
      <use xlink:href="#DejaVuSans-31" transform="translate(954.785156 0)"/>
      <use xlink:href="#DejaVuSans-36" transform="translate(1018.408203 0)"/>
      <use xlink:href="#DejaVuSans-29" transform="translate(1082.03125 0)"/>
     </g>
    </g>
    <g id="line2d_19">
     <path d="M 294.587813 85.654687 
L 314.587813 85.654687 
" style="fill: none; stroke: #008000; stroke-width: 2; stroke-linecap: square"/>
    </g>
    <g id="line2d_20"/>
    <g id="text_15">
     <!-- DUL075SC -->
     <g transform="translate(322.587813 89.154687) scale(0.1 -0.1)">
      <defs>
       <path id="DejaVuSans-43" d="M 4122 4306 
L 4122 3641 
Q 3803 3938 3442 4084 
Q 3081 4231 2675 4231 
Q 1875 4231 1450 3742 
Q 1025 3253 1025 2328 
Q 1025 1406 1450 917 
Q 1875 428 2675 428 
Q 3081 428 3442 575 
Q 3803 722 4122 1019 
L 4122 359 
Q 3791 134 3420 21 
Q 3050 -91 2638 -91 
Q 1578 -91 968 557 
Q 359 1206 359 2328 
Q 359 3453 968 4101 
Q 1578 4750 2638 4750 
Q 3056 4750 3426 4639 
Q 3797 4528 4122 4306 
z
" transform="scale(0.015625)"/>
      </defs>
      <use xlink:href="#DejaVuSans-44"/>
      <use xlink:href="#DejaVuSans-55" transform="translate(77.001953 0)"/>
      <use xlink:href="#DejaVuSans-4c" transform="translate(150.195312 0)"/>
      <use xlink:href="#DejaVuSans-30" transform="translate(205.908203 0)"/>
      <use xlink:href="#DejaVuSans-37" transform="translate(269.53125 0)"/>
      <use xlink:href="#DejaVuSans-35" transform="translate(333.154297 0)"/>
      <use xlink:href="#DejaVuSans-53" transform="translate(396.777344 0)"/>
      <use xlink:href="#DejaVuSans-43" transform="translate(460.253906 0)"/>
     </g>
    </g>
    <g id="LineCollection_4">
     <path d="M 304.587813 105.332812 
L 304.587813 95.332812 
" style="fill: none; stroke: #008000"/>
    </g>
    <g id="line2d_21">
     <path d="M 294.587813 100.332812 
L 314.587813 100.332812 
" style="fill: none; stroke-dasharray: 3.7,1.6; stroke-dashoffset: 0; stroke: #008000"/>
    </g>
    <g id="line2d_22">
     <g>
      <use xlink:href="#m6eccf1edb7" x="304.587813" y="100.332812" style="fill: #008000; stroke: #000000; stroke-linejoin: miter"/>
     </g>
    </g>
    <g id="text_16">
     <!-- DUL075SC±SD (n=16) -->
     <g transform="translate(322.587813 103.832812) scale(0.1 -0.1)">
      <use xlink:href="#DejaVuSans-44"/>
      <use xlink:href="#DejaVuSans-55" transform="translate(77.001953 0)"/>
      <use xlink:href="#DejaVuSans-4c" transform="translate(150.195312 0)"/>
      <use xlink:href="#DejaVuSans-30" transform="translate(205.908203 0)"/>
      <use xlink:href="#DejaVuSans-37" transform="translate(269.53125 0)"/>
      <use xlink:href="#DejaVuSans-35" transform="translate(333.154297 0)"/>
      <use xlink:href="#DejaVuSans-53" transform="translate(396.777344 0)"/>
      <use xlink:href="#DejaVuSans-43" transform="translate(460.253906 0)"/>
      <use xlink:href="#DejaVuSans-b1" transform="translate(530.078125 0)"/>
      <use xlink:href="#DejaVuSans-53" transform="translate(613.867188 0)"/>
      <use xlink:href="#DejaVuSans-44" transform="translate(677.34375 0)"/>
      <use xlink:href="#DejaVuSans-20" transform="translate(754.345703 0)"/>
      <use xlink:href="#DejaVuSans-28" transform="translate(786.132812 0)"/>
      <use xlink:href="#DejaVuSans-6e" transform="translate(825.146484 0)"/>
      <use xlink:href="#DejaVuSans-3d" transform="translate(888.525391 0)"/>
      <use xlink:href="#DejaVuSans-31" transform="translate(972.314453 0)"/>
      <use xlink:href="#DejaVuSans-36" transform="translate(1035.9375 0)"/>
      <use xlink:href="#DejaVuSans-29" transform="translate(1099.560547 0)"/>
     </g>
    </g>
   </g>
  </g>
  <g id="text_17">
   <!-- FDAGBDR -->
   <g transform="translate(175.469844 26.196094) scale(0.25 -0.25)">
    <defs>
     <path id="DejaVuSans-Bold-46" d="M 588 4666 
L 3834 4666 
L 3834 3756 
L 1791 3756 
L 1791 2888 
L 3713 2888 
L 3713 1978 
L 1791 1978 
L 1791 0 
L 588 0 
L 588 4666 
z
" transform="scale(0.015625)"/>
     <path id="DejaVuSans-Bold-44" d="M 1791 3756 
L 1791 909 
L 2222 909 
Q 2959 909 3348 1275 
Q 3738 1641 3738 2338 
Q 3738 3031 3350 3393 
Q 2963 3756 2222 3756 
L 1791 3756 
z
M 588 4666 
L 1856 4666 
Q 2919 4666 3439 4514 
Q 3959 4363 4331 4000 
Q 4659 3684 4818 3271 
Q 4978 2859 4978 2338 
Q 4978 1809 4818 1395 
Q 4659 981 4331 666 
Q 3956 303 3431 151 
Q 2906 0 1856 0 
L 588 0 
L 588 4666 
z
" transform="scale(0.015625)"/>
     <path id="DejaVuSans-Bold-41" d="M 3419 850 
L 1538 850 
L 1241 0 
L 31 0 
L 1759 4666 
L 3194 4666 
L 4922 0 
L 3713 0 
L 3419 850 
z
M 1838 1716 
L 3116 1716 
L 2478 3572 
L 1838 1716 
z
" transform="scale(0.015625)"/>
     <path id="DejaVuSans-Bold-47" d="M 4781 347 
Q 4331 128 3847 18 
Q 3363 -91 2847 -91 
Q 1681 -91 1000 561 
Q 319 1213 319 2328 
Q 319 3456 1012 4103 
Q 1706 4750 2913 4750 
Q 3378 4750 3804 4662 
Q 4231 4575 4609 4403 
L 4609 3438 
Q 4219 3659 3833 3768 
Q 3447 3878 3059 3878 
Q 2341 3878 1952 3476 
Q 1563 3075 1563 2328 
Q 1563 1588 1938 1184 
Q 2313 781 3003 781 
Q 3191 781 3352 804 
Q 3513 828 3641 878 
L 3641 1784 
L 2906 1784 
L 2906 2591 
L 4781 2591 
L 4781 347 
z
" transform="scale(0.015625)"/>
     <path id="DejaVuSans-Bold-42" d="M 2456 2859 
Q 2741 2859 2887 2984 
Q 3034 3109 3034 3353 
Q 3034 3594 2887 3720 
Q 2741 3847 2456 3847 
L 1791 3847 
L 1791 2859 
L 2456 2859 
z
M 2497 819 
Q 2859 819 3042 972 
Q 3225 1125 3225 1434 
Q 3225 1738 3044 1889 
Q 2863 2041 2497 2041 
L 1791 2041 
L 1791 819 
L 2497 819 
z
M 3616 2497 
Q 4003 2384 4215 2081 
Q 4428 1778 4428 1338 
Q 4428 663 3972 331 
Q 3516 0 2584 0 
L 588 0 
L 588 4666 
L 2394 4666 
Q 3366 4666 3802 4372 
Q 4238 4078 4238 3431 
Q 4238 3091 4078 2852 
Q 3919 2613 3616 2497 
z
" transform="scale(0.015625)"/>
     <path id="DejaVuSans-Bold-52" d="M 2297 2597 
Q 2675 2597 2839 2737 
Q 3003 2878 3003 3200 
Q 3003 3519 2839 3656 
Q 2675 3794 2297 3794 
L 1791 3794 
L 1791 2597 
L 2297 2597 
z
M 1791 1766 
L 1791 0 
L 588 0 
L 588 4666 
L 2425 4666 
Q 3347 4666 3776 4356 
Q 4206 4047 4206 3378 
Q 4206 2916 3982 2619 
Q 3759 2322 3309 2181 
Q 3556 2125 3751 1926 
Q 3947 1728 4147 1325 
L 4800 0 
L 3519 0 
L 2950 1159 
Q 2778 1509 2601 1637 
Q 2425 1766 2131 1766 
L 1791 1766 
z
" transform="scale(0.015625)"/>
    </defs>
    <use xlink:href="#DejaVuSans-Bold-46"/>
    <use xlink:href="#DejaVuSans-Bold-44" transform="translate(68.310547 0)"/>
    <use xlink:href="#DejaVuSans-Bold-41" transform="translate(151.318359 0)"/>
    <use xlink:href="#DejaVuSans-Bold-47" transform="translate(228.710938 0)"/>
    <use xlink:href="#DejaVuSans-Bold-42" transform="translate(310.791016 0)"/>
    <use xlink:href="#DejaVuSans-Bold-44" transform="translate(387.011719 0)"/>
    <use xlink:href="#DejaVuSans-Bold-52" transform="translate(470.019531 0)"/>
   </g>
  </g>
 </g>
 <defs>
  <clipPath id="p0f6c70dffe">
   <rect x="54.84875" y="43.2" width="390.6" height="277.2"/>
  </clipPath>
 </defs>
</svg>
