<?xml version="1.0" encoding="utf-8" standalone="no"?>
<!DOCTYPE svg PUBLIC "-//W3C//DTD SVG 1.1//EN"
  "http://www.w3.org/Graphics/SVG/1.1/DTD/svg11.dtd">
<svg xmlns:xlink="http://www.w3.org/1999/xlink" width="462.1925pt" height="370.537812pt" viewBox="0 0 462.1925 370.537812" xmlns="http://www.w3.org/2000/svg" version="1.1">
 <metadata>
  <rdf:RDF xmlns:dc="http://purl.org/dc/elements/1.1/" xmlns:cc="http://creativecommons.org/ns#" xmlns:rdf="http://www.w3.org/1999/02/22-rdf-syntax-ns#">
   <cc:Work>
    <dc:type rdf:resource="http://purl.org/dc/dcmitype/StillImage"/>
    <dc:date>2026-01-30T14:56:52.676172</dc:date>
    <dc:format>image/svg+xml</dc:format>
    <dc:creator>
     <cc:Agent>
      <dc:title>Matplotlib v3.10.7, https://matplotlib.org/</dc:title>
     </cc:Agent>
    </dc:creator>
   </cc:Work>
  </rdf:RDF>
 </metadata>
 <defs>
  <style type="text/css">*{stroke-linejoin: round; stroke-linecap: butt}</style>
 </defs>
 <g id="figure_1">
  <g id="patch_1">
   <path d="M 0 370.537812 
L 462.1925 370.537812 
L 462.1925 0 
L 0 0 
z
" style="fill: #ffffff"/>
  </g>
  <g id="axes_1">
   <g id="patch_2">
    <path d="M 64.3925 320.4 
L 454.9925 320.4 
L 454.9925 43.2 
L 64.3925 43.2 
z
" style="fill: #ffffff"/>
   </g>
   <g id="matplotlib.axis_1">
    <g id="xtick_1">
     <g id="line2d_1">
      <defs>
       <path id="m1f489b853a" d="M 0 0 
L 0 3.5 
" style="stroke: #000000; stroke-width: 0.8"/>
      </defs>
      <g>
       <use xlink:href="#m1f489b853a" x="82.147045" y="320.4" style="stroke: #000000; stroke-width: 0.8"/>
      </g>
     </g>
     <g id="text_1">
      <!-- 0 -->
      <g transform="translate(77.37517 338.797656) scale(0.15 -0.15)">
       <defs>
        <path id="DejaVuSans-30" d="M 2034 4250 
Q 1547 4250 1301 3770 
Q 1056 3291 1056 2328 
Q 1056 1369 1301 889 
Q 1547 409 2034 409 
Q 2525 409 2770 889 
Q 3016 1369 3016 2328 
Q 3016 3291 2770 3770 
Q 2525 4250 2034 4250 
z
M 2034 4750 
Q 2819 4750 3233 4129 
Q 3647 3509 3647 2328 
Q 3647 1150 3233 529 
Q 2819 -91 2034 -91 
Q 1250 -91 836 529 
Q 422 1150 422 2328 
Q 422 3509 836 4129 
Q 1250 4750 2034 4750 
z
" transform="scale(0.015625)"/>
       </defs>
       <use xlink:href="#DejaVuSans-30"/>
      </g>
     </g>
    </g>
    <g id="xtick_2">
     <g id="line2d_2">
      <g>
       <use xlink:href="#m1f489b853a" x="137.795621" y="320.4" style="stroke: #000000; stroke-width: 0.8"/>
      </g>
     </g>
     <g id="text_2">
      <!-- 1 -->
      <g transform="translate(133.023746 338.797656) scale(0.15 -0.15)">
       <defs>
        <path id="DejaVuSans-31" d="M 794 531 
L 1825 531 
L 1825 4091 
L 703 3866 
L 703 4441 
L 1819 4666 
L 2450 4666 
L 2450 531 
L 3481 531 
L 3481 0 
L 794 0 
L 794 531 
z
" transform="scale(0.015625)"/>
       </defs>
       <use xlink:href="#DejaVuSans-31"/>
      </g>
     </g>
    </g>
    <g id="xtick_3">
     <g id="line2d_3">
      <g>
       <use xlink:href="#m1f489b853a" x="193.444196" y="320.4" style="stroke: #000000; stroke-width: 0.8"/>
      </g>
     </g>
     <g id="text_3">
      <!-- 2 -->
      <g transform="translate(188.672321 338.797656) scale(0.15 -0.15)">
       <defs>
        <path id="DejaVuSans-32" d="M 1228 531 
L 3431 531 
L 3431 0 
L 469 0 
L 469 531 
Q 828 903 1448 1529 
Q 2069 2156 2228 2338 
Q 2531 2678 2651 2914 
Q 2772 3150 2772 3378 
Q 2772 3750 2511 3984 
Q 2250 4219 1831 4219 
Q 1534 4219 1204 4116 
Q 875 4013 500 3803 
L 500 4441 
Q 881 4594 1212 4672 
Q 1544 4750 1819 4750 
Q 2544 4750 2975 4387 
Q 3406 4025 3406 3419 
Q 3406 3131 3298 2873 
Q 3191 2616 2906 2266 
Q 2828 2175 2409 1742 
Q 1991 1309 1228 531 
z
" transform="scale(0.015625)"/>
       </defs>
       <use xlink:href="#DejaVuSans-32"/>
      </g>
     </g>
    </g>
    <g id="xtick_4">
     <g id="line2d_4">
      <g>
       <use xlink:href="#m1f489b853a" x="249.092771" y="320.4" style="stroke: #000000; stroke-width: 0.8"/>
      </g>
     </g>
     <g id="text_4">
      <!-- 3 -->
      <g transform="translate(244.320896 338.797656) scale(0.15 -0.15)">
       <defs>
        <path id="DejaVuSans-33" d="M 2597 2516 
Q 3050 2419 3304 2112 
Q 3559 1806 3559 1356 
Q 3559 666 3084 287 
Q 2609 -91 1734 -91 
Q 1441 -91 1130 -33 
Q 819 25 488 141 
L 488 750 
Q 750 597 1062 519 
Q 1375 441 1716 441 
Q 2309 441 2620 675 
Q 2931 909 2931 1356 
Q 2931 1769 2642 2001 
Q 2353 2234 1838 2234 
L 1294 2234 
L 1294 2753 
L 1863 2753 
Q 2328 2753 2575 2939 
Q 2822 3125 2822 3475 
Q 2822 3834 2567 4026 
Q 2313 4219 1838 4219 
Q 1578 4219 1281 4162 
Q 984 4106 628 3988 
L 628 4550 
Q 988 4650 1302 4700 
Q 1616 4750 1894 4750 
Q 2613 4750 3031 4423 
Q 3450 4097 3450 3541 
Q 3450 3153 3228 2886 
Q 3006 2619 2597 2516 
z
" transform="scale(0.015625)"/>
       </defs>
       <use xlink:href="#DejaVuSans-33"/>
      </g>
     </g>
    </g>
    <g id="xtick_5">
     <g id="line2d_5">
      <g>
       <use xlink:href="#m1f489b853a" x="304.741347" y="320.4" style="stroke: #000000; stroke-width: 0.8"/>
      </g>
     </g>
     <g id="text_5">
      <!-- 4 -->
      <g transform="translate(299.969472 338.797656) scale(0.15 -0.15)">
       <defs>
        <path id="DejaVuSans-34" d="M 2419 4116 
L 825 1625 
L 2419 1625 
L 2419 4116 
z
M 2253 4666 
L 3047 4666 
L 3047 1625 
L 3713 1625 
L 3713 1100 
L 3047 1100 
L 3047 0 
L 2419 0 
L 2419 1100 
L 313 1100 
L 313 1709 
L 2253 4666 
z
" transform="scale(0.015625)"/>
       </defs>
       <use xlink:href="#DejaVuSans-34"/>
      </g>
     </g>
    </g>
    <g id="xtick_6">
     <g id="line2d_6">
      <g>
       <use xlink:href="#m1f489b853a" x="360.389922" y="320.4" style="stroke: #000000; stroke-width: 0.8"/>
      </g>
     </g>
     <g id="text_6">
      <!-- 5 -->
      <g transform="translate(355.618047 338.797656) scale(0.15 -0.15)">
       <defs>
        <path id="DejaVuSans-35" d="M 691 4666 
L 3169 4666 
L 3169 4134 
L 1269 4134 
L 1269 2991 
Q 1406 3038 1543 3061 
Q 1681 3084 1819 3084 
Q 2600 3084 3056 2656 
Q 3513 2228 3513 1497 
Q 3513 744 3044 326 
Q 2575 -91 1722 -91 
Q 1428 -91 1123 -41 
Q 819 9 494 109 
L 494 744 
Q 775 591 1075 516 
Q 1375 441 1709 441 
Q 2250 441 2565 725 
Q 2881 1009 2881 1497 
Q 2881 1984 2565 2268 
Q 2250 2553 1709 2553 
Q 1456 2553 1204 2497 
Q 953 2441 691 2322 
L 691 4666 
z
" transform="scale(0.015625)"/>
       </defs>
       <use xlink:href="#DejaVuSans-35"/>
      </g>
     </g>
    </g>
    <g id="xtick_7">
     <g id="line2d_7">
      <g>
       <use xlink:href="#m1f489b853a" x="416.038497" y="320.4" style="stroke: #000000; stroke-width: 0.8"/>
      </g>
     </g>
     <g id="text_7">
      <!-- 6 -->
      <g transform="translate(411.266622 338.797656) scale(0.15 -0.15)">
       <defs>
        <path id="DejaVuSans-36" d="M 2113 2584 
Q 1688 2584 1439 2293 
Q 1191 2003 1191 1497 
Q 1191 994 1439 701 
Q 1688 409 2113 409 
Q 2538 409 2786 701 
Q 3034 994 3034 1497 
Q 3034 2003 2786 2293 
Q 2538 2584 2113 2584 
z
M 3366 4563 
L 3366 3988 
Q 3128 4100 2886 4159 
Q 2644 4219 2406 4219 
Q 1781 4219 1451 3797 
Q 1122 3375 1075 2522 
Q 1259 2794 1537 2939 
Q 1816 3084 2150 3084 
Q 2853 3084 3261 2657 
Q 3669 2231 3669 1497 
Q 3669 778 3244 343 
Q 2819 -91 2113 -91 
Q 1303 -91 875 529 
Q 447 1150 447 2328 
Q 447 3434 972 4092 
Q 1497 4750 2381 4750 
Q 2619 4750 2861 4703 
Q 3103 4656 3366 4563 
z
" transform="scale(0.015625)"/>
       </defs>
       <use xlink:href="#DejaVuSans-36"/>
      </g>
     </g>
    </g>
    <g id="text_8">
     <!-- time [week] -->
     <g transform="translate(198.95375 359.594375) scale(0.18 -0.18)">
      <defs>
       <path id="DejaVuSans-Bold-74" d="M 1759 4494 
L 1759 3500 
L 2913 3500 
L 2913 2700 
L 1759 2700 
L 1759 1216 
Q 1759 972 1856 886 
Q 1953 800 2241 800 
L 2816 800 
L 2816 0 
L 1856 0 
Q 1194 0 917 276 
Q 641 553 641 1216 
L 641 2700 
L 84 2700 
L 84 3500 
L 641 3500 
L 641 4494 
L 1759 4494 
z
" transform="scale(0.015625)"/>
       <path id="DejaVuSans-Bold-69" d="M 538 3500 
L 1656 3500 
L 1656 0 
L 538 0 
L 538 3500 
z
M 538 4863 
L 1656 4863 
L 1656 3950 
L 538 3950 
L 538 4863 
z
" transform="scale(0.015625)"/>
       <path id="DejaVuSans-Bold-6d" d="M 3781 2919 
Q 3994 3244 4286 3414 
Q 4578 3584 4928 3584 
Q 5531 3584 5847 3212 
Q 6163 2841 6163 2131 
L 6163 0 
L 5038 0 
L 5038 1825 
Q 5041 1866 5042 1909 
Q 5044 1953 5044 2034 
Q 5044 2406 4934 2573 
Q 4825 2741 4581 2741 
Q 4263 2741 4089 2478 
Q 3916 2216 3909 1719 
L 3909 0 
L 2784 0 
L 2784 1825 
Q 2784 2406 2684 2573 
Q 2584 2741 2328 2741 
Q 2006 2741 1831 2477 
Q 1656 2213 1656 1722 
L 1656 0 
L 531 0 
L 531 3500 
L 1656 3500 
L 1656 2988 
Q 1863 3284 2130 3434 
Q 2397 3584 2719 3584 
Q 3081 3584 3359 3409 
Q 3638 3234 3781 2919 
z
" transform="scale(0.015625)"/>
       <path id="DejaVuSans-Bold-65" d="M 4031 1759 
L 4031 1441 
L 1416 1441 
Q 1456 1047 1700 850 
Q 1944 653 2381 653 
Q 2734 653 3104 758 
Q 3475 863 3866 1075 
L 3866 213 
Q 3469 63 3072 -14 
Q 2675 -91 2278 -91 
Q 1328 -91 801 392 
Q 275 875 275 1747 
Q 275 2603 792 3093 
Q 1309 3584 2216 3584 
Q 3041 3584 3536 3087 
Q 4031 2591 4031 1759 
z
M 2881 2131 
Q 2881 2450 2695 2645 
Q 2509 2841 2209 2841 
Q 1884 2841 1681 2658 
Q 1478 2475 1428 2131 
L 2881 2131 
z
" transform="scale(0.015625)"/>
       <path id="DejaVuSans-Bold-20" transform="scale(0.015625)"/>
       <path id="DejaVuSans-Bold-5b" d="M 550 4863 
L 2491 4863 
L 2491 4159 
L 1613 4159 
L 1613 -141 
L 2491 -141 
L 2491 -844 
L 550 -844 
L 550 4863 
z
" transform="scale(0.015625)"/>
       <path id="DejaVuSans-Bold-77" d="M 225 3500 
L 1313 3500 
L 1900 1088 
L 2491 3500 
L 3425 3500 
L 4013 1113 
L 4603 3500 
L 5691 3500 
L 4769 0 
L 3547 0 
L 2956 2406 
L 2369 0 
L 1147 0 
L 225 3500 
z
" transform="scale(0.015625)"/>
       <path id="DejaVuSans-Bold-6b" d="M 538 4863 
L 1656 4863 
L 1656 2216 
L 2944 3500 
L 4244 3500 
L 2534 1894 
L 4378 0 
L 3022 0 
L 1656 1459 
L 1656 0 
L 538 0 
L 538 4863 
z
" transform="scale(0.015625)"/>
       <path id="DejaVuSans-Bold-5d" d="M 2375 -844 
L 434 -844 
L 434 -141 
L 1313 -141 
L 1313 4159 
L 434 4159 
L 434 4863 
L 2375 4863 
L 2375 -844 
z
" transform="scale(0.015625)"/>
      </defs>
      <use xlink:href="#DejaVuSans-Bold-74"/>
      <use xlink:href="#DejaVuSans-Bold-69" transform="translate(47.802734 0)"/>
      <use xlink:href="#DejaVuSans-Bold-6d" transform="translate(82.080078 0)"/>
      <use xlink:href="#DejaVuSans-Bold-65" transform="translate(186.279297 0)"/>
      <use xlink:href="#DejaVuSans-Bold-20" transform="translate(254.101562 0)"/>
      <use xlink:href="#DejaVuSans-Bold-5b" transform="translate(288.916016 0)"/>
      <use xlink:href="#DejaVuSans-Bold-77" transform="translate(334.619141 0)"/>
      <use xlink:href="#DejaVuSans-Bold-65" transform="translate(427.001953 0)"/>
      <use xlink:href="#DejaVuSans-Bold-65" transform="translate(494.824219 0)"/>
      <use xlink:href="#DejaVuSans-Bold-6b" transform="translate(562.646484 0)"/>
      <use xlink:href="#DejaVuSans-Bold-5d" transform="translate(629.150391 0)"/>
     </g>
    </g>
   </g>
   <g id="matplotlib.axis_2">
    <g id="ytick_1">
     <g id="line2d_8">
      <defs>
       <path id="m5b9a468c47" d="M 0 0 
L -3.5 0 
" style="stroke: #000000; stroke-width: 0.8"/>
      </defs>
      <g>
       <use xlink:href="#m5b9a468c47" x="64.3925" y="307.8" style="stroke: #000000; stroke-width: 0.8"/>
      </g>
     </g>
     <g id="text_9">
      <!-- 0 -->
      <g transform="translate(47.84875 313.498828) scale(0.15 -0.15)">
       <use xlink:href="#DejaVuSans-30"/>
      </g>
     </g>
    </g>
    <g id="ytick_2">
     <g id="line2d_9">
      <g>
       <use xlink:href="#m5b9a468c47" x="64.3925" y="271.201643" style="stroke: #000000; stroke-width: 0.8"/>
      </g>
     </g>
     <g id="text_10">
      <!-- 25 -->
      <g transform="translate(38.305 276.900471) scale(0.15 -0.15)">
       <use xlink:href="#DejaVuSans-32"/>
       <use xlink:href="#DejaVuSans-35" transform="translate(63.623047 0)"/>
      </g>
     </g>
    </g>
    <g id="ytick_3">
     <g id="line2d_10">
      <g>
       <use xlink:href="#m5b9a468c47" x="64.3925" y="234.603286" style="stroke: #000000; stroke-width: 0.8"/>
      </g>
     </g>
     <g id="text_11">
      <!-- 50 -->
      <g transform="translate(38.305 240.302114) scale(0.15 -0.15)">
       <use xlink:href="#DejaVuSans-35"/>
       <use xlink:href="#DejaVuSans-30" transform="translate(63.623047 0)"/>
      </g>
     </g>
    </g>
    <g id="ytick_4">
     <g id="line2d_11">
      <g>
       <use xlink:href="#m5b9a468c47" x="64.3925" y="198.004929" style="stroke: #000000; stroke-width: 0.8"/>
      </g>
     </g>
     <g id="text_12">
      <!-- 75 -->
      <g transform="translate(38.305 203.703757) scale(0.15 -0.15)">
       <defs>
        <path id="DejaVuSans-37" d="M 525 4666 
L 3525 4666 
L 3525 4397 
L 1831 0 
L 1172 0 
L 2766 4134 
L 525 4134 
L 525 4666 
z
" transform="scale(0.015625)"/>
       </defs>
       <use xlink:href="#DejaVuSans-37"/>
       <use xlink:href="#DejaVuSans-35" transform="translate(63.623047 0)"/>
      </g>
     </g>
    </g>
    <g id="ytick_5">
     <g id="line2d_12">
      <g>
       <use xlink:href="#m5b9a468c47" x="64.3925" y="161.406572" style="stroke: #000000; stroke-width: 0.8"/>
      </g>
     </g>
     <g id="text_13">
      <!-- 100 -->
      <g transform="translate(28.76125 167.1054) scale(0.15 -0.15)">
       <use xlink:href="#DejaVuSans-31"/>
       <use xlink:href="#DejaVuSans-30" transform="translate(63.623047 0)"/>
       <use xlink:href="#DejaVuSans-30" transform="translate(127.246094 0)"/>
      </g>
     </g>
    </g>
    <g id="ytick_6">
     <g id="line2d_13">
      <g>
       <use xlink:href="#m5b9a468c47" x="64.3925" y="124.808215" style="stroke: #000000; stroke-width: 0.8"/>
      </g>
     </g>
     <g id="text_14">
      <!-- 125 -->
      <g transform="translate(28.76125 130.507043) scale(0.15 -0.15)">
       <use xlink:href="#DejaVuSans-31"/>
       <use xlink:href="#DejaVuSans-32" transform="translate(63.623047 0)"/>
       <use xlink:href="#DejaVuSans-35" transform="translate(127.246094 0)"/>
      </g>
     </g>
    </g>
    <g id="ytick_7">
     <g id="line2d_14">
      <g>
       <use xlink:href="#m5b9a468c47" x="64.3925" y="88.209858" style="stroke: #000000; stroke-width: 0.8"/>
      </g>
     </g>
     <g id="text_15">
      <!-- 150 -->
      <g transform="translate(28.76125 93.908687) scale(0.15 -0.15)">
       <use xlink:href="#DejaVuSans-31"/>
       <use xlink:href="#DejaVuSans-35" transform="translate(63.623047 0)"/>
       <use xlink:href="#DejaVuSans-30" transform="translate(127.246094 0)"/>
      </g>
     </g>
    </g>
    <g id="ytick_8">
     <g id="line2d_15">
      <g>
       <use xlink:href="#m5b9a468c47" x="64.3925" y="51.611501" style="stroke: #000000; stroke-width: 0.8"/>
      </g>
     </g>
     <g id="text_16">
      <!-- 175 -->
      <g transform="translate(28.76125 57.31033) scale(0.15 -0.15)">
       <use xlink:href="#DejaVuSans-31"/>
       <use xlink:href="#DejaVuSans-37" transform="translate(63.623047 0)"/>
       <use xlink:href="#DejaVuSans-35" transform="translate(127.246094 0)"/>
      </g>
     </g>
    </g>
    <g id="text_17">
     <!-- dulaglutide plasma [nM] -->
     <g transform="translate(20.877187 305.940937) rotate(-90) scale(0.18 -0.18)">
      <defs>
       <path id="DejaVuSans-Bold-64" d="M 2919 2988 
L 2919 4863 
L 4044 4863 
L 4044 0 
L 2919 0 
L 2919 506 
Q 2688 197 2409 53 
Q 2131 -91 1766 -91 
Q 1119 -91 703 423 
Q 288 938 288 1747 
Q 288 2556 703 3070 
Q 1119 3584 1766 3584 
Q 2128 3584 2408 3439 
Q 2688 3294 2919 2988 
z
M 2181 722 
Q 2541 722 2730 984 
Q 2919 1247 2919 1747 
Q 2919 2247 2730 2509 
Q 2541 2772 2181 2772 
Q 1825 2772 1636 2509 
Q 1447 2247 1447 1747 
Q 1447 1247 1636 984 
Q 1825 722 2181 722 
z
" transform="scale(0.015625)"/>
       <path id="DejaVuSans-Bold-75" d="M 500 1363 
L 500 3500 
L 1625 3500 
L 1625 3150 
Q 1625 2866 1622 2436 
Q 1619 2006 1619 1863 
Q 1619 1441 1641 1255 
Q 1663 1069 1716 984 
Q 1784 875 1895 815 
Q 2006 756 2150 756 
Q 2500 756 2700 1025 
Q 2900 1294 2900 1772 
L 2900 3500 
L 4019 3500 
L 4019 0 
L 2900 0 
L 2900 506 
Q 2647 200 2364 54 
Q 2081 -91 1741 -91 
Q 1134 -91 817 281 
Q 500 653 500 1363 
z
" transform="scale(0.015625)"/>
       <path id="DejaVuSans-Bold-6c" d="M 538 4863 
L 1656 4863 
L 1656 0 
L 538 0 
L 538 4863 
z
" transform="scale(0.015625)"/>
       <path id="DejaVuSans-Bold-61" d="M 2106 1575 
Q 1756 1575 1579 1456 
Q 1403 1338 1403 1106 
Q 1403 894 1545 773 
Q 1688 653 1941 653 
Q 2256 653 2472 879 
Q 2688 1106 2688 1447 
L 2688 1575 
L 2106 1575 
z
M 3816 1997 
L 3816 0 
L 2688 0 
L 2688 519 
Q 2463 200 2181 54 
Q 1900 -91 1497 -91 
Q 953 -91 614 226 
Q 275 544 275 1050 
Q 275 1666 698 1953 
Q 1122 2241 2028 2241 
L 2688 2241 
L 2688 2328 
Q 2688 2594 2478 2717 
Q 2269 2841 1825 2841 
Q 1466 2841 1156 2769 
Q 847 2697 581 2553 
L 581 3406 
Q 941 3494 1303 3539 
Q 1666 3584 2028 3584 
Q 2975 3584 3395 3211 
Q 3816 2838 3816 1997 
z
" transform="scale(0.015625)"/>
       <path id="DejaVuSans-Bold-67" d="M 2919 594 
Q 2688 288 2409 144 
Q 2131 0 1766 0 
Q 1125 0 706 504 
Q 288 1009 288 1791 
Q 288 2575 706 3076 
Q 1125 3578 1766 3578 
Q 2131 3578 2409 3434 
Q 2688 3291 2919 2981 
L 2919 3500 
L 4044 3500 
L 4044 353 
Q 4044 -491 3511 -936 
Q 2978 -1381 1966 -1381 
Q 1638 -1381 1331 -1331 
Q 1025 -1281 716 -1178 
L 716 -306 
Q 1009 -475 1290 -558 
Q 1572 -641 1856 -641 
Q 2406 -641 2662 -400 
Q 2919 -159 2919 353 
L 2919 594 
z
M 2181 2772 
Q 1834 2772 1640 2515 
Q 1447 2259 1447 1791 
Q 1447 1309 1634 1061 
Q 1822 813 2181 813 
Q 2531 813 2725 1069 
Q 2919 1325 2919 1791 
Q 2919 2259 2725 2515 
Q 2531 2772 2181 2772 
z
" transform="scale(0.015625)"/>
       <path id="DejaVuSans-Bold-70" d="M 1656 506 
L 1656 -1331 
L 538 -1331 
L 538 3500 
L 1656 3500 
L 1656 2988 
Q 1888 3294 2169 3439 
Q 2450 3584 2816 3584 
Q 3463 3584 3878 3070 
Q 4294 2556 4294 1747 
Q 4294 938 3878 423 
Q 3463 -91 2816 -91 
Q 2450 -91 2169 54 
Q 1888 200 1656 506 
z
M 2400 2772 
Q 2041 2772 1848 2508 
Q 1656 2244 1656 1747 
Q 1656 1250 1848 986 
Q 2041 722 2400 722 
Q 2759 722 2948 984 
Q 3138 1247 3138 1747 
Q 3138 2247 2948 2509 
Q 2759 2772 2400 2772 
z
" transform="scale(0.015625)"/>
       <path id="DejaVuSans-Bold-73" d="M 3272 3391 
L 3272 2541 
Q 2913 2691 2578 2766 
Q 2244 2841 1947 2841 
Q 1628 2841 1473 2761 
Q 1319 2681 1319 2516 
Q 1319 2381 1436 2309 
Q 1553 2238 1856 2203 
L 2053 2175 
Q 2913 2066 3209 1816 
Q 3506 1566 3506 1031 
Q 3506 472 3093 190 
Q 2681 -91 1863 -91 
Q 1516 -91 1145 -36 
Q 775 19 384 128 
L 384 978 
Q 719 816 1070 734 
Q 1422 653 1784 653 
Q 2113 653 2278 743 
Q 2444 834 2444 1013 
Q 2444 1163 2330 1236 
Q 2216 1309 1875 1350 
L 1678 1375 
Q 931 1469 631 1722 
Q 331 1975 331 2491 
Q 331 3047 712 3315 
Q 1094 3584 1881 3584 
Q 2191 3584 2531 3537 
Q 2872 3491 3272 3391 
z
" transform="scale(0.015625)"/>
       <path id="DejaVuSans-Bold-6e" d="M 4056 2131 
L 4056 0 
L 2931 0 
L 2931 347 
L 2931 1631 
Q 2931 2084 2911 2256 
Q 2891 2428 2841 2509 
Q 2775 2619 2662 2680 
Q 2550 2741 2406 2741 
Q 2056 2741 1856 2470 
Q 1656 2200 1656 1722 
L 1656 0 
L 538 0 
L 538 3500 
L 1656 3500 
L 1656 2988 
Q 1909 3294 2193 3439 
Q 2478 3584 2822 3584 
Q 3428 3584 3742 3212 
Q 4056 2841 4056 2131 
z
" transform="scale(0.015625)"/>
       <path id="DejaVuSans-Bold-4d" d="M 588 4666 
L 2119 4666 
L 3181 2169 
L 4250 4666 
L 5778 4666 
L 5778 0 
L 4641 0 
L 4641 3413 
L 3566 897 
L 2803 897 
L 1728 3413 
L 1728 0 
L 588 0 
L 588 4666 
z
" transform="scale(0.015625)"/>
      </defs>
      <use xlink:href="#DejaVuSans-Bold-64"/>
      <use xlink:href="#DejaVuSans-Bold-75" transform="translate(71.582031 0)"/>
      <use xlink:href="#DejaVuSans-Bold-6c" transform="translate(142.773438 0)"/>
      <use xlink:href="#DejaVuSans-Bold-61" transform="translate(177.050781 0)"/>
      <use xlink:href="#DejaVuSans-Bold-67" transform="translate(244.53125 0)"/>
      <use xlink:href="#DejaVuSans-Bold-6c" transform="translate(316.113281 0)"/>
      <use xlink:href="#DejaVuSans-Bold-75" transform="translate(350.390625 0)"/>
      <use xlink:href="#DejaVuSans-Bold-74" transform="translate(421.582031 0)"/>
      <use xlink:href="#DejaVuSans-Bold-69" transform="translate(469.384766 0)"/>
      <use xlink:href="#DejaVuSans-Bold-64" transform="translate(503.662109 0)"/>
      <use xlink:href="#DejaVuSans-Bold-65" transform="translate(575.244141 0)"/>
      <use xlink:href="#DejaVuSans-Bold-20" transform="translate(643.066406 0)"/>
      <use xlink:href="#DejaVuSans-Bold-70" transform="translate(677.880859 0)"/>
      <use xlink:href="#DejaVuSans-Bold-6c" transform="translate(749.462891 0)"/>
      <use xlink:href="#DejaVuSans-Bold-61" transform="translate(783.740234 0)"/>
      <use xlink:href="#DejaVuSans-Bold-73" transform="translate(851.220703 0)"/>
      <use xlink:href="#DejaVuSans-Bold-6d" transform="translate(910.742188 0)"/>
      <use xlink:href="#DejaVuSans-Bold-61" transform="translate(1014.941406 0)"/>
      <use xlink:href="#DejaVuSans-Bold-20" transform="translate(1082.421875 0)"/>
      <use xlink:href="#DejaVuSans-Bold-5b" transform="translate(1117.236328 0)"/>
      <use xlink:href="#DejaVuSans-Bold-6e" transform="translate(1162.939453 0)"/>
      <use xlink:href="#DejaVuSans-Bold-4d" transform="translate(1234.130859 0)"/>
      <use xlink:href="#DejaVuSans-Bold-5d" transform="translate(1333.642578 0)"/>
     </g>
    </g>
   </g>
   <g id="line2d_16">
    <path d="M 82.147045 307.8 
L 437.237955 307.8 
L 437.237955 307.8 
" clip-path="url(#p44e4828518)" style="fill: none; stroke: #000000; stroke-width: 2; stroke-linecap: square"/>
   </g>
   <g id="line2d_17">
    <path d="M 82.147045 307.8 
L 84.762528 307.232496 
L 87.8232 306.797663 
L 91.496006 306.510478 
L 96.059189 306.38818 
L 102.403127 306.458238 
L 115.536191 306.885305 
L 132.954195 307.368285 
L 138.185161 307.36925 
L 140.96759 306.862897 
L 144.250855 306.499901 
L 148.201904 306.297067 
L 153.321573 306.269943 
L 161.168022 306.476821 
L 189.993984 307.386863 
L 193.833736 307.36221 
L 196.616165 306.857092 
L 199.899431 306.495276 
L 203.85048 306.293549 
L 208.970149 306.267476 
L 216.816598 306.475388 
L 245.531263 307.384431 
L 249.482311 307.362061 
L 252.26474 306.856969 
L 255.548006 306.495178 
L 259.499055 306.293475 
L 264.618724 306.267423 
L 272.465173 306.475358 
L 301.179838 307.384427 
L 305.138836 307.360296 
L 307.921265 306.855815 
L 311.23368 306.492244 
L 315.208579 306.291859 
L 320.375946 306.268785 
L 328.325743 306.482906 
L 356.282527 307.373305 
L 374.037073 307.627099 
L 400.668891 307.760186 
L 437.237955 307.795292 
L 437.237955 307.795292 
" clip-path="url(#p44e4828518)" style="fill: none; stroke: #ff7f0e; stroke-width: 2; stroke-linecap: square"/>
   </g>
   <g id="line2d_18">
    <path d="M 82.147045 307.8 
L 83.53826 305.927129 
L 85.040771 304.27049 
L 86.543283 302.940978 
L 88.101443 301.857789 
L 89.715252 301.005329 
L 91.440358 300.348444 
L 93.276761 299.887823 
L 95.335758 299.607501 
L 97.617349 299.524749 
L 100.288481 299.654131 
L 103.627396 300.050255 
L 108.246227 300.842869 
L 127.444986 304.368133 
L 134.345409 305.283825 
L 137.851269 305.585512 
L 139.298132 303.853791 
L 140.744995 302.453464 
L 142.247507 301.301015 
L 143.805667 300.383271 
L 145.419476 299.684616 
L 147.144581 299.174471 
L 149.036633 298.845522 
L 151.151279 298.705466 
L 153.599816 298.772728 
L 156.549191 299.087401 
L 160.333294 299.727424 
L 166.621583 301.052193 
L 176.805272 303.173256 
L 183.427453 304.311386 
L 190.049633 305.221577 
L 193.499845 305.530738 
L 194.946708 303.803991 
L 196.393571 302.408186 
L 197.896082 301.26 
L 199.454242 300.346252 
L 201.123699 299.631412 
L 202.904454 299.119417 
L 204.852154 298.800506 
L 207.022448 298.679928 
L 209.526634 298.773821 
L 212.531657 299.119439 
L 216.482706 299.812889 
L 223.550075 301.325158 
L 232.565145 303.190051 
L 239.187325 304.325838 
L 245.809505 305.233255 
L 249.14842 305.52933 
L 250.595283 303.802711 
L 252.042146 302.407023 
L 253.544657 301.258946 
L 255.102818 300.345301 
L 256.772275 299.63056 
L 258.553029 299.118659 
L 260.500729 298.799839 
L 262.671024 298.67935 
L 265.17521 298.773331 
L 268.180233 299.119037 
L 272.131282 299.812578 
L 279.198651 301.324964 
L 288.21372 303.189943 
L 294.8359 304.325768 
L 301.458081 305.23321 
L 304.741347 305.603869 
L 304.741347 305.603869 
L 306.198809 303.851193 
L 307.656272 302.436739 
L 309.113735 301.312712 
L 310.703694 300.369492 
L 312.293653 299.676423 
L 314.016109 299.161321 
L 315.871062 298.831938 
L 317.991007 298.684034 
L 320.375946 298.741388 
L 323.290872 299.042644 
L 327.000777 299.6612 
L 333.095621 300.940062 
L 343.695349 303.158393 
L 350.32018 304.300378 
L 356.94501 305.213663 
L 363.96733 305.954013 
L 371.78463 306.551558 
L 380.926896 307.0227 
L 392.321604 307.377547 
L 407.691211 307.619057 
L 432.070587 307.754825 
L 437.237955 307.766508 
L 437.237955 307.766508 
" clip-path="url(#p44e4828518)" style="fill: none; stroke: #d62728; stroke-width: 2; stroke-linecap: square"/>
   </g>
   <g id="line2d_19">
    <path d="M 82.147045 307.8 
L 86.121944 303.286554 
L 90.096842 301.817313 
L 98.046638 301.121829 
L 105.996435 302.366179 
L 137.795621 304.770478 
L 193.444196 303.784293 
L 249.092771 303.728709 
L 304.741347 303.643886 
L 312.691143 298.763489 
L 320.64094 299.592519 
L 328.590736 300.646668 
L 352.440126 303.378668 
L 360.389922 303.86625 
" clip-path="url(#p44e4828518)" style="fill: none; stroke-dasharray: 3.7,1.6; stroke-dashoffset: 0; stroke: #d62728"/>
    <defs>
     <path id="m04deef5b57" d="M -3 3 
L 3 3 
L 3 -3 
L -3 -3 
z
" style="stroke: #000000; stroke-linejoin: miter"/>
    </defs>
    <g clip-path="url(#p44e4828518)">
     <use xlink:href="#m04deef5b57" x="82.147045" y="307.8" style="fill: #d62728; stroke: #000000; stroke-linejoin: miter"/>
     <use xlink:href="#m04deef5b57" x="86.121944" y="303.286554" style="fill: #d62728; stroke: #000000; stroke-linejoin: miter"/>
     <use xlink:href="#m04deef5b57" x="90.096842" y="301.817313" style="fill: #d62728; stroke: #000000; stroke-linejoin: miter"/>
     <use xlink:href="#m04deef5b57" x="98.046638" y="301.121829" style="fill: #d62728; stroke: #000000; stroke-linejoin: miter"/>
     <use xlink:href="#m04deef5b57" x="105.996435" y="302.366179" style="fill: #d62728; stroke: #000000; stroke-linejoin: miter"/>
     <use xlink:href="#m04deef5b57" x="137.795621" y="304.770478" style="fill: #d62728; stroke: #000000; stroke-linejoin: miter"/>
     <use xlink:href="#m04deef5b57" x="193.444196" y="303.784293" style="fill: #d62728; stroke: #000000; stroke-linejoin: miter"/>
     <use xlink:href="#m04deef5b57" x="249.092771" y="303.728709" style="fill: #d62728; stroke: #000000; stroke-linejoin: miter"/>
     <use xlink:href="#m04deef5b57" x="304.741347" y="303.643886" style="fill: #d62728; stroke: #000000; stroke-linejoin: miter"/>
     <use xlink:href="#m04deef5b57" x="312.691143" y="298.763489" style="fill: #d62728; stroke: #000000; stroke-linejoin: miter"/>
     <use xlink:href="#m04deef5b57" x="320.64094" y="299.592519" style="fill: #d62728; stroke: #000000; stroke-linejoin: miter"/>
     <use xlink:href="#m04deef5b57" x="328.590736" y="300.646668" style="fill: #d62728; stroke: #000000; stroke-linejoin: miter"/>
     <use xlink:href="#m04deef5b57" x="352.440126" y="303.378668" style="fill: #d62728; stroke: #000000; stroke-linejoin: miter"/>
     <use xlink:href="#m04deef5b57" x="360.389922" y="303.86625" style="fill: #d62728; stroke: #000000; stroke-linejoin: miter"/>
    </g>
   </g>
   <g id="line2d_20">
    <path d="M 82.147045 307.8 
L 83.426963 302.24999 
L 84.762528 297.392135 
L 86.098094 293.369158 
L 87.378012 290.200567 
L 88.657929 287.620941 
L 89.882197 285.637044 
L 91.106466 284.067766 
L 92.330735 282.8618 
L 93.555003 281.973225 
L 94.779272 281.360984 
L 96.059189 280.976625 
L 97.394755 280.814604 
L 98.841618 280.871921 
L 100.399778 281.158112 
L 102.180533 281.7143 
L 104.295178 282.617746 
L 106.910661 283.991215 
L 110.583467 286.196573 
L 122.436614 293.485106 
L 126.721554 295.766994 
L 130.7839 297.680801 
L 134.846246 299.34953 
L 137.795621 300.41388 
L 137.795621 300.41388 
L 139.019889 295.634452 
L 140.299807 291.455541 
L 141.579724 288.01076 
L 142.803993 285.31983 
L 144.028261 283.148069 
L 145.196881 281.501325 
L 146.365501 280.220861 
L 147.534121 279.262368 
L 148.702742 278.586024 
L 149.871362 278.15608 
L 151.09563 277.935059 
L 152.431196 277.923678 
L 153.878059 278.139389 
L 155.491868 278.609856 
L 157.383919 279.405408 
L 159.609862 280.591999 
L 162.503588 282.402597 
L 167.178069 285.631668 
L 174.468032 290.636669 
L 178.808621 293.331055 
L 182.815318 295.555698 
L 186.710718 297.464008 
L 190.606119 299.126797 
L 193.444196 300.192193 
L 193.444196 300.192193 
L 194.668465 295.429221 
L 195.948382 291.26621 
L 197.228299 287.836098 
L 198.452568 285.158133 
L 199.676836 282.998376 
L 200.845457 281.362257 
L 202.014077 280.091665 
L 203.182697 279.142342 
L 204.351317 278.474518 
L 205.519937 278.05249 
L 206.744206 277.839158 
L 208.079771 277.835517 
L 209.526634 278.058909 
L 211.140443 278.537156 
L 213.032495 279.340878 
L 215.314086 280.568496 
L 218.263461 282.429969 
L 223.104887 285.793664 
L 230.060959 290.578319 
L 234.401547 293.281528 
L 238.352596 295.48439 
L 242.247997 297.402705 
L 246.143397 299.07456 
L 249.092771 300.185539 
L 249.092771 300.185539 
L 250.31704 295.423061 
L 251.596957 291.260527 
L 252.876874 287.830856 
L 254.101143 285.15328 
L 255.325412 282.993883 
L 256.494032 281.358083 
L 257.662652 280.087787 
L 258.831272 279.13874 
L 259.999892 278.471171 
L 261.168512 278.04938 
L 262.392781 277.83628 
L 263.728347 277.83287 
L 265.17521 278.056494 
L 266.789018 278.534974 
L 268.68107 279.338941 
L 270.962661 280.566818 
L 273.912036 282.428576 
L 278.753462 285.792637 
L 285.709534 290.577656 
L 290.050123 293.281024 
L 294.001172 295.483997 
L 297.896572 297.402398 
L 301.791972 299.074319 
L 304.741347 300.185339 
L 304.741347 300.185339 
L 306.066313 295.066572 
L 307.391279 290.834611 
L 308.716245 287.37658 
L 309.908714 284.844826 
L 311.101184 282.796517 
L 312.293653 281.174188 
L 313.486123 279.926215 
L 314.678592 279.006268 
L 315.871062 278.372811 
L 317.063531 277.988643 
L 318.388497 277.813821 
L 319.713463 277.865239 
L 321.170926 278.140631 
L 322.893382 278.707039 
L 324.880831 279.613073 
L 327.26577 280.958281 
L 330.445689 283.025672 
L 337.997995 288.314895 
L 342.90037 291.569768 
L 347.007765 294.039303 
L 350.982663 296.168761 
L 354.825064 297.978329 
L 358.799963 299.602378 
L 362.907358 301.035296 
L 367.147249 302.27962 
L 371.652134 303.373208 
L 376.554508 304.335631 
L 381.986869 305.17337 
L 388.081713 305.885425 
L 395.104033 306.478407 
L 403.583816 306.961748 
L 414.183545 307.330183 
L 428.360682 307.586419 
L 437.237955 307.670499 
L 437.237955 307.670499 
" clip-path="url(#p44e4828518)" style="fill: none; stroke: #1f77b4; stroke-width: 2; stroke-linecap: square"/>
   </g>
   <g id="line2d_21">
    <path d="M 82.147045 307.8 
L 86.121944 301.121829 
L 90.096842 295.403068 
L 98.046638 292.564154 
L 105.996435 292.139456 
L 137.795621 299.305553 
L 193.444196 296.540392 
L 249.092771 295.656074 
L 304.741347 296.226531 
L 312.691143 286.16757 
L 320.64094 284.468582 
L 328.590736 286.16757 
L 352.440126 294.337206 
L 360.389922 297.782096 
" clip-path="url(#p44e4828518)" style="fill: none; stroke-dasharray: 3.7,1.6; stroke-dashoffset: 0; stroke: #1f77b4"/>
    <defs>
     <path id="m67207eaee5" d="M -3 3 
L 3 3 
L 3 -3 
L -3 -3 
z
" style="stroke: #000000; stroke-linejoin: miter"/>
    </defs>
    <g clip-path="url(#p44e4828518)">
     <use xlink:href="#m67207eaee5" x="82.147045" y="307.8" style="fill: #1f77b4; stroke: #000000; stroke-linejoin: miter"/>
     <use xlink:href="#m67207eaee5" x="86.121944" y="301.121829" style="fill: #1f77b4; stroke: #000000; stroke-linejoin: miter"/>
     <use xlink:href="#m67207eaee5" x="90.096842" y="295.403068" style="fill: #1f77b4; stroke: #000000; stroke-linejoin: miter"/>
     <use xlink:href="#m67207eaee5" x="98.046638" y="292.564154" style="fill: #1f77b4; stroke: #000000; stroke-linejoin: miter"/>
     <use xlink:href="#m67207eaee5" x="105.996435" y="292.139456" style="fill: #1f77b4; stroke: #000000; stroke-linejoin: miter"/>
     <use xlink:href="#m67207eaee5" x="137.795621" y="299.305553" style="fill: #1f77b4; stroke: #000000; stroke-linejoin: miter"/>
     <use xlink:href="#m67207eaee5" x="193.444196" y="296.540392" style="fill: #1f77b4; stroke: #000000; stroke-linejoin: miter"/>
     <use xlink:href="#m67207eaee5" x="249.092771" y="295.656074" style="fill: #1f77b4; stroke: #000000; stroke-linejoin: miter"/>
     <use xlink:href="#m67207eaee5" x="304.741347" y="296.226531" style="fill: #1f77b4; stroke: #000000; stroke-linejoin: miter"/>
     <use xlink:href="#m67207eaee5" x="312.691143" y="286.16757" style="fill: #1f77b4; stroke: #000000; stroke-linejoin: miter"/>
     <use xlink:href="#m67207eaee5" x="320.64094" y="284.468582" style="fill: #1f77b4; stroke: #000000; stroke-linejoin: miter"/>
     <use xlink:href="#m67207eaee5" x="328.590736" y="286.16757" style="fill: #1f77b4; stroke: #000000; stroke-linejoin: miter"/>
     <use xlink:href="#m67207eaee5" x="352.440126" y="294.337206" style="fill: #1f77b4; stroke: #000000; stroke-linejoin: miter"/>
     <use xlink:href="#m67207eaee5" x="360.389922" y="297.782096" style="fill: #1f77b4; stroke: #000000; stroke-linejoin: miter"/>
    </g>
   </g>
   <g id="line2d_22">
    <path d="M 82.147045 307.8 
L 83.315666 287.597477 
L 84.539934 270.056223 
L 85.708554 256.318722 
L 86.877174 245.136262 
L 87.990146 236.557138 
L 89.047469 230.041349 
L 90.049143 225.15688 
L 90.995169 221.557723 
L 91.885546 218.966499 
L 92.720275 217.160665 
L 93.499355 215.961574 
L 94.222786 215.225763 
L 94.890569 214.838015 
L 95.558352 214.703724 
L 96.226135 214.799133 
L 96.949566 215.136186 
L 97.784295 215.794256 
L 98.730321 216.844991 
L 99.843292 218.434057 
L 101.178858 220.753023 
L 102.848315 224.137414 
L 105.01861 229.091275 
L 108.413173 237.483267 
L 114.534516 252.625448 
L 117.762134 259.971834 
L 120.600211 265.89678 
L 123.271343 270.97782 
L 125.886826 275.481788 
L 128.44666 279.449154 
L 130.950846 282.927884 
L 133.455032 286.033314 
L 135.959218 288.793 
L 137.795621 290.613729 
L 137.795621 290.613729 
L 138.964241 272.021325 
L 140.132861 256.66319 
L 141.301481 244.117379 
L 142.414453 234.449847 
L 143.471775 227.067096 
L 144.529098 221.221484 
L 145.530773 216.927704 
L 146.476799 213.849634 
L 147.311527 211.831449 
L 148.090607 210.474016 
L 148.814039 209.622285 
L 149.481822 209.151681 
L 150.149604 208.955652 
L 150.817387 209.008582 
L 151.48517 209.286705 
L 152.26425 209.866498 
L 153.154628 210.826601 
L 154.21195 212.321403 
L 155.436219 214.452523 
L 156.938731 217.532021 
L 158.886431 222.075267 
L 161.613211 229.0632 
L 170.683929 252.724606 
L 173.688952 259.737914 
L 176.471381 265.675726 
L 179.086864 270.747136 
L 181.646698 275.234294 
L 184.150884 279.183273 
L 186.65507 282.719446 
L 189.159256 285.870361 
L 191.663442 288.666002 
L 193.444196 290.454807 
L 193.444196 290.454807 
L 194.612816 271.877289 
L 195.781436 256.532646 
L 196.950056 243.999063 
L 198.063028 234.34211 
L 199.120351 226.968532 
L 200.177674 221.131312 
L 201.179348 216.844822 
L 202.069725 213.929623 
L 202.904454 211.875482 
L 203.683534 210.488158 
L 204.406965 209.611579 
L 205.074748 209.120329 
L 205.742531 208.905687 
L 206.410314 208.941888 
L 207.078097 209.205026 
L 207.857177 209.769367 
L 208.747554 210.714253 
L 209.804877 212.194022 
L 211.029146 214.311359 
L 212.531657 217.37849 
L 214.423709 221.775647 
L 217.094841 228.601022 
L 226.555098 253.254306 
L 229.560121 260.225587 
L 232.286902 266.008228 
L 234.902385 271.049172 
L 237.462219 275.506983 
L 239.966405 279.428407 
L 242.470591 282.938604 
L 244.974777 286.065372 
L 247.478963 288.838817 
L 249.092771 290.453337 
L 249.092771 290.453337 
L 250.261391 271.875957 
L 251.430012 256.531438 
L 252.598632 243.997969 
L 253.711603 234.341114 
L 254.768926 226.96762 
L 255.826249 221.130478 
L 256.827923 216.844056 
L 257.718301 213.928912 
L 258.553029 211.87482 
L 259.332109 210.487538 
L 260.055541 209.610995 
L 260.723324 209.119776 
L 261.391107 208.905165 
L 262.058889 208.941394 
L 262.726672 209.204559 
L 263.505752 209.76893 
L 264.39613 210.713847 
L 265.453453 212.193651 
L 266.677721 214.311024 
L 268.180233 217.378195 
L 270.072284 221.775396 
L 272.743416 228.600821 
L 282.203674 253.254215 
L 285.208697 260.225516 
L 287.935477 266.008172 
L 290.55096 271.049127 
L 293.110794 275.506947 
L 295.61498 279.428378 
L 298.119166 282.938581 
L 300.623352 286.065353 
L 303.127538 288.838801 
L 304.741347 290.453324 
L 304.741347 290.453324 
L 305.933816 271.532067 
L 307.126286 255.967451 
L 308.318755 243.313569 
L 309.378728 234.197321 
L 310.438701 226.836158 
L 311.498674 221.014996 
L 312.42615 217.03302 
L 313.353626 213.966601 
L 314.148606 211.987114 
L 314.943585 210.542802 
L 315.738565 209.57845 
L 316.401048 209.104824 
L 317.063531 208.902282 
L 317.726014 208.945742 
L 318.388497 209.211919 
L 319.183477 209.795016 
L 320.110953 210.795773 
L 321.170926 212.302071 
L 322.495892 214.633708 
L 324.085851 217.945104 
L 326.073301 222.643272 
L 328.988226 230.179584 
L 336.938022 251.018683 
L 339.985444 258.265457 
L 342.767873 264.333406 
L 345.417805 269.594441 
L 347.935241 274.122329 
L 350.452676 278.204843 
L 352.970112 281.86352 
L 355.487547 285.125409 
L 358.004983 288.020552 
L 360.522419 290.580183 
L 363.039854 292.83545 
L 365.689786 294.91376 
L 368.472215 296.805475 
L 371.38714 298.506464 
L 374.434562 300.017623 
L 377.614481 301.344228 
L 381.059393 302.536846 
L 384.769298 303.583901 
L 388.876693 304.508623 
L 393.514074 305.316941 
L 398.813938 306.005299 
L 405.041279 306.578196 
L 412.461089 307.030072 
L 422.000845 307.376838 
L 435.118009 307.615476 
L 437.237955 307.63874 
L 437.237955 307.63874 
" clip-path="url(#p44e4828518)" style="fill: none; stroke: #e377c2; stroke-width: 2; stroke-linecap: square"/>
   </g>
   <g id="line2d_23">
    <path d="M 82.147045 307.8 
L 86.121944 276.873618 
L 90.096842 271.075486 
L 98.046638 259.785334 
L 105.996435 257.418688 
L 137.795621 287.742838 
L 193.444196 282.979712 
L 249.092771 289.203395 
L 304.741347 287.324963 
L 312.691143 232.223141 
L 320.64094 224.58917 
L 328.590736 234.272707 
L 352.440126 234.272707 
L 360.389922 262.354249 
" clip-path="url(#p44e4828518)" style="fill: none; stroke-dasharray: 3.7,1.6; stroke-dashoffset: 0; stroke: #e377c2"/>
    <defs>
     <path id="m50679e511a" d="M -3 3 
L 3 3 
L 3 -3 
L -3 -3 
z
" style="stroke: #000000; stroke-linejoin: miter"/>
    </defs>
    <g clip-path="url(#p44e4828518)">
     <use xlink:href="#m50679e511a" x="82.147045" y="307.8" style="fill: #e377c2; stroke: #000000; stroke-linejoin: miter"/>
     <use xlink:href="#m50679e511a" x="86.121944" y="276.873618" style="fill: #e377c2; stroke: #000000; stroke-linejoin: miter"/>
     <use xlink:href="#m50679e511a" x="90.096842" y="271.075486" style="fill: #e377c2; stroke: #000000; stroke-linejoin: miter"/>
     <use xlink:href="#m50679e511a" x="98.046638" y="259.785334" style="fill: #e377c2; stroke: #000000; stroke-linejoin: miter"/>
     <use xlink:href="#m50679e511a" x="105.996435" y="257.418688" style="fill: #e377c2; stroke: #000000; stroke-linejoin: miter"/>
     <use xlink:href="#m50679e511a" x="137.795621" y="287.742838" style="fill: #e377c2; stroke: #000000; stroke-linejoin: miter"/>
     <use xlink:href="#m50679e511a" x="193.444196" y="282.979712" style="fill: #e377c2; stroke: #000000; stroke-linejoin: miter"/>
     <use xlink:href="#m50679e511a" x="249.092771" y="289.203395" style="fill: #e377c2; stroke: #000000; stroke-linejoin: miter"/>
     <use xlink:href="#m50679e511a" x="304.741347" y="287.324963" style="fill: #e377c2; stroke: #000000; stroke-linejoin: miter"/>
     <use xlink:href="#m50679e511a" x="312.691143" y="232.223141" style="fill: #e377c2; stroke: #000000; stroke-linejoin: miter"/>
     <use xlink:href="#m50679e511a" x="320.64094" y="224.58917" style="fill: #e377c2; stroke: #000000; stroke-linejoin: miter"/>
     <use xlink:href="#m50679e511a" x="328.590736" y="234.272707" style="fill: #e377c2; stroke: #000000; stroke-linejoin: miter"/>
     <use xlink:href="#m50679e511a" x="352.440126" y="234.272707" style="fill: #e377c2; stroke: #000000; stroke-linejoin: miter"/>
     <use xlink:href="#m50679e511a" x="360.389922" y="262.354249" style="fill: #e377c2; stroke: #000000; stroke-linejoin: miter"/>
    </g>
   </g>
   <g id="line2d_24">
    <path d="M 82.147045 307.8 
L 83.426963 279.779564 
L 84.762528 255.276101 
L 86.042446 235.772354 
L 87.266714 220.320595 
L 88.490983 207.628064 
L 89.659603 197.7831 
L 90.772575 190.228681 
L 91.829898 184.511699 
L 92.831572 180.263285 
L 93.777598 177.182954 
L 94.667975 175.025802 
L 95.447055 173.671148 
L 96.170486 172.818021 
L 96.838269 172.347235 
L 97.450404 172.161477 
L 98.062538 172.192756 
L 98.730321 172.455028 
L 99.453752 172.985136 
L 100.288481 173.884301 
L 101.290155 175.324274 
L 102.458775 177.434628 
L 103.84999 180.450983 
L 105.519447 184.644281 
L 107.634093 190.611384 
L 110.527819 199.506957 
L 121.101048 232.600831 
L 124.273017 241.511444 
L 127.222391 249.147581 
L 130.00482 255.748822 
L 132.7316 261.648554 
L 135.347083 266.79054 
L 137.795621 271.164381 
L 137.795621 271.164381 
L 139.019889 247.011868 
L 140.299807 225.910647 
L 141.524075 209.216592 
L 142.748344 195.527032 
L 143.916964 184.931499 
L 145.029936 176.823034 
L 146.087258 170.708036 
L 147.088933 166.184791 
L 148.034959 162.926156 
L 148.869687 160.785513 
L 149.648767 159.34962 
L 150.372199 158.458841 
L 151.039982 157.982788 
L 151.652116 157.815027 
L 152.26425 157.884402 
L 152.932033 158.209301 
L 153.655465 158.829892 
L 154.490193 159.859807 
L 155.436219 161.388704 
L 156.604839 163.737142 
L 157.940405 166.942856 
L 159.609862 171.572683 
L 161.66886 177.983172 
L 164.506937 187.607328 
L 175.414058 225.309163 
L 178.586026 235.112329 
L 181.479752 243.354232 
L 184.262181 250.618421 
L 186.933313 256.981807 
L 189.548796 262.647808 
L 192.10863 267.67485 
L 193.444196 270.103268 
L 193.444196 270.103268 
L 194.668465 246.030295 
L 195.948382 225.005862 
L 197.172651 208.379628 
L 198.341271 195.312361 
L 199.509891 184.664393 
L 200.622862 176.514128 
L 201.680185 170.365978 
L 202.68186 165.816601 
L 203.627885 162.537521 
L 204.462614 160.381929 
L 205.241694 158.934463 
L 205.965126 158.034824 
L 206.632908 157.552075 
L 207.245043 157.379336 
L 207.857177 157.444762 
L 208.52496 157.766443 
L 209.248391 158.38473 
L 210.08312 159.413385 
L 211.029146 160.942481 
L 212.142117 163.170904 
L 213.477683 166.360555 
L 215.091492 170.815897 
L 217.150489 177.206283 
L 219.932918 186.634831 
L 231.340876 226.104221 
L 234.457196 235.692733 
L 237.350922 243.894468 
L 240.133351 251.117052 
L 242.804482 257.439634 
L 245.419965 263.066097 
L 247.9798 268.05565 
L 249.092771 270.072534 
L 249.092771 270.072534 
L 250.31704 246.001865 
L 251.596957 224.979656 
L 252.821226 208.355386 
L 253.989846 195.289857 
L 255.158466 184.643502 
L 256.271438 176.494665 
L 257.328761 170.347782 
L 258.330435 165.799529 
L 259.276461 162.521447 
L 260.111189 160.366686 
L 260.890269 158.919957 
L 261.613701 158.020971 
L 262.281484 157.538799 
L 262.893618 157.366566 
L 263.505752 157.432481 
L 264.173535 157.754673 
L 264.896967 158.37349 
L 265.731695 159.402726 
L 266.677721 160.932444 
L 267.790693 163.161554 
L 269.126258 166.351967 
L 270.740067 170.808147 
L 272.799064 177.199485 
L 275.581493 186.629137 
L 286.989451 226.101465 
L 290.105771 235.690474 
L 292.999497 243.892589 
L 295.781926 251.115478 
L 298.453058 257.438306 
L 301.068541 263.064972 
L 303.628375 268.054695 
L 304.741347 270.071643 
L 304.741347 270.071643 
L 306.066313 244.200929 
L 307.391279 222.829778 
L 308.583748 206.965793 
L 309.776218 193.913791 
L 310.968687 183.344541 
L 312.02866 175.794028 
L 313.088633 169.783284 
L 314.016109 165.652595 
L 314.943585 162.465865 
L 315.738565 160.412981 
L 316.533545 158.927653 
L 317.196028 158.086107 
L 317.858511 157.574964 
L 318.520994 157.368072 
L 319.183477 157.440891 
L 319.84596 157.770399 
L 320.64094 158.474342 
L 321.435919 159.48217 
L 322.363396 160.999344 
L 323.555865 163.418858 
L 324.880831 166.625886 
L 326.603287 171.441621 
L 328.723233 178.100325 
L 331.638158 188.058489 
L 341.840397 223.52978 
L 345.020315 233.50028 
L 347.935241 241.936929 
L 350.71767 249.327278 
L 353.367602 255.75967 
L 356.017534 261.61338 
L 358.534969 266.659425 
L 361.052405 271.229847 
L 363.569841 275.353942 
L 366.087276 279.062898 
L 368.604712 282.388571 
L 371.122147 285.362587 
L 373.772079 288.147003 
L 376.422012 290.610096 
L 379.20444 292.885801 
L 381.986869 294.877534 
L 384.901794 296.69427 
L 387.949216 298.333953 
L 391.129135 299.798399 
L 394.574047 301.140157 
L 398.283952 302.343279 
L 402.25885 303.399644 
L 406.631238 304.333463 
L 411.533613 305.15254 
L 417.09847 305.855213 
L 423.590804 306.447029 
L 431.408104 306.929268 
L 437.237955 307.174707 
L 437.237955 307.174707 
" clip-path="url(#p44e4828518)" style="fill: none; stroke: #17becf; stroke-width: 2; stroke-linecap: square"/>
   </g>
   <g id="line2d_25">
    <path d="M 82.147045 307.8 
L 86.121944 273.040347 
L 90.096842 255.297514 
L 98.046638 246.726683 
L 105.996435 242.829352 
L 137.795621 266.238871 
L 193.444196 256.721327 
L 249.092771 255.297514 
L 304.741347 259.785334 
L 312.691143 220.487703 
L 320.64094 216.184075 
L 328.590736 203.403169 
L 352.440126 239.156753 
L 360.389922 251.947122 
" clip-path="url(#p44e4828518)" style="fill: none; stroke-dasharray: 3.7,1.6; stroke-dashoffset: 0; stroke: #17becf"/>
    <defs>
     <path id="m9c3e99720a" d="M -3 3 
L 3 3 
L 3 -3 
L -3 -3 
z
" style="stroke: #000000; stroke-linejoin: miter"/>
    </defs>
    <g clip-path="url(#p44e4828518)">
     <use xlink:href="#m9c3e99720a" x="82.147045" y="307.8" style="fill: #17becf; stroke: #000000; stroke-linejoin: miter"/>
     <use xlink:href="#m9c3e99720a" x="86.121944" y="273.040347" style="fill: #17becf; stroke: #000000; stroke-linejoin: miter"/>
     <use xlink:href="#m9c3e99720a" x="90.096842" y="255.297514" style="fill: #17becf; stroke: #000000; stroke-linejoin: miter"/>
     <use xlink:href="#m9c3e99720a" x="98.046638" y="246.726683" style="fill: #17becf; stroke: #000000; stroke-linejoin: miter"/>
     <use xlink:href="#m9c3e99720a" x="105.996435" y="242.829352" style="fill: #17becf; stroke: #000000; stroke-linejoin: miter"/>
     <use xlink:href="#m9c3e99720a" x="137.795621" y="266.238871" style="fill: #17becf; stroke: #000000; stroke-linejoin: miter"/>
     <use xlink:href="#m9c3e99720a" x="193.444196" y="256.721327" style="fill: #17becf; stroke: #000000; stroke-linejoin: miter"/>
     <use xlink:href="#m9c3e99720a" x="249.092771" y="255.297514" style="fill: #17becf; stroke: #000000; stroke-linejoin: miter"/>
     <use xlink:href="#m9c3e99720a" x="304.741347" y="259.785334" style="fill: #17becf; stroke: #000000; stroke-linejoin: miter"/>
     <use xlink:href="#m9c3e99720a" x="312.691143" y="220.487703" style="fill: #17becf; stroke: #000000; stroke-linejoin: miter"/>
     <use xlink:href="#m9c3e99720a" x="320.64094" y="216.184075" style="fill: #17becf; stroke: #000000; stroke-linejoin: miter"/>
     <use xlink:href="#m9c3e99720a" x="328.590736" y="203.403169" style="fill: #17becf; stroke: #000000; stroke-linejoin: miter"/>
     <use xlink:href="#m9c3e99720a" x="352.440126" y="239.156753" style="fill: #17becf; stroke: #000000; stroke-linejoin: miter"/>
     <use xlink:href="#m9c3e99720a" x="360.389922" y="251.947122" style="fill: #17becf; stroke: #000000; stroke-linejoin: miter"/>
    </g>
   </g>
   <g id="line2d_26">
    <path d="M 82.147045 307.8 
L 83.371314 258.445406 
L 84.651231 215.442954 
L 85.8755 181.489374 
L 87.04412 154.813961 
L 88.21274 133.053096 
L 89.325712 116.344296 
L 90.383035 103.66588 
L 91.384709 94.192875 
L 92.330735 87.258593 
L 93.221112 82.323886 
L 94.000192 79.142075 
L 94.723623 77.045535 
L 95.335758 75.860566 
L 95.892244 75.214432 
L 96.393081 74.958669 
L 96.838269 74.973265 
L 97.283458 75.201372 
L 97.839944 75.767017 
L 98.452078 76.722451 
L 99.231158 78.397389 
L 100.121535 80.872536 
L 101.178858 84.485265 
L 102.458775 89.677094 
L 104.016936 96.957709 
L 106.020284 107.443135 
L 108.858362 123.597378 
L 117.984728 176.338184 
L 121.0454 192.32218 
L 123.827828 205.709741 
L 126.443311 217.242427 
L 129.003146 227.536341 
L 131.451683 236.483535 
L 133.844572 244.412408 
L 136.237461 251.578688 
L 137.795621 255.858001 
L 137.795621 255.858001 
L 138.964241 212.835117 
L 140.188509 175.290775 
L 141.412778 144.483581 
L 142.581398 120.580805 
L 143.69437 102.200762 
L 144.751693 88.228673 
L 145.753367 77.764237 
L 146.699393 70.079743 
L 147.58977 64.586574 
L 148.36885 61.021764 
L 149.092282 58.649598 
L 149.760064 57.190103 
L 150.31655 56.465429 
L 150.817387 56.166921 
L 151.262576 56.164297 
L 151.707765 56.393533 
L 152.208602 56.911047 
L 152.820736 57.890106 
L 153.544168 59.496495 
L 154.434545 62.071148 
L 155.491868 65.873676 
L 156.771785 71.383636 
L 158.329945 79.157573 
L 160.277645 90.079303 
L 163.004425 106.752152 
L 172.909872 168.442063 
L 175.914895 185.211168 
L 178.697324 199.498052 
L 181.312807 211.787241 
L 183.816993 222.516424 
L 186.26553 232.05115 
L 188.658419 240.494785 
L 190.995659 247.953229 
L 193.332899 254.68183 
L 193.444196 254.984914 
L 193.444196 254.984914 
L 194.612816 212.033819 
L 195.837085 174.558362 
L 197.061353 143.814131 
L 198.229974 119.966401 
L 199.342945 101.634568 
L 200.400268 87.704771 
L 201.401942 77.277482 
L 202.347968 69.62565 
L 203.238345 64.161217 
L 204.017425 60.620055 
L 204.740857 58.268669 
L 205.40864 56.827401 
L 205.965126 56.117248 
L 206.465963 55.831311 
L 206.911151 55.839479 
L 207.35634 56.079161 
L 207.857177 56.608026 
L 208.469311 57.600402 
L 209.192743 59.221777 
L 210.08312 61.813814 
L 211.140443 65.635564 
L 212.42036 71.166881 
L 213.97852 78.96425 
L 215.92622 89.911741 
L 218.653001 106.614992 
L 228.502799 168.052747 
L 231.507822 184.859562 
L 234.29025 199.180983 
L 236.905733 211.501439 
L 239.409919 222.258991 
L 241.858457 231.819712 
L 244.251345 240.286953 
L 246.588585 247.766693 
L 248.925826 254.514855 
L 249.092771 254.970238 
L 249.092771 254.970238 
L 250.261391 212.02035 
L 251.48566 174.546051 
L 252.709929 143.802878 
L 253.878549 119.956073 
L 254.99152 101.62505 
L 256.048843 87.695964 
L 257.050518 77.2693 
L 257.996543 69.618017 
L 258.886921 64.154067 
L 259.666001 60.613303 
L 260.389432 58.262266 
L 261.057215 56.821305 
L 261.613701 56.111395 
L 262.114538 55.82567 
L 262.559727 55.834019 
L 263.004915 56.073876 
L 263.505752 56.602932 
L 264.117887 57.595532 
L 264.841318 59.217159 
L 265.731695 61.809489 
L 266.789018 65.631562 
L 268.068936 71.163238 
L 269.627096 78.961 
L 271.574796 89.908924 
L 274.301576 106.612686 
L 284.151374 168.051628 
L 287.156397 184.858665 
L 289.938826 199.180252 
L 292.554309 211.500835 
L 295.058495 222.258489 
L 297.507032 231.819293 
L 299.899921 240.286601 
L 302.237161 247.766397 
L 304.574401 254.514606 
L 304.741347 254.969992 
L 304.741347 254.969992 
L 305.933816 211.219993 
L 307.126286 174.766499 
L 308.318755 144.704116 
L 309.511225 120.247386 
L 310.571197 102.645672 
L 311.63117 88.47671 
L 312.691143 77.342138 
L 313.618619 69.80535 
L 314.546096 64.098298 
L 315.341075 60.5117 
L 316.003558 58.354913 
L 316.666041 56.888511 
L 317.196028 56.173593 
L 317.726014 55.835786 
L 318.123504 55.814046 
L 318.520994 55.979051 
L 319.05098 56.47209 
L 319.713463 57.495223 
L 320.508443 59.264631 
L 321.435919 61.991467 
L 322.495892 65.863275 
L 323.820858 71.647303 
L 325.410818 79.682658 
L 327.398267 90.941258 
L 330.313192 108.907379 
L 339.190465 164.486321 
L 342.237887 181.789968 
L 345.020315 196.362096 
L 347.670248 209.082112 
L 350.187683 220.109815 
L 352.705119 230.129675 
L 355.090058 238.729339 
L 357.474997 246.506349 
L 359.859936 253.512322 
L 362.112378 259.470588 
L 364.36482 264.837321 
L 366.617263 269.659402 
L 368.869705 273.98248 
L 371.122147 277.850356 
L 373.507086 281.495716 
L 375.892025 284.723494 
L 378.276964 287.576557 
L 380.661903 290.094375 
L 383.179339 292.428231 
L 385.696774 294.467323 
L 388.346706 296.33342 
L 391.129135 298.02227 
L 394.04406 299.53397 
L 397.223979 300.925602 
L 400.536394 302.133305 
L 404.246299 303.241867 
L 408.221197 304.195263 
L 412.726082 305.041575 
L 417.760953 305.758452 
L 423.723301 306.373831 
L 430.745621 306.867977 
L 437.237955 307.172601 
L 437.237955 307.172601 
" clip-path="url(#p44e4828518)" style="fill: none; stroke: #8c564b; stroke-width: 2; stroke-linecap: square"/>
   </g>
   <g id="line2d_27">
    <path d="M 82.147045 307.8 
L 86.121944 246.305458 
L 90.096842 219.885507 
L 98.046638 199.752992 
L 105.996435 193.645439 
L 137.795621 234.776355 
L 193.444196 213.63029 
L 249.092771 200.493093 
L 304.741347 220.487703 
L 312.691143 176.823063 
L 320.64094 159.573396 
L 328.590736 177.720244 
L 352.440126 207.620947 
L 360.389922 225.725221 
" clip-path="url(#p44e4828518)" style="fill: none; stroke-dasharray: 3.7,1.6; stroke-dashoffset: 0; stroke: #8c564b"/>
    <defs>
     <path id="m04cbf107dd" d="M -3 3 
L 3 3 
L 3 -3 
L -3 -3 
z
" style="stroke: #000000; stroke-linejoin: miter"/>
    </defs>
    <g clip-path="url(#p44e4828518)">
     <use xlink:href="#m04cbf107dd" x="82.147045" y="307.8" style="fill: #8c564b; stroke: #000000; stroke-linejoin: miter"/>
     <use xlink:href="#m04cbf107dd" x="86.121944" y="246.305458" style="fill: #8c564b; stroke: #000000; stroke-linejoin: miter"/>
     <use xlink:href="#m04cbf107dd" x="90.096842" y="219.885507" style="fill: #8c564b; stroke: #000000; stroke-linejoin: miter"/>
     <use xlink:href="#m04cbf107dd" x="98.046638" y="199.752992" style="fill: #8c564b; stroke: #000000; stroke-linejoin: miter"/>
     <use xlink:href="#m04cbf107dd" x="105.996435" y="193.645439" style="fill: #8c564b; stroke: #000000; stroke-linejoin: miter"/>
     <use xlink:href="#m04cbf107dd" x="137.795621" y="234.776355" style="fill: #8c564b; stroke: #000000; stroke-linejoin: miter"/>
     <use xlink:href="#m04cbf107dd" x="193.444196" y="213.63029" style="fill: #8c564b; stroke: #000000; stroke-linejoin: miter"/>
     <use xlink:href="#m04cbf107dd" x="249.092771" y="200.493093" style="fill: #8c564b; stroke: #000000; stroke-linejoin: miter"/>
     <use xlink:href="#m04cbf107dd" x="304.741347" y="220.487703" style="fill: #8c564b; stroke: #000000; stroke-linejoin: miter"/>
     <use xlink:href="#m04cbf107dd" x="312.691143" y="176.823063" style="fill: #8c564b; stroke: #000000; stroke-linejoin: miter"/>
     <use xlink:href="#m04cbf107dd" x="320.64094" y="159.573396" style="fill: #8c564b; stroke: #000000; stroke-linejoin: miter"/>
     <use xlink:href="#m04cbf107dd" x="328.590736" y="177.720244" style="fill: #8c564b; stroke: #000000; stroke-linejoin: miter"/>
     <use xlink:href="#m04cbf107dd" x="352.440126" y="207.620947" style="fill: #8c564b; stroke: #000000; stroke-linejoin: miter"/>
     <use xlink:href="#m04cbf107dd" x="360.389922" y="225.725221" style="fill: #8c564b; stroke: #000000; stroke-linejoin: miter"/>
    </g>
   </g>
   <g id="patch_3">
    <path d="M 64.3925 320.4 
L 64.3925 43.2 
" style="fill: none; stroke: #000000; stroke-width: 0.8; stroke-linejoin: miter; stroke-linecap: square"/>
   </g>
   <g id="patch_4">
    <path d="M 454.9925 320.4 
L 454.9925 43.2 
" style="fill: none; stroke: #000000; stroke-width: 0.8; stroke-linejoin: miter; stroke-linecap: square"/>
   </g>
   <g id="patch_5">
    <path d="M 64.3925 320.4 
L 454.9925 320.4 
" style="fill: none; stroke: #000000; stroke-width: 0.8; stroke-linejoin: miter; stroke-linecap: square"/>
   </g>
   <g id="patch_6">
    <path d="M 64.3925 43.2 
L 454.9925 43.2 
" style="fill: none; stroke: #000000; stroke-width: 0.8; stroke-linejoin: miter; stroke-linecap: square"/>
   </g>
   <g id="legend_1">
    <g id="patch_7">
     <path d="M 350.615938 227.3375 
L 447.9925 227.3375 
Q 449.9925 227.3375 449.9925 225.3375 
L 449.9925 50.2 
Q 449.9925 48.2 447.9925 48.2 
L 350.615938 48.2 
Q 348.615938 48.2 348.615938 50.2 
L 348.615938 225.3375 
Q 348.615938 227.3375 350.615938 227.3375 
z
" style="fill: #ffffff; opacity: 0.8; stroke: #cccccc; stroke-linejoin: miter"/>
    </g>
    <g id="line2d_28">
     <path d="M 352.615938 56.298437 
L 372.615938 56.298437 
" style="fill: none; stroke: #000000; stroke-width: 2; stroke-linecap: square"/>
    </g>
    <g id="line2d_29"/>
    <g id="text_18">
     <!-- PLAC -->
     <g transform="translate(380.615938 59.798437) scale(0.1 -0.1)">
      <defs>
       <path id="DejaVuSans-50" d="M 1259 4147 
L 1259 2394 
L 2053 2394 
Q 2494 2394 2734 2622 
Q 2975 2850 2975 3272 
Q 2975 3691 2734 3919 
Q 2494 4147 2053 4147 
L 1259 4147 
z
M 628 4666 
L 2053 4666 
Q 2838 4666 3239 4311 
Q 3641 3956 3641 3272 
Q 3641 2581 3239 2228 
Q 2838 1875 2053 1875 
L 1259 1875 
L 1259 0 
L 628 0 
L 628 4666 
z
" transform="scale(0.015625)"/>
       <path id="DejaVuSans-4c" d="M 628 4666 
L 1259 4666 
L 1259 531 
L 3531 531 
L 3531 0 
L 628 0 
L 628 4666 
z
" transform="scale(0.015625)"/>
       <path id="DejaVuSans-41" d="M 2188 4044 
L 1331 1722 
L 3047 1722 
L 2188 4044 
z
M 1831 4666 
L 2547 4666 
L 4325 0 
L 3669 0 
L 3244 1197 
L 1141 1197 
L 716 0 
L 50 0 
L 1831 4666 
z
" transform="scale(0.015625)"/>
       <path id="DejaVuSans-43" d="M 4122 4306 
L 4122 3641 
Q 3803 3938 3442 4084 
Q 3081 4231 2675 4231 
Q 1875 4231 1450 3742 
Q 1025 3253 1025 2328 
Q 1025 1406 1450 917 
Q 1875 428 2675 428 
Q 3081 428 3442 575 
Q 3803 722 4122 1019 
L 4122 359 
Q 3791 134 3420 21 
Q 3050 -91 2638 -91 
Q 1578 -91 968 557 
Q 359 1206 359 2328 
Q 359 3453 968 4101 
Q 1578 4750 2638 4750 
Q 3056 4750 3426 4639 
Q 3797 4528 4122 4306 
z
" transform="scale(0.015625)"/>
      </defs>
      <use xlink:href="#DejaVuSans-50"/>
      <use xlink:href="#DejaVuSans-4c" transform="translate(60.302734 0)"/>
      <use xlink:href="#DejaVuSans-41" transform="translate(118.265625 0)"/>
      <use xlink:href="#DejaVuSans-43" transform="translate(184.923828 0)"/>
     </g>
    </g>
    <g id="line2d_30">
     <path d="M 352.615938 70.976562 
L 372.615938 70.976562 
" style="fill: none; stroke: #ff7f0e; stroke-width: 2; stroke-linecap: square"/>
    </g>
    <g id="line2d_31"/>
    <g id="text_19">
     <!-- DUL005 -->
     <g transform="translate(380.615938 74.476562) scale(0.1 -0.1)">
      <defs>
       <path id="DejaVuSans-44" d="M 1259 4147 
L 1259 519 
L 2022 519 
Q 2988 519 3436 956 
Q 3884 1394 3884 2338 
Q 3884 3275 3436 3711 
Q 2988 4147 2022 4147 
L 1259 4147 
z
M 628 4666 
L 1925 4666 
Q 3281 4666 3915 4102 
Q 4550 3538 4550 2338 
Q 4550 1131 3912 565 
Q 3275 0 1925 0 
L 628 0 
L 628 4666 
z
" transform="scale(0.015625)"/>
       <path id="DejaVuSans-55" d="M 556 4666 
L 1191 4666 
L 1191 1831 
Q 1191 1081 1462 751 
Q 1734 422 2344 422 
Q 2950 422 3222 751 
Q 3494 1081 3494 1831 
L 3494 4666 
L 4128 4666 
L 4128 1753 
Q 4128 841 3676 375 
Q 3225 -91 2344 -91 
Q 1459 -91 1007 375 
Q 556 841 556 1753 
L 556 4666 
z
" transform="scale(0.015625)"/>
      </defs>
      <use xlink:href="#DejaVuSans-44"/>
      <use xlink:href="#DejaVuSans-55" transform="translate(77.001953 0)"/>
      <use xlink:href="#DejaVuSans-4c" transform="translate(150.195312 0)"/>
      <use xlink:href="#DejaVuSans-30" transform="translate(205.908203 0)"/>
      <use xlink:href="#DejaVuSans-30" transform="translate(269.53125 0)"/>
      <use xlink:href="#DejaVuSans-35" transform="translate(333.154297 0)"/>
     </g>
    </g>
    <g id="line2d_32">
     <path d="M 352.615938 85.654687 
L 372.615938 85.654687 
" style="fill: none; stroke: #d62728; stroke-width: 2; stroke-linecap: square"/>
    </g>
    <g id="line2d_33"/>
    <g id="text_20">
     <!-- DUL03 -->
     <g transform="translate(380.615938 89.154687) scale(0.1 -0.1)">
      <use xlink:href="#DejaVuSans-44"/>
      <use xlink:href="#DejaVuSans-55" transform="translate(77.001953 0)"/>
      <use xlink:href="#DejaVuSans-4c" transform="translate(150.195312 0)"/>
      <use xlink:href="#DejaVuSans-30" transform="translate(205.908203 0)"/>
      <use xlink:href="#DejaVuSans-33" transform="translate(269.53125 0)"/>
     </g>
    </g>
    <g id="line2d_34">
     <path d="M 352.615938 100.332812 
L 372.615938 100.332812 
" style="fill: none; stroke-dasharray: 3.7,1.6; stroke-dashoffset: 0; stroke: #d62728"/>
    </g>
    <g id="line2d_35">
     <g>
      <use xlink:href="#m04deef5b57" x="362.615938" y="100.332812" style="fill: #d62728; stroke: #000000; stroke-linejoin: miter"/>
     </g>
    </g>
    <g id="text_21">
     <!-- DUL03 (n=6) -->
     <g transform="translate(380.615938 103.832812) scale(0.1 -0.1)">
      <defs>
       <path id="DejaVuSans-20" transform="scale(0.015625)"/>
       <path id="DejaVuSans-28" d="M 1984 4856 
Q 1566 4138 1362 3434 
Q 1159 2731 1159 2009 
Q 1159 1288 1364 580 
Q 1569 -128 1984 -844 
L 1484 -844 
Q 1016 -109 783 600 
Q 550 1309 550 2009 
Q 550 2706 781 3412 
Q 1013 4119 1484 4856 
L 1984 4856 
z
" transform="scale(0.015625)"/>
       <path id="DejaVuSans-6e" d="M 3513 2113 
L 3513 0 
L 2938 0 
L 2938 2094 
Q 2938 2591 2744 2837 
Q 2550 3084 2163 3084 
Q 1697 3084 1428 2787 
Q 1159 2491 1159 1978 
L 1159 0 
L 581 0 
L 581 3500 
L 1159 3500 
L 1159 2956 
Q 1366 3272 1645 3428 
Q 1925 3584 2291 3584 
Q 2894 3584 3203 3211 
Q 3513 2838 3513 2113 
z
" transform="scale(0.015625)"/>
       <path id="DejaVuSans-3d" d="M 678 2906 
L 4684 2906 
L 4684 2381 
L 678 2381 
L 678 2906 
z
M 678 1631 
L 4684 1631 
L 4684 1100 
L 678 1100 
L 678 1631 
z
" transform="scale(0.015625)"/>
       <path id="DejaVuSans-29" d="M 513 4856 
L 1013 4856 
Q 1481 4119 1714 3412 
Q 1947 2706 1947 2009 
Q 1947 1309 1714 600 
Q 1481 -109 1013 -844 
L 513 -844 
Q 928 -128 1133 580 
Q 1338 1288 1338 2009 
Q 1338 2731 1133 3434 
Q 928 4138 513 4856 
z
" transform="scale(0.015625)"/>
      </defs>
      <use xlink:href="#DejaVuSans-44"/>
      <use xlink:href="#DejaVuSans-55" transform="translate(77.001953 0)"/>
      <use xlink:href="#DejaVuSans-4c" transform="translate(150.195312 0)"/>
      <use xlink:href="#DejaVuSans-30" transform="translate(205.908203 0)"/>
      <use xlink:href="#DejaVuSans-33" transform="translate(269.53125 0)"/>
      <use xlink:href="#DejaVuSans-20" transform="translate(333.154297 0)"/>
      <use xlink:href="#DejaVuSans-28" transform="translate(364.941406 0)"/>
      <use xlink:href="#DejaVuSans-6e" transform="translate(403.955078 0)"/>
      <use xlink:href="#DejaVuSans-3d" transform="translate(467.333984 0)"/>
      <use xlink:href="#DejaVuSans-36" transform="translate(551.123047 0)"/>
      <use xlink:href="#DejaVuSans-29" transform="translate(614.746094 0)"/>
     </g>
    </g>
    <g id="line2d_36">
     <path d="M 352.615938 115.010937 
L 372.615938 115.010937 
" style="fill: none; stroke: #1f77b4; stroke-width: 2; stroke-linecap: square"/>
    </g>
    <g id="line2d_37"/>
    <g id="text_22">
     <!-- DUL1 -->
     <g transform="translate(380.615938 118.510937) scale(0.1 -0.1)">
      <use xlink:href="#DejaVuSans-44"/>
      <use xlink:href="#DejaVuSans-55" transform="translate(77.001953 0)"/>
      <use xlink:href="#DejaVuSans-4c" transform="translate(150.195312 0)"/>
      <use xlink:href="#DejaVuSans-31" transform="translate(205.908203 0)"/>
     </g>
    </g>
    <g id="line2d_38">
     <path d="M 352.615938 129.689062 
L 372.615938 129.689062 
" style="fill: none; stroke-dasharray: 3.7,1.6; stroke-dashoffset: 0; stroke: #1f77b4"/>
    </g>
    <g id="line2d_39">
     <g>
      <use xlink:href="#m67207eaee5" x="362.615938" y="129.689062" style="fill: #1f77b4; stroke: #000000; stroke-linejoin: miter"/>
     </g>
    </g>
    <g id="text_23">
     <!-- DUL1 (n=5) -->
     <g transform="translate(380.615938 133.189062) scale(0.1 -0.1)">
      <use xlink:href="#DejaVuSans-44"/>
      <use xlink:href="#DejaVuSans-55" transform="translate(77.001953 0)"/>
      <use xlink:href="#DejaVuSans-4c" transform="translate(150.195312 0)"/>
      <use xlink:href="#DejaVuSans-31" transform="translate(205.908203 0)"/>
      <use xlink:href="#DejaVuSans-20" transform="translate(269.53125 0)"/>
      <use xlink:href="#DejaVuSans-28" transform="translate(301.318359 0)"/>
      <use xlink:href="#DejaVuSans-6e" transform="translate(340.332031 0)"/>
      <use xlink:href="#DejaVuSans-3d" transform="translate(403.710938 0)"/>
      <use xlink:href="#DejaVuSans-35" transform="translate(487.5 0)"/>
      <use xlink:href="#DejaVuSans-29" transform="translate(551.123047 0)"/>
     </g>
    </g>
    <g id="line2d_40">
     <path d="M 352.615938 144.367187 
L 372.615938 144.367187 
" style="fill: none; stroke: #e377c2; stroke-width: 2; stroke-linecap: square"/>
    </g>
    <g id="line2d_41"/>
    <g id="text_24">
     <!-- DUL3 -->
     <g transform="translate(380.615938 147.867187) scale(0.1 -0.1)">
      <use xlink:href="#DejaVuSans-44"/>
      <use xlink:href="#DejaVuSans-55" transform="translate(77.001953 0)"/>
      <use xlink:href="#DejaVuSans-4c" transform="translate(150.195312 0)"/>
      <use xlink:href="#DejaVuSans-33" transform="translate(205.908203 0)"/>
     </g>
    </g>
    <g id="line2d_42">
     <path d="M 352.615938 159.045312 
L 372.615938 159.045312 
" style="fill: none; stroke-dasharray: 3.7,1.6; stroke-dashoffset: 0; stroke: #e377c2"/>
    </g>
    <g id="line2d_43">
     <g>
      <use xlink:href="#m50679e511a" x="362.615938" y="159.045312" style="fill: #e377c2; stroke: #000000; stroke-linejoin: miter"/>
     </g>
    </g>
    <g id="text_25">
     <!-- DUL3 (n=3) -->
     <g transform="translate(380.615938 162.545312) scale(0.1 -0.1)">
      <use xlink:href="#DejaVuSans-44"/>
      <use xlink:href="#DejaVuSans-55" transform="translate(77.001953 0)"/>
      <use xlink:href="#DejaVuSans-4c" transform="translate(150.195312 0)"/>
      <use xlink:href="#DejaVuSans-33" transform="translate(205.908203 0)"/>
      <use xlink:href="#DejaVuSans-20" transform="translate(269.53125 0)"/>
      <use xlink:href="#DejaVuSans-28" transform="translate(301.318359 0)"/>
      <use xlink:href="#DejaVuSans-6e" transform="translate(340.332031 0)"/>
      <use xlink:href="#DejaVuSans-3d" transform="translate(403.710938 0)"/>
      <use xlink:href="#DejaVuSans-33" transform="translate(487.5 0)"/>
      <use xlink:href="#DejaVuSans-29" transform="translate(551.123047 0)"/>
     </g>
    </g>
    <g id="line2d_44">
     <path d="M 352.615938 173.723437 
L 372.615938 173.723437 
" style="fill: none; stroke: #17becf; stroke-width: 2; stroke-linecap: square"/>
    </g>
    <g id="line2d_45"/>
    <g id="text_26">
     <!-- DUL5 -->
     <g transform="translate(380.615938 177.223437) scale(0.1 -0.1)">
      <use xlink:href="#DejaVuSans-44"/>
      <use xlink:href="#DejaVuSans-55" transform="translate(77.001953 0)"/>
      <use xlink:href="#DejaVuSans-4c" transform="translate(150.195312 0)"/>
      <use xlink:href="#DejaVuSans-35" transform="translate(205.908203 0)"/>
     </g>
    </g>
    <g id="line2d_46">
     <path d="M 352.615938 188.401562 
L 372.615938 188.401562 
" style="fill: none; stroke-dasharray: 3.7,1.6; stroke-dashoffset: 0; stroke: #17becf"/>
    </g>
    <g id="line2d_47">
     <g>
      <use xlink:href="#m9c3e99720a" x="362.615938" y="188.401562" style="fill: #17becf; stroke: #000000; stroke-linejoin: miter"/>
     </g>
    </g>
    <g id="text_27">
     <!-- DUL5 (n=9) -->
     <g transform="translate(380.615938 191.901562) scale(0.1 -0.1)">
      <defs>
       <path id="DejaVuSans-39" d="M 703 97 
L 703 672 
Q 941 559 1184 500 
Q 1428 441 1663 441 
Q 2288 441 2617 861 
Q 2947 1281 2994 2138 
Q 2813 1869 2534 1725 
Q 2256 1581 1919 1581 
Q 1219 1581 811 2004 
Q 403 2428 403 3163 
Q 403 3881 828 4315 
Q 1253 4750 1959 4750 
Q 2769 4750 3195 4129 
Q 3622 3509 3622 2328 
Q 3622 1225 3098 567 
Q 2575 -91 1691 -91 
Q 1453 -91 1209 -44 
Q 966 3 703 97 
z
M 1959 2075 
Q 2384 2075 2632 2365 
Q 2881 2656 2881 3163 
Q 2881 3666 2632 3958 
Q 2384 4250 1959 4250 
Q 1534 4250 1286 3958 
Q 1038 3666 1038 3163 
Q 1038 2656 1286 2365 
Q 1534 2075 1959 2075 
z
" transform="scale(0.015625)"/>
      </defs>
      <use xlink:href="#DejaVuSans-44"/>
      <use xlink:href="#DejaVuSans-55" transform="translate(77.001953 0)"/>
      <use xlink:href="#DejaVuSans-4c" transform="translate(150.195312 0)"/>
      <use xlink:href="#DejaVuSans-35" transform="translate(205.908203 0)"/>
      <use xlink:href="#DejaVuSans-20" transform="translate(269.53125 0)"/>
      <use xlink:href="#DejaVuSans-28" transform="translate(301.318359 0)"/>
      <use xlink:href="#DejaVuSans-6e" transform="translate(340.332031 0)"/>
      <use xlink:href="#DejaVuSans-3d" transform="translate(403.710938 0)"/>
      <use xlink:href="#DejaVuSans-39" transform="translate(487.5 0)"/>
      <use xlink:href="#DejaVuSans-29" transform="translate(551.123047 0)"/>
     </g>
    </g>
    <g id="line2d_48">
     <path d="M 352.615938 203.079687 
L 372.615938 203.079687 
" style="fill: none; stroke: #8c564b; stroke-width: 2; stroke-linecap: square"/>
    </g>
    <g id="line2d_49"/>
    <g id="text_28">
     <!-- DUL8 -->
     <g transform="translate(380.615938 206.579687) scale(0.1 -0.1)">
      <defs>
       <path id="DejaVuSans-38" d="M 2034 2216 
Q 1584 2216 1326 1975 
Q 1069 1734 1069 1313 
Q 1069 891 1326 650 
Q 1584 409 2034 409 
Q 2484 409 2743 651 
Q 3003 894 3003 1313 
Q 3003 1734 2745 1975 
Q 2488 2216 2034 2216 
z
M 1403 2484 
Q 997 2584 770 2862 
Q 544 3141 544 3541 
Q 544 4100 942 4425 
Q 1341 4750 2034 4750 
Q 2731 4750 3128 4425 
Q 3525 4100 3525 3541 
Q 3525 3141 3298 2862 
Q 3072 2584 2669 2484 
Q 3125 2378 3379 2068 
Q 3634 1759 3634 1313 
Q 3634 634 3220 271 
Q 2806 -91 2034 -91 
Q 1263 -91 848 271 
Q 434 634 434 1313 
Q 434 1759 690 2068 
Q 947 2378 1403 2484 
z
M 1172 3481 
Q 1172 3119 1398 2916 
Q 1625 2713 2034 2713 
Q 2441 2713 2670 2916 
Q 2900 3119 2900 3481 
Q 2900 3844 2670 4047 
Q 2441 4250 2034 4250 
Q 1625 4250 1398 4047 
Q 1172 3844 1172 3481 
z
" transform="scale(0.015625)"/>
      </defs>
      <use xlink:href="#DejaVuSans-44"/>
      <use xlink:href="#DejaVuSans-55" transform="translate(77.001953 0)"/>
      <use xlink:href="#DejaVuSans-4c" transform="translate(150.195312 0)"/>
      <use xlink:href="#DejaVuSans-38" transform="translate(205.908203 0)"/>
     </g>
    </g>
    <g id="line2d_50">
     <path d="M 352.615938 217.757812 
L 372.615938 217.757812 
" style="fill: none; stroke-dasharray: 3.7,1.6; stroke-dashoffset: 0; stroke: #8c564b"/>
    </g>
    <g id="line2d_51">
     <g>
      <use xlink:href="#m04cbf107dd" x="362.615938" y="217.757812" style="fill: #8c564b; stroke: #000000; stroke-linejoin: miter"/>
     </g>
    </g>
    <g id="text_29">
     <!-- DUL8 (n=6) -->
     <g transform="translate(380.615938 221.257812) scale(0.1 -0.1)">
      <use xlink:href="#DejaVuSans-44"/>
      <use xlink:href="#DejaVuSans-55" transform="translate(77.001953 0)"/>
      <use xlink:href="#DejaVuSans-4c" transform="translate(150.195312 0)"/>
      <use xlink:href="#DejaVuSans-38" transform="translate(205.908203 0)"/>
      <use xlink:href="#DejaVuSans-20" transform="translate(269.53125 0)"/>
      <use xlink:href="#DejaVuSans-28" transform="translate(301.318359 0)"/>
      <use xlink:href="#DejaVuSans-6e" transform="translate(340.332031 0)"/>
      <use xlink:href="#DejaVuSans-3d" transform="translate(403.710938 0)"/>
      <use xlink:href="#DejaVuSans-36" transform="translate(487.5 0)"/>
      <use xlink:href="#DejaVuSans-29" transform="translate(551.123047 0)"/>
     </g>
    </g>
   </g>
  </g>
  <g id="text_30">
   <!-- Barrington2011a (T2DM) -->
   <g transform="translate(78.466719 26.196094) scale(0.25 -0.25)">
    <defs>
     <path id="DejaVuSans-Bold-42" d="M 2456 2859 
Q 2741 2859 2887 2984 
Q 3034 3109 3034 3353 
Q 3034 3594 2887 3720 
Q 2741 3847 2456 3847 
L 1791 3847 
L 1791 2859 
L 2456 2859 
z
M 2497 819 
Q 2859 819 3042 972 
Q 3225 1125 3225 1434 
Q 3225 1738 3044 1889 
Q 2863 2041 2497 2041 
L 1791 2041 
L 1791 819 
L 2497 819 
z
M 3616 2497 
Q 4003 2384 4215 2081 
Q 4428 1778 4428 1338 
Q 4428 663 3972 331 
Q 3516 0 2584 0 
L 588 0 
L 588 4666 
L 2394 4666 
Q 3366 4666 3802 4372 
Q 4238 4078 4238 3431 
Q 4238 3091 4078 2852 
Q 3919 2613 3616 2497 
z
" transform="scale(0.015625)"/>
     <path id="DejaVuSans-Bold-72" d="M 3138 2547 
Q 2991 2616 2845 2648 
Q 2700 2681 2553 2681 
Q 2122 2681 1889 2404 
Q 1656 2128 1656 1613 
L 1656 0 
L 538 0 
L 538 3500 
L 1656 3500 
L 1656 2925 
Q 1872 3269 2151 3426 
Q 2431 3584 2822 3584 
Q 2878 3584 2943 3579 
Q 3009 3575 3134 3559 
L 3138 2547 
z
" transform="scale(0.015625)"/>
     <path id="DejaVuSans-Bold-6f" d="M 2203 2784 
Q 1831 2784 1636 2517 
Q 1441 2250 1441 1747 
Q 1441 1244 1636 976 
Q 1831 709 2203 709 
Q 2569 709 2762 976 
Q 2956 1244 2956 1747 
Q 2956 2250 2762 2517 
Q 2569 2784 2203 2784 
z
M 2203 3584 
Q 3106 3584 3614 3096 
Q 4122 2609 4122 1747 
Q 4122 884 3614 396 
Q 3106 -91 2203 -91 
Q 1297 -91 786 396 
Q 275 884 275 1747 
Q 275 2609 786 3096 
Q 1297 3584 2203 3584 
z
" transform="scale(0.015625)"/>
     <path id="DejaVuSans-Bold-32" d="M 1844 884 
L 3897 884 
L 3897 0 
L 506 0 
L 506 884 
L 2209 2388 
Q 2438 2594 2547 2791 
Q 2656 2988 2656 3200 
Q 2656 3528 2436 3728 
Q 2216 3928 1850 3928 
Q 1569 3928 1234 3808 
Q 900 3688 519 3450 
L 519 4475 
Q 925 4609 1322 4679 
Q 1719 4750 2100 4750 
Q 2938 4750 3402 4381 
Q 3866 4013 3866 3353 
Q 3866 2972 3669 2642 
Q 3472 2313 2841 1759 
L 1844 884 
z
" transform="scale(0.015625)"/>
     <path id="DejaVuSans-Bold-30" d="M 2944 2338 
Q 2944 3213 2780 3570 
Q 2616 3928 2228 3928 
Q 1841 3928 1675 3570 
Q 1509 3213 1509 2338 
Q 1509 1453 1675 1090 
Q 1841 728 2228 728 
Q 2613 728 2778 1090 
Q 2944 1453 2944 2338 
z
M 4147 2328 
Q 4147 1169 3647 539 
Q 3147 -91 2228 -91 
Q 1306 -91 806 539 
Q 306 1169 306 2328 
Q 306 3491 806 4120 
Q 1306 4750 2228 4750 
Q 3147 4750 3647 4120 
Q 4147 3491 4147 2328 
z
" transform="scale(0.015625)"/>
     <path id="DejaVuSans-Bold-31" d="M 750 831 
L 1813 831 
L 1813 3847 
L 722 3622 
L 722 4441 
L 1806 4666 
L 2950 4666 
L 2950 831 
L 4013 831 
L 4013 0 
L 750 0 
L 750 831 
z
" transform="scale(0.015625)"/>
     <path id="DejaVuSans-Bold-28" d="M 2413 -844 
L 1484 -844 
Q 1006 -72 778 623 
Q 550 1319 550 2003 
Q 550 2688 779 3389 
Q 1009 4091 1484 4856 
L 2413 4856 
Q 2013 4116 1813 3408 
Q 1613 2700 1613 2009 
Q 1613 1319 1811 609 
Q 2009 -100 2413 -844 
z
" transform="scale(0.015625)"/>
     <path id="DejaVuSans-Bold-54" d="M 31 4666 
L 4331 4666 
L 4331 3756 
L 2784 3756 
L 2784 0 
L 1581 0 
L 1581 3756 
L 31 3756 
L 31 4666 
z
" transform="scale(0.015625)"/>
     <path id="DejaVuSans-Bold-44" d="M 1791 3756 
L 1791 909 
L 2222 909 
Q 2959 909 3348 1275 
Q 3738 1641 3738 2338 
Q 3738 3031 3350 3393 
Q 2963 3756 2222 3756 
L 1791 3756 
z
M 588 4666 
L 1856 4666 
Q 2919 4666 3439 4514 
Q 3959 4363 4331 4000 
Q 4659 3684 4818 3271 
Q 4978 2859 4978 2338 
Q 4978 1809 4818 1395 
Q 4659 981 4331 666 
Q 3956 303 3431 151 
Q 2906 0 1856 0 
L 588 0 
L 588 4666 
z
" transform="scale(0.015625)"/>
     <path id="DejaVuSans-Bold-29" d="M 513 -844 
Q 913 -100 1113 609 
Q 1313 1319 1313 2009 
Q 1313 2700 1113 3408 
Q 913 4116 513 4856 
L 1441 4856 
Q 1916 4091 2145 3389 
Q 2375 2688 2375 2003 
Q 2375 1319 2147 623 
Q 1919 -72 1441 -844 
L 513 -844 
z
" transform="scale(0.015625)"/>
    </defs>
    <use xlink:href="#DejaVuSans-Bold-42"/>
    <use xlink:href="#DejaVuSans-Bold-61" transform="translate(76.220703 0)"/>
    <use xlink:href="#DejaVuSans-Bold-72" transform="translate(143.701172 0)"/>
    <use xlink:href="#DejaVuSans-Bold-72" transform="translate(193.017578 0)"/>
    <use xlink:href="#DejaVuSans-Bold-69" transform="translate(242.333984 0)"/>
    <use xlink:href="#DejaVuSans-Bold-6e" transform="translate(276.611328 0)"/>
    <use xlink:href="#DejaVuSans-Bold-67" transform="translate(347.802734 0)"/>
    <use xlink:href="#DejaVuSans-Bold-74" transform="translate(419.384766 0)"/>
    <use xlink:href="#DejaVuSans-Bold-6f" transform="translate(467.1875 0)"/>
    <use xlink:href="#DejaVuSans-Bold-6e" transform="translate(535.888672 0)"/>
    <use xlink:href="#DejaVuSans-Bold-32" transform="translate(607.080078 0)"/>
    <use xlink:href="#DejaVuSans-Bold-30" transform="translate(676.660156 0)"/>
    <use xlink:href="#DejaVuSans-Bold-31" transform="translate(746.240234 0)"/>
    <use xlink:href="#DejaVuSans-Bold-31" transform="translate(815.820312 0)"/>
    <use xlink:href="#DejaVuSans-Bold-61" transform="translate(885.400391 0)"/>
    <use xlink:href="#DejaVuSans-Bold-20" transform="translate(952.880859 0)"/>
    <use xlink:href="#DejaVuSans-Bold-28" transform="translate(987.695312 0)"/>
    <use xlink:href="#DejaVuSans-Bold-54" transform="translate(1033.398438 0)"/>
    <use xlink:href="#DejaVuSans-Bold-32" transform="translate(1101.611328 0)"/>
    <use xlink:href="#DejaVuSans-Bold-44" transform="translate(1171.191406 0)"/>
    <use xlink:href="#DejaVuSans-Bold-4d" transform="translate(1254.199219 0)"/>
    <use xlink:href="#DejaVuSans-Bold-29" transform="translate(1353.710938 0)"/>
   </g>
  </g>
 </g>
 <defs>
  <clipPath id="p44e4828518">
   <rect x="64.3925" y="43.2" width="390.6" height="277.2"/>
  </clipPath>
 </defs>
</svg>
