<?xml version="1.0" encoding="utf-8" standalone="no"?>
<!DOCTYPE svg PUBLIC "-//W3C//DTD SVG 1.1//EN"
  "http://www.w3.org/Graphics/SVG/1.1/DTD/svg11.dtd">
<svg xmlns:xlink="http://www.w3.org/1999/xlink" width="860.585469pt" height="370.537812pt" viewBox="0 0 860.585469 370.537812" xmlns="http://www.w3.org/2000/svg" version="1.1">
 <metadata>
  <rdf:RDF xmlns:dc="http://purl.org/dc/elements/1.1/" xmlns:cc="http://creativecommons.org/ns#" xmlns:rdf="http://www.w3.org/1999/02/22-rdf-syntax-ns#">
   <cc:Work>
    <dc:type rdf:resource="http://purl.org/dc/dcmitype/StillImage"/>
    <dc:date>2026-01-30T14:56:53.041593</dc:date>
    <dc:format>image/svg+xml</dc:format>
    <dc:creator>
     <cc:Agent>
      <dc:title>Matplotlib v3.10.7, https://matplotlib.org/</dc:title>
     </cc:Agent>
    </dc:creator>
   </cc:Work>
  </rdf:RDF>
 </metadata>
 <defs>
  <style type="text/css">*{stroke-linejoin: round; stroke-linecap: butt}</style>
 </defs>
 <g id="figure_1">
  <g id="patch_1">
   <path d="M 0 370.537812 
L 860.585469 370.537812 
L 860.585469 0 
L 0 0 
z
" style="fill: #ffffff"/>
  </g>
  <g id="axes_1">
   <g id="patch_2">
    <path d="M 72.185469 320.4 
L 411.837643 320.4 
L 411.837643 43.2 
L 72.185469 43.2 
z
" style="fill: #ffffff"/>
   </g>
   <g id="matplotlib.axis_1">
    <g id="xtick_1">
     <g id="line2d_1">
      <defs>
       <path id="mf423c98d18" d="M 0 0 
L 0 3.5 
" style="stroke: #000000; stroke-width: 0.8"/>
      </defs>
      <g>
       <use xlink:href="#mf423c98d18" x="87.624204" y="320.4" style="stroke: #000000; stroke-width: 0.8"/>
      </g>
     </g>
     <g id="text_1">
      <!-- 0 -->
      <g transform="translate(82.852329 338.797656) scale(0.15 -0.15)">
       <defs>
        <path id="DejaVuSans-30" d="M 2034 4250 
Q 1547 4250 1301 3770 
Q 1056 3291 1056 2328 
Q 1056 1369 1301 889 
Q 1547 409 2034 409 
Q 2525 409 2770 889 
Q 3016 1369 3016 2328 
Q 3016 3291 2770 3770 
Q 2525 4250 2034 4250 
z
M 2034 4750 
Q 2819 4750 3233 4129 
Q 3647 3509 3647 2328 
Q 3647 1150 3233 529 
Q 2819 -91 2034 -91 
Q 1250 -91 836 529 
Q 422 1150 422 2328 
Q 422 3509 836 4129 
Q 1250 4750 2034 4750 
z
" transform="scale(0.015625)"/>
       </defs>
       <use xlink:href="#DejaVuSans-30"/>
      </g>
     </g>
    </g>
    <g id="xtick_2">
     <g id="line2d_2">
      <g>
       <use xlink:href="#mf423c98d18" x="184.404335" y="320.4" style="stroke: #000000; stroke-width: 0.8"/>
      </g>
     </g>
     <g id="text_2">
      <!-- 2 -->
      <g transform="translate(179.63246 338.797656) scale(0.15 -0.15)">
       <defs>
        <path id="DejaVuSans-32" d="M 1228 531 
L 3431 531 
L 3431 0 
L 469 0 
L 469 531 
Q 828 903 1448 1529 
Q 2069 2156 2228 2338 
Q 2531 2678 2651 2914 
Q 2772 3150 2772 3378 
Q 2772 3750 2511 3984 
Q 2250 4219 1831 4219 
Q 1534 4219 1204 4116 
Q 875 4013 500 3803 
L 500 4441 
Q 881 4594 1212 4672 
Q 1544 4750 1819 4750 
Q 2544 4750 2975 4387 
Q 3406 4025 3406 3419 
Q 3406 3131 3298 2873 
Q 3191 2616 2906 2266 
Q 2828 2175 2409 1742 
Q 1991 1309 1228 531 
z
" transform="scale(0.015625)"/>
       </defs>
       <use xlink:href="#DejaVuSans-32"/>
      </g>
     </g>
    </g>
    <g id="xtick_3">
     <g id="line2d_3">
      <g>
       <use xlink:href="#mf423c98d18" x="281.184466" y="320.4" style="stroke: #000000; stroke-width: 0.8"/>
      </g>
     </g>
     <g id="text_3">
      <!-- 4 -->
      <g transform="translate(276.412591 338.797656) scale(0.15 -0.15)">
       <defs>
        <path id="DejaVuSans-34" d="M 2419 4116 
L 825 1625 
L 2419 1625 
L 2419 4116 
z
M 2253 4666 
L 3047 4666 
L 3047 1625 
L 3713 1625 
L 3713 1100 
L 3047 1100 
L 3047 0 
L 2419 0 
L 2419 1100 
L 313 1100 
L 313 1709 
L 2253 4666 
z
" transform="scale(0.015625)"/>
       </defs>
       <use xlink:href="#DejaVuSans-34"/>
      </g>
     </g>
    </g>
    <g id="xtick_4">
     <g id="line2d_4">
      <g>
       <use xlink:href="#mf423c98d18" x="377.964597" y="320.4" style="stroke: #000000; stroke-width: 0.8"/>
      </g>
     </g>
     <g id="text_4">
      <!-- 6 -->
      <g transform="translate(373.192722 338.797656) scale(0.15 -0.15)">
       <defs>
        <path id="DejaVuSans-36" d="M 2113 2584 
Q 1688 2584 1439 2293 
Q 1191 2003 1191 1497 
Q 1191 994 1439 701 
Q 1688 409 2113 409 
Q 2538 409 2786 701 
Q 3034 994 3034 1497 
Q 3034 2003 2786 2293 
Q 2538 2584 2113 2584 
z
M 3366 4563 
L 3366 3988 
Q 3128 4100 2886 4159 
Q 2644 4219 2406 4219 
Q 1781 4219 1451 3797 
Q 1122 3375 1075 2522 
Q 1259 2794 1537 2939 
Q 1816 3084 2150 3084 
Q 2853 3084 3261 2657 
Q 3669 2231 3669 1497 
Q 3669 778 3244 343 
Q 2819 -91 2113 -91 
Q 1303 -91 875 529 
Q 447 1150 447 2328 
Q 447 3434 972 4092 
Q 1497 4750 2381 4750 
Q 2619 4750 2861 4703 
Q 3103 4656 3366 4563 
z
" transform="scale(0.015625)"/>
       </defs>
       <use xlink:href="#DejaVuSans-36"/>
      </g>
     </g>
    </g>
    <g id="text_5">
     <!-- time [week] -->
     <g transform="translate(181.272806 359.594375) scale(0.18 -0.18)">
      <defs>
       <path id="DejaVuSans-Bold-74" d="M 1759 4494 
L 1759 3500 
L 2913 3500 
L 2913 2700 
L 1759 2700 
L 1759 1216 
Q 1759 972 1856 886 
Q 1953 800 2241 800 
L 2816 800 
L 2816 0 
L 1856 0 
Q 1194 0 917 276 
Q 641 553 641 1216 
L 641 2700 
L 84 2700 
L 84 3500 
L 641 3500 
L 641 4494 
L 1759 4494 
z
" transform="scale(0.015625)"/>
       <path id="DejaVuSans-Bold-69" d="M 538 3500 
L 1656 3500 
L 1656 0 
L 538 0 
L 538 3500 
z
M 538 4863 
L 1656 4863 
L 1656 3950 
L 538 3950 
L 538 4863 
z
" transform="scale(0.015625)"/>
       <path id="DejaVuSans-Bold-6d" d="M 3781 2919 
Q 3994 3244 4286 3414 
Q 4578 3584 4928 3584 
Q 5531 3584 5847 3212 
Q 6163 2841 6163 2131 
L 6163 0 
L 5038 0 
L 5038 1825 
Q 5041 1866 5042 1909 
Q 5044 1953 5044 2034 
Q 5044 2406 4934 2573 
Q 4825 2741 4581 2741 
Q 4263 2741 4089 2478 
Q 3916 2216 3909 1719 
L 3909 0 
L 2784 0 
L 2784 1825 
Q 2784 2406 2684 2573 
Q 2584 2741 2328 2741 
Q 2006 2741 1831 2477 
Q 1656 2213 1656 1722 
L 1656 0 
L 531 0 
L 531 3500 
L 1656 3500 
L 1656 2988 
Q 1863 3284 2130 3434 
Q 2397 3584 2719 3584 
Q 3081 3584 3359 3409 
Q 3638 3234 3781 2919 
z
" transform="scale(0.015625)"/>
       <path id="DejaVuSans-Bold-65" d="M 4031 1759 
L 4031 1441 
L 1416 1441 
Q 1456 1047 1700 850 
Q 1944 653 2381 653 
Q 2734 653 3104 758 
Q 3475 863 3866 1075 
L 3866 213 
Q 3469 63 3072 -14 
Q 2675 -91 2278 -91 
Q 1328 -91 801 392 
Q 275 875 275 1747 
Q 275 2603 792 3093 
Q 1309 3584 2216 3584 
Q 3041 3584 3536 3087 
Q 4031 2591 4031 1759 
z
M 2881 2131 
Q 2881 2450 2695 2645 
Q 2509 2841 2209 2841 
Q 1884 2841 1681 2658 
Q 1478 2475 1428 2131 
L 2881 2131 
z
" transform="scale(0.015625)"/>
       <path id="DejaVuSans-Bold-20" transform="scale(0.015625)"/>
       <path id="DejaVuSans-Bold-5b" d="M 550 4863 
L 2491 4863 
L 2491 4159 
L 1613 4159 
L 1613 -141 
L 2491 -141 
L 2491 -844 
L 550 -844 
L 550 4863 
z
" transform="scale(0.015625)"/>
       <path id="DejaVuSans-Bold-77" d="M 225 3500 
L 1313 3500 
L 1900 1088 
L 2491 3500 
L 3425 3500 
L 4013 1113 
L 4603 3500 
L 5691 3500 
L 4769 0 
L 3547 0 
L 2956 2406 
L 2369 0 
L 1147 0 
L 225 3500 
z
" transform="scale(0.015625)"/>
       <path id="DejaVuSans-Bold-6b" d="M 538 4863 
L 1656 4863 
L 1656 2216 
L 2944 3500 
L 4244 3500 
L 2534 1894 
L 4378 0 
L 3022 0 
L 1656 1459 
L 1656 0 
L 538 0 
L 538 4863 
z
" transform="scale(0.015625)"/>
       <path id="DejaVuSans-Bold-5d" d="M 2375 -844 
L 434 -844 
L 434 -141 
L 1313 -141 
L 1313 4159 
L 434 4159 
L 434 4863 
L 2375 4863 
L 2375 -844 
z
" transform="scale(0.015625)"/>
      </defs>
      <use xlink:href="#DejaVuSans-Bold-74"/>
      <use xlink:href="#DejaVuSans-Bold-69" transform="translate(47.802734 0)"/>
      <use xlink:href="#DejaVuSans-Bold-6d" transform="translate(82.080078 0)"/>
      <use xlink:href="#DejaVuSans-Bold-65" transform="translate(186.279297 0)"/>
      <use xlink:href="#DejaVuSans-Bold-20" transform="translate(254.101562 0)"/>
      <use xlink:href="#DejaVuSans-Bold-5b" transform="translate(288.916016 0)"/>
      <use xlink:href="#DejaVuSans-Bold-77" transform="translate(334.619141 0)"/>
      <use xlink:href="#DejaVuSans-Bold-65" transform="translate(427.001953 0)"/>
      <use xlink:href="#DejaVuSans-Bold-65" transform="translate(494.824219 0)"/>
      <use xlink:href="#DejaVuSans-Bold-6b" transform="translate(562.646484 0)"/>
      <use xlink:href="#DejaVuSans-Bold-5d" transform="translate(629.150391 0)"/>
     </g>
    </g>
   </g>
   <g id="matplotlib.axis_2">
    <g id="ytick_1">
     <g id="line2d_5">
      <defs>
       <path id="m365f682bcb" d="M 0 0 
L -3.5 0 
" style="stroke: #000000; stroke-width: 0.8"/>
      </defs>
      <g>
       <use xlink:href="#m365f682bcb" x="72.185469" y="280.941174" style="stroke: #000000; stroke-width: 0.8"/>
      </g>
     </g>
     <g id="text_6">
      <!-- −1.5 -->
      <g transform="translate(28.76125 286.640002) scale(0.15 -0.15)">
       <defs>
        <path id="DejaVuSans-2212" d="M 678 2272 
L 4684 2272 
L 4684 1741 
L 678 1741 
L 678 2272 
z
" transform="scale(0.015625)"/>
        <path id="DejaVuSans-31" d="M 794 531 
L 1825 531 
L 1825 4091 
L 703 3866 
L 703 4441 
L 1819 4666 
L 2450 4666 
L 2450 531 
L 3481 531 
L 3481 0 
L 794 0 
L 794 531 
z
" transform="scale(0.015625)"/>
        <path id="DejaVuSans-2e" d="M 684 794 
L 1344 794 
L 1344 0 
L 684 0 
L 684 794 
z
" transform="scale(0.015625)"/>
        <path id="DejaVuSans-35" d="M 691 4666 
L 3169 4666 
L 3169 4134 
L 1269 4134 
L 1269 2991 
Q 1406 3038 1543 3061 
Q 1681 3084 1819 3084 
Q 2600 3084 3056 2656 
Q 3513 2228 3513 1497 
Q 3513 744 3044 326 
Q 2575 -91 1722 -91 
Q 1428 -91 1123 -41 
Q 819 9 494 109 
L 494 744 
Q 775 591 1075 516 
Q 1375 441 1709 441 
Q 2250 441 2565 725 
Q 2881 1009 2881 1497 
Q 2881 1984 2565 2268 
Q 2250 2553 1709 2553 
Q 1456 2553 1204 2497 
Q 953 2441 691 2322 
L 691 4666 
z
" transform="scale(0.015625)"/>
       </defs>
       <use xlink:href="#DejaVuSans-2212"/>
       <use xlink:href="#DejaVuSans-31" transform="translate(83.789062 0)"/>
       <use xlink:href="#DejaVuSans-2e" transform="translate(147.412109 0)"/>
       <use xlink:href="#DejaVuSans-35" transform="translate(179.199219 0)"/>
      </g>
     </g>
    </g>
    <g id="ytick_2">
     <g id="line2d_6">
      <g>
       <use xlink:href="#m365f682bcb" x="72.185469" y="226.852306" style="stroke: #000000; stroke-width: 0.8"/>
      </g>
     </g>
     <g id="text_7">
      <!-- −1.0 -->
      <g transform="translate(28.76125 232.551134) scale(0.15 -0.15)">
       <use xlink:href="#DejaVuSans-2212"/>
       <use xlink:href="#DejaVuSans-31" transform="translate(83.789062 0)"/>
       <use xlink:href="#DejaVuSans-2e" transform="translate(147.412109 0)"/>
       <use xlink:href="#DejaVuSans-30" transform="translate(179.199219 0)"/>
      </g>
     </g>
    </g>
    <g id="ytick_3">
     <g id="line2d_7">
      <g>
       <use xlink:href="#m365f682bcb" x="72.185469" y="172.763438" style="stroke: #000000; stroke-width: 0.8"/>
      </g>
     </g>
     <g id="text_8">
      <!-- −0.5 -->
      <g transform="translate(28.76125 178.462267) scale(0.15 -0.15)">
       <use xlink:href="#DejaVuSans-2212"/>
       <use xlink:href="#DejaVuSans-30" transform="translate(83.789062 0)"/>
       <use xlink:href="#DejaVuSans-2e" transform="translate(147.412109 0)"/>
       <use xlink:href="#DejaVuSans-35" transform="translate(179.199219 0)"/>
      </g>
     </g>
    </g>
    <g id="ytick_4">
     <g id="line2d_8">
      <g>
       <use xlink:href="#m365f682bcb" x="72.185469" y="118.674571" style="stroke: #000000; stroke-width: 0.8"/>
      </g>
     </g>
     <g id="text_9">
      <!-- 0.0 -->
      <g transform="translate(41.330781 124.373399) scale(0.15 -0.15)">
       <use xlink:href="#DejaVuSans-30"/>
       <use xlink:href="#DejaVuSans-2e" transform="translate(63.623047 0)"/>
       <use xlink:href="#DejaVuSans-30" transform="translate(95.410156 0)"/>
      </g>
     </g>
    </g>
    <g id="ytick_5">
     <g id="line2d_9">
      <g>
       <use xlink:href="#m365f682bcb" x="72.185469" y="64.585703" style="stroke: #000000; stroke-width: 0.8"/>
      </g>
     </g>
     <g id="text_10">
      <!-- 0.5 -->
      <g transform="translate(41.330781 70.284531) scale(0.15 -0.15)">
       <use xlink:href="#DejaVuSans-30"/>
       <use xlink:href="#DejaVuSans-2e" transform="translate(63.623047 0)"/>
       <use xlink:href="#DejaVuSans-35" transform="translate(95.410156 0)"/>
      </g>
     </g>
    </g>
    <g id="text_11">
     <!-- HbA1c change [percent] -->
     <g transform="translate(20.877187 304.731562) rotate(-90) scale(0.18 -0.18)">
      <defs>
       <path id="DejaVuSans-Bold-48" d="M 588 4666 
L 1791 4666 
L 1791 2888 
L 3566 2888 
L 3566 4666 
L 4769 4666 
L 4769 0 
L 3566 0 
L 3566 1978 
L 1791 1978 
L 1791 0 
L 588 0 
L 588 4666 
z
" transform="scale(0.015625)"/>
       <path id="DejaVuSans-Bold-62" d="M 2400 722 
Q 2759 722 2948 984 
Q 3138 1247 3138 1747 
Q 3138 2247 2948 2509 
Q 2759 2772 2400 2772 
Q 2041 2772 1848 2508 
Q 1656 2244 1656 1747 
Q 1656 1250 1848 986 
Q 2041 722 2400 722 
z
M 1656 2988 
Q 1888 3294 2169 3439 
Q 2450 3584 2816 3584 
Q 3463 3584 3878 3070 
Q 4294 2556 4294 1747 
Q 4294 938 3878 423 
Q 3463 -91 2816 -91 
Q 2450 -91 2169 54 
Q 1888 200 1656 506 
L 1656 0 
L 538 0 
L 538 4863 
L 1656 4863 
L 1656 2988 
z
" transform="scale(0.015625)"/>
       <path id="DejaVuSans-Bold-41" d="M 3419 850 
L 1538 850 
L 1241 0 
L 31 0 
L 1759 4666 
L 3194 4666 
L 4922 0 
L 3713 0 
L 3419 850 
z
M 1838 1716 
L 3116 1716 
L 2478 3572 
L 1838 1716 
z
" transform="scale(0.015625)"/>
       <path id="DejaVuSans-Bold-31" d="M 750 831 
L 1813 831 
L 1813 3847 
L 722 3622 
L 722 4441 
L 1806 4666 
L 2950 4666 
L 2950 831 
L 4013 831 
L 4013 0 
L 750 0 
L 750 831 
z
" transform="scale(0.015625)"/>
       <path id="DejaVuSans-Bold-63" d="M 3366 3391 
L 3366 2478 
Q 3138 2634 2908 2709 
Q 2678 2784 2431 2784 
Q 1963 2784 1702 2511 
Q 1441 2238 1441 1747 
Q 1441 1256 1702 982 
Q 1963 709 2431 709 
Q 2694 709 2930 787 
Q 3166 866 3366 1019 
L 3366 103 
Q 3103 6 2833 -42 
Q 2563 -91 2291 -91 
Q 1344 -91 809 395 
Q 275 881 275 1747 
Q 275 2613 809 3098 
Q 1344 3584 2291 3584 
Q 2566 3584 2833 3536 
Q 3100 3488 3366 3391 
z
" transform="scale(0.015625)"/>
       <path id="DejaVuSans-Bold-68" d="M 4056 2131 
L 4056 0 
L 2931 0 
L 2931 347 
L 2931 1625 
Q 2931 2084 2911 2256 
Q 2891 2428 2841 2509 
Q 2775 2619 2662 2680 
Q 2550 2741 2406 2741 
Q 2056 2741 1856 2470 
Q 1656 2200 1656 1722 
L 1656 0 
L 538 0 
L 538 4863 
L 1656 4863 
L 1656 2988 
Q 1909 3294 2193 3439 
Q 2478 3584 2822 3584 
Q 3428 3584 3742 3212 
Q 4056 2841 4056 2131 
z
" transform="scale(0.015625)"/>
       <path id="DejaVuSans-Bold-61" d="M 2106 1575 
Q 1756 1575 1579 1456 
Q 1403 1338 1403 1106 
Q 1403 894 1545 773 
Q 1688 653 1941 653 
Q 2256 653 2472 879 
Q 2688 1106 2688 1447 
L 2688 1575 
L 2106 1575 
z
M 3816 1997 
L 3816 0 
L 2688 0 
L 2688 519 
Q 2463 200 2181 54 
Q 1900 -91 1497 -91 
Q 953 -91 614 226 
Q 275 544 275 1050 
Q 275 1666 698 1953 
Q 1122 2241 2028 2241 
L 2688 2241 
L 2688 2328 
Q 2688 2594 2478 2717 
Q 2269 2841 1825 2841 
Q 1466 2841 1156 2769 
Q 847 2697 581 2553 
L 581 3406 
Q 941 3494 1303 3539 
Q 1666 3584 2028 3584 
Q 2975 3584 3395 3211 
Q 3816 2838 3816 1997 
z
" transform="scale(0.015625)"/>
       <path id="DejaVuSans-Bold-6e" d="M 4056 2131 
L 4056 0 
L 2931 0 
L 2931 347 
L 2931 1631 
Q 2931 2084 2911 2256 
Q 2891 2428 2841 2509 
Q 2775 2619 2662 2680 
Q 2550 2741 2406 2741 
Q 2056 2741 1856 2470 
Q 1656 2200 1656 1722 
L 1656 0 
L 538 0 
L 538 3500 
L 1656 3500 
L 1656 2988 
Q 1909 3294 2193 3439 
Q 2478 3584 2822 3584 
Q 3428 3584 3742 3212 
Q 4056 2841 4056 2131 
z
" transform="scale(0.015625)"/>
       <path id="DejaVuSans-Bold-67" d="M 2919 594 
Q 2688 288 2409 144 
Q 2131 0 1766 0 
Q 1125 0 706 504 
Q 288 1009 288 1791 
Q 288 2575 706 3076 
Q 1125 3578 1766 3578 
Q 2131 3578 2409 3434 
Q 2688 3291 2919 2981 
L 2919 3500 
L 4044 3500 
L 4044 353 
Q 4044 -491 3511 -936 
Q 2978 -1381 1966 -1381 
Q 1638 -1381 1331 -1331 
Q 1025 -1281 716 -1178 
L 716 -306 
Q 1009 -475 1290 -558 
Q 1572 -641 1856 -641 
Q 2406 -641 2662 -400 
Q 2919 -159 2919 353 
L 2919 594 
z
M 2181 2772 
Q 1834 2772 1640 2515 
Q 1447 2259 1447 1791 
Q 1447 1309 1634 1061 
Q 1822 813 2181 813 
Q 2531 813 2725 1069 
Q 2919 1325 2919 1791 
Q 2919 2259 2725 2515 
Q 2531 2772 2181 2772 
z
" transform="scale(0.015625)"/>
       <path id="DejaVuSans-Bold-70" d="M 1656 506 
L 1656 -1331 
L 538 -1331 
L 538 3500 
L 1656 3500 
L 1656 2988 
Q 1888 3294 2169 3439 
Q 2450 3584 2816 3584 
Q 3463 3584 3878 3070 
Q 4294 2556 4294 1747 
Q 4294 938 3878 423 
Q 3463 -91 2816 -91 
Q 2450 -91 2169 54 
Q 1888 200 1656 506 
z
M 2400 2772 
Q 2041 2772 1848 2508 
Q 1656 2244 1656 1747 
Q 1656 1250 1848 986 
Q 2041 722 2400 722 
Q 2759 722 2948 984 
Q 3138 1247 3138 1747 
Q 3138 2247 2948 2509 
Q 2759 2772 2400 2772 
z
" transform="scale(0.015625)"/>
       <path id="DejaVuSans-Bold-72" d="M 3138 2547 
Q 2991 2616 2845 2648 
Q 2700 2681 2553 2681 
Q 2122 2681 1889 2404 
Q 1656 2128 1656 1613 
L 1656 0 
L 538 0 
L 538 3500 
L 1656 3500 
L 1656 2925 
Q 1872 3269 2151 3426 
Q 2431 3584 2822 3584 
Q 2878 3584 2943 3579 
Q 3009 3575 3134 3559 
L 3138 2547 
z
" transform="scale(0.015625)"/>
      </defs>
      <use xlink:href="#DejaVuSans-Bold-48"/>
      <use xlink:href="#DejaVuSans-Bold-62" transform="translate(83.691406 0)"/>
      <use xlink:href="#DejaVuSans-Bold-41" transform="translate(155.273438 0)"/>
      <use xlink:href="#DejaVuSans-Bold-31" transform="translate(232.666016 0)"/>
      <use xlink:href="#DejaVuSans-Bold-63" transform="translate(302.246094 0)"/>
      <use xlink:href="#DejaVuSans-Bold-20" transform="translate(361.523438 0)"/>
      <use xlink:href="#DejaVuSans-Bold-63" transform="translate(396.337891 0)"/>
      <use xlink:href="#DejaVuSans-Bold-68" transform="translate(455.615234 0)"/>
      <use xlink:href="#DejaVuSans-Bold-61" transform="translate(526.806641 0)"/>
      <use xlink:href="#DejaVuSans-Bold-6e" transform="translate(594.287109 0)"/>
      <use xlink:href="#DejaVuSans-Bold-67" transform="translate(665.478516 0)"/>
      <use xlink:href="#DejaVuSans-Bold-65" transform="translate(737.060547 0)"/>
      <use xlink:href="#DejaVuSans-Bold-20" transform="translate(804.882812 0)"/>
      <use xlink:href="#DejaVuSans-Bold-5b" transform="translate(839.697266 0)"/>
      <use xlink:href="#DejaVuSans-Bold-70" transform="translate(885.400391 0)"/>
      <use xlink:href="#DejaVuSans-Bold-65" transform="translate(956.982422 0)"/>
      <use xlink:href="#DejaVuSans-Bold-72" transform="translate(1024.804688 0)"/>
      <use xlink:href="#DejaVuSans-Bold-63" transform="translate(1074.121094 0)"/>
      <use xlink:href="#DejaVuSans-Bold-65" transform="translate(1133.398438 0)"/>
      <use xlink:href="#DejaVuSans-Bold-6e" transform="translate(1201.220703 0)"/>
      <use xlink:href="#DejaVuSans-Bold-74" transform="translate(1272.412109 0)"/>
      <use xlink:href="#DejaVuSans-Bold-5d" transform="translate(1320.214844 0)"/>
     </g>
    </g>
   </g>
   <g id="LineCollection_1">
    <path clip-path="url(#pfc2ac07749)" style="fill: none; stroke: #000000"/>
    <path d="M 329.574531 149.389079 
L 329.574531 55.8 
" clip-path="url(#pfc2ac07749)" style="fill: none; stroke: #000000"/>
   </g>
   <g id="LineCollection_2">
    <path clip-path="url(#pfc2ac07749)" style="fill: none; stroke: #ff7f0e"/>
    <path d="M 329.574531 238.064178 
L 329.574531 142.73459 
" clip-path="url(#pfc2ac07749)" style="fill: none; stroke: #ff7f0e"/>
   </g>
   <g id="LineCollection_3">
    <path clip-path="url(#pfc2ac07749)" style="fill: none; stroke: #d62728"/>
    <path d="M 329.574531 191.30847 
L 329.574531 92.747229 
" clip-path="url(#pfc2ac07749)" style="fill: none; stroke: #d62728"/>
   </g>
   <g id="LineCollection_4">
    <path clip-path="url(#pfc2ac07749)" style="fill: none; stroke: #1f77b4"/>
    <path d="M 329.574531 235.208438 
L 329.574531 120.352999 
" clip-path="url(#pfc2ac07749)" style="fill: none; stroke: #1f77b4"/>
   </g>
   <g id="LineCollection_5">
    <path clip-path="url(#pfc2ac07749)" style="fill: none; stroke: #e377c2"/>
    <path d="M 329.574531 307.8 
L 329.574531 187.618229 
" clip-path="url(#pfc2ac07749)" style="fill: none; stroke: #e377c2"/>
   </g>
   <g id="LineCollection_6">
    <path clip-path="url(#pfc2ac07749)" style="fill: none; stroke: #17becf"/>
    <path d="M 329.574531 270.726881 
L 329.574531 164.752699 
" clip-path="url(#pfc2ac07749)" style="fill: none; stroke: #17becf"/>
   </g>
   <g id="LineCollection_7">
    <path clip-path="url(#pfc2ac07749)" style="fill: none; stroke: #8c564b"/>
    <path d="M 329.574531 276.006146 
L 329.574531 168.937475 
" clip-path="url(#pfc2ac07749)" style="fill: none; stroke: #8c564b"/>
   </g>
   <g id="line2d_10">
    <path d="M 87.624204 118.674571 
L 124.497434 114.553248 
L 162.338465 110.548539 
L 201.195688 106.660976 
L 241.117492 102.891409 
L 282.106181 99.244906 
L 324.389881 95.707436 
L 367.94094 92.288217 
L 396.398907 90.170446 
L 396.398907 90.170446 
" clip-path="url(#pfc2ac07749)" style="fill: none; stroke: #000000; stroke-width: 2; stroke-linecap: square"/>
   </g>
   <g id="line2d_11">
    <path d="M 87.624204 118.674571 
L 329.574531 102.59454 
" clip-path="url(#pfc2ac07749)" style="fill: none; stroke-dasharray: 3.7,1.6; stroke-dashoffset: 0; stroke: #000000"/>
    <defs>
     <path id="ma14b4ceec7" d="M -3 3 
L 3 3 
L 3 -3 
L -3 -3 
z
" style="stroke: #000000; stroke-linejoin: miter"/>
    </defs>
    <g clip-path="url(#pfc2ac07749)">
     <use xlink:href="#ma14b4ceec7" x="87.624204" y="118.674571" style="stroke: #000000; stroke-linejoin: miter"/>
     <use xlink:href="#ma14b4ceec7" x="329.574531" y="102.59454" style="stroke: #000000; stroke-linejoin: miter"/>
    </g>
   </g>
   <g id="line2d_12">
    <path d="M 87.624204 118.674571 
L 119.319697 115.343873 
L 153.144353 112.020116 
L 186.678668 108.956977 
L 219.632303 106.156728 
L 255.779681 103.310857 
L 292.821124 100.631545 
L 329.113674 98.22835 
L 373.471234 95.519401 
L 396.398907 94.199156 
L 396.398907 94.199156 
" clip-path="url(#pfc2ac07749)" style="fill: none; stroke: #ff7f0e; stroke-width: 2; stroke-linecap: square"/>
   </g>
   <g id="line2d_13">
    <path d="M 87.624204 118.674571 
L 329.574531 190.399384 
" clip-path="url(#pfc2ac07749)" style="fill: none; stroke-dasharray: 3.7,1.6; stroke-dashoffset: 0; stroke: #ff7f0e"/>
    <defs>
     <path id="ma08a26cf22" d="M -3 3 
L 3 3 
L 3 -3 
L -3 -3 
z
" style="stroke: #000000; stroke-linejoin: miter"/>
    </defs>
    <g clip-path="url(#pfc2ac07749)">
     <use xlink:href="#ma08a26cf22" x="87.624204" y="118.674571" style="fill: #ff7f0e; stroke: #000000; stroke-linejoin: miter"/>
     <use xlink:href="#ma08a26cf22" x="329.574531" y="190.399384" style="fill: #ff7f0e; stroke: #000000; stroke-linejoin: miter"/>
    </g>
   </g>
   <g id="line2d_14">
    <path d="M 87.624204 118.674571 
L 106.98023 115.09823 
L 125.997526 111.829957 
L 148.015006 108.271032 
L 165.96772 105.602619 
L 188.565881 102.481307 
L 206.857325 100.152369 
L 228.148954 97.681985 
L 250.359994 95.312035 
L 271.022552 93.355906 
L 295.8167 91.230114 
L 316.555299 89.693659 
L 346.165411 87.743228 
L 388.103468 85.212024 
L 396.398907 84.734316 
L 396.398907 84.734316 
" clip-path="url(#pfc2ac07749)" style="fill: none; stroke: #d62728; stroke-width: 2; stroke-linecap: square"/>
   </g>
   <g id="line2d_15">
    <path d="M 87.624204 118.674571 
L 329.574531 142.02785 
" clip-path="url(#pfc2ac07749)" style="fill: none; stroke-dasharray: 3.7,1.6; stroke-dashoffset: 0; stroke: #d62728"/>
    <defs>
     <path id="m7743148312" d="M -3 3 
L 3 3 
L 3 -3 
L -3 -3 
z
" style="stroke: #000000; stroke-linejoin: miter"/>
    </defs>
    <g clip-path="url(#pfc2ac07749)">
     <use xlink:href="#m7743148312" x="87.624204" y="118.674571" style="fill: #d62728; stroke: #000000; stroke-linejoin: miter"/>
     <use xlink:href="#m7743148312" x="329.574531" y="142.02785" style="fill: #d62728; stroke: #000000; stroke-linejoin: miter"/>
    </g>
   </g>
   <g id="line2d_16">
    <path d="M 87.624204 118.674571 
L 100.495961 115.426698 
L 110.948215 113.033423 
L 122.900562 110.532912 
L 137.853092 107.642323 
L 149.224757 105.634068 
L 159.967352 103.972126 
L 172.645549 102.245452 
L 188.953001 100.260043 
L 200.324666 99.073483 
L 212.180232 98.06953 
L 227.035983 97.047198 
L 243.682165 96.114375 
L 255.682901 95.679028 
L 270.199921 95.387571 
L 289.249477 95.234706 
L 302.03828 95.348687 
L 317.131372 95.719862 
L 340.059046 96.531907 
L 396.398907 98.798463 
L 396.398907 98.798463 
" clip-path="url(#pfc2ac07749)" style="fill: none; stroke: #1f77b4; stroke-width: 2; stroke-linecap: square"/>
   </g>
   <g id="line2d_17">
    <path d="M 87.624204 118.674571 
L 329.574531 177.780718 
" clip-path="url(#pfc2ac07749)" style="fill: none; stroke-dasharray: 3.7,1.6; stroke-dashoffset: 0; stroke: #1f77b4"/>
    <defs>
     <path id="ma176b9a3ca" d="M -3 3 
L 3 3 
L 3 -3 
L -3 -3 
z
" style="stroke: #000000; stroke-linejoin: miter"/>
    </defs>
    <g clip-path="url(#pfc2ac07749)">
     <use xlink:href="#ma176b9a3ca" x="87.624204" y="118.674571" style="fill: #1f77b4; stroke: #000000; stroke-linejoin: miter"/>
     <use xlink:href="#ma176b9a3ca" x="329.574531" y="177.780718" style="fill: #1f77b4; stroke: #000000; stroke-linejoin: miter"/>
    </g>
   </g>
   <g id="line2d_18">
    <path d="M 87.624204 118.674571 
L 98.657139 117.912576 
L 107.415741 117.551612 
L 117.819605 117.356393 
L 132.094674 117.32805 
L 146.369743 117.494224 
L 156.338097 117.859444 
L 168.871124 118.555166 
L 188.32393 119.882602 
L 200.082716 120.865202 
L 213.486764 122.22714 
L 235.552634 124.726156 
L 249.827703 126.507006 
L 267.102957 128.914728 
L 295.586271 133.123473 
L 315.748798 136.379858 
L 380.268886 146.912492 
L 396.398907 149.448583 
L 396.398907 149.448583 
" clip-path="url(#pfc2ac07749)" style="fill: none; stroke: #e377c2; stroke-width: 2; stroke-linecap: square"/>
   </g>
   <g id="line2d_19">
    <path d="M 87.624204 118.674571 
L 329.574531 247.709115 
" clip-path="url(#pfc2ac07749)" style="fill: none; stroke-dasharray: 3.7,1.6; stroke-dashoffset: 0; stroke: #e377c2"/>
    <defs>
     <path id="mbc30d401a6" d="M -3 3 
L 3 3 
L 3 -3 
L -3 -3 
z
" style="stroke: #000000; stroke-linejoin: miter"/>
    </defs>
    <g clip-path="url(#pfc2ac07749)">
     <use xlink:href="#mbc30d401a6" x="87.624204" y="118.674571" style="fill: #e377c2; stroke: #000000; stroke-linejoin: miter"/>
     <use xlink:href="#mbc30d401a6" x="329.574531" y="247.709115" style="fill: #e377c2; stroke: #000000; stroke-linejoin: miter"/>
    </g>
   </g>
   <g id="line2d_20">
    <path d="M 87.624204 118.674571 
L 97.882898 118.644197 
L 105.431748 118.862586 
L 113.803229 119.33425 
L 124.110313 120.148299 
L 138.288602 121.507185 
L 148.111786 122.629412 
L 157.693019 123.959066 
L 169.742145 125.869721 
L 188.17876 129.04369 
L 200.663397 131.376278 
L 215.083636 134.317193 
L 240.488421 139.764547 
L 257.666894 143.649625 
L 293.051553 151.953522 
L 326.924599 160.13587 
L 361.604146 168.404438 
L 391.79033 175.369987 
L 396.398907 176.413266 
L 396.398907 176.413266 
" clip-path="url(#pfc2ac07749)" style="fill: none; stroke: #17becf; stroke-width: 2; stroke-linecap: square"/>
   </g>
   <g id="line2d_21">
    <path d="M 87.624204 118.674571 
L 329.574531 217.73979 
" clip-path="url(#pfc2ac07749)" style="fill: none; stroke-dasharray: 3.7,1.6; stroke-dashoffset: 0; stroke: #17becf"/>
    <defs>
     <path id="mb574c148a2" d="M -3 3 
L 3 3 
L 3 -3 
L -3 -3 
z
" style="stroke: #000000; stroke-linejoin: miter"/>
    </defs>
    <g clip-path="url(#pfc2ac07749)">
     <use xlink:href="#mb574c148a2" x="87.624204" y="118.674571" style="fill: #17becf; stroke: #000000; stroke-linejoin: miter"/>
     <use xlink:href="#mb574c148a2" x="329.574531" y="217.73979" style="fill: #17becf; stroke: #000000; stroke-linejoin: miter"/>
    </g>
   </g>
   <g id="line2d_22">
    <path d="M 87.624204 118.674571 
L 94.398813 117.115871 
L 98.995869 116.299782 
L 103.641316 115.70325 
L 108.722272 115.280874 
L 114.48069 115.031226 
L 121.35208 114.963282 
L 130.013901 115.111029 
L 140.659716 115.517691 
L 147.095594 115.977867 
L 153.773423 116.686303 
L 161.661004 117.756516 
L 172.016478 119.400386 
L 187.694859 122.136949 
L 197.711603 124.069684 
L 208.841318 126.460574 
L 226.261742 130.459653 
L 249.343803 135.961789 
L 273.925956 142.151762 
L 370.821301 166.586715 
L 396.398907 172.715577 
L 396.398907 172.715577 
" clip-path="url(#pfc2ac07749)" style="fill: none; stroke: #8c564b; stroke-width: 2; stroke-linecap: square"/>
   </g>
   <g id="line2d_23">
    <path d="M 87.624204 118.674571 
L 329.574531 222.471811 
" clip-path="url(#pfc2ac07749)" style="fill: none; stroke-dasharray: 3.7,1.6; stroke-dashoffset: 0; stroke: #8c564b"/>
    <defs>
     <path id="m52f3cf7592" d="M -3 3 
L 3 3 
L 3 -3 
L -3 -3 
z
" style="stroke: #000000; stroke-linejoin: miter"/>
    </defs>
    <g clip-path="url(#pfc2ac07749)">
     <use xlink:href="#m52f3cf7592" x="87.624204" y="118.674571" style="fill: #8c564b; stroke: #000000; stroke-linejoin: miter"/>
     <use xlink:href="#m52f3cf7592" x="329.574531" y="222.471811" style="fill: #8c564b; stroke: #000000; stroke-linejoin: miter"/>
    </g>
   </g>
   <g id="patch_3">
    <path d="M 72.185469 320.4 
L 72.185469 43.2 
" style="fill: none; stroke: #000000; stroke-width: 0.8; stroke-linejoin: miter; stroke-linecap: square"/>
   </g>
   <g id="patch_4">
    <path d="M 411.837643 320.4 
L 411.837643 43.2 
" style="fill: none; stroke: #000000; stroke-width: 0.8; stroke-linejoin: miter; stroke-linecap: square"/>
   </g>
   <g id="patch_5">
    <path d="M 72.185469 320.4 
L 411.837643 320.4 
" style="fill: none; stroke: #000000; stroke-width: 0.8; stroke-linejoin: miter; stroke-linecap: square"/>
   </g>
   <g id="patch_6">
    <path d="M 72.185469 43.2 
L 411.837643 43.2 
" style="fill: none; stroke: #000000; stroke-width: 0.8; stroke-linejoin: miter; stroke-linecap: square"/>
   </g>
   <g id="legend_1">
    <g id="patch_7">
     <path d="M 278.670455 315.4 
L 404.837643 315.4 
Q 406.837643 315.4 406.837643 313.4 
L 406.837643 108.90625 
Q 406.837643 106.90625 404.837643 106.90625 
L 278.670455 106.90625 
Q 276.670455 106.90625 276.670455 108.90625 
L 276.670455 313.4 
Q 276.670455 315.4 278.670455 315.4 
z
" style="fill: #ffffff; opacity: 0.8; stroke: #cccccc; stroke-linejoin: miter"/>
    </g>
    <g id="line2d_24">
     <path d="M 280.670455 115.004688 
L 300.670455 115.004688 
" style="fill: none; stroke: #000000; stroke-width: 2; stroke-linecap: square"/>
    </g>
    <g id="line2d_25"/>
    <g id="text_12">
     <!-- PLAC -->
     <g transform="translate(308.670455 118.504688) scale(0.1 -0.1)">
      <defs>
       <path id="DejaVuSans-50" d="M 1259 4147 
L 1259 2394 
L 2053 2394 
Q 2494 2394 2734 2622 
Q 2975 2850 2975 3272 
Q 2975 3691 2734 3919 
Q 2494 4147 2053 4147 
L 1259 4147 
z
M 628 4666 
L 2053 4666 
Q 2838 4666 3239 4311 
Q 3641 3956 3641 3272 
Q 3641 2581 3239 2228 
Q 2838 1875 2053 1875 
L 1259 1875 
L 1259 0 
L 628 0 
L 628 4666 
z
" transform="scale(0.015625)"/>
       <path id="DejaVuSans-4c" d="M 628 4666 
L 1259 4666 
L 1259 531 
L 3531 531 
L 3531 0 
L 628 0 
L 628 4666 
z
" transform="scale(0.015625)"/>
       <path id="DejaVuSans-41" d="M 2188 4044 
L 1331 1722 
L 3047 1722 
L 2188 4044 
z
M 1831 4666 
L 2547 4666 
L 4325 0 
L 3669 0 
L 3244 1197 
L 1141 1197 
L 716 0 
L 50 0 
L 1831 4666 
z
" transform="scale(0.015625)"/>
       <path id="DejaVuSans-43" d="M 4122 4306 
L 4122 3641 
Q 3803 3938 3442 4084 
Q 3081 4231 2675 4231 
Q 1875 4231 1450 3742 
Q 1025 3253 1025 2328 
Q 1025 1406 1450 917 
Q 1875 428 2675 428 
Q 3081 428 3442 575 
Q 3803 722 4122 1019 
L 4122 359 
Q 3791 134 3420 21 
Q 3050 -91 2638 -91 
Q 1578 -91 968 557 
Q 359 1206 359 2328 
Q 359 3453 968 4101 
Q 1578 4750 2638 4750 
Q 3056 4750 3426 4639 
Q 3797 4528 4122 4306 
z
" transform="scale(0.015625)"/>
      </defs>
      <use xlink:href="#DejaVuSans-50"/>
      <use xlink:href="#DejaVuSans-4c" transform="translate(60.302734 0)"/>
      <use xlink:href="#DejaVuSans-41" transform="translate(118.265625 0)"/>
      <use xlink:href="#DejaVuSans-43" transform="translate(184.923828 0)"/>
     </g>
    </g>
    <g id="LineCollection_8">
     <path d="M 290.670455 134.682813 
L 290.670455 124.682813 
" style="fill: none; stroke: #000000"/>
    </g>
    <g id="line2d_26">
     <path d="M 280.670455 129.682813 
L 300.670455 129.682813 
" style="fill: none; stroke-dasharray: 3.7,1.6; stroke-dashoffset: 0; stroke: #000000"/>
    </g>
    <g id="line2d_27">
     <g>
      <use xlink:href="#ma14b4ceec7" x="290.670455" y="129.682813" style="stroke: #000000; stroke-linejoin: miter"/>
     </g>
    </g>
    <g id="text_13">
     <!-- PLAC±SD (n=11) -->
     <g transform="translate(308.670455 133.182813) scale(0.1 -0.1)">
      <defs>
       <path id="DejaVuSans-b1" d="M 2944 4013 
L 2944 2803 
L 4684 2803 
L 4684 2272 
L 2944 2272 
L 2944 1063 
L 2419 1063 
L 2419 2272 
L 678 2272 
L 678 2803 
L 2419 2803 
L 2419 4013 
L 2944 4013 
z
M 678 531 
L 4684 531 
L 4684 0 
L 678 0 
L 678 531 
z
" transform="scale(0.015625)"/>
       <path id="DejaVuSans-53" d="M 3425 4513 
L 3425 3897 
Q 3066 4069 2747 4153 
Q 2428 4238 2131 4238 
Q 1616 4238 1336 4038 
Q 1056 3838 1056 3469 
Q 1056 3159 1242 3001 
Q 1428 2844 1947 2747 
L 2328 2669 
Q 3034 2534 3370 2195 
Q 3706 1856 3706 1288 
Q 3706 609 3251 259 
Q 2797 -91 1919 -91 
Q 1588 -91 1214 -16 
Q 841 59 441 206 
L 441 856 
Q 825 641 1194 531 
Q 1563 422 1919 422 
Q 2459 422 2753 634 
Q 3047 847 3047 1241 
Q 3047 1584 2836 1778 
Q 2625 1972 2144 2069 
L 1759 2144 
Q 1053 2284 737 2584 
Q 422 2884 422 3419 
Q 422 4038 858 4394 
Q 1294 4750 2059 4750 
Q 2388 4750 2728 4690 
Q 3069 4631 3425 4513 
z
" transform="scale(0.015625)"/>
       <path id="DejaVuSans-44" d="M 1259 4147 
L 1259 519 
L 2022 519 
Q 2988 519 3436 956 
Q 3884 1394 3884 2338 
Q 3884 3275 3436 3711 
Q 2988 4147 2022 4147 
L 1259 4147 
z
M 628 4666 
L 1925 4666 
Q 3281 4666 3915 4102 
Q 4550 3538 4550 2338 
Q 4550 1131 3912 565 
Q 3275 0 1925 0 
L 628 0 
L 628 4666 
z
" transform="scale(0.015625)"/>
       <path id="DejaVuSans-20" transform="scale(0.015625)"/>
       <path id="DejaVuSans-28" d="M 1984 4856 
Q 1566 4138 1362 3434 
Q 1159 2731 1159 2009 
Q 1159 1288 1364 580 
Q 1569 -128 1984 -844 
L 1484 -844 
Q 1016 -109 783 600 
Q 550 1309 550 2009 
Q 550 2706 781 3412 
Q 1013 4119 1484 4856 
L 1984 4856 
z
" transform="scale(0.015625)"/>
       <path id="DejaVuSans-6e" d="M 3513 2113 
L 3513 0 
L 2938 0 
L 2938 2094 
Q 2938 2591 2744 2837 
Q 2550 3084 2163 3084 
Q 1697 3084 1428 2787 
Q 1159 2491 1159 1978 
L 1159 0 
L 581 0 
L 581 3500 
L 1159 3500 
L 1159 2956 
Q 1366 3272 1645 3428 
Q 1925 3584 2291 3584 
Q 2894 3584 3203 3211 
Q 3513 2838 3513 2113 
z
" transform="scale(0.015625)"/>
       <path id="DejaVuSans-3d" d="M 678 2906 
L 4684 2906 
L 4684 2381 
L 678 2381 
L 678 2906 
z
M 678 1631 
L 4684 1631 
L 4684 1100 
L 678 1100 
L 678 1631 
z
" transform="scale(0.015625)"/>
       <path id="DejaVuSans-29" d="M 513 4856 
L 1013 4856 
Q 1481 4119 1714 3412 
Q 1947 2706 1947 2009 
Q 1947 1309 1714 600 
Q 1481 -109 1013 -844 
L 513 -844 
Q 928 -128 1133 580 
Q 1338 1288 1338 2009 
Q 1338 2731 1133 3434 
Q 928 4138 513 4856 
z
" transform="scale(0.015625)"/>
      </defs>
      <use xlink:href="#DejaVuSans-50"/>
      <use xlink:href="#DejaVuSans-4c" transform="translate(60.302734 0)"/>
      <use xlink:href="#DejaVuSans-41" transform="translate(118.265625 0)"/>
      <use xlink:href="#DejaVuSans-43" transform="translate(184.923828 0)"/>
      <use xlink:href="#DejaVuSans-b1" transform="translate(254.748047 0)"/>
      <use xlink:href="#DejaVuSans-53" transform="translate(338.537109 0)"/>
      <use xlink:href="#DejaVuSans-44" transform="translate(402.013672 0)"/>
      <use xlink:href="#DejaVuSans-20" transform="translate(479.015625 0)"/>
      <use xlink:href="#DejaVuSans-28" transform="translate(510.802734 0)"/>
      <use xlink:href="#DejaVuSans-6e" transform="translate(549.816406 0)"/>
      <use xlink:href="#DejaVuSans-3d" transform="translate(613.195312 0)"/>
      <use xlink:href="#DejaVuSans-31" transform="translate(696.984375 0)"/>
      <use xlink:href="#DejaVuSans-31" transform="translate(760.607422 0)"/>
      <use xlink:href="#DejaVuSans-29" transform="translate(824.230469 0)"/>
     </g>
    </g>
    <g id="line2d_28">
     <path d="M 280.670455 144.360938 
L 300.670455 144.360938 
" style="fill: none; stroke: #ff7f0e; stroke-width: 2; stroke-linecap: square"/>
    </g>
    <g id="line2d_29"/>
    <g id="text_14">
     <!-- DUL005 -->
     <g transform="translate(308.670455 147.860938) scale(0.1 -0.1)">
      <defs>
       <path id="DejaVuSans-55" d="M 556 4666 
L 1191 4666 
L 1191 1831 
Q 1191 1081 1462 751 
Q 1734 422 2344 422 
Q 2950 422 3222 751 
Q 3494 1081 3494 1831 
L 3494 4666 
L 4128 4666 
L 4128 1753 
Q 4128 841 3676 375 
Q 3225 -91 2344 -91 
Q 1459 -91 1007 375 
Q 556 841 556 1753 
L 556 4666 
z
" transform="scale(0.015625)"/>
      </defs>
      <use xlink:href="#DejaVuSans-44"/>
      <use xlink:href="#DejaVuSans-55" transform="translate(77.001953 0)"/>
      <use xlink:href="#DejaVuSans-4c" transform="translate(150.195312 0)"/>
      <use xlink:href="#DejaVuSans-30" transform="translate(205.908203 0)"/>
      <use xlink:href="#DejaVuSans-30" transform="translate(269.53125 0)"/>
      <use xlink:href="#DejaVuSans-35" transform="translate(333.154297 0)"/>
     </g>
    </g>
    <g id="LineCollection_9">
     <path d="M 290.670455 164.039063 
L 290.670455 154.039063 
" style="fill: none; stroke: #ff7f0e"/>
    </g>
    <g id="line2d_30">
     <path d="M 280.670455 159.039063 
L 300.670455 159.039063 
" style="fill: none; stroke-dasharray: 3.7,1.6; stroke-dashoffset: 0; stroke: #ff7f0e"/>
    </g>
    <g id="line2d_31">
     <g>
      <use xlink:href="#ma08a26cf22" x="290.670455" y="159.039063" style="fill: #ff7f0e; stroke: #000000; stroke-linejoin: miter"/>
     </g>
    </g>
    <g id="text_15">
     <!-- DUL005±SD (n=3) -->
     <g transform="translate(308.670455 162.539063) scale(0.1 -0.1)">
      <defs>
       <path id="DejaVuSans-33" d="M 2597 2516 
Q 3050 2419 3304 2112 
Q 3559 1806 3559 1356 
Q 3559 666 3084 287 
Q 2609 -91 1734 -91 
Q 1441 -91 1130 -33 
Q 819 25 488 141 
L 488 750 
Q 750 597 1062 519 
Q 1375 441 1716 441 
Q 2309 441 2620 675 
Q 2931 909 2931 1356 
Q 2931 1769 2642 2001 
Q 2353 2234 1838 2234 
L 1294 2234 
L 1294 2753 
L 1863 2753 
Q 2328 2753 2575 2939 
Q 2822 3125 2822 3475 
Q 2822 3834 2567 4026 
Q 2313 4219 1838 4219 
Q 1578 4219 1281 4162 
Q 984 4106 628 3988 
L 628 4550 
Q 988 4650 1302 4700 
Q 1616 4750 1894 4750 
Q 2613 4750 3031 4423 
Q 3450 4097 3450 3541 
Q 3450 3153 3228 2886 
Q 3006 2619 2597 2516 
z
" transform="scale(0.015625)"/>
      </defs>
      <use xlink:href="#DejaVuSans-44"/>
      <use xlink:href="#DejaVuSans-55" transform="translate(77.001953 0)"/>
      <use xlink:href="#DejaVuSans-4c" transform="translate(150.195312 0)"/>
      <use xlink:href="#DejaVuSans-30" transform="translate(205.908203 0)"/>
      <use xlink:href="#DejaVuSans-30" transform="translate(269.53125 0)"/>
      <use xlink:href="#DejaVuSans-35" transform="translate(333.154297 0)"/>
      <use xlink:href="#DejaVuSans-b1" transform="translate(396.777344 0)"/>
      <use xlink:href="#DejaVuSans-53" transform="translate(480.566406 0)"/>
      <use xlink:href="#DejaVuSans-44" transform="translate(544.042969 0)"/>
      <use xlink:href="#DejaVuSans-20" transform="translate(621.044922 0)"/>
      <use xlink:href="#DejaVuSans-28" transform="translate(652.832031 0)"/>
      <use xlink:href="#DejaVuSans-6e" transform="translate(691.845703 0)"/>
      <use xlink:href="#DejaVuSans-3d" transform="translate(755.224609 0)"/>
      <use xlink:href="#DejaVuSans-33" transform="translate(839.013672 0)"/>
      <use xlink:href="#DejaVuSans-29" transform="translate(902.636719 0)"/>
     </g>
    </g>
    <g id="line2d_32">
     <path d="M 280.670455 173.717188 
L 300.670455 173.717188 
" style="fill: none; stroke: #d62728; stroke-width: 2; stroke-linecap: square"/>
    </g>
    <g id="line2d_33"/>
    <g id="text_16">
     <!-- DUL03 -->
     <g transform="translate(308.670455 177.217188) scale(0.1 -0.1)">
      <use xlink:href="#DejaVuSans-44"/>
      <use xlink:href="#DejaVuSans-55" transform="translate(77.001953 0)"/>
      <use xlink:href="#DejaVuSans-4c" transform="translate(150.195312 0)"/>
      <use xlink:href="#DejaVuSans-30" transform="translate(205.908203 0)"/>
      <use xlink:href="#DejaVuSans-33" transform="translate(269.53125 0)"/>
     </g>
    </g>
    <g id="LineCollection_10">
     <path d="M 290.670455 193.395313 
L 290.670455 183.395313 
" style="fill: none; stroke: #d62728"/>
    </g>
    <g id="line2d_34">
     <path d="M 280.670455 188.395313 
L 300.670455 188.395313 
" style="fill: none; stroke-dasharray: 3.7,1.6; stroke-dashoffset: 0; stroke: #d62728"/>
    </g>
    <g id="line2d_35">
     <g>
      <use xlink:href="#m7743148312" x="290.670455" y="188.395313" style="fill: #d62728; stroke: #000000; stroke-linejoin: miter"/>
     </g>
    </g>
    <g id="text_17">
     <!-- DUL03±SD (n=6) -->
     <g transform="translate(308.670455 191.895313) scale(0.1 -0.1)">
      <use xlink:href="#DejaVuSans-44"/>
      <use xlink:href="#DejaVuSans-55" transform="translate(77.001953 0)"/>
      <use xlink:href="#DejaVuSans-4c" transform="translate(150.195312 0)"/>
      <use xlink:href="#DejaVuSans-30" transform="translate(205.908203 0)"/>
      <use xlink:href="#DejaVuSans-33" transform="translate(269.53125 0)"/>
      <use xlink:href="#DejaVuSans-b1" transform="translate(333.154297 0)"/>
      <use xlink:href="#DejaVuSans-53" transform="translate(416.943359 0)"/>
      <use xlink:href="#DejaVuSans-44" transform="translate(480.419922 0)"/>
      <use xlink:href="#DejaVuSans-20" transform="translate(557.421875 0)"/>
      <use xlink:href="#DejaVuSans-28" transform="translate(589.208984 0)"/>
      <use xlink:href="#DejaVuSans-6e" transform="translate(628.222656 0)"/>
      <use xlink:href="#DejaVuSans-3d" transform="translate(691.601562 0)"/>
      <use xlink:href="#DejaVuSans-36" transform="translate(775.390625 0)"/>
      <use xlink:href="#DejaVuSans-29" transform="translate(839.013672 0)"/>
     </g>
    </g>
    <g id="line2d_36">
     <path d="M 280.670455 203.073438 
L 300.670455 203.073438 
" style="fill: none; stroke: #1f77b4; stroke-width: 2; stroke-linecap: square"/>
    </g>
    <g id="line2d_37"/>
    <g id="text_18">
     <!-- DUL1 -->
     <g transform="translate(308.670455 206.573438) scale(0.1 -0.1)">
      <use xlink:href="#DejaVuSans-44"/>
      <use xlink:href="#DejaVuSans-55" transform="translate(77.001953 0)"/>
      <use xlink:href="#DejaVuSans-4c" transform="translate(150.195312 0)"/>
      <use xlink:href="#DejaVuSans-31" transform="translate(205.908203 0)"/>
     </g>
    </g>
    <g id="LineCollection_11">
     <path d="M 290.670455 222.751563 
L 290.670455 212.751563 
" style="fill: none; stroke: #1f77b4"/>
    </g>
    <g id="line2d_38">
     <path d="M 280.670455 217.751563 
L 300.670455 217.751563 
" style="fill: none; stroke-dasharray: 3.7,1.6; stroke-dashoffset: 0; stroke: #1f77b4"/>
    </g>
    <g id="line2d_39">
     <g>
      <use xlink:href="#ma176b9a3ca" x="290.670455" y="217.751563" style="fill: #1f77b4; stroke: #000000; stroke-linejoin: miter"/>
     </g>
    </g>
    <g id="text_19">
     <!-- DUL1±SD (n=5) -->
     <g transform="translate(308.670455 221.251563) scale(0.1 -0.1)">
      <use xlink:href="#DejaVuSans-44"/>
      <use xlink:href="#DejaVuSans-55" transform="translate(77.001953 0)"/>
      <use xlink:href="#DejaVuSans-4c" transform="translate(150.195312 0)"/>
      <use xlink:href="#DejaVuSans-31" transform="translate(205.908203 0)"/>
      <use xlink:href="#DejaVuSans-b1" transform="translate(269.53125 0)"/>
      <use xlink:href="#DejaVuSans-53" transform="translate(353.320312 0)"/>
      <use xlink:href="#DejaVuSans-44" transform="translate(416.796875 0)"/>
      <use xlink:href="#DejaVuSans-20" transform="translate(493.798828 0)"/>
      <use xlink:href="#DejaVuSans-28" transform="translate(525.585938 0)"/>
      <use xlink:href="#DejaVuSans-6e" transform="translate(564.599609 0)"/>
      <use xlink:href="#DejaVuSans-3d" transform="translate(627.978516 0)"/>
      <use xlink:href="#DejaVuSans-35" transform="translate(711.767578 0)"/>
      <use xlink:href="#DejaVuSans-29" transform="translate(775.390625 0)"/>
     </g>
    </g>
    <g id="line2d_40">
     <path d="M 280.670455 232.429688 
L 300.670455 232.429688 
" style="fill: none; stroke: #e377c2; stroke-width: 2; stroke-linecap: square"/>
    </g>
    <g id="line2d_41"/>
    <g id="text_20">
     <!-- DUL3 -->
     <g transform="translate(308.670455 235.929688) scale(0.1 -0.1)">
      <use xlink:href="#DejaVuSans-44"/>
      <use xlink:href="#DejaVuSans-55" transform="translate(77.001953 0)"/>
      <use xlink:href="#DejaVuSans-4c" transform="translate(150.195312 0)"/>
      <use xlink:href="#DejaVuSans-33" transform="translate(205.908203 0)"/>
     </g>
    </g>
    <g id="LineCollection_12">
     <path d="M 290.670455 252.107812 
L 290.670455 242.107812 
" style="fill: none; stroke: #e377c2"/>
    </g>
    <g id="line2d_42">
     <path d="M 280.670455 247.107812 
L 300.670455 247.107812 
" style="fill: none; stroke-dasharray: 3.7,1.6; stroke-dashoffset: 0; stroke: #e377c2"/>
    </g>
    <g id="line2d_43">
     <g>
      <use xlink:href="#mbc30d401a6" x="290.670455" y="247.107812" style="fill: #e377c2; stroke: #000000; stroke-linejoin: miter"/>
     </g>
    </g>
    <g id="text_21">
     <!-- DUL3±SD (n=3) -->
     <g transform="translate(308.670455 250.607812) scale(0.1 -0.1)">
      <use xlink:href="#DejaVuSans-44"/>
      <use xlink:href="#DejaVuSans-55" transform="translate(77.001953 0)"/>
      <use xlink:href="#DejaVuSans-4c" transform="translate(150.195312 0)"/>
      <use xlink:href="#DejaVuSans-33" transform="translate(205.908203 0)"/>
      <use xlink:href="#DejaVuSans-b1" transform="translate(269.53125 0)"/>
      <use xlink:href="#DejaVuSans-53" transform="translate(353.320312 0)"/>
      <use xlink:href="#DejaVuSans-44" transform="translate(416.796875 0)"/>
      <use xlink:href="#DejaVuSans-20" transform="translate(493.798828 0)"/>
      <use xlink:href="#DejaVuSans-28" transform="translate(525.585938 0)"/>
      <use xlink:href="#DejaVuSans-6e" transform="translate(564.599609 0)"/>
      <use xlink:href="#DejaVuSans-3d" transform="translate(627.978516 0)"/>
      <use xlink:href="#DejaVuSans-33" transform="translate(711.767578 0)"/>
      <use xlink:href="#DejaVuSans-29" transform="translate(775.390625 0)"/>
     </g>
    </g>
    <g id="line2d_44">
     <path d="M 280.670455 261.785937 
L 300.670455 261.785937 
" style="fill: none; stroke: #17becf; stroke-width: 2; stroke-linecap: square"/>
    </g>
    <g id="line2d_45"/>
    <g id="text_22">
     <!-- DUL5 -->
     <g transform="translate(308.670455 265.285937) scale(0.1 -0.1)">
      <use xlink:href="#DejaVuSans-44"/>
      <use xlink:href="#DejaVuSans-55" transform="translate(77.001953 0)"/>
      <use xlink:href="#DejaVuSans-4c" transform="translate(150.195312 0)"/>
      <use xlink:href="#DejaVuSans-35" transform="translate(205.908203 0)"/>
     </g>
    </g>
    <g id="LineCollection_13">
     <path d="M 290.670455 281.464062 
L 290.670455 271.464062 
" style="fill: none; stroke: #17becf"/>
    </g>
    <g id="line2d_46">
     <path d="M 280.670455 276.464062 
L 300.670455 276.464062 
" style="fill: none; stroke-dasharray: 3.7,1.6; stroke-dashoffset: 0; stroke: #17becf"/>
    </g>
    <g id="line2d_47">
     <g>
      <use xlink:href="#mb574c148a2" x="290.670455" y="276.464062" style="fill: #17becf; stroke: #000000; stroke-linejoin: miter"/>
     </g>
    </g>
    <g id="text_23">
     <!-- DUL5±SD (n=9) -->
     <g transform="translate(308.670455 279.964062) scale(0.1 -0.1)">
      <defs>
       <path id="DejaVuSans-39" d="M 703 97 
L 703 672 
Q 941 559 1184 500 
Q 1428 441 1663 441 
Q 2288 441 2617 861 
Q 2947 1281 2994 2138 
Q 2813 1869 2534 1725 
Q 2256 1581 1919 1581 
Q 1219 1581 811 2004 
Q 403 2428 403 3163 
Q 403 3881 828 4315 
Q 1253 4750 1959 4750 
Q 2769 4750 3195 4129 
Q 3622 3509 3622 2328 
Q 3622 1225 3098 567 
Q 2575 -91 1691 -91 
Q 1453 -91 1209 -44 
Q 966 3 703 97 
z
M 1959 2075 
Q 2384 2075 2632 2365 
Q 2881 2656 2881 3163 
Q 2881 3666 2632 3958 
Q 2384 4250 1959 4250 
Q 1534 4250 1286 3958 
Q 1038 3666 1038 3163 
Q 1038 2656 1286 2365 
Q 1534 2075 1959 2075 
z
" transform="scale(0.015625)"/>
      </defs>
      <use xlink:href="#DejaVuSans-44"/>
      <use xlink:href="#DejaVuSans-55" transform="translate(77.001953 0)"/>
      <use xlink:href="#DejaVuSans-4c" transform="translate(150.195312 0)"/>
      <use xlink:href="#DejaVuSans-35" transform="translate(205.908203 0)"/>
      <use xlink:href="#DejaVuSans-b1" transform="translate(269.53125 0)"/>
      <use xlink:href="#DejaVuSans-53" transform="translate(353.320312 0)"/>
      <use xlink:href="#DejaVuSans-44" transform="translate(416.796875 0)"/>
      <use xlink:href="#DejaVuSans-20" transform="translate(493.798828 0)"/>
      <use xlink:href="#DejaVuSans-28" transform="translate(525.585938 0)"/>
      <use xlink:href="#DejaVuSans-6e" transform="translate(564.599609 0)"/>
      <use xlink:href="#DejaVuSans-3d" transform="translate(627.978516 0)"/>
      <use xlink:href="#DejaVuSans-39" transform="translate(711.767578 0)"/>
      <use xlink:href="#DejaVuSans-29" transform="translate(775.390625 0)"/>
     </g>
    </g>
    <g id="line2d_48">
     <path d="M 280.670455 291.142187 
L 300.670455 291.142187 
" style="fill: none; stroke: #8c564b; stroke-width: 2; stroke-linecap: square"/>
    </g>
    <g id="line2d_49"/>
    <g id="text_24">
     <!-- DUL8 -->
     <g transform="translate(308.670455 294.642187) scale(0.1 -0.1)">
      <defs>
       <path id="DejaVuSans-38" d="M 2034 2216 
Q 1584 2216 1326 1975 
Q 1069 1734 1069 1313 
Q 1069 891 1326 650 
Q 1584 409 2034 409 
Q 2484 409 2743 651 
Q 3003 894 3003 1313 
Q 3003 1734 2745 1975 
Q 2488 2216 2034 2216 
z
M 1403 2484 
Q 997 2584 770 2862 
Q 544 3141 544 3541 
Q 544 4100 942 4425 
Q 1341 4750 2034 4750 
Q 2731 4750 3128 4425 
Q 3525 4100 3525 3541 
Q 3525 3141 3298 2862 
Q 3072 2584 2669 2484 
Q 3125 2378 3379 2068 
Q 3634 1759 3634 1313 
Q 3634 634 3220 271 
Q 2806 -91 2034 -91 
Q 1263 -91 848 271 
Q 434 634 434 1313 
Q 434 1759 690 2068 
Q 947 2378 1403 2484 
z
M 1172 3481 
Q 1172 3119 1398 2916 
Q 1625 2713 2034 2713 
Q 2441 2713 2670 2916 
Q 2900 3119 2900 3481 
Q 2900 3844 2670 4047 
Q 2441 4250 2034 4250 
Q 1625 4250 1398 4047 
Q 1172 3844 1172 3481 
z
" transform="scale(0.015625)"/>
      </defs>
      <use xlink:href="#DejaVuSans-44"/>
      <use xlink:href="#DejaVuSans-55" transform="translate(77.001953 0)"/>
      <use xlink:href="#DejaVuSans-4c" transform="translate(150.195312 0)"/>
      <use xlink:href="#DejaVuSans-38" transform="translate(205.908203 0)"/>
     </g>
    </g>
    <g id="LineCollection_14">
     <path d="M 290.670455 310.820312 
L 290.670455 300.820312 
" style="fill: none; stroke: #8c564b"/>
    </g>
    <g id="line2d_50">
     <path d="M 280.670455 305.820312 
L 300.670455 305.820312 
" style="fill: none; stroke-dasharray: 3.7,1.6; stroke-dashoffset: 0; stroke: #8c564b"/>
    </g>
    <g id="line2d_51">
     <g>
      <use xlink:href="#m52f3cf7592" x="290.670455" y="305.820312" style="fill: #8c564b; stroke: #000000; stroke-linejoin: miter"/>
     </g>
    </g>
    <g id="text_25">
     <!-- DUL8±SD (n=6) -->
     <g transform="translate(308.670455 309.320312) scale(0.1 -0.1)">
      <use xlink:href="#DejaVuSans-44"/>
      <use xlink:href="#DejaVuSans-55" transform="translate(77.001953 0)"/>
      <use xlink:href="#DejaVuSans-4c" transform="translate(150.195312 0)"/>
      <use xlink:href="#DejaVuSans-38" transform="translate(205.908203 0)"/>
      <use xlink:href="#DejaVuSans-b1" transform="translate(269.53125 0)"/>
      <use xlink:href="#DejaVuSans-53" transform="translate(353.320312 0)"/>
      <use xlink:href="#DejaVuSans-44" transform="translate(416.796875 0)"/>
      <use xlink:href="#DejaVuSans-20" transform="translate(493.798828 0)"/>
      <use xlink:href="#DejaVuSans-28" transform="translate(525.585938 0)"/>
      <use xlink:href="#DejaVuSans-6e" transform="translate(564.599609 0)"/>
      <use xlink:href="#DejaVuSans-3d" transform="translate(627.978516 0)"/>
      <use xlink:href="#DejaVuSans-36" transform="translate(711.767578 0)"/>
      <use xlink:href="#DejaVuSans-29" transform="translate(775.390625 0)"/>
     </g>
    </g>
   </g>
  </g>
  <g id="axes_2">
   <g id="patch_8">
    <path d="M 513.733295 320.4 
L 853.385469 320.4 
L 853.385469 43.2 
L 513.733295 43.2 
z
" style="fill: #ffffff"/>
   </g>
   <g id="matplotlib.axis_3">
    <g id="xtick_5">
     <g id="line2d_52">
      <g>
       <use xlink:href="#mf423c98d18" x="529.17203" y="320.4" style="stroke: #000000; stroke-width: 0.8"/>
      </g>
     </g>
     <g id="text_26">
      <!-- 0 -->
      <g transform="translate(524.400155 338.797656) scale(0.15 -0.15)">
       <use xlink:href="#DejaVuSans-30"/>
      </g>
     </g>
    </g>
    <g id="xtick_6">
     <g id="line2d_53">
      <g>
       <use xlink:href="#mf423c98d18" x="625.952161" y="320.4" style="stroke: #000000; stroke-width: 0.8"/>
      </g>
     </g>
     <g id="text_27">
      <!-- 2 -->
      <g transform="translate(621.180286 338.797656) scale(0.15 -0.15)">
       <use xlink:href="#DejaVuSans-32"/>
      </g>
     </g>
    </g>
    <g id="xtick_7">
     <g id="line2d_54">
      <g>
       <use xlink:href="#mf423c98d18" x="722.732292" y="320.4" style="stroke: #000000; stroke-width: 0.8"/>
      </g>
     </g>
     <g id="text_28">
      <!-- 4 -->
      <g transform="translate(717.960417 338.797656) scale(0.15 -0.15)">
       <use xlink:href="#DejaVuSans-34"/>
      </g>
     </g>
    </g>
    <g id="xtick_8">
     <g id="line2d_55">
      <g>
       <use xlink:href="#mf423c98d18" x="819.512423" y="320.4" style="stroke: #000000; stroke-width: 0.8"/>
      </g>
     </g>
     <g id="text_29">
      <!-- 6 -->
      <g transform="translate(814.740548 338.797656) scale(0.15 -0.15)">
       <use xlink:href="#DejaVuSans-36"/>
      </g>
     </g>
    </g>
    <g id="text_30">
     <!-- time [week] -->
     <g transform="translate(622.820632 359.594375) scale(0.18 -0.18)">
      <use xlink:href="#DejaVuSans-Bold-74"/>
      <use xlink:href="#DejaVuSans-Bold-69" transform="translate(47.802734 0)"/>
      <use xlink:href="#DejaVuSans-Bold-6d" transform="translate(82.080078 0)"/>
      <use xlink:href="#DejaVuSans-Bold-65" transform="translate(186.279297 0)"/>
      <use xlink:href="#DejaVuSans-Bold-20" transform="translate(254.101562 0)"/>
      <use xlink:href="#DejaVuSans-Bold-5b" transform="translate(288.916016 0)"/>
      <use xlink:href="#DejaVuSans-Bold-77" transform="translate(334.619141 0)"/>
      <use xlink:href="#DejaVuSans-Bold-65" transform="translate(427.001953 0)"/>
      <use xlink:href="#DejaVuSans-Bold-65" transform="translate(494.824219 0)"/>
      <use xlink:href="#DejaVuSans-Bold-6b" transform="translate(562.646484 0)"/>
      <use xlink:href="#DejaVuSans-Bold-5d" transform="translate(629.150391 0)"/>
     </g>
    </g>
   </g>
   <g id="matplotlib.axis_4">
    <g id="ytick_6">
     <g id="line2d_56">
      <g>
       <use xlink:href="#m365f682bcb" x="513.733295" y="318.090952" style="stroke: #000000; stroke-width: 0.8"/>
      </g>
     </g>
     <g id="text_31">
      <!-- −4 -->
      <g transform="translate(484.620014 323.78978) scale(0.15 -0.15)">
       <use xlink:href="#DejaVuSans-2212"/>
       <use xlink:href="#DejaVuSans-34" transform="translate(83.789062 0)"/>
      </g>
     </g>
    </g>
    <g id="ytick_7">
     <g id="line2d_57">
      <g>
       <use xlink:href="#m365f682bcb" x="513.733295" y="273.656307" style="stroke: #000000; stroke-width: 0.8"/>
      </g>
     </g>
     <g id="text_32">
      <!-- −3 -->
      <g transform="translate(484.620014 279.355135) scale(0.15 -0.15)">
       <use xlink:href="#DejaVuSans-2212"/>
       <use xlink:href="#DejaVuSans-33" transform="translate(83.789062 0)"/>
      </g>
     </g>
    </g>
    <g id="ytick_8">
     <g id="line2d_58">
      <g>
       <use xlink:href="#m365f682bcb" x="513.733295" y="229.221663" style="stroke: #000000; stroke-width: 0.8"/>
      </g>
     </g>
     <g id="text_33">
      <!-- −2 -->
      <g transform="translate(484.620014 234.920491) scale(0.15 -0.15)">
       <use xlink:href="#DejaVuSans-2212"/>
       <use xlink:href="#DejaVuSans-32" transform="translate(83.789062 0)"/>
      </g>
     </g>
    </g>
    <g id="ytick_9">
     <g id="line2d_59">
      <g>
       <use xlink:href="#m365f682bcb" x="513.733295" y="184.787019" style="stroke: #000000; stroke-width: 0.8"/>
      </g>
     </g>
     <g id="text_34">
      <!-- −1 -->
      <g transform="translate(484.620014 190.485847) scale(0.15 -0.15)">
       <use xlink:href="#DejaVuSans-2212"/>
       <use xlink:href="#DejaVuSans-31" transform="translate(83.789062 0)"/>
      </g>
     </g>
    </g>
    <g id="ytick_10">
     <g id="line2d_60">
      <g>
       <use xlink:href="#m365f682bcb" x="513.733295" y="140.352374" style="stroke: #000000; stroke-width: 0.8"/>
      </g>
     </g>
     <g id="text_35">
      <!-- 0 -->
      <g transform="translate(497.189545 146.051202) scale(0.15 -0.15)">
       <use xlink:href="#DejaVuSans-30"/>
      </g>
     </g>
    </g>
    <g id="ytick_11">
     <g id="line2d_61">
      <g>
       <use xlink:href="#m365f682bcb" x="513.733295" y="95.91773" style="stroke: #000000; stroke-width: 0.8"/>
      </g>
     </g>
     <g id="text_36">
      <!-- 1 -->
      <g transform="translate(497.189545 101.616558) scale(0.15 -0.15)">
       <use xlink:href="#DejaVuSans-31"/>
      </g>
     </g>
    </g>
    <g id="ytick_12">
     <g id="line2d_62">
      <g>
       <use xlink:href="#m365f682bcb" x="513.733295" y="51.483085" style="stroke: #000000; stroke-width: 0.8"/>
      </g>
     </g>
     <g id="text_37">
      <!-- 2 -->
      <g transform="translate(497.189545 57.181913) scale(0.15 -0.15)">
       <use xlink:href="#DejaVuSans-32"/>
      </g>
     </g>
    </g>
    <g id="text_38">
     <!-- bodyweight change [kg] -->
     <g transform="translate(476.735951 305.078906) rotate(-90) scale(0.18 -0.18)">
      <defs>
       <path id="DejaVuSans-Bold-6f" d="M 2203 2784 
Q 1831 2784 1636 2517 
Q 1441 2250 1441 1747 
Q 1441 1244 1636 976 
Q 1831 709 2203 709 
Q 2569 709 2762 976 
Q 2956 1244 2956 1747 
Q 2956 2250 2762 2517 
Q 2569 2784 2203 2784 
z
M 2203 3584 
Q 3106 3584 3614 3096 
Q 4122 2609 4122 1747 
Q 4122 884 3614 396 
Q 3106 -91 2203 -91 
Q 1297 -91 786 396 
Q 275 884 275 1747 
Q 275 2609 786 3096 
Q 1297 3584 2203 3584 
z
" transform="scale(0.015625)"/>
       <path id="DejaVuSans-Bold-64" d="M 2919 2988 
L 2919 4863 
L 4044 4863 
L 4044 0 
L 2919 0 
L 2919 506 
Q 2688 197 2409 53 
Q 2131 -91 1766 -91 
Q 1119 -91 703 423 
Q 288 938 288 1747 
Q 288 2556 703 3070 
Q 1119 3584 1766 3584 
Q 2128 3584 2408 3439 
Q 2688 3294 2919 2988 
z
M 2181 722 
Q 2541 722 2730 984 
Q 2919 1247 2919 1747 
Q 2919 2247 2730 2509 
Q 2541 2772 2181 2772 
Q 1825 2772 1636 2509 
Q 1447 2247 1447 1747 
Q 1447 1247 1636 984 
Q 1825 722 2181 722 
z
" transform="scale(0.015625)"/>
       <path id="DejaVuSans-Bold-79" d="M 78 3500 
L 1197 3500 
L 2138 1125 
L 2938 3500 
L 4056 3500 
L 2584 -331 
Q 2363 -916 2067 -1148 
Q 1772 -1381 1288 -1381 
L 641 -1381 
L 641 -647 
L 991 -647 
Q 1275 -647 1404 -556 
Q 1534 -466 1606 -231 
L 1638 -134 
L 78 3500 
z
" transform="scale(0.015625)"/>
      </defs>
      <use xlink:href="#DejaVuSans-Bold-62"/>
      <use xlink:href="#DejaVuSans-Bold-6f" transform="translate(71.582031 0)"/>
      <use xlink:href="#DejaVuSans-Bold-64" transform="translate(140.283203 0)"/>
      <use xlink:href="#DejaVuSans-Bold-79" transform="translate(211.865234 0)"/>
      <use xlink:href="#DejaVuSans-Bold-77" transform="translate(277.050781 0)"/>
      <use xlink:href="#DejaVuSans-Bold-65" transform="translate(369.433594 0)"/>
      <use xlink:href="#DejaVuSans-Bold-69" transform="translate(437.255859 0)"/>
      <use xlink:href="#DejaVuSans-Bold-67" transform="translate(471.533203 0)"/>
      <use xlink:href="#DejaVuSans-Bold-68" transform="translate(543.115234 0)"/>
      <use xlink:href="#DejaVuSans-Bold-74" transform="translate(614.306641 0)"/>
      <use xlink:href="#DejaVuSans-Bold-20" transform="translate(662.109375 0)"/>
      <use xlink:href="#DejaVuSans-Bold-63" transform="translate(696.923828 0)"/>
      <use xlink:href="#DejaVuSans-Bold-68" transform="translate(756.201172 0)"/>
      <use xlink:href="#DejaVuSans-Bold-61" transform="translate(827.392578 0)"/>
      <use xlink:href="#DejaVuSans-Bold-6e" transform="translate(894.873047 0)"/>
      <use xlink:href="#DejaVuSans-Bold-67" transform="translate(966.064453 0)"/>
      <use xlink:href="#DejaVuSans-Bold-65" transform="translate(1037.646484 0)"/>
      <use xlink:href="#DejaVuSans-Bold-20" transform="translate(1105.46875 0)"/>
      <use xlink:href="#DejaVuSans-Bold-5b" transform="translate(1140.283203 0)"/>
      <use xlink:href="#DejaVuSans-Bold-6b" transform="translate(1185.986328 0)"/>
      <use xlink:href="#DejaVuSans-Bold-67" transform="translate(1252.490234 0)"/>
      <use xlink:href="#DejaVuSans-Bold-5d" transform="translate(1324.072266 0)"/>
     </g>
    </g>
   </g>
   <g id="LineCollection_15">
    <path clip-path="url(#pd770fa8f16)" style="fill: none; stroke: #000000"/>
    <path d="M 771.122357 161.157512 
L 771.122357 55.8 
" clip-path="url(#pd770fa8f16)" style="fill: none; stroke: #000000"/>
   </g>
   <g id="LineCollection_16">
    <path clip-path="url(#pd770fa8f16)" style="fill: none; stroke: #ff7f0e"/>
    <path d="M 771.122357 164.153935 
L 771.122357 56.571885 
" clip-path="url(#pd770fa8f16)" style="fill: none; stroke: #ff7f0e"/>
   </g>
   <g id="LineCollection_17">
    <path clip-path="url(#pd770fa8f16)" style="fill: none; stroke: #d62728"/>
    <path d="M 771.122357 183.614211 
L 771.122357 74.794702 
" clip-path="url(#pd770fa8f16)" style="fill: none; stroke: #d62728"/>
   </g>
   <g id="LineCollection_18">
    <path clip-path="url(#pd770fa8f16)" style="fill: none; stroke: #1f77b4"/>
    <path d="M 771.122357 217.186658 
L 771.122357 93.978614 
" clip-path="url(#pd770fa8f16)" style="fill: none; stroke: #1f77b4"/>
   </g>
   <g id="LineCollection_19">
    <path clip-path="url(#pd770fa8f16)" style="fill: none; stroke: #e377c2"/>
    <path d="M 771.122357 187.315231 
L 771.122357 62.300952 
" clip-path="url(#pd770fa8f16)" style="fill: none; stroke: #e377c2"/>
   </g>
   <g id="LineCollection_20">
    <path clip-path="url(#pd770fa8f16)" style="fill: none; stroke: #17becf"/>
    <path d="M 771.122357 307.8 
L 771.122357 194.292903 
" clip-path="url(#pd770fa8f16)" style="fill: none; stroke: #17becf"/>
   </g>
   <g id="LineCollection_21">
    <path clip-path="url(#pd770fa8f16)" style="fill: none; stroke: #8c564b"/>
    <path d="M 771.122357 289.374067 
L 771.122357 168.755266 
" clip-path="url(#pd770fa8f16)" style="fill: none; stroke: #8c564b"/>
   </g>
   <g id="line2d_63">
    <path d="M 529.17203 140.352374 
L 837.946734 140.352374 
L 837.946734 140.352374 
" clip-path="url(#pd770fa8f16)" style="fill: none; stroke: #000000; stroke-width: 2; stroke-linecap: square"/>
   </g>
   <g id="line2d_64">
    <path d="M 529.17203 140.352374 
L 771.122357 108.478756 
" clip-path="url(#pd770fa8f16)" style="fill: none; stroke-dasharray: 3.7,1.6; stroke-dashoffset: 0; stroke: #000000"/>
    <g clip-path="url(#pd770fa8f16)">
     <use xlink:href="#ma14b4ceec7" x="529.17203" y="140.352374" style="stroke: #000000; stroke-linejoin: miter"/>
     <use xlink:href="#ma14b4ceec7" x="771.122357" y="108.478756" style="stroke: #000000; stroke-linejoin: miter"/>
    </g>
   </g>
   <g id="line2d_65">
    <path d="M 529.17203 140.352374 
L 837.946734 140.352374 
L 837.946734 140.352374 
" clip-path="url(#pd770fa8f16)" style="fill: none; stroke: #ff7f0e; stroke-width: 2; stroke-linecap: square"/>
   </g>
   <g id="line2d_66">
    <path d="M 529.17203 140.352374 
L 771.122357 110.36291 
" clip-path="url(#pd770fa8f16)" style="fill: none; stroke-dasharray: 3.7,1.6; stroke-dashoffset: 0; stroke: #ff7f0e"/>
    <g clip-path="url(#pd770fa8f16)">
     <use xlink:href="#ma08a26cf22" x="529.17203" y="140.352374" style="fill: #ff7f0e; stroke: #000000; stroke-linejoin: miter"/>
     <use xlink:href="#ma08a26cf22" x="771.122357" y="110.36291" style="fill: #ff7f0e; stroke: #000000; stroke-linejoin: miter"/>
    </g>
   </g>
   <g id="line2d_67">
    <path d="M 529.17203 140.352374 
L 837.946734 140.352374 
L 837.946734 140.352374 
" clip-path="url(#pd770fa8f16)" style="fill: none; stroke: #d62728; stroke-width: 2; stroke-linecap: square"/>
   </g>
   <g id="line2d_68">
    <path d="M 529.17203 140.352374 
L 771.122357 129.204457 
" clip-path="url(#pd770fa8f16)" style="fill: none; stroke-dasharray: 3.7,1.6; stroke-dashoffset: 0; stroke: #d62728"/>
    <g clip-path="url(#pd770fa8f16)">
     <use xlink:href="#m7743148312" x="529.17203" y="140.352374" style="fill: #d62728; stroke: #000000; stroke-linejoin: miter"/>
     <use xlink:href="#m7743148312" x="771.122357" y="129.204457" style="fill: #d62728; stroke: #000000; stroke-linejoin: miter"/>
    </g>
   </g>
   <g id="line2d_69">
    <path d="M 529.17203 140.352374 
L 837.946734 140.352374 
L 837.946734 140.352374 
" clip-path="url(#pd770fa8f16)" style="fill: none; stroke: #1f77b4; stroke-width: 2; stroke-linecap: square"/>
   </g>
   <g id="line2d_70">
    <path d="M 529.17203 140.352374 
L 771.122357 155.582636 
" clip-path="url(#pd770fa8f16)" style="fill: none; stroke-dasharray: 3.7,1.6; stroke-dashoffset: 0; stroke: #1f77b4"/>
    <g clip-path="url(#pd770fa8f16)">
     <use xlink:href="#ma176b9a3ca" x="529.17203" y="140.352374" style="fill: #1f77b4; stroke: #000000; stroke-linejoin: miter"/>
     <use xlink:href="#ma176b9a3ca" x="771.122357" y="155.582636" style="fill: #1f77b4; stroke: #000000; stroke-linejoin: miter"/>
    </g>
   </g>
   <g id="line2d_71">
    <path d="M 529.17203 140.352374 
L 837.946734 140.352374 
L 837.946734 140.352374 
" clip-path="url(#pd770fa8f16)" style="fill: none; stroke: #e377c2; stroke-width: 2; stroke-linecap: square"/>
   </g>
   <g id="line2d_72">
    <path d="M 529.17203 140.352374 
L 771.122357 124.808091 
" clip-path="url(#pd770fa8f16)" style="fill: none; stroke-dasharray: 3.7,1.6; stroke-dashoffset: 0; stroke: #e377c2"/>
    <g clip-path="url(#pd770fa8f16)">
     <use xlink:href="#mbc30d401a6" x="529.17203" y="140.352374" style="fill: #e377c2; stroke: #000000; stroke-linejoin: miter"/>
     <use xlink:href="#mbc30d401a6" x="771.122357" y="124.808091" style="fill: #e377c2; stroke: #000000; stroke-linejoin: miter"/>
    </g>
   </g>
   <g id="line2d_73">
    <path d="M 529.17203 140.352374 
L 837.946734 140.352374 
L 837.946734 140.352374 
" clip-path="url(#pd770fa8f16)" style="fill: none; stroke: #17becf; stroke-width: 2; stroke-linecap: square"/>
   </g>
   <g id="line2d_74">
    <path d="M 529.17203 140.352374 
L 771.122357 251.046452 
" clip-path="url(#pd770fa8f16)" style="fill: none; stroke-dasharray: 3.7,1.6; stroke-dashoffset: 0; stroke: #17becf"/>
    <g clip-path="url(#pd770fa8f16)">
     <use xlink:href="#mb574c148a2" x="529.17203" y="140.352374" style="fill: #17becf; stroke: #000000; stroke-linejoin: miter"/>
     <use xlink:href="#mb574c148a2" x="771.122357" y="251.046452" style="fill: #17becf; stroke: #000000; stroke-linejoin: miter"/>
    </g>
   </g>
   <g id="line2d_75">
    <path d="M 529.17203 140.352374 
L 837.946734 140.352374 
L 837.946734 140.352374 
" clip-path="url(#pd770fa8f16)" style="fill: none; stroke: #8c564b; stroke-width: 2; stroke-linecap: square"/>
   </g>
   <g id="line2d_76">
    <path d="M 529.17203 140.352374 
L 771.122357 229.064667 
" clip-path="url(#pd770fa8f16)" style="fill: none; stroke-dasharray: 3.7,1.6; stroke-dashoffset: 0; stroke: #8c564b"/>
    <g clip-path="url(#pd770fa8f16)">
     <use xlink:href="#m52f3cf7592" x="529.17203" y="140.352374" style="fill: #8c564b; stroke: #000000; stroke-linejoin: miter"/>
     <use xlink:href="#m52f3cf7592" x="771.122357" y="229.064667" style="fill: #8c564b; stroke: #000000; stroke-linejoin: miter"/>
    </g>
   </g>
   <g id="patch_9">
    <path d="M 513.733295 320.4 
L 513.733295 43.2 
" style="fill: none; stroke: #000000; stroke-width: 0.8; stroke-linejoin: miter; stroke-linecap: square"/>
   </g>
   <g id="patch_10">
    <path d="M 853.385469 320.4 
L 853.385469 43.2 
" style="fill: none; stroke: #000000; stroke-width: 0.8; stroke-linejoin: miter; stroke-linecap: square"/>
   </g>
   <g id="patch_11">
    <path d="M 513.733295 320.4 
L 853.385469 320.4 
" style="fill: none; stroke: #000000; stroke-width: 0.8; stroke-linejoin: miter; stroke-linecap: square"/>
   </g>
   <g id="patch_12">
    <path d="M 513.733295 43.2 
L 853.385469 43.2 
" style="fill: none; stroke: #000000; stroke-width: 0.8; stroke-linejoin: miter; stroke-linecap: square"/>
   </g>
   <g id="legend_2">
    <g id="patch_13">
     <path d="M 720.218281 256.69375 
L 846.385469 256.69375 
Q 848.385469 256.69375 848.385469 254.69375 
L 848.385469 50.2 
Q 848.385469 48.2 846.385469 48.2 
L 720.218281 48.2 
Q 718.218281 48.2 718.218281 50.2 
L 718.218281 254.69375 
Q 718.218281 256.69375 720.218281 256.69375 
z
" style="fill: #ffffff; opacity: 0.8; stroke: #cccccc; stroke-linejoin: miter"/>
    </g>
    <g id="line2d_77">
     <path d="M 722.218281 56.298437 
L 742.218281 56.298437 
" style="fill: none; stroke: #000000; stroke-width: 2; stroke-linecap: square"/>
    </g>
    <g id="line2d_78"/>
    <g id="text_39">
     <!-- PLAC -->
     <g transform="translate(750.218281 59.798437) scale(0.1 -0.1)">
      <use xlink:href="#DejaVuSans-50"/>
      <use xlink:href="#DejaVuSans-4c" transform="translate(60.302734 0)"/>
      <use xlink:href="#DejaVuSans-41" transform="translate(118.265625 0)"/>
      <use xlink:href="#DejaVuSans-43" transform="translate(184.923828 0)"/>
     </g>
    </g>
    <g id="LineCollection_22">
     <path d="M 732.218281 75.976562 
L 732.218281 65.976562 
" style="fill: none; stroke: #000000"/>
    </g>
    <g id="line2d_79">
     <path d="M 722.218281 70.976562 
L 742.218281 70.976562 
" style="fill: none; stroke-dasharray: 3.7,1.6; stroke-dashoffset: 0; stroke: #000000"/>
    </g>
    <g id="line2d_80">
     <g>
      <use xlink:href="#ma14b4ceec7" x="732.218281" y="70.976562" style="stroke: #000000; stroke-linejoin: miter"/>
     </g>
    </g>
    <g id="text_40">
     <!-- PLAC±SD (n=11) -->
     <g transform="translate(750.218281 74.476562) scale(0.1 -0.1)">
      <use xlink:href="#DejaVuSans-50"/>
      <use xlink:href="#DejaVuSans-4c" transform="translate(60.302734 0)"/>
      <use xlink:href="#DejaVuSans-41" transform="translate(118.265625 0)"/>
      <use xlink:href="#DejaVuSans-43" transform="translate(184.923828 0)"/>
      <use xlink:href="#DejaVuSans-b1" transform="translate(254.748047 0)"/>
      <use xlink:href="#DejaVuSans-53" transform="translate(338.537109 0)"/>
      <use xlink:href="#DejaVuSans-44" transform="translate(402.013672 0)"/>
      <use xlink:href="#DejaVuSans-20" transform="translate(479.015625 0)"/>
      <use xlink:href="#DejaVuSans-28" transform="translate(510.802734 0)"/>
      <use xlink:href="#DejaVuSans-6e" transform="translate(549.816406 0)"/>
      <use xlink:href="#DejaVuSans-3d" transform="translate(613.195312 0)"/>
      <use xlink:href="#DejaVuSans-31" transform="translate(696.984375 0)"/>
      <use xlink:href="#DejaVuSans-31" transform="translate(760.607422 0)"/>
      <use xlink:href="#DejaVuSans-29" transform="translate(824.230469 0)"/>
     </g>
    </g>
    <g id="line2d_81">
     <path d="M 722.218281 85.654687 
L 742.218281 85.654687 
" style="fill: none; stroke: #ff7f0e; stroke-width: 2; stroke-linecap: square"/>
    </g>
    <g id="line2d_82"/>
    <g id="text_41">
     <!-- DUL005 -->
     <g transform="translate(750.218281 89.154687) scale(0.1 -0.1)">
      <use xlink:href="#DejaVuSans-44"/>
      <use xlink:href="#DejaVuSans-55" transform="translate(77.001953 0)"/>
      <use xlink:href="#DejaVuSans-4c" transform="translate(150.195312 0)"/>
      <use xlink:href="#DejaVuSans-30" transform="translate(205.908203 0)"/>
      <use xlink:href="#DejaVuSans-30" transform="translate(269.53125 0)"/>
      <use xlink:href="#DejaVuSans-35" transform="translate(333.154297 0)"/>
     </g>
    </g>
    <g id="LineCollection_23">
     <path d="M 732.218281 105.332812 
L 732.218281 95.332812 
" style="fill: none; stroke: #ff7f0e"/>
    </g>
    <g id="line2d_83">
     <path d="M 722.218281 100.332812 
L 742.218281 100.332812 
" style="fill: none; stroke-dasharray: 3.7,1.6; stroke-dashoffset: 0; stroke: #ff7f0e"/>
    </g>
    <g id="line2d_84">
     <g>
      <use xlink:href="#ma08a26cf22" x="732.218281" y="100.332812" style="fill: #ff7f0e; stroke: #000000; stroke-linejoin: miter"/>
     </g>
    </g>
    <g id="text_42">
     <!-- DUL005±SD (n=3) -->
     <g transform="translate(750.218281 103.832812) scale(0.1 -0.1)">
      <use xlink:href="#DejaVuSans-44"/>
      <use xlink:href="#DejaVuSans-55" transform="translate(77.001953 0)"/>
      <use xlink:href="#DejaVuSans-4c" transform="translate(150.195312 0)"/>
      <use xlink:href="#DejaVuSans-30" transform="translate(205.908203 0)"/>
      <use xlink:href="#DejaVuSans-30" transform="translate(269.53125 0)"/>
      <use xlink:href="#DejaVuSans-35" transform="translate(333.154297 0)"/>
      <use xlink:href="#DejaVuSans-b1" transform="translate(396.777344 0)"/>
      <use xlink:href="#DejaVuSans-53" transform="translate(480.566406 0)"/>
      <use xlink:href="#DejaVuSans-44" transform="translate(544.042969 0)"/>
      <use xlink:href="#DejaVuSans-20" transform="translate(621.044922 0)"/>
      <use xlink:href="#DejaVuSans-28" transform="translate(652.832031 0)"/>
      <use xlink:href="#DejaVuSans-6e" transform="translate(691.845703 0)"/>
      <use xlink:href="#DejaVuSans-3d" transform="translate(755.224609 0)"/>
      <use xlink:href="#DejaVuSans-33" transform="translate(839.013672 0)"/>
      <use xlink:href="#DejaVuSans-29" transform="translate(902.636719 0)"/>
     </g>
    </g>
    <g id="line2d_85">
     <path d="M 722.218281 115.010937 
L 742.218281 115.010937 
" style="fill: none; stroke: #d62728; stroke-width: 2; stroke-linecap: square"/>
    </g>
    <g id="line2d_86"/>
    <g id="text_43">
     <!-- DUL03 -->
     <g transform="translate(750.218281 118.510937) scale(0.1 -0.1)">
      <use xlink:href="#DejaVuSans-44"/>
      <use xlink:href="#DejaVuSans-55" transform="translate(77.001953 0)"/>
      <use xlink:href="#DejaVuSans-4c" transform="translate(150.195312 0)"/>
      <use xlink:href="#DejaVuSans-30" transform="translate(205.908203 0)"/>
      <use xlink:href="#DejaVuSans-33" transform="translate(269.53125 0)"/>
     </g>
    </g>
    <g id="LineCollection_24">
     <path d="M 732.218281 134.689062 
L 732.218281 124.689062 
" style="fill: none; stroke: #d62728"/>
    </g>
    <g id="line2d_87">
     <path d="M 722.218281 129.689062 
L 742.218281 129.689062 
" style="fill: none; stroke-dasharray: 3.7,1.6; stroke-dashoffset: 0; stroke: #d62728"/>
    </g>
    <g id="line2d_88">
     <g>
      <use xlink:href="#m7743148312" x="732.218281" y="129.689062" style="fill: #d62728; stroke: #000000; stroke-linejoin: miter"/>
     </g>
    </g>
    <g id="text_44">
     <!-- DUL03±SD (n=6) -->
     <g transform="translate(750.218281 133.189062) scale(0.1 -0.1)">
      <use xlink:href="#DejaVuSans-44"/>
      <use xlink:href="#DejaVuSans-55" transform="translate(77.001953 0)"/>
      <use xlink:href="#DejaVuSans-4c" transform="translate(150.195312 0)"/>
      <use xlink:href="#DejaVuSans-30" transform="translate(205.908203 0)"/>
      <use xlink:href="#DejaVuSans-33" transform="translate(269.53125 0)"/>
      <use xlink:href="#DejaVuSans-b1" transform="translate(333.154297 0)"/>
      <use xlink:href="#DejaVuSans-53" transform="translate(416.943359 0)"/>
      <use xlink:href="#DejaVuSans-44" transform="translate(480.419922 0)"/>
      <use xlink:href="#DejaVuSans-20" transform="translate(557.421875 0)"/>
      <use xlink:href="#DejaVuSans-28" transform="translate(589.208984 0)"/>
      <use xlink:href="#DejaVuSans-6e" transform="translate(628.222656 0)"/>
      <use xlink:href="#DejaVuSans-3d" transform="translate(691.601562 0)"/>
      <use xlink:href="#DejaVuSans-36" transform="translate(775.390625 0)"/>
      <use xlink:href="#DejaVuSans-29" transform="translate(839.013672 0)"/>
     </g>
    </g>
    <g id="line2d_89">
     <path d="M 722.218281 144.367187 
L 742.218281 144.367187 
" style="fill: none; stroke: #1f77b4; stroke-width: 2; stroke-linecap: square"/>
    </g>
    <g id="line2d_90"/>
    <g id="text_45">
     <!-- DUL1 -->
     <g transform="translate(750.218281 147.867187) scale(0.1 -0.1)">
      <use xlink:href="#DejaVuSans-44"/>
      <use xlink:href="#DejaVuSans-55" transform="translate(77.001953 0)"/>
      <use xlink:href="#DejaVuSans-4c" transform="translate(150.195312 0)"/>
      <use xlink:href="#DejaVuSans-31" transform="translate(205.908203 0)"/>
     </g>
    </g>
    <g id="LineCollection_25">
     <path d="M 732.218281 164.045312 
L 732.218281 154.045312 
" style="fill: none; stroke: #1f77b4"/>
    </g>
    <g id="line2d_91">
     <path d="M 722.218281 159.045312 
L 742.218281 159.045312 
" style="fill: none; stroke-dasharray: 3.7,1.6; stroke-dashoffset: 0; stroke: #1f77b4"/>
    </g>
    <g id="line2d_92">
     <g>
      <use xlink:href="#ma176b9a3ca" x="732.218281" y="159.045312" style="fill: #1f77b4; stroke: #000000; stroke-linejoin: miter"/>
     </g>
    </g>
    <g id="text_46">
     <!-- DUL1±SD (n=5) -->
     <g transform="translate(750.218281 162.545312) scale(0.1 -0.1)">
      <use xlink:href="#DejaVuSans-44"/>
      <use xlink:href="#DejaVuSans-55" transform="translate(77.001953 0)"/>
      <use xlink:href="#DejaVuSans-4c" transform="translate(150.195312 0)"/>
      <use xlink:href="#DejaVuSans-31" transform="translate(205.908203 0)"/>
      <use xlink:href="#DejaVuSans-b1" transform="translate(269.53125 0)"/>
      <use xlink:href="#DejaVuSans-53" transform="translate(353.320312 0)"/>
      <use xlink:href="#DejaVuSans-44" transform="translate(416.796875 0)"/>
      <use xlink:href="#DejaVuSans-20" transform="translate(493.798828 0)"/>
      <use xlink:href="#DejaVuSans-28" transform="translate(525.585938 0)"/>
      <use xlink:href="#DejaVuSans-6e" transform="translate(564.599609 0)"/>
      <use xlink:href="#DejaVuSans-3d" transform="translate(627.978516 0)"/>
      <use xlink:href="#DejaVuSans-35" transform="translate(711.767578 0)"/>
      <use xlink:href="#DejaVuSans-29" transform="translate(775.390625 0)"/>
     </g>
    </g>
    <g id="line2d_93">
     <path d="M 722.218281 173.723437 
L 742.218281 173.723437 
" style="fill: none; stroke: #e377c2; stroke-width: 2; stroke-linecap: square"/>
    </g>
    <g id="line2d_94"/>
    <g id="text_47">
     <!-- DUL3 -->
     <g transform="translate(750.218281 177.223437) scale(0.1 -0.1)">
      <use xlink:href="#DejaVuSans-44"/>
      <use xlink:href="#DejaVuSans-55" transform="translate(77.001953 0)"/>
      <use xlink:href="#DejaVuSans-4c" transform="translate(150.195312 0)"/>
      <use xlink:href="#DejaVuSans-33" transform="translate(205.908203 0)"/>
     </g>
    </g>
    <g id="LineCollection_26">
     <path d="M 732.218281 193.401562 
L 732.218281 183.401562 
" style="fill: none; stroke: #e377c2"/>
    </g>
    <g id="line2d_95">
     <path d="M 722.218281 188.401562 
L 742.218281 188.401562 
" style="fill: none; stroke-dasharray: 3.7,1.6; stroke-dashoffset: 0; stroke: #e377c2"/>
    </g>
    <g id="line2d_96">
     <g>
      <use xlink:href="#mbc30d401a6" x="732.218281" y="188.401562" style="fill: #e377c2; stroke: #000000; stroke-linejoin: miter"/>
     </g>
    </g>
    <g id="text_48">
     <!-- DUL3±SD (n=3) -->
     <g transform="translate(750.218281 191.901562) scale(0.1 -0.1)">
      <use xlink:href="#DejaVuSans-44"/>
      <use xlink:href="#DejaVuSans-55" transform="translate(77.001953 0)"/>
      <use xlink:href="#DejaVuSans-4c" transform="translate(150.195312 0)"/>
      <use xlink:href="#DejaVuSans-33" transform="translate(205.908203 0)"/>
      <use xlink:href="#DejaVuSans-b1" transform="translate(269.53125 0)"/>
      <use xlink:href="#DejaVuSans-53" transform="translate(353.320312 0)"/>
      <use xlink:href="#DejaVuSans-44" transform="translate(416.796875 0)"/>
      <use xlink:href="#DejaVuSans-20" transform="translate(493.798828 0)"/>
      <use xlink:href="#DejaVuSans-28" transform="translate(525.585938 0)"/>
      <use xlink:href="#DejaVuSans-6e" transform="translate(564.599609 0)"/>
      <use xlink:href="#DejaVuSans-3d" transform="translate(627.978516 0)"/>
      <use xlink:href="#DejaVuSans-33" transform="translate(711.767578 0)"/>
      <use xlink:href="#DejaVuSans-29" transform="translate(775.390625 0)"/>
     </g>
    </g>
    <g id="line2d_97">
     <path d="M 722.218281 203.079687 
L 742.218281 203.079687 
" style="fill: none; stroke: #17becf; stroke-width: 2; stroke-linecap: square"/>
    </g>
    <g id="line2d_98"/>
    <g id="text_49">
     <!-- DUL5 -->
     <g transform="translate(750.218281 206.579687) scale(0.1 -0.1)">
      <use xlink:href="#DejaVuSans-44"/>
      <use xlink:href="#DejaVuSans-55" transform="translate(77.001953 0)"/>
      <use xlink:href="#DejaVuSans-4c" transform="translate(150.195312 0)"/>
      <use xlink:href="#DejaVuSans-35" transform="translate(205.908203 0)"/>
     </g>
    </g>
    <g id="LineCollection_27">
     <path d="M 732.218281 222.757812 
L 732.218281 212.757812 
" style="fill: none; stroke: #17becf"/>
    </g>
    <g id="line2d_99">
     <path d="M 722.218281 217.757812 
L 742.218281 217.757812 
" style="fill: none; stroke-dasharray: 3.7,1.6; stroke-dashoffset: 0; stroke: #17becf"/>
    </g>
    <g id="line2d_100">
     <g>
      <use xlink:href="#mb574c148a2" x="732.218281" y="217.757812" style="fill: #17becf; stroke: #000000; stroke-linejoin: miter"/>
     </g>
    </g>
    <g id="text_50">
     <!-- DUL5±SD (n=9) -->
     <g transform="translate(750.218281 221.257812) scale(0.1 -0.1)">
      <use xlink:href="#DejaVuSans-44"/>
      <use xlink:href="#DejaVuSans-55" transform="translate(77.001953 0)"/>
      <use xlink:href="#DejaVuSans-4c" transform="translate(150.195312 0)"/>
      <use xlink:href="#DejaVuSans-35" transform="translate(205.908203 0)"/>
      <use xlink:href="#DejaVuSans-b1" transform="translate(269.53125 0)"/>
      <use xlink:href="#DejaVuSans-53" transform="translate(353.320312 0)"/>
      <use xlink:href="#DejaVuSans-44" transform="translate(416.796875 0)"/>
      <use xlink:href="#DejaVuSans-20" transform="translate(493.798828 0)"/>
      <use xlink:href="#DejaVuSans-28" transform="translate(525.585938 0)"/>
      <use xlink:href="#DejaVuSans-6e" transform="translate(564.599609 0)"/>
      <use xlink:href="#DejaVuSans-3d" transform="translate(627.978516 0)"/>
      <use xlink:href="#DejaVuSans-39" transform="translate(711.767578 0)"/>
      <use xlink:href="#DejaVuSans-29" transform="translate(775.390625 0)"/>
     </g>
    </g>
    <g id="line2d_101">
     <path d="M 722.218281 232.435937 
L 742.218281 232.435937 
" style="fill: none; stroke: #8c564b; stroke-width: 2; stroke-linecap: square"/>
    </g>
    <g id="line2d_102"/>
    <g id="text_51">
     <!-- DUL8 -->
     <g transform="translate(750.218281 235.935937) scale(0.1 -0.1)">
      <use xlink:href="#DejaVuSans-44"/>
      <use xlink:href="#DejaVuSans-55" transform="translate(77.001953 0)"/>
      <use xlink:href="#DejaVuSans-4c" transform="translate(150.195312 0)"/>
      <use xlink:href="#DejaVuSans-38" transform="translate(205.908203 0)"/>
     </g>
    </g>
    <g id="LineCollection_28">
     <path d="M 732.218281 252.114062 
L 732.218281 242.114062 
" style="fill: none; stroke: #8c564b"/>
    </g>
    <g id="line2d_103">
     <path d="M 722.218281 247.114062 
L 742.218281 247.114062 
" style="fill: none; stroke-dasharray: 3.7,1.6; stroke-dashoffset: 0; stroke: #8c564b"/>
    </g>
    <g id="line2d_104">
     <g>
      <use xlink:href="#m52f3cf7592" x="732.218281" y="247.114062" style="fill: #8c564b; stroke: #000000; stroke-linejoin: miter"/>
     </g>
    </g>
    <g id="text_52">
     <!-- DUL8±SD (n=6) -->
     <g transform="translate(750.218281 250.614062) scale(0.1 -0.1)">
      <use xlink:href="#DejaVuSans-44"/>
      <use xlink:href="#DejaVuSans-55" transform="translate(77.001953 0)"/>
      <use xlink:href="#DejaVuSans-4c" transform="translate(150.195312 0)"/>
      <use xlink:href="#DejaVuSans-38" transform="translate(205.908203 0)"/>
      <use xlink:href="#DejaVuSans-b1" transform="translate(269.53125 0)"/>
      <use xlink:href="#DejaVuSans-53" transform="translate(353.320312 0)"/>
      <use xlink:href="#DejaVuSans-44" transform="translate(416.796875 0)"/>
      <use xlink:href="#DejaVuSans-20" transform="translate(493.798828 0)"/>
      <use xlink:href="#DejaVuSans-28" transform="translate(525.585938 0)"/>
      <use xlink:href="#DejaVuSans-6e" transform="translate(564.599609 0)"/>
      <use xlink:href="#DejaVuSans-3d" transform="translate(627.978516 0)"/>
      <use xlink:href="#DejaVuSans-36" transform="translate(711.767578 0)"/>
      <use xlink:href="#DejaVuSans-29" transform="translate(775.390625 0)"/>
     </g>
    </g>
   </g>
  </g>
  <g id="text_53">
   <!-- Barrington2011a (T2DM) -->
   <g transform="translate(275.259687 26.196094) scale(0.25 -0.25)">
    <defs>
     <path id="DejaVuSans-Bold-42" d="M 2456 2859 
Q 2741 2859 2887 2984 
Q 3034 3109 3034 3353 
Q 3034 3594 2887 3720 
Q 2741 3847 2456 3847 
L 1791 3847 
L 1791 2859 
L 2456 2859 
z
M 2497 819 
Q 2859 819 3042 972 
Q 3225 1125 3225 1434 
Q 3225 1738 3044 1889 
Q 2863 2041 2497 2041 
L 1791 2041 
L 1791 819 
L 2497 819 
z
M 3616 2497 
Q 4003 2384 4215 2081 
Q 4428 1778 4428 1338 
Q 4428 663 3972 331 
Q 3516 0 2584 0 
L 588 0 
L 588 4666 
L 2394 4666 
Q 3366 4666 3802 4372 
Q 4238 4078 4238 3431 
Q 4238 3091 4078 2852 
Q 3919 2613 3616 2497 
z
" transform="scale(0.015625)"/>
     <path id="DejaVuSans-Bold-32" d="M 1844 884 
L 3897 884 
L 3897 0 
L 506 0 
L 506 884 
L 2209 2388 
Q 2438 2594 2547 2791 
Q 2656 2988 2656 3200 
Q 2656 3528 2436 3728 
Q 2216 3928 1850 3928 
Q 1569 3928 1234 3808 
Q 900 3688 519 3450 
L 519 4475 
Q 925 4609 1322 4679 
Q 1719 4750 2100 4750 
Q 2938 4750 3402 4381 
Q 3866 4013 3866 3353 
Q 3866 2972 3669 2642 
Q 3472 2313 2841 1759 
L 1844 884 
z
" transform="scale(0.015625)"/>
     <path id="DejaVuSans-Bold-30" d="M 2944 2338 
Q 2944 3213 2780 3570 
Q 2616 3928 2228 3928 
Q 1841 3928 1675 3570 
Q 1509 3213 1509 2338 
Q 1509 1453 1675 1090 
Q 1841 728 2228 728 
Q 2613 728 2778 1090 
Q 2944 1453 2944 2338 
z
M 4147 2328 
Q 4147 1169 3647 539 
Q 3147 -91 2228 -91 
Q 1306 -91 806 539 
Q 306 1169 306 2328 
Q 306 3491 806 4120 
Q 1306 4750 2228 4750 
Q 3147 4750 3647 4120 
Q 4147 3491 4147 2328 
z
" transform="scale(0.015625)"/>
     <path id="DejaVuSans-Bold-28" d="M 2413 -844 
L 1484 -844 
Q 1006 -72 778 623 
Q 550 1319 550 2003 
Q 550 2688 779 3389 
Q 1009 4091 1484 4856 
L 2413 4856 
Q 2013 4116 1813 3408 
Q 1613 2700 1613 2009 
Q 1613 1319 1811 609 
Q 2009 -100 2413 -844 
z
" transform="scale(0.015625)"/>
     <path id="DejaVuSans-Bold-54" d="M 31 4666 
L 4331 4666 
L 4331 3756 
L 2784 3756 
L 2784 0 
L 1581 0 
L 1581 3756 
L 31 3756 
L 31 4666 
z
" transform="scale(0.015625)"/>
     <path id="DejaVuSans-Bold-44" d="M 1791 3756 
L 1791 909 
L 2222 909 
Q 2959 909 3348 1275 
Q 3738 1641 3738 2338 
Q 3738 3031 3350 3393 
Q 2963 3756 2222 3756 
L 1791 3756 
z
M 588 4666 
L 1856 4666 
Q 2919 4666 3439 4514 
Q 3959 4363 4331 4000 
Q 4659 3684 4818 3271 
Q 4978 2859 4978 2338 
Q 4978 1809 4818 1395 
Q 4659 981 4331 666 
Q 3956 303 3431 151 
Q 2906 0 1856 0 
L 588 0 
L 588 4666 
z
" transform="scale(0.015625)"/>
     <path id="DejaVuSans-Bold-4d" d="M 588 4666 
L 2119 4666 
L 3181 2169 
L 4250 4666 
L 5778 4666 
L 5778 0 
L 4641 0 
L 4641 3413 
L 3566 897 
L 2803 897 
L 1728 3413 
L 1728 0 
L 588 0 
L 588 4666 
z
" transform="scale(0.015625)"/>
     <path id="DejaVuSans-Bold-29" d="M 513 -844 
Q 913 -100 1113 609 
Q 1313 1319 1313 2009 
Q 1313 2700 1113 3408 
Q 913 4116 513 4856 
L 1441 4856 
Q 1916 4091 2145 3389 
Q 2375 2688 2375 2003 
Q 2375 1319 2147 623 
Q 1919 -72 1441 -844 
L 513 -844 
z
" transform="scale(0.015625)"/>
    </defs>
    <use xlink:href="#DejaVuSans-Bold-42"/>
    <use xlink:href="#DejaVuSans-Bold-61" transform="translate(76.220703 0)"/>
    <use xlink:href="#DejaVuSans-Bold-72" transform="translate(143.701172 0)"/>
    <use xlink:href="#DejaVuSans-Bold-72" transform="translate(193.017578 0)"/>
    <use xlink:href="#DejaVuSans-Bold-69" transform="translate(242.333984 0)"/>
    <use xlink:href="#DejaVuSans-Bold-6e" transform="translate(276.611328 0)"/>
    <use xlink:href="#DejaVuSans-Bold-67" transform="translate(347.802734 0)"/>
    <use xlink:href="#DejaVuSans-Bold-74" transform="translate(419.384766 0)"/>
    <use xlink:href="#DejaVuSans-Bold-6f" transform="translate(467.1875 0)"/>
    <use xlink:href="#DejaVuSans-Bold-6e" transform="translate(535.888672 0)"/>
    <use xlink:href="#DejaVuSans-Bold-32" transform="translate(607.080078 0)"/>
    <use xlink:href="#DejaVuSans-Bold-30" transform="translate(676.660156 0)"/>
    <use xlink:href="#DejaVuSans-Bold-31" transform="translate(746.240234 0)"/>
    <use xlink:href="#DejaVuSans-Bold-31" transform="translate(815.820312 0)"/>
    <use xlink:href="#DejaVuSans-Bold-61" transform="translate(885.400391 0)"/>
    <use xlink:href="#DejaVuSans-Bold-20" transform="translate(952.880859 0)"/>
    <use xlink:href="#DejaVuSans-Bold-28" transform="translate(987.695312 0)"/>
    <use xlink:href="#DejaVuSans-Bold-54" transform="translate(1033.398438 0)"/>
    <use xlink:href="#DejaVuSans-Bold-32" transform="translate(1101.611328 0)"/>
    <use xlink:href="#DejaVuSans-Bold-44" transform="translate(1171.191406 0)"/>
    <use xlink:href="#DejaVuSans-Bold-4d" transform="translate(1254.199219 0)"/>
    <use xlink:href="#DejaVuSans-Bold-29" transform="translate(1353.710938 0)"/>
   </g>
  </g>
 </g>
 <defs>
  <clipPath id="pfc2ac07749">
   <rect x="72.185469" y="43.2" width="339.652174" height="277.2"/>
  </clipPath>
  <clipPath id="pd770fa8f16">
   <rect x="513.733295" y="43.2" width="339.652174" height="277.2"/>
  </clipPath>
 </defs>
</svg>
