<?xml version="1.0" encoding="utf-8" standalone="no"?>
<!DOCTYPE svg PUBLIC "-//W3C//DTD SVG 1.1//EN"
  "http://www.w3.org/Graphics/SVG/1.1/DTD/svg11.dtd">
<svg xmlns:xlink="http://www.w3.org/1999/xlink" width="841.123145pt" height="683.737812pt" viewBox="0 0 841.123145 683.737812" xmlns="http://www.w3.org/2000/svg" version="1.1">
 <metadata>
  <rdf:RDF xmlns:dc="http://purl.org/dc/elements/1.1/" xmlns:cc="http://creativecommons.org/ns#" xmlns:rdf="http://www.w3.org/1999/02/22-rdf-syntax-ns#">
   <cc:Work>
    <dc:type rdf:resource="http://purl.org/dc/dcmitype/StillImage"/>
    <dc:date>2025-11-06T15:22:09.627871</dc:date>
    <dc:format>image/svg+xml</dc:format>
    <dc:creator>
     <cc:Agent>
      <dc:title>Matplotlib v3.10.7, https://matplotlib.org/</dc:title>
     </cc:Agent>
    </dc:creator>
   </cc:Work>
  </rdf:RDF>
 </metadata>
 <defs>
  <style type="text/css">*{stroke-linejoin: round; stroke-linecap: butt}</style>
 </defs>
 <g id="figure_1">
  <g id="patch_1">
   <path d="M 0 683.737812 
L 841.123145 683.737812 
L 841.123145 0 
L 0 0 
z
" style="fill: #ffffff"/>
  </g>
  <g id="axes_1">
   <g id="patch_2">
    <path d="M 45.164375 320.243478 
L 384.816549 320.243478 
L 384.816549 79.2 
L 45.164375 79.2 
z
" style="fill: #ffffff"/>
   </g>
   <g id="matplotlib.axis_1">
    <g id="xtick_1">
     <g id="line2d_1">
      <defs>
       <path id="m483bef0191" d="M 0 0 
L 0 3.5 
" style="stroke: #000000; stroke-width: 0.8"/>
      </defs>
      <g>
       <use xlink:href="#m483bef0191" x="60.60311" y="320.243478" style="stroke: #000000; stroke-width: 0.8"/>
      </g>
     </g>
     <g id="text_1">
      <!-- 0 -->
      <g transform="translate(55.831235 338.641135) scale(0.15 -0.15)">
       <defs>
        <path id="DejaVuSans-30" d="M 2034 4250 
Q 1547 4250 1301 3770 
Q 1056 3291 1056 2328 
Q 1056 1369 1301 889 
Q 1547 409 2034 409 
Q 2525 409 2770 889 
Q 3016 1369 3016 2328 
Q 3016 3291 2770 3770 
Q 2525 4250 2034 4250 
z
M 2034 4750 
Q 2819 4750 3233 4129 
Q 3647 3509 3647 2328 
Q 3647 1150 3233 529 
Q 2819 -91 2034 -91 
Q 1250 -91 836 529 
Q 422 1150 422 2328 
Q 422 3509 836 4129 
Q 1250 4750 2034 4750 
z
" transform="scale(0.015625)"/>
       </defs>
       <use xlink:href="#DejaVuSans-30"/>
      </g>
     </g>
    </g>
    <g id="xtick_2">
     <g id="line2d_2">
      <g>
       <use xlink:href="#m483bef0191" x="114.307853" y="320.243478" style="stroke: #000000; stroke-width: 0.8"/>
      </g>
     </g>
     <g id="text_2">
      <!-- 2 -->
      <g transform="translate(109.535978 338.641135) scale(0.15 -0.15)">
       <defs>
        <path id="DejaVuSans-32" d="M 1228 531 
L 3431 531 
L 3431 0 
L 469 0 
L 469 531 
Q 828 903 1448 1529 
Q 2069 2156 2228 2338 
Q 2531 2678 2651 2914 
Q 2772 3150 2772 3378 
Q 2772 3750 2511 3984 
Q 2250 4219 1831 4219 
Q 1534 4219 1204 4116 
Q 875 4013 500 3803 
L 500 4441 
Q 881 4594 1212 4672 
Q 1544 4750 1819 4750 
Q 2544 4750 2975 4387 
Q 3406 4025 3406 3419 
Q 3406 3131 3298 2873 
Q 3191 2616 2906 2266 
Q 2828 2175 2409 1742 
Q 1991 1309 1228 531 
z
" transform="scale(0.015625)"/>
       </defs>
       <use xlink:href="#DejaVuSans-32"/>
      </g>
     </g>
    </g>
    <g id="xtick_3">
     <g id="line2d_3">
      <g>
       <use xlink:href="#m483bef0191" x="168.012596" y="320.243478" style="stroke: #000000; stroke-width: 0.8"/>
      </g>
     </g>
     <g id="text_3">
      <!-- 4 -->
      <g transform="translate(163.240721 338.641135) scale(0.15 -0.15)">
       <defs>
        <path id="DejaVuSans-34" d="M 2419 4116 
L 825 1625 
L 2419 1625 
L 2419 4116 
z
M 2253 4666 
L 3047 4666 
L 3047 1625 
L 3713 1625 
L 3713 1100 
L 3047 1100 
L 3047 0 
L 2419 0 
L 2419 1100 
L 313 1100 
L 313 1709 
L 2253 4666 
z
" transform="scale(0.015625)"/>
       </defs>
       <use xlink:href="#DejaVuSans-34"/>
      </g>
     </g>
    </g>
    <g id="xtick_4">
     <g id="line2d_4">
      <g>
       <use xlink:href="#m483bef0191" x="221.717339" y="320.243478" style="stroke: #000000; stroke-width: 0.8"/>
      </g>
     </g>
     <g id="text_4">
      <!-- 6 -->
      <g transform="translate(216.945464 338.641135) scale(0.15 -0.15)">
       <defs>
        <path id="DejaVuSans-36" d="M 2113 2584 
Q 1688 2584 1439 2293 
Q 1191 2003 1191 1497 
Q 1191 994 1439 701 
Q 1688 409 2113 409 
Q 2538 409 2786 701 
Q 3034 994 3034 1497 
Q 3034 2003 2786 2293 
Q 2538 2584 2113 2584 
z
M 3366 4563 
L 3366 3988 
Q 3128 4100 2886 4159 
Q 2644 4219 2406 4219 
Q 1781 4219 1451 3797 
Q 1122 3375 1075 2522 
Q 1259 2794 1537 2939 
Q 1816 3084 2150 3084 
Q 2853 3084 3261 2657 
Q 3669 2231 3669 1497 
Q 3669 778 3244 343 
Q 2819 -91 2113 -91 
Q 1303 -91 875 529 
Q 447 1150 447 2328 
Q 447 3434 972 4092 
Q 1497 4750 2381 4750 
Q 2619 4750 2861 4703 
Q 3103 4656 3366 4563 
z
" transform="scale(0.015625)"/>
       </defs>
       <use xlink:href="#DejaVuSans-36"/>
      </g>
     </g>
    </g>
    <g id="xtick_5">
     <g id="line2d_5">
      <g>
       <use xlink:href="#m483bef0191" x="275.422083" y="320.243478" style="stroke: #000000; stroke-width: 0.8"/>
      </g>
     </g>
     <g id="text_5">
      <!-- 8 -->
      <g transform="translate(270.650208 338.641135) scale(0.15 -0.15)">
       <defs>
        <path id="DejaVuSans-38" d="M 2034 2216 
Q 1584 2216 1326 1975 
Q 1069 1734 1069 1313 
Q 1069 891 1326 650 
Q 1584 409 2034 409 
Q 2484 409 2743 651 
Q 3003 894 3003 1313 
Q 3003 1734 2745 1975 
Q 2488 2216 2034 2216 
z
M 1403 2484 
Q 997 2584 770 2862 
Q 544 3141 544 3541 
Q 544 4100 942 4425 
Q 1341 4750 2034 4750 
Q 2731 4750 3128 4425 
Q 3525 4100 3525 3541 
Q 3525 3141 3298 2862 
Q 3072 2584 2669 2484 
Q 3125 2378 3379 2068 
Q 3634 1759 3634 1313 
Q 3634 634 3220 271 
Q 2806 -91 2034 -91 
Q 1263 -91 848 271 
Q 434 634 434 1313 
Q 434 1759 690 2068 
Q 947 2378 1403 2484 
z
M 1172 3481 
Q 1172 3119 1398 2916 
Q 1625 2713 2034 2713 
Q 2441 2713 2670 2916 
Q 2900 3119 2900 3481 
Q 2900 3844 2670 4047 
Q 2441 4250 2034 4250 
Q 1625 4250 1398 4047 
Q 1172 3844 1172 3481 
z
" transform="scale(0.015625)"/>
       </defs>
       <use xlink:href="#DejaVuSans-38"/>
      </g>
     </g>
    </g>
    <g id="xtick_6">
     <g id="line2d_6">
      <g>
       <use xlink:href="#m483bef0191" x="329.126826" y="320.243478" style="stroke: #000000; stroke-width: 0.8"/>
      </g>
     </g>
     <g id="text_6">
      <!-- 10 -->
      <g transform="translate(319.583076 338.641135) scale(0.15 -0.15)">
       <defs>
        <path id="DejaVuSans-31" d="M 794 531 
L 1825 531 
L 1825 4091 
L 703 3866 
L 703 4441 
L 1819 4666 
L 2450 4666 
L 2450 531 
L 3481 531 
L 3481 0 
L 794 0 
L 794 531 
z
" transform="scale(0.015625)"/>
       </defs>
       <use xlink:href="#DejaVuSans-31"/>
       <use xlink:href="#DejaVuSans-30" transform="translate(63.623047 0)"/>
      </g>
     </g>
    </g>
    <g id="xtick_7">
     <g id="line2d_7">
      <g>
       <use xlink:href="#m483bef0191" x="382.831569" y="320.243478" style="stroke: #000000; stroke-width: 0.8"/>
      </g>
     </g>
     <g id="text_7">
      <!-- 12 -->
      <g transform="translate(373.287819 338.641135) scale(0.15 -0.15)">
       <use xlink:href="#DejaVuSans-31"/>
       <use xlink:href="#DejaVuSans-32" transform="translate(63.623047 0)"/>
      </g>
     </g>
    </g>
    <g id="text_8">
     <!-- time [month] -->
     <g transform="translate(148.083899 359.437853) scale(0.18 -0.18)">
      <defs>
       <path id="DejaVuSans-Bold-74" d="M 1759 4494 
L 1759 3500 
L 2913 3500 
L 2913 2700 
L 1759 2700 
L 1759 1216 
Q 1759 972 1856 886 
Q 1953 800 2241 800 
L 2816 800 
L 2816 0 
L 1856 0 
Q 1194 0 917 276 
Q 641 553 641 1216 
L 641 2700 
L 84 2700 
L 84 3500 
L 641 3500 
L 641 4494 
L 1759 4494 
z
" transform="scale(0.015625)"/>
       <path id="DejaVuSans-Bold-69" d="M 538 3500 
L 1656 3500 
L 1656 0 
L 538 0 
L 538 3500 
z
M 538 4863 
L 1656 4863 
L 1656 3950 
L 538 3950 
L 538 4863 
z
" transform="scale(0.015625)"/>
       <path id="DejaVuSans-Bold-6d" d="M 3781 2919 
Q 3994 3244 4286 3414 
Q 4578 3584 4928 3584 
Q 5531 3584 5847 3212 
Q 6163 2841 6163 2131 
L 6163 0 
L 5038 0 
L 5038 1825 
Q 5041 1866 5042 1909 
Q 5044 1953 5044 2034 
Q 5044 2406 4934 2573 
Q 4825 2741 4581 2741 
Q 4263 2741 4089 2478 
Q 3916 2216 3909 1719 
L 3909 0 
L 2784 0 
L 2784 1825 
Q 2784 2406 2684 2573 
Q 2584 2741 2328 2741 
Q 2006 2741 1831 2477 
Q 1656 2213 1656 1722 
L 1656 0 
L 531 0 
L 531 3500 
L 1656 3500 
L 1656 2988 
Q 1863 3284 2130 3434 
Q 2397 3584 2719 3584 
Q 3081 3584 3359 3409 
Q 3638 3234 3781 2919 
z
" transform="scale(0.015625)"/>
       <path id="DejaVuSans-Bold-65" d="M 4031 1759 
L 4031 1441 
L 1416 1441 
Q 1456 1047 1700 850 
Q 1944 653 2381 653 
Q 2734 653 3104 758 
Q 3475 863 3866 1075 
L 3866 213 
Q 3469 63 3072 -14 
Q 2675 -91 2278 -91 
Q 1328 -91 801 392 
Q 275 875 275 1747 
Q 275 2603 792 3093 
Q 1309 3584 2216 3584 
Q 3041 3584 3536 3087 
Q 4031 2591 4031 1759 
z
M 2881 2131 
Q 2881 2450 2695 2645 
Q 2509 2841 2209 2841 
Q 1884 2841 1681 2658 
Q 1478 2475 1428 2131 
L 2881 2131 
z
" transform="scale(0.015625)"/>
       <path id="DejaVuSans-Bold-20" transform="scale(0.015625)"/>
       <path id="DejaVuSans-Bold-5b" d="M 550 4863 
L 2491 4863 
L 2491 4159 
L 1613 4159 
L 1613 -141 
L 2491 -141 
L 2491 -844 
L 550 -844 
L 550 4863 
z
" transform="scale(0.015625)"/>
       <path id="DejaVuSans-Bold-6f" d="M 2203 2784 
Q 1831 2784 1636 2517 
Q 1441 2250 1441 1747 
Q 1441 1244 1636 976 
Q 1831 709 2203 709 
Q 2569 709 2762 976 
Q 2956 1244 2956 1747 
Q 2956 2250 2762 2517 
Q 2569 2784 2203 2784 
z
M 2203 3584 
Q 3106 3584 3614 3096 
Q 4122 2609 4122 1747 
Q 4122 884 3614 396 
Q 3106 -91 2203 -91 
Q 1297 -91 786 396 
Q 275 884 275 1747 
Q 275 2609 786 3096 
Q 1297 3584 2203 3584 
z
" transform="scale(0.015625)"/>
       <path id="DejaVuSans-Bold-6e" d="M 4056 2131 
L 4056 0 
L 2931 0 
L 2931 347 
L 2931 1631 
Q 2931 2084 2911 2256 
Q 2891 2428 2841 2509 
Q 2775 2619 2662 2680 
Q 2550 2741 2406 2741 
Q 2056 2741 1856 2470 
Q 1656 2200 1656 1722 
L 1656 0 
L 538 0 
L 538 3500 
L 1656 3500 
L 1656 2988 
Q 1909 3294 2193 3439 
Q 2478 3584 2822 3584 
Q 3428 3584 3742 3212 
Q 4056 2841 4056 2131 
z
" transform="scale(0.015625)"/>
       <path id="DejaVuSans-Bold-68" d="M 4056 2131 
L 4056 0 
L 2931 0 
L 2931 347 
L 2931 1625 
Q 2931 2084 2911 2256 
Q 2891 2428 2841 2509 
Q 2775 2619 2662 2680 
Q 2550 2741 2406 2741 
Q 2056 2741 1856 2470 
Q 1656 2200 1656 1722 
L 1656 0 
L 538 0 
L 538 4863 
L 1656 4863 
L 1656 2988 
Q 1909 3294 2193 3439 
Q 2478 3584 2822 3584 
Q 3428 3584 3742 3212 
Q 4056 2841 4056 2131 
z
" transform="scale(0.015625)"/>
       <path id="DejaVuSans-Bold-5d" d="M 2375 -844 
L 434 -844 
L 434 -141 
L 1313 -141 
L 1313 4159 
L 434 4159 
L 434 4863 
L 2375 4863 
L 2375 -844 
z
" transform="scale(0.015625)"/>
      </defs>
      <use xlink:href="#DejaVuSans-Bold-74"/>
      <use xlink:href="#DejaVuSans-Bold-69" transform="translate(47.802734 0)"/>
      <use xlink:href="#DejaVuSans-Bold-6d" transform="translate(82.080078 0)"/>
      <use xlink:href="#DejaVuSans-Bold-65" transform="translate(186.279297 0)"/>
      <use xlink:href="#DejaVuSans-Bold-20" transform="translate(254.101562 0)"/>
      <use xlink:href="#DejaVuSans-Bold-5b" transform="translate(288.916016 0)"/>
      <use xlink:href="#DejaVuSans-Bold-6d" transform="translate(334.619141 0)"/>
      <use xlink:href="#DejaVuSans-Bold-6f" transform="translate(438.818359 0)"/>
      <use xlink:href="#DejaVuSans-Bold-6e" transform="translate(507.519531 0)"/>
      <use xlink:href="#DejaVuSans-Bold-74" transform="translate(578.710938 0)"/>
      <use xlink:href="#DejaVuSans-Bold-68" transform="translate(626.513672 0)"/>
      <use xlink:href="#DejaVuSans-Bold-5d" transform="translate(697.705078 0)"/>
     </g>
    </g>
   </g>
   <g id="matplotlib.axis_2">
    <g id="ytick_1">
     <g id="line2d_8">
      <defs>
       <path id="m5348615d12" d="M 0 0 
L -3.5 0 
" style="stroke: #000000; stroke-width: 0.8"/>
      </defs>
      <g>
       <use xlink:href="#m5348615d12" x="45.164375" y="320.243478" style="stroke: #000000; stroke-width: 0.8"/>
      </g>
     </g>
     <g id="text_9">
      <!-- 0 -->
      <g transform="translate(28.620625 325.942306) scale(0.15 -0.15)">
       <use xlink:href="#DejaVuSans-30"/>
      </g>
     </g>
    </g>
    <g id="ytick_2">
     <g id="line2d_9">
      <g>
       <use xlink:href="#m5348615d12" x="45.164375" y="263.124171" style="stroke: #000000; stroke-width: 0.8"/>
      </g>
     </g>
     <g id="text_10">
      <!-- 2 -->
      <g transform="translate(28.620625 268.822999) scale(0.15 -0.15)">
       <use xlink:href="#DejaVuSans-32"/>
      </g>
     </g>
    </g>
    <g id="ytick_3">
     <g id="line2d_10">
      <g>
       <use xlink:href="#m5348615d12" x="45.164375" y="206.004863" style="stroke: #000000; stroke-width: 0.8"/>
      </g>
     </g>
     <g id="text_11">
      <!-- 4 -->
      <g transform="translate(28.620625 211.703691) scale(0.15 -0.15)">
       <use xlink:href="#DejaVuSans-34"/>
      </g>
     </g>
    </g>
    <g id="ytick_4">
     <g id="line2d_11">
      <g>
       <use xlink:href="#m5348615d12" x="45.164375" y="148.885555" style="stroke: #000000; stroke-width: 0.8"/>
      </g>
     </g>
     <g id="text_12">
      <!-- 6 -->
      <g transform="translate(28.620625 154.584383) scale(0.15 -0.15)">
       <use xlink:href="#DejaVuSans-36"/>
      </g>
     </g>
    </g>
    <g id="ytick_5">
     <g id="line2d_12">
      <g>
       <use xlink:href="#m5348615d12" x="45.164375" y="91.766248" style="stroke: #000000; stroke-width: 0.8"/>
      </g>
     </g>
     <g id="text_13">
      <!-- 8 -->
      <g transform="translate(28.620625 97.465076) scale(0.15 -0.15)">
       <use xlink:href="#DejaVuSans-38"/>
      </g>
     </g>
    </g>
    <g id="text_14">
     <!-- initial FPG [mM] -->
     <g transform="translate(20.877188 281.804552) rotate(-90) scale(0.18 -0.18)">
      <defs>
       <path id="DejaVuSans-Bold-61" d="M 2106 1575 
Q 1756 1575 1579 1456 
Q 1403 1338 1403 1106 
Q 1403 894 1545 773 
Q 1688 653 1941 653 
Q 2256 653 2472 879 
Q 2688 1106 2688 1447 
L 2688 1575 
L 2106 1575 
z
M 3816 1997 
L 3816 0 
L 2688 0 
L 2688 519 
Q 2463 200 2181 54 
Q 1900 -91 1497 -91 
Q 953 -91 614 226 
Q 275 544 275 1050 
Q 275 1666 698 1953 
Q 1122 2241 2028 2241 
L 2688 2241 
L 2688 2328 
Q 2688 2594 2478 2717 
Q 2269 2841 1825 2841 
Q 1466 2841 1156 2769 
Q 847 2697 581 2553 
L 581 3406 
Q 941 3494 1303 3539 
Q 1666 3584 2028 3584 
Q 2975 3584 3395 3211 
Q 3816 2838 3816 1997 
z
" transform="scale(0.015625)"/>
       <path id="DejaVuSans-Bold-6c" d="M 538 4863 
L 1656 4863 
L 1656 0 
L 538 0 
L 538 4863 
z
" transform="scale(0.015625)"/>
       <path id="DejaVuSans-Bold-46" d="M 588 4666 
L 3834 4666 
L 3834 3756 
L 1791 3756 
L 1791 2888 
L 3713 2888 
L 3713 1978 
L 1791 1978 
L 1791 0 
L 588 0 
L 588 4666 
z
" transform="scale(0.015625)"/>
       <path id="DejaVuSans-Bold-50" d="M 588 4666 
L 2584 4666 
Q 3475 4666 3951 4270 
Q 4428 3875 4428 3144 
Q 4428 2409 3951 2014 
Q 3475 1619 2584 1619 
L 1791 1619 
L 1791 0 
L 588 0 
L 588 4666 
z
M 1791 3794 
L 1791 2491 
L 2456 2491 
Q 2806 2491 2997 2661 
Q 3188 2831 3188 3144 
Q 3188 3456 2997 3625 
Q 2806 3794 2456 3794 
L 1791 3794 
z
" transform="scale(0.015625)"/>
       <path id="DejaVuSans-Bold-47" d="M 4781 347 
Q 4331 128 3847 18 
Q 3363 -91 2847 -91 
Q 1681 -91 1000 561 
Q 319 1213 319 2328 
Q 319 3456 1012 4103 
Q 1706 4750 2913 4750 
Q 3378 4750 3804 4662 
Q 4231 4575 4609 4403 
L 4609 3438 
Q 4219 3659 3833 3768 
Q 3447 3878 3059 3878 
Q 2341 3878 1952 3476 
Q 1563 3075 1563 2328 
Q 1563 1588 1938 1184 
Q 2313 781 3003 781 
Q 3191 781 3352 804 
Q 3513 828 3641 878 
L 3641 1784 
L 2906 1784 
L 2906 2591 
L 4781 2591 
L 4781 347 
z
" transform="scale(0.015625)"/>
       <path id="DejaVuSans-Bold-4d" d="M 588 4666 
L 2119 4666 
L 3181 2169 
L 4250 4666 
L 5778 4666 
L 5778 0 
L 4641 0 
L 4641 3413 
L 3566 897 
L 2803 897 
L 1728 3413 
L 1728 0 
L 588 0 
L 588 4666 
z
" transform="scale(0.015625)"/>
      </defs>
      <use xlink:href="#DejaVuSans-Bold-69"/>
      <use xlink:href="#DejaVuSans-Bold-6e" transform="translate(34.277344 0)"/>
      <use xlink:href="#DejaVuSans-Bold-69" transform="translate(105.46875 0)"/>
      <use xlink:href="#DejaVuSans-Bold-74" transform="translate(139.746094 0)"/>
      <use xlink:href="#DejaVuSans-Bold-69" transform="translate(187.548828 0)"/>
      <use xlink:href="#DejaVuSans-Bold-61" transform="translate(221.826172 0)"/>
      <use xlink:href="#DejaVuSans-Bold-6c" transform="translate(289.306641 0)"/>
      <use xlink:href="#DejaVuSans-Bold-20" transform="translate(323.583984 0)"/>
      <use xlink:href="#DejaVuSans-Bold-46" transform="translate(358.398438 0)"/>
      <use xlink:href="#DejaVuSans-Bold-50" transform="translate(426.708984 0)"/>
      <use xlink:href="#DejaVuSans-Bold-47" transform="translate(500 0)"/>
      <use xlink:href="#DejaVuSans-Bold-20" transform="translate(582.080078 0)"/>
      <use xlink:href="#DejaVuSans-Bold-5b" transform="translate(616.894531 0)"/>
      <use xlink:href="#DejaVuSans-Bold-6d" transform="translate(662.597656 0)"/>
      <use xlink:href="#DejaVuSans-Bold-4d" transform="translate(766.796875 0)"/>
      <use xlink:href="#DejaVuSans-Bold-5d" transform="translate(866.308594 0)"/>
     </g>
    </g>
   </g>
   <g id="line2d_13">
    <path d="M 60.60311 91.766248 
L 369.377814 91.766248 
L 369.377814 91.766248 
" clip-path="url(#p0af0748acb)" style="fill: none; stroke: #000000; stroke-width: 2; stroke-linecap: square"/>
   </g>
   <g id="line2d_14">
    <path d="M 60.60311 91.766248 
L 369.377814 91.766248 
L 369.377814 91.766248 
" clip-path="url(#p0af0748acb)" style="fill: none; stroke: #1f77b4; stroke-width: 2; stroke-linecap: square"/>
   </g>
   <g id="line2d_15">
    <path d="M 60.60311 91.766248 
L 369.377814 91.766248 
L 369.377814 91.766248 
" clip-path="url(#p0af0748acb)" style="fill: none; stroke: #ff7f0e; stroke-width: 2; stroke-linecap: square"/>
   </g>
   <g id="line2d_16">
    <path d="M 60.60311 91.766248 
L 369.377814 91.766248 
L 369.377814 91.766248 
" clip-path="url(#p0af0748acb)" style="fill: none; stroke: #2ca02c; stroke-width: 2; stroke-linecap: square"/>
   </g>
   <g id="line2d_17">
    <path d="M 60.60311 91.766248 
L 369.377814 91.766248 
L 369.377814 91.766248 
" clip-path="url(#p0af0748acb)" style="fill: none; stroke: #d62728; stroke-width: 2; stroke-linecap: square"/>
   </g>
   <g id="patch_3">
    <path d="M 45.164375 320.243478 
L 45.164375 79.2 
" style="fill: none; stroke: #000000; stroke-width: 0.8; stroke-linejoin: miter; stroke-linecap: square"/>
   </g>
   <g id="patch_4">
    <path d="M 384.816549 320.243478 
L 384.816549 79.2 
" style="fill: none; stroke: #000000; stroke-width: 0.8; stroke-linejoin: miter; stroke-linecap: square"/>
   </g>
   <g id="patch_5">
    <path d="M 45.164375 320.243478 
L 384.816549 320.243478 
" style="fill: none; stroke: #000000; stroke-width: 0.8; stroke-linejoin: miter; stroke-linecap: square"/>
   </g>
   <g id="patch_6">
    <path d="M 45.164375 79.2 
L 384.816549 79.2 
" style="fill: none; stroke: #000000; stroke-width: 0.8; stroke-linejoin: miter; stroke-linecap: square"/>
   </g>
   <g id="legend_1">
    <g id="patch_7">
     <path d="M 54.264375 313.743478 
L 144.549375 313.743478 
Q 147.149375 313.743478 147.149375 311.143478 
L 147.149375 217.035666 
Q 147.149375 214.435666 144.549375 214.435666 
L 54.264375 214.435666 
Q 51.664375 214.435666 51.664375 217.035666 
L 51.664375 311.143478 
Q 51.664375 313.743478 54.264375 313.743478 
z
" style="fill: #ffffff; opacity: 0.8; stroke: #cccccc; stroke-linejoin: miter"/>
    </g>
    <g id="line2d_18">
     <path d="M 56.864375 224.963635 
L 82.864375 224.963635 
" style="fill: none; stroke: #000000; stroke-width: 2; stroke-linecap: square"/>
    </g>
    <g id="line2d_19"/>
    <g id="text_15">
     <!-- 0 mM -->
     <g transform="translate(93.264375 229.513635) scale(0.13 -0.13)">
      <defs>
       <path id="DejaVuSans-20" transform="scale(0.015625)"/>
       <path id="DejaVuSans-6d" d="M 3328 2828 
Q 3544 3216 3844 3400 
Q 4144 3584 4550 3584 
Q 5097 3584 5394 3201 
Q 5691 2819 5691 2113 
L 5691 0 
L 5113 0 
L 5113 2094 
Q 5113 2597 4934 2840 
Q 4756 3084 4391 3084 
Q 3944 3084 3684 2787 
Q 3425 2491 3425 1978 
L 3425 0 
L 2847 0 
L 2847 2094 
Q 2847 2600 2669 2842 
Q 2491 3084 2119 3084 
Q 1678 3084 1418 2786 
Q 1159 2488 1159 1978 
L 1159 0 
L 581 0 
L 581 3500 
L 1159 3500 
L 1159 2956 
Q 1356 3278 1631 3431 
Q 1906 3584 2284 3584 
Q 2666 3584 2933 3390 
Q 3200 3197 3328 2828 
z
" transform="scale(0.015625)"/>
       <path id="DejaVuSans-4d" d="M 628 4666 
L 1569 4666 
L 2759 1491 
L 3956 4666 
L 4897 4666 
L 4897 0 
L 4281 0 
L 4281 4097 
L 3078 897 
L 2444 897 
L 1241 4097 
L 1241 0 
L 628 0 
L 628 4666 
z
" transform="scale(0.015625)"/>
      </defs>
      <use xlink:href="#DejaVuSans-30"/>
      <use xlink:href="#DejaVuSans-20" transform="translate(63.623047 0)"/>
      <use xlink:href="#DejaVuSans-6d" transform="translate(95.410156 0)"/>
      <use xlink:href="#DejaVuSans-4d" transform="translate(192.822266 0)"/>
     </g>
    </g>
    <g id="line2d_20">
     <path d="M 56.864375 244.045197 
L 82.864375 244.045197 
" style="fill: none; stroke: #1f77b4; stroke-width: 2; stroke-linecap: square"/>
    </g>
    <g id="line2d_21"/>
    <g id="text_16">
     <!-- 2.5 mM -->
     <g transform="translate(93.264375 248.595197) scale(0.13 -0.13)">
      <defs>
       <path id="DejaVuSans-2e" d="M 684 794 
L 1344 794 
L 1344 0 
L 684 0 
L 684 794 
z
" transform="scale(0.015625)"/>
       <path id="DejaVuSans-35" d="M 691 4666 
L 3169 4666 
L 3169 4134 
L 1269 4134 
L 1269 2991 
Q 1406 3038 1543 3061 
Q 1681 3084 1819 3084 
Q 2600 3084 3056 2656 
Q 3513 2228 3513 1497 
Q 3513 744 3044 326 
Q 2575 -91 1722 -91 
Q 1428 -91 1123 -41 
Q 819 9 494 109 
L 494 744 
Q 775 591 1075 516 
Q 1375 441 1709 441 
Q 2250 441 2565 725 
Q 2881 1009 2881 1497 
Q 2881 1984 2565 2268 
Q 2250 2553 1709 2553 
Q 1456 2553 1204 2497 
Q 953 2441 691 2322 
L 691 4666 
z
" transform="scale(0.015625)"/>
      </defs>
      <use xlink:href="#DejaVuSans-32"/>
      <use xlink:href="#DejaVuSans-2e" transform="translate(63.623047 0)"/>
      <use xlink:href="#DejaVuSans-35" transform="translate(95.410156 0)"/>
      <use xlink:href="#DejaVuSans-20" transform="translate(159.033203 0)"/>
      <use xlink:href="#DejaVuSans-6d" transform="translate(190.820312 0)"/>
      <use xlink:href="#DejaVuSans-4d" transform="translate(288.232422 0)"/>
     </g>
    </g>
    <g id="line2d_22">
     <path d="M 56.864375 263.12676 
L 82.864375 263.12676 
" style="fill: none; stroke: #ff7f0e; stroke-width: 2; stroke-linecap: square"/>
    </g>
    <g id="line2d_23"/>
    <g id="text_17">
     <!-- 5 mM -->
     <g transform="translate(93.264375 267.67676) scale(0.13 -0.13)">
      <use xlink:href="#DejaVuSans-35"/>
      <use xlink:href="#DejaVuSans-20" transform="translate(63.623047 0)"/>
      <use xlink:href="#DejaVuSans-6d" transform="translate(95.410156 0)"/>
      <use xlink:href="#DejaVuSans-4d" transform="translate(192.822266 0)"/>
     </g>
    </g>
    <g id="line2d_24">
     <path d="M 56.864375 282.208322 
L 82.864375 282.208322 
" style="fill: none; stroke: #2ca02c; stroke-width: 2; stroke-linecap: square"/>
    </g>
    <g id="line2d_25"/>
    <g id="text_18">
     <!-- 10 mM -->
     <g transform="translate(93.264375 286.758322) scale(0.13 -0.13)">
      <use xlink:href="#DejaVuSans-31"/>
      <use xlink:href="#DejaVuSans-30" transform="translate(63.623047 0)"/>
      <use xlink:href="#DejaVuSans-20" transform="translate(127.246094 0)"/>
      <use xlink:href="#DejaVuSans-6d" transform="translate(159.033203 0)"/>
      <use xlink:href="#DejaVuSans-4d" transform="translate(256.445312 0)"/>
     </g>
    </g>
    <g id="line2d_26">
     <path d="M 56.864375 301.289885 
L 82.864375 301.289885 
" style="fill: none; stroke: #d62728; stroke-width: 2; stroke-linecap: square"/>
    </g>
    <g id="line2d_27"/>
    <g id="text_19">
     <!-- 20 mM -->
     <g transform="translate(93.264375 305.839885) scale(0.13 -0.13)">
      <use xlink:href="#DejaVuSans-32"/>
      <use xlink:href="#DejaVuSans-30" transform="translate(63.623047 0)"/>
      <use xlink:href="#DejaVuSans-20" transform="translate(127.246094 0)"/>
      <use xlink:href="#DejaVuSans-6d" transform="translate(159.033203 0)"/>
      <use xlink:href="#DejaVuSans-4d" transform="translate(256.445312 0)"/>
     </g>
    </g>
   </g>
  </g>
  <g id="axes_2">
   <g id="patch_8">
    <path d="M 486.712201 320.243478 
L 826.364375 320.243478 
L 826.364375 79.2 
L 486.712201 79.2 
z
" style="fill: #ffffff"/>
   </g>
   <g id="matplotlib.axis_3">
    <g id="xtick_8">
     <g id="line2d_28">
      <g>
       <use xlink:href="#m483bef0191" x="502.150936" y="320.243478" style="stroke: #000000; stroke-width: 0.8"/>
      </g>
     </g>
     <g id="text_20">
      <!-- 0 -->
      <g transform="translate(497.379061 338.641135) scale(0.15 -0.15)">
       <use xlink:href="#DejaVuSans-30"/>
      </g>
     </g>
    </g>
    <g id="xtick_9">
     <g id="line2d_29">
      <g>
       <use xlink:href="#m483bef0191" x="555.855679" y="320.243478" style="stroke: #000000; stroke-width: 0.8"/>
      </g>
     </g>
     <g id="text_21">
      <!-- 2 -->
      <g transform="translate(551.083804 338.641135) scale(0.15 -0.15)">
       <use xlink:href="#DejaVuSans-32"/>
      </g>
     </g>
    </g>
    <g id="xtick_10">
     <g id="line2d_30">
      <g>
       <use xlink:href="#m483bef0191" x="609.560422" y="320.243478" style="stroke: #000000; stroke-width: 0.8"/>
      </g>
     </g>
     <g id="text_22">
      <!-- 4 -->
      <g transform="translate(604.788547 338.641135) scale(0.15 -0.15)">
       <use xlink:href="#DejaVuSans-34"/>
      </g>
     </g>
    </g>
    <g id="xtick_11">
     <g id="line2d_31">
      <g>
       <use xlink:href="#m483bef0191" x="663.265166" y="320.243478" style="stroke: #000000; stroke-width: 0.8"/>
      </g>
     </g>
     <g id="text_23">
      <!-- 6 -->
      <g transform="translate(658.493291 338.641135) scale(0.15 -0.15)">
       <use xlink:href="#DejaVuSans-36"/>
      </g>
     </g>
    </g>
    <g id="xtick_12">
     <g id="line2d_32">
      <g>
       <use xlink:href="#m483bef0191" x="716.969909" y="320.243478" style="stroke: #000000; stroke-width: 0.8"/>
      </g>
     </g>
     <g id="text_24">
      <!-- 8 -->
      <g transform="translate(712.198034 338.641135) scale(0.15 -0.15)">
       <use xlink:href="#DejaVuSans-38"/>
      </g>
     </g>
    </g>
    <g id="xtick_13">
     <g id="line2d_33">
      <g>
       <use xlink:href="#m483bef0191" x="770.674652" y="320.243478" style="stroke: #000000; stroke-width: 0.8"/>
      </g>
     </g>
     <g id="text_25">
      <!-- 10 -->
      <g transform="translate(761.130902 338.641135) scale(0.15 -0.15)">
       <use xlink:href="#DejaVuSans-31"/>
       <use xlink:href="#DejaVuSans-30" transform="translate(63.623047 0)"/>
      </g>
     </g>
    </g>
    <g id="xtick_14">
     <g id="line2d_34">
      <g>
       <use xlink:href="#m483bef0191" x="824.379395" y="320.243478" style="stroke: #000000; stroke-width: 0.8"/>
      </g>
     </g>
     <g id="text_26">
      <!-- 12 -->
      <g transform="translate(814.835645 338.641135) scale(0.15 -0.15)">
       <use xlink:href="#DejaVuSans-31"/>
       <use xlink:href="#DejaVuSans-32" transform="translate(63.623047 0)"/>
      </g>
     </g>
    </g>
    <g id="text_27">
     <!-- time [month] -->
     <g transform="translate(589.631726 359.437853) scale(0.18 -0.18)">
      <use xlink:href="#DejaVuSans-Bold-74"/>
      <use xlink:href="#DejaVuSans-Bold-69" transform="translate(47.802734 0)"/>
      <use xlink:href="#DejaVuSans-Bold-6d" transform="translate(82.080078 0)"/>
      <use xlink:href="#DejaVuSans-Bold-65" transform="translate(186.279297 0)"/>
      <use xlink:href="#DejaVuSans-Bold-20" transform="translate(254.101562 0)"/>
      <use xlink:href="#DejaVuSans-Bold-5b" transform="translate(288.916016 0)"/>
      <use xlink:href="#DejaVuSans-Bold-6d" transform="translate(334.619141 0)"/>
      <use xlink:href="#DejaVuSans-Bold-6f" transform="translate(438.818359 0)"/>
      <use xlink:href="#DejaVuSans-Bold-6e" transform="translate(507.519531 0)"/>
      <use xlink:href="#DejaVuSans-Bold-74" transform="translate(578.710938 0)"/>
      <use xlink:href="#DejaVuSans-Bold-68" transform="translate(626.513672 0)"/>
      <use xlink:href="#DejaVuSans-Bold-5d" transform="translate(697.705078 0)"/>
     </g>
    </g>
   </g>
   <g id="matplotlib.axis_4">
    <g id="ytick_6">
     <g id="line2d_35">
      <g>
       <use xlink:href="#m5348615d12" x="486.712201" y="320.243478" style="stroke: #000000; stroke-width: 0.8"/>
      </g>
     </g>
     <g id="text_28">
      <!-- 0 -->
      <g transform="translate(470.168451 325.942306) scale(0.15 -0.15)">
       <use xlink:href="#DejaVuSans-30"/>
      </g>
     </g>
    </g>
    <g id="ytick_7">
     <g id="line2d_36">
      <g>
       <use xlink:href="#m5348615d12" x="486.712201" y="261.091704" style="stroke: #000000; stroke-width: 0.8"/>
      </g>
     </g>
     <g id="text_29">
      <!-- 2 -->
      <g transform="translate(470.168451 266.790533) scale(0.15 -0.15)">
       <use xlink:href="#DejaVuSans-32"/>
      </g>
     </g>
    </g>
    <g id="ytick_8">
     <g id="line2d_37">
      <g>
       <use xlink:href="#m5348615d12" x="486.712201" y="201.939931" style="stroke: #000000; stroke-width: 0.8"/>
      </g>
     </g>
     <g id="text_30">
      <!-- 4 -->
      <g transform="translate(470.168451 207.638759) scale(0.15 -0.15)">
       <use xlink:href="#DejaVuSans-34"/>
      </g>
     </g>
    </g>
    <g id="ytick_9">
     <g id="line2d_38">
      <g>
       <use xlink:href="#m5348615d12" x="486.712201" y="142.788157" style="stroke: #000000; stroke-width: 0.8"/>
      </g>
     </g>
     <g id="text_31">
      <!-- 6 -->
      <g transform="translate(470.168451 148.486985) scale(0.15 -0.15)">
       <use xlink:href="#DejaVuSans-36"/>
      </g>
     </g>
    </g>
    <g id="ytick_10">
     <g id="line2d_39">
      <g>
       <use xlink:href="#m5348615d12" x="486.712201" y="83.636383" style="stroke: #000000; stroke-width: 0.8"/>
      </g>
     </g>
     <g id="text_32">
      <!-- 8 -->
      <g transform="translate(470.168451 89.335211) scale(0.15 -0.15)">
       <use xlink:href="#DejaVuSans-38"/>
      </g>
     </g>
    </g>
    <g id="text_33">
     <!-- FPG [mM] -->
     <g transform="translate(462.425014 249.547989) rotate(-90) scale(0.18 -0.18)">
      <use xlink:href="#DejaVuSans-Bold-46"/>
      <use xlink:href="#DejaVuSans-Bold-50" transform="translate(68.310547 0)"/>
      <use xlink:href="#DejaVuSans-Bold-47" transform="translate(141.601562 0)"/>
      <use xlink:href="#DejaVuSans-Bold-20" transform="translate(223.681641 0)"/>
      <use xlink:href="#DejaVuSans-Bold-5b" transform="translate(258.496094 0)"/>
      <use xlink:href="#DejaVuSans-Bold-6d" transform="translate(304.199219 0)"/>
      <use xlink:href="#DejaVuSans-Bold-4d" transform="translate(408.398438 0)"/>
      <use xlink:href="#DejaVuSans-Bold-5d" transform="translate(507.910156 0)"/>
     </g>
    </g>
   </g>
   <g id="line2d_40">
    <path d="M 502.150936 83.636383 
L 810.92564 83.636383 
L 810.92564 83.636383 
" clip-path="url(#p3b96b7aff9)" style="fill: none; stroke: #000000; stroke-width: 2; stroke-linecap: square"/>
   </g>
   <g id="line2d_41">
    <path d="M 502.150936 83.636383 
L 508.94398 88.421573 
L 516.045798 93.148567 
L 523.147616 97.609374 
L 530.558209 101.996531 
L 537.968802 106.126218 
L 545.688169 110.17047 
L 553.407537 113.967793 
L 561.435679 117.671265 
L 569.772596 121.268786 
L 578.418288 124.749813 
L 587.06398 127.993683 
L 596.018446 131.120619 
L 605.281687 134.123677 
L 614.853703 136.997309 
L 625.043268 139.819436 
L 635.541608 142.491742 
L 646.348723 145.013629 
L 657.773387 147.448504 
L 669.506826 149.723739 
L 681.857814 151.894631 
L 694.826351 153.950404 
L 708.721213 155.924466 
L 723.233624 157.760683 
L 738.672359 159.489504 
L 755.037418 161.099144 
L 772.637577 162.606393 
L 791.781608 164.017799 
L 810.92564 165.225051 
L 810.92564 165.225051 
" clip-path="url(#p3b96b7aff9)" style="fill: none; stroke: #1f77b4; stroke-width: 2; stroke-linecap: square"/>
   </g>
   <g id="line2d_42">
    <path d="M 502.150936 83.636383 
L 506.165007 89.263463 
L 510.179079 94.533676 
L 514.501924 99.836117 
L 518.82477 104.777312 
L 523.147616 109.381873 
L 527.470462 113.672733 
L 532.102083 117.946223 
L 536.733703 121.908547 
L 541.365324 125.582363 
L 546.305719 129.206739 
L 551.246114 132.550319 
L 556.186509 135.634858 
L 561.435679 138.650768 
L 566.684849 141.419036 
L 572.242794 144.102791 
L 578.109513 146.68355 
L 584.285007 149.145954 
L 590.460501 151.372248 
L 596.94477 153.480484 
L 603.737814 155.462386 
L 611.148407 157.388002 
L 618.867774 159.160943 
L 627.204691 160.840736 
L 635.850383 162.357375 
L 645.422399 163.804801 
L 655.611964 165.116289 
L 666.727853 166.318921 
L 678.770067 167.397661 
L 692.356154 168.385437 
L 707.486114 169.256068 
L 724.777498 170.020342 
L 744.847853 170.675052 
L 768.623505 171.218302 
L 797.648328 171.65064 
L 810.92564 171.789643 
L 810.92564 171.789643 
" clip-path="url(#p3b96b7aff9)" style="fill: none; stroke: #ff7f0e; stroke-width: 2; stroke-linecap: square"/>
   </g>
   <g id="line2d_43">
    <path d="M 502.150936 83.636383 
L 504.929909 91.331432 
L 507.708881 98.359116 
L 510.487853 104.777312 
L 513.266826 110.63888 
L 516.045798 115.992094 
L 518.82477 120.881042 
L 521.603743 125.345988 
L 524.382715 129.423705 
L 527.470462 133.541089 
L 530.558209 137.263673 
L 533.645956 140.629313 
L 536.733703 143.672234 
L 539.82145 146.423382 
L 543.217972 149.145954 
L 546.614494 151.582782 
L 550.31979 153.950404 
L 554.025086 156.048281 
L 558.039158 158.052139 
L 562.053229 159.809889 
L 566.376075 161.462202 
L 571.007695 162.991995 
L 575.94809 164.387927 
L 581.19726 165.64402 
L 587.06398 166.815299 
L 593.548249 167.873869 
L 600.650067 168.803007 
L 608.678209 169.624006 
L 617.94145 170.339039 
L 628.748565 170.941037 
L 641.717102 171.432198 
L 658.082162 171.817875 
L 680.005166 172.097044 
L 713.044059 172.273241 
L 777.577972 172.352999 
L 810.92564 172.360325 
L 810.92564 172.360325 
" clip-path="url(#p3b96b7aff9)" style="fill: none; stroke: #2ca02c; stroke-width: 2; stroke-linecap: square"/>
   </g>
   <g id="line2d_44">
    <path d="M 502.150936 83.636383 
L 504.003584 93.745179 
L 505.856233 102.702273 
L 507.708881 110.63888 
L 509.561529 117.671265 
L 511.414177 123.902446 
L 513.266826 129.423705 
L 515.119474 134.315923 
L 516.972122 138.650768 
L 518.82477 142.491742 
L 520.677418 145.895111 
L 522.838841 149.378817 
L 525.000264 152.404015 
L 527.161687 155.031052 
L 529.32311 157.312332 
L 531.484533 159.293362 
L 533.954731 161.240191 
L 536.424928 162.897047 
L 539.203901 164.467922 
L 541.982873 165.778139 
L 545.07062 166.980581 
L 548.467142 168.051311 
L 552.172438 168.978035 
L 556.495284 169.81068 
L 561.435679 170.514661 
L 566.993624 171.077484 
L 573.786667 171.538364 
L 582.432359 171.894516 
L 594.474573 172.150148 
L 613.30983 172.301509 
L 654.994415 172.359931 
L 810.92564 172.364044 
L 810.92564 172.364044 
" clip-path="url(#p3b96b7aff9)" style="fill: none; stroke: #d62728; stroke-width: 2; stroke-linecap: square"/>
   </g>
   <g id="patch_9">
    <path d="M 486.712201 320.243478 
L 486.712201 79.2 
" style="fill: none; stroke: #000000; stroke-width: 0.8; stroke-linejoin: miter; stroke-linecap: square"/>
   </g>
   <g id="patch_10">
    <path d="M 826.364375 320.243478 
L 826.364375 79.2 
" style="fill: none; stroke: #000000; stroke-width: 0.8; stroke-linejoin: miter; stroke-linecap: square"/>
   </g>
   <g id="patch_11">
    <path d="M 486.712201 320.243478 
L 826.364375 320.243478 
" style="fill: none; stroke: #000000; stroke-width: 0.8; stroke-linejoin: miter; stroke-linecap: square"/>
   </g>
   <g id="patch_12">
    <path d="M 486.712201 79.2 
L 826.364375 79.2 
" style="fill: none; stroke: #000000; stroke-width: 0.8; stroke-linejoin: miter; stroke-linecap: square"/>
   </g>
   <g id="legend_2">
    <g id="patch_13">
     <path d="M 495.812201 313.743478 
L 586.097201 313.743478 
Q 588.697201 313.743478 588.697201 311.143478 
L 588.697201 217.035666 
Q 588.697201 214.435666 586.097201 214.435666 
L 495.812201 214.435666 
Q 493.212201 214.435666 493.212201 217.035666 
L 493.212201 311.143478 
Q 493.212201 313.743478 495.812201 313.743478 
z
" style="fill: #ffffff; opacity: 0.8; stroke: #cccccc; stroke-linejoin: miter"/>
    </g>
    <g id="line2d_45">
     <path d="M 498.412201 224.963635 
L 524.412201 224.963635 
" style="fill: none; stroke: #000000; stroke-width: 2; stroke-linecap: square"/>
    </g>
    <g id="line2d_46"/>
    <g id="text_34">
     <!-- 0 mM -->
     <g transform="translate(534.812201 229.513635) scale(0.13 -0.13)">
      <use xlink:href="#DejaVuSans-30"/>
      <use xlink:href="#DejaVuSans-20" transform="translate(63.623047 0)"/>
      <use xlink:href="#DejaVuSans-6d" transform="translate(95.410156 0)"/>
      <use xlink:href="#DejaVuSans-4d" transform="translate(192.822266 0)"/>
     </g>
    </g>
    <g id="line2d_47">
     <path d="M 498.412201 244.045197 
L 524.412201 244.045197 
" style="fill: none; stroke: #1f77b4; stroke-width: 2; stroke-linecap: square"/>
    </g>
    <g id="line2d_48"/>
    <g id="text_35">
     <!-- 2.5 mM -->
     <g transform="translate(534.812201 248.595197) scale(0.13 -0.13)">
      <use xlink:href="#DejaVuSans-32"/>
      <use xlink:href="#DejaVuSans-2e" transform="translate(63.623047 0)"/>
      <use xlink:href="#DejaVuSans-35" transform="translate(95.410156 0)"/>
      <use xlink:href="#DejaVuSans-20" transform="translate(159.033203 0)"/>
      <use xlink:href="#DejaVuSans-6d" transform="translate(190.820312 0)"/>
      <use xlink:href="#DejaVuSans-4d" transform="translate(288.232422 0)"/>
     </g>
    </g>
    <g id="line2d_49">
     <path d="M 498.412201 263.12676 
L 524.412201 263.12676 
" style="fill: none; stroke: #ff7f0e; stroke-width: 2; stroke-linecap: square"/>
    </g>
    <g id="line2d_50"/>
    <g id="text_36">
     <!-- 5 mM -->
     <g transform="translate(534.812201 267.67676) scale(0.13 -0.13)">
      <use xlink:href="#DejaVuSans-35"/>
      <use xlink:href="#DejaVuSans-20" transform="translate(63.623047 0)"/>
      <use xlink:href="#DejaVuSans-6d" transform="translate(95.410156 0)"/>
      <use xlink:href="#DejaVuSans-4d" transform="translate(192.822266 0)"/>
     </g>
    </g>
    <g id="line2d_51">
     <path d="M 498.412201 282.208322 
L 524.412201 282.208322 
" style="fill: none; stroke: #2ca02c; stroke-width: 2; stroke-linecap: square"/>
    </g>
    <g id="line2d_52"/>
    <g id="text_37">
     <!-- 10 mM -->
     <g transform="translate(534.812201 286.758322) scale(0.13 -0.13)">
      <use xlink:href="#DejaVuSans-31"/>
      <use xlink:href="#DejaVuSans-30" transform="translate(63.623047 0)"/>
      <use xlink:href="#DejaVuSans-20" transform="translate(127.246094 0)"/>
      <use xlink:href="#DejaVuSans-6d" transform="translate(159.033203 0)"/>
      <use xlink:href="#DejaVuSans-4d" transform="translate(256.445312 0)"/>
     </g>
    </g>
    <g id="line2d_53">
     <path d="M 498.412201 301.289885 
L 524.412201 301.289885 
" style="fill: none; stroke: #d62728; stroke-width: 2; stroke-linecap: square"/>
    </g>
    <g id="line2d_54"/>
    <g id="text_38">
     <!-- 20 mM -->
     <g transform="translate(534.812201 305.839885) scale(0.13 -0.13)">
      <use xlink:href="#DejaVuSans-32"/>
      <use xlink:href="#DejaVuSans-30" transform="translate(63.623047 0)"/>
      <use xlink:href="#DejaVuSans-20" transform="translate(127.246094 0)"/>
      <use xlink:href="#DejaVuSans-6d" transform="translate(159.033203 0)"/>
      <use xlink:href="#DejaVuSans-4d" transform="translate(256.445312 0)"/>
     </g>
    </g>
   </g>
  </g>
  <g id="axes_3">
   <g id="patch_14">
    <path d="M 45.164375 633.6 
L 384.816549 633.6 
L 384.816549 392.556522 
L 45.164375 392.556522 
z
" style="fill: #ffffff"/>
   </g>
   <g id="matplotlib.axis_5">
    <g id="xtick_15">
     <g id="line2d_55">
      <g>
       <use xlink:href="#m483bef0191" x="60.60311" y="633.6" style="stroke: #000000; stroke-width: 0.8"/>
      </g>
     </g>
     <g id="text_39">
      <!-- 0 -->
      <g transform="translate(55.831235 651.997656) scale(0.15 -0.15)">
       <use xlink:href="#DejaVuSans-30"/>
      </g>
     </g>
    </g>
    <g id="xtick_16">
     <g id="line2d_56">
      <g>
       <use xlink:href="#m483bef0191" x="114.307853" y="633.6" style="stroke: #000000; stroke-width: 0.8"/>
      </g>
     </g>
     <g id="text_40">
      <!-- 2 -->
      <g transform="translate(109.535978 651.997656) scale(0.15 -0.15)">
       <use xlink:href="#DejaVuSans-32"/>
      </g>
     </g>
    </g>
    <g id="xtick_17">
     <g id="line2d_57">
      <g>
       <use xlink:href="#m483bef0191" x="168.012596" y="633.6" style="stroke: #000000; stroke-width: 0.8"/>
      </g>
     </g>
     <g id="text_41">
      <!-- 4 -->
      <g transform="translate(163.240721 651.997656) scale(0.15 -0.15)">
       <use xlink:href="#DejaVuSans-34"/>
      </g>
     </g>
    </g>
    <g id="xtick_18">
     <g id="line2d_58">
      <g>
       <use xlink:href="#m483bef0191" x="221.717339" y="633.6" style="stroke: #000000; stroke-width: 0.8"/>
      </g>
     </g>
     <g id="text_42">
      <!-- 6 -->
      <g transform="translate(216.945464 651.997656) scale(0.15 -0.15)">
       <use xlink:href="#DejaVuSans-36"/>
      </g>
     </g>
    </g>
    <g id="xtick_19">
     <g id="line2d_59">
      <g>
       <use xlink:href="#m483bef0191" x="275.422083" y="633.6" style="stroke: #000000; stroke-width: 0.8"/>
      </g>
     </g>
     <g id="text_43">
      <!-- 8 -->
      <g transform="translate(270.650208 651.997656) scale(0.15 -0.15)">
       <use xlink:href="#DejaVuSans-38"/>
      </g>
     </g>
    </g>
    <g id="xtick_20">
     <g id="line2d_60">
      <g>
       <use xlink:href="#m483bef0191" x="329.126826" y="633.6" style="stroke: #000000; stroke-width: 0.8"/>
      </g>
     </g>
     <g id="text_44">
      <!-- 10 -->
      <g transform="translate(319.583076 651.997656) scale(0.15 -0.15)">
       <use xlink:href="#DejaVuSans-31"/>
       <use xlink:href="#DejaVuSans-30" transform="translate(63.623047 0)"/>
      </g>
     </g>
    </g>
    <g id="xtick_21">
     <g id="line2d_61">
      <g>
       <use xlink:href="#m483bef0191" x="382.831569" y="633.6" style="stroke: #000000; stroke-width: 0.8"/>
      </g>
     </g>
     <g id="text_45">
      <!-- 12 -->
      <g transform="translate(373.287819 651.997656) scale(0.15 -0.15)">
       <use xlink:href="#DejaVuSans-31"/>
       <use xlink:href="#DejaVuSans-32" transform="translate(63.623047 0)"/>
      </g>
     </g>
    </g>
    <g id="text_46">
     <!-- time [month] -->
     <g transform="translate(148.083899 672.794375) scale(0.18 -0.18)">
      <use xlink:href="#DejaVuSans-Bold-74"/>
      <use xlink:href="#DejaVuSans-Bold-69" transform="translate(47.802734 0)"/>
      <use xlink:href="#DejaVuSans-Bold-6d" transform="translate(82.080078 0)"/>
      <use xlink:href="#DejaVuSans-Bold-65" transform="translate(186.279297 0)"/>
      <use xlink:href="#DejaVuSans-Bold-20" transform="translate(254.101562 0)"/>
      <use xlink:href="#DejaVuSans-Bold-5b" transform="translate(288.916016 0)"/>
      <use xlink:href="#DejaVuSans-Bold-6d" transform="translate(334.619141 0)"/>
      <use xlink:href="#DejaVuSans-Bold-6f" transform="translate(438.818359 0)"/>
      <use xlink:href="#DejaVuSans-Bold-6e" transform="translate(507.519531 0)"/>
      <use xlink:href="#DejaVuSans-Bold-74" transform="translate(578.710938 0)"/>
      <use xlink:href="#DejaVuSans-Bold-68" transform="translate(626.513672 0)"/>
      <use xlink:href="#DejaVuSans-Bold-5d" transform="translate(697.705078 0)"/>
     </g>
    </g>
   </g>
   <g id="matplotlib.axis_6">
    <g id="ytick_11">
     <g id="line2d_62">
      <g>
       <use xlink:href="#m5348615d12" x="45.164375" y="633.6" style="stroke: #000000; stroke-width: 0.8"/>
      </g>
     </g>
     <g id="text_47">
      <!-- 0 -->
      <g transform="translate(28.620625 639.298828) scale(0.15 -0.15)">
       <use xlink:href="#DejaVuSans-30"/>
      </g>
     </g>
    </g>
    <g id="ytick_12">
     <g id="line2d_63">
      <g>
       <use xlink:href="#m5348615d12" x="45.164375" y="576.480692" style="stroke: #000000; stroke-width: 0.8"/>
      </g>
     </g>
     <g id="text_48">
      <!-- 2 -->
      <g transform="translate(28.620625 582.17952) scale(0.15 -0.15)">
       <use xlink:href="#DejaVuSans-32"/>
      </g>
     </g>
    </g>
    <g id="ytick_13">
     <g id="line2d_64">
      <g>
       <use xlink:href="#m5348615d12" x="45.164375" y="519.361385" style="stroke: #000000; stroke-width: 0.8"/>
      </g>
     </g>
     <g id="text_49">
      <!-- 4 -->
      <g transform="translate(28.620625 525.060213) scale(0.15 -0.15)">
       <use xlink:href="#DejaVuSans-34"/>
      </g>
     </g>
    </g>
    <g id="ytick_14">
     <g id="line2d_65">
      <g>
       <use xlink:href="#m5348615d12" x="45.164375" y="462.242077" style="stroke: #000000; stroke-width: 0.8"/>
      </g>
     </g>
     <g id="text_50">
      <!-- 6 -->
      <g transform="translate(28.620625 467.940905) scale(0.15 -0.15)">
       <use xlink:href="#DejaVuSans-36"/>
      </g>
     </g>
    </g>
    <g id="ytick_15">
     <g id="line2d_66">
      <g>
       <use xlink:href="#m5348615d12" x="45.164375" y="405.122769" style="stroke: #000000; stroke-width: 0.8"/>
      </g>
     </g>
     <g id="text_51">
      <!-- 8 -->
      <g transform="translate(28.620625 410.821598) scale(0.15 -0.15)">
       <use xlink:href="#DejaVuSans-38"/>
      </g>
     </g>
    </g>
    <g id="text_52">
     <!-- initial HbA1c [percent] -->
     <g transform="translate(20.877188 628.364042) rotate(-90) scale(0.18 -0.18)">
      <defs>
       <path id="DejaVuSans-Bold-48" d="M 588 4666 
L 1791 4666 
L 1791 2888 
L 3566 2888 
L 3566 4666 
L 4769 4666 
L 4769 0 
L 3566 0 
L 3566 1978 
L 1791 1978 
L 1791 0 
L 588 0 
L 588 4666 
z
" transform="scale(0.015625)"/>
       <path id="DejaVuSans-Bold-62" d="M 2400 722 
Q 2759 722 2948 984 
Q 3138 1247 3138 1747 
Q 3138 2247 2948 2509 
Q 2759 2772 2400 2772 
Q 2041 2772 1848 2508 
Q 1656 2244 1656 1747 
Q 1656 1250 1848 986 
Q 2041 722 2400 722 
z
M 1656 2988 
Q 1888 3294 2169 3439 
Q 2450 3584 2816 3584 
Q 3463 3584 3878 3070 
Q 4294 2556 4294 1747 
Q 4294 938 3878 423 
Q 3463 -91 2816 -91 
Q 2450 -91 2169 54 
Q 1888 200 1656 506 
L 1656 0 
L 538 0 
L 538 4863 
L 1656 4863 
L 1656 2988 
z
" transform="scale(0.015625)"/>
       <path id="DejaVuSans-Bold-41" d="M 3419 850 
L 1538 850 
L 1241 0 
L 31 0 
L 1759 4666 
L 3194 4666 
L 4922 0 
L 3713 0 
L 3419 850 
z
M 1838 1716 
L 3116 1716 
L 2478 3572 
L 1838 1716 
z
" transform="scale(0.015625)"/>
       <path id="DejaVuSans-Bold-31" d="M 750 831 
L 1813 831 
L 1813 3847 
L 722 3622 
L 722 4441 
L 1806 4666 
L 2950 4666 
L 2950 831 
L 4013 831 
L 4013 0 
L 750 0 
L 750 831 
z
" transform="scale(0.015625)"/>
       <path id="DejaVuSans-Bold-63" d="M 3366 3391 
L 3366 2478 
Q 3138 2634 2908 2709 
Q 2678 2784 2431 2784 
Q 1963 2784 1702 2511 
Q 1441 2238 1441 1747 
Q 1441 1256 1702 982 
Q 1963 709 2431 709 
Q 2694 709 2930 787 
Q 3166 866 3366 1019 
L 3366 103 
Q 3103 6 2833 -42 
Q 2563 -91 2291 -91 
Q 1344 -91 809 395 
Q 275 881 275 1747 
Q 275 2613 809 3098 
Q 1344 3584 2291 3584 
Q 2566 3584 2833 3536 
Q 3100 3488 3366 3391 
z
" transform="scale(0.015625)"/>
       <path id="DejaVuSans-Bold-70" d="M 1656 506 
L 1656 -1331 
L 538 -1331 
L 538 3500 
L 1656 3500 
L 1656 2988 
Q 1888 3294 2169 3439 
Q 2450 3584 2816 3584 
Q 3463 3584 3878 3070 
Q 4294 2556 4294 1747 
Q 4294 938 3878 423 
Q 3463 -91 2816 -91 
Q 2450 -91 2169 54 
Q 1888 200 1656 506 
z
M 2400 2772 
Q 2041 2772 1848 2508 
Q 1656 2244 1656 1747 
Q 1656 1250 1848 986 
Q 2041 722 2400 722 
Q 2759 722 2948 984 
Q 3138 1247 3138 1747 
Q 3138 2247 2948 2509 
Q 2759 2772 2400 2772 
z
" transform="scale(0.015625)"/>
       <path id="DejaVuSans-Bold-72" d="M 3138 2547 
Q 2991 2616 2845 2648 
Q 2700 2681 2553 2681 
Q 2122 2681 1889 2404 
Q 1656 2128 1656 1613 
L 1656 0 
L 538 0 
L 538 3500 
L 1656 3500 
L 1656 2925 
Q 1872 3269 2151 3426 
Q 2431 3584 2822 3584 
Q 2878 3584 2943 3579 
Q 3009 3575 3134 3559 
L 3138 2547 
z
" transform="scale(0.015625)"/>
      </defs>
      <use xlink:href="#DejaVuSans-Bold-69"/>
      <use xlink:href="#DejaVuSans-Bold-6e" transform="translate(34.277344 0)"/>
      <use xlink:href="#DejaVuSans-Bold-69" transform="translate(105.46875 0)"/>
      <use xlink:href="#DejaVuSans-Bold-74" transform="translate(139.746094 0)"/>
      <use xlink:href="#DejaVuSans-Bold-69" transform="translate(187.548828 0)"/>
      <use xlink:href="#DejaVuSans-Bold-61" transform="translate(221.826172 0)"/>
      <use xlink:href="#DejaVuSans-Bold-6c" transform="translate(289.306641 0)"/>
      <use xlink:href="#DejaVuSans-Bold-20" transform="translate(323.583984 0)"/>
      <use xlink:href="#DejaVuSans-Bold-48" transform="translate(358.398438 0)"/>
      <use xlink:href="#DejaVuSans-Bold-62" transform="translate(442.089844 0)"/>
      <use xlink:href="#DejaVuSans-Bold-41" transform="translate(513.671875 0)"/>
      <use xlink:href="#DejaVuSans-Bold-31" transform="translate(591.064453 0)"/>
      <use xlink:href="#DejaVuSans-Bold-63" transform="translate(660.644531 0)"/>
      <use xlink:href="#DejaVuSans-Bold-20" transform="translate(719.921875 0)"/>
      <use xlink:href="#DejaVuSans-Bold-5b" transform="translate(754.736328 0)"/>
      <use xlink:href="#DejaVuSans-Bold-70" transform="translate(800.439453 0)"/>
      <use xlink:href="#DejaVuSans-Bold-65" transform="translate(872.021484 0)"/>
      <use xlink:href="#DejaVuSans-Bold-72" transform="translate(939.84375 0)"/>
      <use xlink:href="#DejaVuSans-Bold-63" transform="translate(989.160156 0)"/>
      <use xlink:href="#DejaVuSans-Bold-65" transform="translate(1048.4375 0)"/>
      <use xlink:href="#DejaVuSans-Bold-6e" transform="translate(1116.259766 0)"/>
      <use xlink:href="#DejaVuSans-Bold-74" transform="translate(1187.451172 0)"/>
      <use xlink:href="#DejaVuSans-Bold-5d" transform="translate(1235.253906 0)"/>
     </g>
    </g>
   </g>
   <g id="line2d_67">
    <path d="M 60.60311 405.122769 
L 369.377814 405.122769 
L 369.377814 405.122769 
" clip-path="url(#p1f84452f89)" style="fill: none; stroke: #000000; stroke-width: 2; stroke-linecap: square"/>
   </g>
   <g id="line2d_68">
    <path d="M 60.60311 405.122769 
L 369.377814 405.122769 
L 369.377814 405.122769 
" clip-path="url(#p1f84452f89)" style="fill: none; stroke: #1f77b4; stroke-width: 2; stroke-linecap: square"/>
   </g>
   <g id="line2d_69">
    <path d="M 60.60311 405.122769 
L 369.377814 405.122769 
L 369.377814 405.122769 
" clip-path="url(#p1f84452f89)" style="fill: none; stroke: #ff7f0e; stroke-width: 2; stroke-linecap: square"/>
   </g>
   <g id="line2d_70">
    <path d="M 60.60311 405.122769 
L 369.377814 405.122769 
L 369.377814 405.122769 
" clip-path="url(#p1f84452f89)" style="fill: none; stroke: #2ca02c; stroke-width: 2; stroke-linecap: square"/>
   </g>
   <g id="line2d_71">
    <path d="M 60.60311 405.122769 
L 369.377814 405.122769 
L 369.377814 405.122769 
" clip-path="url(#p1f84452f89)" style="fill: none; stroke: #d62728; stroke-width: 2; stroke-linecap: square"/>
   </g>
   <g id="patch_15">
    <path d="M 45.164375 633.6 
L 45.164375 392.556522 
" style="fill: none; stroke: #000000; stroke-width: 0.8; stroke-linejoin: miter; stroke-linecap: square"/>
   </g>
   <g id="patch_16">
    <path d="M 384.816549 633.6 
L 384.816549 392.556522 
" style="fill: none; stroke: #000000; stroke-width: 0.8; stroke-linejoin: miter; stroke-linecap: square"/>
   </g>
   <g id="patch_17">
    <path d="M 45.164375 633.6 
L 384.816549 633.6 
" style="fill: none; stroke: #000000; stroke-width: 0.8; stroke-linejoin: miter; stroke-linecap: square"/>
   </g>
   <g id="patch_18">
    <path d="M 45.164375 392.556522 
L 384.816549 392.556522 
" style="fill: none; stroke: #000000; stroke-width: 0.8; stroke-linejoin: miter; stroke-linecap: square"/>
   </g>
   <g id="legend_3">
    <g id="patch_19">
     <path d="M 54.264375 627.1 
L 144.549375 627.1 
Q 147.149375 627.1 147.149375 624.5 
L 147.149375 530.392187 
Q 147.149375 527.792187 144.549375 527.792187 
L 54.264375 527.792187 
Q 51.664375 527.792187 51.664375 530.392187 
L 51.664375 624.5 
Q 51.664375 627.1 54.264375 627.1 
z
" style="fill: #ffffff; opacity: 0.8; stroke: #cccccc; stroke-linejoin: miter"/>
    </g>
    <g id="line2d_72">
     <path d="M 56.864375 538.320156 
L 82.864375 538.320156 
" style="fill: none; stroke: #000000; stroke-width: 2; stroke-linecap: square"/>
    </g>
    <g id="line2d_73"/>
    <g id="text_53">
     <!-- 0 mM -->
     <g transform="translate(93.264375 542.870156) scale(0.13 -0.13)">
      <use xlink:href="#DejaVuSans-30"/>
      <use xlink:href="#DejaVuSans-20" transform="translate(63.623047 0)"/>
      <use xlink:href="#DejaVuSans-6d" transform="translate(95.410156 0)"/>
      <use xlink:href="#DejaVuSans-4d" transform="translate(192.822266 0)"/>
     </g>
    </g>
    <g id="line2d_74">
     <path d="M 56.864375 557.401719 
L 82.864375 557.401719 
" style="fill: none; stroke: #1f77b4; stroke-width: 2; stroke-linecap: square"/>
    </g>
    <g id="line2d_75"/>
    <g id="text_54">
     <!-- 2.5 mM -->
     <g transform="translate(93.264375 561.951719) scale(0.13 -0.13)">
      <use xlink:href="#DejaVuSans-32"/>
      <use xlink:href="#DejaVuSans-2e" transform="translate(63.623047 0)"/>
      <use xlink:href="#DejaVuSans-35" transform="translate(95.410156 0)"/>
      <use xlink:href="#DejaVuSans-20" transform="translate(159.033203 0)"/>
      <use xlink:href="#DejaVuSans-6d" transform="translate(190.820312 0)"/>
      <use xlink:href="#DejaVuSans-4d" transform="translate(288.232422 0)"/>
     </g>
    </g>
    <g id="line2d_76">
     <path d="M 56.864375 576.483281 
L 82.864375 576.483281 
" style="fill: none; stroke: #ff7f0e; stroke-width: 2; stroke-linecap: square"/>
    </g>
    <g id="line2d_77"/>
    <g id="text_55">
     <!-- 5 mM -->
     <g transform="translate(93.264375 581.033281) scale(0.13 -0.13)">
      <use xlink:href="#DejaVuSans-35"/>
      <use xlink:href="#DejaVuSans-20" transform="translate(63.623047 0)"/>
      <use xlink:href="#DejaVuSans-6d" transform="translate(95.410156 0)"/>
      <use xlink:href="#DejaVuSans-4d" transform="translate(192.822266 0)"/>
     </g>
    </g>
    <g id="line2d_78">
     <path d="M 56.864375 595.564844 
L 82.864375 595.564844 
" style="fill: none; stroke: #2ca02c; stroke-width: 2; stroke-linecap: square"/>
    </g>
    <g id="line2d_79"/>
    <g id="text_56">
     <!-- 10 mM -->
     <g transform="translate(93.264375 600.114844) scale(0.13 -0.13)">
      <use xlink:href="#DejaVuSans-31"/>
      <use xlink:href="#DejaVuSans-30" transform="translate(63.623047 0)"/>
      <use xlink:href="#DejaVuSans-20" transform="translate(127.246094 0)"/>
      <use xlink:href="#DejaVuSans-6d" transform="translate(159.033203 0)"/>
      <use xlink:href="#DejaVuSans-4d" transform="translate(256.445312 0)"/>
     </g>
    </g>
    <g id="line2d_80">
     <path d="M 56.864375 614.646406 
L 82.864375 614.646406 
" style="fill: none; stroke: #d62728; stroke-width: 2; stroke-linecap: square"/>
    </g>
    <g id="line2d_81"/>
    <g id="text_57">
     <!-- 20 mM -->
     <g transform="translate(93.264375 619.196406) scale(0.13 -0.13)">
      <use xlink:href="#DejaVuSans-32"/>
      <use xlink:href="#DejaVuSans-30" transform="translate(63.623047 0)"/>
      <use xlink:href="#DejaVuSans-20" transform="translate(127.246094 0)"/>
      <use xlink:href="#DejaVuSans-6d" transform="translate(159.033203 0)"/>
      <use xlink:href="#DejaVuSans-4d" transform="translate(256.445312 0)"/>
     </g>
    </g>
   </g>
  </g>
  <g id="axes_4">
   <g id="patch_20">
    <path d="M 486.712201 633.6 
L 826.364375 633.6 
L 826.364375 392.556522 
L 486.712201 392.556522 
z
" style="fill: #ffffff"/>
   </g>
   <g id="matplotlib.axis_7">
    <g id="xtick_22">
     <g id="line2d_82">
      <g>
       <use xlink:href="#m483bef0191" x="502.150936" y="633.6" style="stroke: #000000; stroke-width: 0.8"/>
      </g>
     </g>
     <g id="text_58">
      <!-- 0 -->
      <g transform="translate(497.379061 651.997656) scale(0.15 -0.15)">
       <use xlink:href="#DejaVuSans-30"/>
      </g>
     </g>
    </g>
    <g id="xtick_23">
     <g id="line2d_83">
      <g>
       <use xlink:href="#m483bef0191" x="555.855679" y="633.6" style="stroke: #000000; stroke-width: 0.8"/>
      </g>
     </g>
     <g id="text_59">
      <!-- 2 -->
      <g transform="translate(551.083804 651.997656) scale(0.15 -0.15)">
       <use xlink:href="#DejaVuSans-32"/>
      </g>
     </g>
    </g>
    <g id="xtick_24">
     <g id="line2d_84">
      <g>
       <use xlink:href="#m483bef0191" x="609.560422" y="633.6" style="stroke: #000000; stroke-width: 0.8"/>
      </g>
     </g>
     <g id="text_60">
      <!-- 4 -->
      <g transform="translate(604.788547 651.997656) scale(0.15 -0.15)">
       <use xlink:href="#DejaVuSans-34"/>
      </g>
     </g>
    </g>
    <g id="xtick_25">
     <g id="line2d_85">
      <g>
       <use xlink:href="#m483bef0191" x="663.265166" y="633.6" style="stroke: #000000; stroke-width: 0.8"/>
      </g>
     </g>
     <g id="text_61">
      <!-- 6 -->
      <g transform="translate(658.493291 651.997656) scale(0.15 -0.15)">
       <use xlink:href="#DejaVuSans-36"/>
      </g>
     </g>
    </g>
    <g id="xtick_26">
     <g id="line2d_86">
      <g>
       <use xlink:href="#m483bef0191" x="716.969909" y="633.6" style="stroke: #000000; stroke-width: 0.8"/>
      </g>
     </g>
     <g id="text_62">
      <!-- 8 -->
      <g transform="translate(712.198034 651.997656) scale(0.15 -0.15)">
       <use xlink:href="#DejaVuSans-38"/>
      </g>
     </g>
    </g>
    <g id="xtick_27">
     <g id="line2d_87">
      <g>
       <use xlink:href="#m483bef0191" x="770.674652" y="633.6" style="stroke: #000000; stroke-width: 0.8"/>
      </g>
     </g>
     <g id="text_63">
      <!-- 10 -->
      <g transform="translate(761.130902 651.997656) scale(0.15 -0.15)">
       <use xlink:href="#DejaVuSans-31"/>
       <use xlink:href="#DejaVuSans-30" transform="translate(63.623047 0)"/>
      </g>
     </g>
    </g>
    <g id="xtick_28">
     <g id="line2d_88">
      <g>
       <use xlink:href="#m483bef0191" x="824.379395" y="633.6" style="stroke: #000000; stroke-width: 0.8"/>
      </g>
     </g>
     <g id="text_64">
      <!-- 12 -->
      <g transform="translate(814.835645 651.997656) scale(0.15 -0.15)">
       <use xlink:href="#DejaVuSans-31"/>
       <use xlink:href="#DejaVuSans-32" transform="translate(63.623047 0)"/>
      </g>
     </g>
    </g>
    <g id="text_65">
     <!-- time [month] -->
     <g transform="translate(589.631726 672.794375) scale(0.18 -0.18)">
      <use xlink:href="#DejaVuSans-Bold-74"/>
      <use xlink:href="#DejaVuSans-Bold-69" transform="translate(47.802734 0)"/>
      <use xlink:href="#DejaVuSans-Bold-6d" transform="translate(82.080078 0)"/>
      <use xlink:href="#DejaVuSans-Bold-65" transform="translate(186.279297 0)"/>
      <use xlink:href="#DejaVuSans-Bold-20" transform="translate(254.101562 0)"/>
      <use xlink:href="#DejaVuSans-Bold-5b" transform="translate(288.916016 0)"/>
      <use xlink:href="#DejaVuSans-Bold-6d" transform="translate(334.619141 0)"/>
      <use xlink:href="#DejaVuSans-Bold-6f" transform="translate(438.818359 0)"/>
      <use xlink:href="#DejaVuSans-Bold-6e" transform="translate(507.519531 0)"/>
      <use xlink:href="#DejaVuSans-Bold-74" transform="translate(578.710938 0)"/>
      <use xlink:href="#DejaVuSans-Bold-68" transform="translate(626.513672 0)"/>
      <use xlink:href="#DejaVuSans-Bold-5d" transform="translate(697.705078 0)"/>
     </g>
    </g>
   </g>
   <g id="matplotlib.axis_8">
    <g id="ytick_16">
     <g id="line2d_89">
      <g>
       <use xlink:href="#m5348615d12" x="486.712201" y="633.6" style="stroke: #000000; stroke-width: 0.8"/>
      </g>
     </g>
     <g id="text_66">
      <!-- 0 -->
      <g transform="translate(470.168451 639.298828) scale(0.15 -0.15)">
       <use xlink:href="#DejaVuSans-30"/>
      </g>
     </g>
    </g>
    <g id="ytick_17">
     <g id="line2d_90">
      <g>
       <use xlink:href="#m5348615d12" x="486.712201" y="574.363271" style="stroke: #000000; stroke-width: 0.8"/>
      </g>
     </g>
     <g id="text_67">
      <!-- 2 -->
      <g transform="translate(470.168451 580.062099) scale(0.15 -0.15)">
       <use xlink:href="#DejaVuSans-32"/>
      </g>
     </g>
    </g>
    <g id="ytick_18">
     <g id="line2d_91">
      <g>
       <use xlink:href="#m5348615d12" x="486.712201" y="515.126542" style="stroke: #000000; stroke-width: 0.8"/>
      </g>
     </g>
     <g id="text_68">
      <!-- 4 -->
      <g transform="translate(470.168451 520.825371) scale(0.15 -0.15)">
       <use xlink:href="#DejaVuSans-34"/>
      </g>
     </g>
    </g>
    <g id="ytick_19">
     <g id="line2d_92">
      <g>
       <use xlink:href="#m5348615d12" x="486.712201" y="455.889814" style="stroke: #000000; stroke-width: 0.8"/>
      </g>
     </g>
     <g id="text_69">
      <!-- 6 -->
      <g transform="translate(470.168451 461.588642) scale(0.15 -0.15)">
       <use xlink:href="#DejaVuSans-36"/>
      </g>
     </g>
    </g>
    <g id="ytick_20">
     <g id="line2d_93">
      <g>
       <use xlink:href="#m5348615d12" x="486.712201" y="396.653085" style="stroke: #000000; stroke-width: 0.8"/>
      </g>
     </g>
     <g id="text_70">
      <!-- 8 -->
      <g transform="translate(470.168451 402.351913) scale(0.15 -0.15)">
       <use xlink:href="#DejaVuSans-38"/>
      </g>
     </g>
    </g>
    <g id="text_71">
     <!-- HbA1c [percent] -->
     <g transform="translate(462.425014 596.10748) rotate(-90) scale(0.18 -0.18)">
      <use xlink:href="#DejaVuSans-Bold-48"/>
      <use xlink:href="#DejaVuSans-Bold-62" transform="translate(83.691406 0)"/>
      <use xlink:href="#DejaVuSans-Bold-41" transform="translate(155.273438 0)"/>
      <use xlink:href="#DejaVuSans-Bold-31" transform="translate(232.666016 0)"/>
      <use xlink:href="#DejaVuSans-Bold-63" transform="translate(302.246094 0)"/>
      <use xlink:href="#DejaVuSans-Bold-20" transform="translate(361.523438 0)"/>
      <use xlink:href="#DejaVuSans-Bold-5b" transform="translate(396.337891 0)"/>
      <use xlink:href="#DejaVuSans-Bold-70" transform="translate(442.041016 0)"/>
      <use xlink:href="#DejaVuSans-Bold-65" transform="translate(513.623047 0)"/>
      <use xlink:href="#DejaVuSans-Bold-72" transform="translate(581.445312 0)"/>
      <use xlink:href="#DejaVuSans-Bold-63" transform="translate(630.761719 0)"/>
      <use xlink:href="#DejaVuSans-Bold-65" transform="translate(690.039062 0)"/>
      <use xlink:href="#DejaVuSans-Bold-6e" transform="translate(757.861328 0)"/>
      <use xlink:href="#DejaVuSans-Bold-74" transform="translate(829.052734 0)"/>
      <use xlink:href="#DejaVuSans-Bold-5d" transform="translate(876.855469 0)"/>
     </g>
    </g>
   </g>
   <g id="line2d_94">
    <path d="M 502.150936 396.653085 
L 810.92564 396.653085 
L 810.92564 396.653085 
" clip-path="url(#p5fdcf7d292)" style="fill: none; stroke: #000000; stroke-width: 2; stroke-linecap: square"/>
   </g>
   <g id="line2d_95">
    <path d="M 502.150936 396.653085 
L 508.32643 396.769684 
L 514.810699 397.125642 
L 521.603743 397.727438 
L 528.705561 398.577872 
L 536.424928 399.726124 
L 544.761845 401.191032 
L 554.025086 403.048132 
L 564.523426 405.389312 
L 576.56564 408.312652 
L 591.078051 412.072938 
L 611.765956 417.685574 
L 658.082162 430.310055 
L 677.843743 435.42281 
L 695.443901 439.751288 
L 712.426509 443.69946 
L 728.791569 447.278025 
L 745.156628 450.628654 
L 761.521687 453.750624 
L 777.886747 456.647197 
L 794.560581 459.373056 
L 810.92564 461.835762 
L 810.92564 461.835762 
" clip-path="url(#p5fdcf7d292)" style="fill: none; stroke: #1f77b4; stroke-width: 2; stroke-linecap: square"/>
   </g>
   <g id="line2d_96">
    <path d="M 502.150936 396.653085 
L 506.473782 396.767204 
L 511.105403 397.124332 
L 516.045798 397.742599 
L 521.294968 398.63449 
L 526.852913 399.806653 
L 533.028407 401.341825 
L 539.82145 403.264075 
L 547.540818 405.684129 
L 556.804059 408.834523 
L 568.537498 413.078388 
L 588.916628 420.734965 
L 610.222083 428.654511 
L 624.734494 433.810621 
L 637.703031 438.187609 
L 650.054019 442.126028 
L 662.096233 445.736379 
L 674.138446 449.114715 
L 686.18066 452.261299 
L 698.222873 455.180454 
L 710.573861 457.945816 
L 723.233624 460.550453 
L 736.202162 462.990203 
L 749.479474 465.263412 
L 763.374335 467.416105 
L 777.886747 469.436858 
L 793.016707 471.317541 
L 809.072992 473.085142 
L 810.92564 473.27508 
L 810.92564 473.27508 
" clip-path="url(#p5fdcf7d292)" style="fill: none; stroke: #ff7f0e; stroke-width: 2; stroke-linecap: square"/>
   </g>
   <g id="line2d_97">
    <path d="M 502.150936 396.653085 
L 505.238683 396.768794 
L 508.635205 397.140384 
L 512.031727 397.734223 
L 515.737023 398.599237 
L 520.059869 399.849109 
L 524.69149 401.423289 
L 530.249434 403.563169 
L 536.733703 406.313602 
L 545.07062 410.109832 
L 559.274256 416.869888 
L 576.256865 424.881374 
L 587.372754 429.87669 
L 597.56232 434.214299 
L 607.44311 438.175387 
L 617.015126 441.773628 
L 626.587142 445.136083 
L 636.159158 448.267519 
L 646.039948 451.26634 
L 656.229513 454.12221 
L 666.727853 456.827869 
L 677.534968 459.378789 
L 688.650857 461.772844 
L 700.384296 464.067466 
L 712.426509 466.195733 
L 725.086272 468.208476 
L 738.363584 470.096402 
L 752.567221 471.88998 
L 767.697181 473.572554 
L 783.753466 475.132061 
L 801.044849 476.584909 
L 810.92564 477.32199 
L 810.92564 477.32199 
" clip-path="url(#p5fdcf7d292)" style="fill: none; stroke: #2ca02c; stroke-width: 2; stroke-linecap: square"/>
   </g>
   <g id="line2d_98">
    <path d="M 502.150936 396.653085 
L 504.312359 396.765297 
L 506.782557 397.13872 
L 509.561529 397.817899 
L 512.649276 398.831441 
L 516.045798 400.191277 
L 520.059869 402.043543 
L 525.000264 404.572187 
L 532.102083 408.47844 
L 556.186509 421.915174 
L 564.832201 426.393832 
L 573.169118 430.463315 
L 581.506035 434.280744 
L 589.842952 437.849705 
L 598.179869 441.179456 
L 606.825561 444.392758 
L 615.780027 447.478978 
L 625.043268 450.430137 
L 634.615284 453.240497 
L 644.496075 455.906243 
L 654.68564 458.425224 
L 665.492754 460.863267 
L 676.608644 463.142314 
L 688.342083 465.319792 
L 700.693071 467.383283 
L 713.661608 469.323366 
L 727.55647 471.17219 
L 742.068881 472.878098 
L 757.816391 474.500344 
L 774.490225 475.991495 
L 792.399158 477.368886 
L 810.92564 478.58435 
L 810.92564 478.58435 
" clip-path="url(#p5fdcf7d292)" style="fill: none; stroke: #d62728; stroke-width: 2; stroke-linecap: square"/>
   </g>
   <g id="patch_21">
    <path d="M 486.712201 633.6 
L 486.712201 392.556522 
" style="fill: none; stroke: #000000; stroke-width: 0.8; stroke-linejoin: miter; stroke-linecap: square"/>
   </g>
   <g id="patch_22">
    <path d="M 826.364375 633.6 
L 826.364375 392.556522 
" style="fill: none; stroke: #000000; stroke-width: 0.8; stroke-linejoin: miter; stroke-linecap: square"/>
   </g>
   <g id="patch_23">
    <path d="M 486.712201 633.6 
L 826.364375 633.6 
" style="fill: none; stroke: #000000; stroke-width: 0.8; stroke-linejoin: miter; stroke-linecap: square"/>
   </g>
   <g id="patch_24">
    <path d="M 486.712201 392.556522 
L 826.364375 392.556522 
" style="fill: none; stroke: #000000; stroke-width: 0.8; stroke-linejoin: miter; stroke-linecap: square"/>
   </g>
   <g id="legend_4">
    <g id="patch_25">
     <path d="M 495.812201 627.1 
L 586.097201 627.1 
Q 588.697201 627.1 588.697201 624.5 
L 588.697201 530.392187 
Q 588.697201 527.792187 586.097201 527.792187 
L 495.812201 527.792187 
Q 493.212201 527.792187 493.212201 530.392187 
L 493.212201 624.5 
Q 493.212201 627.1 495.812201 627.1 
z
" style="fill: #ffffff; opacity: 0.8; stroke: #cccccc; stroke-linejoin: miter"/>
    </g>
    <g id="line2d_99">
     <path d="M 498.412201 538.320156 
L 524.412201 538.320156 
" style="fill: none; stroke: #000000; stroke-width: 2; stroke-linecap: square"/>
    </g>
    <g id="line2d_100"/>
    <g id="text_72">
     <!-- 0 mM -->
     <g transform="translate(534.812201 542.870156) scale(0.13 -0.13)">
      <use xlink:href="#DejaVuSans-30"/>
      <use xlink:href="#DejaVuSans-20" transform="translate(63.623047 0)"/>
      <use xlink:href="#DejaVuSans-6d" transform="translate(95.410156 0)"/>
      <use xlink:href="#DejaVuSans-4d" transform="translate(192.822266 0)"/>
     </g>
    </g>
    <g id="line2d_101">
     <path d="M 498.412201 557.401719 
L 524.412201 557.401719 
" style="fill: none; stroke: #1f77b4; stroke-width: 2; stroke-linecap: square"/>
    </g>
    <g id="line2d_102"/>
    <g id="text_73">
     <!-- 2.5 mM -->
     <g transform="translate(534.812201 561.951719) scale(0.13 -0.13)">
      <use xlink:href="#DejaVuSans-32"/>
      <use xlink:href="#DejaVuSans-2e" transform="translate(63.623047 0)"/>
      <use xlink:href="#DejaVuSans-35" transform="translate(95.410156 0)"/>
      <use xlink:href="#DejaVuSans-20" transform="translate(159.033203 0)"/>
      <use xlink:href="#DejaVuSans-6d" transform="translate(190.820312 0)"/>
      <use xlink:href="#DejaVuSans-4d" transform="translate(288.232422 0)"/>
     </g>
    </g>
    <g id="line2d_103">
     <path d="M 498.412201 576.483281 
L 524.412201 576.483281 
" style="fill: none; stroke: #ff7f0e; stroke-width: 2; stroke-linecap: square"/>
    </g>
    <g id="line2d_104"/>
    <g id="text_74">
     <!-- 5 mM -->
     <g transform="translate(534.812201 581.033281) scale(0.13 -0.13)">
      <use xlink:href="#DejaVuSans-35"/>
      <use xlink:href="#DejaVuSans-20" transform="translate(63.623047 0)"/>
      <use xlink:href="#DejaVuSans-6d" transform="translate(95.410156 0)"/>
      <use xlink:href="#DejaVuSans-4d" transform="translate(192.822266 0)"/>
     </g>
    </g>
    <g id="line2d_105">
     <path d="M 498.412201 595.564844 
L 524.412201 595.564844 
" style="fill: none; stroke: #2ca02c; stroke-width: 2; stroke-linecap: square"/>
    </g>
    <g id="line2d_106"/>
    <g id="text_75">
     <!-- 10 mM -->
     <g transform="translate(534.812201 600.114844) scale(0.13 -0.13)">
      <use xlink:href="#DejaVuSans-31"/>
      <use xlink:href="#DejaVuSans-30" transform="translate(63.623047 0)"/>
      <use xlink:href="#DejaVuSans-20" transform="translate(127.246094 0)"/>
      <use xlink:href="#DejaVuSans-6d" transform="translate(159.033203 0)"/>
      <use xlink:href="#DejaVuSans-4d" transform="translate(256.445312 0)"/>
     </g>
    </g>
    <g id="line2d_107">
     <path d="M 498.412201 614.646406 
L 524.412201 614.646406 
" style="fill: none; stroke: #d62728; stroke-width: 2; stroke-linecap: square"/>
    </g>
    <g id="line2d_108"/>
    <g id="text_76">
     <!-- 20 mM -->
     <g transform="translate(534.812201 619.196406) scale(0.13 -0.13)">
      <use xlink:href="#DejaVuSans-32"/>
      <use xlink:href="#DejaVuSans-30" transform="translate(63.623047 0)"/>
      <use xlink:href="#DejaVuSans-20" transform="translate(127.246094 0)"/>
      <use xlink:href="#DejaVuSans-6d" transform="translate(159.033203 0)"/>
      <use xlink:href="#DejaVuSans-4d" transform="translate(256.445312 0)"/>
     </g>
    </g>
   </g>
  </g>
  <g id="text_77">
   <!-- Dose -->
   <g transform="translate(388.281563 26.196094) scale(0.25 -0.25)">
    <defs>
     <path id="DejaVuSans-Bold-44" d="M 1791 3756 
L 1791 909 
L 2222 909 
Q 2959 909 3348 1275 
Q 3738 1641 3738 2338 
Q 3738 3031 3350 3393 
Q 2963 3756 2222 3756 
L 1791 3756 
z
M 588 4666 
L 1856 4666 
Q 2919 4666 3439 4514 
Q 3959 4363 4331 4000 
Q 4659 3684 4818 3271 
Q 4978 2859 4978 2338 
Q 4978 1809 4818 1395 
Q 4659 981 4331 666 
Q 3956 303 3431 151 
Q 2906 0 1856 0 
L 588 0 
L 588 4666 
z
" transform="scale(0.015625)"/>
     <path id="DejaVuSans-Bold-73" d="M 3272 3391 
L 3272 2541 
Q 2913 2691 2578 2766 
Q 2244 2841 1947 2841 
Q 1628 2841 1473 2761 
Q 1319 2681 1319 2516 
Q 1319 2381 1436 2309 
Q 1553 2238 1856 2203 
L 2053 2175 
Q 2913 2066 3209 1816 
Q 3506 1566 3506 1031 
Q 3506 472 3093 190 
Q 2681 -91 1863 -91 
Q 1516 -91 1145 -36 
Q 775 19 384 128 
L 384 978 
Q 719 816 1070 734 
Q 1422 653 1784 653 
Q 2113 653 2278 743 
Q 2444 834 2444 1013 
Q 2444 1163 2330 1236 
Q 2216 1309 1875 1350 
L 1678 1375 
Q 931 1469 631 1722 
Q 331 1975 331 2491 
Q 331 3047 712 3315 
Q 1094 3584 1881 3584 
Q 2191 3584 2531 3537 
Q 2872 3491 3272 3391 
z
" transform="scale(0.015625)"/>
    </defs>
    <use xlink:href="#DejaVuSans-Bold-44"/>
    <use xlink:href="#DejaVuSans-Bold-6f" transform="translate(83.007812 0)"/>
    <use xlink:href="#DejaVuSans-Bold-73" transform="translate(151.708984 0)"/>
    <use xlink:href="#DejaVuSans-Bold-65" transform="translate(211.230469 0)"/>
   </g>
  </g>
 </g>
 <defs>
  <clipPath id="p0af0748acb">
   <rect x="45.164375" y="79.2" width="339.652174" height="241.043478"/>
  </clipPath>
  <clipPath id="p3b96b7aff9">
   <rect x="486.712201" y="79.2" width="339.652174" height="241.043478"/>
  </clipPath>
  <clipPath id="p1f84452f89">
   <rect x="45.164375" y="392.556522" width="339.652174" height="241.043478"/>
  </clipPath>
  <clipPath id="p5fdcf7d292">
   <rect x="486.712201" y="392.556522" width="339.652174" height="241.043478"/>
  </clipPath>
 </defs>
</svg>
