<?xml version="1.0" encoding="utf-8" standalone="no"?>
<!DOCTYPE svg PUBLIC "-//W3C//DTD SVG 1.1//EN"
  "http://www.w3.org/Graphics/SVG/1.1/DTD/svg11.dtd">
<svg xmlns:xlink="http://www.w3.org/1999/xlink" width="841.123145pt" height="683.737812pt" viewBox="0 0 841.123145 683.737812" xmlns="http://www.w3.org/2000/svg" version="1.1">
 <metadata>
  <rdf:RDF xmlns:dc="http://purl.org/dc/elements/1.1/" xmlns:cc="http://creativecommons.org/ns#" xmlns:rdf="http://www.w3.org/1999/02/22-rdf-syntax-ns#">
   <cc:Work>
    <dc:type rdf:resource="http://purl.org/dc/dcmitype/StillImage"/>
    <dc:date>2025-11-06T16:47:12.600504</dc:date>
    <dc:format>image/svg+xml</dc:format>
    <dc:creator>
     <cc:Agent>
      <dc:title>Matplotlib v3.10.7, https://matplotlib.org/</dc:title>
     </cc:Agent>
    </dc:creator>
   </cc:Work>
  </rdf:RDF>
 </metadata>
 <defs>
  <style type="text/css">*{stroke-linejoin: round; stroke-linecap: butt}</style>
 </defs>
 <g id="figure_1">
  <g id="patch_1">
   <path d="M 0 683.737812 
L 841.123145 683.737812 
L 841.123145 0 
L 0 0 
z
" style="fill: #ffffff"/>
  </g>
  <g id="axes_1">
   <g id="patch_2">
    <path d="M 45.164375 320.243478 
L 384.816549 320.243478 
L 384.816549 79.2 
L 45.164375 79.2 
z
" style="fill: #ffffff"/>
   </g>
   <g id="matplotlib.axis_1">
    <g id="xtick_1">
     <g id="line2d_1">
      <defs>
       <path id="mb36a63d94f" d="M 0 0 
L 0 3.5 
" style="stroke: #000000; stroke-width: 0.8"/>
      </defs>
      <g>
       <use xlink:href="#mb36a63d94f" x="60.60311" y="320.243478" style="stroke: #000000; stroke-width: 0.8"/>
      </g>
     </g>
     <g id="text_1">
      <!-- 0 -->
      <g transform="translate(55.831235 338.641135) scale(0.15 -0.15)">
       <defs>
        <path id="DejaVuSans-30" d="M 2034 4250 
Q 1547 4250 1301 3770 
Q 1056 3291 1056 2328 
Q 1056 1369 1301 889 
Q 1547 409 2034 409 
Q 2525 409 2770 889 
Q 3016 1369 3016 2328 
Q 3016 3291 2770 3770 
Q 2525 4250 2034 4250 
z
M 2034 4750 
Q 2819 4750 3233 4129 
Q 3647 3509 3647 2328 
Q 3647 1150 3233 529 
Q 2819 -91 2034 -91 
Q 1250 -91 836 529 
Q 422 1150 422 2328 
Q 422 3509 836 4129 
Q 1250 4750 2034 4750 
z
" transform="scale(0.015625)"/>
       </defs>
       <use xlink:href="#DejaVuSans-30"/>
      </g>
     </g>
    </g>
    <g id="xtick_2">
     <g id="line2d_2">
      <g>
       <use xlink:href="#mb36a63d94f" x="114.307853" y="320.243478" style="stroke: #000000; stroke-width: 0.8"/>
      </g>
     </g>
     <g id="text_2">
      <!-- 2 -->
      <g transform="translate(109.535978 338.641135) scale(0.15 -0.15)">
       <defs>
        <path id="DejaVuSans-32" d="M 1228 531 
L 3431 531 
L 3431 0 
L 469 0 
L 469 531 
Q 828 903 1448 1529 
Q 2069 2156 2228 2338 
Q 2531 2678 2651 2914 
Q 2772 3150 2772 3378 
Q 2772 3750 2511 3984 
Q 2250 4219 1831 4219 
Q 1534 4219 1204 4116 
Q 875 4013 500 3803 
L 500 4441 
Q 881 4594 1212 4672 
Q 1544 4750 1819 4750 
Q 2544 4750 2975 4387 
Q 3406 4025 3406 3419 
Q 3406 3131 3298 2873 
Q 3191 2616 2906 2266 
Q 2828 2175 2409 1742 
Q 1991 1309 1228 531 
z
" transform="scale(0.015625)"/>
       </defs>
       <use xlink:href="#DejaVuSans-32"/>
      </g>
     </g>
    </g>
    <g id="xtick_3">
     <g id="line2d_3">
      <g>
       <use xlink:href="#mb36a63d94f" x="168.012596" y="320.243478" style="stroke: #000000; stroke-width: 0.8"/>
      </g>
     </g>
     <g id="text_3">
      <!-- 4 -->
      <g transform="translate(163.240721 338.641135) scale(0.15 -0.15)">
       <defs>
        <path id="DejaVuSans-34" d="M 2419 4116 
L 825 1625 
L 2419 1625 
L 2419 4116 
z
M 2253 4666 
L 3047 4666 
L 3047 1625 
L 3713 1625 
L 3713 1100 
L 3047 1100 
L 3047 0 
L 2419 0 
L 2419 1100 
L 313 1100 
L 313 1709 
L 2253 4666 
z
" transform="scale(0.015625)"/>
       </defs>
       <use xlink:href="#DejaVuSans-34"/>
      </g>
     </g>
    </g>
    <g id="xtick_4">
     <g id="line2d_4">
      <g>
       <use xlink:href="#mb36a63d94f" x="221.717339" y="320.243478" style="stroke: #000000; stroke-width: 0.8"/>
      </g>
     </g>
     <g id="text_4">
      <!-- 6 -->
      <g transform="translate(216.945464 338.641135) scale(0.15 -0.15)">
       <defs>
        <path id="DejaVuSans-36" d="M 2113 2584 
Q 1688 2584 1439 2293 
Q 1191 2003 1191 1497 
Q 1191 994 1439 701 
Q 1688 409 2113 409 
Q 2538 409 2786 701 
Q 3034 994 3034 1497 
Q 3034 2003 2786 2293 
Q 2538 2584 2113 2584 
z
M 3366 4563 
L 3366 3988 
Q 3128 4100 2886 4159 
Q 2644 4219 2406 4219 
Q 1781 4219 1451 3797 
Q 1122 3375 1075 2522 
Q 1259 2794 1537 2939 
Q 1816 3084 2150 3084 
Q 2853 3084 3261 2657 
Q 3669 2231 3669 1497 
Q 3669 778 3244 343 
Q 2819 -91 2113 -91 
Q 1303 -91 875 529 
Q 447 1150 447 2328 
Q 447 3434 972 4092 
Q 1497 4750 2381 4750 
Q 2619 4750 2861 4703 
Q 3103 4656 3366 4563 
z
" transform="scale(0.015625)"/>
       </defs>
       <use xlink:href="#DejaVuSans-36"/>
      </g>
     </g>
    </g>
    <g id="xtick_5">
     <g id="line2d_5">
      <g>
       <use xlink:href="#mb36a63d94f" x="275.422083" y="320.243478" style="stroke: #000000; stroke-width: 0.8"/>
      </g>
     </g>
     <g id="text_5">
      <!-- 8 -->
      <g transform="translate(270.650208 338.641135) scale(0.15 -0.15)">
       <defs>
        <path id="DejaVuSans-38" d="M 2034 2216 
Q 1584 2216 1326 1975 
Q 1069 1734 1069 1313 
Q 1069 891 1326 650 
Q 1584 409 2034 409 
Q 2484 409 2743 651 
Q 3003 894 3003 1313 
Q 3003 1734 2745 1975 
Q 2488 2216 2034 2216 
z
M 1403 2484 
Q 997 2584 770 2862 
Q 544 3141 544 3541 
Q 544 4100 942 4425 
Q 1341 4750 2034 4750 
Q 2731 4750 3128 4425 
Q 3525 4100 3525 3541 
Q 3525 3141 3298 2862 
Q 3072 2584 2669 2484 
Q 3125 2378 3379 2068 
Q 3634 1759 3634 1313 
Q 3634 634 3220 271 
Q 2806 -91 2034 -91 
Q 1263 -91 848 271 
Q 434 634 434 1313 
Q 434 1759 690 2068 
Q 947 2378 1403 2484 
z
M 1172 3481 
Q 1172 3119 1398 2916 
Q 1625 2713 2034 2713 
Q 2441 2713 2670 2916 
Q 2900 3119 2900 3481 
Q 2900 3844 2670 4047 
Q 2441 4250 2034 4250 
Q 1625 4250 1398 4047 
Q 1172 3844 1172 3481 
z
" transform="scale(0.015625)"/>
       </defs>
       <use xlink:href="#DejaVuSans-38"/>
      </g>
     </g>
    </g>
    <g id="xtick_6">
     <g id="line2d_6">
      <g>
       <use xlink:href="#mb36a63d94f" x="329.126826" y="320.243478" style="stroke: #000000; stroke-width: 0.8"/>
      </g>
     </g>
     <g id="text_6">
      <!-- 10 -->
      <g transform="translate(319.583076 338.641135) scale(0.15 -0.15)">
       <defs>
        <path id="DejaVuSans-31" d="M 794 531 
L 1825 531 
L 1825 4091 
L 703 3866 
L 703 4441 
L 1819 4666 
L 2450 4666 
L 2450 531 
L 3481 531 
L 3481 0 
L 794 0 
L 794 531 
z
" transform="scale(0.015625)"/>
       </defs>
       <use xlink:href="#DejaVuSans-31"/>
       <use xlink:href="#DejaVuSans-30" transform="translate(63.623047 0)"/>
      </g>
     </g>
    </g>
    <g id="xtick_7">
     <g id="line2d_7">
      <g>
       <use xlink:href="#mb36a63d94f" x="382.831569" y="320.243478" style="stroke: #000000; stroke-width: 0.8"/>
      </g>
     </g>
     <g id="text_7">
      <!-- 12 -->
      <g transform="translate(373.287819 338.641135) scale(0.15 -0.15)">
       <use xlink:href="#DejaVuSans-31"/>
       <use xlink:href="#DejaVuSans-32" transform="translate(63.623047 0)"/>
      </g>
     </g>
    </g>
    <g id="text_8">
     <!-- time [month] -->
     <g transform="translate(148.083899 359.437853) scale(0.18 -0.18)">
      <defs>
       <path id="DejaVuSans-Bold-74" d="M 1759 4494 
L 1759 3500 
L 2913 3500 
L 2913 2700 
L 1759 2700 
L 1759 1216 
Q 1759 972 1856 886 
Q 1953 800 2241 800 
L 2816 800 
L 2816 0 
L 1856 0 
Q 1194 0 917 276 
Q 641 553 641 1216 
L 641 2700 
L 84 2700 
L 84 3500 
L 641 3500 
L 641 4494 
L 1759 4494 
z
" transform="scale(0.015625)"/>
       <path id="DejaVuSans-Bold-69" d="M 538 3500 
L 1656 3500 
L 1656 0 
L 538 0 
L 538 3500 
z
M 538 4863 
L 1656 4863 
L 1656 3950 
L 538 3950 
L 538 4863 
z
" transform="scale(0.015625)"/>
       <path id="DejaVuSans-Bold-6d" d="M 3781 2919 
Q 3994 3244 4286 3414 
Q 4578 3584 4928 3584 
Q 5531 3584 5847 3212 
Q 6163 2841 6163 2131 
L 6163 0 
L 5038 0 
L 5038 1825 
Q 5041 1866 5042 1909 
Q 5044 1953 5044 2034 
Q 5044 2406 4934 2573 
Q 4825 2741 4581 2741 
Q 4263 2741 4089 2478 
Q 3916 2216 3909 1719 
L 3909 0 
L 2784 0 
L 2784 1825 
Q 2784 2406 2684 2573 
Q 2584 2741 2328 2741 
Q 2006 2741 1831 2477 
Q 1656 2213 1656 1722 
L 1656 0 
L 531 0 
L 531 3500 
L 1656 3500 
L 1656 2988 
Q 1863 3284 2130 3434 
Q 2397 3584 2719 3584 
Q 3081 3584 3359 3409 
Q 3638 3234 3781 2919 
z
" transform="scale(0.015625)"/>
       <path id="DejaVuSans-Bold-65" d="M 4031 1759 
L 4031 1441 
L 1416 1441 
Q 1456 1047 1700 850 
Q 1944 653 2381 653 
Q 2734 653 3104 758 
Q 3475 863 3866 1075 
L 3866 213 
Q 3469 63 3072 -14 
Q 2675 -91 2278 -91 
Q 1328 -91 801 392 
Q 275 875 275 1747 
Q 275 2603 792 3093 
Q 1309 3584 2216 3584 
Q 3041 3584 3536 3087 
Q 4031 2591 4031 1759 
z
M 2881 2131 
Q 2881 2450 2695 2645 
Q 2509 2841 2209 2841 
Q 1884 2841 1681 2658 
Q 1478 2475 1428 2131 
L 2881 2131 
z
" transform="scale(0.015625)"/>
       <path id="DejaVuSans-Bold-20" transform="scale(0.015625)"/>
       <path id="DejaVuSans-Bold-5b" d="M 550 4863 
L 2491 4863 
L 2491 4159 
L 1613 4159 
L 1613 -141 
L 2491 -141 
L 2491 -844 
L 550 -844 
L 550 4863 
z
" transform="scale(0.015625)"/>
       <path id="DejaVuSans-Bold-6f" d="M 2203 2784 
Q 1831 2784 1636 2517 
Q 1441 2250 1441 1747 
Q 1441 1244 1636 976 
Q 1831 709 2203 709 
Q 2569 709 2762 976 
Q 2956 1244 2956 1747 
Q 2956 2250 2762 2517 
Q 2569 2784 2203 2784 
z
M 2203 3584 
Q 3106 3584 3614 3096 
Q 4122 2609 4122 1747 
Q 4122 884 3614 396 
Q 3106 -91 2203 -91 
Q 1297 -91 786 396 
Q 275 884 275 1747 
Q 275 2609 786 3096 
Q 1297 3584 2203 3584 
z
" transform="scale(0.015625)"/>
       <path id="DejaVuSans-Bold-6e" d="M 4056 2131 
L 4056 0 
L 2931 0 
L 2931 347 
L 2931 1631 
Q 2931 2084 2911 2256 
Q 2891 2428 2841 2509 
Q 2775 2619 2662 2680 
Q 2550 2741 2406 2741 
Q 2056 2741 1856 2470 
Q 1656 2200 1656 1722 
L 1656 0 
L 538 0 
L 538 3500 
L 1656 3500 
L 1656 2988 
Q 1909 3294 2193 3439 
Q 2478 3584 2822 3584 
Q 3428 3584 3742 3212 
Q 4056 2841 4056 2131 
z
" transform="scale(0.015625)"/>
       <path id="DejaVuSans-Bold-68" d="M 4056 2131 
L 4056 0 
L 2931 0 
L 2931 347 
L 2931 1625 
Q 2931 2084 2911 2256 
Q 2891 2428 2841 2509 
Q 2775 2619 2662 2680 
Q 2550 2741 2406 2741 
Q 2056 2741 1856 2470 
Q 1656 2200 1656 1722 
L 1656 0 
L 538 0 
L 538 4863 
L 1656 4863 
L 1656 2988 
Q 1909 3294 2193 3439 
Q 2478 3584 2822 3584 
Q 3428 3584 3742 3212 
Q 4056 2841 4056 2131 
z
" transform="scale(0.015625)"/>
       <path id="DejaVuSans-Bold-5d" d="M 2375 -844 
L 434 -844 
L 434 -141 
L 1313 -141 
L 1313 4159 
L 434 4159 
L 434 4863 
L 2375 4863 
L 2375 -844 
z
" transform="scale(0.015625)"/>
      </defs>
      <use xlink:href="#DejaVuSans-Bold-74"/>
      <use xlink:href="#DejaVuSans-Bold-69" transform="translate(47.802734 0)"/>
      <use xlink:href="#DejaVuSans-Bold-6d" transform="translate(82.080078 0)"/>
      <use xlink:href="#DejaVuSans-Bold-65" transform="translate(186.279297 0)"/>
      <use xlink:href="#DejaVuSans-Bold-20" transform="translate(254.101562 0)"/>
      <use xlink:href="#DejaVuSans-Bold-5b" transform="translate(288.916016 0)"/>
      <use xlink:href="#DejaVuSans-Bold-6d" transform="translate(334.619141 0)"/>
      <use xlink:href="#DejaVuSans-Bold-6f" transform="translate(438.818359 0)"/>
      <use xlink:href="#DejaVuSans-Bold-6e" transform="translate(507.519531 0)"/>
      <use xlink:href="#DejaVuSans-Bold-74" transform="translate(578.710938 0)"/>
      <use xlink:href="#DejaVuSans-Bold-68" transform="translate(626.513672 0)"/>
      <use xlink:href="#DejaVuSans-Bold-5d" transform="translate(697.705078 0)"/>
     </g>
    </g>
   </g>
   <g id="matplotlib.axis_2">
    <g id="ytick_1">
     <g id="line2d_8">
      <defs>
       <path id="m2b2283e00f" d="M 0 0 
L -3.5 0 
" style="stroke: #000000; stroke-width: 0.8"/>
      </defs>
      <g>
       <use xlink:href="#m2b2283e00f" x="45.164375" y="320.243478" style="stroke: #000000; stroke-width: 0.8"/>
      </g>
     </g>
     <g id="text_9">
      <!-- 0 -->
      <g transform="translate(28.620625 325.942306) scale(0.15 -0.15)">
       <use xlink:href="#DejaVuSans-30"/>
      </g>
     </g>
    </g>
    <g id="ytick_2">
     <g id="line2d_9">
      <g>
       <use xlink:href="#m2b2283e00f" x="45.164375" y="267.842722" style="stroke: #000000; stroke-width: 0.8"/>
      </g>
     </g>
     <g id="text_10">
      <!-- 2 -->
      <g transform="translate(28.620625 273.54155) scale(0.15 -0.15)">
       <use xlink:href="#DejaVuSans-32"/>
      </g>
     </g>
    </g>
    <g id="ytick_3">
     <g id="line2d_10">
      <g>
       <use xlink:href="#m2b2283e00f" x="45.164375" y="215.441966" style="stroke: #000000; stroke-width: 0.8"/>
      </g>
     </g>
     <g id="text_11">
      <!-- 4 -->
      <g transform="translate(28.620625 221.140794) scale(0.15 -0.15)">
       <use xlink:href="#DejaVuSans-34"/>
      </g>
     </g>
    </g>
    <g id="ytick_4">
     <g id="line2d_11">
      <g>
       <use xlink:href="#m2b2283e00f" x="45.164375" y="163.04121" style="stroke: #000000; stroke-width: 0.8"/>
      </g>
     </g>
     <g id="text_12">
      <!-- 6 -->
      <g transform="translate(28.620625 168.740038) scale(0.15 -0.15)">
       <use xlink:href="#DejaVuSans-36"/>
      </g>
     </g>
    </g>
    <g id="ytick_5">
     <g id="line2d_12">
      <g>
       <use xlink:href="#m2b2283e00f" x="45.164375" y="110.640454" style="stroke: #000000; stroke-width: 0.8"/>
      </g>
     </g>
     <g id="text_13">
      <!-- 8 -->
      <g transform="translate(28.620625 116.339282) scale(0.15 -0.15)">
       <use xlink:href="#DejaVuSans-38"/>
      </g>
     </g>
    </g>
    <g id="text_14">
     <!-- initial FPG [mM] -->
     <g transform="translate(20.877188 281.804552) rotate(-90) scale(0.18 -0.18)">
      <defs>
       <path id="DejaVuSans-Bold-61" d="M 2106 1575 
Q 1756 1575 1579 1456 
Q 1403 1338 1403 1106 
Q 1403 894 1545 773 
Q 1688 653 1941 653 
Q 2256 653 2472 879 
Q 2688 1106 2688 1447 
L 2688 1575 
L 2106 1575 
z
M 3816 1997 
L 3816 0 
L 2688 0 
L 2688 519 
Q 2463 200 2181 54 
Q 1900 -91 1497 -91 
Q 953 -91 614 226 
Q 275 544 275 1050 
Q 275 1666 698 1953 
Q 1122 2241 2028 2241 
L 2688 2241 
L 2688 2328 
Q 2688 2594 2478 2717 
Q 2269 2841 1825 2841 
Q 1466 2841 1156 2769 
Q 847 2697 581 2553 
L 581 3406 
Q 941 3494 1303 3539 
Q 1666 3584 2028 3584 
Q 2975 3584 3395 3211 
Q 3816 2838 3816 1997 
z
" transform="scale(0.015625)"/>
       <path id="DejaVuSans-Bold-6c" d="M 538 4863 
L 1656 4863 
L 1656 0 
L 538 0 
L 538 4863 
z
" transform="scale(0.015625)"/>
       <path id="DejaVuSans-Bold-46" d="M 588 4666 
L 3834 4666 
L 3834 3756 
L 1791 3756 
L 1791 2888 
L 3713 2888 
L 3713 1978 
L 1791 1978 
L 1791 0 
L 588 0 
L 588 4666 
z
" transform="scale(0.015625)"/>
       <path id="DejaVuSans-Bold-50" d="M 588 4666 
L 2584 4666 
Q 3475 4666 3951 4270 
Q 4428 3875 4428 3144 
Q 4428 2409 3951 2014 
Q 3475 1619 2584 1619 
L 1791 1619 
L 1791 0 
L 588 0 
L 588 4666 
z
M 1791 3794 
L 1791 2491 
L 2456 2491 
Q 2806 2491 2997 2661 
Q 3188 2831 3188 3144 
Q 3188 3456 2997 3625 
Q 2806 3794 2456 3794 
L 1791 3794 
z
" transform="scale(0.015625)"/>
       <path id="DejaVuSans-Bold-47" d="M 4781 347 
Q 4331 128 3847 18 
Q 3363 -91 2847 -91 
Q 1681 -91 1000 561 
Q 319 1213 319 2328 
Q 319 3456 1012 4103 
Q 1706 4750 2913 4750 
Q 3378 4750 3804 4662 
Q 4231 4575 4609 4403 
L 4609 3438 
Q 4219 3659 3833 3768 
Q 3447 3878 3059 3878 
Q 2341 3878 1952 3476 
Q 1563 3075 1563 2328 
Q 1563 1588 1938 1184 
Q 2313 781 3003 781 
Q 3191 781 3352 804 
Q 3513 828 3641 878 
L 3641 1784 
L 2906 1784 
L 2906 2591 
L 4781 2591 
L 4781 347 
z
" transform="scale(0.015625)"/>
       <path id="DejaVuSans-Bold-4d" d="M 588 4666 
L 2119 4666 
L 3181 2169 
L 4250 4666 
L 5778 4666 
L 5778 0 
L 4641 0 
L 4641 3413 
L 3566 897 
L 2803 897 
L 1728 3413 
L 1728 0 
L 588 0 
L 588 4666 
z
" transform="scale(0.015625)"/>
      </defs>
      <use xlink:href="#DejaVuSans-Bold-69"/>
      <use xlink:href="#DejaVuSans-Bold-6e" transform="translate(34.277344 0)"/>
      <use xlink:href="#DejaVuSans-Bold-69" transform="translate(105.46875 0)"/>
      <use xlink:href="#DejaVuSans-Bold-74" transform="translate(139.746094 0)"/>
      <use xlink:href="#DejaVuSans-Bold-69" transform="translate(187.548828 0)"/>
      <use xlink:href="#DejaVuSans-Bold-61" transform="translate(221.826172 0)"/>
      <use xlink:href="#DejaVuSans-Bold-6c" transform="translate(289.306641 0)"/>
      <use xlink:href="#DejaVuSans-Bold-20" transform="translate(323.583984 0)"/>
      <use xlink:href="#DejaVuSans-Bold-46" transform="translate(358.398438 0)"/>
      <use xlink:href="#DejaVuSans-Bold-50" transform="translate(426.708984 0)"/>
      <use xlink:href="#DejaVuSans-Bold-47" transform="translate(500 0)"/>
      <use xlink:href="#DejaVuSans-Bold-20" transform="translate(582.080078 0)"/>
      <use xlink:href="#DejaVuSans-Bold-5b" transform="translate(616.894531 0)"/>
      <use xlink:href="#DejaVuSans-Bold-6d" transform="translate(662.597656 0)"/>
      <use xlink:href="#DejaVuSans-Bold-4d" transform="translate(766.796875 0)"/>
      <use xlink:href="#DejaVuSans-Bold-5d" transform="translate(866.308594 0)"/>
     </g>
    </g>
   </g>
   <g id="line2d_13">
    <path d="M 60.60311 189.241588 
L 369.377814 189.241588 
L 369.377814 189.241588 
" clip-path="url(#pe46ef86f7d)" style="fill: none; stroke: #0000ff; stroke-width: 2; stroke-linecap: square"/>
   </g>
   <g id="line2d_14">
    <path d="M 60.60311 163.04121 
L 369.377814 163.04121 
L 369.377814 163.04121 
" clip-path="url(#pe46ef86f7d)" style="fill: none; stroke: #1f77b4; stroke-width: 2; stroke-linecap: square"/>
   </g>
   <g id="line2d_15">
    <path d="M 60.60311 136.840832 
L 369.377814 136.840832 
L 369.377814 136.840832 
" clip-path="url(#pe46ef86f7d)" style="fill: none; stroke: #000000; stroke-width: 2; stroke-linecap: square"/>
   </g>
   <g id="line2d_16">
    <path d="M 60.60311 110.640454 
L 369.377814 110.640454 
L 369.377814 110.640454 
" clip-path="url(#pe46ef86f7d)" style="fill: none; stroke: #d62728; stroke-width: 2; stroke-linecap: square"/>
   </g>
   <g id="line2d_17">
    <path d="M 60.60311 84.440076 
L 369.377814 84.440076 
L 369.377814 84.440076 
" clip-path="url(#pe46ef86f7d)" style="fill: none; stroke: #ff0000; stroke-width: 2; stroke-linecap: square"/>
   </g>
   <g id="patch_3">
    <path d="M 45.164375 320.243478 
L 45.164375 79.2 
" style="fill: none; stroke: #000000; stroke-width: 0.8; stroke-linejoin: miter; stroke-linecap: square"/>
   </g>
   <g id="patch_4">
    <path d="M 384.816549 320.243478 
L 384.816549 79.2 
" style="fill: none; stroke: #000000; stroke-width: 0.8; stroke-linejoin: miter; stroke-linecap: square"/>
   </g>
   <g id="patch_5">
    <path d="M 45.164375 320.243478 
L 384.816549 320.243478 
" style="fill: none; stroke: #000000; stroke-width: 0.8; stroke-linejoin: miter; stroke-linecap: square"/>
   </g>
   <g id="patch_6">
    <path d="M 45.164375 79.2 
L 384.816549 79.2 
" style="fill: none; stroke: #000000; stroke-width: 0.8; stroke-linejoin: miter; stroke-linecap: square"/>
   </g>
   <g id="legend_1">
    <g id="patch_7">
     <path d="M 54.264375 313.743478 
L 132.146563 313.743478 
Q 134.746563 313.743478 134.746563 311.143478 
L 134.746563 217.035666 
Q 134.746563 214.435666 132.146563 214.435666 
L 54.264375 214.435666 
Q 51.664375 214.435666 51.664375 217.035666 
L 51.664375 311.143478 
Q 51.664375 313.743478 54.264375 313.743478 
z
" style="fill: #ffffff; opacity: 0.8; stroke: #cccccc; stroke-linejoin: miter"/>
    </g>
    <g id="line2d_18">
     <path d="M 56.864375 224.963635 
L 82.864375 224.963635 
" style="fill: none; stroke: #0000ff; stroke-width: 2; stroke-linecap: square"/>
    </g>
    <g id="line2d_19"/>
    <g id="text_15">
     <!-- 5 mM -->
     <g transform="translate(93.264375 229.513635) scale(0.13 -0.13)">
      <defs>
       <path id="DejaVuSans-35" d="M 691 4666 
L 3169 4666 
L 3169 4134 
L 1269 4134 
L 1269 2991 
Q 1406 3038 1543 3061 
Q 1681 3084 1819 3084 
Q 2600 3084 3056 2656 
Q 3513 2228 3513 1497 
Q 3513 744 3044 326 
Q 2575 -91 1722 -91 
Q 1428 -91 1123 -41 
Q 819 9 494 109 
L 494 744 
Q 775 591 1075 516 
Q 1375 441 1709 441 
Q 2250 441 2565 725 
Q 2881 1009 2881 1497 
Q 2881 1984 2565 2268 
Q 2250 2553 1709 2553 
Q 1456 2553 1204 2497 
Q 953 2441 691 2322 
L 691 4666 
z
" transform="scale(0.015625)"/>
       <path id="DejaVuSans-20" transform="scale(0.015625)"/>
       <path id="DejaVuSans-6d" d="M 3328 2828 
Q 3544 3216 3844 3400 
Q 4144 3584 4550 3584 
Q 5097 3584 5394 3201 
Q 5691 2819 5691 2113 
L 5691 0 
L 5113 0 
L 5113 2094 
Q 5113 2597 4934 2840 
Q 4756 3084 4391 3084 
Q 3944 3084 3684 2787 
Q 3425 2491 3425 1978 
L 3425 0 
L 2847 0 
L 2847 2094 
Q 2847 2600 2669 2842 
Q 2491 3084 2119 3084 
Q 1678 3084 1418 2786 
Q 1159 2488 1159 1978 
L 1159 0 
L 581 0 
L 581 3500 
L 1159 3500 
L 1159 2956 
Q 1356 3278 1631 3431 
Q 1906 3584 2284 3584 
Q 2666 3584 2933 3390 
Q 3200 3197 3328 2828 
z
" transform="scale(0.015625)"/>
       <path id="DejaVuSans-4d" d="M 628 4666 
L 1569 4666 
L 2759 1491 
L 3956 4666 
L 4897 4666 
L 4897 0 
L 4281 0 
L 4281 4097 
L 3078 897 
L 2444 897 
L 1241 4097 
L 1241 0 
L 628 0 
L 628 4666 
z
" transform="scale(0.015625)"/>
      </defs>
      <use xlink:href="#DejaVuSans-35"/>
      <use xlink:href="#DejaVuSans-20" transform="translate(63.623047 0)"/>
      <use xlink:href="#DejaVuSans-6d" transform="translate(95.410156 0)"/>
      <use xlink:href="#DejaVuSans-4d" transform="translate(192.822266 0)"/>
     </g>
    </g>
    <g id="line2d_20">
     <path d="M 56.864375 244.045197 
L 82.864375 244.045197 
" style="fill: none; stroke: #1f77b4; stroke-width: 2; stroke-linecap: square"/>
    </g>
    <g id="line2d_21"/>
    <g id="text_16">
     <!-- 6 mM -->
     <g transform="translate(93.264375 248.595197) scale(0.13 -0.13)">
      <use xlink:href="#DejaVuSans-36"/>
      <use xlink:href="#DejaVuSans-20" transform="translate(63.623047 0)"/>
      <use xlink:href="#DejaVuSans-6d" transform="translate(95.410156 0)"/>
      <use xlink:href="#DejaVuSans-4d" transform="translate(192.822266 0)"/>
     </g>
    </g>
    <g id="line2d_22">
     <path d="M 56.864375 263.12676 
L 82.864375 263.12676 
" style="fill: none; stroke: #000000; stroke-width: 2; stroke-linecap: square"/>
    </g>
    <g id="line2d_23"/>
    <g id="text_17">
     <!-- 7 mM -->
     <g transform="translate(93.264375 267.67676) scale(0.13 -0.13)">
      <defs>
       <path id="DejaVuSans-37" d="M 525 4666 
L 3525 4666 
L 3525 4397 
L 1831 0 
L 1172 0 
L 2766 4134 
L 525 4134 
L 525 4666 
z
" transform="scale(0.015625)"/>
      </defs>
      <use xlink:href="#DejaVuSans-37"/>
      <use xlink:href="#DejaVuSans-20" transform="translate(63.623047 0)"/>
      <use xlink:href="#DejaVuSans-6d" transform="translate(95.410156 0)"/>
      <use xlink:href="#DejaVuSans-4d" transform="translate(192.822266 0)"/>
     </g>
    </g>
    <g id="line2d_24">
     <path d="M 56.864375 282.208322 
L 82.864375 282.208322 
" style="fill: none; stroke: #d62728; stroke-width: 2; stroke-linecap: square"/>
    </g>
    <g id="line2d_25"/>
    <g id="text_18">
     <!-- 8 mM -->
     <g transform="translate(93.264375 286.758322) scale(0.13 -0.13)">
      <use xlink:href="#DejaVuSans-38"/>
      <use xlink:href="#DejaVuSans-20" transform="translate(63.623047 0)"/>
      <use xlink:href="#DejaVuSans-6d" transform="translate(95.410156 0)"/>
      <use xlink:href="#DejaVuSans-4d" transform="translate(192.822266 0)"/>
     </g>
    </g>
    <g id="line2d_26">
     <path d="M 56.864375 301.289885 
L 82.864375 301.289885 
" style="fill: none; stroke: #ff0000; stroke-width: 2; stroke-linecap: square"/>
    </g>
    <g id="line2d_27"/>
    <g id="text_19">
     <!-- 9 mM -->
     <g transform="translate(93.264375 305.839885) scale(0.13 -0.13)">
      <defs>
       <path id="DejaVuSans-39" d="M 703 97 
L 703 672 
Q 941 559 1184 500 
Q 1428 441 1663 441 
Q 2288 441 2617 861 
Q 2947 1281 2994 2138 
Q 2813 1869 2534 1725 
Q 2256 1581 1919 1581 
Q 1219 1581 811 2004 
Q 403 2428 403 3163 
Q 403 3881 828 4315 
Q 1253 4750 1959 4750 
Q 2769 4750 3195 4129 
Q 3622 3509 3622 2328 
Q 3622 1225 3098 567 
Q 2575 -91 1691 -91 
Q 1453 -91 1209 -44 
Q 966 3 703 97 
z
M 1959 2075 
Q 2384 2075 2632 2365 
Q 2881 2656 2881 3163 
Q 2881 3666 2632 3958 
Q 2384 4250 1959 4250 
Q 1534 4250 1286 3958 
Q 1038 3666 1038 3163 
Q 1038 2656 1286 2365 
Q 1534 2075 1959 2075 
z
" transform="scale(0.015625)"/>
      </defs>
      <use xlink:href="#DejaVuSans-39"/>
      <use xlink:href="#DejaVuSans-20" transform="translate(63.623047 0)"/>
      <use xlink:href="#DejaVuSans-6d" transform="translate(95.410156 0)"/>
      <use xlink:href="#DejaVuSans-4d" transform="translate(192.822266 0)"/>
     </g>
    </g>
   </g>
  </g>
  <g id="axes_2">
   <g id="patch_8">
    <path d="M 486.712201 320.243478 
L 826.364375 320.243478 
L 826.364375 79.2 
L 486.712201 79.2 
z
" style="fill: #ffffff"/>
   </g>
   <g id="matplotlib.axis_3">
    <g id="xtick_8">
     <g id="line2d_28">
      <g>
       <use xlink:href="#mb36a63d94f" x="502.150936" y="320.243478" style="stroke: #000000; stroke-width: 0.8"/>
      </g>
     </g>
     <g id="text_20">
      <!-- 0 -->
      <g transform="translate(497.379061 338.641135) scale(0.15 -0.15)">
       <use xlink:href="#DejaVuSans-30"/>
      </g>
     </g>
    </g>
    <g id="xtick_9">
     <g id="line2d_29">
      <g>
       <use xlink:href="#mb36a63d94f" x="555.855679" y="320.243478" style="stroke: #000000; stroke-width: 0.8"/>
      </g>
     </g>
     <g id="text_21">
      <!-- 2 -->
      <g transform="translate(551.083804 338.641135) scale(0.15 -0.15)">
       <use xlink:href="#DejaVuSans-32"/>
      </g>
     </g>
    </g>
    <g id="xtick_10">
     <g id="line2d_30">
      <g>
       <use xlink:href="#mb36a63d94f" x="609.560422" y="320.243478" style="stroke: #000000; stroke-width: 0.8"/>
      </g>
     </g>
     <g id="text_22">
      <!-- 4 -->
      <g transform="translate(604.788547 338.641135) scale(0.15 -0.15)">
       <use xlink:href="#DejaVuSans-34"/>
      </g>
     </g>
    </g>
    <g id="xtick_11">
     <g id="line2d_31">
      <g>
       <use xlink:href="#mb36a63d94f" x="663.265166" y="320.243478" style="stroke: #000000; stroke-width: 0.8"/>
      </g>
     </g>
     <g id="text_23">
      <!-- 6 -->
      <g transform="translate(658.493291 338.641135) scale(0.15 -0.15)">
       <use xlink:href="#DejaVuSans-36"/>
      </g>
     </g>
    </g>
    <g id="xtick_12">
     <g id="line2d_32">
      <g>
       <use xlink:href="#mb36a63d94f" x="716.969909" y="320.243478" style="stroke: #000000; stroke-width: 0.8"/>
      </g>
     </g>
     <g id="text_24">
      <!-- 8 -->
      <g transform="translate(712.198034 338.641135) scale(0.15 -0.15)">
       <use xlink:href="#DejaVuSans-38"/>
      </g>
     </g>
    </g>
    <g id="xtick_13">
     <g id="line2d_33">
      <g>
       <use xlink:href="#mb36a63d94f" x="770.674652" y="320.243478" style="stroke: #000000; stroke-width: 0.8"/>
      </g>
     </g>
     <g id="text_25">
      <!-- 10 -->
      <g transform="translate(761.130902 338.641135) scale(0.15 -0.15)">
       <use xlink:href="#DejaVuSans-31"/>
       <use xlink:href="#DejaVuSans-30" transform="translate(63.623047 0)"/>
      </g>
     </g>
    </g>
    <g id="xtick_14">
     <g id="line2d_34">
      <g>
       <use xlink:href="#mb36a63d94f" x="824.379395" y="320.243478" style="stroke: #000000; stroke-width: 0.8"/>
      </g>
     </g>
     <g id="text_26">
      <!-- 12 -->
      <g transform="translate(814.835645 338.641135) scale(0.15 -0.15)">
       <use xlink:href="#DejaVuSans-31"/>
       <use xlink:href="#DejaVuSans-32" transform="translate(63.623047 0)"/>
      </g>
     </g>
    </g>
    <g id="text_27">
     <!-- time [month] -->
     <g transform="translate(589.631726 359.437853) scale(0.18 -0.18)">
      <use xlink:href="#DejaVuSans-Bold-74"/>
      <use xlink:href="#DejaVuSans-Bold-69" transform="translate(47.802734 0)"/>
      <use xlink:href="#DejaVuSans-Bold-6d" transform="translate(82.080078 0)"/>
      <use xlink:href="#DejaVuSans-Bold-65" transform="translate(186.279297 0)"/>
      <use xlink:href="#DejaVuSans-Bold-20" transform="translate(254.101562 0)"/>
      <use xlink:href="#DejaVuSans-Bold-5b" transform="translate(288.916016 0)"/>
      <use xlink:href="#DejaVuSans-Bold-6d" transform="translate(334.619141 0)"/>
      <use xlink:href="#DejaVuSans-Bold-6f" transform="translate(438.818359 0)"/>
      <use xlink:href="#DejaVuSans-Bold-6e" transform="translate(507.519531 0)"/>
      <use xlink:href="#DejaVuSans-Bold-74" transform="translate(578.710938 0)"/>
      <use xlink:href="#DejaVuSans-Bold-68" transform="translate(626.513672 0)"/>
      <use xlink:href="#DejaVuSans-Bold-5d" transform="translate(697.705078 0)"/>
     </g>
    </g>
   </g>
   <g id="matplotlib.axis_4">
    <g id="ytick_6">
     <g id="line2d_35">
      <g>
       <use xlink:href="#m2b2283e00f" x="486.712201" y="320.243478" style="stroke: #000000; stroke-width: 0.8"/>
      </g>
     </g>
     <g id="text_28">
      <!-- 0 -->
      <g transform="translate(470.168451 325.942306) scale(0.15 -0.15)">
       <use xlink:href="#DejaVuSans-30"/>
      </g>
     </g>
    </g>
    <g id="ytick_7">
     <g id="line2d_36">
      <g>
       <use xlink:href="#m2b2283e00f" x="486.712201" y="267.842722" style="stroke: #000000; stroke-width: 0.8"/>
      </g>
     </g>
     <g id="text_29">
      <!-- 2 -->
      <g transform="translate(470.168451 273.54155) scale(0.15 -0.15)">
       <use xlink:href="#DejaVuSans-32"/>
      </g>
     </g>
    </g>
    <g id="ytick_8">
     <g id="line2d_37">
      <g>
       <use xlink:href="#m2b2283e00f" x="486.712201" y="215.441966" style="stroke: #000000; stroke-width: 0.8"/>
      </g>
     </g>
     <g id="text_30">
      <!-- 4 -->
      <g transform="translate(470.168451 221.140794) scale(0.15 -0.15)">
       <use xlink:href="#DejaVuSans-34"/>
      </g>
     </g>
    </g>
    <g id="ytick_9">
     <g id="line2d_38">
      <g>
       <use xlink:href="#m2b2283e00f" x="486.712201" y="163.04121" style="stroke: #000000; stroke-width: 0.8"/>
      </g>
     </g>
     <g id="text_31">
      <!-- 6 -->
      <g transform="translate(470.168451 168.740038) scale(0.15 -0.15)">
       <use xlink:href="#DejaVuSans-36"/>
      </g>
     </g>
    </g>
    <g id="ytick_10">
     <g id="line2d_39">
      <g>
       <use xlink:href="#m2b2283e00f" x="486.712201" y="110.640454" style="stroke: #000000; stroke-width: 0.8"/>
      </g>
     </g>
     <g id="text_32">
      <!-- 8 -->
      <g transform="translate(470.168451 116.339282) scale(0.15 -0.15)">
       <use xlink:href="#DejaVuSans-38"/>
      </g>
     </g>
    </g>
    <g id="text_33">
     <!-- FPG [mM] -->
     <g transform="translate(462.425014 249.547989) rotate(-90) scale(0.18 -0.18)">
      <use xlink:href="#DejaVuSans-Bold-46"/>
      <use xlink:href="#DejaVuSans-Bold-50" transform="translate(68.310547 0)"/>
      <use xlink:href="#DejaVuSans-Bold-47" transform="translate(141.601562 0)"/>
      <use xlink:href="#DejaVuSans-Bold-20" transform="translate(223.681641 0)"/>
      <use xlink:href="#DejaVuSans-Bold-5b" transform="translate(258.496094 0)"/>
      <use xlink:href="#DejaVuSans-Bold-6d" transform="translate(304.199219 0)"/>
      <use xlink:href="#DejaVuSans-Bold-4d" transform="translate(408.398438 0)"/>
      <use xlink:href="#DejaVuSans-Bold-5d" transform="translate(507.910156 0)"/>
     </g>
    </g>
   </g>
   <g id="line2d_40">
    <path d="M 502.150936 189.241588 
L 810.92564 189.241588 
L 810.92564 189.241588 
" clip-path="url(#p9adb70d2a3)" style="fill: none; stroke: #0000ff; stroke-width: 2; stroke-linecap: square"/>
   </g>
   <g id="line2d_41">
    <path d="M 502.150936 163.04121 
L 510.796628 165.393743 
L 520.059869 167.680422 
L 529.631885 169.813228 
L 539.82145 171.852309 
L 550.628565 173.781622 
L 562.053229 175.588935 
L 574.095442 177.265717 
L 587.06398 178.84192 
L 600.958841 180.301246 
L 615.780027 181.632876 
L 631.836312 182.852613 
L 649.43647 183.966191 
L 668.889276 184.972612 
L 690.81228 185.878654 
L 715.514256 186.67131 
L 743.921529 187.354766 
L 777.269197 187.928983 
L 810.92564 188.331511 
L 810.92564 188.331511 
" clip-path="url(#p9adb70d2a3)" style="fill: none; stroke: #1f77b4; stroke-width: 2; stroke-linecap: square"/>
   </g>
   <g id="line2d_42">
    <path d="M 502.150936 136.840832 
L 508.635205 140.410799 
L 515.428249 143.890189 
L 522.221292 147.121658 
L 529.32311 150.25409 
L 536.733703 153.274618 
L 544.453071 156.172431 
L 552.481213 158.93876 
L 560.81813 161.566822 
L 569.463822 164.051741 
L 578.418288 166.390447 
L 587.681529 168.581555 
L 597.56232 170.687669 
L 608.06066 172.690679 
L 618.867774 174.526976 
L 630.601213 176.290743 
L 642.952201 177.919437 
L 656.229513 179.442581 
L 670.43315 180.845876 
L 685.871885 182.144241 
L 702.545719 183.321916 
L 721.072201 184.402719 
L 741.451332 185.365133 
L 764.30066 186.218493 
L 790.546509 186.969541 
L 810.92564 187.421434 
L 810.92564 187.421434 
" clip-path="url(#p9adb70d2a3)" style="fill: none; stroke: #000000; stroke-width: 2; stroke-linecap: square"/>
   </g>
   <g id="line2d_43">
    <path d="M 502.150936 110.640454 
L 507.708881 115.25335 
L 513.5756 119.829146 
L 519.44232 124.121952 
L 525.309039 128.14927 
L 531.484533 132.119771 
L 537.660027 135.832222 
L 544.144296 139.470904 
L 550.628565 142.86169 
L 557.421608 146.166444 
L 564.523426 149.369915 
L 571.934019 152.458943 
L 579.344612 155.308651 
L 587.06398 158.042585 
L 595.092122 160.652471 
L 603.429039 163.131908 
L 612.074731 165.476298 
L 621.337972 167.75506 
L 630.909988 169.880483 
L 641.099553 171.912506 
L 651.906667 173.83514 
L 663.331332 175.636197 
L 675.373545 177.307174 
L 688.342083 178.877921 
L 702.236944 180.332195 
L 717.05813 181.659215 
L 733.423189 182.896086 
L 751.332122 184.019663 
L 771.093703 185.030057 
L 793.016707 185.923907 
L 810.92564 186.511357 
L 810.92564 186.511357 
" clip-path="url(#p9adb70d2a3)" style="fill: none; stroke: #d62728; stroke-width: 2; stroke-linecap: square"/>
   </g>
   <g id="line2d_44">
    <path d="M 502.150936 84.440076 
L 507.400106 90.25858 
L 512.649276 95.754045 
L 518.207221 101.240586 
L 523.765166 106.405136 
L 529.32311 111.266593 
L 534.881055 115.842743 
L 540.747774 120.382088 
L 546.614494 124.640697 
L 552.789988 128.839226 
L 558.965482 132.764886 
L 565.140976 136.435409 
L 571.625245 140.032998 
L 578.418288 143.539307 
L 585.211332 146.795778 
L 592.31315 149.952446 
L 599.723743 152.996343 
L 607.44311 155.916577 
L 615.162478 158.601531 
L 623.19062 161.164659 
L 631.836312 163.685688 
L 640.790778 166.05838 
L 650.054019 168.281329 
L 659.93481 170.418048 
L 670.124375 172.393651 
L 680.93149 174.262903 
L 692.356154 176.013953 
L 704.707142 177.677456 
L 717.675679 179.199468 
L 731.879316 180.637579 
L 747.009276 181.943676 
L 763.68311 183.154631 
L 781.900818 184.24923 
L 801.971173 185.228712 
L 810.92564 185.60128 
L 810.92564 185.60128 
" clip-path="url(#p9adb70d2a3)" style="fill: none; stroke: #ff0000; stroke-width: 2; stroke-linecap: square"/>
   </g>
   <g id="patch_9">
    <path d="M 486.712201 320.243478 
L 486.712201 79.2 
" style="fill: none; stroke: #000000; stroke-width: 0.8; stroke-linejoin: miter; stroke-linecap: square"/>
   </g>
   <g id="patch_10">
    <path d="M 826.364375 320.243478 
L 826.364375 79.2 
" style="fill: none; stroke: #000000; stroke-width: 0.8; stroke-linejoin: miter; stroke-linecap: square"/>
   </g>
   <g id="patch_11">
    <path d="M 486.712201 320.243478 
L 826.364375 320.243478 
" style="fill: none; stroke: #000000; stroke-width: 0.8; stroke-linejoin: miter; stroke-linecap: square"/>
   </g>
   <g id="patch_12">
    <path d="M 486.712201 79.2 
L 826.364375 79.2 
" style="fill: none; stroke: #000000; stroke-width: 0.8; stroke-linejoin: miter; stroke-linecap: square"/>
   </g>
   <g id="legend_2">
    <g id="patch_13">
     <path d="M 495.812201 313.743478 
L 573.694389 313.743478 
Q 576.294389 313.743478 576.294389 311.143478 
L 576.294389 217.035666 
Q 576.294389 214.435666 573.694389 214.435666 
L 495.812201 214.435666 
Q 493.212201 214.435666 493.212201 217.035666 
L 493.212201 311.143478 
Q 493.212201 313.743478 495.812201 313.743478 
z
" style="fill: #ffffff; opacity: 0.8; stroke: #cccccc; stroke-linejoin: miter"/>
    </g>
    <g id="line2d_45">
     <path d="M 498.412201 224.963635 
L 524.412201 224.963635 
" style="fill: none; stroke: #0000ff; stroke-width: 2; stroke-linecap: square"/>
    </g>
    <g id="line2d_46"/>
    <g id="text_34">
     <!-- 5 mM -->
     <g transform="translate(534.812201 229.513635) scale(0.13 -0.13)">
      <use xlink:href="#DejaVuSans-35"/>
      <use xlink:href="#DejaVuSans-20" transform="translate(63.623047 0)"/>
      <use xlink:href="#DejaVuSans-6d" transform="translate(95.410156 0)"/>
      <use xlink:href="#DejaVuSans-4d" transform="translate(192.822266 0)"/>
     </g>
    </g>
    <g id="line2d_47">
     <path d="M 498.412201 244.045197 
L 524.412201 244.045197 
" style="fill: none; stroke: #1f77b4; stroke-width: 2; stroke-linecap: square"/>
    </g>
    <g id="line2d_48"/>
    <g id="text_35">
     <!-- 6 mM -->
     <g transform="translate(534.812201 248.595197) scale(0.13 -0.13)">
      <use xlink:href="#DejaVuSans-36"/>
      <use xlink:href="#DejaVuSans-20" transform="translate(63.623047 0)"/>
      <use xlink:href="#DejaVuSans-6d" transform="translate(95.410156 0)"/>
      <use xlink:href="#DejaVuSans-4d" transform="translate(192.822266 0)"/>
     </g>
    </g>
    <g id="line2d_49">
     <path d="M 498.412201 263.12676 
L 524.412201 263.12676 
" style="fill: none; stroke: #000000; stroke-width: 2; stroke-linecap: square"/>
    </g>
    <g id="line2d_50"/>
    <g id="text_36">
     <!-- 7 mM -->
     <g transform="translate(534.812201 267.67676) scale(0.13 -0.13)">
      <use xlink:href="#DejaVuSans-37"/>
      <use xlink:href="#DejaVuSans-20" transform="translate(63.623047 0)"/>
      <use xlink:href="#DejaVuSans-6d" transform="translate(95.410156 0)"/>
      <use xlink:href="#DejaVuSans-4d" transform="translate(192.822266 0)"/>
     </g>
    </g>
    <g id="line2d_51">
     <path d="M 498.412201 282.208322 
L 524.412201 282.208322 
" style="fill: none; stroke: #d62728; stroke-width: 2; stroke-linecap: square"/>
    </g>
    <g id="line2d_52"/>
    <g id="text_37">
     <!-- 8 mM -->
     <g transform="translate(534.812201 286.758322) scale(0.13 -0.13)">
      <use xlink:href="#DejaVuSans-38"/>
      <use xlink:href="#DejaVuSans-20" transform="translate(63.623047 0)"/>
      <use xlink:href="#DejaVuSans-6d" transform="translate(95.410156 0)"/>
      <use xlink:href="#DejaVuSans-4d" transform="translate(192.822266 0)"/>
     </g>
    </g>
    <g id="line2d_53">
     <path d="M 498.412201 301.289885 
L 524.412201 301.289885 
" style="fill: none; stroke: #ff0000; stroke-width: 2; stroke-linecap: square"/>
    </g>
    <g id="line2d_54"/>
    <g id="text_38">
     <!-- 9 mM -->
     <g transform="translate(534.812201 305.839885) scale(0.13 -0.13)">
      <use xlink:href="#DejaVuSans-39"/>
      <use xlink:href="#DejaVuSans-20" transform="translate(63.623047 0)"/>
      <use xlink:href="#DejaVuSans-6d" transform="translate(95.410156 0)"/>
      <use xlink:href="#DejaVuSans-4d" transform="translate(192.822266 0)"/>
     </g>
    </g>
   </g>
  </g>
  <g id="axes_3">
   <g id="patch_14">
    <path d="M 45.164375 633.6 
L 384.816549 633.6 
L 384.816549 392.556522 
L 45.164375 392.556522 
z
" style="fill: #ffffff"/>
   </g>
   <g id="matplotlib.axis_5">
    <g id="xtick_15">
     <g id="line2d_55">
      <g>
       <use xlink:href="#mb36a63d94f" x="60.60311" y="633.6" style="stroke: #000000; stroke-width: 0.8"/>
      </g>
     </g>
     <g id="text_39">
      <!-- 0 -->
      <g transform="translate(55.831235 651.997656) scale(0.15 -0.15)">
       <use xlink:href="#DejaVuSans-30"/>
      </g>
     </g>
    </g>
    <g id="xtick_16">
     <g id="line2d_56">
      <g>
       <use xlink:href="#mb36a63d94f" x="114.307853" y="633.6" style="stroke: #000000; stroke-width: 0.8"/>
      </g>
     </g>
     <g id="text_40">
      <!-- 2 -->
      <g transform="translate(109.535978 651.997656) scale(0.15 -0.15)">
       <use xlink:href="#DejaVuSans-32"/>
      </g>
     </g>
    </g>
    <g id="xtick_17">
     <g id="line2d_57">
      <g>
       <use xlink:href="#mb36a63d94f" x="168.012596" y="633.6" style="stroke: #000000; stroke-width: 0.8"/>
      </g>
     </g>
     <g id="text_41">
      <!-- 4 -->
      <g transform="translate(163.240721 651.997656) scale(0.15 -0.15)">
       <use xlink:href="#DejaVuSans-34"/>
      </g>
     </g>
    </g>
    <g id="xtick_18">
     <g id="line2d_58">
      <g>
       <use xlink:href="#mb36a63d94f" x="221.717339" y="633.6" style="stroke: #000000; stroke-width: 0.8"/>
      </g>
     </g>
     <g id="text_42">
      <!-- 6 -->
      <g transform="translate(216.945464 651.997656) scale(0.15 -0.15)">
       <use xlink:href="#DejaVuSans-36"/>
      </g>
     </g>
    </g>
    <g id="xtick_19">
     <g id="line2d_59">
      <g>
       <use xlink:href="#mb36a63d94f" x="275.422083" y="633.6" style="stroke: #000000; stroke-width: 0.8"/>
      </g>
     </g>
     <g id="text_43">
      <!-- 8 -->
      <g transform="translate(270.650208 651.997656) scale(0.15 -0.15)">
       <use xlink:href="#DejaVuSans-38"/>
      </g>
     </g>
    </g>
    <g id="xtick_20">
     <g id="line2d_60">
      <g>
       <use xlink:href="#mb36a63d94f" x="329.126826" y="633.6" style="stroke: #000000; stroke-width: 0.8"/>
      </g>
     </g>
     <g id="text_44">
      <!-- 10 -->
      <g transform="translate(319.583076 651.997656) scale(0.15 -0.15)">
       <use xlink:href="#DejaVuSans-31"/>
       <use xlink:href="#DejaVuSans-30" transform="translate(63.623047 0)"/>
      </g>
     </g>
    </g>
    <g id="xtick_21">
     <g id="line2d_61">
      <g>
       <use xlink:href="#mb36a63d94f" x="382.831569" y="633.6" style="stroke: #000000; stroke-width: 0.8"/>
      </g>
     </g>
     <g id="text_45">
      <!-- 12 -->
      <g transform="translate(373.287819 651.997656) scale(0.15 -0.15)">
       <use xlink:href="#DejaVuSans-31"/>
       <use xlink:href="#DejaVuSans-32" transform="translate(63.623047 0)"/>
      </g>
     </g>
    </g>
    <g id="text_46">
     <!-- time [month] -->
     <g transform="translate(148.083899 672.794375) scale(0.18 -0.18)">
      <use xlink:href="#DejaVuSans-Bold-74"/>
      <use xlink:href="#DejaVuSans-Bold-69" transform="translate(47.802734 0)"/>
      <use xlink:href="#DejaVuSans-Bold-6d" transform="translate(82.080078 0)"/>
      <use xlink:href="#DejaVuSans-Bold-65" transform="translate(186.279297 0)"/>
      <use xlink:href="#DejaVuSans-Bold-20" transform="translate(254.101562 0)"/>
      <use xlink:href="#DejaVuSans-Bold-5b" transform="translate(288.916016 0)"/>
      <use xlink:href="#DejaVuSans-Bold-6d" transform="translate(334.619141 0)"/>
      <use xlink:href="#DejaVuSans-Bold-6f" transform="translate(438.818359 0)"/>
      <use xlink:href="#DejaVuSans-Bold-6e" transform="translate(507.519531 0)"/>
      <use xlink:href="#DejaVuSans-Bold-74" transform="translate(578.710938 0)"/>
      <use xlink:href="#DejaVuSans-Bold-68" transform="translate(626.513672 0)"/>
      <use xlink:href="#DejaVuSans-Bold-5d" transform="translate(697.705078 0)"/>
     </g>
    </g>
   </g>
   <g id="matplotlib.axis_6">
    <g id="ytick_11">
     <g id="line2d_62">
      <g>
       <use xlink:href="#m2b2283e00f" x="45.164375" y="633.6" style="stroke: #000000; stroke-width: 0.8"/>
      </g>
     </g>
     <g id="text_47">
      <!-- 0 -->
      <g transform="translate(28.620625 639.298828) scale(0.15 -0.15)">
       <use xlink:href="#DejaVuSans-30"/>
      </g>
     </g>
    </g>
    <g id="ytick_12">
     <g id="line2d_63">
      <g>
       <use xlink:href="#m2b2283e00f" x="45.164375" y="576.480692" style="stroke: #000000; stroke-width: 0.8"/>
      </g>
     </g>
     <g id="text_48">
      <!-- 2 -->
      <g transform="translate(28.620625 582.17952) scale(0.15 -0.15)">
       <use xlink:href="#DejaVuSans-32"/>
      </g>
     </g>
    </g>
    <g id="ytick_13">
     <g id="line2d_64">
      <g>
       <use xlink:href="#m2b2283e00f" x="45.164375" y="519.361385" style="stroke: #000000; stroke-width: 0.8"/>
      </g>
     </g>
     <g id="text_49">
      <!-- 4 -->
      <g transform="translate(28.620625 525.060213) scale(0.15 -0.15)">
       <use xlink:href="#DejaVuSans-34"/>
      </g>
     </g>
    </g>
    <g id="ytick_14">
     <g id="line2d_65">
      <g>
       <use xlink:href="#m2b2283e00f" x="45.164375" y="462.242077" style="stroke: #000000; stroke-width: 0.8"/>
      </g>
     </g>
     <g id="text_50">
      <!-- 6 -->
      <g transform="translate(28.620625 467.940905) scale(0.15 -0.15)">
       <use xlink:href="#DejaVuSans-36"/>
      </g>
     </g>
    </g>
    <g id="ytick_15">
     <g id="line2d_66">
      <g>
       <use xlink:href="#m2b2283e00f" x="45.164375" y="405.122769" style="stroke: #000000; stroke-width: 0.8"/>
      </g>
     </g>
     <g id="text_51">
      <!-- 8 -->
      <g transform="translate(28.620625 410.821598) scale(0.15 -0.15)">
       <use xlink:href="#DejaVuSans-38"/>
      </g>
     </g>
    </g>
    <g id="text_52">
     <!-- initial HbA1c [percent] -->
     <g transform="translate(20.877188 628.364042) rotate(-90) scale(0.18 -0.18)">
      <defs>
       <path id="DejaVuSans-Bold-48" d="M 588 4666 
L 1791 4666 
L 1791 2888 
L 3566 2888 
L 3566 4666 
L 4769 4666 
L 4769 0 
L 3566 0 
L 3566 1978 
L 1791 1978 
L 1791 0 
L 588 0 
L 588 4666 
z
" transform="scale(0.015625)"/>
       <path id="DejaVuSans-Bold-62" d="M 2400 722 
Q 2759 722 2948 984 
Q 3138 1247 3138 1747 
Q 3138 2247 2948 2509 
Q 2759 2772 2400 2772 
Q 2041 2772 1848 2508 
Q 1656 2244 1656 1747 
Q 1656 1250 1848 986 
Q 2041 722 2400 722 
z
M 1656 2988 
Q 1888 3294 2169 3439 
Q 2450 3584 2816 3584 
Q 3463 3584 3878 3070 
Q 4294 2556 4294 1747 
Q 4294 938 3878 423 
Q 3463 -91 2816 -91 
Q 2450 -91 2169 54 
Q 1888 200 1656 506 
L 1656 0 
L 538 0 
L 538 4863 
L 1656 4863 
L 1656 2988 
z
" transform="scale(0.015625)"/>
       <path id="DejaVuSans-Bold-41" d="M 3419 850 
L 1538 850 
L 1241 0 
L 31 0 
L 1759 4666 
L 3194 4666 
L 4922 0 
L 3713 0 
L 3419 850 
z
M 1838 1716 
L 3116 1716 
L 2478 3572 
L 1838 1716 
z
" transform="scale(0.015625)"/>
       <path id="DejaVuSans-Bold-31" d="M 750 831 
L 1813 831 
L 1813 3847 
L 722 3622 
L 722 4441 
L 1806 4666 
L 2950 4666 
L 2950 831 
L 4013 831 
L 4013 0 
L 750 0 
L 750 831 
z
" transform="scale(0.015625)"/>
       <path id="DejaVuSans-Bold-63" d="M 3366 3391 
L 3366 2478 
Q 3138 2634 2908 2709 
Q 2678 2784 2431 2784 
Q 1963 2784 1702 2511 
Q 1441 2238 1441 1747 
Q 1441 1256 1702 982 
Q 1963 709 2431 709 
Q 2694 709 2930 787 
Q 3166 866 3366 1019 
L 3366 103 
Q 3103 6 2833 -42 
Q 2563 -91 2291 -91 
Q 1344 -91 809 395 
Q 275 881 275 1747 
Q 275 2613 809 3098 
Q 1344 3584 2291 3584 
Q 2566 3584 2833 3536 
Q 3100 3488 3366 3391 
z
" transform="scale(0.015625)"/>
       <path id="DejaVuSans-Bold-70" d="M 1656 506 
L 1656 -1331 
L 538 -1331 
L 538 3500 
L 1656 3500 
L 1656 2988 
Q 1888 3294 2169 3439 
Q 2450 3584 2816 3584 
Q 3463 3584 3878 3070 
Q 4294 2556 4294 1747 
Q 4294 938 3878 423 
Q 3463 -91 2816 -91 
Q 2450 -91 2169 54 
Q 1888 200 1656 506 
z
M 2400 2772 
Q 2041 2772 1848 2508 
Q 1656 2244 1656 1747 
Q 1656 1250 1848 986 
Q 2041 722 2400 722 
Q 2759 722 2948 984 
Q 3138 1247 3138 1747 
Q 3138 2247 2948 2509 
Q 2759 2772 2400 2772 
z
" transform="scale(0.015625)"/>
       <path id="DejaVuSans-Bold-72" d="M 3138 2547 
Q 2991 2616 2845 2648 
Q 2700 2681 2553 2681 
Q 2122 2681 1889 2404 
Q 1656 2128 1656 1613 
L 1656 0 
L 538 0 
L 538 3500 
L 1656 3500 
L 1656 2925 
Q 1872 3269 2151 3426 
Q 2431 3584 2822 3584 
Q 2878 3584 2943 3579 
Q 3009 3575 3134 3559 
L 3138 2547 
z
" transform="scale(0.015625)"/>
      </defs>
      <use xlink:href="#DejaVuSans-Bold-69"/>
      <use xlink:href="#DejaVuSans-Bold-6e" transform="translate(34.277344 0)"/>
      <use xlink:href="#DejaVuSans-Bold-69" transform="translate(105.46875 0)"/>
      <use xlink:href="#DejaVuSans-Bold-74" transform="translate(139.746094 0)"/>
      <use xlink:href="#DejaVuSans-Bold-69" transform="translate(187.548828 0)"/>
      <use xlink:href="#DejaVuSans-Bold-61" transform="translate(221.826172 0)"/>
      <use xlink:href="#DejaVuSans-Bold-6c" transform="translate(289.306641 0)"/>
      <use xlink:href="#DejaVuSans-Bold-20" transform="translate(323.583984 0)"/>
      <use xlink:href="#DejaVuSans-Bold-48" transform="translate(358.398438 0)"/>
      <use xlink:href="#DejaVuSans-Bold-62" transform="translate(442.089844 0)"/>
      <use xlink:href="#DejaVuSans-Bold-41" transform="translate(513.671875 0)"/>
      <use xlink:href="#DejaVuSans-Bold-31" transform="translate(591.064453 0)"/>
      <use xlink:href="#DejaVuSans-Bold-63" transform="translate(660.644531 0)"/>
      <use xlink:href="#DejaVuSans-Bold-20" transform="translate(719.921875 0)"/>
      <use xlink:href="#DejaVuSans-Bold-5b" transform="translate(754.736328 0)"/>
      <use xlink:href="#DejaVuSans-Bold-70" transform="translate(800.439453 0)"/>
      <use xlink:href="#DejaVuSans-Bold-65" transform="translate(872.021484 0)"/>
      <use xlink:href="#DejaVuSans-Bold-72" transform="translate(939.84375 0)"/>
      <use xlink:href="#DejaVuSans-Bold-63" transform="translate(989.160156 0)"/>
      <use xlink:href="#DejaVuSans-Bold-65" transform="translate(1048.4375 0)"/>
      <use xlink:href="#DejaVuSans-Bold-6e" transform="translate(1116.259766 0)"/>
      <use xlink:href="#DejaVuSans-Bold-74" transform="translate(1187.451172 0)"/>
      <use xlink:href="#DejaVuSans-Bold-5d" transform="translate(1235.253906 0)"/>
     </g>
    </g>
   </g>
   <g id="line2d_67">
    <path d="M 60.60311 405.122769 
L 369.377814 405.122769 
L 369.377814 405.122769 
" clip-path="url(#p3280eedf99)" style="fill: none; stroke: #0000ff; stroke-width: 2; stroke-linecap: square"/>
   </g>
   <g id="line2d_68">
    <path d="M 60.60311 405.122769 
L 369.377814 405.122769 
L 369.377814 405.122769 
" clip-path="url(#p3280eedf99)" style="fill: none; stroke: #1f77b4; stroke-width: 2; stroke-linecap: square"/>
   </g>
   <g id="line2d_69">
    <path d="M 60.60311 405.122769 
L 369.377814 405.122769 
L 369.377814 405.122769 
" clip-path="url(#p3280eedf99)" style="fill: none; stroke: #000000; stroke-width: 2; stroke-linecap: square"/>
   </g>
   <g id="line2d_70">
    <path d="M 60.60311 405.122769 
L 369.377814 405.122769 
L 369.377814 405.122769 
" clip-path="url(#p3280eedf99)" style="fill: none; stroke: #d62728; stroke-width: 2; stroke-linecap: square"/>
   </g>
   <g id="line2d_71">
    <path d="M 60.60311 405.122769 
L 369.377814 405.122769 
L 369.377814 405.122769 
" clip-path="url(#p3280eedf99)" style="fill: none; stroke: #ff0000; stroke-width: 2; stroke-linecap: square"/>
   </g>
   <g id="patch_15">
    <path d="M 45.164375 633.6 
L 45.164375 392.556522 
" style="fill: none; stroke: #000000; stroke-width: 0.8; stroke-linejoin: miter; stroke-linecap: square"/>
   </g>
   <g id="patch_16">
    <path d="M 384.816549 633.6 
L 384.816549 392.556522 
" style="fill: none; stroke: #000000; stroke-width: 0.8; stroke-linejoin: miter; stroke-linecap: square"/>
   </g>
   <g id="patch_17">
    <path d="M 45.164375 633.6 
L 384.816549 633.6 
" style="fill: none; stroke: #000000; stroke-width: 0.8; stroke-linejoin: miter; stroke-linecap: square"/>
   </g>
   <g id="patch_18">
    <path d="M 45.164375 392.556522 
L 384.816549 392.556522 
" style="fill: none; stroke: #000000; stroke-width: 0.8; stroke-linejoin: miter; stroke-linecap: square"/>
   </g>
   <g id="legend_3">
    <g id="patch_19">
     <path d="M 54.264375 627.1 
L 132.146563 627.1 
Q 134.746563 627.1 134.746563 624.5 
L 134.746563 530.392187 
Q 134.746563 527.792187 132.146563 527.792187 
L 54.264375 527.792187 
Q 51.664375 527.792187 51.664375 530.392187 
L 51.664375 624.5 
Q 51.664375 627.1 54.264375 627.1 
z
" style="fill: #ffffff; opacity: 0.8; stroke: #cccccc; stroke-linejoin: miter"/>
    </g>
    <g id="line2d_72">
     <path d="M 56.864375 538.320156 
L 82.864375 538.320156 
" style="fill: none; stroke: #0000ff; stroke-width: 2; stroke-linecap: square"/>
    </g>
    <g id="line2d_73"/>
    <g id="text_53">
     <!-- 5 mM -->
     <g transform="translate(93.264375 542.870156) scale(0.13 -0.13)">
      <use xlink:href="#DejaVuSans-35"/>
      <use xlink:href="#DejaVuSans-20" transform="translate(63.623047 0)"/>
      <use xlink:href="#DejaVuSans-6d" transform="translate(95.410156 0)"/>
      <use xlink:href="#DejaVuSans-4d" transform="translate(192.822266 0)"/>
     </g>
    </g>
    <g id="line2d_74">
     <path d="M 56.864375 557.401719 
L 82.864375 557.401719 
" style="fill: none; stroke: #1f77b4; stroke-width: 2; stroke-linecap: square"/>
    </g>
    <g id="line2d_75"/>
    <g id="text_54">
     <!-- 6 mM -->
     <g transform="translate(93.264375 561.951719) scale(0.13 -0.13)">
      <use xlink:href="#DejaVuSans-36"/>
      <use xlink:href="#DejaVuSans-20" transform="translate(63.623047 0)"/>
      <use xlink:href="#DejaVuSans-6d" transform="translate(95.410156 0)"/>
      <use xlink:href="#DejaVuSans-4d" transform="translate(192.822266 0)"/>
     </g>
    </g>
    <g id="line2d_76">
     <path d="M 56.864375 576.483281 
L 82.864375 576.483281 
" style="fill: none; stroke: #000000; stroke-width: 2; stroke-linecap: square"/>
    </g>
    <g id="line2d_77"/>
    <g id="text_55">
     <!-- 7 mM -->
     <g transform="translate(93.264375 581.033281) scale(0.13 -0.13)">
      <use xlink:href="#DejaVuSans-37"/>
      <use xlink:href="#DejaVuSans-20" transform="translate(63.623047 0)"/>
      <use xlink:href="#DejaVuSans-6d" transform="translate(95.410156 0)"/>
      <use xlink:href="#DejaVuSans-4d" transform="translate(192.822266 0)"/>
     </g>
    </g>
    <g id="line2d_78">
     <path d="M 56.864375 595.564844 
L 82.864375 595.564844 
" style="fill: none; stroke: #d62728; stroke-width: 2; stroke-linecap: square"/>
    </g>
    <g id="line2d_79"/>
    <g id="text_56">
     <!-- 8 mM -->
     <g transform="translate(93.264375 600.114844) scale(0.13 -0.13)">
      <use xlink:href="#DejaVuSans-38"/>
      <use xlink:href="#DejaVuSans-20" transform="translate(63.623047 0)"/>
      <use xlink:href="#DejaVuSans-6d" transform="translate(95.410156 0)"/>
      <use xlink:href="#DejaVuSans-4d" transform="translate(192.822266 0)"/>
     </g>
    </g>
    <g id="line2d_80">
     <path d="M 56.864375 614.646406 
L 82.864375 614.646406 
" style="fill: none; stroke: #ff0000; stroke-width: 2; stroke-linecap: square"/>
    </g>
    <g id="line2d_81"/>
    <g id="text_57">
     <!-- 9 mM -->
     <g transform="translate(93.264375 619.196406) scale(0.13 -0.13)">
      <use xlink:href="#DejaVuSans-39"/>
      <use xlink:href="#DejaVuSans-20" transform="translate(63.623047 0)"/>
      <use xlink:href="#DejaVuSans-6d" transform="translate(95.410156 0)"/>
      <use xlink:href="#DejaVuSans-4d" transform="translate(192.822266 0)"/>
     </g>
    </g>
   </g>
  </g>
  <g id="axes_4">
   <g id="patch_20">
    <path d="M 486.712201 633.6 
L 826.364375 633.6 
L 826.364375 392.556522 
L 486.712201 392.556522 
z
" style="fill: #ffffff"/>
   </g>
   <g id="matplotlib.axis_7">
    <g id="xtick_22">
     <g id="line2d_82">
      <g>
       <use xlink:href="#mb36a63d94f" x="502.150936" y="633.6" style="stroke: #000000; stroke-width: 0.8"/>
      </g>
     </g>
     <g id="text_58">
      <!-- 0 -->
      <g transform="translate(497.379061 651.997656) scale(0.15 -0.15)">
       <use xlink:href="#DejaVuSans-30"/>
      </g>
     </g>
    </g>
    <g id="xtick_23">
     <g id="line2d_83">
      <g>
       <use xlink:href="#mb36a63d94f" x="555.855679" y="633.6" style="stroke: #000000; stroke-width: 0.8"/>
      </g>
     </g>
     <g id="text_59">
      <!-- 2 -->
      <g transform="translate(551.083804 651.997656) scale(0.15 -0.15)">
       <use xlink:href="#DejaVuSans-32"/>
      </g>
     </g>
    </g>
    <g id="xtick_24">
     <g id="line2d_84">
      <g>
       <use xlink:href="#mb36a63d94f" x="609.560422" y="633.6" style="stroke: #000000; stroke-width: 0.8"/>
      </g>
     </g>
     <g id="text_60">
      <!-- 4 -->
      <g transform="translate(604.788547 651.997656) scale(0.15 -0.15)">
       <use xlink:href="#DejaVuSans-34"/>
      </g>
     </g>
    </g>
    <g id="xtick_25">
     <g id="line2d_85">
      <g>
       <use xlink:href="#mb36a63d94f" x="663.265166" y="633.6" style="stroke: #000000; stroke-width: 0.8"/>
      </g>
     </g>
     <g id="text_61">
      <!-- 6 -->
      <g transform="translate(658.493291 651.997656) scale(0.15 -0.15)">
       <use xlink:href="#DejaVuSans-36"/>
      </g>
     </g>
    </g>
    <g id="xtick_26">
     <g id="line2d_86">
      <g>
       <use xlink:href="#mb36a63d94f" x="716.969909" y="633.6" style="stroke: #000000; stroke-width: 0.8"/>
      </g>
     </g>
     <g id="text_62">
      <!-- 8 -->
      <g transform="translate(712.198034 651.997656) scale(0.15 -0.15)">
       <use xlink:href="#DejaVuSans-38"/>
      </g>
     </g>
    </g>
    <g id="xtick_27">
     <g id="line2d_87">
      <g>
       <use xlink:href="#mb36a63d94f" x="770.674652" y="633.6" style="stroke: #000000; stroke-width: 0.8"/>
      </g>
     </g>
     <g id="text_63">
      <!-- 10 -->
      <g transform="translate(761.130902 651.997656) scale(0.15 -0.15)">
       <use xlink:href="#DejaVuSans-31"/>
       <use xlink:href="#DejaVuSans-30" transform="translate(63.623047 0)"/>
      </g>
     </g>
    </g>
    <g id="xtick_28">
     <g id="line2d_88">
      <g>
       <use xlink:href="#mb36a63d94f" x="824.379395" y="633.6" style="stroke: #000000; stroke-width: 0.8"/>
      </g>
     </g>
     <g id="text_64">
      <!-- 12 -->
      <g transform="translate(814.835645 651.997656) scale(0.15 -0.15)">
       <use xlink:href="#DejaVuSans-31"/>
       <use xlink:href="#DejaVuSans-32" transform="translate(63.623047 0)"/>
      </g>
     </g>
    </g>
    <g id="text_65">
     <!-- time [month] -->
     <g transform="translate(589.631726 672.794375) scale(0.18 -0.18)">
      <use xlink:href="#DejaVuSans-Bold-74"/>
      <use xlink:href="#DejaVuSans-Bold-69" transform="translate(47.802734 0)"/>
      <use xlink:href="#DejaVuSans-Bold-6d" transform="translate(82.080078 0)"/>
      <use xlink:href="#DejaVuSans-Bold-65" transform="translate(186.279297 0)"/>
      <use xlink:href="#DejaVuSans-Bold-20" transform="translate(254.101562 0)"/>
      <use xlink:href="#DejaVuSans-Bold-5b" transform="translate(288.916016 0)"/>
      <use xlink:href="#DejaVuSans-Bold-6d" transform="translate(334.619141 0)"/>
      <use xlink:href="#DejaVuSans-Bold-6f" transform="translate(438.818359 0)"/>
      <use xlink:href="#DejaVuSans-Bold-6e" transform="translate(507.519531 0)"/>
      <use xlink:href="#DejaVuSans-Bold-74" transform="translate(578.710938 0)"/>
      <use xlink:href="#DejaVuSans-Bold-68" transform="translate(626.513672 0)"/>
      <use xlink:href="#DejaVuSans-Bold-5d" transform="translate(697.705078 0)"/>
     </g>
    </g>
   </g>
   <g id="matplotlib.axis_8">
    <g id="ytick_16">
     <g id="line2d_89">
      <g>
       <use xlink:href="#m2b2283e00f" x="486.712201" y="633.6" style="stroke: #000000; stroke-width: 0.8"/>
      </g>
     </g>
     <g id="text_66">
      <!-- 0 -->
      <g transform="translate(470.168451 639.298828) scale(0.15 -0.15)">
       <use xlink:href="#DejaVuSans-30"/>
      </g>
     </g>
    </g>
    <g id="ytick_17">
     <g id="line2d_90">
      <g>
       <use xlink:href="#m2b2283e00f" x="486.712201" y="574.678065" style="stroke: #000000; stroke-width: 0.8"/>
      </g>
     </g>
     <g id="text_67">
      <!-- 2 -->
      <g transform="translate(470.168451 580.376893) scale(0.15 -0.15)">
       <use xlink:href="#DejaVuSans-32"/>
      </g>
     </g>
    </g>
    <g id="ytick_18">
     <g id="line2d_91">
      <g>
       <use xlink:href="#m2b2283e00f" x="486.712201" y="515.756129" style="stroke: #000000; stroke-width: 0.8"/>
      </g>
     </g>
     <g id="text_68">
      <!-- 4 -->
      <g transform="translate(470.168451 521.454957) scale(0.15 -0.15)">
       <use xlink:href="#DejaVuSans-34"/>
      </g>
     </g>
    </g>
    <g id="ytick_19">
     <g id="line2d_92">
      <g>
       <use xlink:href="#m2b2283e00f" x="486.712201" y="456.834194" style="stroke: #000000; stroke-width: 0.8"/>
      </g>
     </g>
     <g id="text_69">
      <!-- 6 -->
      <g transform="translate(470.168451 462.533022) scale(0.15 -0.15)">
       <use xlink:href="#DejaVuSans-36"/>
      </g>
     </g>
    </g>
    <g id="ytick_20">
     <g id="line2d_93">
      <g>
       <use xlink:href="#m2b2283e00f" x="486.712201" y="397.912258" style="stroke: #000000; stroke-width: 0.8"/>
      </g>
     </g>
     <g id="text_70">
      <!-- 8 -->
      <g transform="translate(470.168451 403.611086) scale(0.15 -0.15)">
       <use xlink:href="#DejaVuSans-38"/>
      </g>
     </g>
    </g>
    <g id="text_71">
     <!-- HbA1c [percent] -->
     <g transform="translate(462.425014 596.10748) rotate(-90) scale(0.18 -0.18)">
      <use xlink:href="#DejaVuSans-Bold-48"/>
      <use xlink:href="#DejaVuSans-Bold-62" transform="translate(83.691406 0)"/>
      <use xlink:href="#DejaVuSans-Bold-41" transform="translate(155.273438 0)"/>
      <use xlink:href="#DejaVuSans-Bold-31" transform="translate(232.666016 0)"/>
      <use xlink:href="#DejaVuSans-Bold-63" transform="translate(302.246094 0)"/>
      <use xlink:href="#DejaVuSans-Bold-20" transform="translate(361.523438 0)"/>
      <use xlink:href="#DejaVuSans-Bold-5b" transform="translate(396.337891 0)"/>
      <use xlink:href="#DejaVuSans-Bold-70" transform="translate(442.041016 0)"/>
      <use xlink:href="#DejaVuSans-Bold-65" transform="translate(513.623047 0)"/>
      <use xlink:href="#DejaVuSans-Bold-72" transform="translate(581.445312 0)"/>
      <use xlink:href="#DejaVuSans-Bold-63" transform="translate(630.761719 0)"/>
      <use xlink:href="#DejaVuSans-Bold-65" transform="translate(690.039062 0)"/>
      <use xlink:href="#DejaVuSans-Bold-6e" transform="translate(757.861328 0)"/>
      <use xlink:href="#DejaVuSans-Bold-74" transform="translate(829.052734 0)"/>
      <use xlink:href="#DejaVuSans-Bold-5d" transform="translate(876.855469 0)"/>
     </g>
    </g>
   </g>
   <g id="line2d_94">
    <path d="M 502.150936 397.912258 
L 508.635205 403.181157 
L 515.119474 408.159001 
L 521.603743 412.861874 
L 528.396786 417.510309 
L 535.18983 421.890106 
L 542.291648 426.198595 
L 549.393466 430.247128 
L 556.804059 434.211484 
L 564.214652 437.926587 
L 571.934019 441.548325 
L 579.962162 445.063875 
L 587.990304 448.340618 
L 596.327221 451.50801 
L 604.972913 454.557243 
L 613.927379 457.481065 
L 623.19062 460.273738 
L 632.762636 462.930988 
L 642.952201 465.525188 
L 653.450541 467.966466 
L 664.56643 470.317926 
L 675.991094 472.507517 
L 688.033308 474.590094 
L 700.693071 476.555026 
L 714.279158 478.434862 
L 728.482794 480.174996 
L 743.612754 481.805256 
L 759.977814 483.341562 
L 777.577972 484.765612 
L 796.413229 486.064989 
L 810.92564 486.929699 
L 810.92564 486.929699 
" clip-path="url(#p59f8eaa88b)" style="fill: none; stroke: #0000ff; stroke-width: 2; stroke-linecap: square"/>
   </g>
   <g id="line2d_95">
    <path d="M 502.150936 397.912258 
L 512.340501 403.812978 
L 522.530067 409.454941 
L 532.410857 414.674333 
L 542.291648 419.644696 
L 552.172438 424.36721 
L 562.053229 428.845039 
L 571.934019 433.082937 
L 582.123584 437.208343 
L 592.31315 441.092659 
L 602.81149 444.851502 
L 613.30983 448.373388 
L 624.116944 451.762299 
L 635.232833 455.009774 
L 646.657498 458.108958 
L 658.390936 461.054599 
L 670.43315 463.843013 
L 682.784138 466.472027 
L 695.443901 468.94091 
L 708.721213 471.302693 
L 722.616075 473.54452 
L 737.128486 475.65624 
L 752.258446 477.630412 
L 768.314731 479.49604 
L 784.988565 481.209108 
L 802.897498 482.822631 
L 810.92564 483.477102 
L 810.92564 483.477102 
" clip-path="url(#p59f8eaa88b)" style="fill: none; stroke: #1f77b4; stroke-width: 2; stroke-linecap: square"/>
   </g>
   <g id="line2d_96">
    <path d="M 502.150936 397.912258 
L 512.340501 401.567591 
L 525.309039 406.472154 
L 546.614494 414.809354 
L 571.625245 424.532165 
L 587.681529 430.531458 
L 601.885166 435.604782 
L 615.162478 440.117372 
L 628.131015 444.293671 
L 640.790778 448.141459 
L 653.450541 451.75977 
L 666.110304 455.149406 
L 679.078841 458.388616 
L 692.047379 461.398464 
L 705.324691 464.251166 
L 718.910778 466.9414 
L 732.80564 469.466017 
L 747.318051 471.872746 
L 762.139237 474.104313 
L 777.577972 476.203668 
L 793.634256 478.163002 
L 810.616865 480.008926 
L 810.92564 480.040473 
L 810.92564 480.040473 
" clip-path="url(#p59f8eaa88b)" style="fill: none; stroke: #000000; stroke-width: 2; stroke-linecap: square"/>
   </g>
   <g id="line2d_97">
    <path d="M 502.150936 397.912258 
L 507.708881 398.595922 
L 513.5756 399.540506 
L 520.059869 400.816418 
L 527.161687 402.452555 
L 534.881055 404.466889 
L 543.526747 406.958149 
L 553.716312 410.138203 
L 566.0673 414.238641 
L 583.976233 420.443704 
L 619.176549 432.669753 
L 635.541608 438.092839 
L 650.362794 442.773297 
L 664.257656 446.932578 
L 677.843743 450.770187 
L 691.42983 454.37379 
L 704.707142 457.667664 
L 718.293229 460.807325 
L 731.879316 463.718976 
L 745.774177 466.469103 
L 759.977814 469.052843 
L 774.490225 471.46771 
L 789.620185 473.757902 
L 805.367695 475.912006 
L 810.92564 476.61971 
L 810.92564 476.61971 
" clip-path="url(#p59f8eaa88b)" style="fill: none; stroke: #d62728; stroke-width: 2; stroke-linecap: square"/>
   </g>
   <g id="line2d_98">
    <path d="M 502.150936 397.912258 
L 506.473782 397.4151 
L 510.796628 397.133938 
L 515.428249 397.051921 
L 520.368644 397.191722 
L 525.617814 397.572012 
L 531.175758 398.207116 
L 537.042478 399.106801 
L 543.217972 400.276177 
L 550.011015 401.789118 
L 557.421608 403.667775 
L 565.758525 406.013782 
L 575.330541 408.944326 
L 586.755205 412.681539 
L 602.19394 417.983432 
L 650.671569 434.79187 
L 666.419079 439.926638 
L 680.93149 444.423981 
L 694.826351 448.495649 
L 708.412438 452.243346 
L 721.68975 455.678088 
L 734.967063 458.887677 
L 748.55315 461.94246 
L 762.139237 464.77161 
L 776.034098 467.440577 
L 790.237735 469.945264 
L 805.05892 472.331255 
L 810.92564 473.214711 
L 810.92564 473.214711 
" clip-path="url(#p59f8eaa88b)" style="fill: none; stroke: #ff0000; stroke-width: 2; stroke-linecap: square"/>
   </g>
   <g id="patch_21">
    <path d="M 486.712201 633.6 
L 486.712201 392.556522 
" style="fill: none; stroke: #000000; stroke-width: 0.8; stroke-linejoin: miter; stroke-linecap: square"/>
   </g>
   <g id="patch_22">
    <path d="M 826.364375 633.6 
L 826.364375 392.556522 
" style="fill: none; stroke: #000000; stroke-width: 0.8; stroke-linejoin: miter; stroke-linecap: square"/>
   </g>
   <g id="patch_23">
    <path d="M 486.712201 633.6 
L 826.364375 633.6 
" style="fill: none; stroke: #000000; stroke-width: 0.8; stroke-linejoin: miter; stroke-linecap: square"/>
   </g>
   <g id="patch_24">
    <path d="M 486.712201 392.556522 
L 826.364375 392.556522 
" style="fill: none; stroke: #000000; stroke-width: 0.8; stroke-linejoin: miter; stroke-linecap: square"/>
   </g>
   <g id="legend_4">
    <g id="patch_25">
     <path d="M 495.812201 627.1 
L 573.694389 627.1 
Q 576.294389 627.1 576.294389 624.5 
L 576.294389 530.392187 
Q 576.294389 527.792187 573.694389 527.792187 
L 495.812201 527.792187 
Q 493.212201 527.792187 493.212201 530.392187 
L 493.212201 624.5 
Q 493.212201 627.1 495.812201 627.1 
z
" style="fill: #ffffff; opacity: 0.8; stroke: #cccccc; stroke-linejoin: miter"/>
    </g>
    <g id="line2d_99">
     <path d="M 498.412201 538.320156 
L 524.412201 538.320156 
" style="fill: none; stroke: #0000ff; stroke-width: 2; stroke-linecap: square"/>
    </g>
    <g id="line2d_100"/>
    <g id="text_72">
     <!-- 5 mM -->
     <g transform="translate(534.812201 542.870156) scale(0.13 -0.13)">
      <use xlink:href="#DejaVuSans-35"/>
      <use xlink:href="#DejaVuSans-20" transform="translate(63.623047 0)"/>
      <use xlink:href="#DejaVuSans-6d" transform="translate(95.410156 0)"/>
      <use xlink:href="#DejaVuSans-4d" transform="translate(192.822266 0)"/>
     </g>
    </g>
    <g id="line2d_101">
     <path d="M 498.412201 557.401719 
L 524.412201 557.401719 
" style="fill: none; stroke: #1f77b4; stroke-width: 2; stroke-linecap: square"/>
    </g>
    <g id="line2d_102"/>
    <g id="text_73">
     <!-- 6 mM -->
     <g transform="translate(534.812201 561.951719) scale(0.13 -0.13)">
      <use xlink:href="#DejaVuSans-36"/>
      <use xlink:href="#DejaVuSans-20" transform="translate(63.623047 0)"/>
      <use xlink:href="#DejaVuSans-6d" transform="translate(95.410156 0)"/>
      <use xlink:href="#DejaVuSans-4d" transform="translate(192.822266 0)"/>
     </g>
    </g>
    <g id="line2d_103">
     <path d="M 498.412201 576.483281 
L 524.412201 576.483281 
" style="fill: none; stroke: #000000; stroke-width: 2; stroke-linecap: square"/>
    </g>
    <g id="line2d_104"/>
    <g id="text_74">
     <!-- 7 mM -->
     <g transform="translate(534.812201 581.033281) scale(0.13 -0.13)">
      <use xlink:href="#DejaVuSans-37"/>
      <use xlink:href="#DejaVuSans-20" transform="translate(63.623047 0)"/>
      <use xlink:href="#DejaVuSans-6d" transform="translate(95.410156 0)"/>
      <use xlink:href="#DejaVuSans-4d" transform="translate(192.822266 0)"/>
     </g>
    </g>
    <g id="line2d_105">
     <path d="M 498.412201 595.564844 
L 524.412201 595.564844 
" style="fill: none; stroke: #d62728; stroke-width: 2; stroke-linecap: square"/>
    </g>
    <g id="line2d_106"/>
    <g id="text_75">
     <!-- 8 mM -->
     <g transform="translate(534.812201 600.114844) scale(0.13 -0.13)">
      <use xlink:href="#DejaVuSans-38"/>
      <use xlink:href="#DejaVuSans-20" transform="translate(63.623047 0)"/>
      <use xlink:href="#DejaVuSans-6d" transform="translate(95.410156 0)"/>
      <use xlink:href="#DejaVuSans-4d" transform="translate(192.822266 0)"/>
     </g>
    </g>
    <g id="line2d_107">
     <path d="M 498.412201 614.646406 
L 524.412201 614.646406 
" style="fill: none; stroke: #ff0000; stroke-width: 2; stroke-linecap: square"/>
    </g>
    <g id="line2d_108"/>
    <g id="text_76">
     <!-- 9 mM -->
     <g transform="translate(534.812201 619.196406) scale(0.13 -0.13)">
      <use xlink:href="#DejaVuSans-39"/>
      <use xlink:href="#DejaVuSans-20" transform="translate(63.623047 0)"/>
      <use xlink:href="#DejaVuSans-6d" transform="translate(95.410156 0)"/>
      <use xlink:href="#DejaVuSans-4d" transform="translate(192.822266 0)"/>
     </g>
    </g>
   </g>
  </g>
  <g id="text_77">
   <!-- Fpg -->
   <g transform="translate(396.730781 26.000781) scale(0.25 -0.25)">
    <defs>
     <path id="DejaVuSans-Bold-67" d="M 2919 594 
Q 2688 288 2409 144 
Q 2131 0 1766 0 
Q 1125 0 706 504 
Q 288 1009 288 1791 
Q 288 2575 706 3076 
Q 1125 3578 1766 3578 
Q 2131 3578 2409 3434 
Q 2688 3291 2919 2981 
L 2919 3500 
L 4044 3500 
L 4044 353 
Q 4044 -491 3511 -936 
Q 2978 -1381 1966 -1381 
Q 1638 -1381 1331 -1331 
Q 1025 -1281 716 -1178 
L 716 -306 
Q 1009 -475 1290 -558 
Q 1572 -641 1856 -641 
Q 2406 -641 2662 -400 
Q 2919 -159 2919 353 
L 2919 594 
z
M 2181 2772 
Q 1834 2772 1640 2515 
Q 1447 2259 1447 1791 
Q 1447 1309 1634 1061 
Q 1822 813 2181 813 
Q 2531 813 2725 1069 
Q 2919 1325 2919 1791 
Q 2919 2259 2725 2515 
Q 2531 2772 2181 2772 
z
" transform="scale(0.015625)"/>
    </defs>
    <use xlink:href="#DejaVuSans-Bold-46"/>
    <use xlink:href="#DejaVuSans-Bold-70" transform="translate(68.310547 0)"/>
    <use xlink:href="#DejaVuSans-Bold-67" transform="translate(139.892578 0)"/>
   </g>
  </g>
 </g>
 <defs>
  <clipPath id="pe46ef86f7d">
   <rect x="45.164375" y="79.2" width="339.652174" height="241.043478"/>
  </clipPath>
  <clipPath id="p9adb70d2a3">
   <rect x="486.712201" y="79.2" width="339.652174" height="241.043478"/>
  </clipPath>
  <clipPath id="p3280eedf99">
   <rect x="45.164375" y="392.556522" width="339.652174" height="241.043478"/>
  </clipPath>
  <clipPath id="p59f8eaa88b">
   <rect x="486.712201" y="392.556522" width="339.652174" height="241.043478"/>
  </clipPath>
 </defs>
</svg>
