<?xml version="1.0" encoding="utf-8" standalone="no"?>
<!DOCTYPE svg PUBLIC "-//W3C//DTD SVG 1.1//EN"
  "http://www.w3.org/Graphics/SVG/1.1/DTD/svg11.dtd">
<svg xmlns:xlink="http://www.w3.org/1999/xlink" width="841.123145pt" height="683.737812pt" viewBox="0 0 841.123145 683.737812" xmlns="http://www.w3.org/2000/svg" version="1.1">
 <metadata>
  <rdf:RDF xmlns:dc="http://purl.org/dc/elements/1.1/" xmlns:cc="http://creativecommons.org/ns#" xmlns:rdf="http://www.w3.org/1999/02/22-rdf-syntax-ns#">
   <cc:Work>
    <dc:type rdf:resource="http://purl.org/dc/dcmitype/StillImage"/>
    <dc:date>2025-11-06T16:47:12.906719</dc:date>
    <dc:format>image/svg+xml</dc:format>
    <dc:creator>
     <cc:Agent>
      <dc:title>Matplotlib v3.10.7, https://matplotlib.org/</dc:title>
     </cc:Agent>
    </dc:creator>
   </cc:Work>
  </rdf:RDF>
 </metadata>
 <defs>
  <style type="text/css">*{stroke-linejoin: round; stroke-linecap: butt}</style>
 </defs>
 <g id="figure_1">
  <g id="patch_1">
   <path d="M 0 683.737812 
L 841.123145 683.737812 
L 841.123145 0 
L 0 0 
z
" style="fill: #ffffff"/>
  </g>
  <g id="axes_1">
   <g id="patch_2">
    <path d="M 45.164375 320.243478 
L 384.816549 320.243478 
L 384.816549 79.2 
L 45.164375 79.2 
z
" style="fill: #ffffff"/>
   </g>
   <g id="matplotlib.axis_1">
    <g id="xtick_1">
     <g id="line2d_1">
      <defs>
       <path id="m79d796b0c2" d="M 0 0 
L 0 3.5 
" style="stroke: #000000; stroke-width: 0.8"/>
      </defs>
      <g>
       <use xlink:href="#m79d796b0c2" x="60.60311" y="320.243478" style="stroke: #000000; stroke-width: 0.8"/>
      </g>
     </g>
     <g id="text_1">
      <!-- 0 -->
      <g transform="translate(55.831235 338.641135) scale(0.15 -0.15)">
       <defs>
        <path id="DejaVuSans-30" d="M 2034 4250 
Q 1547 4250 1301 3770 
Q 1056 3291 1056 2328 
Q 1056 1369 1301 889 
Q 1547 409 2034 409 
Q 2525 409 2770 889 
Q 3016 1369 3016 2328 
Q 3016 3291 2770 3770 
Q 2525 4250 2034 4250 
z
M 2034 4750 
Q 2819 4750 3233 4129 
Q 3647 3509 3647 2328 
Q 3647 1150 3233 529 
Q 2819 -91 2034 -91 
Q 1250 -91 836 529 
Q 422 1150 422 2328 
Q 422 3509 836 4129 
Q 1250 4750 2034 4750 
z
" transform="scale(0.015625)"/>
       </defs>
       <use xlink:href="#DejaVuSans-30"/>
      </g>
     </g>
    </g>
    <g id="xtick_2">
     <g id="line2d_2">
      <g>
       <use xlink:href="#m79d796b0c2" x="114.307853" y="320.243478" style="stroke: #000000; stroke-width: 0.8"/>
      </g>
     </g>
     <g id="text_2">
      <!-- 2 -->
      <g transform="translate(109.535978 338.641135) scale(0.15 -0.15)">
       <defs>
        <path id="DejaVuSans-32" d="M 1228 531 
L 3431 531 
L 3431 0 
L 469 0 
L 469 531 
Q 828 903 1448 1529 
Q 2069 2156 2228 2338 
Q 2531 2678 2651 2914 
Q 2772 3150 2772 3378 
Q 2772 3750 2511 3984 
Q 2250 4219 1831 4219 
Q 1534 4219 1204 4116 
Q 875 4013 500 3803 
L 500 4441 
Q 881 4594 1212 4672 
Q 1544 4750 1819 4750 
Q 2544 4750 2975 4387 
Q 3406 4025 3406 3419 
Q 3406 3131 3298 2873 
Q 3191 2616 2906 2266 
Q 2828 2175 2409 1742 
Q 1991 1309 1228 531 
z
" transform="scale(0.015625)"/>
       </defs>
       <use xlink:href="#DejaVuSans-32"/>
      </g>
     </g>
    </g>
    <g id="xtick_3">
     <g id="line2d_3">
      <g>
       <use xlink:href="#m79d796b0c2" x="168.012596" y="320.243478" style="stroke: #000000; stroke-width: 0.8"/>
      </g>
     </g>
     <g id="text_3">
      <!-- 4 -->
      <g transform="translate(163.240721 338.641135) scale(0.15 -0.15)">
       <defs>
        <path id="DejaVuSans-34" d="M 2419 4116 
L 825 1625 
L 2419 1625 
L 2419 4116 
z
M 2253 4666 
L 3047 4666 
L 3047 1625 
L 3713 1625 
L 3713 1100 
L 3047 1100 
L 3047 0 
L 2419 0 
L 2419 1100 
L 313 1100 
L 313 1709 
L 2253 4666 
z
" transform="scale(0.015625)"/>
       </defs>
       <use xlink:href="#DejaVuSans-34"/>
      </g>
     </g>
    </g>
    <g id="xtick_4">
     <g id="line2d_4">
      <g>
       <use xlink:href="#m79d796b0c2" x="221.717339" y="320.243478" style="stroke: #000000; stroke-width: 0.8"/>
      </g>
     </g>
     <g id="text_4">
      <!-- 6 -->
      <g transform="translate(216.945464 338.641135) scale(0.15 -0.15)">
       <defs>
        <path id="DejaVuSans-36" d="M 2113 2584 
Q 1688 2584 1439 2293 
Q 1191 2003 1191 1497 
Q 1191 994 1439 701 
Q 1688 409 2113 409 
Q 2538 409 2786 701 
Q 3034 994 3034 1497 
Q 3034 2003 2786 2293 
Q 2538 2584 2113 2584 
z
M 3366 4563 
L 3366 3988 
Q 3128 4100 2886 4159 
Q 2644 4219 2406 4219 
Q 1781 4219 1451 3797 
Q 1122 3375 1075 2522 
Q 1259 2794 1537 2939 
Q 1816 3084 2150 3084 
Q 2853 3084 3261 2657 
Q 3669 2231 3669 1497 
Q 3669 778 3244 343 
Q 2819 -91 2113 -91 
Q 1303 -91 875 529 
Q 447 1150 447 2328 
Q 447 3434 972 4092 
Q 1497 4750 2381 4750 
Q 2619 4750 2861 4703 
Q 3103 4656 3366 4563 
z
" transform="scale(0.015625)"/>
       </defs>
       <use xlink:href="#DejaVuSans-36"/>
      </g>
     </g>
    </g>
    <g id="xtick_5">
     <g id="line2d_5">
      <g>
       <use xlink:href="#m79d796b0c2" x="275.422083" y="320.243478" style="stroke: #000000; stroke-width: 0.8"/>
      </g>
     </g>
     <g id="text_5">
      <!-- 8 -->
      <g transform="translate(270.650208 338.641135) scale(0.15 -0.15)">
       <defs>
        <path id="DejaVuSans-38" d="M 2034 2216 
Q 1584 2216 1326 1975 
Q 1069 1734 1069 1313 
Q 1069 891 1326 650 
Q 1584 409 2034 409 
Q 2484 409 2743 651 
Q 3003 894 3003 1313 
Q 3003 1734 2745 1975 
Q 2488 2216 2034 2216 
z
M 1403 2484 
Q 997 2584 770 2862 
Q 544 3141 544 3541 
Q 544 4100 942 4425 
Q 1341 4750 2034 4750 
Q 2731 4750 3128 4425 
Q 3525 4100 3525 3541 
Q 3525 3141 3298 2862 
Q 3072 2584 2669 2484 
Q 3125 2378 3379 2068 
Q 3634 1759 3634 1313 
Q 3634 634 3220 271 
Q 2806 -91 2034 -91 
Q 1263 -91 848 271 
Q 434 634 434 1313 
Q 434 1759 690 2068 
Q 947 2378 1403 2484 
z
M 1172 3481 
Q 1172 3119 1398 2916 
Q 1625 2713 2034 2713 
Q 2441 2713 2670 2916 
Q 2900 3119 2900 3481 
Q 2900 3844 2670 4047 
Q 2441 4250 2034 4250 
Q 1625 4250 1398 4047 
Q 1172 3844 1172 3481 
z
" transform="scale(0.015625)"/>
       </defs>
       <use xlink:href="#DejaVuSans-38"/>
      </g>
     </g>
    </g>
    <g id="xtick_6">
     <g id="line2d_6">
      <g>
       <use xlink:href="#m79d796b0c2" x="329.126826" y="320.243478" style="stroke: #000000; stroke-width: 0.8"/>
      </g>
     </g>
     <g id="text_6">
      <!-- 10 -->
      <g transform="translate(319.583076 338.641135) scale(0.15 -0.15)">
       <defs>
        <path id="DejaVuSans-31" d="M 794 531 
L 1825 531 
L 1825 4091 
L 703 3866 
L 703 4441 
L 1819 4666 
L 2450 4666 
L 2450 531 
L 3481 531 
L 3481 0 
L 794 0 
L 794 531 
z
" transform="scale(0.015625)"/>
       </defs>
       <use xlink:href="#DejaVuSans-31"/>
       <use xlink:href="#DejaVuSans-30" transform="translate(63.623047 0)"/>
      </g>
     </g>
    </g>
    <g id="xtick_7">
     <g id="line2d_7">
      <g>
       <use xlink:href="#m79d796b0c2" x="382.831569" y="320.243478" style="stroke: #000000; stroke-width: 0.8"/>
      </g>
     </g>
     <g id="text_7">
      <!-- 12 -->
      <g transform="translate(373.287819 338.641135) scale(0.15 -0.15)">
       <use xlink:href="#DejaVuSans-31"/>
       <use xlink:href="#DejaVuSans-32" transform="translate(63.623047 0)"/>
      </g>
     </g>
    </g>
    <g id="text_8">
     <!-- time [month] -->
     <g transform="translate(148.083899 359.437853) scale(0.18 -0.18)">
      <defs>
       <path id="DejaVuSans-Bold-74" d="M 1759 4494 
L 1759 3500 
L 2913 3500 
L 2913 2700 
L 1759 2700 
L 1759 1216 
Q 1759 972 1856 886 
Q 1953 800 2241 800 
L 2816 800 
L 2816 0 
L 1856 0 
Q 1194 0 917 276 
Q 641 553 641 1216 
L 641 2700 
L 84 2700 
L 84 3500 
L 641 3500 
L 641 4494 
L 1759 4494 
z
" transform="scale(0.015625)"/>
       <path id="DejaVuSans-Bold-69" d="M 538 3500 
L 1656 3500 
L 1656 0 
L 538 0 
L 538 3500 
z
M 538 4863 
L 1656 4863 
L 1656 3950 
L 538 3950 
L 538 4863 
z
" transform="scale(0.015625)"/>
       <path id="DejaVuSans-Bold-6d" d="M 3781 2919 
Q 3994 3244 4286 3414 
Q 4578 3584 4928 3584 
Q 5531 3584 5847 3212 
Q 6163 2841 6163 2131 
L 6163 0 
L 5038 0 
L 5038 1825 
Q 5041 1866 5042 1909 
Q 5044 1953 5044 2034 
Q 5044 2406 4934 2573 
Q 4825 2741 4581 2741 
Q 4263 2741 4089 2478 
Q 3916 2216 3909 1719 
L 3909 0 
L 2784 0 
L 2784 1825 
Q 2784 2406 2684 2573 
Q 2584 2741 2328 2741 
Q 2006 2741 1831 2477 
Q 1656 2213 1656 1722 
L 1656 0 
L 531 0 
L 531 3500 
L 1656 3500 
L 1656 2988 
Q 1863 3284 2130 3434 
Q 2397 3584 2719 3584 
Q 3081 3584 3359 3409 
Q 3638 3234 3781 2919 
z
" transform="scale(0.015625)"/>
       <path id="DejaVuSans-Bold-65" d="M 4031 1759 
L 4031 1441 
L 1416 1441 
Q 1456 1047 1700 850 
Q 1944 653 2381 653 
Q 2734 653 3104 758 
Q 3475 863 3866 1075 
L 3866 213 
Q 3469 63 3072 -14 
Q 2675 -91 2278 -91 
Q 1328 -91 801 392 
Q 275 875 275 1747 
Q 275 2603 792 3093 
Q 1309 3584 2216 3584 
Q 3041 3584 3536 3087 
Q 4031 2591 4031 1759 
z
M 2881 2131 
Q 2881 2450 2695 2645 
Q 2509 2841 2209 2841 
Q 1884 2841 1681 2658 
Q 1478 2475 1428 2131 
L 2881 2131 
z
" transform="scale(0.015625)"/>
       <path id="DejaVuSans-Bold-20" transform="scale(0.015625)"/>
       <path id="DejaVuSans-Bold-5b" d="M 550 4863 
L 2491 4863 
L 2491 4159 
L 1613 4159 
L 1613 -141 
L 2491 -141 
L 2491 -844 
L 550 -844 
L 550 4863 
z
" transform="scale(0.015625)"/>
       <path id="DejaVuSans-Bold-6f" d="M 2203 2784 
Q 1831 2784 1636 2517 
Q 1441 2250 1441 1747 
Q 1441 1244 1636 976 
Q 1831 709 2203 709 
Q 2569 709 2762 976 
Q 2956 1244 2956 1747 
Q 2956 2250 2762 2517 
Q 2569 2784 2203 2784 
z
M 2203 3584 
Q 3106 3584 3614 3096 
Q 4122 2609 4122 1747 
Q 4122 884 3614 396 
Q 3106 -91 2203 -91 
Q 1297 -91 786 396 
Q 275 884 275 1747 
Q 275 2609 786 3096 
Q 1297 3584 2203 3584 
z
" transform="scale(0.015625)"/>
       <path id="DejaVuSans-Bold-6e" d="M 4056 2131 
L 4056 0 
L 2931 0 
L 2931 347 
L 2931 1631 
Q 2931 2084 2911 2256 
Q 2891 2428 2841 2509 
Q 2775 2619 2662 2680 
Q 2550 2741 2406 2741 
Q 2056 2741 1856 2470 
Q 1656 2200 1656 1722 
L 1656 0 
L 538 0 
L 538 3500 
L 1656 3500 
L 1656 2988 
Q 1909 3294 2193 3439 
Q 2478 3584 2822 3584 
Q 3428 3584 3742 3212 
Q 4056 2841 4056 2131 
z
" transform="scale(0.015625)"/>
       <path id="DejaVuSans-Bold-68" d="M 4056 2131 
L 4056 0 
L 2931 0 
L 2931 347 
L 2931 1625 
Q 2931 2084 2911 2256 
Q 2891 2428 2841 2509 
Q 2775 2619 2662 2680 
Q 2550 2741 2406 2741 
Q 2056 2741 1856 2470 
Q 1656 2200 1656 1722 
L 1656 0 
L 538 0 
L 538 4863 
L 1656 4863 
L 1656 2988 
Q 1909 3294 2193 3439 
Q 2478 3584 2822 3584 
Q 3428 3584 3742 3212 
Q 4056 2841 4056 2131 
z
" transform="scale(0.015625)"/>
       <path id="DejaVuSans-Bold-5d" d="M 2375 -844 
L 434 -844 
L 434 -141 
L 1313 -141 
L 1313 4159 
L 434 4159 
L 434 4863 
L 2375 4863 
L 2375 -844 
z
" transform="scale(0.015625)"/>
      </defs>
      <use xlink:href="#DejaVuSans-Bold-74"/>
      <use xlink:href="#DejaVuSans-Bold-69" transform="translate(47.802734 0)"/>
      <use xlink:href="#DejaVuSans-Bold-6d" transform="translate(82.080078 0)"/>
      <use xlink:href="#DejaVuSans-Bold-65" transform="translate(186.279297 0)"/>
      <use xlink:href="#DejaVuSans-Bold-20" transform="translate(254.101562 0)"/>
      <use xlink:href="#DejaVuSans-Bold-5b" transform="translate(288.916016 0)"/>
      <use xlink:href="#DejaVuSans-Bold-6d" transform="translate(334.619141 0)"/>
      <use xlink:href="#DejaVuSans-Bold-6f" transform="translate(438.818359 0)"/>
      <use xlink:href="#DejaVuSans-Bold-6e" transform="translate(507.519531 0)"/>
      <use xlink:href="#DejaVuSans-Bold-74" transform="translate(578.710938 0)"/>
      <use xlink:href="#DejaVuSans-Bold-68" transform="translate(626.513672 0)"/>
      <use xlink:href="#DejaVuSans-Bold-5d" transform="translate(697.705078 0)"/>
     </g>
    </g>
   </g>
   <g id="matplotlib.axis_2">
    <g id="ytick_1">
     <g id="line2d_8">
      <defs>
       <path id="mcff1ee1aa5" d="M 0 0 
L -3.5 0 
" style="stroke: #000000; stroke-width: 0.8"/>
      </defs>
      <g>
       <use xlink:href="#mcff1ee1aa5" x="45.164375" y="320.243478" style="stroke: #000000; stroke-width: 0.8"/>
      </g>
     </g>
     <g id="text_9">
      <!-- 0 -->
      <g transform="translate(28.620625 325.942306) scale(0.15 -0.15)">
       <use xlink:href="#DejaVuSans-30"/>
      </g>
     </g>
    </g>
    <g id="ytick_2">
     <g id="line2d_9">
      <g>
       <use xlink:href="#mcff1ee1aa5" x="45.164375" y="263.124171" style="stroke: #000000; stroke-width: 0.8"/>
      </g>
     </g>
     <g id="text_10">
      <!-- 2 -->
      <g transform="translate(28.620625 268.822999) scale(0.15 -0.15)">
       <use xlink:href="#DejaVuSans-32"/>
      </g>
     </g>
    </g>
    <g id="ytick_3">
     <g id="line2d_10">
      <g>
       <use xlink:href="#mcff1ee1aa5" x="45.164375" y="206.004863" style="stroke: #000000; stroke-width: 0.8"/>
      </g>
     </g>
     <g id="text_11">
      <!-- 4 -->
      <g transform="translate(28.620625 211.703691) scale(0.15 -0.15)">
       <use xlink:href="#DejaVuSans-34"/>
      </g>
     </g>
    </g>
    <g id="ytick_4">
     <g id="line2d_11">
      <g>
       <use xlink:href="#mcff1ee1aa5" x="45.164375" y="148.885555" style="stroke: #000000; stroke-width: 0.8"/>
      </g>
     </g>
     <g id="text_12">
      <!-- 6 -->
      <g transform="translate(28.620625 154.584383) scale(0.15 -0.15)">
       <use xlink:href="#DejaVuSans-36"/>
      </g>
     </g>
    </g>
    <g id="ytick_5">
     <g id="line2d_12">
      <g>
       <use xlink:href="#mcff1ee1aa5" x="45.164375" y="91.766248" style="stroke: #000000; stroke-width: 0.8"/>
      </g>
     </g>
     <g id="text_13">
      <!-- 8 -->
      <g transform="translate(28.620625 97.465076) scale(0.15 -0.15)">
       <use xlink:href="#DejaVuSans-38"/>
      </g>
     </g>
    </g>
    <g id="text_14">
     <!-- initial FPG [mM] -->
     <g transform="translate(20.877188 281.804552) rotate(-90) scale(0.18 -0.18)">
      <defs>
       <path id="DejaVuSans-Bold-61" d="M 2106 1575 
Q 1756 1575 1579 1456 
Q 1403 1338 1403 1106 
Q 1403 894 1545 773 
Q 1688 653 1941 653 
Q 2256 653 2472 879 
Q 2688 1106 2688 1447 
L 2688 1575 
L 2106 1575 
z
M 3816 1997 
L 3816 0 
L 2688 0 
L 2688 519 
Q 2463 200 2181 54 
Q 1900 -91 1497 -91 
Q 953 -91 614 226 
Q 275 544 275 1050 
Q 275 1666 698 1953 
Q 1122 2241 2028 2241 
L 2688 2241 
L 2688 2328 
Q 2688 2594 2478 2717 
Q 2269 2841 1825 2841 
Q 1466 2841 1156 2769 
Q 847 2697 581 2553 
L 581 3406 
Q 941 3494 1303 3539 
Q 1666 3584 2028 3584 
Q 2975 3584 3395 3211 
Q 3816 2838 3816 1997 
z
" transform="scale(0.015625)"/>
       <path id="DejaVuSans-Bold-6c" d="M 538 4863 
L 1656 4863 
L 1656 0 
L 538 0 
L 538 4863 
z
" transform="scale(0.015625)"/>
       <path id="DejaVuSans-Bold-46" d="M 588 4666 
L 3834 4666 
L 3834 3756 
L 1791 3756 
L 1791 2888 
L 3713 2888 
L 3713 1978 
L 1791 1978 
L 1791 0 
L 588 0 
L 588 4666 
z
" transform="scale(0.015625)"/>
       <path id="DejaVuSans-Bold-50" d="M 588 4666 
L 2584 4666 
Q 3475 4666 3951 4270 
Q 4428 3875 4428 3144 
Q 4428 2409 3951 2014 
Q 3475 1619 2584 1619 
L 1791 1619 
L 1791 0 
L 588 0 
L 588 4666 
z
M 1791 3794 
L 1791 2491 
L 2456 2491 
Q 2806 2491 2997 2661 
Q 3188 2831 3188 3144 
Q 3188 3456 2997 3625 
Q 2806 3794 2456 3794 
L 1791 3794 
z
" transform="scale(0.015625)"/>
       <path id="DejaVuSans-Bold-47" d="M 4781 347 
Q 4331 128 3847 18 
Q 3363 -91 2847 -91 
Q 1681 -91 1000 561 
Q 319 1213 319 2328 
Q 319 3456 1012 4103 
Q 1706 4750 2913 4750 
Q 3378 4750 3804 4662 
Q 4231 4575 4609 4403 
L 4609 3438 
Q 4219 3659 3833 3768 
Q 3447 3878 3059 3878 
Q 2341 3878 1952 3476 
Q 1563 3075 1563 2328 
Q 1563 1588 1938 1184 
Q 2313 781 3003 781 
Q 3191 781 3352 804 
Q 3513 828 3641 878 
L 3641 1784 
L 2906 1784 
L 2906 2591 
L 4781 2591 
L 4781 347 
z
" transform="scale(0.015625)"/>
       <path id="DejaVuSans-Bold-4d" d="M 588 4666 
L 2119 4666 
L 3181 2169 
L 4250 4666 
L 5778 4666 
L 5778 0 
L 4641 0 
L 4641 3413 
L 3566 897 
L 2803 897 
L 1728 3413 
L 1728 0 
L 588 0 
L 588 4666 
z
" transform="scale(0.015625)"/>
      </defs>
      <use xlink:href="#DejaVuSans-Bold-69"/>
      <use xlink:href="#DejaVuSans-Bold-6e" transform="translate(34.277344 0)"/>
      <use xlink:href="#DejaVuSans-Bold-69" transform="translate(105.46875 0)"/>
      <use xlink:href="#DejaVuSans-Bold-74" transform="translate(139.746094 0)"/>
      <use xlink:href="#DejaVuSans-Bold-69" transform="translate(187.548828 0)"/>
      <use xlink:href="#DejaVuSans-Bold-61" transform="translate(221.826172 0)"/>
      <use xlink:href="#DejaVuSans-Bold-6c" transform="translate(289.306641 0)"/>
      <use xlink:href="#DejaVuSans-Bold-20" transform="translate(323.583984 0)"/>
      <use xlink:href="#DejaVuSans-Bold-46" transform="translate(358.398438 0)"/>
      <use xlink:href="#DejaVuSans-Bold-50" transform="translate(426.708984 0)"/>
      <use xlink:href="#DejaVuSans-Bold-47" transform="translate(500 0)"/>
      <use xlink:href="#DejaVuSans-Bold-20" transform="translate(582.080078 0)"/>
      <use xlink:href="#DejaVuSans-Bold-5b" transform="translate(616.894531 0)"/>
      <use xlink:href="#DejaVuSans-Bold-6d" transform="translate(662.597656 0)"/>
      <use xlink:href="#DejaVuSans-Bold-4d" transform="translate(766.796875 0)"/>
      <use xlink:href="#DejaVuSans-Bold-5d" transform="translate(866.308594 0)"/>
     </g>
    </g>
   </g>
   <g id="line2d_13">
    <path d="M 60.60311 91.766248 
L 369.377814 91.766248 
L 369.377814 91.766248 
" clip-path="url(#p0409fbc3e3)" style="fill: none; stroke: #0000ff; stroke-width: 2; stroke-linecap: square"/>
   </g>
   <g id="line2d_14">
    <path d="M 60.60311 91.766248 
L 369.377814 91.766248 
L 369.377814 91.766248 
" clip-path="url(#p0409fbc3e3)" style="fill: none; stroke: #1f77b4; stroke-width: 2; stroke-linecap: square"/>
   </g>
   <g id="line2d_15">
    <path d="M 60.60311 91.766248 
L 369.377814 91.766248 
L 369.377814 91.766248 
" clip-path="url(#p0409fbc3e3)" style="fill: none; stroke: #000000; stroke-width: 2; stroke-linecap: square"/>
   </g>
   <g id="line2d_16">
    <path d="M 60.60311 91.766248 
L 369.377814 91.766248 
L 369.377814 91.766248 
" clip-path="url(#p0409fbc3e3)" style="fill: none; stroke: #d62728; stroke-width: 2; stroke-linecap: square"/>
   </g>
   <g id="line2d_17">
    <path d="M 60.60311 91.766248 
L 369.377814 91.766248 
L 369.377814 91.766248 
" clip-path="url(#p0409fbc3e3)" style="fill: none; stroke: #ff0000; stroke-width: 2; stroke-linecap: square"/>
   </g>
   <g id="patch_3">
    <path d="M 45.164375 320.243478 
L 45.164375 79.2 
" style="fill: none; stroke: #000000; stroke-width: 0.8; stroke-linejoin: miter; stroke-linecap: square"/>
   </g>
   <g id="patch_4">
    <path d="M 384.816549 320.243478 
L 384.816549 79.2 
" style="fill: none; stroke: #000000; stroke-width: 0.8; stroke-linejoin: miter; stroke-linecap: square"/>
   </g>
   <g id="patch_5">
    <path d="M 45.164375 320.243478 
L 384.816549 320.243478 
" style="fill: none; stroke: #000000; stroke-width: 0.8; stroke-linejoin: miter; stroke-linecap: square"/>
   </g>
   <g id="patch_6">
    <path d="M 45.164375 79.2 
L 384.816549 79.2 
" style="fill: none; stroke: #000000; stroke-width: 0.8; stroke-linejoin: miter; stroke-linecap: square"/>
   </g>
   <g id="legend_1">
    <g id="patch_7">
     <path d="M 54.264375 313.743478 
L 158.053125 313.743478 
Q 160.653125 313.743478 160.653125 311.143478 
L 160.653125 217.035666 
Q 160.653125 214.435666 158.053125 214.435666 
L 54.264375 214.435666 
Q 51.664375 214.435666 51.664375 217.035666 
L 51.664375 311.143478 
Q 51.664375 313.743478 54.264375 313.743478 
z
" style="fill: #ffffff; opacity: 0.8; stroke: #cccccc; stroke-linejoin: miter"/>
    </g>
    <g id="line2d_18">
     <path d="M 56.864375 224.963635 
L 82.864375 224.963635 
" style="fill: none; stroke: #0000ff; stroke-width: 2; stroke-linecap: square"/>
    </g>
    <g id="line2d_19"/>
    <g id="text_15">
     <!-- 5 percent -->
     <g transform="translate(93.264375 229.513635) scale(0.13 -0.13)">
      <defs>
       <path id="DejaVuSans-35" d="M 691 4666 
L 3169 4666 
L 3169 4134 
L 1269 4134 
L 1269 2991 
Q 1406 3038 1543 3061 
Q 1681 3084 1819 3084 
Q 2600 3084 3056 2656 
Q 3513 2228 3513 1497 
Q 3513 744 3044 326 
Q 2575 -91 1722 -91 
Q 1428 -91 1123 -41 
Q 819 9 494 109 
L 494 744 
Q 775 591 1075 516 
Q 1375 441 1709 441 
Q 2250 441 2565 725 
Q 2881 1009 2881 1497 
Q 2881 1984 2565 2268 
Q 2250 2553 1709 2553 
Q 1456 2553 1204 2497 
Q 953 2441 691 2322 
L 691 4666 
z
" transform="scale(0.015625)"/>
       <path id="DejaVuSans-20" transform="scale(0.015625)"/>
       <path id="DejaVuSans-70" d="M 1159 525 
L 1159 -1331 
L 581 -1331 
L 581 3500 
L 1159 3500 
L 1159 2969 
Q 1341 3281 1617 3432 
Q 1894 3584 2278 3584 
Q 2916 3584 3314 3078 
Q 3713 2572 3713 1747 
Q 3713 922 3314 415 
Q 2916 -91 2278 -91 
Q 1894 -91 1617 61 
Q 1341 213 1159 525 
z
M 3116 1747 
Q 3116 2381 2855 2742 
Q 2594 3103 2138 3103 
Q 1681 3103 1420 2742 
Q 1159 2381 1159 1747 
Q 1159 1113 1420 752 
Q 1681 391 2138 391 
Q 2594 391 2855 752 
Q 3116 1113 3116 1747 
z
" transform="scale(0.015625)"/>
       <path id="DejaVuSans-65" d="M 3597 1894 
L 3597 1613 
L 953 1613 
Q 991 1019 1311 708 
Q 1631 397 2203 397 
Q 2534 397 2845 478 
Q 3156 559 3463 722 
L 3463 178 
Q 3153 47 2828 -22 
Q 2503 -91 2169 -91 
Q 1331 -91 842 396 
Q 353 884 353 1716 
Q 353 2575 817 3079 
Q 1281 3584 2069 3584 
Q 2775 3584 3186 3129 
Q 3597 2675 3597 1894 
z
M 3022 2063 
Q 3016 2534 2758 2815 
Q 2500 3097 2075 3097 
Q 1594 3097 1305 2825 
Q 1016 2553 972 2059 
L 3022 2063 
z
" transform="scale(0.015625)"/>
       <path id="DejaVuSans-72" d="M 2631 2963 
Q 2534 3019 2420 3045 
Q 2306 3072 2169 3072 
Q 1681 3072 1420 2755 
Q 1159 2438 1159 1844 
L 1159 0 
L 581 0 
L 581 3500 
L 1159 3500 
L 1159 2956 
Q 1341 3275 1631 3429 
Q 1922 3584 2338 3584 
Q 2397 3584 2469 3576 
Q 2541 3569 2628 3553 
L 2631 2963 
z
" transform="scale(0.015625)"/>
       <path id="DejaVuSans-63" d="M 3122 3366 
L 3122 2828 
Q 2878 2963 2633 3030 
Q 2388 3097 2138 3097 
Q 1578 3097 1268 2742 
Q 959 2388 959 1747 
Q 959 1106 1268 751 
Q 1578 397 2138 397 
Q 2388 397 2633 464 
Q 2878 531 3122 666 
L 3122 134 
Q 2881 22 2623 -34 
Q 2366 -91 2075 -91 
Q 1284 -91 818 406 
Q 353 903 353 1747 
Q 353 2603 823 3093 
Q 1294 3584 2113 3584 
Q 2378 3584 2631 3529 
Q 2884 3475 3122 3366 
z
" transform="scale(0.015625)"/>
       <path id="DejaVuSans-6e" d="M 3513 2113 
L 3513 0 
L 2938 0 
L 2938 2094 
Q 2938 2591 2744 2837 
Q 2550 3084 2163 3084 
Q 1697 3084 1428 2787 
Q 1159 2491 1159 1978 
L 1159 0 
L 581 0 
L 581 3500 
L 1159 3500 
L 1159 2956 
Q 1366 3272 1645 3428 
Q 1925 3584 2291 3584 
Q 2894 3584 3203 3211 
Q 3513 2838 3513 2113 
z
" transform="scale(0.015625)"/>
       <path id="DejaVuSans-74" d="M 1172 4494 
L 1172 3500 
L 2356 3500 
L 2356 3053 
L 1172 3053 
L 1172 1153 
Q 1172 725 1289 603 
Q 1406 481 1766 481 
L 2356 481 
L 2356 0 
L 1766 0 
Q 1100 0 847 248 
Q 594 497 594 1153 
L 594 3053 
L 172 3053 
L 172 3500 
L 594 3500 
L 594 4494 
L 1172 4494 
z
" transform="scale(0.015625)"/>
      </defs>
      <use xlink:href="#DejaVuSans-35"/>
      <use xlink:href="#DejaVuSans-20" transform="translate(63.623047 0)"/>
      <use xlink:href="#DejaVuSans-70" transform="translate(95.410156 0)"/>
      <use xlink:href="#DejaVuSans-65" transform="translate(158.886719 0)"/>
      <use xlink:href="#DejaVuSans-72" transform="translate(220.410156 0)"/>
      <use xlink:href="#DejaVuSans-63" transform="translate(259.273438 0)"/>
      <use xlink:href="#DejaVuSans-65" transform="translate(314.253906 0)"/>
      <use xlink:href="#DejaVuSans-6e" transform="translate(375.777344 0)"/>
      <use xlink:href="#DejaVuSans-74" transform="translate(439.15625 0)"/>
     </g>
    </g>
    <g id="line2d_20">
     <path d="M 56.864375 244.045197 
L 82.864375 244.045197 
" style="fill: none; stroke: #1f77b4; stroke-width: 2; stroke-linecap: square"/>
    </g>
    <g id="line2d_21"/>
    <g id="text_16">
     <!-- 6 percent -->
     <g transform="translate(93.264375 248.595197) scale(0.13 -0.13)">
      <use xlink:href="#DejaVuSans-36"/>
      <use xlink:href="#DejaVuSans-20" transform="translate(63.623047 0)"/>
      <use xlink:href="#DejaVuSans-70" transform="translate(95.410156 0)"/>
      <use xlink:href="#DejaVuSans-65" transform="translate(158.886719 0)"/>
      <use xlink:href="#DejaVuSans-72" transform="translate(220.410156 0)"/>
      <use xlink:href="#DejaVuSans-63" transform="translate(259.273438 0)"/>
      <use xlink:href="#DejaVuSans-65" transform="translate(314.253906 0)"/>
      <use xlink:href="#DejaVuSans-6e" transform="translate(375.777344 0)"/>
      <use xlink:href="#DejaVuSans-74" transform="translate(439.15625 0)"/>
     </g>
    </g>
    <g id="line2d_22">
     <path d="M 56.864375 263.12676 
L 82.864375 263.12676 
" style="fill: none; stroke: #000000; stroke-width: 2; stroke-linecap: square"/>
    </g>
    <g id="line2d_23"/>
    <g id="text_17">
     <!-- 7 percent -->
     <g transform="translate(93.264375 267.67676) scale(0.13 -0.13)">
      <defs>
       <path id="DejaVuSans-37" d="M 525 4666 
L 3525 4666 
L 3525 4397 
L 1831 0 
L 1172 0 
L 2766 4134 
L 525 4134 
L 525 4666 
z
" transform="scale(0.015625)"/>
      </defs>
      <use xlink:href="#DejaVuSans-37"/>
      <use xlink:href="#DejaVuSans-20" transform="translate(63.623047 0)"/>
      <use xlink:href="#DejaVuSans-70" transform="translate(95.410156 0)"/>
      <use xlink:href="#DejaVuSans-65" transform="translate(158.886719 0)"/>
      <use xlink:href="#DejaVuSans-72" transform="translate(220.410156 0)"/>
      <use xlink:href="#DejaVuSans-63" transform="translate(259.273438 0)"/>
      <use xlink:href="#DejaVuSans-65" transform="translate(314.253906 0)"/>
      <use xlink:href="#DejaVuSans-6e" transform="translate(375.777344 0)"/>
      <use xlink:href="#DejaVuSans-74" transform="translate(439.15625 0)"/>
     </g>
    </g>
    <g id="line2d_24">
     <path d="M 56.864375 282.208322 
L 82.864375 282.208322 
" style="fill: none; stroke: #d62728; stroke-width: 2; stroke-linecap: square"/>
    </g>
    <g id="line2d_25"/>
    <g id="text_18">
     <!-- 8 percent -->
     <g transform="translate(93.264375 286.758322) scale(0.13 -0.13)">
      <use xlink:href="#DejaVuSans-38"/>
      <use xlink:href="#DejaVuSans-20" transform="translate(63.623047 0)"/>
      <use xlink:href="#DejaVuSans-70" transform="translate(95.410156 0)"/>
      <use xlink:href="#DejaVuSans-65" transform="translate(158.886719 0)"/>
      <use xlink:href="#DejaVuSans-72" transform="translate(220.410156 0)"/>
      <use xlink:href="#DejaVuSans-63" transform="translate(259.273438 0)"/>
      <use xlink:href="#DejaVuSans-65" transform="translate(314.253906 0)"/>
      <use xlink:href="#DejaVuSans-6e" transform="translate(375.777344 0)"/>
      <use xlink:href="#DejaVuSans-74" transform="translate(439.15625 0)"/>
     </g>
    </g>
    <g id="line2d_26">
     <path d="M 56.864375 301.289885 
L 82.864375 301.289885 
" style="fill: none; stroke: #ff0000; stroke-width: 2; stroke-linecap: square"/>
    </g>
    <g id="line2d_27"/>
    <g id="text_19">
     <!-- 9 percent -->
     <g transform="translate(93.264375 305.839885) scale(0.13 -0.13)">
      <defs>
       <path id="DejaVuSans-39" d="M 703 97 
L 703 672 
Q 941 559 1184 500 
Q 1428 441 1663 441 
Q 2288 441 2617 861 
Q 2947 1281 2994 2138 
Q 2813 1869 2534 1725 
Q 2256 1581 1919 1581 
Q 1219 1581 811 2004 
Q 403 2428 403 3163 
Q 403 3881 828 4315 
Q 1253 4750 1959 4750 
Q 2769 4750 3195 4129 
Q 3622 3509 3622 2328 
Q 3622 1225 3098 567 
Q 2575 -91 1691 -91 
Q 1453 -91 1209 -44 
Q 966 3 703 97 
z
M 1959 2075 
Q 2384 2075 2632 2365 
Q 2881 2656 2881 3163 
Q 2881 3666 2632 3958 
Q 2384 4250 1959 4250 
Q 1534 4250 1286 3958 
Q 1038 3666 1038 3163 
Q 1038 2656 1286 2365 
Q 1534 2075 1959 2075 
z
" transform="scale(0.015625)"/>
      </defs>
      <use xlink:href="#DejaVuSans-39"/>
      <use xlink:href="#DejaVuSans-20" transform="translate(63.623047 0)"/>
      <use xlink:href="#DejaVuSans-70" transform="translate(95.410156 0)"/>
      <use xlink:href="#DejaVuSans-65" transform="translate(158.886719 0)"/>
      <use xlink:href="#DejaVuSans-72" transform="translate(220.410156 0)"/>
      <use xlink:href="#DejaVuSans-63" transform="translate(259.273438 0)"/>
      <use xlink:href="#DejaVuSans-65" transform="translate(314.253906 0)"/>
      <use xlink:href="#DejaVuSans-6e" transform="translate(375.777344 0)"/>
      <use xlink:href="#DejaVuSans-74" transform="translate(439.15625 0)"/>
     </g>
    </g>
   </g>
  </g>
  <g id="axes_2">
   <g id="patch_8">
    <path d="M 486.712201 320.243478 
L 826.364375 320.243478 
L 826.364375 79.2 
L 486.712201 79.2 
z
" style="fill: #ffffff"/>
   </g>
   <g id="matplotlib.axis_3">
    <g id="xtick_8">
     <g id="line2d_28">
      <g>
       <use xlink:href="#m79d796b0c2" x="502.150936" y="320.243478" style="stroke: #000000; stroke-width: 0.8"/>
      </g>
     </g>
     <g id="text_20">
      <!-- 0 -->
      <g transform="translate(497.379061 338.641135) scale(0.15 -0.15)">
       <use xlink:href="#DejaVuSans-30"/>
      </g>
     </g>
    </g>
    <g id="xtick_9">
     <g id="line2d_29">
      <g>
       <use xlink:href="#m79d796b0c2" x="555.855679" y="320.243478" style="stroke: #000000; stroke-width: 0.8"/>
      </g>
     </g>
     <g id="text_21">
      <!-- 2 -->
      <g transform="translate(551.083804 338.641135) scale(0.15 -0.15)">
       <use xlink:href="#DejaVuSans-32"/>
      </g>
     </g>
    </g>
    <g id="xtick_10">
     <g id="line2d_30">
      <g>
       <use xlink:href="#m79d796b0c2" x="609.560422" y="320.243478" style="stroke: #000000; stroke-width: 0.8"/>
      </g>
     </g>
     <g id="text_22">
      <!-- 4 -->
      <g transform="translate(604.788547 338.641135) scale(0.15 -0.15)">
       <use xlink:href="#DejaVuSans-34"/>
      </g>
     </g>
    </g>
    <g id="xtick_11">
     <g id="line2d_31">
      <g>
       <use xlink:href="#m79d796b0c2" x="663.265166" y="320.243478" style="stroke: #000000; stroke-width: 0.8"/>
      </g>
     </g>
     <g id="text_23">
      <!-- 6 -->
      <g transform="translate(658.493291 338.641135) scale(0.15 -0.15)">
       <use xlink:href="#DejaVuSans-36"/>
      </g>
     </g>
    </g>
    <g id="xtick_12">
     <g id="line2d_32">
      <g>
       <use xlink:href="#m79d796b0c2" x="716.969909" y="320.243478" style="stroke: #000000; stroke-width: 0.8"/>
      </g>
     </g>
     <g id="text_24">
      <!-- 8 -->
      <g transform="translate(712.198034 338.641135) scale(0.15 -0.15)">
       <use xlink:href="#DejaVuSans-38"/>
      </g>
     </g>
    </g>
    <g id="xtick_13">
     <g id="line2d_33">
      <g>
       <use xlink:href="#m79d796b0c2" x="770.674652" y="320.243478" style="stroke: #000000; stroke-width: 0.8"/>
      </g>
     </g>
     <g id="text_25">
      <!-- 10 -->
      <g transform="translate(761.130902 338.641135) scale(0.15 -0.15)">
       <use xlink:href="#DejaVuSans-31"/>
       <use xlink:href="#DejaVuSans-30" transform="translate(63.623047 0)"/>
      </g>
     </g>
    </g>
    <g id="xtick_14">
     <g id="line2d_34">
      <g>
       <use xlink:href="#m79d796b0c2" x="824.379395" y="320.243478" style="stroke: #000000; stroke-width: 0.8"/>
      </g>
     </g>
     <g id="text_26">
      <!-- 12 -->
      <g transform="translate(814.835645 338.641135) scale(0.15 -0.15)">
       <use xlink:href="#DejaVuSans-31"/>
       <use xlink:href="#DejaVuSans-32" transform="translate(63.623047 0)"/>
      </g>
     </g>
    </g>
    <g id="text_27">
     <!-- time [month] -->
     <g transform="translate(589.631726 359.437853) scale(0.18 -0.18)">
      <use xlink:href="#DejaVuSans-Bold-74"/>
      <use xlink:href="#DejaVuSans-Bold-69" transform="translate(47.802734 0)"/>
      <use xlink:href="#DejaVuSans-Bold-6d" transform="translate(82.080078 0)"/>
      <use xlink:href="#DejaVuSans-Bold-65" transform="translate(186.279297 0)"/>
      <use xlink:href="#DejaVuSans-Bold-20" transform="translate(254.101562 0)"/>
      <use xlink:href="#DejaVuSans-Bold-5b" transform="translate(288.916016 0)"/>
      <use xlink:href="#DejaVuSans-Bold-6d" transform="translate(334.619141 0)"/>
      <use xlink:href="#DejaVuSans-Bold-6f" transform="translate(438.818359 0)"/>
      <use xlink:href="#DejaVuSans-Bold-6e" transform="translate(507.519531 0)"/>
      <use xlink:href="#DejaVuSans-Bold-74" transform="translate(578.710938 0)"/>
      <use xlink:href="#DejaVuSans-Bold-68" transform="translate(626.513672 0)"/>
      <use xlink:href="#DejaVuSans-Bold-5d" transform="translate(697.705078 0)"/>
     </g>
    </g>
   </g>
   <g id="matplotlib.axis_4">
    <g id="ytick_6">
     <g id="line2d_35">
      <g>
       <use xlink:href="#mcff1ee1aa5" x="486.712201" y="320.243478" style="stroke: #000000; stroke-width: 0.8"/>
      </g>
     </g>
     <g id="text_28">
      <!-- 0 -->
      <g transform="translate(470.168451 325.942306) scale(0.15 -0.15)">
       <use xlink:href="#DejaVuSans-30"/>
      </g>
     </g>
    </g>
    <g id="ytick_7">
     <g id="line2d_36">
      <g>
       <use xlink:href="#mcff1ee1aa5" x="486.712201" y="261.053865" style="stroke: #000000; stroke-width: 0.8"/>
      </g>
     </g>
     <g id="text_29">
      <!-- 2 -->
      <g transform="translate(470.168451 266.752693) scale(0.15 -0.15)">
       <use xlink:href="#DejaVuSans-32"/>
      </g>
     </g>
    </g>
    <g id="ytick_8">
     <g id="line2d_37">
      <g>
       <use xlink:href="#mcff1ee1aa5" x="486.712201" y="201.864251" style="stroke: #000000; stroke-width: 0.8"/>
      </g>
     </g>
     <g id="text_30">
      <!-- 4 -->
      <g transform="translate(470.168451 207.563079) scale(0.15 -0.15)">
       <use xlink:href="#DejaVuSans-34"/>
      </g>
     </g>
    </g>
    <g id="ytick_9">
     <g id="line2d_38">
      <g>
       <use xlink:href="#mcff1ee1aa5" x="486.712201" y="142.674637" style="stroke: #000000; stroke-width: 0.8"/>
      </g>
     </g>
     <g id="text_31">
      <!-- 6 -->
      <g transform="translate(470.168451 148.373465) scale(0.15 -0.15)">
       <use xlink:href="#DejaVuSans-36"/>
      </g>
     </g>
    </g>
    <g id="ytick_10">
     <g id="line2d_39">
      <g>
       <use xlink:href="#mcff1ee1aa5" x="486.712201" y="83.485024" style="stroke: #000000; stroke-width: 0.8"/>
      </g>
     </g>
     <g id="text_32">
      <!-- 8 -->
      <g transform="translate(470.168451 89.183852) scale(0.15 -0.15)">
       <use xlink:href="#DejaVuSans-38"/>
      </g>
     </g>
    </g>
    <g id="text_33">
     <!-- FPG [mM] -->
     <g transform="translate(462.425014 249.547989) rotate(-90) scale(0.18 -0.18)">
      <use xlink:href="#DejaVuSans-Bold-46"/>
      <use xlink:href="#DejaVuSans-Bold-50" transform="translate(68.310547 0)"/>
      <use xlink:href="#DejaVuSans-Bold-47" transform="translate(141.601562 0)"/>
      <use xlink:href="#DejaVuSans-Bold-20" transform="translate(223.681641 0)"/>
      <use xlink:href="#DejaVuSans-Bold-5b" transform="translate(258.496094 0)"/>
      <use xlink:href="#DejaVuSans-Bold-6d" transform="translate(304.199219 0)"/>
      <use xlink:href="#DejaVuSans-Bold-4d" transform="translate(408.398438 0)"/>
      <use xlink:href="#DejaVuSans-Bold-5d" transform="translate(507.910156 0)"/>
     </g>
    </g>
   </g>
   <g id="line2d_40">
    <path d="M 502.150936 83.485024 
L 507.708881 88.695551 
L 513.266826 93.600286 
L 518.82477 98.217175 
L 524.69149 102.79693 
L 530.558209 107.093452 
L 536.424928 111.124255 
L 542.600422 115.098192 
L 548.775917 118.813856 
L 555.260185 122.455687 
L 561.744454 125.849408 
L 568.537498 129.157021 
L 575.639316 132.363264 
L 583.049909 135.454966 
L 590.460501 138.307141 
L 598.179869 141.043441 
L 606.208011 143.655585 
L 614.544928 146.137168 
L 623.19062 148.483586 
L 632.453861 150.764321 
L 642.025877 152.891584 
L 652.215442 154.925365 
L 663.022557 156.849663 
L 674.447221 158.652278 
L 686.489434 160.324702 
L 699.457972 161.896808 
L 713.352833 163.35234 
L 728.174019 164.68051 
L 744.539079 165.918451 
L 762.448011 167.043 
L 782.209592 168.054269 
L 804.132596 168.948891 
L 810.92564 169.185494 
L 810.92564 169.185494 
" clip-path="url(#p6a49f5e290)" style="fill: none; stroke: #0000ff; stroke-width: 2; stroke-linecap: square"/>
   </g>
   <g id="line2d_41">
    <path d="M 502.150936 83.485024 
L 507.708881 88.695551 
L 513.266826 93.600286 
L 518.82477 98.217175 
L 524.69149 102.79693 
L 530.558209 107.093451 
L 536.424928 111.124255 
L 542.600422 115.098192 
L 548.775917 118.813855 
L 555.260185 122.455687 
L 561.744454 125.849407 
L 568.537498 129.157021 
L 575.639316 132.363264 
L 583.049909 135.454966 
L 590.460501 138.30714 
L 598.179869 141.043441 
L 606.208011 143.655585 
L 614.544928 146.137168 
L 623.19062 148.483586 
L 632.453861 150.764321 
L 642.025877 152.891584 
L 652.215442 154.925365 
L 663.022557 156.849663 
L 674.447221 158.652278 
L 686.489434 160.324702 
L 699.457972 161.896808 
L 713.352833 163.35234 
L 728.174019 164.68051 
L 744.539079 165.918451 
L 762.448011 167.043 
L 782.209592 168.054269 
L 804.132596 168.948891 
L 810.92564 169.185494 
L 810.92564 169.185494 
" clip-path="url(#p6a49f5e290)" style="fill: none; stroke: #1f77b4; stroke-width: 2; stroke-linecap: square"/>
   </g>
   <g id="line2d_42">
    <path d="M 502.150936 83.485024 
L 507.708881 88.695551 
L 513.266826 93.600286 
L 518.82477 98.217174 
L 524.69149 102.79693 
L 530.558209 107.093452 
L 536.424928 111.124255 
L 542.600422 115.098192 
L 548.775917 118.813855 
L 555.260185 122.455687 
L 561.744454 125.849407 
L 568.537498 129.157021 
L 575.639316 132.363264 
L 583.049909 135.454966 
L 590.460501 138.30714 
L 598.179869 141.043441 
L 606.208011 143.655585 
L 614.544928 146.137168 
L 623.19062 148.483586 
L 632.453861 150.764321 
L 642.025877 152.891584 
L 652.215442 154.925365 
L 663.022557 156.849663 
L 674.447221 158.652278 
L 686.489434 160.324702 
L 699.457972 161.896808 
L 713.352833 163.35234 
L 728.174019 164.68051 
L 744.539079 165.918451 
L 762.448011 167.043 
L 782.209592 168.054269 
L 804.132596 168.948891 
L 810.92564 169.185494 
L 810.92564 169.185494 
" clip-path="url(#p6a49f5e290)" style="fill: none; stroke: #000000; stroke-width: 2; stroke-linecap: square"/>
   </g>
   <g id="line2d_43">
    <path d="M 502.150936 83.485024 
L 507.708881 88.695551 
L 513.266826 93.600286 
L 518.82477 98.217175 
L 524.69149 102.79693 
L 530.558209 107.093452 
L 536.424928 111.124255 
L 542.600422 115.098192 
L 548.775917 118.813856 
L 555.260185 122.455687 
L 561.744454 125.849408 
L 568.537498 129.157021 
L 575.639316 132.363264 
L 583.049909 135.454966 
L 590.460501 138.307141 
L 598.179869 141.043441 
L 606.208011 143.655585 
L 614.544928 146.137168 
L 623.19062 148.483586 
L 632.453861 150.764321 
L 642.025877 152.891584 
L 652.215442 154.925365 
L 663.022557 156.849663 
L 674.447221 158.652278 
L 686.489434 160.324702 
L 699.457972 161.896808 
L 713.352833 163.35234 
L 728.174019 164.68051 
L 744.539079 165.918451 
L 762.448011 167.043 
L 782.209592 168.054269 
L 804.132596 168.948891 
L 810.92564 169.185494 
L 810.92564 169.185494 
" clip-path="url(#p6a49f5e290)" style="fill: none; stroke: #d62728; stroke-width: 2; stroke-linecap: square"/>
   </g>
   <g id="line2d_44">
    <path d="M 502.150936 83.485024 
L 507.708881 88.695551 
L 513.266826 93.600286 
L 518.82477 98.217174 
L 524.69149 102.79693 
L 530.558209 107.093451 
L 536.424928 111.124254 
L 542.600422 115.098191 
L 548.775917 118.813855 
L 555.260185 122.455687 
L 561.744454 125.849407 
L 568.537498 129.157021 
L 575.639316 132.363264 
L 583.049909 135.454966 
L 590.460501 138.30714 
L 598.179869 141.04344 
L 606.208011 143.655585 
L 614.544928 146.137168 
L 623.19062 148.483586 
L 632.453861 150.764321 
L 642.025877 152.891584 
L 652.215442 154.925365 
L 663.022557 156.849662 
L 674.447221 158.652278 
L 686.489434 160.324702 
L 699.457972 161.896808 
L 713.352833 163.35234 
L 728.174019 164.68051 
L 744.539079 165.918451 
L 762.448011 167.043 
L 782.209592 168.054269 
L 804.132596 168.948891 
L 810.92564 169.185494 
L 810.92564 169.185494 
" clip-path="url(#p6a49f5e290)" style="fill: none; stroke: #ff0000; stroke-width: 2; stroke-linecap: square"/>
   </g>
   <g id="patch_9">
    <path d="M 486.712201 320.243478 
L 486.712201 79.2 
" style="fill: none; stroke: #000000; stroke-width: 0.8; stroke-linejoin: miter; stroke-linecap: square"/>
   </g>
   <g id="patch_10">
    <path d="M 826.364375 320.243478 
L 826.364375 79.2 
" style="fill: none; stroke: #000000; stroke-width: 0.8; stroke-linejoin: miter; stroke-linecap: square"/>
   </g>
   <g id="patch_11">
    <path d="M 486.712201 320.243478 
L 826.364375 320.243478 
" style="fill: none; stroke: #000000; stroke-width: 0.8; stroke-linejoin: miter; stroke-linecap: square"/>
   </g>
   <g id="patch_12">
    <path d="M 486.712201 79.2 
L 826.364375 79.2 
" style="fill: none; stroke: #000000; stroke-width: 0.8; stroke-linejoin: miter; stroke-linecap: square"/>
   </g>
   <g id="legend_2">
    <g id="patch_13">
     <path d="M 495.812201 313.743478 
L 599.600951 313.743478 
Q 602.200951 313.743478 602.200951 311.143478 
L 602.200951 217.035666 
Q 602.200951 214.435666 599.600951 214.435666 
L 495.812201 214.435666 
Q 493.212201 214.435666 493.212201 217.035666 
L 493.212201 311.143478 
Q 493.212201 313.743478 495.812201 313.743478 
z
" style="fill: #ffffff; opacity: 0.8; stroke: #cccccc; stroke-linejoin: miter"/>
    </g>
    <g id="line2d_45">
     <path d="M 498.412201 224.963635 
L 524.412201 224.963635 
" style="fill: none; stroke: #0000ff; stroke-width: 2; stroke-linecap: square"/>
    </g>
    <g id="line2d_46"/>
    <g id="text_34">
     <!-- 5 percent -->
     <g transform="translate(534.812201 229.513635) scale(0.13 -0.13)">
      <use xlink:href="#DejaVuSans-35"/>
      <use xlink:href="#DejaVuSans-20" transform="translate(63.623047 0)"/>
      <use xlink:href="#DejaVuSans-70" transform="translate(95.410156 0)"/>
      <use xlink:href="#DejaVuSans-65" transform="translate(158.886719 0)"/>
      <use xlink:href="#DejaVuSans-72" transform="translate(220.410156 0)"/>
      <use xlink:href="#DejaVuSans-63" transform="translate(259.273438 0)"/>
      <use xlink:href="#DejaVuSans-65" transform="translate(314.253906 0)"/>
      <use xlink:href="#DejaVuSans-6e" transform="translate(375.777344 0)"/>
      <use xlink:href="#DejaVuSans-74" transform="translate(439.15625 0)"/>
     </g>
    </g>
    <g id="line2d_47">
     <path d="M 498.412201 244.045197 
L 524.412201 244.045197 
" style="fill: none; stroke: #1f77b4; stroke-width: 2; stroke-linecap: square"/>
    </g>
    <g id="line2d_48"/>
    <g id="text_35">
     <!-- 6 percent -->
     <g transform="translate(534.812201 248.595197) scale(0.13 -0.13)">
      <use xlink:href="#DejaVuSans-36"/>
      <use xlink:href="#DejaVuSans-20" transform="translate(63.623047 0)"/>
      <use xlink:href="#DejaVuSans-70" transform="translate(95.410156 0)"/>
      <use xlink:href="#DejaVuSans-65" transform="translate(158.886719 0)"/>
      <use xlink:href="#DejaVuSans-72" transform="translate(220.410156 0)"/>
      <use xlink:href="#DejaVuSans-63" transform="translate(259.273438 0)"/>
      <use xlink:href="#DejaVuSans-65" transform="translate(314.253906 0)"/>
      <use xlink:href="#DejaVuSans-6e" transform="translate(375.777344 0)"/>
      <use xlink:href="#DejaVuSans-74" transform="translate(439.15625 0)"/>
     </g>
    </g>
    <g id="line2d_49">
     <path d="M 498.412201 263.12676 
L 524.412201 263.12676 
" style="fill: none; stroke: #000000; stroke-width: 2; stroke-linecap: square"/>
    </g>
    <g id="line2d_50"/>
    <g id="text_36">
     <!-- 7 percent -->
     <g transform="translate(534.812201 267.67676) scale(0.13 -0.13)">
      <use xlink:href="#DejaVuSans-37"/>
      <use xlink:href="#DejaVuSans-20" transform="translate(63.623047 0)"/>
      <use xlink:href="#DejaVuSans-70" transform="translate(95.410156 0)"/>
      <use xlink:href="#DejaVuSans-65" transform="translate(158.886719 0)"/>
      <use xlink:href="#DejaVuSans-72" transform="translate(220.410156 0)"/>
      <use xlink:href="#DejaVuSans-63" transform="translate(259.273438 0)"/>
      <use xlink:href="#DejaVuSans-65" transform="translate(314.253906 0)"/>
      <use xlink:href="#DejaVuSans-6e" transform="translate(375.777344 0)"/>
      <use xlink:href="#DejaVuSans-74" transform="translate(439.15625 0)"/>
     </g>
    </g>
    <g id="line2d_51">
     <path d="M 498.412201 282.208322 
L 524.412201 282.208322 
" style="fill: none; stroke: #d62728; stroke-width: 2; stroke-linecap: square"/>
    </g>
    <g id="line2d_52"/>
    <g id="text_37">
     <!-- 8 percent -->
     <g transform="translate(534.812201 286.758322) scale(0.13 -0.13)">
      <use xlink:href="#DejaVuSans-38"/>
      <use xlink:href="#DejaVuSans-20" transform="translate(63.623047 0)"/>
      <use xlink:href="#DejaVuSans-70" transform="translate(95.410156 0)"/>
      <use xlink:href="#DejaVuSans-65" transform="translate(158.886719 0)"/>
      <use xlink:href="#DejaVuSans-72" transform="translate(220.410156 0)"/>
      <use xlink:href="#DejaVuSans-63" transform="translate(259.273438 0)"/>
      <use xlink:href="#DejaVuSans-65" transform="translate(314.253906 0)"/>
      <use xlink:href="#DejaVuSans-6e" transform="translate(375.777344 0)"/>
      <use xlink:href="#DejaVuSans-74" transform="translate(439.15625 0)"/>
     </g>
    </g>
    <g id="line2d_53">
     <path d="M 498.412201 301.289885 
L 524.412201 301.289885 
" style="fill: none; stroke: #ff0000; stroke-width: 2; stroke-linecap: square"/>
    </g>
    <g id="line2d_54"/>
    <g id="text_38">
     <!-- 9 percent -->
     <g transform="translate(534.812201 305.839885) scale(0.13 -0.13)">
      <use xlink:href="#DejaVuSans-39"/>
      <use xlink:href="#DejaVuSans-20" transform="translate(63.623047 0)"/>
      <use xlink:href="#DejaVuSans-70" transform="translate(95.410156 0)"/>
      <use xlink:href="#DejaVuSans-65" transform="translate(158.886719 0)"/>
      <use xlink:href="#DejaVuSans-72" transform="translate(220.410156 0)"/>
      <use xlink:href="#DejaVuSans-63" transform="translate(259.273438 0)"/>
      <use xlink:href="#DejaVuSans-65" transform="translate(314.253906 0)"/>
      <use xlink:href="#DejaVuSans-6e" transform="translate(375.777344 0)"/>
      <use xlink:href="#DejaVuSans-74" transform="translate(439.15625 0)"/>
     </g>
    </g>
   </g>
  </g>
  <g id="axes_3">
   <g id="patch_14">
    <path d="M 45.164375 633.6 
L 384.816549 633.6 
L 384.816549 392.556522 
L 45.164375 392.556522 
z
" style="fill: #ffffff"/>
   </g>
   <g id="matplotlib.axis_5">
    <g id="xtick_15">
     <g id="line2d_55">
      <g>
       <use xlink:href="#m79d796b0c2" x="60.60311" y="633.6" style="stroke: #000000; stroke-width: 0.8"/>
      </g>
     </g>
     <g id="text_39">
      <!-- 0 -->
      <g transform="translate(55.831235 651.997656) scale(0.15 -0.15)">
       <use xlink:href="#DejaVuSans-30"/>
      </g>
     </g>
    </g>
    <g id="xtick_16">
     <g id="line2d_56">
      <g>
       <use xlink:href="#m79d796b0c2" x="114.307853" y="633.6" style="stroke: #000000; stroke-width: 0.8"/>
      </g>
     </g>
     <g id="text_40">
      <!-- 2 -->
      <g transform="translate(109.535978 651.997656) scale(0.15 -0.15)">
       <use xlink:href="#DejaVuSans-32"/>
      </g>
     </g>
    </g>
    <g id="xtick_17">
     <g id="line2d_57">
      <g>
       <use xlink:href="#m79d796b0c2" x="168.012596" y="633.6" style="stroke: #000000; stroke-width: 0.8"/>
      </g>
     </g>
     <g id="text_41">
      <!-- 4 -->
      <g transform="translate(163.240721 651.997656) scale(0.15 -0.15)">
       <use xlink:href="#DejaVuSans-34"/>
      </g>
     </g>
    </g>
    <g id="xtick_18">
     <g id="line2d_58">
      <g>
       <use xlink:href="#m79d796b0c2" x="221.717339" y="633.6" style="stroke: #000000; stroke-width: 0.8"/>
      </g>
     </g>
     <g id="text_42">
      <!-- 6 -->
      <g transform="translate(216.945464 651.997656) scale(0.15 -0.15)">
       <use xlink:href="#DejaVuSans-36"/>
      </g>
     </g>
    </g>
    <g id="xtick_19">
     <g id="line2d_59">
      <g>
       <use xlink:href="#m79d796b0c2" x="275.422083" y="633.6" style="stroke: #000000; stroke-width: 0.8"/>
      </g>
     </g>
     <g id="text_43">
      <!-- 8 -->
      <g transform="translate(270.650208 651.997656) scale(0.15 -0.15)">
       <use xlink:href="#DejaVuSans-38"/>
      </g>
     </g>
    </g>
    <g id="xtick_20">
     <g id="line2d_60">
      <g>
       <use xlink:href="#m79d796b0c2" x="329.126826" y="633.6" style="stroke: #000000; stroke-width: 0.8"/>
      </g>
     </g>
     <g id="text_44">
      <!-- 10 -->
      <g transform="translate(319.583076 651.997656) scale(0.15 -0.15)">
       <use xlink:href="#DejaVuSans-31"/>
       <use xlink:href="#DejaVuSans-30" transform="translate(63.623047 0)"/>
      </g>
     </g>
    </g>
    <g id="xtick_21">
     <g id="line2d_61">
      <g>
       <use xlink:href="#m79d796b0c2" x="382.831569" y="633.6" style="stroke: #000000; stroke-width: 0.8"/>
      </g>
     </g>
     <g id="text_45">
      <!-- 12 -->
      <g transform="translate(373.287819 651.997656) scale(0.15 -0.15)">
       <use xlink:href="#DejaVuSans-31"/>
       <use xlink:href="#DejaVuSans-32" transform="translate(63.623047 0)"/>
      </g>
     </g>
    </g>
    <g id="text_46">
     <!-- time [month] -->
     <g transform="translate(148.083899 672.794375) scale(0.18 -0.18)">
      <use xlink:href="#DejaVuSans-Bold-74"/>
      <use xlink:href="#DejaVuSans-Bold-69" transform="translate(47.802734 0)"/>
      <use xlink:href="#DejaVuSans-Bold-6d" transform="translate(82.080078 0)"/>
      <use xlink:href="#DejaVuSans-Bold-65" transform="translate(186.279297 0)"/>
      <use xlink:href="#DejaVuSans-Bold-20" transform="translate(254.101562 0)"/>
      <use xlink:href="#DejaVuSans-Bold-5b" transform="translate(288.916016 0)"/>
      <use xlink:href="#DejaVuSans-Bold-6d" transform="translate(334.619141 0)"/>
      <use xlink:href="#DejaVuSans-Bold-6f" transform="translate(438.818359 0)"/>
      <use xlink:href="#DejaVuSans-Bold-6e" transform="translate(507.519531 0)"/>
      <use xlink:href="#DejaVuSans-Bold-74" transform="translate(578.710938 0)"/>
      <use xlink:href="#DejaVuSans-Bold-68" transform="translate(626.513672 0)"/>
      <use xlink:href="#DejaVuSans-Bold-5d" transform="translate(697.705078 0)"/>
     </g>
    </g>
   </g>
   <g id="matplotlib.axis_6">
    <g id="ytick_11">
     <g id="line2d_62">
      <g>
       <use xlink:href="#mcff1ee1aa5" x="45.164375" y="633.6" style="stroke: #000000; stroke-width: 0.8"/>
      </g>
     </g>
     <g id="text_47">
      <!-- 0 -->
      <g transform="translate(28.620625 639.298828) scale(0.15 -0.15)">
       <use xlink:href="#DejaVuSans-30"/>
      </g>
     </g>
    </g>
    <g id="ytick_12">
     <g id="line2d_63">
      <g>
       <use xlink:href="#mcff1ee1aa5" x="45.164375" y="581.199244" style="stroke: #000000; stroke-width: 0.8"/>
      </g>
     </g>
     <g id="text_48">
      <!-- 2 -->
      <g transform="translate(28.620625 586.898072) scale(0.15 -0.15)">
       <use xlink:href="#DejaVuSans-32"/>
      </g>
     </g>
    </g>
    <g id="ytick_13">
     <g id="line2d_64">
      <g>
       <use xlink:href="#mcff1ee1aa5" x="45.164375" y="528.798488" style="stroke: #000000; stroke-width: 0.8"/>
      </g>
     </g>
     <g id="text_49">
      <!-- 4 -->
      <g transform="translate(28.620625 534.497316) scale(0.15 -0.15)">
       <use xlink:href="#DejaVuSans-34"/>
      </g>
     </g>
    </g>
    <g id="ytick_14">
     <g id="line2d_65">
      <g>
       <use xlink:href="#mcff1ee1aa5" x="45.164375" y="476.397732" style="stroke: #000000; stroke-width: 0.8"/>
      </g>
     </g>
     <g id="text_50">
      <!-- 6 -->
      <g transform="translate(28.620625 482.09656) scale(0.15 -0.15)">
       <use xlink:href="#DejaVuSans-36"/>
      </g>
     </g>
    </g>
    <g id="ytick_15">
     <g id="line2d_66">
      <g>
       <use xlink:href="#mcff1ee1aa5" x="45.164375" y="423.996975" style="stroke: #000000; stroke-width: 0.8"/>
      </g>
     </g>
     <g id="text_51">
      <!-- 8 -->
      <g transform="translate(28.620625 429.695804) scale(0.15 -0.15)">
       <use xlink:href="#DejaVuSans-38"/>
      </g>
     </g>
    </g>
    <g id="text_52">
     <!-- initial HbA1c [percent] -->
     <g transform="translate(20.877188 628.364042) rotate(-90) scale(0.18 -0.18)">
      <defs>
       <path id="DejaVuSans-Bold-48" d="M 588 4666 
L 1791 4666 
L 1791 2888 
L 3566 2888 
L 3566 4666 
L 4769 4666 
L 4769 0 
L 3566 0 
L 3566 1978 
L 1791 1978 
L 1791 0 
L 588 0 
L 588 4666 
z
" transform="scale(0.015625)"/>
       <path id="DejaVuSans-Bold-62" d="M 2400 722 
Q 2759 722 2948 984 
Q 3138 1247 3138 1747 
Q 3138 2247 2948 2509 
Q 2759 2772 2400 2772 
Q 2041 2772 1848 2508 
Q 1656 2244 1656 1747 
Q 1656 1250 1848 986 
Q 2041 722 2400 722 
z
M 1656 2988 
Q 1888 3294 2169 3439 
Q 2450 3584 2816 3584 
Q 3463 3584 3878 3070 
Q 4294 2556 4294 1747 
Q 4294 938 3878 423 
Q 3463 -91 2816 -91 
Q 2450 -91 2169 54 
Q 1888 200 1656 506 
L 1656 0 
L 538 0 
L 538 4863 
L 1656 4863 
L 1656 2988 
z
" transform="scale(0.015625)"/>
       <path id="DejaVuSans-Bold-41" d="M 3419 850 
L 1538 850 
L 1241 0 
L 31 0 
L 1759 4666 
L 3194 4666 
L 4922 0 
L 3713 0 
L 3419 850 
z
M 1838 1716 
L 3116 1716 
L 2478 3572 
L 1838 1716 
z
" transform="scale(0.015625)"/>
       <path id="DejaVuSans-Bold-31" d="M 750 831 
L 1813 831 
L 1813 3847 
L 722 3622 
L 722 4441 
L 1806 4666 
L 2950 4666 
L 2950 831 
L 4013 831 
L 4013 0 
L 750 0 
L 750 831 
z
" transform="scale(0.015625)"/>
       <path id="DejaVuSans-Bold-63" d="M 3366 3391 
L 3366 2478 
Q 3138 2634 2908 2709 
Q 2678 2784 2431 2784 
Q 1963 2784 1702 2511 
Q 1441 2238 1441 1747 
Q 1441 1256 1702 982 
Q 1963 709 2431 709 
Q 2694 709 2930 787 
Q 3166 866 3366 1019 
L 3366 103 
Q 3103 6 2833 -42 
Q 2563 -91 2291 -91 
Q 1344 -91 809 395 
Q 275 881 275 1747 
Q 275 2613 809 3098 
Q 1344 3584 2291 3584 
Q 2566 3584 2833 3536 
Q 3100 3488 3366 3391 
z
" transform="scale(0.015625)"/>
       <path id="DejaVuSans-Bold-70" d="M 1656 506 
L 1656 -1331 
L 538 -1331 
L 538 3500 
L 1656 3500 
L 1656 2988 
Q 1888 3294 2169 3439 
Q 2450 3584 2816 3584 
Q 3463 3584 3878 3070 
Q 4294 2556 4294 1747 
Q 4294 938 3878 423 
Q 3463 -91 2816 -91 
Q 2450 -91 2169 54 
Q 1888 200 1656 506 
z
M 2400 2772 
Q 2041 2772 1848 2508 
Q 1656 2244 1656 1747 
Q 1656 1250 1848 986 
Q 2041 722 2400 722 
Q 2759 722 2948 984 
Q 3138 1247 3138 1747 
Q 3138 2247 2948 2509 
Q 2759 2772 2400 2772 
z
" transform="scale(0.015625)"/>
       <path id="DejaVuSans-Bold-72" d="M 3138 2547 
Q 2991 2616 2845 2648 
Q 2700 2681 2553 2681 
Q 2122 2681 1889 2404 
Q 1656 2128 1656 1613 
L 1656 0 
L 538 0 
L 538 3500 
L 1656 3500 
L 1656 2925 
Q 1872 3269 2151 3426 
Q 2431 3584 2822 3584 
Q 2878 3584 2943 3579 
Q 3009 3575 3134 3559 
L 3138 2547 
z
" transform="scale(0.015625)"/>
      </defs>
      <use xlink:href="#DejaVuSans-Bold-69"/>
      <use xlink:href="#DejaVuSans-Bold-6e" transform="translate(34.277344 0)"/>
      <use xlink:href="#DejaVuSans-Bold-69" transform="translate(105.46875 0)"/>
      <use xlink:href="#DejaVuSans-Bold-74" transform="translate(139.746094 0)"/>
      <use xlink:href="#DejaVuSans-Bold-69" transform="translate(187.548828 0)"/>
      <use xlink:href="#DejaVuSans-Bold-61" transform="translate(221.826172 0)"/>
      <use xlink:href="#DejaVuSans-Bold-6c" transform="translate(289.306641 0)"/>
      <use xlink:href="#DejaVuSans-Bold-20" transform="translate(323.583984 0)"/>
      <use xlink:href="#DejaVuSans-Bold-48" transform="translate(358.398438 0)"/>
      <use xlink:href="#DejaVuSans-Bold-62" transform="translate(442.089844 0)"/>
      <use xlink:href="#DejaVuSans-Bold-41" transform="translate(513.671875 0)"/>
      <use xlink:href="#DejaVuSans-Bold-31" transform="translate(591.064453 0)"/>
      <use xlink:href="#DejaVuSans-Bold-63" transform="translate(660.644531 0)"/>
      <use xlink:href="#DejaVuSans-Bold-20" transform="translate(719.921875 0)"/>
      <use xlink:href="#DejaVuSans-Bold-5b" transform="translate(754.736328 0)"/>
      <use xlink:href="#DejaVuSans-Bold-70" transform="translate(800.439453 0)"/>
      <use xlink:href="#DejaVuSans-Bold-65" transform="translate(872.021484 0)"/>
      <use xlink:href="#DejaVuSans-Bold-72" transform="translate(939.84375 0)"/>
      <use xlink:href="#DejaVuSans-Bold-63" transform="translate(989.160156 0)"/>
      <use xlink:href="#DejaVuSans-Bold-65" transform="translate(1048.4375 0)"/>
      <use xlink:href="#DejaVuSans-Bold-6e" transform="translate(1116.259766 0)"/>
      <use xlink:href="#DejaVuSans-Bold-74" transform="translate(1187.451172 0)"/>
      <use xlink:href="#DejaVuSans-Bold-5d" transform="translate(1235.253906 0)"/>
     </g>
    </g>
   </g>
   <g id="line2d_67">
    <path d="M 60.60311 502.59811 
L 369.377814 502.59811 
L 369.377814 502.59811 
" clip-path="url(#p8c4c1ed481)" style="fill: none; stroke: #0000ff; stroke-width: 2; stroke-linecap: square"/>
   </g>
   <g id="line2d_68">
    <path d="M 60.60311 476.397732 
L 369.377814 476.397732 
L 369.377814 476.397732 
" clip-path="url(#p8c4c1ed481)" style="fill: none; stroke: #1f77b4; stroke-width: 2; stroke-linecap: square"/>
   </g>
   <g id="line2d_69">
    <path d="M 60.60311 450.197353 
L 369.377814 450.197353 
L 369.377814 450.197353 
" clip-path="url(#p8c4c1ed481)" style="fill: none; stroke: #000000; stroke-width: 2; stroke-linecap: square"/>
   </g>
   <g id="line2d_70">
    <path d="M 60.60311 423.996975 
L 369.377814 423.996975 
L 369.377814 423.996975 
" clip-path="url(#p8c4c1ed481)" style="fill: none; stroke: #d62728; stroke-width: 2; stroke-linecap: square"/>
   </g>
   <g id="line2d_71">
    <path d="M 60.60311 397.796597 
L 369.377814 397.796597 
L 369.377814 397.796597 
" clip-path="url(#p8c4c1ed481)" style="fill: none; stroke: #ff0000; stroke-width: 2; stroke-linecap: square"/>
   </g>
   <g id="patch_15">
    <path d="M 45.164375 633.6 
L 45.164375 392.556522 
" style="fill: none; stroke: #000000; stroke-width: 0.8; stroke-linejoin: miter; stroke-linecap: square"/>
   </g>
   <g id="patch_16">
    <path d="M 384.816549 633.6 
L 384.816549 392.556522 
" style="fill: none; stroke: #000000; stroke-width: 0.8; stroke-linejoin: miter; stroke-linecap: square"/>
   </g>
   <g id="patch_17">
    <path d="M 45.164375 633.6 
L 384.816549 633.6 
" style="fill: none; stroke: #000000; stroke-width: 0.8; stroke-linejoin: miter; stroke-linecap: square"/>
   </g>
   <g id="patch_18">
    <path d="M 45.164375 392.556522 
L 384.816549 392.556522 
" style="fill: none; stroke: #000000; stroke-width: 0.8; stroke-linejoin: miter; stroke-linecap: square"/>
   </g>
   <g id="legend_3">
    <g id="patch_19">
     <path d="M 54.264375 627.1 
L 158.053125 627.1 
Q 160.653125 627.1 160.653125 624.5 
L 160.653125 530.392187 
Q 160.653125 527.792187 158.053125 527.792187 
L 54.264375 527.792187 
Q 51.664375 527.792187 51.664375 530.392187 
L 51.664375 624.5 
Q 51.664375 627.1 54.264375 627.1 
z
" style="fill: #ffffff; opacity: 0.8; stroke: #cccccc; stroke-linejoin: miter"/>
    </g>
    <g id="line2d_72">
     <path d="M 56.864375 538.320156 
L 82.864375 538.320156 
" style="fill: none; stroke: #0000ff; stroke-width: 2; stroke-linecap: square"/>
    </g>
    <g id="line2d_73"/>
    <g id="text_53">
     <!-- 5 percent -->
     <g transform="translate(93.264375 542.870156) scale(0.13 -0.13)">
      <use xlink:href="#DejaVuSans-35"/>
      <use xlink:href="#DejaVuSans-20" transform="translate(63.623047 0)"/>
      <use xlink:href="#DejaVuSans-70" transform="translate(95.410156 0)"/>
      <use xlink:href="#DejaVuSans-65" transform="translate(158.886719 0)"/>
      <use xlink:href="#DejaVuSans-72" transform="translate(220.410156 0)"/>
      <use xlink:href="#DejaVuSans-63" transform="translate(259.273438 0)"/>
      <use xlink:href="#DejaVuSans-65" transform="translate(314.253906 0)"/>
      <use xlink:href="#DejaVuSans-6e" transform="translate(375.777344 0)"/>
      <use xlink:href="#DejaVuSans-74" transform="translate(439.15625 0)"/>
     </g>
    </g>
    <g id="line2d_74">
     <path d="M 56.864375 557.401719 
L 82.864375 557.401719 
" style="fill: none; stroke: #1f77b4; stroke-width: 2; stroke-linecap: square"/>
    </g>
    <g id="line2d_75"/>
    <g id="text_54">
     <!-- 6 percent -->
     <g transform="translate(93.264375 561.951719) scale(0.13 -0.13)">
      <use xlink:href="#DejaVuSans-36"/>
      <use xlink:href="#DejaVuSans-20" transform="translate(63.623047 0)"/>
      <use xlink:href="#DejaVuSans-70" transform="translate(95.410156 0)"/>
      <use xlink:href="#DejaVuSans-65" transform="translate(158.886719 0)"/>
      <use xlink:href="#DejaVuSans-72" transform="translate(220.410156 0)"/>
      <use xlink:href="#DejaVuSans-63" transform="translate(259.273438 0)"/>
      <use xlink:href="#DejaVuSans-65" transform="translate(314.253906 0)"/>
      <use xlink:href="#DejaVuSans-6e" transform="translate(375.777344 0)"/>
      <use xlink:href="#DejaVuSans-74" transform="translate(439.15625 0)"/>
     </g>
    </g>
    <g id="line2d_76">
     <path d="M 56.864375 576.483281 
L 82.864375 576.483281 
" style="fill: none; stroke: #000000; stroke-width: 2; stroke-linecap: square"/>
    </g>
    <g id="line2d_77"/>
    <g id="text_55">
     <!-- 7 percent -->
     <g transform="translate(93.264375 581.033281) scale(0.13 -0.13)">
      <use xlink:href="#DejaVuSans-37"/>
      <use xlink:href="#DejaVuSans-20" transform="translate(63.623047 0)"/>
      <use xlink:href="#DejaVuSans-70" transform="translate(95.410156 0)"/>
      <use xlink:href="#DejaVuSans-65" transform="translate(158.886719 0)"/>
      <use xlink:href="#DejaVuSans-72" transform="translate(220.410156 0)"/>
      <use xlink:href="#DejaVuSans-63" transform="translate(259.273438 0)"/>
      <use xlink:href="#DejaVuSans-65" transform="translate(314.253906 0)"/>
      <use xlink:href="#DejaVuSans-6e" transform="translate(375.777344 0)"/>
      <use xlink:href="#DejaVuSans-74" transform="translate(439.15625 0)"/>
     </g>
    </g>
    <g id="line2d_78">
     <path d="M 56.864375 595.564844 
L 82.864375 595.564844 
" style="fill: none; stroke: #d62728; stroke-width: 2; stroke-linecap: square"/>
    </g>
    <g id="line2d_79"/>
    <g id="text_56">
     <!-- 8 percent -->
     <g transform="translate(93.264375 600.114844) scale(0.13 -0.13)">
      <use xlink:href="#DejaVuSans-38"/>
      <use xlink:href="#DejaVuSans-20" transform="translate(63.623047 0)"/>
      <use xlink:href="#DejaVuSans-70" transform="translate(95.410156 0)"/>
      <use xlink:href="#DejaVuSans-65" transform="translate(158.886719 0)"/>
      <use xlink:href="#DejaVuSans-72" transform="translate(220.410156 0)"/>
      <use xlink:href="#DejaVuSans-63" transform="translate(259.273438 0)"/>
      <use xlink:href="#DejaVuSans-65" transform="translate(314.253906 0)"/>
      <use xlink:href="#DejaVuSans-6e" transform="translate(375.777344 0)"/>
      <use xlink:href="#DejaVuSans-74" transform="translate(439.15625 0)"/>
     </g>
    </g>
    <g id="line2d_80">
     <path d="M 56.864375 614.646406 
L 82.864375 614.646406 
" style="fill: none; stroke: #ff0000; stroke-width: 2; stroke-linecap: square"/>
    </g>
    <g id="line2d_81"/>
    <g id="text_57">
     <!-- 9 percent -->
     <g transform="translate(93.264375 619.196406) scale(0.13 -0.13)">
      <use xlink:href="#DejaVuSans-39"/>
      <use xlink:href="#DejaVuSans-20" transform="translate(63.623047 0)"/>
      <use xlink:href="#DejaVuSans-70" transform="translate(95.410156 0)"/>
      <use xlink:href="#DejaVuSans-65" transform="translate(158.886719 0)"/>
      <use xlink:href="#DejaVuSans-72" transform="translate(220.410156 0)"/>
      <use xlink:href="#DejaVuSans-63" transform="translate(259.273438 0)"/>
      <use xlink:href="#DejaVuSans-65" transform="translate(314.253906 0)"/>
      <use xlink:href="#DejaVuSans-6e" transform="translate(375.777344 0)"/>
      <use xlink:href="#DejaVuSans-74" transform="translate(439.15625 0)"/>
     </g>
    </g>
   </g>
  </g>
  <g id="axes_4">
   <g id="patch_20">
    <path d="M 486.712201 633.6 
L 826.364375 633.6 
L 826.364375 392.556522 
L 486.712201 392.556522 
z
" style="fill: #ffffff"/>
   </g>
   <g id="matplotlib.axis_7">
    <g id="xtick_22">
     <g id="line2d_82">
      <g>
       <use xlink:href="#m79d796b0c2" x="502.150936" y="633.6" style="stroke: #000000; stroke-width: 0.8"/>
      </g>
     </g>
     <g id="text_58">
      <!-- 0 -->
      <g transform="translate(497.379061 651.997656) scale(0.15 -0.15)">
       <use xlink:href="#DejaVuSans-30"/>
      </g>
     </g>
    </g>
    <g id="xtick_23">
     <g id="line2d_83">
      <g>
       <use xlink:href="#m79d796b0c2" x="555.855679" y="633.6" style="stroke: #000000; stroke-width: 0.8"/>
      </g>
     </g>
     <g id="text_59">
      <!-- 2 -->
      <g transform="translate(551.083804 651.997656) scale(0.15 -0.15)">
       <use xlink:href="#DejaVuSans-32"/>
      </g>
     </g>
    </g>
    <g id="xtick_24">
     <g id="line2d_84">
      <g>
       <use xlink:href="#m79d796b0c2" x="609.560422" y="633.6" style="stroke: #000000; stroke-width: 0.8"/>
      </g>
     </g>
     <g id="text_60">
      <!-- 4 -->
      <g transform="translate(604.788547 651.997656) scale(0.15 -0.15)">
       <use xlink:href="#DejaVuSans-34"/>
      </g>
     </g>
    </g>
    <g id="xtick_25">
     <g id="line2d_85">
      <g>
       <use xlink:href="#m79d796b0c2" x="663.265166" y="633.6" style="stroke: #000000; stroke-width: 0.8"/>
      </g>
     </g>
     <g id="text_61">
      <!-- 6 -->
      <g transform="translate(658.493291 651.997656) scale(0.15 -0.15)">
       <use xlink:href="#DejaVuSans-36"/>
      </g>
     </g>
    </g>
    <g id="xtick_26">
     <g id="line2d_86">
      <g>
       <use xlink:href="#m79d796b0c2" x="716.969909" y="633.6" style="stroke: #000000; stroke-width: 0.8"/>
      </g>
     </g>
     <g id="text_62">
      <!-- 8 -->
      <g transform="translate(712.198034 651.997656) scale(0.15 -0.15)">
       <use xlink:href="#DejaVuSans-38"/>
      </g>
     </g>
    </g>
    <g id="xtick_27">
     <g id="line2d_87">
      <g>
       <use xlink:href="#m79d796b0c2" x="770.674652" y="633.6" style="stroke: #000000; stroke-width: 0.8"/>
      </g>
     </g>
     <g id="text_63">
      <!-- 10 -->
      <g transform="translate(761.130902 651.997656) scale(0.15 -0.15)">
       <use xlink:href="#DejaVuSans-31"/>
       <use xlink:href="#DejaVuSans-30" transform="translate(63.623047 0)"/>
      </g>
     </g>
    </g>
    <g id="xtick_28">
     <g id="line2d_88">
      <g>
       <use xlink:href="#m79d796b0c2" x="824.379395" y="633.6" style="stroke: #000000; stroke-width: 0.8"/>
      </g>
     </g>
     <g id="text_64">
      <!-- 12 -->
      <g transform="translate(814.835645 651.997656) scale(0.15 -0.15)">
       <use xlink:href="#DejaVuSans-31"/>
       <use xlink:href="#DejaVuSans-32" transform="translate(63.623047 0)"/>
      </g>
     </g>
    </g>
    <g id="text_65">
     <!-- time [month] -->
     <g transform="translate(589.631726 672.794375) scale(0.18 -0.18)">
      <use xlink:href="#DejaVuSans-Bold-74"/>
      <use xlink:href="#DejaVuSans-Bold-69" transform="translate(47.802734 0)"/>
      <use xlink:href="#DejaVuSans-Bold-6d" transform="translate(82.080078 0)"/>
      <use xlink:href="#DejaVuSans-Bold-65" transform="translate(186.279297 0)"/>
      <use xlink:href="#DejaVuSans-Bold-20" transform="translate(254.101562 0)"/>
      <use xlink:href="#DejaVuSans-Bold-5b" transform="translate(288.916016 0)"/>
      <use xlink:href="#DejaVuSans-Bold-6d" transform="translate(334.619141 0)"/>
      <use xlink:href="#DejaVuSans-Bold-6f" transform="translate(438.818359 0)"/>
      <use xlink:href="#DejaVuSans-Bold-6e" transform="translate(507.519531 0)"/>
      <use xlink:href="#DejaVuSans-Bold-74" transform="translate(578.710938 0)"/>
      <use xlink:href="#DejaVuSans-Bold-68" transform="translate(626.513672 0)"/>
      <use xlink:href="#DejaVuSans-Bold-5d" transform="translate(697.705078 0)"/>
     </g>
    </g>
   </g>
   <g id="matplotlib.axis_8">
    <g id="ytick_16">
     <g id="line2d_89">
      <g>
       <use xlink:href="#mcff1ee1aa5" x="486.712201" y="633.6" style="stroke: #000000; stroke-width: 0.8"/>
      </g>
     </g>
     <g id="text_66">
      <!-- 0 -->
      <g transform="translate(470.168451 639.298828) scale(0.15 -0.15)">
       <use xlink:href="#DejaVuSans-30"/>
      </g>
     </g>
    </g>
    <g id="ytick_17">
     <g id="line2d_90">
      <g>
       <use xlink:href="#mcff1ee1aa5" x="486.712201" y="581.199244" style="stroke: #000000; stroke-width: 0.8"/>
      </g>
     </g>
     <g id="text_67">
      <!-- 2 -->
      <g transform="translate(470.168451 586.898072) scale(0.15 -0.15)">
       <use xlink:href="#DejaVuSans-32"/>
      </g>
     </g>
    </g>
    <g id="ytick_18">
     <g id="line2d_91">
      <g>
       <use xlink:href="#mcff1ee1aa5" x="486.712201" y="528.798488" style="stroke: #000000; stroke-width: 0.8"/>
      </g>
     </g>
     <g id="text_68">
      <!-- 4 -->
      <g transform="translate(470.168451 534.497316) scale(0.15 -0.15)">
       <use xlink:href="#DejaVuSans-34"/>
      </g>
     </g>
    </g>
    <g id="ytick_19">
     <g id="line2d_92">
      <g>
       <use xlink:href="#mcff1ee1aa5" x="486.712201" y="476.397732" style="stroke: #000000; stroke-width: 0.8"/>
      </g>
     </g>
     <g id="text_69">
      <!-- 6 -->
      <g transform="translate(470.168451 482.09656) scale(0.15 -0.15)">
       <use xlink:href="#DejaVuSans-36"/>
      </g>
     </g>
    </g>
    <g id="ytick_20">
     <g id="line2d_93">
      <g>
       <use xlink:href="#mcff1ee1aa5" x="486.712201" y="423.996975" style="stroke: #000000; stroke-width: 0.8"/>
      </g>
     </g>
     <g id="text_70">
      <!-- 8 -->
      <g transform="translate(470.168451 429.695804) scale(0.15 -0.15)">
       <use xlink:href="#DejaVuSans-38"/>
      </g>
     </g>
    </g>
    <g id="text_71">
     <!-- HbA1c [percent] -->
     <g transform="translate(462.425014 596.10748) rotate(-90) scale(0.18 -0.18)">
      <use xlink:href="#DejaVuSans-Bold-48"/>
      <use xlink:href="#DejaVuSans-Bold-62" transform="translate(83.691406 0)"/>
      <use xlink:href="#DejaVuSans-Bold-41" transform="translate(155.273438 0)"/>
      <use xlink:href="#DejaVuSans-Bold-31" transform="translate(232.666016 0)"/>
      <use xlink:href="#DejaVuSans-Bold-63" transform="translate(302.246094 0)"/>
      <use xlink:href="#DejaVuSans-Bold-20" transform="translate(361.523438 0)"/>
      <use xlink:href="#DejaVuSans-Bold-5b" transform="translate(396.337891 0)"/>
      <use xlink:href="#DejaVuSans-Bold-70" transform="translate(442.041016 0)"/>
      <use xlink:href="#DejaVuSans-Bold-65" transform="translate(513.623047 0)"/>
      <use xlink:href="#DejaVuSans-Bold-72" transform="translate(581.445312 0)"/>
      <use xlink:href="#DejaVuSans-Bold-63" transform="translate(630.761719 0)"/>
      <use xlink:href="#DejaVuSans-Bold-65" transform="translate(690.039062 0)"/>
      <use xlink:href="#DejaVuSans-Bold-6e" transform="translate(757.861328 0)"/>
      <use xlink:href="#DejaVuSans-Bold-74" transform="translate(829.052734 0)"/>
      <use xlink:href="#DejaVuSans-Bold-5d" transform="translate(876.855469 0)"/>
     </g>
    </g>
   </g>
   <g id="line2d_94">
    <path d="M 502.150936 502.59811 
L 506.782557 499.976695 
L 511.414177 497.60858 
L 516.354573 495.341507 
L 521.294968 493.321749 
L 526.544138 491.425514 
L 531.793308 489.765876 
L 537.351252 488.244717 
L 543.217972 486.879206 
L 549.393466 485.683167 
L 555.877735 484.666996 
L 562.670778 483.837656 
L 569.772596 483.198746 
L 577.491964 482.736387 
L 585.520106 482.478133 
L 594.474573 482.41873 
L 604.046588 482.57881 
L 614.853703 482.986016 
L 627.204691 483.682394 
L 641.717102 484.733318 
L 659.93481 486.288399 
L 688.033308 488.940692 
L 737.128486 493.573365 
L 764.30066 495.895695 
L 789.620185 497.838883 
L 810.92564 499.299358 
L 810.92564 499.299358 
" clip-path="url(#pcd83866f7c)" style="fill: none; stroke: #0000ff; stroke-width: 2; stroke-linecap: square"/>
   </g>
   <g id="line2d_95">
    <path d="M 502.150936 476.397732 
L 506.782557 474.814561 
L 511.722952 473.359281 
L 516.972122 472.055387 
L 522.221292 470.979589 
L 527.779237 470.066515 
L 533.645956 469.330788 
L 539.82145 468.783479 
L 546.305719 468.432056 
L 553.407537 468.278331 
L 560.81813 468.342255 
L 568.846272 468.633187 
L 577.800739 469.186391 
L 587.681529 470.025752 
L 598.797418 471.195906 
L 612.074731 472.825456 
L 628.748565 475.107402 
L 655.920739 479.0853 
L 692.973703 484.465707 
L 715.823031 487.552676 
L 736.819711 490.168193 
L 757.198841 492.484205 
L 777.577972 494.576247 
L 798.265877 496.475539 
L 810.92564 497.530735 
L 810.92564 497.530735 
" clip-path="url(#pcd83866f7c)" style="fill: none; stroke: #1f77b4; stroke-width: 2; stroke-linecap: square"/>
   </g>
   <g id="line2d_96">
    <path d="M 502.150936 450.197353 
L 507.400106 449.593024 
L 512.958051 449.189299 
L 518.82477 448.999528 
L 525.000264 449.032999 
L 531.484533 449.294906 
L 538.586351 449.81354 
L 546.305719 450.612313 
L 554.642636 451.705076 
L 563.905877 453.147088 
L 574.712992 455.06517 
L 587.372754 457.545451 
L 604.355363 461.116704 
L 667.654177 474.642156 
L 685.871885 478.193296 
L 703.163268 481.339653 
L 720.145877 484.202768 
L 736.819711 486.790683 
L 753.80232 489.201642 
L 771.093703 491.430659 
L 788.693861 493.476842 
L 806.911569 495.373009 
L 810.92564 495.762111 
L 810.92564 495.762111 
" clip-path="url(#pcd83866f7c)" style="fill: none; stroke: #000000; stroke-width: 2; stroke-linecap: square"/>
   </g>
   <g id="line2d_97">
    <path d="M 502.150936 423.996975 
L 508.017656 424.644337 
L 514.501924 425.594569 
L 521.294968 426.817846 
L 528.705561 428.376899 
L 537.042478 430.361286 
L 546.614494 432.877022 
L 558.039158 436.123894 
L 572.551569 440.493719 
L 634.924059 459.552634 
L 650.671569 463.97743 
L 665.492754 467.910708 
L 679.696391 471.454208 
L 693.900027 474.769771 
L 708.103664 477.856321 
L 722.3073 480.717015 
L 736.819711 483.413173 
L 751.640897 485.939593 
L 766.770857 488.293804 
L 782.518367 490.517233 
L 798.883426 492.599502 
L 810.92564 493.993488 
L 810.92564 493.993488 
" clip-path="url(#pcd83866f7c)" style="fill: none; stroke: #d62728; stroke-width: 2; stroke-linecap: square"/>
   </g>
   <g id="line2d_98">
    <path d="M 502.150936 397.796597 
L 509.561529 400.290441 
L 517.898446 403.344211 
L 527.470462 407.098006 
L 539.203901 411.949952 
L 556.495284 419.369811 
L 588.299079 433.033069 
L 603.737814 439.397057 
L 617.323901 444.762743 
L 630.292438 449.647294 
L 642.643426 454.06648 
L 654.994415 458.249144 
L 667.036628 462.095663 
L 679.078841 465.713562 
L 691.42983 469.189843 
L 703.780818 472.434361 
L 716.440581 475.527296 
L 729.409118 478.461295 
L 742.68643 481.231174 
L 756.272517 483.833805 
L 770.167379 486.267986 
L 784.67979 488.581172 
L 799.80975 490.761915 
L 810.92564 492.224864 
L 810.92564 492.224864 
" clip-path="url(#pcd83866f7c)" style="fill: none; stroke: #ff0000; stroke-width: 2; stroke-linecap: square"/>
   </g>
   <g id="patch_21">
    <path d="M 486.712201 633.6 
L 486.712201 392.556522 
" style="fill: none; stroke: #000000; stroke-width: 0.8; stroke-linejoin: miter; stroke-linecap: square"/>
   </g>
   <g id="patch_22">
    <path d="M 826.364375 633.6 
L 826.364375 392.556522 
" style="fill: none; stroke: #000000; stroke-width: 0.8; stroke-linejoin: miter; stroke-linecap: square"/>
   </g>
   <g id="patch_23">
    <path d="M 486.712201 633.6 
L 826.364375 633.6 
" style="fill: none; stroke: #000000; stroke-width: 0.8; stroke-linejoin: miter; stroke-linecap: square"/>
   </g>
   <g id="patch_24">
    <path d="M 486.712201 392.556522 
L 826.364375 392.556522 
" style="fill: none; stroke: #000000; stroke-width: 0.8; stroke-linejoin: miter; stroke-linecap: square"/>
   </g>
   <g id="legend_4">
    <g id="patch_25">
     <path d="M 495.812201 627.1 
L 599.600951 627.1 
Q 602.200951 627.1 602.200951 624.5 
L 602.200951 530.392187 
Q 602.200951 527.792187 599.600951 527.792187 
L 495.812201 527.792187 
Q 493.212201 527.792187 493.212201 530.392187 
L 493.212201 624.5 
Q 493.212201 627.1 495.812201 627.1 
z
" style="fill: #ffffff; opacity: 0.8; stroke: #cccccc; stroke-linejoin: miter"/>
    </g>
    <g id="line2d_99">
     <path d="M 498.412201 538.320156 
L 524.412201 538.320156 
" style="fill: none; stroke: #0000ff; stroke-width: 2; stroke-linecap: square"/>
    </g>
    <g id="line2d_100"/>
    <g id="text_72">
     <!-- 5 percent -->
     <g transform="translate(534.812201 542.870156) scale(0.13 -0.13)">
      <use xlink:href="#DejaVuSans-35"/>
      <use xlink:href="#DejaVuSans-20" transform="translate(63.623047 0)"/>
      <use xlink:href="#DejaVuSans-70" transform="translate(95.410156 0)"/>
      <use xlink:href="#DejaVuSans-65" transform="translate(158.886719 0)"/>
      <use xlink:href="#DejaVuSans-72" transform="translate(220.410156 0)"/>
      <use xlink:href="#DejaVuSans-63" transform="translate(259.273438 0)"/>
      <use xlink:href="#DejaVuSans-65" transform="translate(314.253906 0)"/>
      <use xlink:href="#DejaVuSans-6e" transform="translate(375.777344 0)"/>
      <use xlink:href="#DejaVuSans-74" transform="translate(439.15625 0)"/>
     </g>
    </g>
    <g id="line2d_101">
     <path d="M 498.412201 557.401719 
L 524.412201 557.401719 
" style="fill: none; stroke: #1f77b4; stroke-width: 2; stroke-linecap: square"/>
    </g>
    <g id="line2d_102"/>
    <g id="text_73">
     <!-- 6 percent -->
     <g transform="translate(534.812201 561.951719) scale(0.13 -0.13)">
      <use xlink:href="#DejaVuSans-36"/>
      <use xlink:href="#DejaVuSans-20" transform="translate(63.623047 0)"/>
      <use xlink:href="#DejaVuSans-70" transform="translate(95.410156 0)"/>
      <use xlink:href="#DejaVuSans-65" transform="translate(158.886719 0)"/>
      <use xlink:href="#DejaVuSans-72" transform="translate(220.410156 0)"/>
      <use xlink:href="#DejaVuSans-63" transform="translate(259.273438 0)"/>
      <use xlink:href="#DejaVuSans-65" transform="translate(314.253906 0)"/>
      <use xlink:href="#DejaVuSans-6e" transform="translate(375.777344 0)"/>
      <use xlink:href="#DejaVuSans-74" transform="translate(439.15625 0)"/>
     </g>
    </g>
    <g id="line2d_103">
     <path d="M 498.412201 576.483281 
L 524.412201 576.483281 
" style="fill: none; stroke: #000000; stroke-width: 2; stroke-linecap: square"/>
    </g>
    <g id="line2d_104"/>
    <g id="text_74">
     <!-- 7 percent -->
     <g transform="translate(534.812201 581.033281) scale(0.13 -0.13)">
      <use xlink:href="#DejaVuSans-37"/>
      <use xlink:href="#DejaVuSans-20" transform="translate(63.623047 0)"/>
      <use xlink:href="#DejaVuSans-70" transform="translate(95.410156 0)"/>
      <use xlink:href="#DejaVuSans-65" transform="translate(158.886719 0)"/>
      <use xlink:href="#DejaVuSans-72" transform="translate(220.410156 0)"/>
      <use xlink:href="#DejaVuSans-63" transform="translate(259.273438 0)"/>
      <use xlink:href="#DejaVuSans-65" transform="translate(314.253906 0)"/>
      <use xlink:href="#DejaVuSans-6e" transform="translate(375.777344 0)"/>
      <use xlink:href="#DejaVuSans-74" transform="translate(439.15625 0)"/>
     </g>
    </g>
    <g id="line2d_105">
     <path d="M 498.412201 595.564844 
L 524.412201 595.564844 
" style="fill: none; stroke: #d62728; stroke-width: 2; stroke-linecap: square"/>
    </g>
    <g id="line2d_106"/>
    <g id="text_75">
     <!-- 8 percent -->
     <g transform="translate(534.812201 600.114844) scale(0.13 -0.13)">
      <use xlink:href="#DejaVuSans-38"/>
      <use xlink:href="#DejaVuSans-20" transform="translate(63.623047 0)"/>
      <use xlink:href="#DejaVuSans-70" transform="translate(95.410156 0)"/>
      <use xlink:href="#DejaVuSans-65" transform="translate(158.886719 0)"/>
      <use xlink:href="#DejaVuSans-72" transform="translate(220.410156 0)"/>
      <use xlink:href="#DejaVuSans-63" transform="translate(259.273438 0)"/>
      <use xlink:href="#DejaVuSans-65" transform="translate(314.253906 0)"/>
      <use xlink:href="#DejaVuSans-6e" transform="translate(375.777344 0)"/>
      <use xlink:href="#DejaVuSans-74" transform="translate(439.15625 0)"/>
     </g>
    </g>
    <g id="line2d_107">
     <path d="M 498.412201 614.646406 
L 524.412201 614.646406 
" style="fill: none; stroke: #ff0000; stroke-width: 2; stroke-linecap: square"/>
    </g>
    <g id="line2d_108"/>
    <g id="text_76">
     <!-- 9 percent -->
     <g transform="translate(534.812201 619.196406) scale(0.13 -0.13)">
      <use xlink:href="#DejaVuSans-39"/>
      <use xlink:href="#DejaVuSans-20" transform="translate(63.623047 0)"/>
      <use xlink:href="#DejaVuSans-70" transform="translate(95.410156 0)"/>
      <use xlink:href="#DejaVuSans-65" transform="translate(158.886719 0)"/>
      <use xlink:href="#DejaVuSans-72" transform="translate(220.410156 0)"/>
      <use xlink:href="#DejaVuSans-63" transform="translate(259.273438 0)"/>
      <use xlink:href="#DejaVuSans-65" transform="translate(314.253906 0)"/>
      <use xlink:href="#DejaVuSans-6e" transform="translate(375.777344 0)"/>
      <use xlink:href="#DejaVuSans-74" transform="translate(439.15625 0)"/>
     </g>
    </g>
   </g>
  </g>
  <g id="text_77">
   <!-- Hba1C -->
   <g transform="translate(377.449531 26.196094) scale(0.25 -0.25)">
    <defs>
     <path id="DejaVuSans-Bold-43" d="M 4288 256 
Q 3956 84 3597 -3 
Q 3238 -91 2847 -91 
Q 1681 -91 1000 561 
Q 319 1213 319 2328 
Q 319 3447 1000 4098 
Q 1681 4750 2847 4750 
Q 3238 4750 3597 4662 
Q 3956 4575 4288 4403 
L 4288 3438 
Q 3953 3666 3628 3772 
Q 3303 3878 2944 3878 
Q 2300 3878 1931 3465 
Q 1563 3053 1563 2328 
Q 1563 1606 1931 1193 
Q 2300 781 2944 781 
Q 3303 781 3628 887 
Q 3953 994 4288 1222 
L 4288 256 
z
" transform="scale(0.015625)"/>
    </defs>
    <use xlink:href="#DejaVuSans-Bold-48"/>
    <use xlink:href="#DejaVuSans-Bold-62" transform="translate(83.691406 0)"/>
    <use xlink:href="#DejaVuSans-Bold-61" transform="translate(155.273438 0)"/>
    <use xlink:href="#DejaVuSans-Bold-31" transform="translate(222.753906 0)"/>
    <use xlink:href="#DejaVuSans-Bold-43" transform="translate(292.333984 0)"/>
   </g>
  </g>
 </g>
 <defs>
  <clipPath id="p0409fbc3e3">
   <rect x="45.164375" y="79.2" width="339.652174" height="241.043478"/>
  </clipPath>
  <clipPath id="p6a49f5e290">
   <rect x="486.712201" y="79.2" width="339.652174" height="241.043478"/>
  </clipPath>
  <clipPath id="p8c4c1ed481">
   <rect x="45.164375" y="392.556522" width="339.652174" height="241.043478"/>
  </clipPath>
  <clipPath id="pcd83866f7c">
   <rect x="486.712201" y="392.556522" width="339.652174" height="241.043478"/>
  </clipPath>
 </defs>
</svg>
