<?xml version="1.0" encoding="utf-8" standalone="no"?>
<!DOCTYPE svg PUBLIC "-//W3C//DTD SVG 1.1//EN"
  "http://www.w3.org/Graphics/SVG/1.1/DTD/svg11.dtd">
<svg xmlns:xlink="http://www.w3.org/1999/xlink" width="1224.164375pt" height="370.537812pt" viewBox="0 0 1224.164375 370.537812" xmlns="http://www.w3.org/2000/svg" version="1.1">
 <metadata>
  <rdf:RDF xmlns:dc="http://purl.org/dc/elements/1.1/" xmlns:cc="http://creativecommons.org/ns#" xmlns:rdf="http://www.w3.org/1999/02/22-rdf-syntax-ns#">
   <cc:Work>
    <dc:type rdf:resource="http://purl.org/dc/dcmitype/StillImage"/>
    <dc:date>2026-01-30T14:57:08.817865</dc:date>
    <dc:format>image/svg+xml</dc:format>
    <dc:creator>
     <cc:Agent>
      <dc:title>Matplotlib v3.10.7, https://matplotlib.org/</dc:title>
     </cc:Agent>
    </dc:creator>
   </cc:Work>
  </rdf:RDF>
 </metadata>
 <defs>
  <style type="text/css">*{stroke-linejoin: round; stroke-linecap: butt}</style>
 </defs>
 <g id="figure_1">
  <g id="patch_1">
   <path d="M 0 370.537812 
L 1224.164375 370.537812 
L 1224.164375 0 
L 0 0 
z
" style="fill: #ffffff"/>
  </g>
  <g id="axes_1">
   <g id="patch_2">
    <path d="M 45.164375 320.4 
L 370.664375 320.4 
L 370.664375 43.2 
L 45.164375 43.2 
z
" style="fill: #ffffff"/>
   </g>
   <g id="matplotlib.axis_1">
    <g id="xtick_1">
     <g id="line2d_1">
      <defs>
       <path id="m979af9ba63" d="M 0 0 
L 0 3.5 
" style="stroke: #000000; stroke-width: 0.8"/>
      </defs>
      <g>
       <use xlink:href="#m979af9ba63" x="59.95983" y="320.4" style="stroke: #000000; stroke-width: 0.8"/>
      </g>
     </g>
     <g id="text_1">
      <!-- 0 -->
      <g transform="translate(55.187955 338.797656) scale(0.15 -0.15)">
       <defs>
        <path id="DejaVuSans-30" d="M 2034 4250 
Q 1547 4250 1301 3770 
Q 1056 3291 1056 2328 
Q 1056 1369 1301 889 
Q 1547 409 2034 409 
Q 2525 409 2770 889 
Q 3016 1369 3016 2328 
Q 3016 3291 2770 3770 
Q 2525 4250 2034 4250 
z
M 2034 4750 
Q 2819 4750 3233 4129 
Q 3647 3509 3647 2328 
Q 3647 1150 3233 529 
Q 2819 -91 2034 -91 
Q 1250 -91 836 529 
Q 422 1150 422 2328 
Q 422 3509 836 4129 
Q 1250 4750 2034 4750 
z
" transform="scale(0.015625)"/>
       </defs>
       <use xlink:href="#DejaVuSans-30"/>
      </g>
     </g>
    </g>
    <g id="xtick_2">
     <g id="line2d_2">
      <g>
       <use xlink:href="#m979af9ba63" x="133.023803" y="320.4" style="stroke: #000000; stroke-width: 0.8"/>
      </g>
     </g>
     <g id="text_2">
      <!-- 20 -->
      <g transform="translate(123.480053 338.797656) scale(0.15 -0.15)">
       <defs>
        <path id="DejaVuSans-32" d="M 1228 531 
L 3431 531 
L 3431 0 
L 469 0 
L 469 531 
Q 828 903 1448 1529 
Q 2069 2156 2228 2338 
Q 2531 2678 2651 2914 
Q 2772 3150 2772 3378 
Q 2772 3750 2511 3984 
Q 2250 4219 1831 4219 
Q 1534 4219 1204 4116 
Q 875 4013 500 3803 
L 500 4441 
Q 881 4594 1212 4672 
Q 1544 4750 1819 4750 
Q 2544 4750 2975 4387 
Q 3406 4025 3406 3419 
Q 3406 3131 3298 2873 
Q 3191 2616 2906 2266 
Q 2828 2175 2409 1742 
Q 1991 1309 1228 531 
z
" transform="scale(0.015625)"/>
       </defs>
       <use xlink:href="#DejaVuSans-32"/>
       <use xlink:href="#DejaVuSans-30" transform="translate(63.623047 0)"/>
      </g>
     </g>
    </g>
    <g id="xtick_3">
     <g id="line2d_3">
      <g>
       <use xlink:href="#m979af9ba63" x="206.087776" y="320.4" style="stroke: #000000; stroke-width: 0.8"/>
      </g>
     </g>
     <g id="text_3">
      <!-- 40 -->
      <g transform="translate(196.544026 338.797656) scale(0.15 -0.15)">
       <defs>
        <path id="DejaVuSans-34" d="M 2419 4116 
L 825 1625 
L 2419 1625 
L 2419 4116 
z
M 2253 4666 
L 3047 4666 
L 3047 1625 
L 3713 1625 
L 3713 1100 
L 3047 1100 
L 3047 0 
L 2419 0 
L 2419 1100 
L 313 1100 
L 313 1709 
L 2253 4666 
z
" transform="scale(0.015625)"/>
       </defs>
       <use xlink:href="#DejaVuSans-34"/>
       <use xlink:href="#DejaVuSans-30" transform="translate(63.623047 0)"/>
      </g>
     </g>
    </g>
    <g id="xtick_4">
     <g id="line2d_4">
      <g>
       <use xlink:href="#m979af9ba63" x="279.151749" y="320.4" style="stroke: #000000; stroke-width: 0.8"/>
      </g>
     </g>
     <g id="text_4">
      <!-- 60 -->
      <g transform="translate(269.607999 338.797656) scale(0.15 -0.15)">
       <defs>
        <path id="DejaVuSans-36" d="M 2113 2584 
Q 1688 2584 1439 2293 
Q 1191 2003 1191 1497 
Q 1191 994 1439 701 
Q 1688 409 2113 409 
Q 2538 409 2786 701 
Q 3034 994 3034 1497 
Q 3034 2003 2786 2293 
Q 2538 2584 2113 2584 
z
M 3366 4563 
L 3366 3988 
Q 3128 4100 2886 4159 
Q 2644 4219 2406 4219 
Q 1781 4219 1451 3797 
Q 1122 3375 1075 2522 
Q 1259 2794 1537 2939 
Q 1816 3084 2150 3084 
Q 2853 3084 3261 2657 
Q 3669 2231 3669 1497 
Q 3669 778 3244 343 
Q 2819 -91 2113 -91 
Q 1303 -91 875 529 
Q 447 1150 447 2328 
Q 447 3434 972 4092 
Q 1497 4750 2381 4750 
Q 2619 4750 2861 4703 
Q 3103 4656 3366 4563 
z
" transform="scale(0.015625)"/>
       </defs>
       <use xlink:href="#DejaVuSans-36"/>
       <use xlink:href="#DejaVuSans-30" transform="translate(63.623047 0)"/>
      </g>
     </g>
    </g>
    <g id="xtick_5">
     <g id="line2d_5">
      <g>
       <use xlink:href="#m979af9ba63" x="352.215722" y="320.4" style="stroke: #000000; stroke-width: 0.8"/>
      </g>
     </g>
     <g id="text_5">
      <!-- 80 -->
      <g transform="translate(342.671972 338.797656) scale(0.15 -0.15)">
       <defs>
        <path id="DejaVuSans-38" d="M 2034 2216 
Q 1584 2216 1326 1975 
Q 1069 1734 1069 1313 
Q 1069 891 1326 650 
Q 1584 409 2034 409 
Q 2484 409 2743 651 
Q 3003 894 3003 1313 
Q 3003 1734 2745 1975 
Q 2488 2216 2034 2216 
z
M 1403 2484 
Q 997 2584 770 2862 
Q 544 3141 544 3541 
Q 544 4100 942 4425 
Q 1341 4750 2034 4750 
Q 2731 4750 3128 4425 
Q 3525 4100 3525 3541 
Q 3525 3141 3298 2862 
Q 3072 2584 2669 2484 
Q 3125 2378 3379 2068 
Q 3634 1759 3634 1313 
Q 3634 634 3220 271 
Q 2806 -91 2034 -91 
Q 1263 -91 848 271 
Q 434 634 434 1313 
Q 434 1759 690 2068 
Q 947 2378 1403 2484 
z
M 1172 3481 
Q 1172 3119 1398 2916 
Q 1625 2713 2034 2713 
Q 2441 2713 2670 2916 
Q 2900 3119 2900 3481 
Q 2900 3844 2670 4047 
Q 2441 4250 2034 4250 
Q 1625 4250 1398 4047 
Q 1172 3844 1172 3481 
z
" transform="scale(0.015625)"/>
       </defs>
       <use xlink:href="#DejaVuSans-38"/>
       <use xlink:href="#DejaVuSans-30" transform="translate(63.623047 0)"/>
      </g>
     </g>
    </g>
    <g id="text_6">
     <!-- time [week] -->
     <g transform="translate(147.175625 359.594375) scale(0.18 -0.18)">
      <defs>
       <path id="DejaVuSans-Bold-74" d="M 1759 4494 
L 1759 3500 
L 2913 3500 
L 2913 2700 
L 1759 2700 
L 1759 1216 
Q 1759 972 1856 886 
Q 1953 800 2241 800 
L 2816 800 
L 2816 0 
L 1856 0 
Q 1194 0 917 276 
Q 641 553 641 1216 
L 641 2700 
L 84 2700 
L 84 3500 
L 641 3500 
L 641 4494 
L 1759 4494 
z
" transform="scale(0.015625)"/>
       <path id="DejaVuSans-Bold-69" d="M 538 3500 
L 1656 3500 
L 1656 0 
L 538 0 
L 538 3500 
z
M 538 4863 
L 1656 4863 
L 1656 3950 
L 538 3950 
L 538 4863 
z
" transform="scale(0.015625)"/>
       <path id="DejaVuSans-Bold-6d" d="M 3781 2919 
Q 3994 3244 4286 3414 
Q 4578 3584 4928 3584 
Q 5531 3584 5847 3212 
Q 6163 2841 6163 2131 
L 6163 0 
L 5038 0 
L 5038 1825 
Q 5041 1866 5042 1909 
Q 5044 1953 5044 2034 
Q 5044 2406 4934 2573 
Q 4825 2741 4581 2741 
Q 4263 2741 4089 2478 
Q 3916 2216 3909 1719 
L 3909 0 
L 2784 0 
L 2784 1825 
Q 2784 2406 2684 2573 
Q 2584 2741 2328 2741 
Q 2006 2741 1831 2477 
Q 1656 2213 1656 1722 
L 1656 0 
L 531 0 
L 531 3500 
L 1656 3500 
L 1656 2988 
Q 1863 3284 2130 3434 
Q 2397 3584 2719 3584 
Q 3081 3584 3359 3409 
Q 3638 3234 3781 2919 
z
" transform="scale(0.015625)"/>
       <path id="DejaVuSans-Bold-65" d="M 4031 1759 
L 4031 1441 
L 1416 1441 
Q 1456 1047 1700 850 
Q 1944 653 2381 653 
Q 2734 653 3104 758 
Q 3475 863 3866 1075 
L 3866 213 
Q 3469 63 3072 -14 
Q 2675 -91 2278 -91 
Q 1328 -91 801 392 
Q 275 875 275 1747 
Q 275 2603 792 3093 
Q 1309 3584 2216 3584 
Q 3041 3584 3536 3087 
Q 4031 2591 4031 1759 
z
M 2881 2131 
Q 2881 2450 2695 2645 
Q 2509 2841 2209 2841 
Q 1884 2841 1681 2658 
Q 1478 2475 1428 2131 
L 2881 2131 
z
" transform="scale(0.015625)"/>
       <path id="DejaVuSans-Bold-20" transform="scale(0.015625)"/>
       <path id="DejaVuSans-Bold-5b" d="M 550 4863 
L 2491 4863 
L 2491 4159 
L 1613 4159 
L 1613 -141 
L 2491 -141 
L 2491 -844 
L 550 -844 
L 550 4863 
z
" transform="scale(0.015625)"/>
       <path id="DejaVuSans-Bold-77" d="M 225 3500 
L 1313 3500 
L 1900 1088 
L 2491 3500 
L 3425 3500 
L 4013 1113 
L 4603 3500 
L 5691 3500 
L 4769 0 
L 3547 0 
L 2956 2406 
L 2369 0 
L 1147 0 
L 225 3500 
z
" transform="scale(0.015625)"/>
       <path id="DejaVuSans-Bold-6b" d="M 538 4863 
L 1656 4863 
L 1656 2216 
L 2944 3500 
L 4244 3500 
L 2534 1894 
L 4378 0 
L 3022 0 
L 1656 1459 
L 1656 0 
L 538 0 
L 538 4863 
z
" transform="scale(0.015625)"/>
       <path id="DejaVuSans-Bold-5d" d="M 2375 -844 
L 434 -844 
L 434 -141 
L 1313 -141 
L 1313 4159 
L 434 4159 
L 434 4863 
L 2375 4863 
L 2375 -844 
z
" transform="scale(0.015625)"/>
      </defs>
      <use xlink:href="#DejaVuSans-Bold-74"/>
      <use xlink:href="#DejaVuSans-Bold-69" transform="translate(47.802734 0)"/>
      <use xlink:href="#DejaVuSans-Bold-6d" transform="translate(82.080078 0)"/>
      <use xlink:href="#DejaVuSans-Bold-65" transform="translate(186.279297 0)"/>
      <use xlink:href="#DejaVuSans-Bold-20" transform="translate(254.101562 0)"/>
      <use xlink:href="#DejaVuSans-Bold-5b" transform="translate(288.916016 0)"/>
      <use xlink:href="#DejaVuSans-Bold-77" transform="translate(334.619141 0)"/>
      <use xlink:href="#DejaVuSans-Bold-65" transform="translate(427.001953 0)"/>
      <use xlink:href="#DejaVuSans-Bold-65" transform="translate(494.824219 0)"/>
      <use xlink:href="#DejaVuSans-Bold-6b" transform="translate(562.646484 0)"/>
      <use xlink:href="#DejaVuSans-Bold-5d" transform="translate(629.150391 0)"/>
     </g>
    </g>
   </g>
   <g id="matplotlib.axis_2">
    <g id="ytick_1">
     <g id="line2d_6">
      <defs>
       <path id="ma679f7c712" d="M 0 0 
L -3.5 0 
" style="stroke: #000000; stroke-width: 0.8"/>
      </defs>
      <g>
       <use xlink:href="#ma679f7c712" x="45.164375" y="297.689962" style="stroke: #000000; stroke-width: 0.8"/>
      </g>
     </g>
     <g id="text_7">
      <!-- 5 -->
      <g transform="translate(28.620625 303.38879) scale(0.15 -0.15)">
       <defs>
        <path id="DejaVuSans-35" d="M 691 4666 
L 3169 4666 
L 3169 4134 
L 1269 4134 
L 1269 2991 
Q 1406 3038 1543 3061 
Q 1681 3084 1819 3084 
Q 2600 3084 3056 2656 
Q 3513 2228 3513 1497 
Q 3513 744 3044 326 
Q 2575 -91 1722 -91 
Q 1428 -91 1123 -41 
Q 819 9 494 109 
L 494 744 
Q 775 591 1075 516 
Q 1375 441 1709 441 
Q 2250 441 2565 725 
Q 2881 1009 2881 1497 
Q 2881 1984 2565 2268 
Q 2250 2553 1709 2553 
Q 1456 2553 1204 2497 
Q 953 2441 691 2322 
L 691 4666 
z
" transform="scale(0.015625)"/>
       </defs>
       <use xlink:href="#DejaVuSans-35"/>
      </g>
     </g>
    </g>
    <g id="ytick_2">
     <g id="line2d_7">
      <g>
       <use xlink:href="#ma679f7c712" x="45.164375" y="239.100881" style="stroke: #000000; stroke-width: 0.8"/>
      </g>
     </g>
     <g id="text_8">
      <!-- 6 -->
      <g transform="translate(28.620625 244.799709) scale(0.15 -0.15)">
       <use xlink:href="#DejaVuSans-36"/>
      </g>
     </g>
    </g>
    <g id="ytick_3">
     <g id="line2d_8">
      <g>
       <use xlink:href="#ma679f7c712" x="45.164375" y="180.511799" style="stroke: #000000; stroke-width: 0.8"/>
      </g>
     </g>
     <g id="text_9">
      <!-- 7 -->
      <g transform="translate(28.620625 186.210628) scale(0.15 -0.15)">
       <defs>
        <path id="DejaVuSans-37" d="M 525 4666 
L 3525 4666 
L 3525 4397 
L 1831 0 
L 1172 0 
L 2766 4134 
L 525 4134 
L 525 4666 
z
" transform="scale(0.015625)"/>
       </defs>
       <use xlink:href="#DejaVuSans-37"/>
      </g>
     </g>
    </g>
    <g id="ytick_4">
     <g id="line2d_9">
      <g>
       <use xlink:href="#ma679f7c712" x="45.164375" y="121.922718" style="stroke: #000000; stroke-width: 0.8"/>
      </g>
     </g>
     <g id="text_10">
      <!-- 8 -->
      <g transform="translate(28.620625 127.621547) scale(0.15 -0.15)">
       <use xlink:href="#DejaVuSans-38"/>
      </g>
     </g>
    </g>
    <g id="ytick_5">
     <g id="line2d_10">
      <g>
       <use xlink:href="#ma679f7c712" x="45.164375" y="63.333637" style="stroke: #000000; stroke-width: 0.8"/>
      </g>
     </g>
     <g id="text_11">
      <!-- 9 -->
      <g transform="translate(28.620625 69.032466) scale(0.15 -0.15)">
       <defs>
        <path id="DejaVuSans-39" d="M 703 97 
L 703 672 
Q 941 559 1184 500 
Q 1428 441 1663 441 
Q 2288 441 2617 861 
Q 2947 1281 2994 2138 
Q 2813 1869 2534 1725 
Q 2256 1581 1919 1581 
Q 1219 1581 811 2004 
Q 403 2428 403 3163 
Q 403 3881 828 4315 
Q 1253 4750 1959 4750 
Q 2769 4750 3195 4129 
Q 3622 3509 3622 2328 
Q 3622 1225 3098 567 
Q 2575 -91 1691 -91 
Q 1453 -91 1209 -44 
Q 966 3 703 97 
z
M 1959 2075 
Q 2384 2075 2632 2365 
Q 2881 2656 2881 3163 
Q 2881 3666 2632 3958 
Q 2384 4250 1959 4250 
Q 1534 4250 1286 3958 
Q 1038 3666 1038 3163 
Q 1038 2656 1286 2365 
Q 1534 2075 1959 2075 
z
" transform="scale(0.015625)"/>
       </defs>
       <use xlink:href="#DejaVuSans-39"/>
      </g>
     </g>
    </g>
    <g id="text_12">
     <!-- HbA1c [percent] -->
     <g transform="translate(20.877188 264.829219) rotate(-90) scale(0.18 -0.18)">
      <defs>
       <path id="DejaVuSans-Bold-48" d="M 588 4666 
L 1791 4666 
L 1791 2888 
L 3566 2888 
L 3566 4666 
L 4769 4666 
L 4769 0 
L 3566 0 
L 3566 1978 
L 1791 1978 
L 1791 0 
L 588 0 
L 588 4666 
z
" transform="scale(0.015625)"/>
       <path id="DejaVuSans-Bold-62" d="M 2400 722 
Q 2759 722 2948 984 
Q 3138 1247 3138 1747 
Q 3138 2247 2948 2509 
Q 2759 2772 2400 2772 
Q 2041 2772 1848 2508 
Q 1656 2244 1656 1747 
Q 1656 1250 1848 986 
Q 2041 722 2400 722 
z
M 1656 2988 
Q 1888 3294 2169 3439 
Q 2450 3584 2816 3584 
Q 3463 3584 3878 3070 
Q 4294 2556 4294 1747 
Q 4294 938 3878 423 
Q 3463 -91 2816 -91 
Q 2450 -91 2169 54 
Q 1888 200 1656 506 
L 1656 0 
L 538 0 
L 538 4863 
L 1656 4863 
L 1656 2988 
z
" transform="scale(0.015625)"/>
       <path id="DejaVuSans-Bold-41" d="M 3419 850 
L 1538 850 
L 1241 0 
L 31 0 
L 1759 4666 
L 3194 4666 
L 4922 0 
L 3713 0 
L 3419 850 
z
M 1838 1716 
L 3116 1716 
L 2478 3572 
L 1838 1716 
z
" transform="scale(0.015625)"/>
       <path id="DejaVuSans-Bold-31" d="M 750 831 
L 1813 831 
L 1813 3847 
L 722 3622 
L 722 4441 
L 1806 4666 
L 2950 4666 
L 2950 831 
L 4013 831 
L 4013 0 
L 750 0 
L 750 831 
z
" transform="scale(0.015625)"/>
       <path id="DejaVuSans-Bold-63" d="M 3366 3391 
L 3366 2478 
Q 3138 2634 2908 2709 
Q 2678 2784 2431 2784 
Q 1963 2784 1702 2511 
Q 1441 2238 1441 1747 
Q 1441 1256 1702 982 
Q 1963 709 2431 709 
Q 2694 709 2930 787 
Q 3166 866 3366 1019 
L 3366 103 
Q 3103 6 2833 -42 
Q 2563 -91 2291 -91 
Q 1344 -91 809 395 
Q 275 881 275 1747 
Q 275 2613 809 3098 
Q 1344 3584 2291 3584 
Q 2566 3584 2833 3536 
Q 3100 3488 3366 3391 
z
" transform="scale(0.015625)"/>
       <path id="DejaVuSans-Bold-70" d="M 1656 506 
L 1656 -1331 
L 538 -1331 
L 538 3500 
L 1656 3500 
L 1656 2988 
Q 1888 3294 2169 3439 
Q 2450 3584 2816 3584 
Q 3463 3584 3878 3070 
Q 4294 2556 4294 1747 
Q 4294 938 3878 423 
Q 3463 -91 2816 -91 
Q 2450 -91 2169 54 
Q 1888 200 1656 506 
z
M 2400 2772 
Q 2041 2772 1848 2508 
Q 1656 2244 1656 1747 
Q 1656 1250 1848 986 
Q 2041 722 2400 722 
Q 2759 722 2948 984 
Q 3138 1247 3138 1747 
Q 3138 2247 2948 2509 
Q 2759 2772 2400 2772 
z
" transform="scale(0.015625)"/>
       <path id="DejaVuSans-Bold-72" d="M 3138 2547 
Q 2991 2616 2845 2648 
Q 2700 2681 2553 2681 
Q 2122 2681 1889 2404 
Q 1656 2128 1656 1613 
L 1656 0 
L 538 0 
L 538 3500 
L 1656 3500 
L 1656 2925 
Q 1872 3269 2151 3426 
Q 2431 3584 2822 3584 
Q 2878 3584 2943 3579 
Q 3009 3575 3134 3559 
L 3138 2547 
z
" transform="scale(0.015625)"/>
       <path id="DejaVuSans-Bold-6e" d="M 4056 2131 
L 4056 0 
L 2931 0 
L 2931 347 
L 2931 1631 
Q 2931 2084 2911 2256 
Q 2891 2428 2841 2509 
Q 2775 2619 2662 2680 
Q 2550 2741 2406 2741 
Q 2056 2741 1856 2470 
Q 1656 2200 1656 1722 
L 1656 0 
L 538 0 
L 538 3500 
L 1656 3500 
L 1656 2988 
Q 1909 3294 2193 3439 
Q 2478 3584 2822 3584 
Q 3428 3584 3742 3212 
Q 4056 2841 4056 2131 
z
" transform="scale(0.015625)"/>
      </defs>
      <use xlink:href="#DejaVuSans-Bold-48"/>
      <use xlink:href="#DejaVuSans-Bold-62" transform="translate(83.691406 0)"/>
      <use xlink:href="#DejaVuSans-Bold-41" transform="translate(155.273438 0)"/>
      <use xlink:href="#DejaVuSans-Bold-31" transform="translate(232.666016 0)"/>
      <use xlink:href="#DejaVuSans-Bold-63" transform="translate(302.246094 0)"/>
      <use xlink:href="#DejaVuSans-Bold-20" transform="translate(361.523438 0)"/>
      <use xlink:href="#DejaVuSans-Bold-5b" transform="translate(396.337891 0)"/>
      <use xlink:href="#DejaVuSans-Bold-70" transform="translate(442.041016 0)"/>
      <use xlink:href="#DejaVuSans-Bold-65" transform="translate(513.623047 0)"/>
      <use xlink:href="#DejaVuSans-Bold-72" transform="translate(581.445312 0)"/>
      <use xlink:href="#DejaVuSans-Bold-63" transform="translate(630.761719 0)"/>
      <use xlink:href="#DejaVuSans-Bold-65" transform="translate(690.039062 0)"/>
      <use xlink:href="#DejaVuSans-Bold-6e" transform="translate(757.861328 0)"/>
      <use xlink:href="#DejaVuSans-Bold-74" transform="translate(829.052734 0)"/>
      <use xlink:href="#DejaVuSans-Bold-5d" transform="translate(876.855469 0)"/>
     </g>
    </g>
   </g>
   <g id="LineCollection_1">
    <path d="M 59.95983 165.253883 
L 59.95983 64.86159 
" clip-path="url(#pf7f95514c1)" style="fill: none; stroke: #2ca02c"/>
    <path d="M 111.104611 218.940858 
L 111.104611 124.125574 
" clip-path="url(#pf7f95514c1)" style="fill: none; stroke: #2ca02c"/>
    <path d="M 154.942995 211.417622 
L 154.942995 122.179858 
" clip-path="url(#pf7f95514c1)" style="fill: none; stroke: #2ca02c"/>
    <path d="M 187.821782 213.865563 
L 187.821782 107.89575 
" clip-path="url(#pf7f95514c1)" style="fill: none; stroke: #2ca02c"/>
    <path d="M 220.70057 211.581675 
L 220.70057 100.034343 
" clip-path="url(#pf7f95514c1)" style="fill: none; stroke: #2ca02c"/>
    <path d="M 249.92616 222.736204 
L 249.92616 88.879814 
" clip-path="url(#pf7f95514c1)" style="fill: none; stroke: #2ca02c"/>
    <path d="M 297.417742 219.185351 
L 297.417742 85.328961 
" clip-path="url(#pf7f95514c1)" style="fill: none; stroke: #2ca02c"/>
    <path d="M 344.909324 207.013645 
L 344.909324 84.311784 
" clip-path="url(#pf7f95514c1)" style="fill: none; stroke: #2ca02c"/>
   </g>
   <g id="LineCollection_2">
    <path d="M 59.95983 167.551938 
L 59.95983 55.8 
" clip-path="url(#pf7f95514c1)" style="fill: none; stroke: #1f77b4"/>
    <path d="M 111.104611 232.047458 
L 111.104611 137.058553 
" clip-path="url(#pf7f95514c1)" style="fill: none; stroke: #1f77b4"/>
    <path d="M 154.942995 227.393867 
L 154.942995 137.992214 
" clip-path="url(#pf7f95514c1)" style="fill: none; stroke: #1f77b4"/>
    <path d="M 187.821782 237.980988 
L 187.821782 120.641542 
" clip-path="url(#pf7f95514c1)" style="fill: none; stroke: #1f77b4"/>
    <path d="M 220.70057 229.349636 
L 220.70057 123.185717 
" clip-path="url(#pf7f95514c1)" style="fill: none; stroke: #1f77b4"/>
    <path d="M 249.92616 231.128988 
L 249.92616 119.377306 
" clip-path="url(#pf7f95514c1)" style="fill: none; stroke: #1f77b4"/>
    <path d="M 297.417742 230.041441 
L 297.417742 101.52698 
" clip-path="url(#pf7f95514c1)" style="fill: none; stroke: #1f77b4"/>
    <path d="M 344.909324 231.144435 
L 344.909324 97.042211 
" clip-path="url(#pf7f95514c1)" style="fill: none; stroke: #1f77b4"/>
   </g>
   <g id="line2d_11">
    <path d="M 59.95983 121.922718 
L 61.793735 121.266528 
L 63.857793 120.804546 
L 65.487119 120.62327 
L 67.657119 120.638371 
L 69.352203 120.834846 
L 71.796193 121.373775 
L 73.736042 122.027863 
L 76.337119 123.135839 
L 79.168348 124.660988 
L 81.634257 126.241592 
L 84.403382 128.234128 
L 87.932372 131.093038 
L 91.85956 134.636683 
L 96.188601 138.904691 
L 100.667422 143.6338 
L 105.361782 148.866712 
L 112.624341 157.340777 
L 124.742001 171.968289 
L 137.119038 186.85075 
L 146.880385 198.199128 
L 154.175823 206.335224 
L 160.981732 213.611878 
L 167.338298 220.110961 
L 173.687557 226.305341 
L 180.321766 232.450201 
L 186.685638 238.025349 
L 192.702456 243.010569 
L 198.865402 247.836053 
L 205.232927 252.526257 
L 211.344729 256.753302 
L 217.511328 260.756906 
L 223.981143 264.68522 
L 230.410772 268.323902 
L 236.825789 271.704084 
L 243.412506 274.928728 
L 250.265907 278.033821 
L 257.3385 280.986683 
L 264.601059 283.770334 
L 272.079156 286.391855 
L 279.816631 288.862369 
L 287.817136 291.178718 
L 296.077018 293.337496 
L 304.680301 295.356768 
L 313.802338 297.26652 
L 323.326227 299.032397 
L 333.511345 300.691107 
L 344.288281 302.217763 
L 355.806816 303.622613 
L 355.86892 303.629607 
L 355.86892 303.629607 
" clip-path="url(#pf7f95514c1)" style="fill: none; stroke: #2ca02c; stroke-width: 2; stroke-linecap: square"/>
   </g>
   <g id="line2d_12">
    <path d="M 59.95983 115.057737 
L 111.104611 171.533216 
L 154.942995 166.79874 
L 187.821782 160.880656 
L 220.70057 155.808009 
L 249.92616 155.808009 
L 297.417742 152.257156 
L 344.909324 145.662714 
" clip-path="url(#pf7f95514c1)" style="fill: none; stroke-dasharray: 3.7,1.6; stroke-dashoffset: 0; stroke: #2ca02c"/>
    <defs>
     <path id="m9f1b87e623" d="M -3 3 
L 3 3 
L 3 -3 
L -3 -3 
z
" style="stroke: #000000; stroke-linejoin: miter"/>
    </defs>
    <g clip-path="url(#pf7f95514c1)">
     <use xlink:href="#m9f1b87e623" x="59.95983" y="115.057737" style="fill: #2ca02c; stroke: #000000; stroke-linejoin: miter"/>
     <use xlink:href="#m9f1b87e623" x="111.104611" y="171.533216" style="fill: #2ca02c; stroke: #000000; stroke-linejoin: miter"/>
     <use xlink:href="#m9f1b87e623" x="154.942995" y="166.79874" style="fill: #2ca02c; stroke: #000000; stroke-linejoin: miter"/>
     <use xlink:href="#m9f1b87e623" x="187.821782" y="160.880656" style="fill: #2ca02c; stroke: #000000; stroke-linejoin: miter"/>
     <use xlink:href="#m9f1b87e623" x="220.70057" y="155.808009" style="fill: #2ca02c; stroke: #000000; stroke-linejoin: miter"/>
     <use xlink:href="#m9f1b87e623" x="249.92616" y="155.808009" style="fill: #2ca02c; stroke: #000000; stroke-linejoin: miter"/>
     <use xlink:href="#m9f1b87e623" x="297.417742" y="152.257156" style="fill: #2ca02c; stroke: #000000; stroke-linejoin: miter"/>
     <use xlink:href="#m9f1b87e623" x="344.909324" y="145.662714" style="fill: #2ca02c; stroke: #000000; stroke-linejoin: miter"/>
    </g>
   </g>
   <g id="line2d_13">
    <path d="M 59.95983 121.922718 
L 61.359005 121.204832 
L 62.644931 120.822566 
L 64.361934 120.55406 
L 65.527304 120.597353 
L 67.123752 120.902616 
L 68.643483 121.381868 
L 70.203399 122.15211 
L 72.263803 123.411043 
L 74.1452 124.886695 
L 76.373651 126.883262 
L 79.142776 129.773435 
L 81.55754 132.615593 
L 84.502018 136.365348 
L 88.440166 141.808168 
L 93.196631 148.835331 
L 98.183247 156.546074 
L 119.024745 189.167109 
L 125.695486 198.996258 
L 131.664813 207.36316 
L 136.954644 214.408801 
L 142.412523 221.298633 
L 147.490469 227.357988 
L 152.645133 233.161389 
L 157.70116 238.522875 
L 162.717001 243.522688 
L 167.853399 248.326331 
L 172.920385 252.763465 
L 178.078702 256.985524 
L 183.295469 260.969233 
L 188.570688 264.719107 
L 193.981075 268.292003 
L 199.464527 271.647513 
L 205.119678 274.846747 
L 210.895385 277.858515 
L 216.857405 280.71648 
L 223.016698 283.421241 
L 229.38057 285.9726 
L 235.996513 288.384967 
L 242.904712 290.66574 
L 250.130739 292.815291 
L 257.711126 294.836213 
L 265.693365 296.732092 
L 274.132254 298.50585 
L 283.09355 300.160123 
L 292.664931 301.69849 
L 302.934072 303.121218 
L 314.025183 304.430527 
L 326.088045 305.627507 
L 339.316277 306.713158 
L 353.965604 307.688359 
L 355.86892 307.8 
L 355.86892 307.8 
" clip-path="url(#pf7f95514c1)" style="fill: none; stroke: #1f77b4; stroke-width: 2; stroke-linecap: square"/>
   </g>
   <g id="line2d_14">
    <path d="M 59.95983 111.675969 
L 111.104611 184.553006 
L 154.942995 182.69304 
L 187.821782 179.311265 
L 220.70057 176.267677 
L 249.92616 175.253147 
L 297.417742 165.78421 
L 344.909324 164.093323 
" clip-path="url(#pf7f95514c1)" style="fill: none; stroke-dasharray: 3.7,1.6; stroke-dashoffset: 0; stroke: #1f77b4"/>
    <defs>
     <path id="m3c12df018b" d="M -3 3 
L 3 3 
L 3 -3 
L -3 -3 
z
" style="stroke: #000000; stroke-linejoin: miter"/>
    </defs>
    <g clip-path="url(#pf7f95514c1)">
     <use xlink:href="#m3c12df018b" x="59.95983" y="111.675969" style="fill: #1f77b4; stroke: #000000; stroke-linejoin: miter"/>
     <use xlink:href="#m3c12df018b" x="111.104611" y="184.553006" style="fill: #1f77b4; stroke: #000000; stroke-linejoin: miter"/>
     <use xlink:href="#m3c12df018b" x="154.942995" y="182.69304" style="fill: #1f77b4; stroke: #000000; stroke-linejoin: miter"/>
     <use xlink:href="#m3c12df018b" x="187.821782" y="179.311265" style="fill: #1f77b4; stroke: #000000; stroke-linejoin: miter"/>
     <use xlink:href="#m3c12df018b" x="220.70057" y="176.267677" style="fill: #1f77b4; stroke: #000000; stroke-linejoin: miter"/>
     <use xlink:href="#m3c12df018b" x="249.92616" y="175.253147" style="fill: #1f77b4; stroke: #000000; stroke-linejoin: miter"/>
     <use xlink:href="#m3c12df018b" x="297.417742" y="165.78421" style="fill: #1f77b4; stroke: #000000; stroke-linejoin: miter"/>
     <use xlink:href="#m3c12df018b" x="344.909324" y="164.093323" style="fill: #1f77b4; stroke: #000000; stroke-linejoin: miter"/>
    </g>
   </g>
   <g id="patch_3">
    <path d="M 45.164375 320.4 
L 45.164375 43.2 
" style="fill: none; stroke: #000000; stroke-width: 0.8; stroke-linejoin: miter; stroke-linecap: square"/>
   </g>
   <g id="patch_4">
    <path d="M 370.664375 320.4 
L 370.664375 43.2 
" style="fill: none; stroke: #000000; stroke-width: 0.8; stroke-linejoin: miter; stroke-linecap: square"/>
   </g>
   <g id="patch_5">
    <path d="M 45.164375 320.4 
L 370.664375 320.4 
" style="fill: none; stroke: #000000; stroke-width: 0.8; stroke-linejoin: miter; stroke-linecap: square"/>
   </g>
   <g id="patch_6">
    <path d="M 45.164375 43.2 
L 370.664375 43.2 
" style="fill: none; stroke: #000000; stroke-width: 0.8; stroke-linejoin: miter; stroke-linecap: square"/>
   </g>
   <g id="legend_1">
    <g id="patch_7">
     <path d="M 224.772188 109.9125 
L 363.664375 109.9125 
Q 365.664375 109.9125 365.664375 107.9125 
L 365.664375 50.2 
Q 365.664375 48.2 363.664375 48.2 
L 224.772188 48.2 
Q 222.772188 48.2 222.772188 50.2 
L 222.772188 107.9125 
Q 222.772188 109.9125 224.772188 109.9125 
z
" style="fill: #ffffff; opacity: 0.8; stroke: #cccccc; stroke-linejoin: miter"/>
    </g>
    <g id="line2d_15">
     <path d="M 226.772188 56.298437 
L 246.772188 56.298437 
" style="fill: none; stroke: #2ca02c; stroke-width: 2; stroke-linecap: square"/>
    </g>
    <g id="line2d_16"/>
    <g id="text_13">
     <!-- DUL075 -->
     <g transform="translate(254.772188 59.798437) scale(0.1 -0.1)">
      <defs>
       <path id="DejaVuSans-44" d="M 1259 4147 
L 1259 519 
L 2022 519 
Q 2988 519 3436 956 
Q 3884 1394 3884 2338 
Q 3884 3275 3436 3711 
Q 2988 4147 2022 4147 
L 1259 4147 
z
M 628 4666 
L 1925 4666 
Q 3281 4666 3915 4102 
Q 4550 3538 4550 2338 
Q 4550 1131 3912 565 
Q 3275 0 1925 0 
L 628 0 
L 628 4666 
z
" transform="scale(0.015625)"/>
       <path id="DejaVuSans-55" d="M 556 4666 
L 1191 4666 
L 1191 1831 
Q 1191 1081 1462 751 
Q 1734 422 2344 422 
Q 2950 422 3222 751 
Q 3494 1081 3494 1831 
L 3494 4666 
L 4128 4666 
L 4128 1753 
Q 4128 841 3676 375 
Q 3225 -91 2344 -91 
Q 1459 -91 1007 375 
Q 556 841 556 1753 
L 556 4666 
z
" transform="scale(0.015625)"/>
       <path id="DejaVuSans-4c" d="M 628 4666 
L 1259 4666 
L 1259 531 
L 3531 531 
L 3531 0 
L 628 0 
L 628 4666 
z
" transform="scale(0.015625)"/>
      </defs>
      <use xlink:href="#DejaVuSans-44"/>
      <use xlink:href="#DejaVuSans-55" transform="translate(77.001953 0)"/>
      <use xlink:href="#DejaVuSans-4c" transform="translate(150.195312 0)"/>
      <use xlink:href="#DejaVuSans-30" transform="translate(205.908203 0)"/>
      <use xlink:href="#DejaVuSans-37" transform="translate(269.53125 0)"/>
      <use xlink:href="#DejaVuSans-35" transform="translate(333.154297 0)"/>
     </g>
    </g>
    <g id="LineCollection_3">
     <path d="M 236.772188 75.976562 
L 236.772188 65.976562 
" style="fill: none; stroke: #2ca02c"/>
    </g>
    <g id="line2d_17">
     <path d="M 226.772188 70.976562 
L 246.772188 70.976562 
" style="fill: none; stroke-dasharray: 3.7,1.6; stroke-dashoffset: 0; stroke: #2ca02c"/>
    </g>
    <g id="line2d_18">
     <g>
      <use xlink:href="#m9f1b87e623" x="236.772188" y="70.976562" style="fill: #2ca02c; stroke: #000000; stroke-linejoin: miter"/>
     </g>
    </g>
    <g id="text_14">
     <!-- DUL075±SD (n=272) -->
     <g transform="translate(254.772188 74.476562) scale(0.1 -0.1)">
      <defs>
       <path id="DejaVuSans-b1" d="M 2944 4013 
L 2944 2803 
L 4684 2803 
L 4684 2272 
L 2944 2272 
L 2944 1063 
L 2419 1063 
L 2419 2272 
L 678 2272 
L 678 2803 
L 2419 2803 
L 2419 4013 
L 2944 4013 
z
M 678 531 
L 4684 531 
L 4684 0 
L 678 0 
L 678 531 
z
" transform="scale(0.015625)"/>
       <path id="DejaVuSans-53" d="M 3425 4513 
L 3425 3897 
Q 3066 4069 2747 4153 
Q 2428 4238 2131 4238 
Q 1616 4238 1336 4038 
Q 1056 3838 1056 3469 
Q 1056 3159 1242 3001 
Q 1428 2844 1947 2747 
L 2328 2669 
Q 3034 2534 3370 2195 
Q 3706 1856 3706 1288 
Q 3706 609 3251 259 
Q 2797 -91 1919 -91 
Q 1588 -91 1214 -16 
Q 841 59 441 206 
L 441 856 
Q 825 641 1194 531 
Q 1563 422 1919 422 
Q 2459 422 2753 634 
Q 3047 847 3047 1241 
Q 3047 1584 2836 1778 
Q 2625 1972 2144 2069 
L 1759 2144 
Q 1053 2284 737 2584 
Q 422 2884 422 3419 
Q 422 4038 858 4394 
Q 1294 4750 2059 4750 
Q 2388 4750 2728 4690 
Q 3069 4631 3425 4513 
z
" transform="scale(0.015625)"/>
       <path id="DejaVuSans-20" transform="scale(0.015625)"/>
       <path id="DejaVuSans-28" d="M 1984 4856 
Q 1566 4138 1362 3434 
Q 1159 2731 1159 2009 
Q 1159 1288 1364 580 
Q 1569 -128 1984 -844 
L 1484 -844 
Q 1016 -109 783 600 
Q 550 1309 550 2009 
Q 550 2706 781 3412 
Q 1013 4119 1484 4856 
L 1984 4856 
z
" transform="scale(0.015625)"/>
       <path id="DejaVuSans-6e" d="M 3513 2113 
L 3513 0 
L 2938 0 
L 2938 2094 
Q 2938 2591 2744 2837 
Q 2550 3084 2163 3084 
Q 1697 3084 1428 2787 
Q 1159 2491 1159 1978 
L 1159 0 
L 581 0 
L 581 3500 
L 1159 3500 
L 1159 2956 
Q 1366 3272 1645 3428 
Q 1925 3584 2291 3584 
Q 2894 3584 3203 3211 
Q 3513 2838 3513 2113 
z
" transform="scale(0.015625)"/>
       <path id="DejaVuSans-3d" d="M 678 2906 
L 4684 2906 
L 4684 2381 
L 678 2381 
L 678 2906 
z
M 678 1631 
L 4684 1631 
L 4684 1100 
L 678 1100 
L 678 1631 
z
" transform="scale(0.015625)"/>
       <path id="DejaVuSans-29" d="M 513 4856 
L 1013 4856 
Q 1481 4119 1714 3412 
Q 1947 2706 1947 2009 
Q 1947 1309 1714 600 
Q 1481 -109 1013 -844 
L 513 -844 
Q 928 -128 1133 580 
Q 1338 1288 1338 2009 
Q 1338 2731 1133 3434 
Q 928 4138 513 4856 
z
" transform="scale(0.015625)"/>
      </defs>
      <use xlink:href="#DejaVuSans-44"/>
      <use xlink:href="#DejaVuSans-55" transform="translate(77.001953 0)"/>
      <use xlink:href="#DejaVuSans-4c" transform="translate(150.195312 0)"/>
      <use xlink:href="#DejaVuSans-30" transform="translate(205.908203 0)"/>
      <use xlink:href="#DejaVuSans-37" transform="translate(269.53125 0)"/>
      <use xlink:href="#DejaVuSans-35" transform="translate(333.154297 0)"/>
      <use xlink:href="#DejaVuSans-b1" transform="translate(396.777344 0)"/>
      <use xlink:href="#DejaVuSans-53" transform="translate(480.566406 0)"/>
      <use xlink:href="#DejaVuSans-44" transform="translate(544.042969 0)"/>
      <use xlink:href="#DejaVuSans-20" transform="translate(621.044922 0)"/>
      <use xlink:href="#DejaVuSans-28" transform="translate(652.832031 0)"/>
      <use xlink:href="#DejaVuSans-6e" transform="translate(691.845703 0)"/>
      <use xlink:href="#DejaVuSans-3d" transform="translate(755.224609 0)"/>
      <use xlink:href="#DejaVuSans-32" transform="translate(839.013672 0)"/>
      <use xlink:href="#DejaVuSans-37" transform="translate(902.636719 0)"/>
      <use xlink:href="#DejaVuSans-32" transform="translate(966.259766 0)"/>
      <use xlink:href="#DejaVuSans-29" transform="translate(1029.882812 0)"/>
     </g>
    </g>
    <g id="line2d_19">
     <path d="M 226.772188 85.654687 
L 246.772188 85.654687 
" style="fill: none; stroke: #1f77b4; stroke-width: 2; stroke-linecap: square"/>
    </g>
    <g id="line2d_20"/>
    <g id="text_15">
     <!-- DUL15 -->
     <g transform="translate(254.772188 89.154687) scale(0.1 -0.1)">
      <defs>
       <path id="DejaVuSans-31" d="M 794 531 
L 1825 531 
L 1825 4091 
L 703 3866 
L 703 4441 
L 1819 4666 
L 2450 4666 
L 2450 531 
L 3481 531 
L 3481 0 
L 794 0 
L 794 531 
z
" transform="scale(0.015625)"/>
      </defs>
      <use xlink:href="#DejaVuSans-44"/>
      <use xlink:href="#DejaVuSans-55" transform="translate(77.001953 0)"/>
      <use xlink:href="#DejaVuSans-4c" transform="translate(150.195312 0)"/>
      <use xlink:href="#DejaVuSans-31" transform="translate(205.908203 0)"/>
      <use xlink:href="#DejaVuSans-35" transform="translate(269.53125 0)"/>
     </g>
    </g>
    <g id="LineCollection_4">
     <path d="M 236.772188 105.332812 
L 236.772188 95.332812 
" style="fill: none; stroke: #1f77b4"/>
    </g>
    <g id="line2d_21">
     <path d="M 226.772188 100.332812 
L 246.772188 100.332812 
" style="fill: none; stroke-dasharray: 3.7,1.6; stroke-dashoffset: 0; stroke: #1f77b4"/>
    </g>
    <g id="line2d_22">
     <g>
      <use xlink:href="#m3c12df018b" x="236.772188" y="100.332812" style="fill: #1f77b4; stroke: #000000; stroke-linejoin: miter"/>
     </g>
    </g>
    <g id="text_16">
     <!-- DUL15±SD (n=273) -->
     <g transform="translate(254.772188 103.832812) scale(0.1 -0.1)">
      <defs>
       <path id="DejaVuSans-33" d="M 2597 2516 
Q 3050 2419 3304 2112 
Q 3559 1806 3559 1356 
Q 3559 666 3084 287 
Q 2609 -91 1734 -91 
Q 1441 -91 1130 -33 
Q 819 25 488 141 
L 488 750 
Q 750 597 1062 519 
Q 1375 441 1716 441 
Q 2309 441 2620 675 
Q 2931 909 2931 1356 
Q 2931 1769 2642 2001 
Q 2353 2234 1838 2234 
L 1294 2234 
L 1294 2753 
L 1863 2753 
Q 2328 2753 2575 2939 
Q 2822 3125 2822 3475 
Q 2822 3834 2567 4026 
Q 2313 4219 1838 4219 
Q 1578 4219 1281 4162 
Q 984 4106 628 3988 
L 628 4550 
Q 988 4650 1302 4700 
Q 1616 4750 1894 4750 
Q 2613 4750 3031 4423 
Q 3450 4097 3450 3541 
Q 3450 3153 3228 2886 
Q 3006 2619 2597 2516 
z
" transform="scale(0.015625)"/>
      </defs>
      <use xlink:href="#DejaVuSans-44"/>
      <use xlink:href="#DejaVuSans-55" transform="translate(77.001953 0)"/>
      <use xlink:href="#DejaVuSans-4c" transform="translate(150.195312 0)"/>
      <use xlink:href="#DejaVuSans-31" transform="translate(205.908203 0)"/>
      <use xlink:href="#DejaVuSans-35" transform="translate(269.53125 0)"/>
      <use xlink:href="#DejaVuSans-b1" transform="translate(333.154297 0)"/>
      <use xlink:href="#DejaVuSans-53" transform="translate(416.943359 0)"/>
      <use xlink:href="#DejaVuSans-44" transform="translate(480.419922 0)"/>
      <use xlink:href="#DejaVuSans-20" transform="translate(557.421875 0)"/>
      <use xlink:href="#DejaVuSans-28" transform="translate(589.208984 0)"/>
      <use xlink:href="#DejaVuSans-6e" transform="translate(628.222656 0)"/>
      <use xlink:href="#DejaVuSans-3d" transform="translate(691.601562 0)"/>
      <use xlink:href="#DejaVuSans-32" transform="translate(775.390625 0)"/>
      <use xlink:href="#DejaVuSans-37" transform="translate(839.013672 0)"/>
      <use xlink:href="#DejaVuSans-33" transform="translate(902.636719 0)"/>
      <use xlink:href="#DejaVuSans-29" transform="translate(966.259766 0)"/>
     </g>
    </g>
   </g>
  </g>
  <g id="axes_2">
   <g id="patch_8">
    <path d="M 468.314375 320.4 
L 793.814375 320.4 
L 793.814375 43.2 
L 468.314375 43.2 
z
" style="fill: #ffffff"/>
   </g>
   <g id="matplotlib.axis_3">
    <g id="xtick_6">
     <g id="line2d_23">
      <g>
       <use xlink:href="#m979af9ba63" x="483.10983" y="320.4" style="stroke: #000000; stroke-width: 0.8"/>
      </g>
     </g>
     <g id="text_17">
      <!-- 0 -->
      <g transform="translate(478.337955 338.797656) scale(0.15 -0.15)">
       <use xlink:href="#DejaVuSans-30"/>
      </g>
     </g>
    </g>
    <g id="xtick_7">
     <g id="line2d_24">
      <g>
       <use xlink:href="#m979af9ba63" x="556.173803" y="320.4" style="stroke: #000000; stroke-width: 0.8"/>
      </g>
     </g>
     <g id="text_18">
      <!-- 20 -->
      <g transform="translate(546.630053 338.797656) scale(0.15 -0.15)">
       <use xlink:href="#DejaVuSans-32"/>
       <use xlink:href="#DejaVuSans-30" transform="translate(63.623047 0)"/>
      </g>
     </g>
    </g>
    <g id="xtick_8">
     <g id="line2d_25">
      <g>
       <use xlink:href="#m979af9ba63" x="629.237776" y="320.4" style="stroke: #000000; stroke-width: 0.8"/>
      </g>
     </g>
     <g id="text_19">
      <!-- 40 -->
      <g transform="translate(619.694026 338.797656) scale(0.15 -0.15)">
       <use xlink:href="#DejaVuSans-34"/>
       <use xlink:href="#DejaVuSans-30" transform="translate(63.623047 0)"/>
      </g>
     </g>
    </g>
    <g id="xtick_9">
     <g id="line2d_26">
      <g>
       <use xlink:href="#m979af9ba63" x="702.301749" y="320.4" style="stroke: #000000; stroke-width: 0.8"/>
      </g>
     </g>
     <g id="text_20">
      <!-- 60 -->
      <g transform="translate(692.757999 338.797656) scale(0.15 -0.15)">
       <use xlink:href="#DejaVuSans-36"/>
       <use xlink:href="#DejaVuSans-30" transform="translate(63.623047 0)"/>
      </g>
     </g>
    </g>
    <g id="xtick_10">
     <g id="line2d_27">
      <g>
       <use xlink:href="#m979af9ba63" x="775.365722" y="320.4" style="stroke: #000000; stroke-width: 0.8"/>
      </g>
     </g>
     <g id="text_21">
      <!-- 80 -->
      <g transform="translate(765.821972 338.797656) scale(0.15 -0.15)">
       <use xlink:href="#DejaVuSans-38"/>
       <use xlink:href="#DejaVuSans-30" transform="translate(63.623047 0)"/>
      </g>
     </g>
    </g>
    <g id="text_22">
     <!-- time [week] -->
     <g transform="translate(570.325625 359.594375) scale(0.18 -0.18)">
      <use xlink:href="#DejaVuSans-Bold-74"/>
      <use xlink:href="#DejaVuSans-Bold-69" transform="translate(47.802734 0)"/>
      <use xlink:href="#DejaVuSans-Bold-6d" transform="translate(82.080078 0)"/>
      <use xlink:href="#DejaVuSans-Bold-65" transform="translate(186.279297 0)"/>
      <use xlink:href="#DejaVuSans-Bold-20" transform="translate(254.101562 0)"/>
      <use xlink:href="#DejaVuSans-Bold-5b" transform="translate(288.916016 0)"/>
      <use xlink:href="#DejaVuSans-Bold-77" transform="translate(334.619141 0)"/>
      <use xlink:href="#DejaVuSans-Bold-65" transform="translate(427.001953 0)"/>
      <use xlink:href="#DejaVuSans-Bold-65" transform="translate(494.824219 0)"/>
      <use xlink:href="#DejaVuSans-Bold-6b" transform="translate(562.646484 0)"/>
      <use xlink:href="#DejaVuSans-Bold-5d" transform="translate(629.150391 0)"/>
     </g>
    </g>
   </g>
   <g id="matplotlib.axis_4">
    <g id="ytick_6">
     <g id="line2d_28">
      <g>
       <use xlink:href="#ma679f7c712" x="468.314375" y="305.929596" style="stroke: #000000; stroke-width: 0.8"/>
      </g>
     </g>
     <g id="text_23">
      <!-- 5 -->
      <g transform="translate(451.770625 311.628424) scale(0.15 -0.15)">
       <use xlink:href="#DejaVuSans-35"/>
      </g>
     </g>
    </g>
    <g id="ytick_7">
     <g id="line2d_29">
      <g>
       <use xlink:href="#ma679f7c712" x="468.314375" y="269.206488" style="stroke: #000000; stroke-width: 0.8"/>
      </g>
     </g>
     <g id="text_24">
      <!-- 6 -->
      <g transform="translate(451.770625 274.905316) scale(0.15 -0.15)">
       <use xlink:href="#DejaVuSans-36"/>
      </g>
     </g>
    </g>
    <g id="ytick_8">
     <g id="line2d_30">
      <g>
       <use xlink:href="#ma679f7c712" x="468.314375" y="232.48338" style="stroke: #000000; stroke-width: 0.8"/>
      </g>
     </g>
     <g id="text_25">
      <!-- 7 -->
      <g transform="translate(451.770625 238.182209) scale(0.15 -0.15)">
       <use xlink:href="#DejaVuSans-37"/>
      </g>
     </g>
    </g>
    <g id="ytick_9">
     <g id="line2d_31">
      <g>
       <use xlink:href="#ma679f7c712" x="468.314375" y="195.760273" style="stroke: #000000; stroke-width: 0.8"/>
      </g>
     </g>
     <g id="text_26">
      <!-- 8 -->
      <g transform="translate(451.770625 201.459101) scale(0.15 -0.15)">
       <use xlink:href="#DejaVuSans-38"/>
      </g>
     </g>
    </g>
    <g id="ytick_10">
     <g id="line2d_32">
      <g>
       <use xlink:href="#ma679f7c712" x="468.314375" y="159.037165" style="stroke: #000000; stroke-width: 0.8"/>
      </g>
     </g>
     <g id="text_27">
      <!-- 9 -->
      <g transform="translate(451.770625 164.735993) scale(0.15 -0.15)">
       <use xlink:href="#DejaVuSans-39"/>
      </g>
     </g>
    </g>
    <g id="ytick_11">
     <g id="line2d_33">
      <g>
       <use xlink:href="#ma679f7c712" x="468.314375" y="122.314057" style="stroke: #000000; stroke-width: 0.8"/>
      </g>
     </g>
     <g id="text_28">
      <!-- 10 -->
      <g transform="translate(442.226875 128.012886) scale(0.15 -0.15)">
       <use xlink:href="#DejaVuSans-31"/>
       <use xlink:href="#DejaVuSans-30" transform="translate(63.623047 0)"/>
      </g>
     </g>
    </g>
    <g id="ytick_12">
     <g id="line2d_34">
      <g>
       <use xlink:href="#ma679f7c712" x="468.314375" y="85.59095" style="stroke: #000000; stroke-width: 0.8"/>
      </g>
     </g>
     <g id="text_29">
      <!-- 11 -->
      <g transform="translate(442.226875 91.289778) scale(0.15 -0.15)">
       <use xlink:href="#DejaVuSans-31"/>
       <use xlink:href="#DejaVuSans-31" transform="translate(63.623047 0)"/>
      </g>
     </g>
    </g>
    <g id="ytick_13">
     <g id="line2d_35">
      <g>
       <use xlink:href="#ma679f7c712" x="468.314375" y="48.867842" style="stroke: #000000; stroke-width: 0.8"/>
      </g>
     </g>
     <g id="text_30">
      <!-- 12 -->
      <g transform="translate(442.226875 54.56667) scale(0.15 -0.15)">
       <use xlink:href="#DejaVuSans-31"/>
       <use xlink:href="#DejaVuSans-32" transform="translate(63.623047 0)"/>
      </g>
     </g>
    </g>
    <g id="text_31">
     <!-- FPG [mM] -->
     <g transform="translate(434.483437 231.62625) rotate(-90) scale(0.18 -0.18)">
      <defs>
       <path id="DejaVuSans-Bold-46" d="M 588 4666 
L 3834 4666 
L 3834 3756 
L 1791 3756 
L 1791 2888 
L 3713 2888 
L 3713 1978 
L 1791 1978 
L 1791 0 
L 588 0 
L 588 4666 
z
" transform="scale(0.015625)"/>
       <path id="DejaVuSans-Bold-50" d="M 588 4666 
L 2584 4666 
Q 3475 4666 3951 4270 
Q 4428 3875 4428 3144 
Q 4428 2409 3951 2014 
Q 3475 1619 2584 1619 
L 1791 1619 
L 1791 0 
L 588 0 
L 588 4666 
z
M 1791 3794 
L 1791 2491 
L 2456 2491 
Q 2806 2491 2997 2661 
Q 3188 2831 3188 3144 
Q 3188 3456 2997 3625 
Q 2806 3794 2456 3794 
L 1791 3794 
z
" transform="scale(0.015625)"/>
       <path id="DejaVuSans-Bold-47" d="M 4781 347 
Q 4331 128 3847 18 
Q 3363 -91 2847 -91 
Q 1681 -91 1000 561 
Q 319 1213 319 2328 
Q 319 3456 1012 4103 
Q 1706 4750 2913 4750 
Q 3378 4750 3804 4662 
Q 4231 4575 4609 4403 
L 4609 3438 
Q 4219 3659 3833 3768 
Q 3447 3878 3059 3878 
Q 2341 3878 1952 3476 
Q 1563 3075 1563 2328 
Q 1563 1588 1938 1184 
Q 2313 781 3003 781 
Q 3191 781 3352 804 
Q 3513 828 3641 878 
L 3641 1784 
L 2906 1784 
L 2906 2591 
L 4781 2591 
L 4781 347 
z
" transform="scale(0.015625)"/>
       <path id="DejaVuSans-Bold-4d" d="M 588 4666 
L 2119 4666 
L 3181 2169 
L 4250 4666 
L 5778 4666 
L 5778 0 
L 4641 0 
L 4641 3413 
L 3566 897 
L 2803 897 
L 1728 3413 
L 1728 0 
L 588 0 
L 588 4666 
z
" transform="scale(0.015625)"/>
      </defs>
      <use xlink:href="#DejaVuSans-Bold-46"/>
      <use xlink:href="#DejaVuSans-Bold-50" transform="translate(68.310547 0)"/>
      <use xlink:href="#DejaVuSans-Bold-47" transform="translate(141.601562 0)"/>
      <use xlink:href="#DejaVuSans-Bold-20" transform="translate(223.681641 0)"/>
      <use xlink:href="#DejaVuSans-Bold-5b" transform="translate(258.496094 0)"/>
      <use xlink:href="#DejaVuSans-Bold-6d" transform="translate(304.199219 0)"/>
      <use xlink:href="#DejaVuSans-Bold-4d" transform="translate(408.398438 0)"/>
      <use xlink:href="#DejaVuSans-Bold-5d" transform="translate(507.910156 0)"/>
     </g>
    </g>
   </g>
   <g id="LineCollection_5">
    <path d="M 483.10983 258.124746 
L 483.10983 63.201681 
" clip-path="url(#pb83dc24041)" style="fill: none; stroke: #2ca02c"/>
    <path d="M 490.416227 284.204962 
L 490.416227 145.593137 
" clip-path="url(#pb83dc24041)" style="fill: none; stroke: #2ca02c"/>
    <path d="M 497.722624 291.490328 
L 497.722624 139.883631 
" clip-path="url(#pb83dc24041)" style="fill: none; stroke: #2ca02c"/>
    <path d="M 512.335419 280.592692 
L 512.335419 137.649111 
" clip-path="url(#pb83dc24041)" style="fill: none; stroke: #2ca02c"/>
    <path d="M 534.254611 282.033312 
L 534.254611 121.763104 
" clip-path="url(#pb83dc24041)" style="fill: none; stroke: #2ca02c"/>
    <path d="M 556.173803 268.511094 
L 556.173803 125.567513 
" clip-path="url(#pb83dc24041)" style="fill: none; stroke: #2ca02c"/>
    <path d="M 578.092995 281.572761 
L 578.092995 116.970797 
" clip-path="url(#pb83dc24041)" style="fill: none; stroke: #2ca02c"/>
    <path d="M 610.971782 272.907491 
L 610.971782 116.96884 
" clip-path="url(#pb83dc24041)" style="fill: none; stroke: #2ca02c"/>
    <path d="M 643.85057 273.757993 
L 643.85057 104.824669 
" clip-path="url(#pb83dc24041)" style="fill: none; stroke: #2ca02c"/>
    <path d="M 673.07616 280.453439 
L 673.07616 102.856802 
" clip-path="url(#pb83dc24041)" style="fill: none; stroke: #2ca02c"/>
    <path d="M 720.567742 267.256643 
L 720.567742 93.991564 
" clip-path="url(#pb83dc24041)" style="fill: none; stroke: #2ca02c"/>
    <path d="M 768.059324 276.051177 
L 768.059324 85.459669 
" clip-path="url(#pb83dc24041)" style="fill: none; stroke: #2ca02c"/>
   </g>
   <g id="LineCollection_6">
    <path d="M 483.10983 251.081051 
L 483.10983 55.8 
" clip-path="url(#pb83dc24041)" style="fill: none; stroke: #1f77b4"/>
    <path d="M 490.416227 299.040471 
L 490.416227 160.173681 
" clip-path="url(#pb83dc24041)" style="fill: none; stroke: #1f77b4"/>
    <path d="M 497.722624 301.541275 
L 497.722624 153.995856 
" clip-path="url(#pb83dc24041)" style="fill: none; stroke: #1f77b4"/>
    <path d="M 512.335419 294.706857 
L 512.335419 155.840067 
" clip-path="url(#pb83dc24041)" style="fill: none; stroke: #1f77b4"/>
    <path d="M 534.254611 292.611606 
L 534.254611 145.065791 
" clip-path="url(#pb83dc24041)" style="fill: none; stroke: #1f77b4"/>
    <path d="M 556.173803 290.116293 
L 556.173803 142.570874 
" clip-path="url(#pb83dc24041)" style="fill: none; stroke: #1f77b4"/>
    <path d="M 578.092995 307.8 
L 578.092995 129.877397 
" clip-path="url(#pb83dc24041)" style="fill: none; stroke: #1f77b4"/>
    <path d="M 610.971782 293.53676 
L 610.971782 137.311919 
" clip-path="url(#pb83dc24041)" style="fill: none; stroke: #1f77b4"/>
    <path d="M 643.85057 291.835474 
L 643.85057 126.931608 
" clip-path="url(#pb83dc24041)" style="fill: none; stroke: #1f77b4"/>
    <path d="M 673.07616 296.957018 
L 673.07616 132.053151 
" clip-path="url(#pb83dc24041)" style="fill: none; stroke: #1f77b4"/>
    <path d="M 720.567742 289.677615 
L 720.567742 111.755012 
" clip-path="url(#pb83dc24041)" style="fill: none; stroke: #1f77b4"/>
    <path d="M 768.059324 293.097872 
L 768.059324 106.496243 
" clip-path="url(#pb83dc24041)" style="fill: none; stroke: #1f77b4"/>
   </g>
   <g id="line2d_36">
    <path d="M 483.10983 161.36905 
L 483.263264 161.481284 
L 483.508028 162.012593 
L 484.015823 163.777183 
L 485.122742 167.560787 
L 485.813197 169.124852 
L 486.474426 170.101704 
L 487.026059 170.91242 
L 487.475402 172.460058 
L 488.724796 176.857101 
L 489.407944 178.407683 
L 490.069173 179.384444 
L 490.708483 180.295431 
L 491.205318 181.945416 
L 492.334156 185.654267 
L 493.024611 187.149775 
L 493.689493 188.086691 
L 494.379947 189.017404 
L 494.909661 190.681962 
L 495.976395 193.933564 
L 496.670503 195.340724 
L 497.342691 196.224847 
L 498.036799 197.100026 
L 498.577473 198.687401 
L 499.629594 201.667955 
L 500.327355 202.98348 
L 501.00685 203.811518 
L 501.689998 204.615745 
L 502.234324 206.10432 
L 503.286446 208.875966 
L 503.98786 210.103171 
L 504.674661 210.876676 
L 505.339543 211.604865 
L 505.880217 212.978054 
L 506.943298 215.585647 
L 507.652018 216.735171 
L 508.349779 217.458811 
L 508.992742 218.118887 
L 509.540722 219.416005 
L 510.600149 221.83145 
L 511.312523 222.903702 
L 512.021244 223.582194 
L 512.642287 224.176529 
L 513.190267 225.38186 
L 514.257001 227.645447 
L 514.976681 228.649656 
L 515.696362 229.284078 
L 516.295486 229.822358 
L 516.850772 230.960709 
L 517.913853 233.057491 
L 518.64084 233.997872 
L 519.375133 234.59321 
L 519.948685 235.078288 
L 520.511277 236.153164 
L 521.574358 238.100731 
L 522.308651 238.979353 
L 523.057557 239.536389 
L 523.601883 239.971246 
L 524.171782 240.985986 
L 525.23121 242.78994 
L 525.972809 243.612538 
L 526.739981 244.136714 
L 527.255082 244.526298 
L 527.835941 245.490642 
L 528.891715 247.159578 
L 529.644274 247.930928 
L 530.429712 248.421423 
L 530.908281 248.766781 
L 531.500099 249.682847 
L 532.555873 251.231052 
L 533.319392 251.952611 
L 534.126749 252.411704 
L 534.561479 252.714418 
L 535.164257 253.584271 
L 536.216378 255.016442 
L 536.99451 255.695215 
L 537.827439 256.125958 
L 538.214678 256.389433 
L 538.832069 257.220368 
L 539.880537 258.543505 
L 540.669628 259.178122 
L 541.528129 259.581859 
L 541.87153 259.814334 
L 542.51084 260.618631 
L 543.552001 261.832938 
L 544.359358 262.427675 
L 545.269005 262.814015 
L 545.623365 263.097725 
L 547.954106 265.400512 
L 548.860099 265.769811 
L 549.199846 265.983276 
L 549.934139 266.796282 
L 550.924156 267.764982 
L 551.768045 268.277122 
L 553.156261 269.033917 
L 554.679644 270.472161 
L 555.552759 270.931001 
L 556.732742 271.508098 
L 558.478971 273.009444 
L 559.392271 273.411383 
L 560.309223 273.819096 
L 562.347708 275.392075 
L 563.326766 275.732676 
L 563.893011 275.983691 
L 566.271244 277.610377 
L 567.915183 278.335198 
L 569.241294 279.271654 
L 570.213045 279.656437 
L 571.382069 280.102392 
L 573.099072 281.207025 
L 574.132927 281.534985 
L 574.940284 281.823578 
L 576.986075 283.002419 
L 578.114914 283.279575 
L 578.58983 283.486155 
L 580.672153 284.596359 
L 582.871378 285.413175 
L 584.022136 285.970495 
L 585.158281 286.259355 
L 585.943718 286.503801 
L 587.912793 287.422577 
L 590.364089 288.243249 
L 591.5185 288.687728 
L 594.181681 289.537963 
L 595.347052 289.921163 
L 597.513399 290.533134 
L 598.781059 290.976283 
L 601.794947 291.831681 
L 603.047995 292.125187 
L 604.498314 292.459105 
L 606.065537 292.965597 
L 612.330772 294.432206 
L 613.711681 294.751671 
L 615.852456 295.186749 
L 617.306429 295.515239 
L 619.651782 295.969369 
L 621.127675 296.256077 
L 623.125974 296.610551 
L 624.689543 296.913461 
L 626.961833 297.298425 
L 628.543668 297.557177 
L 630.432372 297.853244 
L 632.105537 298.126785 
L 634.253617 298.446399 
L 635.956008 298.682309 
L 637.771648 298.9368 
L 639.554409 299.178701 
L 641.545402 299.441676 
L 643.379308 299.656412 
L 645.125537 299.877429 
L 647.03616 300.089849 
L 648.855452 300.307405 
L 650.82818 300.500344 
L 652.494038 300.693561 
L 654.547136 300.878239 
L 656.194729 301.061507 
L 658.324543 301.231935 
L 659.8735 301.400837 
L 662.090991 301.56013 
L 663.570537 301.718542 
L 665.919543 301.869715 
L 674.438803 302.523725 
L 678.523079 302.793389 
L 684.145351 303.089205 
L 692.226227 303.514969 
L 697.030183 303.748216 
L 711.774493 304.295457 
L 733.569476 304.863281 
L 756.157203 305.243336 
L 779.01892 305.487161 
L 779.01892 305.487161 
" clip-path="url(#pb83dc24041)" style="fill: none; stroke: #2ca02c; stroke-width: 2; stroke-linecap: square"/>
   </g>
   <g id="line2d_37">
    <path d="M 483.10983 160.663213 
L 490.416227 214.899049 
L 497.722624 215.686979 
L 512.335419 209.120902 
L 534.254611 201.898208 
L 556.173803 197.039303 
L 578.092995 199.271779 
L 610.971782 194.938165 
L 643.85057 189.291331 
L 673.07616 191.655121 
L 720.567742 180.624103 
L 768.059324 180.755423 
" clip-path="url(#pb83dc24041)" style="fill: none; stroke-dasharray: 3.7,1.6; stroke-dashoffset: 0; stroke: #2ca02c"/>
    <g clip-path="url(#pb83dc24041)">
     <use xlink:href="#m9f1b87e623" x="483.10983" y="160.663213" style="fill: #2ca02c; stroke: #000000; stroke-linejoin: miter"/>
     <use xlink:href="#m9f1b87e623" x="490.416227" y="214.899049" style="fill: #2ca02c; stroke: #000000; stroke-linejoin: miter"/>
     <use xlink:href="#m9f1b87e623" x="497.722624" y="215.686979" style="fill: #2ca02c; stroke: #000000; stroke-linejoin: miter"/>
     <use xlink:href="#m9f1b87e623" x="512.335419" y="209.120902" style="fill: #2ca02c; stroke: #000000; stroke-linejoin: miter"/>
     <use xlink:href="#m9f1b87e623" x="534.254611" y="201.898208" style="fill: #2ca02c; stroke: #000000; stroke-linejoin: miter"/>
     <use xlink:href="#m9f1b87e623" x="556.173803" y="197.039303" style="fill: #2ca02c; stroke: #000000; stroke-linejoin: miter"/>
     <use xlink:href="#m9f1b87e623" x="578.092995" y="199.271779" style="fill: #2ca02c; stroke: #000000; stroke-linejoin: miter"/>
     <use xlink:href="#m9f1b87e623" x="610.971782" y="194.938165" style="fill: #2ca02c; stroke: #000000; stroke-linejoin: miter"/>
     <use xlink:href="#m9f1b87e623" x="643.85057" y="189.291331" style="fill: #2ca02c; stroke: #000000; stroke-linejoin: miter"/>
     <use xlink:href="#m9f1b87e623" x="673.07616" y="191.655121" style="fill: #2ca02c; stroke: #000000; stroke-linejoin: miter"/>
     <use xlink:href="#m9f1b87e623" x="720.567742" y="180.624103" style="fill: #2ca02c; stroke: #000000; stroke-linejoin: miter"/>
     <use xlink:href="#m9f1b87e623" x="768.059324" y="180.755423" style="fill: #2ca02c; stroke: #000000; stroke-linejoin: miter"/>
    </g>
   </g>
   <g id="line2d_38">
    <path d="M 483.10983 153.215607 
L 483.212119 153.32587 
L 483.391126 153.95501 
L 483.741833 156.173393 
L 485.338281 167.204696 
L 485.981244 169.797475 
L 486.598634 171.426784 
L 486.967607 172.456049 
L 487.33658 174.769935 
L 488.812473 184.694689 
L 489.462742 187.332265 
L 490.083786 188.981516 
L 490.68291 190.499931 
L 491.135907 193.185456 
L 492.290318 200.070597 
L 492.9552 202.664189 
L 493.58355 204.277955 
L 494.412826 206.225757 
L 495.008298 209.482339 
L 495.928904 214.126949 
L 496.597439 216.404509 
L 497.233096 217.826665 
L 498.069678 219.535787 
L 498.679762 222.434486 
L 499.589409 226.394783 
L 500.261597 228.368703 
L 500.900907 229.597585 
L 501.719223 231.043776 
L 502.322001 233.521282 
L 503.238954 236.989496 
L 503.914796 238.711436 
L 504.565065 239.790879 
L 505.372422 241.029788 
L 505.982506 243.204232 
L 506.899459 246.202114 
L 507.578954 247.694385 
L 508.240183 248.635189 
L 509.021968 249.674737 
L 509.632052 251.556816 
L 510.556311 254.175174 
L 511.243112 255.47675 
L 511.915301 256.296479 
L 512.671513 257.168178 
L 513.281597 258.797158 
L 514.213163 261.083893 
L 514.910924 262.223775 
L 515.601378 262.941929 
L 516.321059 263.663488 
L 516.934796 265.082261 
L 517.873668 267.076632 
L 518.582388 268.072457 
L 519.298415 268.704539 
L 519.970604 269.293613 
L 520.591648 270.536952 
L 521.537826 272.27393 
L 522.26116 273.145237 
L 523.002759 273.698005 
L 523.620149 274.173794 
L 524.252153 275.269903 
L 525.205638 276.780569 
L 525.947237 277.543842 
L 526.725368 278.029298 
L 527.269695 278.403922 
L 527.919964 279.381475 
L 528.880755 280.691605 
L 529.644274 281.359283 
L 530.469897 281.785502 
L 530.922894 282.074466 
L 531.606042 282.966581 
L 532.56318 284.08445 
L 533.355924 284.669453 
L 534.239998 285.04178 
L 534.579745 285.258926 
L 535.314038 286.093125 
L 536.267523 287.038074 
L 537.100452 287.547896 
L 538.598264 288.358216 
L 539.938988 289.56957 
L 540.815755 290.023359 
L 542.229543 290.682006 
L 543.643331 291.780468 
L 544.574897 292.178299 
L 545.838904 292.682014 
L 547.384207 293.709041 
L 548.388836 294.052558 
L 549.440957 294.41548 
L 551.161614 295.386799 
L 552.261227 295.678168 
L 553.057624 295.930776 
L 554.935368 296.830225 
L 556.14823 297.077938 
L 556.703516 297.26067 
L 558.665284 298.063072 
L 561.423449 298.858548 
L 562.639964 299.174148 
L 564.528668 299.612813 
L 565.909577 300.009419 
L 577.559628 302.145652 
L 579.258365 302.390438 
L 581.004594 302.63493 
L 583.306109 302.927996 
L 585.187506 303.104516 
L 586.645133 303.283626 
L 588.650739 303.472963 
L 590.61616 303.675568 
L 592.862877 303.822456 
L 610.095015 304.877549 
L 640.445789 305.60283 
L 664.575166 305.805514 
L 720.162237 305.915381 
L 779.01892 305.928166 
L 779.01892 305.928166 
" clip-path="url(#pb83dc24041)" style="fill: none; stroke: #1f77b4; stroke-width: 2; stroke-linecap: square"/>
   </g>
   <g id="line2d_39">
    <path d="M 483.10983 153.440526 
L 490.416227 229.607076 
L 497.722624 227.768565 
L 512.335419 225.273462 
L 534.254611 218.838698 
L 556.173803 216.343583 
L 578.092995 218.838698 
L 610.971782 215.42434 
L 643.85057 209.383541 
L 673.07616 214.505085 
L 720.567742 200.716313 
L 768.059324 199.797058 
" clip-path="url(#pb83dc24041)" style="fill: none; stroke-dasharray: 3.7,1.6; stroke-dashoffset: 0; stroke: #1f77b4"/>
    <g clip-path="url(#pb83dc24041)">
     <use xlink:href="#m3c12df018b" x="483.10983" y="153.440526" style="fill: #1f77b4; stroke: #000000; stroke-linejoin: miter"/>
     <use xlink:href="#m3c12df018b" x="490.416227" y="229.607076" style="fill: #1f77b4; stroke: #000000; stroke-linejoin: miter"/>
     <use xlink:href="#m3c12df018b" x="497.722624" y="227.768565" style="fill: #1f77b4; stroke: #000000; stroke-linejoin: miter"/>
     <use xlink:href="#m3c12df018b" x="512.335419" y="225.273462" style="fill: #1f77b4; stroke: #000000; stroke-linejoin: miter"/>
     <use xlink:href="#m3c12df018b" x="534.254611" y="218.838698" style="fill: #1f77b4; stroke: #000000; stroke-linejoin: miter"/>
     <use xlink:href="#m3c12df018b" x="556.173803" y="216.343583" style="fill: #1f77b4; stroke: #000000; stroke-linejoin: miter"/>
     <use xlink:href="#m3c12df018b" x="578.092995" y="218.838698" style="fill: #1f77b4; stroke: #000000; stroke-linejoin: miter"/>
     <use xlink:href="#m3c12df018b" x="610.971782" y="215.42434" style="fill: #1f77b4; stroke: #000000; stroke-linejoin: miter"/>
     <use xlink:href="#m3c12df018b" x="643.85057" y="209.383541" style="fill: #1f77b4; stroke: #000000; stroke-linejoin: miter"/>
     <use xlink:href="#m3c12df018b" x="673.07616" y="214.505085" style="fill: #1f77b4; stroke: #000000; stroke-linejoin: miter"/>
     <use xlink:href="#m3c12df018b" x="720.567742" y="200.716313" style="fill: #1f77b4; stroke: #000000; stroke-linejoin: miter"/>
     <use xlink:href="#m3c12df018b" x="768.059324" y="199.797058" style="fill: #1f77b4; stroke: #000000; stroke-linejoin: miter"/>
    </g>
   </g>
   <g id="patch_9">
    <path d="M 468.314375 320.4 
L 468.314375 43.2 
" style="fill: none; stroke: #000000; stroke-width: 0.8; stroke-linejoin: miter; stroke-linecap: square"/>
   </g>
   <g id="patch_10">
    <path d="M 793.814375 320.4 
L 793.814375 43.2 
" style="fill: none; stroke: #000000; stroke-width: 0.8; stroke-linejoin: miter; stroke-linecap: square"/>
   </g>
   <g id="patch_11">
    <path d="M 468.314375 320.4 
L 793.814375 320.4 
" style="fill: none; stroke: #000000; stroke-width: 0.8; stroke-linejoin: miter; stroke-linecap: square"/>
   </g>
   <g id="patch_12">
    <path d="M 468.314375 43.2 
L 793.814375 43.2 
" style="fill: none; stroke: #000000; stroke-width: 0.8; stroke-linejoin: miter; stroke-linecap: square"/>
   </g>
   <g id="legend_2">
    <g id="patch_13">
     <path d="M 647.922187 109.9125 
L 786.814375 109.9125 
Q 788.814375 109.9125 788.814375 107.9125 
L 788.814375 50.2 
Q 788.814375 48.2 786.814375 48.2 
L 647.922187 48.2 
Q 645.922187 48.2 645.922187 50.2 
L 645.922187 107.9125 
Q 645.922187 109.9125 647.922187 109.9125 
z
" style="fill: #ffffff; opacity: 0.8; stroke: #cccccc; stroke-linejoin: miter"/>
    </g>
    <g id="line2d_40">
     <path d="M 649.922187 56.298437 
L 669.922187 56.298437 
" style="fill: none; stroke: #2ca02c; stroke-width: 2; stroke-linecap: square"/>
    </g>
    <g id="line2d_41"/>
    <g id="text_32">
     <!-- DUL075 -->
     <g transform="translate(677.922187 59.798437) scale(0.1 -0.1)">
      <use xlink:href="#DejaVuSans-44"/>
      <use xlink:href="#DejaVuSans-55" transform="translate(77.001953 0)"/>
      <use xlink:href="#DejaVuSans-4c" transform="translate(150.195312 0)"/>
      <use xlink:href="#DejaVuSans-30" transform="translate(205.908203 0)"/>
      <use xlink:href="#DejaVuSans-37" transform="translate(269.53125 0)"/>
      <use xlink:href="#DejaVuSans-35" transform="translate(333.154297 0)"/>
     </g>
    </g>
    <g id="LineCollection_7">
     <path d="M 659.922187 75.976562 
L 659.922187 65.976562 
" style="fill: none; stroke: #2ca02c"/>
    </g>
    <g id="line2d_42">
     <path d="M 649.922187 70.976562 
L 669.922187 70.976562 
" style="fill: none; stroke-dasharray: 3.7,1.6; stroke-dashoffset: 0; stroke: #2ca02c"/>
    </g>
    <g id="line2d_43">
     <g>
      <use xlink:href="#m9f1b87e623" x="659.922187" y="70.976562" style="fill: #2ca02c; stroke: #000000; stroke-linejoin: miter"/>
     </g>
    </g>
    <g id="text_33">
     <!-- DUL075±SD (n=272) -->
     <g transform="translate(677.922187 74.476562) scale(0.1 -0.1)">
      <use xlink:href="#DejaVuSans-44"/>
      <use xlink:href="#DejaVuSans-55" transform="translate(77.001953 0)"/>
      <use xlink:href="#DejaVuSans-4c" transform="translate(150.195312 0)"/>
      <use xlink:href="#DejaVuSans-30" transform="translate(205.908203 0)"/>
      <use xlink:href="#DejaVuSans-37" transform="translate(269.53125 0)"/>
      <use xlink:href="#DejaVuSans-35" transform="translate(333.154297 0)"/>
      <use xlink:href="#DejaVuSans-b1" transform="translate(396.777344 0)"/>
      <use xlink:href="#DejaVuSans-53" transform="translate(480.566406 0)"/>
      <use xlink:href="#DejaVuSans-44" transform="translate(544.042969 0)"/>
      <use xlink:href="#DejaVuSans-20" transform="translate(621.044922 0)"/>
      <use xlink:href="#DejaVuSans-28" transform="translate(652.832031 0)"/>
      <use xlink:href="#DejaVuSans-6e" transform="translate(691.845703 0)"/>
      <use xlink:href="#DejaVuSans-3d" transform="translate(755.224609 0)"/>
      <use xlink:href="#DejaVuSans-32" transform="translate(839.013672 0)"/>
      <use xlink:href="#DejaVuSans-37" transform="translate(902.636719 0)"/>
      <use xlink:href="#DejaVuSans-32" transform="translate(966.259766 0)"/>
      <use xlink:href="#DejaVuSans-29" transform="translate(1029.882812 0)"/>
     </g>
    </g>
    <g id="line2d_44">
     <path d="M 649.922187 85.654687 
L 669.922187 85.654687 
" style="fill: none; stroke: #1f77b4; stroke-width: 2; stroke-linecap: square"/>
    </g>
    <g id="line2d_45"/>
    <g id="text_34">
     <!-- DUL15 -->
     <g transform="translate(677.922187 89.154687) scale(0.1 -0.1)">
      <use xlink:href="#DejaVuSans-44"/>
      <use xlink:href="#DejaVuSans-55" transform="translate(77.001953 0)"/>
      <use xlink:href="#DejaVuSans-4c" transform="translate(150.195312 0)"/>
      <use xlink:href="#DejaVuSans-31" transform="translate(205.908203 0)"/>
      <use xlink:href="#DejaVuSans-35" transform="translate(269.53125 0)"/>
     </g>
    </g>
    <g id="LineCollection_8">
     <path d="M 659.922187 105.332812 
L 659.922187 95.332812 
" style="fill: none; stroke: #1f77b4"/>
    </g>
    <g id="line2d_46">
     <path d="M 649.922187 100.332812 
L 669.922187 100.332812 
" style="fill: none; stroke-dasharray: 3.7,1.6; stroke-dashoffset: 0; stroke: #1f77b4"/>
    </g>
    <g id="line2d_47">
     <g>
      <use xlink:href="#m3c12df018b" x="659.922187" y="100.332812" style="fill: #1f77b4; stroke: #000000; stroke-linejoin: miter"/>
     </g>
    </g>
    <g id="text_35">
     <!-- DUL15±SD (n=273) -->
     <g transform="translate(677.922187 103.832812) scale(0.1 -0.1)">
      <use xlink:href="#DejaVuSans-44"/>
      <use xlink:href="#DejaVuSans-55" transform="translate(77.001953 0)"/>
      <use xlink:href="#DejaVuSans-4c" transform="translate(150.195312 0)"/>
      <use xlink:href="#DejaVuSans-31" transform="translate(205.908203 0)"/>
      <use xlink:href="#DejaVuSans-35" transform="translate(269.53125 0)"/>
      <use xlink:href="#DejaVuSans-b1" transform="translate(333.154297 0)"/>
      <use xlink:href="#DejaVuSans-53" transform="translate(416.943359 0)"/>
      <use xlink:href="#DejaVuSans-44" transform="translate(480.419922 0)"/>
      <use xlink:href="#DejaVuSans-20" transform="translate(557.421875 0)"/>
      <use xlink:href="#DejaVuSans-28" transform="translate(589.208984 0)"/>
      <use xlink:href="#DejaVuSans-6e" transform="translate(628.222656 0)"/>
      <use xlink:href="#DejaVuSans-3d" transform="translate(691.601562 0)"/>
      <use xlink:href="#DejaVuSans-32" transform="translate(775.390625 0)"/>
      <use xlink:href="#DejaVuSans-37" transform="translate(839.013672 0)"/>
      <use xlink:href="#DejaVuSans-33" transform="translate(902.636719 0)"/>
      <use xlink:href="#DejaVuSans-29" transform="translate(966.259766 0)"/>
     </g>
    </g>
   </g>
  </g>
  <g id="axes_3">
   <g id="patch_14">
    <path d="M 891.464375 320.4 
L 1216.964375 320.4 
L 1216.964375 43.2 
L 891.464375 43.2 
z
" style="fill: #ffffff"/>
   </g>
   <g id="matplotlib.axis_5">
    <g id="xtick_11">
     <g id="line2d_48">
      <g>
       <use xlink:href="#m979af9ba63" x="906.25983" y="320.4" style="stroke: #000000; stroke-width: 0.8"/>
      </g>
     </g>
     <g id="text_36">
      <!-- 0 -->
      <g transform="translate(901.487955 338.797656) scale(0.15 -0.15)">
       <use xlink:href="#DejaVuSans-30"/>
      </g>
     </g>
    </g>
    <g id="xtick_12">
     <g id="line2d_49">
      <g>
       <use xlink:href="#m979af9ba63" x="979.323803" y="320.4" style="stroke: #000000; stroke-width: 0.8"/>
      </g>
     </g>
     <g id="text_37">
      <!-- 20 -->
      <g transform="translate(969.780053 338.797656) scale(0.15 -0.15)">
       <use xlink:href="#DejaVuSans-32"/>
       <use xlink:href="#DejaVuSans-30" transform="translate(63.623047 0)"/>
      </g>
     </g>
    </g>
    <g id="xtick_13">
     <g id="line2d_50">
      <g>
       <use xlink:href="#m979af9ba63" x="1052.387776" y="320.4" style="stroke: #000000; stroke-width: 0.8"/>
      </g>
     </g>
     <g id="text_38">
      <!-- 40 -->
      <g transform="translate(1042.844026 338.797656) scale(0.15 -0.15)">
       <use xlink:href="#DejaVuSans-34"/>
       <use xlink:href="#DejaVuSans-30" transform="translate(63.623047 0)"/>
      </g>
     </g>
    </g>
    <g id="xtick_14">
     <g id="line2d_51">
      <g>
       <use xlink:href="#m979af9ba63" x="1125.451749" y="320.4" style="stroke: #000000; stroke-width: 0.8"/>
      </g>
     </g>
     <g id="text_39">
      <!-- 60 -->
      <g transform="translate(1115.907999 338.797656) scale(0.15 -0.15)">
       <use xlink:href="#DejaVuSans-36"/>
       <use xlink:href="#DejaVuSans-30" transform="translate(63.623047 0)"/>
      </g>
     </g>
    </g>
    <g id="xtick_15">
     <g id="line2d_52">
      <g>
       <use xlink:href="#m979af9ba63" x="1198.515722" y="320.4" style="stroke: #000000; stroke-width: 0.8"/>
      </g>
     </g>
     <g id="text_40">
      <!-- 80 -->
      <g transform="translate(1188.971972 338.797656) scale(0.15 -0.15)">
       <use xlink:href="#DejaVuSans-38"/>
       <use xlink:href="#DejaVuSans-30" transform="translate(63.623047 0)"/>
      </g>
     </g>
    </g>
    <g id="text_41">
     <!-- time [week] -->
     <g transform="translate(993.475625 359.594375) scale(0.18 -0.18)">
      <use xlink:href="#DejaVuSans-Bold-74"/>
      <use xlink:href="#DejaVuSans-Bold-69" transform="translate(47.802734 0)"/>
      <use xlink:href="#DejaVuSans-Bold-6d" transform="translate(82.080078 0)"/>
      <use xlink:href="#DejaVuSans-Bold-65" transform="translate(186.279297 0)"/>
      <use xlink:href="#DejaVuSans-Bold-20" transform="translate(254.101562 0)"/>
      <use xlink:href="#DejaVuSans-Bold-5b" transform="translate(288.916016 0)"/>
      <use xlink:href="#DejaVuSans-Bold-77" transform="translate(334.619141 0)"/>
      <use xlink:href="#DejaVuSans-Bold-65" transform="translate(427.001953 0)"/>
      <use xlink:href="#DejaVuSans-Bold-65" transform="translate(494.824219 0)"/>
      <use xlink:href="#DejaVuSans-Bold-6b" transform="translate(562.646484 0)"/>
      <use xlink:href="#DejaVuSans-Bold-5d" transform="translate(629.150391 0)"/>
     </g>
    </g>
   </g>
   <g id="matplotlib.axis_6">
    <g id="ytick_14">
     <g id="line2d_53">
      <g>
       <use xlink:href="#ma679f7c712" x="891.464375" y="306.337771" style="stroke: #000000; stroke-width: 0.8"/>
      </g>
     </g>
     <g id="text_42">
      <!-- −6 -->
      <g transform="translate(862.351094 312.036599) scale(0.15 -0.15)">
       <defs>
        <path id="DejaVuSans-2212" d="M 678 2272 
L 4684 2272 
L 4684 1741 
L 678 1741 
L 678 2272 
z
" transform="scale(0.015625)"/>
       </defs>
       <use xlink:href="#DejaVuSans-2212"/>
       <use xlink:href="#DejaVuSans-36" transform="translate(83.789062 0)"/>
      </g>
     </g>
    </g>
    <g id="ytick_15">
     <g id="line2d_54">
      <g>
       <use xlink:href="#ma679f7c712" x="891.464375" y="249.31851" style="stroke: #000000; stroke-width: 0.8"/>
      </g>
     </g>
     <g id="text_43">
      <!-- −4 -->
      <g transform="translate(862.351094 255.017338) scale(0.15 -0.15)">
       <use xlink:href="#DejaVuSans-2212"/>
       <use xlink:href="#DejaVuSans-34" transform="translate(83.789062 0)"/>
      </g>
     </g>
    </g>
    <g id="ytick_16">
     <g id="line2d_55">
      <g>
       <use xlink:href="#ma679f7c712" x="891.464375" y="192.299248" style="stroke: #000000; stroke-width: 0.8"/>
      </g>
     </g>
     <g id="text_44">
      <!-- −2 -->
      <g transform="translate(862.351094 197.998077) scale(0.15 -0.15)">
       <use xlink:href="#DejaVuSans-2212"/>
       <use xlink:href="#DejaVuSans-32" transform="translate(83.789062 0)"/>
      </g>
     </g>
    </g>
    <g id="ytick_17">
     <g id="line2d_56">
      <g>
       <use xlink:href="#ma679f7c712" x="891.464375" y="135.279987" style="stroke: #000000; stroke-width: 0.8"/>
      </g>
     </g>
     <g id="text_45">
      <!-- 0 -->
      <g transform="translate(874.920625 140.978815) scale(0.15 -0.15)">
       <use xlink:href="#DejaVuSans-30"/>
      </g>
     </g>
    </g>
    <g id="ytick_18">
     <g id="line2d_57">
      <g>
       <use xlink:href="#ma679f7c712" x="891.464375" y="78.260726" style="stroke: #000000; stroke-width: 0.8"/>
      </g>
     </g>
     <g id="text_46">
      <!-- 2 -->
      <g transform="translate(874.920625 83.959554) scale(0.15 -0.15)">
       <use xlink:href="#DejaVuSans-32"/>
      </g>
     </g>
    </g>
    <g id="text_47">
     <!-- bodyweight change [kg] -->
     <g transform="translate(854.467031 305.078906) rotate(-90) scale(0.18 -0.18)">
      <defs>
       <path id="DejaVuSans-Bold-6f" d="M 2203 2784 
Q 1831 2784 1636 2517 
Q 1441 2250 1441 1747 
Q 1441 1244 1636 976 
Q 1831 709 2203 709 
Q 2569 709 2762 976 
Q 2956 1244 2956 1747 
Q 2956 2250 2762 2517 
Q 2569 2784 2203 2784 
z
M 2203 3584 
Q 3106 3584 3614 3096 
Q 4122 2609 4122 1747 
Q 4122 884 3614 396 
Q 3106 -91 2203 -91 
Q 1297 -91 786 396 
Q 275 884 275 1747 
Q 275 2609 786 3096 
Q 1297 3584 2203 3584 
z
" transform="scale(0.015625)"/>
       <path id="DejaVuSans-Bold-64" d="M 2919 2988 
L 2919 4863 
L 4044 4863 
L 4044 0 
L 2919 0 
L 2919 506 
Q 2688 197 2409 53 
Q 2131 -91 1766 -91 
Q 1119 -91 703 423 
Q 288 938 288 1747 
Q 288 2556 703 3070 
Q 1119 3584 1766 3584 
Q 2128 3584 2408 3439 
Q 2688 3294 2919 2988 
z
M 2181 722 
Q 2541 722 2730 984 
Q 2919 1247 2919 1747 
Q 2919 2247 2730 2509 
Q 2541 2772 2181 2772 
Q 1825 2772 1636 2509 
Q 1447 2247 1447 1747 
Q 1447 1247 1636 984 
Q 1825 722 2181 722 
z
" transform="scale(0.015625)"/>
       <path id="DejaVuSans-Bold-79" d="M 78 3500 
L 1197 3500 
L 2138 1125 
L 2938 3500 
L 4056 3500 
L 2584 -331 
Q 2363 -916 2067 -1148 
Q 1772 -1381 1288 -1381 
L 641 -1381 
L 641 -647 
L 991 -647 
Q 1275 -647 1404 -556 
Q 1534 -466 1606 -231 
L 1638 -134 
L 78 3500 
z
" transform="scale(0.015625)"/>
       <path id="DejaVuSans-Bold-67" d="M 2919 594 
Q 2688 288 2409 144 
Q 2131 0 1766 0 
Q 1125 0 706 504 
Q 288 1009 288 1791 
Q 288 2575 706 3076 
Q 1125 3578 1766 3578 
Q 2131 3578 2409 3434 
Q 2688 3291 2919 2981 
L 2919 3500 
L 4044 3500 
L 4044 353 
Q 4044 -491 3511 -936 
Q 2978 -1381 1966 -1381 
Q 1638 -1381 1331 -1331 
Q 1025 -1281 716 -1178 
L 716 -306 
Q 1009 -475 1290 -558 
Q 1572 -641 1856 -641 
Q 2406 -641 2662 -400 
Q 2919 -159 2919 353 
L 2919 594 
z
M 2181 2772 
Q 1834 2772 1640 2515 
Q 1447 2259 1447 1791 
Q 1447 1309 1634 1061 
Q 1822 813 2181 813 
Q 2531 813 2725 1069 
Q 2919 1325 2919 1791 
Q 2919 2259 2725 2515 
Q 2531 2772 2181 2772 
z
" transform="scale(0.015625)"/>
       <path id="DejaVuSans-Bold-68" d="M 4056 2131 
L 4056 0 
L 2931 0 
L 2931 347 
L 2931 1625 
Q 2931 2084 2911 2256 
Q 2891 2428 2841 2509 
Q 2775 2619 2662 2680 
Q 2550 2741 2406 2741 
Q 2056 2741 1856 2470 
Q 1656 2200 1656 1722 
L 1656 0 
L 538 0 
L 538 4863 
L 1656 4863 
L 1656 2988 
Q 1909 3294 2193 3439 
Q 2478 3584 2822 3584 
Q 3428 3584 3742 3212 
Q 4056 2841 4056 2131 
z
" transform="scale(0.015625)"/>
       <path id="DejaVuSans-Bold-61" d="M 2106 1575 
Q 1756 1575 1579 1456 
Q 1403 1338 1403 1106 
Q 1403 894 1545 773 
Q 1688 653 1941 653 
Q 2256 653 2472 879 
Q 2688 1106 2688 1447 
L 2688 1575 
L 2106 1575 
z
M 3816 1997 
L 3816 0 
L 2688 0 
L 2688 519 
Q 2463 200 2181 54 
Q 1900 -91 1497 -91 
Q 953 -91 614 226 
Q 275 544 275 1050 
Q 275 1666 698 1953 
Q 1122 2241 2028 2241 
L 2688 2241 
L 2688 2328 
Q 2688 2594 2478 2717 
Q 2269 2841 1825 2841 
Q 1466 2841 1156 2769 
Q 847 2697 581 2553 
L 581 3406 
Q 941 3494 1303 3539 
Q 1666 3584 2028 3584 
Q 2975 3584 3395 3211 
Q 3816 2838 3816 1997 
z
" transform="scale(0.015625)"/>
      </defs>
      <use xlink:href="#DejaVuSans-Bold-62"/>
      <use xlink:href="#DejaVuSans-Bold-6f" transform="translate(71.582031 0)"/>
      <use xlink:href="#DejaVuSans-Bold-64" transform="translate(140.283203 0)"/>
      <use xlink:href="#DejaVuSans-Bold-79" transform="translate(211.865234 0)"/>
      <use xlink:href="#DejaVuSans-Bold-77" transform="translate(277.050781 0)"/>
      <use xlink:href="#DejaVuSans-Bold-65" transform="translate(369.433594 0)"/>
      <use xlink:href="#DejaVuSans-Bold-69" transform="translate(437.255859 0)"/>
      <use xlink:href="#DejaVuSans-Bold-67" transform="translate(471.533203 0)"/>
      <use xlink:href="#DejaVuSans-Bold-68" transform="translate(543.115234 0)"/>
      <use xlink:href="#DejaVuSans-Bold-74" transform="translate(614.306641 0)"/>
      <use xlink:href="#DejaVuSans-Bold-20" transform="translate(662.109375 0)"/>
      <use xlink:href="#DejaVuSans-Bold-63" transform="translate(696.923828 0)"/>
      <use xlink:href="#DejaVuSans-Bold-68" transform="translate(756.201172 0)"/>
      <use xlink:href="#DejaVuSans-Bold-61" transform="translate(827.392578 0)"/>
      <use xlink:href="#DejaVuSans-Bold-6e" transform="translate(894.873047 0)"/>
      <use xlink:href="#DejaVuSans-Bold-67" transform="translate(966.064453 0)"/>
      <use xlink:href="#DejaVuSans-Bold-65" transform="translate(1037.646484 0)"/>
      <use xlink:href="#DejaVuSans-Bold-20" transform="translate(1105.46875 0)"/>
      <use xlink:href="#DejaVuSans-Bold-5b" transform="translate(1140.283203 0)"/>
      <use xlink:href="#DejaVuSans-Bold-6b" transform="translate(1185.986328 0)"/>
      <use xlink:href="#DejaVuSans-Bold-67" transform="translate(1252.490234 0)"/>
      <use xlink:href="#DejaVuSans-Bold-5d" transform="translate(1324.072266 0)"/>
     </g>
    </g>
   </g>
   <g id="LineCollection_9">
    <path clip-path="url(#p5b114c2356)" style="fill: none; stroke: #2ca02c"/>
    <path d="M 913.566227 176.843857 
L 913.566227 114.246495 
" clip-path="url(#p5b114c2356)" style="fill: none; stroke: #2ca02c"/>
    <path d="M 920.872624 199.696689 
L 920.872624 108.646076 
" clip-path="url(#p5b114c2356)" style="fill: none; stroke: #2ca02c"/>
    <path d="M 935.485419 212.806095 
L 935.485419 110.373765 
" clip-path="url(#p5b114c2356)" style="fill: none; stroke: #2ca02c"/>
    <path d="M 957.404611 233.846202 
L 957.404611 97.269761 
" clip-path="url(#p5b114c2356)" style="fill: none; stroke: #2ca02c"/>
    <path d="M 979.323803 246.090291 
L 979.323803 86.750936 
" clip-path="url(#p5b114c2356)" style="fill: none; stroke: #2ca02c"/>
    <path d="M 1001.242995 256.181738 
L 1001.242995 91.151525 
" clip-path="url(#p5b114c2356)" style="fill: none; stroke: #2ca02c"/>
    <path d="M 1034.121782 265.492644 
L 1034.121782 77.700037 
" clip-path="url(#p5b114c2356)" style="fill: none; stroke: #2ca02c"/>
    <path d="M 1067.00057 263.249823 
L 1067.00057 75.457217 
" clip-path="url(#p5b114c2356)" style="fill: none; stroke: #2ca02c"/>
    <path d="M 1096.22616 270.750706 
L 1096.22616 65.886044 
" clip-path="url(#p5b114c2356)" style="fill: none; stroke: #2ca02c"/>
    <path d="M 1143.717742 279.804306 
L 1143.717742 57.867589 
" clip-path="url(#p5b114c2356)" style="fill: none; stroke: #2ca02c"/>
    <path d="M 1191.209324 289.117913 
L 1191.209324 55.8 
" clip-path="url(#p5b114c2356)" style="fill: none; stroke: #2ca02c"/>
   </g>
   <g id="LineCollection_10">
    <path clip-path="url(#p5b114c2356)" style="fill: none; stroke: #1f77b4"/>
    <path d="M 913.566227 190.193449 
L 913.566227 116.079026 
" clip-path="url(#p5b114c2356)" style="fill: none; stroke: #1f77b4"/>
    <path d="M 920.872624 208.496783 
L 920.872624 111.577641 
" clip-path="url(#p5b114c2356)" style="fill: none; stroke: #1f77b4"/>
    <path d="M 935.485419 235.261544 
L 935.485419 104.135584 
" clip-path="url(#p5b114c2356)" style="fill: none; stroke: #1f77b4"/>
    <path d="M 957.404611 248.471402 
L 957.404611 100.242033 
" clip-path="url(#p5b114c2356)" style="fill: none; stroke: #1f77b4"/>
    <path d="M 979.323803 259.175926 
L 979.323803 99.543936 
" clip-path="url(#p5b114c2356)" style="fill: none; stroke: #1f77b4"/>
    <path d="M 1001.242995 272.213255 
L 1001.242995 95.477857 
" clip-path="url(#p5b114c2356)" style="fill: none; stroke: #1f77b4"/>
    <path d="M 1034.121782 280.247387 
L 1034.121782 86.40858 
" clip-path="url(#p5b114c2356)" style="fill: none; stroke: #1f77b4"/>
    <path d="M 1067.00057 277.914304 
L 1067.00057 89.776807 
" clip-path="url(#p5b114c2356)" style="fill: none; stroke: #1f77b4"/>
    <path d="M 1096.22616 291.041911 
L 1096.22616 80.099696 
" clip-path="url(#p5b114c2356)" style="fill: none; stroke: #1f77b4"/>
    <path d="M 1143.717742 296.833223 
L 1143.717742 68.787598 
" clip-path="url(#p5b114c2356)" style="fill: none; stroke: #1f77b4"/>
    <path d="M 1191.209324 307.8 
L 1191.209324 62.651489 
" clip-path="url(#p5b114c2356)" style="fill: none; stroke: #1f77b4"/>
   </g>
   <g id="line2d_58">
    <path d="M 906.25983 135.279987 
L 1202.16892 135.279987 
L 1202.16892 135.279987 
" clip-path="url(#p5b114c2356)" style="fill: none; stroke: #2ca02c; stroke-width: 2; stroke-linecap: square"/>
   </g>
   <g id="line2d_59">
    <path d="M 906.25983 135.279987 
L 913.566227 145.545176 
L 920.872624 154.171383 
L 935.485419 161.58993 
L 957.404611 165.557982 
L 979.323803 166.420614 
L 1001.242995 173.666631 
L 1034.121782 171.596341 
L 1067.00057 169.35352 
L 1096.22616 168.318375 
L 1143.717742 168.835948 
L 1191.209324 172.458956 
" clip-path="url(#p5b114c2356)" style="fill: none; stroke-dasharray: 3.7,1.6; stroke-dashoffset: 0; stroke: #2ca02c"/>
    <g clip-path="url(#p5b114c2356)">
     <use xlink:href="#m9f1b87e623" x="906.25983" y="135.279987" style="fill: #2ca02c; stroke: #000000; stroke-linejoin: miter"/>
     <use xlink:href="#m9f1b87e623" x="913.566227" y="145.545176" style="fill: #2ca02c; stroke: #000000; stroke-linejoin: miter"/>
     <use xlink:href="#m9f1b87e623" x="920.872624" y="154.171383" style="fill: #2ca02c; stroke: #000000; stroke-linejoin: miter"/>
     <use xlink:href="#m9f1b87e623" x="935.485419" y="161.58993" style="fill: #2ca02c; stroke: #000000; stroke-linejoin: miter"/>
     <use xlink:href="#m9f1b87e623" x="957.404611" y="165.557982" style="fill: #2ca02c; stroke: #000000; stroke-linejoin: miter"/>
     <use xlink:href="#m9f1b87e623" x="979.323803" y="166.420614" style="fill: #2ca02c; stroke: #000000; stroke-linejoin: miter"/>
     <use xlink:href="#m9f1b87e623" x="1001.242995" y="173.666631" style="fill: #2ca02c; stroke: #000000; stroke-linejoin: miter"/>
     <use xlink:href="#m9f1b87e623" x="1034.121782" y="171.596341" style="fill: #2ca02c; stroke: #000000; stroke-linejoin: miter"/>
     <use xlink:href="#m9f1b87e623" x="1067.00057" y="169.35352" style="fill: #2ca02c; stroke: #000000; stroke-linejoin: miter"/>
     <use xlink:href="#m9f1b87e623" x="1096.22616" y="168.318375" style="fill: #2ca02c; stroke: #000000; stroke-linejoin: miter"/>
     <use xlink:href="#m9f1b87e623" x="1143.717742" y="168.835948" style="fill: #2ca02c; stroke: #000000; stroke-linejoin: miter"/>
     <use xlink:href="#m9f1b87e623" x="1191.209324" y="172.458956" style="fill: #2ca02c; stroke: #000000; stroke-linejoin: miter"/>
    </g>
   </g>
   <g id="line2d_60">
    <path d="M 906.25983 135.279987 
L 1202.16892 135.279987 
L 1202.16892 135.279987 
" clip-path="url(#p5b114c2356)" style="fill: none; stroke: #1f77b4; stroke-width: 2; stroke-linecap: square"/>
   </g>
   <g id="line2d_61">
    <path d="M 906.25983 135.279987 
L 913.566227 153.136237 
L 920.872624 160.037212 
L 935.485419 169.698564 
L 957.404611 174.356718 
L 979.323803 179.359931 
L 1001.242995 183.845556 
L 1034.121782 183.327983 
L 1067.00057 183.845556 
L 1096.22616 185.570803 
L 1143.717742 182.81041 
L 1191.209324 185.225744 
" clip-path="url(#p5b114c2356)" style="fill: none; stroke-dasharray: 3.7,1.6; stroke-dashoffset: 0; stroke: #1f77b4"/>
    <g clip-path="url(#p5b114c2356)">
     <use xlink:href="#m3c12df018b" x="906.25983" y="135.279987" style="fill: #1f77b4; stroke: #000000; stroke-linejoin: miter"/>
     <use xlink:href="#m3c12df018b" x="913.566227" y="153.136237" style="fill: #1f77b4; stroke: #000000; stroke-linejoin: miter"/>
     <use xlink:href="#m3c12df018b" x="920.872624" y="160.037212" style="fill: #1f77b4; stroke: #000000; stroke-linejoin: miter"/>
     <use xlink:href="#m3c12df018b" x="935.485419" y="169.698564" style="fill: #1f77b4; stroke: #000000; stroke-linejoin: miter"/>
     <use xlink:href="#m3c12df018b" x="957.404611" y="174.356718" style="fill: #1f77b4; stroke: #000000; stroke-linejoin: miter"/>
     <use xlink:href="#m3c12df018b" x="979.323803" y="179.359931" style="fill: #1f77b4; stroke: #000000; stroke-linejoin: miter"/>
     <use xlink:href="#m3c12df018b" x="1001.242995" y="183.845556" style="fill: #1f77b4; stroke: #000000; stroke-linejoin: miter"/>
     <use xlink:href="#m3c12df018b" x="1034.121782" y="183.327983" style="fill: #1f77b4; stroke: #000000; stroke-linejoin: miter"/>
     <use xlink:href="#m3c12df018b" x="1067.00057" y="183.845556" style="fill: #1f77b4; stroke: #000000; stroke-linejoin: miter"/>
     <use xlink:href="#m3c12df018b" x="1096.22616" y="185.570803" style="fill: #1f77b4; stroke: #000000; stroke-linejoin: miter"/>
     <use xlink:href="#m3c12df018b" x="1143.717742" y="182.81041" style="fill: #1f77b4; stroke: #000000; stroke-linejoin: miter"/>
     <use xlink:href="#m3c12df018b" x="1191.209324" y="185.225744" style="fill: #1f77b4; stroke: #000000; stroke-linejoin: miter"/>
    </g>
   </g>
   <g id="patch_15">
    <path d="M 891.464375 320.4 
L 891.464375 43.2 
" style="fill: none; stroke: #000000; stroke-width: 0.8; stroke-linejoin: miter; stroke-linecap: square"/>
   </g>
   <g id="patch_16">
    <path d="M 1216.964375 320.4 
L 1216.964375 43.2 
" style="fill: none; stroke: #000000; stroke-width: 0.8; stroke-linejoin: miter; stroke-linecap: square"/>
   </g>
   <g id="patch_17">
    <path d="M 891.464375 320.4 
L 1216.964375 320.4 
" style="fill: none; stroke: #000000; stroke-width: 0.8; stroke-linejoin: miter; stroke-linecap: square"/>
   </g>
   <g id="patch_18">
    <path d="M 891.464375 43.2 
L 1216.964375 43.2 
" style="fill: none; stroke: #000000; stroke-width: 0.8; stroke-linejoin: miter; stroke-linecap: square"/>
   </g>
   <g id="legend_3">
    <g id="patch_19">
     <path d="M 1071.072187 109.9125 
L 1209.964375 109.9125 
Q 1211.964375 109.9125 1211.964375 107.9125 
L 1211.964375 50.2 
Q 1211.964375 48.2 1209.964375 48.2 
L 1071.072187 48.2 
Q 1069.072187 48.2 1069.072187 50.2 
L 1069.072187 107.9125 
Q 1069.072187 109.9125 1071.072187 109.9125 
z
" style="fill: #ffffff; opacity: 0.8; stroke: #cccccc; stroke-linejoin: miter"/>
    </g>
    <g id="line2d_62">
     <path d="M 1073.072187 56.298437 
L 1093.072187 56.298437 
" style="fill: none; stroke: #2ca02c; stroke-width: 2; stroke-linecap: square"/>
    </g>
    <g id="line2d_63"/>
    <g id="text_48">
     <!-- DUL075 -->
     <g transform="translate(1101.072187 59.798437) scale(0.1 -0.1)">
      <use xlink:href="#DejaVuSans-44"/>
      <use xlink:href="#DejaVuSans-55" transform="translate(77.001953 0)"/>
      <use xlink:href="#DejaVuSans-4c" transform="translate(150.195312 0)"/>
      <use xlink:href="#DejaVuSans-30" transform="translate(205.908203 0)"/>
      <use xlink:href="#DejaVuSans-37" transform="translate(269.53125 0)"/>
      <use xlink:href="#DejaVuSans-35" transform="translate(333.154297 0)"/>
     </g>
    </g>
    <g id="LineCollection_11">
     <path d="M 1083.072187 75.976562 
L 1083.072187 65.976562 
" style="fill: none; stroke: #2ca02c"/>
    </g>
    <g id="line2d_64">
     <path d="M 1073.072187 70.976562 
L 1093.072187 70.976562 
" style="fill: none; stroke-dasharray: 3.7,1.6; stroke-dashoffset: 0; stroke: #2ca02c"/>
    </g>
    <g id="line2d_65">
     <g>
      <use xlink:href="#m9f1b87e623" x="1083.072187" y="70.976562" style="fill: #2ca02c; stroke: #000000; stroke-linejoin: miter"/>
     </g>
    </g>
    <g id="text_49">
     <!-- DUL075±SD (n=272) -->
     <g transform="translate(1101.072187 74.476562) scale(0.1 -0.1)">
      <use xlink:href="#DejaVuSans-44"/>
      <use xlink:href="#DejaVuSans-55" transform="translate(77.001953 0)"/>
      <use xlink:href="#DejaVuSans-4c" transform="translate(150.195312 0)"/>
      <use xlink:href="#DejaVuSans-30" transform="translate(205.908203 0)"/>
      <use xlink:href="#DejaVuSans-37" transform="translate(269.53125 0)"/>
      <use xlink:href="#DejaVuSans-35" transform="translate(333.154297 0)"/>
      <use xlink:href="#DejaVuSans-b1" transform="translate(396.777344 0)"/>
      <use xlink:href="#DejaVuSans-53" transform="translate(480.566406 0)"/>
      <use xlink:href="#DejaVuSans-44" transform="translate(544.042969 0)"/>
      <use xlink:href="#DejaVuSans-20" transform="translate(621.044922 0)"/>
      <use xlink:href="#DejaVuSans-28" transform="translate(652.832031 0)"/>
      <use xlink:href="#DejaVuSans-6e" transform="translate(691.845703 0)"/>
      <use xlink:href="#DejaVuSans-3d" transform="translate(755.224609 0)"/>
      <use xlink:href="#DejaVuSans-32" transform="translate(839.013672 0)"/>
      <use xlink:href="#DejaVuSans-37" transform="translate(902.636719 0)"/>
      <use xlink:href="#DejaVuSans-32" transform="translate(966.259766 0)"/>
      <use xlink:href="#DejaVuSans-29" transform="translate(1029.882812 0)"/>
     </g>
    </g>
    <g id="line2d_66">
     <path d="M 1073.072187 85.654687 
L 1093.072187 85.654687 
" style="fill: none; stroke: #1f77b4; stroke-width: 2; stroke-linecap: square"/>
    </g>
    <g id="line2d_67"/>
    <g id="text_50">
     <!-- DUL15 -->
     <g transform="translate(1101.072187 89.154687) scale(0.1 -0.1)">
      <use xlink:href="#DejaVuSans-44"/>
      <use xlink:href="#DejaVuSans-55" transform="translate(77.001953 0)"/>
      <use xlink:href="#DejaVuSans-4c" transform="translate(150.195312 0)"/>
      <use xlink:href="#DejaVuSans-31" transform="translate(205.908203 0)"/>
      <use xlink:href="#DejaVuSans-35" transform="translate(269.53125 0)"/>
     </g>
    </g>
    <g id="LineCollection_12">
     <path d="M 1083.072187 105.332812 
L 1083.072187 95.332812 
" style="fill: none; stroke: #1f77b4"/>
    </g>
    <g id="line2d_68">
     <path d="M 1073.072187 100.332812 
L 1093.072187 100.332812 
" style="fill: none; stroke-dasharray: 3.7,1.6; stroke-dashoffset: 0; stroke: #1f77b4"/>
    </g>
    <g id="line2d_69">
     <g>
      <use xlink:href="#m3c12df018b" x="1083.072187" y="100.332812" style="fill: #1f77b4; stroke: #000000; stroke-linejoin: miter"/>
     </g>
    </g>
    <g id="text_51">
     <!-- DUL15±SD (n=273) -->
     <g transform="translate(1101.072187 103.832812) scale(0.1 -0.1)">
      <use xlink:href="#DejaVuSans-44"/>
      <use xlink:href="#DejaVuSans-55" transform="translate(77.001953 0)"/>
      <use xlink:href="#DejaVuSans-4c" transform="translate(150.195312 0)"/>
      <use xlink:href="#DejaVuSans-31" transform="translate(205.908203 0)"/>
      <use xlink:href="#DejaVuSans-35" transform="translate(269.53125 0)"/>
      <use xlink:href="#DejaVuSans-b1" transform="translate(333.154297 0)"/>
      <use xlink:href="#DejaVuSans-53" transform="translate(416.943359 0)"/>
      <use xlink:href="#DejaVuSans-44" transform="translate(480.419922 0)"/>
      <use xlink:href="#DejaVuSans-20" transform="translate(557.421875 0)"/>
      <use xlink:href="#DejaVuSans-28" transform="translate(589.208984 0)"/>
      <use xlink:href="#DejaVuSans-6e" transform="translate(628.222656 0)"/>
      <use xlink:href="#DejaVuSans-3d" transform="translate(691.601562 0)"/>
      <use xlink:href="#DejaVuSans-32" transform="translate(775.390625 0)"/>
      <use xlink:href="#DejaVuSans-37" transform="translate(839.013672 0)"/>
      <use xlink:href="#DejaVuSans-33" transform="translate(902.636719 0)"/>
      <use xlink:href="#DejaVuSans-29" transform="translate(966.259766 0)"/>
     </g>
    </g>
   </g>
  </g>
  <g id="text_52">
   <!-- Giorgino2015 -->
   <g transform="translate(517.359688 26.196094) scale(0.25 -0.25)">
    <defs>
     <path id="DejaVuSans-Bold-32" d="M 1844 884 
L 3897 884 
L 3897 0 
L 506 0 
L 506 884 
L 2209 2388 
Q 2438 2594 2547 2791 
Q 2656 2988 2656 3200 
Q 2656 3528 2436 3728 
Q 2216 3928 1850 3928 
Q 1569 3928 1234 3808 
Q 900 3688 519 3450 
L 519 4475 
Q 925 4609 1322 4679 
Q 1719 4750 2100 4750 
Q 2938 4750 3402 4381 
Q 3866 4013 3866 3353 
Q 3866 2972 3669 2642 
Q 3472 2313 2841 1759 
L 1844 884 
z
" transform="scale(0.015625)"/>
     <path id="DejaVuSans-Bold-30" d="M 2944 2338 
Q 2944 3213 2780 3570 
Q 2616 3928 2228 3928 
Q 1841 3928 1675 3570 
Q 1509 3213 1509 2338 
Q 1509 1453 1675 1090 
Q 1841 728 2228 728 
Q 2613 728 2778 1090 
Q 2944 1453 2944 2338 
z
M 4147 2328 
Q 4147 1169 3647 539 
Q 3147 -91 2228 -91 
Q 1306 -91 806 539 
Q 306 1169 306 2328 
Q 306 3491 806 4120 
Q 1306 4750 2228 4750 
Q 3147 4750 3647 4120 
Q 4147 3491 4147 2328 
z
" transform="scale(0.015625)"/>
     <path id="DejaVuSans-Bold-35" d="M 678 4666 
L 3669 4666 
L 3669 3781 
L 1638 3781 
L 1638 3059 
Q 1775 3097 1914 3117 
Q 2053 3138 2203 3138 
Q 3056 3138 3531 2711 
Q 4006 2284 4006 1522 
Q 4006 766 3489 337 
Q 2972 -91 2053 -91 
Q 1656 -91 1267 -14 
Q 878 63 494 219 
L 494 1166 
Q 875 947 1217 837 
Q 1559 728 1863 728 
Q 2300 728 2551 942 
Q 2803 1156 2803 1522 
Q 2803 1891 2551 2103 
Q 2300 2316 1863 2316 
Q 1603 2316 1309 2248 
Q 1016 2181 678 2041 
L 678 4666 
z
" transform="scale(0.015625)"/>
    </defs>
    <use xlink:href="#DejaVuSans-Bold-47"/>
    <use xlink:href="#DejaVuSans-Bold-69" transform="translate(82.080078 0)"/>
    <use xlink:href="#DejaVuSans-Bold-6f" transform="translate(116.357422 0)"/>
    <use xlink:href="#DejaVuSans-Bold-72" transform="translate(185.058594 0)"/>
    <use xlink:href="#DejaVuSans-Bold-67" transform="translate(234.375 0)"/>
    <use xlink:href="#DejaVuSans-Bold-69" transform="translate(305.957031 0)"/>
    <use xlink:href="#DejaVuSans-Bold-6e" transform="translate(340.234375 0)"/>
    <use xlink:href="#DejaVuSans-Bold-6f" transform="translate(411.425781 0)"/>
    <use xlink:href="#DejaVuSans-Bold-32" transform="translate(480.126953 0)"/>
    <use xlink:href="#DejaVuSans-Bold-30" transform="translate(549.707031 0)"/>
    <use xlink:href="#DejaVuSans-Bold-31" transform="translate(619.287109 0)"/>
    <use xlink:href="#DejaVuSans-Bold-35" transform="translate(688.867188 0)"/>
   </g>
  </g>
 </g>
 <defs>
  <clipPath id="pf7f95514c1">
   <rect x="45.164375" y="43.2" width="325.5" height="277.2"/>
  </clipPath>
  <clipPath id="pb83dc24041">
   <rect x="468.314375" y="43.2" width="325.5" height="277.2"/>
  </clipPath>
  <clipPath id="p5b114c2356">
   <rect x="891.464375" y="43.2" width="325.5" height="277.2"/>
  </clipPath>
 </defs>
</svg>
