<?xml version="1.0" encoding="utf-8" standalone="no"?>
<!DOCTYPE svg PUBLIC "-//W3C//DTD SVG 1.1//EN"
  "http://www.w3.org/Graphics/SVG/1.1/DTD/svg11.dtd">
<svg xmlns:xlink="http://www.w3.org/1999/xlink" width="452.64875pt" height="370.537812pt" viewBox="0 0 452.64875 370.537812" xmlns="http://www.w3.org/2000/svg" version="1.1">
 <metadata>
  <rdf:RDF xmlns:dc="http://purl.org/dc/elements/1.1/" xmlns:cc="http://creativecommons.org/ns#" xmlns:rdf="http://www.w3.org/1999/02/22-rdf-syntax-ns#">
   <cc:Work>
    <dc:type rdf:resource="http://purl.org/dc/dcmitype/StillImage"/>
    <dc:date>2026-01-30T14:57:18.216110</dc:date>
    <dc:format>image/svg+xml</dc:format>
    <dc:creator>
     <cc:Agent>
      <dc:title>Matplotlib v3.10.7, https://matplotlib.org/</dc:title>
     </cc:Agent>
    </dc:creator>
   </cc:Work>
  </rdf:RDF>
 </metadata>
 <defs>
  <style type="text/css">*{stroke-linejoin: round; stroke-linecap: butt}</style>
 </defs>
 <g id="figure_1">
  <g id="patch_1">
   <path d="M 0 370.537812 
L 452.64875 370.537812 
L 452.64875 0 
L 0 0 
z
" style="fill: #ffffff"/>
  </g>
  <g id="axes_1">
   <g id="patch_2">
    <path d="M 54.84875 320.4 
L 445.44875 320.4 
L 445.44875 43.2 
L 54.84875 43.2 
z
" style="fill: #ffffff"/>
   </g>
   <g id="matplotlib.axis_1">
    <g id="xtick_1">
     <g id="line2d_1">
      <defs>
       <path id="md3aa3a96c0" d="M 0 0 
L 0 3.5 
" style="stroke: #000000; stroke-width: 0.8"/>
      </defs>
      <g>
       <use xlink:href="#md3aa3a96c0" x="72.603295" y="320.4" style="stroke: #000000; stroke-width: 0.8"/>
      </g>
     </g>
     <g id="text_1">
      <!-- 0.0 -->
      <g transform="translate(60.675952 338.797656) scale(0.15 -0.15)">
       <defs>
        <path id="DejaVuSans-30" d="M 2034 4250 
Q 1547 4250 1301 3770 
Q 1056 3291 1056 2328 
Q 1056 1369 1301 889 
Q 1547 409 2034 409 
Q 2525 409 2770 889 
Q 3016 1369 3016 2328 
Q 3016 3291 2770 3770 
Q 2525 4250 2034 4250 
z
M 2034 4750 
Q 2819 4750 3233 4129 
Q 3647 3509 3647 2328 
Q 3647 1150 3233 529 
Q 2819 -91 2034 -91 
Q 1250 -91 836 529 
Q 422 1150 422 2328 
Q 422 3509 836 4129 
Q 1250 4750 2034 4750 
z
" transform="scale(0.015625)"/>
        <path id="DejaVuSans-2e" d="M 684 794 
L 1344 794 
L 1344 0 
L 684 0 
L 684 794 
z
" transform="scale(0.015625)"/>
       </defs>
       <use xlink:href="#DejaVuSans-30"/>
       <use xlink:href="#DejaVuSans-2e" transform="translate(63.623047 0)"/>
       <use xlink:href="#DejaVuSans-30" transform="translate(95.410156 0)"/>
      </g>
     </g>
    </g>
    <g id="xtick_2">
     <g id="line2d_2">
      <g>
       <use xlink:href="#md3aa3a96c0" x="141.64875" y="320.4" style="stroke: #000000; stroke-width: 0.8"/>
      </g>
     </g>
     <g id="text_2">
      <!-- 0.5 -->
      <g transform="translate(129.721406 338.797656) scale(0.15 -0.15)">
       <defs>
        <path id="DejaVuSans-35" d="M 691 4666 
L 3169 4666 
L 3169 4134 
L 1269 4134 
L 1269 2991 
Q 1406 3038 1543 3061 
Q 1681 3084 1819 3084 
Q 2600 3084 3056 2656 
Q 3513 2228 3513 1497 
Q 3513 744 3044 326 
Q 2575 -91 1722 -91 
Q 1428 -91 1123 -41 
Q 819 9 494 109 
L 494 744 
Q 775 591 1075 516 
Q 1375 441 1709 441 
Q 2250 441 2565 725 
Q 2881 1009 2881 1497 
Q 2881 1984 2565 2268 
Q 2250 2553 1709 2553 
Q 1456 2553 1204 2497 
Q 953 2441 691 2322 
L 691 4666 
z
" transform="scale(0.015625)"/>
       </defs>
       <use xlink:href="#DejaVuSans-30"/>
       <use xlink:href="#DejaVuSans-2e" transform="translate(63.623047 0)"/>
       <use xlink:href="#DejaVuSans-35" transform="translate(95.410156 0)"/>
      </g>
     </g>
    </g>
    <g id="xtick_3">
     <g id="line2d_3">
      <g>
       <use xlink:href="#md3aa3a96c0" x="210.694205" y="320.4" style="stroke: #000000; stroke-width: 0.8"/>
      </g>
     </g>
     <g id="text_3">
      <!-- 1.0 -->
      <g transform="translate(198.766861 338.797656) scale(0.15 -0.15)">
       <defs>
        <path id="DejaVuSans-31" d="M 794 531 
L 1825 531 
L 1825 4091 
L 703 3866 
L 703 4441 
L 1819 4666 
L 2450 4666 
L 2450 531 
L 3481 531 
L 3481 0 
L 794 0 
L 794 531 
z
" transform="scale(0.015625)"/>
       </defs>
       <use xlink:href="#DejaVuSans-31"/>
       <use xlink:href="#DejaVuSans-2e" transform="translate(63.623047 0)"/>
       <use xlink:href="#DejaVuSans-30" transform="translate(95.410156 0)"/>
      </g>
     </g>
    </g>
    <g id="xtick_4">
     <g id="line2d_4">
      <g>
       <use xlink:href="#md3aa3a96c0" x="279.739659" y="320.4" style="stroke: #000000; stroke-width: 0.8"/>
      </g>
     </g>
     <g id="text_4">
      <!-- 1.5 -->
      <g transform="translate(267.812315 338.797656) scale(0.15 -0.15)">
       <use xlink:href="#DejaVuSans-31"/>
       <use xlink:href="#DejaVuSans-2e" transform="translate(63.623047 0)"/>
       <use xlink:href="#DejaVuSans-35" transform="translate(95.410156 0)"/>
      </g>
     </g>
    </g>
    <g id="xtick_5">
     <g id="line2d_5">
      <g>
       <use xlink:href="#md3aa3a96c0" x="348.785114" y="320.4" style="stroke: #000000; stroke-width: 0.8"/>
      </g>
     </g>
     <g id="text_5">
      <!-- 2.0 -->
      <g transform="translate(336.85777 338.797656) scale(0.15 -0.15)">
       <defs>
        <path id="DejaVuSans-32" d="M 1228 531 
L 3431 531 
L 3431 0 
L 469 0 
L 469 531 
Q 828 903 1448 1529 
Q 2069 2156 2228 2338 
Q 2531 2678 2651 2914 
Q 2772 3150 2772 3378 
Q 2772 3750 2511 3984 
Q 2250 4219 1831 4219 
Q 1534 4219 1204 4116 
Q 875 4013 500 3803 
L 500 4441 
Q 881 4594 1212 4672 
Q 1544 4750 1819 4750 
Q 2544 4750 2975 4387 
Q 3406 4025 3406 3419 
Q 3406 3131 3298 2873 
Q 3191 2616 2906 2266 
Q 2828 2175 2409 1742 
Q 1991 1309 1228 531 
z
" transform="scale(0.015625)"/>
       </defs>
       <use xlink:href="#DejaVuSans-32"/>
       <use xlink:href="#DejaVuSans-2e" transform="translate(63.623047 0)"/>
       <use xlink:href="#DejaVuSans-30" transform="translate(95.410156 0)"/>
      </g>
     </g>
    </g>
    <g id="xtick_6">
     <g id="line2d_6">
      <g>
       <use xlink:href="#md3aa3a96c0" x="417.830568" y="320.4" style="stroke: #000000; stroke-width: 0.8"/>
      </g>
     </g>
     <g id="text_6">
      <!-- 2.5 -->
      <g transform="translate(405.903224 338.797656) scale(0.15 -0.15)">
       <use xlink:href="#DejaVuSans-32"/>
       <use xlink:href="#DejaVuSans-2e" transform="translate(63.623047 0)"/>
       <use xlink:href="#DejaVuSans-35" transform="translate(95.410156 0)"/>
      </g>
     </g>
    </g>
    <g id="text_7">
     <!-- time [week] -->
     <g transform="translate(189.41 359.594375) scale(0.18 -0.18)">
      <defs>
       <path id="DejaVuSans-Bold-74" d="M 1759 4494 
L 1759 3500 
L 2913 3500 
L 2913 2700 
L 1759 2700 
L 1759 1216 
Q 1759 972 1856 886 
Q 1953 800 2241 800 
L 2816 800 
L 2816 0 
L 1856 0 
Q 1194 0 917 276 
Q 641 553 641 1216 
L 641 2700 
L 84 2700 
L 84 3500 
L 641 3500 
L 641 4494 
L 1759 4494 
z
" transform="scale(0.015625)"/>
       <path id="DejaVuSans-Bold-69" d="M 538 3500 
L 1656 3500 
L 1656 0 
L 538 0 
L 538 3500 
z
M 538 4863 
L 1656 4863 
L 1656 3950 
L 538 3950 
L 538 4863 
z
" transform="scale(0.015625)"/>
       <path id="DejaVuSans-Bold-6d" d="M 3781 2919 
Q 3994 3244 4286 3414 
Q 4578 3584 4928 3584 
Q 5531 3584 5847 3212 
Q 6163 2841 6163 2131 
L 6163 0 
L 5038 0 
L 5038 1825 
Q 5041 1866 5042 1909 
Q 5044 1953 5044 2034 
Q 5044 2406 4934 2573 
Q 4825 2741 4581 2741 
Q 4263 2741 4089 2478 
Q 3916 2216 3909 1719 
L 3909 0 
L 2784 0 
L 2784 1825 
Q 2784 2406 2684 2573 
Q 2584 2741 2328 2741 
Q 2006 2741 1831 2477 
Q 1656 2213 1656 1722 
L 1656 0 
L 531 0 
L 531 3500 
L 1656 3500 
L 1656 2988 
Q 1863 3284 2130 3434 
Q 2397 3584 2719 3584 
Q 3081 3584 3359 3409 
Q 3638 3234 3781 2919 
z
" transform="scale(0.015625)"/>
       <path id="DejaVuSans-Bold-65" d="M 4031 1759 
L 4031 1441 
L 1416 1441 
Q 1456 1047 1700 850 
Q 1944 653 2381 653 
Q 2734 653 3104 758 
Q 3475 863 3866 1075 
L 3866 213 
Q 3469 63 3072 -14 
Q 2675 -91 2278 -91 
Q 1328 -91 801 392 
Q 275 875 275 1747 
Q 275 2603 792 3093 
Q 1309 3584 2216 3584 
Q 3041 3584 3536 3087 
Q 4031 2591 4031 1759 
z
M 2881 2131 
Q 2881 2450 2695 2645 
Q 2509 2841 2209 2841 
Q 1884 2841 1681 2658 
Q 1478 2475 1428 2131 
L 2881 2131 
z
" transform="scale(0.015625)"/>
       <path id="DejaVuSans-Bold-20" transform="scale(0.015625)"/>
       <path id="DejaVuSans-Bold-5b" d="M 550 4863 
L 2491 4863 
L 2491 4159 
L 1613 4159 
L 1613 -141 
L 2491 -141 
L 2491 -844 
L 550 -844 
L 550 4863 
z
" transform="scale(0.015625)"/>
       <path id="DejaVuSans-Bold-77" d="M 225 3500 
L 1313 3500 
L 1900 1088 
L 2491 3500 
L 3425 3500 
L 4013 1113 
L 4603 3500 
L 5691 3500 
L 4769 0 
L 3547 0 
L 2956 2406 
L 2369 0 
L 1147 0 
L 225 3500 
z
" transform="scale(0.015625)"/>
       <path id="DejaVuSans-Bold-6b" d="M 538 4863 
L 1656 4863 
L 1656 2216 
L 2944 3500 
L 4244 3500 
L 2534 1894 
L 4378 0 
L 3022 0 
L 1656 1459 
L 1656 0 
L 538 0 
L 538 4863 
z
" transform="scale(0.015625)"/>
       <path id="DejaVuSans-Bold-5d" d="M 2375 -844 
L 434 -844 
L 434 -141 
L 1313 -141 
L 1313 4159 
L 434 4159 
L 434 4863 
L 2375 4863 
L 2375 -844 
z
" transform="scale(0.015625)"/>
      </defs>
      <use xlink:href="#DejaVuSans-Bold-74"/>
      <use xlink:href="#DejaVuSans-Bold-69" transform="translate(47.802734 0)"/>
      <use xlink:href="#DejaVuSans-Bold-6d" transform="translate(82.080078 0)"/>
      <use xlink:href="#DejaVuSans-Bold-65" transform="translate(186.279297 0)"/>
      <use xlink:href="#DejaVuSans-Bold-20" transform="translate(254.101562 0)"/>
      <use xlink:href="#DejaVuSans-Bold-5b" transform="translate(288.916016 0)"/>
      <use xlink:href="#DejaVuSans-Bold-77" transform="translate(334.619141 0)"/>
      <use xlink:href="#DejaVuSans-Bold-65" transform="translate(427.001953 0)"/>
      <use xlink:href="#DejaVuSans-Bold-65" transform="translate(494.824219 0)"/>
      <use xlink:href="#DejaVuSans-Bold-6b" transform="translate(562.646484 0)"/>
      <use xlink:href="#DejaVuSans-Bold-5d" transform="translate(629.150391 0)"/>
     </g>
    </g>
   </g>
   <g id="matplotlib.axis_2">
    <g id="ytick_1">
     <g id="line2d_7">
      <defs>
       <path id="m071c19c8d0" d="M 0 0 
L -3.5 0 
" style="stroke: #000000; stroke-width: 0.8"/>
      </defs>
      <g>
       <use xlink:href="#m071c19c8d0" x="54.84875" y="307.8" style="stroke: #000000; stroke-width: 0.8"/>
      </g>
     </g>
     <g id="text_8">
      <!-- 0 -->
      <g transform="translate(38.305 313.498828) scale(0.15 -0.15)">
       <use xlink:href="#DejaVuSans-30"/>
      </g>
     </g>
    </g>
    <g id="ytick_2">
     <g id="line2d_8">
      <g>
       <use xlink:href="#m071c19c8d0" x="54.84875" y="246.850488" style="stroke: #000000; stroke-width: 0.8"/>
      </g>
     </g>
     <g id="text_9">
      <!-- 5 -->
      <g transform="translate(38.305 252.549316) scale(0.15 -0.15)">
       <use xlink:href="#DejaVuSans-35"/>
      </g>
     </g>
    </g>
    <g id="ytick_3">
     <g id="line2d_9">
      <g>
       <use xlink:href="#m071c19c8d0" x="54.84875" y="185.900975" style="stroke: #000000; stroke-width: 0.8"/>
      </g>
     </g>
     <g id="text_10">
      <!-- 10 -->
      <g transform="translate(28.76125 191.599803) scale(0.15 -0.15)">
       <use xlink:href="#DejaVuSans-31"/>
       <use xlink:href="#DejaVuSans-30" transform="translate(63.623047 0)"/>
      </g>
     </g>
    </g>
    <g id="ytick_4">
     <g id="line2d_10">
      <g>
       <use xlink:href="#m071c19c8d0" x="54.84875" y="124.951463" style="stroke: #000000; stroke-width: 0.8"/>
      </g>
     </g>
     <g id="text_11">
      <!-- 15 -->
      <g transform="translate(28.76125 130.650291) scale(0.15 -0.15)">
       <use xlink:href="#DejaVuSans-31"/>
       <use xlink:href="#DejaVuSans-35" transform="translate(63.623047 0)"/>
      </g>
     </g>
    </g>
    <g id="ytick_5">
     <g id="line2d_11">
      <g>
       <use xlink:href="#m071c19c8d0" x="54.84875" y="64.00195" style="stroke: #000000; stroke-width: 0.8"/>
      </g>
     </g>
     <g id="text_12">
      <!-- 20 -->
      <g transform="translate(28.76125 69.700779) scale(0.15 -0.15)">
       <use xlink:href="#DejaVuSans-32"/>
       <use xlink:href="#DejaVuSans-30" transform="translate(63.623047 0)"/>
      </g>
     </g>
    </g>
    <g id="text_13">
     <!-- dulaglutide plasma [nM] -->
     <g transform="translate(20.877187 305.940937) rotate(-90) scale(0.18 -0.18)">
      <defs>
       <path id="DejaVuSans-Bold-64" d="M 2919 2988 
L 2919 4863 
L 4044 4863 
L 4044 0 
L 2919 0 
L 2919 506 
Q 2688 197 2409 53 
Q 2131 -91 1766 -91 
Q 1119 -91 703 423 
Q 288 938 288 1747 
Q 288 2556 703 3070 
Q 1119 3584 1766 3584 
Q 2128 3584 2408 3439 
Q 2688 3294 2919 2988 
z
M 2181 722 
Q 2541 722 2730 984 
Q 2919 1247 2919 1747 
Q 2919 2247 2730 2509 
Q 2541 2772 2181 2772 
Q 1825 2772 1636 2509 
Q 1447 2247 1447 1747 
Q 1447 1247 1636 984 
Q 1825 722 2181 722 
z
" transform="scale(0.015625)"/>
       <path id="DejaVuSans-Bold-75" d="M 500 1363 
L 500 3500 
L 1625 3500 
L 1625 3150 
Q 1625 2866 1622 2436 
Q 1619 2006 1619 1863 
Q 1619 1441 1641 1255 
Q 1663 1069 1716 984 
Q 1784 875 1895 815 
Q 2006 756 2150 756 
Q 2500 756 2700 1025 
Q 2900 1294 2900 1772 
L 2900 3500 
L 4019 3500 
L 4019 0 
L 2900 0 
L 2900 506 
Q 2647 200 2364 54 
Q 2081 -91 1741 -91 
Q 1134 -91 817 281 
Q 500 653 500 1363 
z
" transform="scale(0.015625)"/>
       <path id="DejaVuSans-Bold-6c" d="M 538 4863 
L 1656 4863 
L 1656 0 
L 538 0 
L 538 4863 
z
" transform="scale(0.015625)"/>
       <path id="DejaVuSans-Bold-61" d="M 2106 1575 
Q 1756 1575 1579 1456 
Q 1403 1338 1403 1106 
Q 1403 894 1545 773 
Q 1688 653 1941 653 
Q 2256 653 2472 879 
Q 2688 1106 2688 1447 
L 2688 1575 
L 2106 1575 
z
M 3816 1997 
L 3816 0 
L 2688 0 
L 2688 519 
Q 2463 200 2181 54 
Q 1900 -91 1497 -91 
Q 953 -91 614 226 
Q 275 544 275 1050 
Q 275 1666 698 1953 
Q 1122 2241 2028 2241 
L 2688 2241 
L 2688 2328 
Q 2688 2594 2478 2717 
Q 2269 2841 1825 2841 
Q 1466 2841 1156 2769 
Q 847 2697 581 2553 
L 581 3406 
Q 941 3494 1303 3539 
Q 1666 3584 2028 3584 
Q 2975 3584 3395 3211 
Q 3816 2838 3816 1997 
z
" transform="scale(0.015625)"/>
       <path id="DejaVuSans-Bold-67" d="M 2919 594 
Q 2688 288 2409 144 
Q 2131 0 1766 0 
Q 1125 0 706 504 
Q 288 1009 288 1791 
Q 288 2575 706 3076 
Q 1125 3578 1766 3578 
Q 2131 3578 2409 3434 
Q 2688 3291 2919 2981 
L 2919 3500 
L 4044 3500 
L 4044 353 
Q 4044 -491 3511 -936 
Q 2978 -1381 1966 -1381 
Q 1638 -1381 1331 -1331 
Q 1025 -1281 716 -1178 
L 716 -306 
Q 1009 -475 1290 -558 
Q 1572 -641 1856 -641 
Q 2406 -641 2662 -400 
Q 2919 -159 2919 353 
L 2919 594 
z
M 2181 2772 
Q 1834 2772 1640 2515 
Q 1447 2259 1447 1791 
Q 1447 1309 1634 1061 
Q 1822 813 2181 813 
Q 2531 813 2725 1069 
Q 2919 1325 2919 1791 
Q 2919 2259 2725 2515 
Q 2531 2772 2181 2772 
z
" transform="scale(0.015625)"/>
       <path id="DejaVuSans-Bold-70" d="M 1656 506 
L 1656 -1331 
L 538 -1331 
L 538 3500 
L 1656 3500 
L 1656 2988 
Q 1888 3294 2169 3439 
Q 2450 3584 2816 3584 
Q 3463 3584 3878 3070 
Q 4294 2556 4294 1747 
Q 4294 938 3878 423 
Q 3463 -91 2816 -91 
Q 2450 -91 2169 54 
Q 1888 200 1656 506 
z
M 2400 2772 
Q 2041 2772 1848 2508 
Q 1656 2244 1656 1747 
Q 1656 1250 1848 986 
Q 2041 722 2400 722 
Q 2759 722 2948 984 
Q 3138 1247 3138 1747 
Q 3138 2247 2948 2509 
Q 2759 2772 2400 2772 
z
" transform="scale(0.015625)"/>
       <path id="DejaVuSans-Bold-73" d="M 3272 3391 
L 3272 2541 
Q 2913 2691 2578 2766 
Q 2244 2841 1947 2841 
Q 1628 2841 1473 2761 
Q 1319 2681 1319 2516 
Q 1319 2381 1436 2309 
Q 1553 2238 1856 2203 
L 2053 2175 
Q 2913 2066 3209 1816 
Q 3506 1566 3506 1031 
Q 3506 472 3093 190 
Q 2681 -91 1863 -91 
Q 1516 -91 1145 -36 
Q 775 19 384 128 
L 384 978 
Q 719 816 1070 734 
Q 1422 653 1784 653 
Q 2113 653 2278 743 
Q 2444 834 2444 1013 
Q 2444 1163 2330 1236 
Q 2216 1309 1875 1350 
L 1678 1375 
Q 931 1469 631 1722 
Q 331 1975 331 2491 
Q 331 3047 712 3315 
Q 1094 3584 1881 3584 
Q 2191 3584 2531 3537 
Q 2872 3491 3272 3391 
z
" transform="scale(0.015625)"/>
       <path id="DejaVuSans-Bold-6e" d="M 4056 2131 
L 4056 0 
L 2931 0 
L 2931 347 
L 2931 1631 
Q 2931 2084 2911 2256 
Q 2891 2428 2841 2509 
Q 2775 2619 2662 2680 
Q 2550 2741 2406 2741 
Q 2056 2741 1856 2470 
Q 1656 2200 1656 1722 
L 1656 0 
L 538 0 
L 538 3500 
L 1656 3500 
L 1656 2988 
Q 1909 3294 2193 3439 
Q 2478 3584 2822 3584 
Q 3428 3584 3742 3212 
Q 4056 2841 4056 2131 
z
" transform="scale(0.015625)"/>
       <path id="DejaVuSans-Bold-4d" d="M 588 4666 
L 2119 4666 
L 3181 2169 
L 4250 4666 
L 5778 4666 
L 5778 0 
L 4641 0 
L 4641 3413 
L 3566 897 
L 2803 897 
L 1728 3413 
L 1728 0 
L 588 0 
L 588 4666 
z
" transform="scale(0.015625)"/>
      </defs>
      <use xlink:href="#DejaVuSans-Bold-64"/>
      <use xlink:href="#DejaVuSans-Bold-75" transform="translate(71.582031 0)"/>
      <use xlink:href="#DejaVuSans-Bold-6c" transform="translate(142.773438 0)"/>
      <use xlink:href="#DejaVuSans-Bold-61" transform="translate(177.050781 0)"/>
      <use xlink:href="#DejaVuSans-Bold-67" transform="translate(244.53125 0)"/>
      <use xlink:href="#DejaVuSans-Bold-6c" transform="translate(316.113281 0)"/>
      <use xlink:href="#DejaVuSans-Bold-75" transform="translate(350.390625 0)"/>
      <use xlink:href="#DejaVuSans-Bold-74" transform="translate(421.582031 0)"/>
      <use xlink:href="#DejaVuSans-Bold-69" transform="translate(469.384766 0)"/>
      <use xlink:href="#DejaVuSans-Bold-64" transform="translate(503.662109 0)"/>
      <use xlink:href="#DejaVuSans-Bold-65" transform="translate(575.244141 0)"/>
      <use xlink:href="#DejaVuSans-Bold-20" transform="translate(643.066406 0)"/>
      <use xlink:href="#DejaVuSans-Bold-70" transform="translate(677.880859 0)"/>
      <use xlink:href="#DejaVuSans-Bold-6c" transform="translate(749.462891 0)"/>
      <use xlink:href="#DejaVuSans-Bold-61" transform="translate(783.740234 0)"/>
      <use xlink:href="#DejaVuSans-Bold-73" transform="translate(851.220703 0)"/>
      <use xlink:href="#DejaVuSans-Bold-6d" transform="translate(910.742188 0)"/>
      <use xlink:href="#DejaVuSans-Bold-61" transform="translate(1014.941406 0)"/>
      <use xlink:href="#DejaVuSans-Bold-20" transform="translate(1082.421875 0)"/>
      <use xlink:href="#DejaVuSans-Bold-5b" transform="translate(1117.236328 0)"/>
      <use xlink:href="#DejaVuSans-Bold-6e" transform="translate(1162.939453 0)"/>
      <use xlink:href="#DejaVuSans-Bold-4d" transform="translate(1234.130859 0)"/>
      <use xlink:href="#DejaVuSans-Bold-5d" transform="translate(1333.642578 0)"/>
     </g>
    </g>
   </g>
   <g id="LineCollection_1">
    <path d="M 72.603295 307.8 
L 72.603295 307.8 
" clip-path="url(#pe0664b7817)" style="fill: none; stroke: #1f77b4"/>
    <path d="M 75.891174 282.77162 
L 75.891174 210.975945 
" clip-path="url(#pe0664b7817)" style="fill: none; stroke: #1f77b4"/>
    <path d="M 82.466932 215.123493 
L 82.466932 115.009986 
" clip-path="url(#pe0664b7817)" style="fill: none; stroke: #1f77b4"/>
    <path d="M 92.330568 159.34597 
L 92.330568 55.8 
" clip-path="url(#pe0664b7817)" style="fill: none; stroke: #1f77b4"/>
    <path d="M 102.194205 150.907824 
L 102.194205 60.233589 
" clip-path="url(#pe0664b7817)" style="fill: none; stroke: #1f77b4"/>
    <path d="M 112.057841 147.761401 
L 112.057841 71.3891 
" clip-path="url(#pe0664b7817)" style="fill: none; stroke: #1f77b4"/>
    <path d="M 121.921477 159.775022 
L 121.921477 88.551415 
" clip-path="url(#pe0664b7817)" style="fill: none; stroke: #1f77b4"/>
    <path d="M 131.785114 168.356179 
L 131.785114 99.420873 
" clip-path="url(#pe0664b7817)" style="fill: none; stroke: #1f77b4"/>
    <path d="M 151.512386 197.675138 
L 151.512386 151.908956 
" clip-path="url(#pe0664b7817)" style="fill: none; stroke: #1f77b4"/>
    <path d="M 171.239659 220.987287 
L 171.239659 179.511684 
" clip-path="url(#pe0664b7817)" style="fill: none; stroke: #1f77b4"/>
    <path d="M 210.694205 259.030413 
L 210.694205 222.131437 
" clip-path="url(#pe0664b7817)" style="fill: none; stroke: #1f77b4"/>
    <path d="M 250.14875 280.483294 
L 250.14875 251.593406 
" clip-path="url(#pe0664b7817)" style="fill: none; stroke: #1f77b4"/>
    <path d="M 309.330568 295.786353 
L 309.330568 274.047439 
" clip-path="url(#pe0664b7817)" style="fill: none; stroke: #1f77b4"/>
    <path d="M 368.512386 300.935074 
L 368.512386 256.313056 
" clip-path="url(#pe0664b7817)" style="fill: none; stroke: #1f77b4"/>
   </g>
   <g id="LineCollection_2">
    <path d="M 72.603295 307.8 
L 72.603295 307.8 
" clip-path="url(#pe0664b7817)" style="fill: none; stroke: #000000"/>
    <path d="M 75.891174 269.361507 
L 75.891174 226.652077 
" clip-path="url(#pe0664b7817)" style="fill: none; stroke: #000000"/>
    <path d="M 82.466932 202.793724 
L 82.466932 119.436706 
" clip-path="url(#pe0664b7817)" style="fill: none; stroke: #000000"/>
    <path d="M 92.330568 163.618873 
L 92.330568 77.316382 
" clip-path="url(#pe0664b7817)" style="fill: none; stroke: #000000"/>
    <path d="M 102.194205 157.286099 
L 102.194205 74.812724 
" clip-path="url(#pe0664b7817)" style="fill: none; stroke: #000000"/>
    <path d="M 112.057841 143.736908 
L 112.057841 59.496247 
" clip-path="url(#pe0664b7817)" style="fill: none; stroke: #000000"/>
    <path d="M 121.921477 164.944338 
L 121.921477 111.336646 
" clip-path="url(#pe0664b7817)" style="fill: none; stroke: #000000"/>
    <path d="M 131.785114 149.627853 
L 131.785114 98.376548 
" clip-path="url(#pe0664b7817)" style="fill: none; stroke: #000000"/>
    <path d="M 151.512386 178.198993 
L 151.512386 132.838633 
" clip-path="url(#pe0664b7817)" style="fill: none; stroke: #000000"/>
    <path d="M 171.239659 207.506483 
L 171.239659 175.400771 
" clip-path="url(#pe0664b7817)" style="fill: none; stroke: #000000"/>
    <path d="M 210.694205 239.612182 
L 210.694205 219.877501 
" clip-path="url(#pe0664b7817)" style="fill: none; stroke: #000000"/>
    <path d="M 250.14875 271.276085 
L 250.14875 254.192308 
" clip-path="url(#pe0664b7817)" style="fill: none; stroke: #000000"/>
    <path d="M 309.330568 288.654393 
L 309.330568 277.461588 
" clip-path="url(#pe0664b7817)" style="fill: none; stroke: #000000"/>
    <path d="M 368.512386 293.219887 
L 368.512386 285.267098 
" clip-path="url(#pe0664b7817)" style="fill: none; stroke: #000000"/>
   </g>
   <g id="line2d_12">
    <path d="M 72.603295 307.8 
L 74.37875 279.704703 
L 76.154205 254.64496 
L 77.929659 232.351598 
L 79.705114 212.598393 
L 81.480568 195.175608 
L 83.256023 179.888856 
L 85.031477 166.558043 
L 86.806932 155.016388 
L 88.582386 145.109495 
L 90.00275 138.264635 
L 91.423114 132.30621 
L 92.843477 127.170196 
L 94.263841 122.796476 
L 95.684205 119.128629 
L 97.104568 116.11371 
L 98.524932 113.702061 
L 99.590205 112.261099 
L 100.655477 111.114668 
L 101.72075 110.245092 
L 102.786023 109.635545 
L 103.851295 109.270005 
L 104.916568 109.133225 
L 105.981841 109.210699 
L 107.047114 109.488628 
L 108.112386 109.953887 
L 109.53275 110.84416 
L 110.953114 112.017479 
L 112.373477 113.447803 
L 114.148932 115.56025 
L 116.279477 118.513711 
L 118.410023 121.858929 
L 120.895659 126.174522 
L 123.736386 131.544822 
L 127.287295 138.750468 
L 131.903477 148.652811 
L 152.143659 192.751714 
L 157.114932 202.730931 
L 161.731114 211.505121 
L 165.992205 219.15247 
L 170.253295 226.351632 
L 174.514386 233.098801 
L 178.420386 238.889834 
L 182.326386 244.311574 
L 186.232386 249.374476 
L 190.138386 254.091316 
L 194.044386 258.476527 
L 197.950386 262.545662 
L 201.856386 266.31495 
L 206.117477 270.104384 
L 210.378568 273.578218 
L 214.639659 276.757719 
L 218.90075 279.663624 
L 223.161841 282.315954 
L 227.778023 284.925369 
L 232.394205 287.282791 
L 237.365477 289.564655 
L 242.33675 291.604803 
L 247.663114 293.549033 
L 253.344568 295.376421 
L 259.381114 297.071099 
L 265.77275 298.622271 
L 272.519477 300.024008 
L 279.621295 301.274859 
L 287.433295 302.425015 
L 295.955477 303.454473 
L 305.542932 304.383021 
L 316.195659 305.187463 
L 328.623841 305.8929 
L 343.182568 306.483425 
L 360.582023 306.956373 
L 382.597659 307.321005 
L 412.425295 307.578409 
L 427.694205 307.650869 
L 427.694205 307.650869 
" clip-path="url(#pe0664b7817)" style="fill: none; stroke: #1f77b4; stroke-width: 2; stroke-linecap: square"/>
   </g>
   <g id="line2d_13">
    <path d="M 72.603295 307.8 
L 75.891174 246.873782 
L 82.466932 165.06674 
L 92.330568 107.572985 
L 102.194205 105.570706 
L 112.057841 109.575251 
L 121.921477 124.163218 
L 131.785114 133.888526 
L 151.512386 174.792047 
L 171.239659 200.249485 
L 210.694205 240.580925 
L 250.14875 266.03835 
L 309.330568 284.916896 
L 368.512386 278.624065 
" clip-path="url(#pe0664b7817)" style="fill: none; stroke-dasharray: 3.7,1.6; stroke-dashoffset: 0; stroke: #1f77b4"/>
    <defs>
     <path id="m48bee90073" d="M -3 3 
L 3 3 
L 3 -3 
L -3 -3 
z
" style="stroke: #000000; stroke-linejoin: miter"/>
    </defs>
    <g clip-path="url(#pe0664b7817)">
     <use xlink:href="#m48bee90073" x="72.603295" y="307.8" style="fill: #1f77b4; stroke: #000000; stroke-linejoin: miter"/>
     <use xlink:href="#m48bee90073" x="75.891174" y="246.873782" style="fill: #1f77b4; stroke: #000000; stroke-linejoin: miter"/>
     <use xlink:href="#m48bee90073" x="82.466932" y="165.06674" style="fill: #1f77b4; stroke: #000000; stroke-linejoin: miter"/>
     <use xlink:href="#m48bee90073" x="92.330568" y="107.572985" style="fill: #1f77b4; stroke: #000000; stroke-linejoin: miter"/>
     <use xlink:href="#m48bee90073" x="102.194205" y="105.570706" style="fill: #1f77b4; stroke: #000000; stroke-linejoin: miter"/>
     <use xlink:href="#m48bee90073" x="112.057841" y="109.575251" style="fill: #1f77b4; stroke: #000000; stroke-linejoin: miter"/>
     <use xlink:href="#m48bee90073" x="121.921477" y="124.163218" style="fill: #1f77b4; stroke: #000000; stroke-linejoin: miter"/>
     <use xlink:href="#m48bee90073" x="131.785114" y="133.888526" style="fill: #1f77b4; stroke: #000000; stroke-linejoin: miter"/>
     <use xlink:href="#m48bee90073" x="151.512386" y="174.792047" style="fill: #1f77b4; stroke: #000000; stroke-linejoin: miter"/>
     <use xlink:href="#m48bee90073" x="171.239659" y="200.249485" style="fill: #1f77b4; stroke: #000000; stroke-linejoin: miter"/>
     <use xlink:href="#m48bee90073" x="210.694205" y="240.580925" style="fill: #1f77b4; stroke: #000000; stroke-linejoin: miter"/>
     <use xlink:href="#m48bee90073" x="250.14875" y="266.03835" style="fill: #1f77b4; stroke: #000000; stroke-linejoin: miter"/>
     <use xlink:href="#m48bee90073" x="309.330568" y="284.916896" style="fill: #1f77b4; stroke: #000000; stroke-linejoin: miter"/>
     <use xlink:href="#m48bee90073" x="368.512386" y="278.624065" style="fill: #1f77b4; stroke: #000000; stroke-linejoin: miter"/>
    </g>
   </g>
   <g id="line2d_14">
    <path d="M 72.603295 307.8 
L 74.37875 280.757318 
L 76.154205 256.574035 
L 77.929659 235.001484 
L 79.705114 215.831151 
L 81.480568 198.86934 
L 83.256023 183.936179 
L 85.031477 170.864693 
L 86.806932 159.499942 
L 88.582386 149.698202 
L 90.357841 141.326218 
L 91.778205 135.574748 
L 93.198568 130.600087 
L 94.618932 126.346738 
L 96.039295 122.762528 
L 97.459659 119.798423 
L 98.880023 117.408359 
L 100.300386 115.549073 
L 101.365659 114.478404 
L 102.430932 113.667194 
L 103.496205 113.099995 
L 104.561477 112.762084 
L 105.62675 112.639432 
L 106.692023 112.718673 
L 107.757295 112.98708 
L 109.177659 113.618352 
L 110.598023 114.537316 
L 112.018386 115.718586 
L 113.793841 117.528011 
L 115.569295 119.667284 
L 117.699841 122.614418 
L 120.185477 126.498841 
L 123.026205 131.41948 
L 126.222023 137.432373 
L 130.128023 145.272138 
L 135.809477 157.236498 
L 149.658023 186.620473 
L 154.984386 197.336134 
L 159.955659 206.850065 
L 164.571841 215.208155 
L 168.832932 222.490772 
L 173.094023 229.347065 
L 177.355114 235.775046 
L 181.616205 241.779377 
L 185.522205 246.919422 
L 189.428205 251.721927 
L 193.334205 256.199172 
L 197.240205 260.364842 
L 201.501295 264.571056 
L 205.762386 268.443604 
L 210.023477 272.002541 
L 214.284568 275.267885 
L 218.545659 278.259338 
L 222.80675 280.996073 
L 227.422932 283.694848 
L 232.039114 286.138806 
L 237.010386 288.510122 
L 241.981659 290.6354 
L 247.308023 292.665713 
L 252.989477 294.578859 
L 258.670932 296.259765 
L 264.707477 297.820654 
L 271.099114 299.251407 
L 278.200932 300.608924 
L 285.657841 301.809067 
L 293.824932 302.900341 
L 303.057295 303.901474 
L 313.354932 304.783072 
L 324.717841 305.529939 
L 337.856205 306.169091 
L 353.480205 306.70174 
L 372.655114 307.125853 
L 397.511477 307.443233 
L 427.694205 307.635999 
L 427.694205 307.635999 
" clip-path="url(#pe0664b7817)" style="fill: none; stroke: #000000; stroke-width: 2; stroke-linecap: square"/>
   </g>
   <g id="line2d_15">
    <path d="M 72.603295 307.8 
L 75.891174 248.006792 
L 82.466932 161.115215 
L 92.330568 120.467628 
L 102.194205 116.049412 
L 112.057841 101.616577 
L 121.921477 138.140492 
L 131.785114 124.002201 
L 151.512386 155.518813 
L 171.239659 191.453627 
L 210.694205 229.744842 
L 250.14875 262.734197 
L 309.330568 283.05799 
L 368.512386 289.243493 
" clip-path="url(#pe0664b7817)" style="fill: none; stroke-dasharray: 3.7,1.6; stroke-dashoffset: 0; stroke: #000000"/>
    <defs>
     <path id="m912d353b8d" d="M -3 3 
L 3 3 
L 3 -3 
L -3 -3 
z
" style="stroke: #000000; stroke-linejoin: miter"/>
    </defs>
    <g clip-path="url(#pe0664b7817)">
     <use xlink:href="#m912d353b8d" x="72.603295" y="307.8" style="stroke: #000000; stroke-linejoin: miter"/>
     <use xlink:href="#m912d353b8d" x="75.891174" y="248.006792" style="stroke: #000000; stroke-linejoin: miter"/>
     <use xlink:href="#m912d353b8d" x="82.466932" y="161.115215" style="stroke: #000000; stroke-linejoin: miter"/>
     <use xlink:href="#m912d353b8d" x="92.330568" y="120.467628" style="stroke: #000000; stroke-linejoin: miter"/>
     <use xlink:href="#m912d353b8d" x="102.194205" y="116.049412" style="stroke: #000000; stroke-linejoin: miter"/>
     <use xlink:href="#m912d353b8d" x="112.057841" y="101.616577" style="stroke: #000000; stroke-linejoin: miter"/>
     <use xlink:href="#m912d353b8d" x="121.921477" y="138.140492" style="stroke: #000000; stroke-linejoin: miter"/>
     <use xlink:href="#m912d353b8d" x="131.785114" y="124.002201" style="stroke: #000000; stroke-linejoin: miter"/>
     <use xlink:href="#m912d353b8d" x="151.512386" y="155.518813" style="stroke: #000000; stroke-linejoin: miter"/>
     <use xlink:href="#m912d353b8d" x="171.239659" y="191.453627" style="stroke: #000000; stroke-linejoin: miter"/>
     <use xlink:href="#m912d353b8d" x="210.694205" y="229.744842" style="stroke: #000000; stroke-linejoin: miter"/>
     <use xlink:href="#m912d353b8d" x="250.14875" y="262.734197" style="stroke: #000000; stroke-linejoin: miter"/>
     <use xlink:href="#m912d353b8d" x="309.330568" y="283.05799" style="stroke: #000000; stroke-linejoin: miter"/>
     <use xlink:href="#m912d353b8d" x="368.512386" y="289.243493" style="stroke: #000000; stroke-linejoin: miter"/>
    </g>
   </g>
   <g id="patch_3">
    <path d="M 54.84875 320.4 
L 54.84875 43.2 
" style="fill: none; stroke: #000000; stroke-width: 0.8; stroke-linejoin: miter; stroke-linecap: square"/>
   </g>
   <g id="patch_4">
    <path d="M 445.44875 320.4 
L 445.44875 43.2 
" style="fill: none; stroke: #000000; stroke-width: 0.8; stroke-linejoin: miter; stroke-linecap: square"/>
   </g>
   <g id="patch_5">
    <path d="M 54.84875 320.4 
L 445.44875 320.4 
" style="fill: none; stroke: #000000; stroke-width: 0.8; stroke-linejoin: miter; stroke-linecap: square"/>
   </g>
   <g id="patch_6">
    <path d="M 54.84875 43.2 
L 445.44875 43.2 
" style="fill: none; stroke: #000000; stroke-width: 0.8; stroke-linejoin: miter; stroke-linecap: square"/>
   </g>
   <g id="legend_1">
    <g id="patch_7">
     <path d="M 318.976875 109.9125 
L 438.44875 109.9125 
Q 440.44875 109.9125 440.44875 107.9125 
L 440.44875 50.2 
Q 440.44875 48.2 438.44875 48.2 
L 318.976875 48.2 
Q 316.976875 48.2 316.976875 50.2 
L 316.976875 107.9125 
Q 316.976875 109.9125 318.976875 109.9125 
z
" style="fill: #ffffff; opacity: 0.8; stroke: #cccccc; stroke-linejoin: miter"/>
    </g>
    <g id="line2d_16">
     <path d="M 320.976875 56.298437 
L 340.976875 56.298437 
" style="fill: none; stroke: #1f77b4; stroke-width: 2; stroke-linecap: square"/>
    </g>
    <g id="line2d_17"/>
    <g id="text_14">
     <!-- DULP -->
     <g transform="translate(348.976875 59.798437) scale(0.1 -0.1)">
      <defs>
       <path id="DejaVuSans-44" d="M 1259 4147 
L 1259 519 
L 2022 519 
Q 2988 519 3436 956 
Q 3884 1394 3884 2338 
Q 3884 3275 3436 3711 
Q 2988 4147 2022 4147 
L 1259 4147 
z
M 628 4666 
L 1925 4666 
Q 3281 4666 3915 4102 
Q 4550 3538 4550 2338 
Q 4550 1131 3912 565 
Q 3275 0 1925 0 
L 628 0 
L 628 4666 
z
" transform="scale(0.015625)"/>
       <path id="DejaVuSans-55" d="M 556 4666 
L 1191 4666 
L 1191 1831 
Q 1191 1081 1462 751 
Q 1734 422 2344 422 
Q 2950 422 3222 751 
Q 3494 1081 3494 1831 
L 3494 4666 
L 4128 4666 
L 4128 1753 
Q 4128 841 3676 375 
Q 3225 -91 2344 -91 
Q 1459 -91 1007 375 
Q 556 841 556 1753 
L 556 4666 
z
" transform="scale(0.015625)"/>
       <path id="DejaVuSans-4c" d="M 628 4666 
L 1259 4666 
L 1259 531 
L 3531 531 
L 3531 0 
L 628 0 
L 628 4666 
z
" transform="scale(0.015625)"/>
       <path id="DejaVuSans-50" d="M 1259 4147 
L 1259 2394 
L 2053 2394 
Q 2494 2394 2734 2622 
Q 2975 2850 2975 3272 
Q 2975 3691 2734 3919 
Q 2494 4147 2053 4147 
L 1259 4147 
z
M 628 4666 
L 2053 4666 
Q 2838 4666 3239 4311 
Q 3641 3956 3641 3272 
Q 3641 2581 3239 2228 
Q 2838 1875 2053 1875 
L 1259 1875 
L 1259 0 
L 628 0 
L 628 4666 
z
" transform="scale(0.015625)"/>
      </defs>
      <use xlink:href="#DejaVuSans-44"/>
      <use xlink:href="#DejaVuSans-55" transform="translate(77.001953 0)"/>
      <use xlink:href="#DejaVuSans-4c" transform="translate(150.195312 0)"/>
      <use xlink:href="#DejaVuSans-50" transform="translate(205.908203 0)"/>
     </g>
    </g>
    <g id="LineCollection_3">
     <path d="M 330.976875 75.976562 
L 330.976875 65.976562 
" style="fill: none; stroke: #1f77b4"/>
    </g>
    <g id="line2d_18">
     <path d="M 320.976875 70.976562 
L 340.976875 70.976562 
" style="fill: none; stroke-dasharray: 3.7,1.6; stroke-dashoffset: 0; stroke: #1f77b4"/>
    </g>
    <g id="line2d_19">
     <g>
      <use xlink:href="#m48bee90073" x="330.976875" y="70.976562" style="fill: #1f77b4; stroke: #000000; stroke-linejoin: miter"/>
     </g>
    </g>
    <g id="text_15">
     <!-- DULP±SD (n=12) -->
     <g transform="translate(348.976875 74.476562) scale(0.1 -0.1)">
      <defs>
       <path id="DejaVuSans-b1" d="M 2944 4013 
L 2944 2803 
L 4684 2803 
L 4684 2272 
L 2944 2272 
L 2944 1063 
L 2419 1063 
L 2419 2272 
L 678 2272 
L 678 2803 
L 2419 2803 
L 2419 4013 
L 2944 4013 
z
M 678 531 
L 4684 531 
L 4684 0 
L 678 0 
L 678 531 
z
" transform="scale(0.015625)"/>
       <path id="DejaVuSans-53" d="M 3425 4513 
L 3425 3897 
Q 3066 4069 2747 4153 
Q 2428 4238 2131 4238 
Q 1616 4238 1336 4038 
Q 1056 3838 1056 3469 
Q 1056 3159 1242 3001 
Q 1428 2844 1947 2747 
L 2328 2669 
Q 3034 2534 3370 2195 
Q 3706 1856 3706 1288 
Q 3706 609 3251 259 
Q 2797 -91 1919 -91 
Q 1588 -91 1214 -16 
Q 841 59 441 206 
L 441 856 
Q 825 641 1194 531 
Q 1563 422 1919 422 
Q 2459 422 2753 634 
Q 3047 847 3047 1241 
Q 3047 1584 2836 1778 
Q 2625 1972 2144 2069 
L 1759 2144 
Q 1053 2284 737 2584 
Q 422 2884 422 3419 
Q 422 4038 858 4394 
Q 1294 4750 2059 4750 
Q 2388 4750 2728 4690 
Q 3069 4631 3425 4513 
z
" transform="scale(0.015625)"/>
       <path id="DejaVuSans-20" transform="scale(0.015625)"/>
       <path id="DejaVuSans-28" d="M 1984 4856 
Q 1566 4138 1362 3434 
Q 1159 2731 1159 2009 
Q 1159 1288 1364 580 
Q 1569 -128 1984 -844 
L 1484 -844 
Q 1016 -109 783 600 
Q 550 1309 550 2009 
Q 550 2706 781 3412 
Q 1013 4119 1484 4856 
L 1984 4856 
z
" transform="scale(0.015625)"/>
       <path id="DejaVuSans-6e" d="M 3513 2113 
L 3513 0 
L 2938 0 
L 2938 2094 
Q 2938 2591 2744 2837 
Q 2550 3084 2163 3084 
Q 1697 3084 1428 2787 
Q 1159 2491 1159 1978 
L 1159 0 
L 581 0 
L 581 3500 
L 1159 3500 
L 1159 2956 
Q 1366 3272 1645 3428 
Q 1925 3584 2291 3584 
Q 2894 3584 3203 3211 
Q 3513 2838 3513 2113 
z
" transform="scale(0.015625)"/>
       <path id="DejaVuSans-3d" d="M 678 2906 
L 4684 2906 
L 4684 2381 
L 678 2381 
L 678 2906 
z
M 678 1631 
L 4684 1631 
L 4684 1100 
L 678 1100 
L 678 1631 
z
" transform="scale(0.015625)"/>
       <path id="DejaVuSans-29" d="M 513 4856 
L 1013 4856 
Q 1481 4119 1714 3412 
Q 1947 2706 1947 2009 
Q 1947 1309 1714 600 
Q 1481 -109 1013 -844 
L 513 -844 
Q 928 -128 1133 580 
Q 1338 1288 1338 2009 
Q 1338 2731 1133 3434 
Q 928 4138 513 4856 
z
" transform="scale(0.015625)"/>
      </defs>
      <use xlink:href="#DejaVuSans-44"/>
      <use xlink:href="#DejaVuSans-55" transform="translate(77.001953 0)"/>
      <use xlink:href="#DejaVuSans-4c" transform="translate(150.195312 0)"/>
      <use xlink:href="#DejaVuSans-50" transform="translate(205.908203 0)"/>
      <use xlink:href="#DejaVuSans-b1" transform="translate(266.210938 0)"/>
      <use xlink:href="#DejaVuSans-53" transform="translate(350 0)"/>
      <use xlink:href="#DejaVuSans-44" transform="translate(413.476562 0)"/>
      <use xlink:href="#DejaVuSans-20" transform="translate(490.478516 0)"/>
      <use xlink:href="#DejaVuSans-28" transform="translate(522.265625 0)"/>
      <use xlink:href="#DejaVuSans-6e" transform="translate(561.279297 0)"/>
      <use xlink:href="#DejaVuSans-3d" transform="translate(624.658203 0)"/>
      <use xlink:href="#DejaVuSans-31" transform="translate(708.447266 0)"/>
      <use xlink:href="#DejaVuSans-32" transform="translate(772.070312 0)"/>
      <use xlink:href="#DejaVuSans-29" transform="translate(835.693359 0)"/>
     </g>
    </g>
    <g id="line2d_20">
     <path d="M 320.976875 85.654687 
L 340.976875 85.654687 
" style="fill: none; stroke: #000000; stroke-width: 2; stroke-linecap: square"/>
    </g>
    <g id="line2d_21"/>
    <g id="text_16">
     <!-- DULF -->
     <g transform="translate(348.976875 89.154687) scale(0.1 -0.1)">
      <defs>
       <path id="DejaVuSans-46" d="M 628 4666 
L 3309 4666 
L 3309 4134 
L 1259 4134 
L 1259 2759 
L 3109 2759 
L 3109 2228 
L 1259 2228 
L 1259 0 
L 628 0 
L 628 4666 
z
" transform="scale(0.015625)"/>
      </defs>
      <use xlink:href="#DejaVuSans-44"/>
      <use xlink:href="#DejaVuSans-55" transform="translate(77.001953 0)"/>
      <use xlink:href="#DejaVuSans-4c" transform="translate(150.195312 0)"/>
      <use xlink:href="#DejaVuSans-46" transform="translate(205.908203 0)"/>
     </g>
    </g>
    <g id="LineCollection_4">
     <path d="M 330.976875 105.332812 
L 330.976875 95.332812 
" style="fill: none; stroke: #000000"/>
    </g>
    <g id="line2d_22">
     <path d="M 320.976875 100.332812 
L 340.976875 100.332812 
" style="fill: none; stroke-dasharray: 3.7,1.6; stroke-dashoffset: 0; stroke: #000000"/>
    </g>
    <g id="line2d_23">
     <g>
      <use xlink:href="#m912d353b8d" x="330.976875" y="100.332812" style="stroke: #000000; stroke-linejoin: miter"/>
     </g>
    </g>
    <g id="text_17">
     <!-- DULF±SD (n=41) -->
     <g transform="translate(348.976875 103.832812) scale(0.1 -0.1)">
      <defs>
       <path id="DejaVuSans-34" d="M 2419 4116 
L 825 1625 
L 2419 1625 
L 2419 4116 
z
M 2253 4666 
L 3047 4666 
L 3047 1625 
L 3713 1625 
L 3713 1100 
L 3047 1100 
L 3047 0 
L 2419 0 
L 2419 1100 
L 313 1100 
L 313 1709 
L 2253 4666 
z
" transform="scale(0.015625)"/>
      </defs>
      <use xlink:href="#DejaVuSans-44"/>
      <use xlink:href="#DejaVuSans-55" transform="translate(77.001953 0)"/>
      <use xlink:href="#DejaVuSans-4c" transform="translate(150.195312 0)"/>
      <use xlink:href="#DejaVuSans-46" transform="translate(205.908203 0)"/>
      <use xlink:href="#DejaVuSans-b1" transform="translate(263.427734 0)"/>
      <use xlink:href="#DejaVuSans-53" transform="translate(347.216797 0)"/>
      <use xlink:href="#DejaVuSans-44" transform="translate(410.693359 0)"/>
      <use xlink:href="#DejaVuSans-20" transform="translate(487.695312 0)"/>
      <use xlink:href="#DejaVuSans-28" transform="translate(519.482422 0)"/>
      <use xlink:href="#DejaVuSans-6e" transform="translate(558.496094 0)"/>
      <use xlink:href="#DejaVuSans-3d" transform="translate(621.875 0)"/>
      <use xlink:href="#DejaVuSans-34" transform="translate(705.664062 0)"/>
      <use xlink:href="#DejaVuSans-31" transform="translate(769.287109 0)"/>
      <use xlink:href="#DejaVuSans-29" transform="translate(832.910156 0)"/>
     </g>
    </g>
   </g>
  </g>
  <g id="text_18">
   <!-- Zhang2023 (Healthy) -->
   <g transform="translate(94.356562 26.196094) scale(0.25 -0.25)">
    <defs>
     <path id="DejaVuSans-Bold-5a" d="M 359 4666 
L 4281 4666 
L 4281 3938 
L 1778 909 
L 4353 909 
L 4353 0 
L 288 0 
L 288 728 
L 2791 3756 
L 359 3756 
L 359 4666 
z
" transform="scale(0.015625)"/>
     <path id="DejaVuSans-Bold-68" d="M 4056 2131 
L 4056 0 
L 2931 0 
L 2931 347 
L 2931 1625 
Q 2931 2084 2911 2256 
Q 2891 2428 2841 2509 
Q 2775 2619 2662 2680 
Q 2550 2741 2406 2741 
Q 2056 2741 1856 2470 
Q 1656 2200 1656 1722 
L 1656 0 
L 538 0 
L 538 4863 
L 1656 4863 
L 1656 2988 
Q 1909 3294 2193 3439 
Q 2478 3584 2822 3584 
Q 3428 3584 3742 3212 
Q 4056 2841 4056 2131 
z
" transform="scale(0.015625)"/>
     <path id="DejaVuSans-Bold-32" d="M 1844 884 
L 3897 884 
L 3897 0 
L 506 0 
L 506 884 
L 2209 2388 
Q 2438 2594 2547 2791 
Q 2656 2988 2656 3200 
Q 2656 3528 2436 3728 
Q 2216 3928 1850 3928 
Q 1569 3928 1234 3808 
Q 900 3688 519 3450 
L 519 4475 
Q 925 4609 1322 4679 
Q 1719 4750 2100 4750 
Q 2938 4750 3402 4381 
Q 3866 4013 3866 3353 
Q 3866 2972 3669 2642 
Q 3472 2313 2841 1759 
L 1844 884 
z
" transform="scale(0.015625)"/>
     <path id="DejaVuSans-Bold-30" d="M 2944 2338 
Q 2944 3213 2780 3570 
Q 2616 3928 2228 3928 
Q 1841 3928 1675 3570 
Q 1509 3213 1509 2338 
Q 1509 1453 1675 1090 
Q 1841 728 2228 728 
Q 2613 728 2778 1090 
Q 2944 1453 2944 2338 
z
M 4147 2328 
Q 4147 1169 3647 539 
Q 3147 -91 2228 -91 
Q 1306 -91 806 539 
Q 306 1169 306 2328 
Q 306 3491 806 4120 
Q 1306 4750 2228 4750 
Q 3147 4750 3647 4120 
Q 4147 3491 4147 2328 
z
" transform="scale(0.015625)"/>
     <path id="DejaVuSans-Bold-33" d="M 2981 2516 
Q 3453 2394 3698 2092 
Q 3944 1791 3944 1325 
Q 3944 631 3412 270 
Q 2881 -91 1863 -91 
Q 1503 -91 1142 -33 
Q 781 25 428 141 
L 428 1069 
Q 766 900 1098 814 
Q 1431 728 1753 728 
Q 2231 728 2486 893 
Q 2741 1059 2741 1369 
Q 2741 1688 2480 1852 
Q 2219 2016 1709 2016 
L 1228 2016 
L 1228 2791 
L 1734 2791 
Q 2188 2791 2409 2933 
Q 2631 3075 2631 3366 
Q 2631 3634 2415 3781 
Q 2200 3928 1806 3928 
Q 1516 3928 1219 3862 
Q 922 3797 628 3669 
L 628 4550 
Q 984 4650 1334 4700 
Q 1684 4750 2022 4750 
Q 2931 4750 3382 4451 
Q 3834 4153 3834 3553 
Q 3834 3144 3618 2883 
Q 3403 2622 2981 2516 
z
" transform="scale(0.015625)"/>
     <path id="DejaVuSans-Bold-28" d="M 2413 -844 
L 1484 -844 
Q 1006 -72 778 623 
Q 550 1319 550 2003 
Q 550 2688 779 3389 
Q 1009 4091 1484 4856 
L 2413 4856 
Q 2013 4116 1813 3408 
Q 1613 2700 1613 2009 
Q 1613 1319 1811 609 
Q 2009 -100 2413 -844 
z
" transform="scale(0.015625)"/>
     <path id="DejaVuSans-Bold-48" d="M 588 4666 
L 1791 4666 
L 1791 2888 
L 3566 2888 
L 3566 4666 
L 4769 4666 
L 4769 0 
L 3566 0 
L 3566 1978 
L 1791 1978 
L 1791 0 
L 588 0 
L 588 4666 
z
" transform="scale(0.015625)"/>
     <path id="DejaVuSans-Bold-79" d="M 78 3500 
L 1197 3500 
L 2138 1125 
L 2938 3500 
L 4056 3500 
L 2584 -331 
Q 2363 -916 2067 -1148 
Q 1772 -1381 1288 -1381 
L 641 -1381 
L 641 -647 
L 991 -647 
Q 1275 -647 1404 -556 
Q 1534 -466 1606 -231 
L 1638 -134 
L 78 3500 
z
" transform="scale(0.015625)"/>
     <path id="DejaVuSans-Bold-29" d="M 513 -844 
Q 913 -100 1113 609 
Q 1313 1319 1313 2009 
Q 1313 2700 1113 3408 
Q 913 4116 513 4856 
L 1441 4856 
Q 1916 4091 2145 3389 
Q 2375 2688 2375 2003 
Q 2375 1319 2147 623 
Q 1919 -72 1441 -844 
L 513 -844 
z
" transform="scale(0.015625)"/>
    </defs>
    <use xlink:href="#DejaVuSans-Bold-5a"/>
    <use xlink:href="#DejaVuSans-Bold-68" transform="translate(72.509766 0)"/>
    <use xlink:href="#DejaVuSans-Bold-61" transform="translate(143.701172 0)"/>
    <use xlink:href="#DejaVuSans-Bold-6e" transform="translate(211.181641 0)"/>
    <use xlink:href="#DejaVuSans-Bold-67" transform="translate(282.373047 0)"/>
    <use xlink:href="#DejaVuSans-Bold-32" transform="translate(353.955078 0)"/>
    <use xlink:href="#DejaVuSans-Bold-30" transform="translate(423.535156 0)"/>
    <use xlink:href="#DejaVuSans-Bold-32" transform="translate(493.115234 0)"/>
    <use xlink:href="#DejaVuSans-Bold-33" transform="translate(562.695312 0)"/>
    <use xlink:href="#DejaVuSans-Bold-20" transform="translate(632.275391 0)"/>
    <use xlink:href="#DejaVuSans-Bold-28" transform="translate(667.089844 0)"/>
    <use xlink:href="#DejaVuSans-Bold-48" transform="translate(712.792969 0)"/>
    <use xlink:href="#DejaVuSans-Bold-65" transform="translate(796.484375 0)"/>
    <use xlink:href="#DejaVuSans-Bold-61" transform="translate(864.306641 0)"/>
    <use xlink:href="#DejaVuSans-Bold-6c" transform="translate(931.787109 0)"/>
    <use xlink:href="#DejaVuSans-Bold-74" transform="translate(966.064453 0)"/>
    <use xlink:href="#DejaVuSans-Bold-68" transform="translate(1013.867188 0)"/>
    <use xlink:href="#DejaVuSans-Bold-79" transform="translate(1085.058594 0)"/>
    <use xlink:href="#DejaVuSans-Bold-29" transform="translate(1150.244141 0)"/>
   </g>
  </g>
 </g>
 <defs>
  <clipPath id="pe0664b7817">
   <rect x="54.84875" y="43.2" width="390.6" height="277.2"/>
  </clipPath>
 </defs>
</svg>
